0
SECTION
2
HEADER
9
$INSUNITS
70
4
9
$ACADVER
1
AC1014
9
$HANDSEED
5
FFFF
0
ENDSEC
0
SECTION
2
TABLES
0
TABLE
2
VPORT
5
8
100
AcDbSymbolTable
0
ENDTAB
0
TABLE
2
LTYPE
5
5
100
AcDbSymbolTable
0
LTYPE
5
14
100
AcDbSymbolTableRecord
100
AcDbLinetypeTableRecord
2
BYBLOCK
70
0
0
LTYPE
5
15
100
AcDbSymbolTableRecord
100
AcDbLinetypeTableRecord
2
BYLAYER
70
0
0
ENDTAB
0
TABLE
2
LAYER
5
2
100
AcDbSymbolTable
70
2
0
LAYER
5
50
100
AcDbSymbolTableRecord
100
AcDbLayerTableRecord
2
0
70
0
6
CONTINUOUS
0
ENDTAB
0
TABLE
2
STYLE
5
3
100
AcDbSymbolTable
70
1
0
STYLE
5
11
100
AcDbSymbolTableRecord
100
AcDbTextStyleTableRecord
2
STANDARD
70
0
0
ENDTAB
0
TABLE
2
VIEW
5
6
100
AcDbSymbolTable
70
0
0
ENDTAB
0
TABLE
2
UCS
5
7
100
AcDbSymbolTable
70
0
0
ENDTAB
0
TABLE
2
APPID
5
9
100
AcDbSymbolTable
70
2
0
APPID
5
12
100
AcDbSymbolTableRecord
100
AcDbRegAppTableRecord
2
ACAD
70
0
0
ENDTAB
0
TABLE
2
DIMSTYLE
5
A
100
AcDbSymbolTable
70
1
0
ENDTAB
0
TABLE
2
BLOCK_RECORD
5
1
100
AcDbSymbolTable
70
1
0
BLOCK_RECORD
5
1F
100
AcDbSymbolTableRecord
100
AcDbBlockTableRecord
2
*MODEL_SPACE
0
BLOCK_RECORD
5
1B
100
AcDbSymbolTableRecord
100
AcDbBlockTableRecord
2
*PAPER_SPACE
0
ENDTAB
0
ENDSEC
0
SECTION
2
BLOCKS
0
BLOCK
5
20
100
AcDbEntity
100
AcDbBlockBegin
2
*MODEL_SPACE
0
ENDBLK
5
21
100
AcDbEntity
100
AcDbBlockEnd
0
BLOCK
5
1C
100
AcDbEntity
100
AcDbBlockBegin
2
*PAPER_SPACE
0
ENDBLK
5
1D
100
AcDbEntity
100
AcDbBlockEnd
0
ENDSEC
0
SECTION
2
ENTITIES
0
ARC
5
100
100
AcDbEntity
8
0
100
AcDbCircle
10
81.756249999999994
20
-107.95000000000002
30
0
40
13.381250000000016
210
0
220
-0
230
1
100
AcDbArc
50
90
51
180
0
LINE
5
101
100
AcDbEntity
8
0
100
AcDbLine
10
78.374999985098839
20
-109.53749999999999
30
0
11
78.374999985098839
21
-227.80625000000001
31
0
0
LINE
5
102
100
AcDbEntity
8
0
100
AcDbLine
10
68.375
20
-109.53749999999999
30
0
11
68.375
21
-227.80625000000001
31
0
0
ARC
5
103
100
AcDbEntity
8
0
100
AcDbCircle
10
81.756249999999994
20
-227.80625000000001
30
0
40
13.381249999999998
210
0
220
0
230
1
100
AcDbArc
50
180
51
270
0
ARC
5
104
100
AcDbEntity
8
0
100
AcDbCircle
10
81.756249999999994
20
-227.80625000000001
30
0
40
3.3812500149011626
210
0
220
0
230
1
100
AcDbArc
50
180
51
270
0
LINE
5
105
100
AcDbEntity
8
0
100
AcDbLine
10
81.756249999999994
20
-231.18750001490116
30
0
11
362.74374999999998
21
-231.18750001490116
31
0
0
LINE
5
106
100
AcDbEntity
8
0
100
AcDbLine
10
81.756249999999994
20
-241.18750000000003
30
0
11
362.74374999999998
21
-241.18750000000003
31
0
0
ARC
5
107
100
AcDbEntity
8
0
100
AcDbCircle
10
362.74374999999998
20
-227.80625000000001
30
0
40
13.381250000000016
210
-0
220
0
230
1
100
AcDbArc
50
-90
51
0
0
ARC
5
108
100
AcDbEntity
8
0
100
AcDbCircle
10
362.74374999999998
20
-227.80625000000001
30
0
40
3.3812500149011626
210
-0
220
0
230
1
100
AcDbArc
50
-90
51
0
0
LINE
5
109
100
AcDbEntity
8
0
100
AcDbLine
10
366.12500001490116
20
-227.80625000000001
30
0
11
366.12500001490116
21
-107.95000000000002
31
0
0
LINE
5
110
100
AcDbEntity
8
0
100
AcDbLine
10
376.125
20
-227.80625000000001
30
0
11
376.12500000000006
21
-107.95000000000002
31
0
0
ARC
5
111
100
AcDbEntity
8
0
100
AcDbCircle
10
362.74374999999998
20
-107.95000000000002
30
0
40
13.381250000000051
210
0
220
-0
230
1
100
AcDbArc
50
0
51
90
0
ARC
5
112
100
AcDbEntity
8
0
100
AcDbCircle
10
362.74374999999998
20
-107.95000000000002
30
0
40
3.3812500149011271
210
0
220
-0
230
1
100
AcDbArc
50
0
51
90
0
ARC
5
113
100
AcDbEntity
8
0
100
AcDbCircle
10
81.756249999999994
20
-107.95000000000002
30
0
40
3.3812500149011804
210
0
220
-0
230
1
100
AcDbArc
50
90
51
180
0
LINE
5
114
100
AcDbEntity
8
0
100
AcDbLine
10
78.374999985098839
20
-107.95000000000002
30
0
11
78.374999985098839
21
-109.53749999999999
31
0
0
LINE
5
115
100
AcDbEntity
8
0
100
AcDbLine
10
82.550000000000026
20
-94.568749999999994
30
0
11
81.756249999999994
21
-94.568749999999994
31
0
0
LINE
5
116
100
AcDbEntity
8
0
100
AcDbLine
10
82.550000000000026
20
-104.56874998509883
30
0
11
81.756249999999994
21
-104.56874998509883
31
0
0
LINE
5
117
100
AcDbEntity
8
0
100
AcDbLine
10
68.375
20
-107.95000000000002
30
0
11
68.375
21
-109.53749999999999
31
0
0
LINE
5
118
100
AcDbEntity
8
0
100
AcDbLine
10
330.56202463171007
20
-102.56874998509879
30
0
11
330.56202463171007
21
-96.568750000000051
31
0
0
LINE
5
119
100
AcDbEntity
8
0
100
AcDbLine
10
344.56202463172866
20
-102.56874998509879
30
0
11
344.56202463172866
21
-96.568750000000108
31
0
0
LINE
5
120
100
AcDbEntity
8
0
100
AcDbLine
10
362.74374999999998
20
-94.568750000000051
30
0
11
346.56202463172866
21
-94.56875000000008
31
0
0
LINE
5
121
100
AcDbEntity
8
0
100
AcDbLine
10
362.74374999999998
20
-104.56874998509889
30
0
11
346.56202463172866
21
-104.56874998509882
31
0
0
LINE
5
122
100
AcDbEntity
8
0
100
AcDbLine
10
328.56202463171002
20
-94.568750000000051
30
0
11
82.550000000000026
21
-94.568749999999994
31
0
0
LINE
5
123
100
AcDbEntity
8
0
100
AcDbLine
10
82.550000000000026
20
-104.56874998509883
30
0
11
328.56202463171002
21
-104.56874998509882
31
0
0
CIRCLE
5
124
100
AcDbEntity
8
0
100
AcDbCircle
10
91.756249999999994
20
-99.568750014901156
30
0
40
2.5500000000000078
210
0
220
-0
230
1
0
CIRCLE
5
125
100
AcDbEntity
8
0
100
AcDbCircle
10
171.75624999999999
20
-99.568750014901156
30
0
40
2.5499999999999901
210
0
220
-0
230
1
0
CIRCLE
5
126
100
AcDbEntity
8
0
100
AcDbCircle
10
272.74374999999998
20
-99.568750014901156
30
0
40
2.5499999999999901
210
0
220
-0
230
1
0
CIRCLE
5
127
100
AcDbEntity
8
0
100
AcDbCircle
10
352.74374999999998
20
-99.568750014901156
30
0
40
2.5499999999999878
210
0
220
-0
230
1
0
CIRCLE
5
128
100
AcDbEntity
8
0
100
AcDbCircle
10
352.74374999999998
20
-236.18750001490116
30
0
40
2.5499999999999878
210
0
220
-0
230
1
0
CIRCLE
5
129
100
AcDbEntity
8
0
100
AcDbCircle
10
272.74374999999998
20
-236.18750001490116
30
0
40
2.5499999999999901
210
0
220
-0
230
1
0
CIRCLE
5
130
100
AcDbEntity
8
0
100
AcDbCircle
10
171.75624999999999
20
-236.18750001490116
30
0
40
2.5499999999999901
210
0
220
-0
230
1
0
CIRCLE
5
131
100
AcDbEntity
8
0
100
AcDbCircle
10
91.756249999999994
20
-236.18750001490116
30
0
40
2.5500000000000078
210
0
220
-0
230
1
0
ARC
5
132
100
AcDbEntity
8
0
100
AcDbCircle
10
328.56202463171002
20
-96.568750000000108
30
0
40
2.0000000000000284
210
0
220
-0
230
1
100
AcDbArc
50
0
51
90
0
ARC
5
133
100
AcDbEntity
8
0
100
AcDbCircle
10
328.56202463171002
20
-102.56874998509879
30
0
40
2.0000000000000284
210
-0
220
0
230
1
100
AcDbArc
50
-90
51
0
0
ARC
5
134
100
AcDbEntity
8
0
100
AcDbCircle
10
346.56202463172872
20
-102.56874998509872
30
0
40
2.0000000000000995
210
0
220
0
230
1
100
AcDbArc
50
180
51
269.99999999999835
0
ARC
5
135
100
AcDbEntity
8
0
100
AcDbCircle
10
346.56202463172872
20
-96.568750000000165
30
0
40
2.0000000000000995
210
0
220
0
230
1
100
AcDbArc
50
90.000000000001634
51
180
0
ENDSEC
0
SECTION
2
OBJECTS
0
DICTIONARY
5
C
100
AcDbDictionary
3
ACAD_GROUP
350
D
3
ACAD_MLINESTYLE
350
17
0
DICTIONARY
5
D
100
AcDbDictionary
0
DICTIONARY
5
1A
330
C
100
AcDbDictionary
0
DICTIONARY
5
17
100
AcDbDictionary
0
ENDSEC
0
EOF
