G04 #@! TF.GenerationSoftware,KiCad,Pcbnew,5.1.6*
G04 #@! TF.CreationDate,2020-06-22T06:55:26+02:00*
G04 #@! TF.ProjectId,punk75_inner,70756e6b-3735-45f6-996e-6e65722e6b69,rev?*
G04 #@! TF.SameCoordinates,Original*
G04 #@! TF.FileFunction,Soldermask,Bot*
G04 #@! TF.FilePolarity,Negative*
%FSLAX46Y46*%
G04 Gerber Fmt 4.6, Leading zero omitted, Abs format (unit mm)*
G04 Created by KiCad (PCBNEW 5.1.6) date 2020-06-22 06:55:26*
%MOMM*%
%LPD*%
G01*
G04 APERTURE LIST*
%ADD10C,0.100000*%
G04 APERTURE END LIST*
D10*
G36*
X274004554Y-231994284D02*
G01*
X274763146Y-232308503D01*
X274787288Y-232318503D01*
X275491728Y-232789195D01*
X276090805Y-233388272D01*
X276561497Y-234092712D01*
X276561498Y-234092714D01*
X276885716Y-234875446D01*
X277051000Y-235706387D01*
X277051000Y-236553613D01*
X276885716Y-237384554D01*
X276885715Y-237384556D01*
X276561497Y-238167288D01*
X276090805Y-238871728D01*
X275491728Y-239470805D01*
X274787288Y-239941497D01*
X274787287Y-239941498D01*
X274787286Y-239941498D01*
X274004554Y-240265716D01*
X273173613Y-240431000D01*
X272326387Y-240431000D01*
X271495446Y-240265716D01*
X270712714Y-239941498D01*
X270712713Y-239941498D01*
X270712712Y-239941497D01*
X270008272Y-239470805D01*
X269409195Y-238871728D01*
X268938503Y-238167288D01*
X268614285Y-237384556D01*
X268614284Y-237384554D01*
X268449000Y-236553613D01*
X268449000Y-235706387D01*
X268614284Y-234875446D01*
X268938502Y-234092714D01*
X268938503Y-234092712D01*
X269409195Y-233388272D01*
X270008272Y-232789195D01*
X270712712Y-232318503D01*
X270736854Y-232308503D01*
X271495446Y-231994284D01*
X272326387Y-231829000D01*
X273173613Y-231829000D01*
X274004554Y-231994284D01*
G37*
G36*
X173024554Y-231984284D02*
G01*
X173783146Y-232298503D01*
X173807288Y-232308503D01*
X174511728Y-232779195D01*
X175110805Y-233378272D01*
X175581497Y-234082712D01*
X175581498Y-234082714D01*
X175905716Y-234865446D01*
X176071000Y-235696387D01*
X176071000Y-236543613D01*
X175905716Y-237374554D01*
X175905715Y-237374556D01*
X175581497Y-238157288D01*
X175110805Y-238861728D01*
X174511728Y-239460805D01*
X173807288Y-239931497D01*
X173807287Y-239931498D01*
X173807286Y-239931498D01*
X173024554Y-240255716D01*
X172193613Y-240421000D01*
X171346387Y-240421000D01*
X170515446Y-240255716D01*
X169732714Y-239931498D01*
X169732713Y-239931498D01*
X169732712Y-239931497D01*
X169028272Y-239460805D01*
X168429195Y-238861728D01*
X167958503Y-238157288D01*
X167634285Y-237374556D01*
X167634284Y-237374554D01*
X167469000Y-236543613D01*
X167469000Y-235696387D01*
X167634284Y-234865446D01*
X167958502Y-234082714D01*
X167958503Y-234082712D01*
X168429195Y-233378272D01*
X169028272Y-232779195D01*
X169732712Y-232308503D01*
X169756854Y-232298503D01*
X170515446Y-231984284D01*
X171346387Y-231819000D01*
X172193613Y-231819000D01*
X173024554Y-231984284D01*
G37*
G36*
X353994554Y-231974284D02*
G01*
X354777286Y-232298502D01*
X354777288Y-232298503D01*
X355481728Y-232769195D01*
X356080805Y-233368272D01*
X356094169Y-233388273D01*
X356551498Y-234072714D01*
X356875716Y-234855446D01*
X357041000Y-235686387D01*
X357041000Y-236533613D01*
X356875716Y-237364554D01*
X356875715Y-237364556D01*
X356551497Y-238147288D01*
X356080805Y-238851728D01*
X355481728Y-239450805D01*
X354777288Y-239921497D01*
X354777287Y-239921498D01*
X354777286Y-239921498D01*
X353994554Y-240245716D01*
X353163613Y-240411000D01*
X352316387Y-240411000D01*
X351485446Y-240245716D01*
X350702714Y-239921498D01*
X350702713Y-239921498D01*
X350702712Y-239921497D01*
X349998272Y-239450805D01*
X349399195Y-238851728D01*
X348928503Y-238147288D01*
X348604285Y-237364556D01*
X348604284Y-237364554D01*
X348439000Y-236533613D01*
X348439000Y-235686387D01*
X348604284Y-234855446D01*
X348928502Y-234072714D01*
X349385831Y-233388273D01*
X349399195Y-233368272D01*
X349998272Y-232769195D01*
X350702712Y-232298503D01*
X350702714Y-232298502D01*
X351485446Y-231974284D01*
X352316387Y-231809000D01*
X353163613Y-231809000D01*
X353994554Y-231974284D01*
G37*
G36*
X93014554Y-231974284D02*
G01*
X93797286Y-232298502D01*
X93797288Y-232298503D01*
X94501728Y-232769195D01*
X95100805Y-233368272D01*
X95114169Y-233388273D01*
X95571498Y-234072714D01*
X95895716Y-234855446D01*
X96061000Y-235686387D01*
X96061000Y-236533613D01*
X95895716Y-237364554D01*
X95895715Y-237364556D01*
X95571497Y-238147288D01*
X95100805Y-238851728D01*
X94501728Y-239450805D01*
X93797288Y-239921497D01*
X93797287Y-239921498D01*
X93797286Y-239921498D01*
X93014554Y-240245716D01*
X92183613Y-240411000D01*
X91336387Y-240411000D01*
X90505446Y-240245716D01*
X89722714Y-239921498D01*
X89722713Y-239921498D01*
X89722712Y-239921497D01*
X89018272Y-239450805D01*
X88419195Y-238851728D01*
X87948503Y-238147288D01*
X87624285Y-237364556D01*
X87624284Y-237364554D01*
X87459000Y-236533613D01*
X87459000Y-235686387D01*
X87624284Y-234855446D01*
X87948502Y-234072714D01*
X88405831Y-233388273D01*
X88419195Y-233368272D01*
X89018272Y-232769195D01*
X89722712Y-232298503D01*
X89722714Y-232298502D01*
X90505446Y-231974284D01*
X91336387Y-231809000D01*
X92183613Y-231809000D01*
X93014554Y-231974284D01*
G37*
G36*
X354004554Y-95364284D02*
G01*
X354739004Y-95668503D01*
X354787288Y-95688503D01*
X355491728Y-96159195D01*
X356090805Y-96758272D01*
X356556752Y-97455611D01*
X356561498Y-97462714D01*
X356885716Y-98245446D01*
X357051000Y-99076387D01*
X357051000Y-99923613D01*
X356885716Y-100754554D01*
X356674029Y-101265611D01*
X356561497Y-101537288D01*
X356090805Y-102241728D01*
X355491728Y-102840805D01*
X354787288Y-103311497D01*
X354787287Y-103311498D01*
X354787286Y-103311498D01*
X354004554Y-103635716D01*
X353173613Y-103801000D01*
X352326387Y-103801000D01*
X351495446Y-103635716D01*
X350712714Y-103311498D01*
X350712713Y-103311498D01*
X350712712Y-103311497D01*
X350008272Y-102840805D01*
X349409195Y-102241728D01*
X348938503Y-101537288D01*
X348825971Y-101265611D01*
X348614284Y-100754554D01*
X348449000Y-99923613D01*
X348449000Y-99076387D01*
X348614284Y-98245446D01*
X348938502Y-97462714D01*
X348943248Y-97455611D01*
X349409195Y-96758272D01*
X350008272Y-96159195D01*
X350712712Y-95688503D01*
X350760996Y-95668503D01*
X351495446Y-95364284D01*
X352326387Y-95199000D01*
X353173613Y-95199000D01*
X354004554Y-95364284D01*
G37*
G36*
X274004554Y-95364284D02*
G01*
X274739004Y-95668503D01*
X274787288Y-95688503D01*
X275491728Y-96159195D01*
X276090805Y-96758272D01*
X276556752Y-97455611D01*
X276561498Y-97462714D01*
X276885716Y-98245446D01*
X277051000Y-99076387D01*
X277051000Y-99923613D01*
X276885716Y-100754554D01*
X276674029Y-101265611D01*
X276561497Y-101537288D01*
X276090805Y-102241728D01*
X275491728Y-102840805D01*
X274787288Y-103311497D01*
X274787287Y-103311498D01*
X274787286Y-103311498D01*
X274004554Y-103635716D01*
X273173613Y-103801000D01*
X272326387Y-103801000D01*
X271495446Y-103635716D01*
X270712714Y-103311498D01*
X270712713Y-103311498D01*
X270712712Y-103311497D01*
X270008272Y-102840805D01*
X269409195Y-102241728D01*
X268938503Y-101537288D01*
X268825971Y-101265611D01*
X268614284Y-100754554D01*
X268449000Y-99923613D01*
X268449000Y-99076387D01*
X268614284Y-98245446D01*
X268938502Y-97462714D01*
X268943248Y-97455611D01*
X269409195Y-96758272D01*
X270008272Y-96159195D01*
X270712712Y-95688503D01*
X270760996Y-95668503D01*
X271495446Y-95364284D01*
X272326387Y-95199000D01*
X273173613Y-95199000D01*
X274004554Y-95364284D01*
G37*
G36*
X173014554Y-95344284D02*
G01*
X173797286Y-95668502D01*
X173797288Y-95668503D01*
X174501728Y-96139195D01*
X175100805Y-96738272D01*
X175525198Y-97373421D01*
X175571498Y-97442714D01*
X175895716Y-98225446D01*
X176061000Y-99056387D01*
X176061000Y-99903613D01*
X175895716Y-100734554D01*
X175571498Y-101517286D01*
X175571497Y-101517288D01*
X175100805Y-102221728D01*
X174501728Y-102820805D01*
X173797288Y-103291497D01*
X173797287Y-103291498D01*
X173797286Y-103291498D01*
X173014554Y-103615716D01*
X172183613Y-103781000D01*
X171336387Y-103781000D01*
X170505446Y-103615716D01*
X169722714Y-103291498D01*
X169722713Y-103291498D01*
X169722712Y-103291497D01*
X169018272Y-102820805D01*
X168419195Y-102221728D01*
X167948503Y-101517288D01*
X167948502Y-101517286D01*
X167624284Y-100734554D01*
X167459000Y-99903613D01*
X167459000Y-99056387D01*
X167624284Y-98225446D01*
X167948502Y-97442714D01*
X167994802Y-97373421D01*
X168419195Y-96738272D01*
X169018272Y-96139195D01*
X169722712Y-95668503D01*
X169722714Y-95668502D01*
X170505446Y-95344284D01*
X171336387Y-95179000D01*
X172183613Y-95179000D01*
X173014554Y-95344284D01*
G37*
G36*
X93004554Y-95344284D02*
G01*
X93787286Y-95668502D01*
X93787288Y-95668503D01*
X94491728Y-96139195D01*
X95090805Y-96738272D01*
X95515198Y-97373421D01*
X95561498Y-97442714D01*
X95885716Y-98225446D01*
X96051000Y-99056387D01*
X96051000Y-99903613D01*
X95885716Y-100734554D01*
X95561498Y-101517286D01*
X95561497Y-101517288D01*
X95090805Y-102221728D01*
X94491728Y-102820805D01*
X93787288Y-103291497D01*
X93787287Y-103291498D01*
X93787286Y-103291498D01*
X93004554Y-103615716D01*
X92173613Y-103781000D01*
X91326387Y-103781000D01*
X90495446Y-103615716D01*
X89712714Y-103291498D01*
X89712713Y-103291498D01*
X89712712Y-103291497D01*
X89008272Y-102820805D01*
X88409195Y-102221728D01*
X87938503Y-101517288D01*
X87938502Y-101517286D01*
X87614284Y-100734554D01*
X87449000Y-99903613D01*
X87449000Y-99056387D01*
X87614284Y-98225446D01*
X87938502Y-97442714D01*
X87984802Y-97373421D01*
X88409195Y-96738272D01*
X89008272Y-96139195D01*
X89712712Y-95668503D01*
X89712714Y-95668502D01*
X90495446Y-95344284D01*
X91326387Y-95179000D01*
X92173613Y-95179000D01*
X93004554Y-95344284D01*
G37*
G36*
X330685314Y-101680389D02*
G01*
X330766245Y-101713912D01*
X330839080Y-101762579D01*
X330901021Y-101824520D01*
X330949688Y-101897355D01*
X330949689Y-101897357D01*
X330983211Y-101978286D01*
X331000300Y-102064199D01*
X331000300Y-102151801D01*
X330986391Y-102221727D01*
X330983211Y-102237714D01*
X330949688Y-102318645D01*
X330901021Y-102391480D01*
X330839080Y-102453421D01*
X330766245Y-102502088D01*
X330766244Y-102502089D01*
X330766243Y-102502089D01*
X330685314Y-102535611D01*
X330599401Y-102552700D01*
X330511799Y-102552700D01*
X330425886Y-102535611D01*
X330344957Y-102502089D01*
X330344956Y-102502089D01*
X330344955Y-102502088D01*
X330272120Y-102453421D01*
X330210179Y-102391480D01*
X330161512Y-102318645D01*
X330127989Y-102237714D01*
X330124809Y-102221727D01*
X330110900Y-102151801D01*
X330110900Y-102064199D01*
X330127989Y-101978286D01*
X330161511Y-101897357D01*
X330161512Y-101897355D01*
X330210179Y-101824520D01*
X330272120Y-101762579D01*
X330344955Y-101713912D01*
X330425886Y-101680389D01*
X330511799Y-101663300D01*
X330599401Y-101663300D01*
X330685314Y-101680389D01*
G37*
G36*
X344706114Y-101629589D02*
G01*
X344787045Y-101663112D01*
X344859880Y-101711779D01*
X344921821Y-101773720D01*
X344955766Y-101824522D01*
X344970489Y-101846557D01*
X345004011Y-101927486D01*
X345021100Y-102013399D01*
X345021100Y-102101001D01*
X345004011Y-102186914D01*
X344989591Y-102221728D01*
X344970488Y-102267845D01*
X344921821Y-102340680D01*
X344859880Y-102402621D01*
X344787045Y-102451288D01*
X344787044Y-102451289D01*
X344787043Y-102451289D01*
X344706114Y-102484811D01*
X344620201Y-102501900D01*
X344532599Y-102501900D01*
X344446686Y-102484811D01*
X344365757Y-102451289D01*
X344365756Y-102451289D01*
X344365755Y-102451288D01*
X344292920Y-102402621D01*
X344230979Y-102340680D01*
X344182312Y-102267845D01*
X344163210Y-102221728D01*
X344148789Y-102186914D01*
X344131700Y-102101001D01*
X344131700Y-102013399D01*
X344148789Y-101927486D01*
X344182311Y-101846557D01*
X344197034Y-101824522D01*
X344230979Y-101773720D01*
X344292920Y-101711779D01*
X344365755Y-101663112D01*
X344446686Y-101629589D01*
X344532599Y-101612500D01*
X344620201Y-101612500D01*
X344706114Y-101629589D01*
G37*
G36*
X330685314Y-100410389D02*
G01*
X330766245Y-100443912D01*
X330839080Y-100492579D01*
X330901021Y-100554520D01*
X330949688Y-100627355D01*
X330949689Y-100627357D01*
X330983211Y-100708286D01*
X331000300Y-100794199D01*
X331000300Y-100881801D01*
X330983211Y-100967714D01*
X330949688Y-101048645D01*
X330901021Y-101121480D01*
X330839080Y-101183421D01*
X330766245Y-101232088D01*
X330766244Y-101232089D01*
X330766243Y-101232089D01*
X330685314Y-101265611D01*
X330599401Y-101282700D01*
X330511799Y-101282700D01*
X330425886Y-101265611D01*
X330344957Y-101232089D01*
X330344956Y-101232089D01*
X330344955Y-101232088D01*
X330272120Y-101183421D01*
X330210179Y-101121480D01*
X330161512Y-101048645D01*
X330127989Y-100967714D01*
X330110900Y-100881801D01*
X330110900Y-100794199D01*
X330127989Y-100708286D01*
X330161511Y-100627357D01*
X330161512Y-100627355D01*
X330210179Y-100554520D01*
X330272120Y-100492579D01*
X330344955Y-100443912D01*
X330425886Y-100410389D01*
X330511799Y-100393300D01*
X330599401Y-100393300D01*
X330685314Y-100410389D01*
G37*
G36*
X344706114Y-100359589D02*
G01*
X344787045Y-100393112D01*
X344859880Y-100441779D01*
X344921821Y-100503720D01*
X344955766Y-100554522D01*
X344970489Y-100576557D01*
X345004011Y-100657486D01*
X345019341Y-100734554D01*
X345021100Y-100743401D01*
X345021100Y-100830999D01*
X345004011Y-100916914D01*
X344970488Y-100997845D01*
X344921821Y-101070680D01*
X344859880Y-101132621D01*
X344787045Y-101181288D01*
X344787044Y-101181289D01*
X344787043Y-101181289D01*
X344706114Y-101214811D01*
X344620201Y-101231900D01*
X344532599Y-101231900D01*
X344446686Y-101214811D01*
X344365757Y-101181289D01*
X344365756Y-101181289D01*
X344365755Y-101181288D01*
X344292920Y-101132621D01*
X344230979Y-101070680D01*
X344182312Y-100997845D01*
X344148789Y-100916914D01*
X344131700Y-100830999D01*
X344131700Y-100743401D01*
X344133460Y-100734554D01*
X344148789Y-100657486D01*
X344182311Y-100576557D01*
X344197034Y-100554522D01*
X344230979Y-100503720D01*
X344292920Y-100441779D01*
X344365755Y-100393112D01*
X344446686Y-100359589D01*
X344532599Y-100342500D01*
X344620201Y-100342500D01*
X344706114Y-100359589D01*
G37*
G36*
X330685314Y-99140389D02*
G01*
X330766245Y-99173912D01*
X330839080Y-99222579D01*
X330901021Y-99284520D01*
X330949688Y-99357355D01*
X330949689Y-99357357D01*
X330983211Y-99438286D01*
X331000300Y-99524199D01*
X331000300Y-99611801D01*
X330983211Y-99697714D01*
X330949688Y-99778645D01*
X330901021Y-99851480D01*
X330839080Y-99913421D01*
X330766245Y-99962088D01*
X330766244Y-99962089D01*
X330766243Y-99962089D01*
X330685314Y-99995611D01*
X330599401Y-100012700D01*
X330511799Y-100012700D01*
X330425886Y-99995611D01*
X330344957Y-99962089D01*
X330344956Y-99962089D01*
X330344955Y-99962088D01*
X330272120Y-99913421D01*
X330210179Y-99851480D01*
X330161512Y-99778645D01*
X330127989Y-99697714D01*
X330110900Y-99611801D01*
X330110900Y-99524199D01*
X330127989Y-99438286D01*
X330161511Y-99357357D01*
X330161512Y-99357355D01*
X330210179Y-99284520D01*
X330272120Y-99222579D01*
X330344955Y-99173912D01*
X330425886Y-99140389D01*
X330511799Y-99123300D01*
X330599401Y-99123300D01*
X330685314Y-99140389D01*
G37*
G36*
X344706114Y-99089589D02*
G01*
X344787045Y-99123112D01*
X344859880Y-99171779D01*
X344921821Y-99233720D01*
X344955766Y-99284522D01*
X344970489Y-99306557D01*
X345004011Y-99387486D01*
X345014116Y-99438286D01*
X345021100Y-99473401D01*
X345021100Y-99560999D01*
X345004011Y-99646914D01*
X344970488Y-99727845D01*
X344921821Y-99800680D01*
X344859880Y-99862621D01*
X344787045Y-99911288D01*
X344787044Y-99911289D01*
X344787043Y-99911289D01*
X344706114Y-99944811D01*
X344620201Y-99961900D01*
X344532599Y-99961900D01*
X344446686Y-99944811D01*
X344365757Y-99911289D01*
X344365756Y-99911289D01*
X344365755Y-99911288D01*
X344292920Y-99862621D01*
X344230979Y-99800680D01*
X344182312Y-99727845D01*
X344148789Y-99646914D01*
X344131700Y-99560999D01*
X344131700Y-99473401D01*
X344138685Y-99438286D01*
X344148789Y-99387486D01*
X344182311Y-99306557D01*
X344197034Y-99284522D01*
X344230979Y-99233720D01*
X344292920Y-99171779D01*
X344365755Y-99123112D01*
X344446686Y-99089589D01*
X344532599Y-99072500D01*
X344620201Y-99072500D01*
X344706114Y-99089589D01*
G37*
G36*
X330685314Y-97870389D02*
G01*
X330766245Y-97903912D01*
X330839080Y-97952579D01*
X330901021Y-98014520D01*
X330949688Y-98087355D01*
X330949689Y-98087357D01*
X330983211Y-98168286D01*
X331000300Y-98254199D01*
X331000300Y-98341801D01*
X330983211Y-98427714D01*
X330949688Y-98508645D01*
X330901021Y-98581480D01*
X330839080Y-98643421D01*
X330766245Y-98692088D01*
X330766244Y-98692089D01*
X330766243Y-98692089D01*
X330685314Y-98725611D01*
X330599401Y-98742700D01*
X330511799Y-98742700D01*
X330425886Y-98725611D01*
X330344957Y-98692089D01*
X330344956Y-98692089D01*
X330344955Y-98692088D01*
X330272120Y-98643421D01*
X330210179Y-98581480D01*
X330161512Y-98508645D01*
X330127989Y-98427714D01*
X330110900Y-98341801D01*
X330110900Y-98254199D01*
X330127989Y-98168286D01*
X330161511Y-98087357D01*
X330161512Y-98087355D01*
X330210179Y-98014520D01*
X330272120Y-97952579D01*
X330344955Y-97903912D01*
X330425886Y-97870389D01*
X330511799Y-97853300D01*
X330599401Y-97853300D01*
X330685314Y-97870389D01*
G37*
G36*
X344706114Y-97819589D02*
G01*
X344787045Y-97853112D01*
X344859880Y-97901779D01*
X344921821Y-97963720D01*
X344955766Y-98014522D01*
X344970489Y-98036557D01*
X345004011Y-98117486D01*
X345014116Y-98168286D01*
X345021100Y-98203401D01*
X345021100Y-98290999D01*
X345004011Y-98376914D01*
X344970488Y-98457845D01*
X344921821Y-98530680D01*
X344859880Y-98592621D01*
X344787045Y-98641288D01*
X344787044Y-98641289D01*
X344787043Y-98641289D01*
X344706114Y-98674811D01*
X344620201Y-98691900D01*
X344532599Y-98691900D01*
X344446686Y-98674811D01*
X344365757Y-98641289D01*
X344365756Y-98641289D01*
X344365755Y-98641288D01*
X344292920Y-98592621D01*
X344230979Y-98530680D01*
X344182312Y-98457845D01*
X344148789Y-98376914D01*
X344131700Y-98290999D01*
X344131700Y-98203401D01*
X344138685Y-98168286D01*
X344148789Y-98117486D01*
X344182311Y-98036557D01*
X344197034Y-98014522D01*
X344230979Y-97963720D01*
X344292920Y-97901779D01*
X344365755Y-97853112D01*
X344446686Y-97819589D01*
X344532599Y-97802500D01*
X344620201Y-97802500D01*
X344706114Y-97819589D01*
G37*
G36*
X330685314Y-96600389D02*
G01*
X330766245Y-96633912D01*
X330839080Y-96682579D01*
X330901021Y-96744520D01*
X330949688Y-96817355D01*
X330949689Y-96817357D01*
X330983211Y-96898286D01*
X331000300Y-96984199D01*
X331000300Y-97071801D01*
X330983211Y-97157714D01*
X330949688Y-97238645D01*
X330901021Y-97311480D01*
X330839080Y-97373421D01*
X330766245Y-97422088D01*
X330766244Y-97422089D01*
X330766243Y-97422089D01*
X330685314Y-97455611D01*
X330599401Y-97472700D01*
X330511799Y-97472700D01*
X330425886Y-97455611D01*
X330344957Y-97422089D01*
X330344956Y-97422089D01*
X330344955Y-97422088D01*
X330272120Y-97373421D01*
X330210179Y-97311480D01*
X330161512Y-97238645D01*
X330127989Y-97157714D01*
X330110900Y-97071801D01*
X330110900Y-96984199D01*
X330127989Y-96898286D01*
X330161511Y-96817357D01*
X330161512Y-96817355D01*
X330210179Y-96744520D01*
X330272120Y-96682579D01*
X330344955Y-96633912D01*
X330425886Y-96600389D01*
X330511799Y-96583300D01*
X330599401Y-96583300D01*
X330685314Y-96600389D01*
G37*
G36*
X344706114Y-96549589D02*
G01*
X344787045Y-96583112D01*
X344859880Y-96631779D01*
X344921821Y-96693720D01*
X344955766Y-96744522D01*
X344970489Y-96766557D01*
X345004011Y-96847486D01*
X345014116Y-96898286D01*
X345021100Y-96933401D01*
X345021100Y-97020999D01*
X345004011Y-97106914D01*
X344970488Y-97187845D01*
X344921821Y-97260680D01*
X344859880Y-97322621D01*
X344787045Y-97371288D01*
X344787044Y-97371289D01*
X344787043Y-97371289D01*
X344706114Y-97404811D01*
X344620201Y-97421900D01*
X344532599Y-97421900D01*
X344446686Y-97404811D01*
X344365757Y-97371289D01*
X344365756Y-97371289D01*
X344365755Y-97371288D01*
X344292920Y-97322621D01*
X344230979Y-97260680D01*
X344182312Y-97187845D01*
X344148789Y-97106914D01*
X344131700Y-97020999D01*
X344131700Y-96933401D01*
X344138685Y-96898286D01*
X344148789Y-96847486D01*
X344182311Y-96766557D01*
X344197034Y-96744522D01*
X344230979Y-96693720D01*
X344292920Y-96631779D01*
X344365755Y-96583112D01*
X344446686Y-96549589D01*
X344532599Y-96532500D01*
X344620201Y-96532500D01*
X344706114Y-96549589D01*
G37*
M02*
