G04 #@! TF.GenerationSoftware,KiCad,Pcbnew,5.1.6*
G04 #@! TF.CreationDate,2020-06-16T15:44:29+02:00*
G04 #@! TF.ProjectId,punk75_inner,70756e6b-3735-45f6-996e-6e65722e6b69,rev?*
G04 #@! TF.SameCoordinates,Original*
G04 #@! TF.FileFunction,Soldermask,Top*
G04 #@! TF.FilePolarity,Negative*
%FSLAX46Y46*%
G04 Gerber Fmt 4.6, Leading zero omitted, Abs format (unit mm)*
G04 Created by KiCad (PCBNEW 5.1.6) date 2020-06-16 15:44:29*
%MOMM*%
%LPD*%
G01*
G04 APERTURE LIST*
%ADD10C,0.100000*%
G04 APERTURE END LIST*
D10*
G36*
X273384239Y-232941467D02*
G01*
X273698282Y-233003934D01*
X274289926Y-233249001D01*
X274716477Y-233534014D01*
X274807425Y-233594783D01*
X274822392Y-233604784D01*
X275275216Y-234057608D01*
X275630999Y-234590074D01*
X275876066Y-235181718D01*
X276001000Y-235809804D01*
X276001000Y-236450196D01*
X275876066Y-237078282D01*
X275630999Y-237669926D01*
X275345986Y-238096477D01*
X275281899Y-238192391D01*
X275275216Y-238202392D01*
X274822392Y-238655216D01*
X274289926Y-239010999D01*
X273698282Y-239256066D01*
X273384239Y-239318533D01*
X273070197Y-239381000D01*
X272429803Y-239381000D01*
X272115761Y-239318533D01*
X271801718Y-239256066D01*
X271210074Y-239010999D01*
X270677608Y-238655216D01*
X270224784Y-238202392D01*
X270218102Y-238192391D01*
X270154014Y-238096477D01*
X269869001Y-237669926D01*
X269623934Y-237078282D01*
X269499000Y-236450196D01*
X269499000Y-235809804D01*
X269623934Y-235181718D01*
X269869001Y-234590074D01*
X270224784Y-234057608D01*
X270677608Y-233604784D01*
X270692576Y-233594783D01*
X270783523Y-233534014D01*
X271210074Y-233249001D01*
X271801718Y-233003934D01*
X272115761Y-232941467D01*
X272429803Y-232879000D01*
X273070197Y-232879000D01*
X273384239Y-232941467D01*
G37*
G36*
X172404239Y-232931467D02*
G01*
X172718282Y-232993934D01*
X173309926Y-233239001D01*
X173736477Y-233524014D01*
X173842391Y-233594783D01*
X174295217Y-234047609D01*
X174365986Y-234153523D01*
X174650999Y-234580074D01*
X174896066Y-235171718D01*
X175021000Y-235799804D01*
X175021000Y-236440196D01*
X174896066Y-237068282D01*
X174650999Y-237659926D01*
X174365986Y-238086477D01*
X174295217Y-238192391D01*
X173842391Y-238645217D01*
X173736477Y-238715986D01*
X173309926Y-239000999D01*
X172718282Y-239246066D01*
X172404239Y-239308533D01*
X172090197Y-239371000D01*
X171449803Y-239371000D01*
X171135761Y-239308533D01*
X170821718Y-239246066D01*
X170230074Y-239000999D01*
X169803523Y-238715986D01*
X169697609Y-238645217D01*
X169244783Y-238192391D01*
X169174014Y-238086477D01*
X168889001Y-237659926D01*
X168643934Y-237068282D01*
X168519000Y-236440196D01*
X168519000Y-235799804D01*
X168643934Y-235171718D01*
X168889001Y-234580074D01*
X169174014Y-234153523D01*
X169244783Y-234047609D01*
X169697609Y-233594783D01*
X169803523Y-233524014D01*
X170230074Y-233239001D01*
X170821718Y-232993934D01*
X171135761Y-232931467D01*
X171449803Y-232869000D01*
X172090197Y-232869000D01*
X172404239Y-232931467D01*
G37*
G36*
X353374239Y-232921467D02*
G01*
X353688282Y-232983934D01*
X354279926Y-233229001D01*
X354706477Y-233514014D01*
X354812391Y-233584783D01*
X355265217Y-234037609D01*
X355335986Y-234143523D01*
X355620999Y-234570074D01*
X355866066Y-235161718D01*
X355991000Y-235789804D01*
X355991000Y-236430196D01*
X355866066Y-237058282D01*
X355620999Y-237649926D01*
X355335986Y-238076477D01*
X355265217Y-238182391D01*
X354812391Y-238635217D01*
X354706477Y-238705986D01*
X354279926Y-238990999D01*
X353688282Y-239236066D01*
X353374239Y-239298533D01*
X353060197Y-239361000D01*
X352419803Y-239361000D01*
X352105761Y-239298533D01*
X351791718Y-239236066D01*
X351200074Y-238990999D01*
X350773523Y-238705986D01*
X350667609Y-238635217D01*
X350214783Y-238182391D01*
X350144014Y-238076477D01*
X349859001Y-237649926D01*
X349613934Y-237058282D01*
X349489000Y-236430196D01*
X349489000Y-235789804D01*
X349613934Y-235161718D01*
X349859001Y-234570074D01*
X350144014Y-234143523D01*
X350214783Y-234037609D01*
X350667609Y-233584783D01*
X350773523Y-233514014D01*
X351200074Y-233229001D01*
X351791718Y-232983934D01*
X352105761Y-232921467D01*
X352419803Y-232859000D01*
X353060197Y-232859000D01*
X353374239Y-232921467D01*
G37*
G36*
X92394239Y-232921467D02*
G01*
X92708282Y-232983934D01*
X93299926Y-233229001D01*
X93726477Y-233514014D01*
X93832391Y-233584783D01*
X94285217Y-234037609D01*
X94355986Y-234143523D01*
X94640999Y-234570074D01*
X94886066Y-235161718D01*
X95011000Y-235789804D01*
X95011000Y-236430196D01*
X94886066Y-237058282D01*
X94640999Y-237649926D01*
X94355986Y-238076477D01*
X94285217Y-238182391D01*
X93832391Y-238635217D01*
X93726477Y-238705986D01*
X93299926Y-238990999D01*
X92708282Y-239236066D01*
X92394239Y-239298533D01*
X92080197Y-239361000D01*
X91439803Y-239361000D01*
X91125761Y-239298533D01*
X90811718Y-239236066D01*
X90220074Y-238990999D01*
X89793523Y-238705986D01*
X89687609Y-238635217D01*
X89234783Y-238182391D01*
X89164014Y-238076477D01*
X88879001Y-237649926D01*
X88633934Y-237058282D01*
X88509000Y-236430196D01*
X88509000Y-235789804D01*
X88633934Y-235161718D01*
X88879001Y-234570074D01*
X89164014Y-234143523D01*
X89234783Y-234037609D01*
X89687609Y-233584783D01*
X89793523Y-233514014D01*
X90220074Y-233229001D01*
X90811718Y-232983934D01*
X91125761Y-232921467D01*
X91439803Y-232859000D01*
X92080197Y-232859000D01*
X92394239Y-232921467D01*
G37*
G36*
X353384239Y-96311467D02*
G01*
X353698282Y-96373934D01*
X354289926Y-96619001D01*
X354586783Y-96817355D01*
X354792459Y-96954783D01*
X354822392Y-96974784D01*
X355275216Y-97427608D01*
X355630999Y-97960074D01*
X355876066Y-98551718D01*
X355910655Y-98725611D01*
X356001000Y-99179803D01*
X356001000Y-99820197D01*
X355982456Y-99913422D01*
X355876066Y-100448282D01*
X355630999Y-101039926D01*
X355468782Y-101282700D01*
X355288581Y-101552391D01*
X355275216Y-101572392D01*
X354822392Y-102025216D01*
X354289926Y-102380999D01*
X353698282Y-102626066D01*
X353384239Y-102688533D01*
X353070197Y-102751000D01*
X352429803Y-102751000D01*
X352115761Y-102688533D01*
X351801718Y-102626066D01*
X351210074Y-102380999D01*
X350677608Y-102025216D01*
X350224784Y-101572392D01*
X350211420Y-101552391D01*
X350031218Y-101282700D01*
X349869001Y-101039926D01*
X349623934Y-100448282D01*
X349517544Y-99913422D01*
X349499000Y-99820197D01*
X349499000Y-99179803D01*
X349589345Y-98725611D01*
X349623934Y-98551718D01*
X349869001Y-97960074D01*
X350224784Y-97427608D01*
X350677608Y-96974784D01*
X350707542Y-96954783D01*
X350913217Y-96817355D01*
X351210074Y-96619001D01*
X351801718Y-96373934D01*
X352115761Y-96311467D01*
X352429803Y-96249000D01*
X353070197Y-96249000D01*
X353384239Y-96311467D01*
G37*
G36*
X273384239Y-96311467D02*
G01*
X273698282Y-96373934D01*
X274289926Y-96619001D01*
X274586783Y-96817355D01*
X274792459Y-96954783D01*
X274822392Y-96974784D01*
X275275216Y-97427608D01*
X275630999Y-97960074D01*
X275876066Y-98551718D01*
X275910655Y-98725611D01*
X276001000Y-99179803D01*
X276001000Y-99820197D01*
X275982456Y-99913422D01*
X275876066Y-100448282D01*
X275630999Y-101039926D01*
X275468782Y-101282700D01*
X275288581Y-101552391D01*
X275275216Y-101572392D01*
X274822392Y-102025216D01*
X274289926Y-102380999D01*
X273698282Y-102626066D01*
X273384239Y-102688533D01*
X273070197Y-102751000D01*
X272429803Y-102751000D01*
X272115761Y-102688533D01*
X271801718Y-102626066D01*
X271210074Y-102380999D01*
X270677608Y-102025216D01*
X270224784Y-101572392D01*
X270211420Y-101552391D01*
X270031218Y-101282700D01*
X269869001Y-101039926D01*
X269623934Y-100448282D01*
X269517544Y-99913422D01*
X269499000Y-99820197D01*
X269499000Y-99179803D01*
X269589345Y-98725611D01*
X269623934Y-98551718D01*
X269869001Y-97960074D01*
X270224784Y-97427608D01*
X270677608Y-96974784D01*
X270707542Y-96954783D01*
X270913217Y-96817355D01*
X271210074Y-96619001D01*
X271801718Y-96373934D01*
X272115761Y-96311467D01*
X272429803Y-96249000D01*
X273070197Y-96249000D01*
X273384239Y-96311467D01*
G37*
G36*
X92384239Y-96291467D02*
G01*
X92698282Y-96353934D01*
X93289926Y-96599001D01*
X93616715Y-96817355D01*
X93822391Y-96954783D01*
X94275217Y-97407609D01*
X94307291Y-97455611D01*
X94630999Y-97940074D01*
X94876066Y-98531718D01*
X94907966Y-98692089D01*
X95001000Y-99159803D01*
X95001000Y-99800197D01*
X94962130Y-99995611D01*
X94876066Y-100428282D01*
X94630999Y-101019926D01*
X94345986Y-101446477D01*
X94275217Y-101552391D01*
X93822391Y-102005217D01*
X93734118Y-102064199D01*
X93289926Y-102360999D01*
X92698282Y-102606066D01*
X92384239Y-102668533D01*
X92070197Y-102731000D01*
X91429803Y-102731000D01*
X91115761Y-102668533D01*
X90801718Y-102606066D01*
X90210074Y-102360999D01*
X89765882Y-102064199D01*
X89677609Y-102005217D01*
X89224783Y-101552391D01*
X89154014Y-101446477D01*
X88869001Y-101019926D01*
X88623934Y-100428282D01*
X88537870Y-99995611D01*
X88499000Y-99800197D01*
X88499000Y-99159803D01*
X88592034Y-98692089D01*
X88623934Y-98531718D01*
X88869001Y-97940074D01*
X89192709Y-97455611D01*
X89224783Y-97407609D01*
X89677609Y-96954783D01*
X89883285Y-96817355D01*
X90210074Y-96599001D01*
X90801718Y-96353934D01*
X91115761Y-96291467D01*
X91429803Y-96229000D01*
X92070197Y-96229000D01*
X92384239Y-96291467D01*
G37*
G36*
X172394239Y-96291467D02*
G01*
X172708282Y-96353934D01*
X173299926Y-96599001D01*
X173626715Y-96817355D01*
X173832391Y-96954783D01*
X174285217Y-97407609D01*
X174317291Y-97455611D01*
X174640999Y-97940074D01*
X174886066Y-98531718D01*
X174917966Y-98692089D01*
X175011000Y-99159803D01*
X175011000Y-99800197D01*
X174972130Y-99995611D01*
X174886066Y-100428282D01*
X174640999Y-101019926D01*
X174355986Y-101446477D01*
X174285217Y-101552391D01*
X173832391Y-102005217D01*
X173744118Y-102064199D01*
X173299926Y-102360999D01*
X172708282Y-102606066D01*
X172394239Y-102668533D01*
X172080197Y-102731000D01*
X171439803Y-102731000D01*
X171125761Y-102668533D01*
X170811718Y-102606066D01*
X170220074Y-102360999D01*
X169775882Y-102064199D01*
X169687609Y-102005217D01*
X169234783Y-101552391D01*
X169164014Y-101446477D01*
X168879001Y-101019926D01*
X168633934Y-100428282D01*
X168547870Y-99995611D01*
X168509000Y-99800197D01*
X168509000Y-99159803D01*
X168602034Y-98692089D01*
X168633934Y-98531718D01*
X168879001Y-97940074D01*
X169202709Y-97455611D01*
X169234783Y-97407609D01*
X169687609Y-96954783D01*
X169893285Y-96817355D01*
X170220074Y-96599001D01*
X170811718Y-96353934D01*
X171125761Y-96291467D01*
X171439803Y-96229000D01*
X172080197Y-96229000D01*
X172394239Y-96291467D01*
G37*
G36*
X330685314Y-101680389D02*
G01*
X330766245Y-101713912D01*
X330839080Y-101762579D01*
X330901021Y-101824520D01*
X330949688Y-101897355D01*
X330949689Y-101897357D01*
X330983211Y-101978286D01*
X331000300Y-102064199D01*
X331000300Y-102151801D01*
X330983211Y-102237714D01*
X330949688Y-102318645D01*
X330901021Y-102391480D01*
X330839080Y-102453421D01*
X330766245Y-102502088D01*
X330766244Y-102502089D01*
X330766243Y-102502089D01*
X330685314Y-102535611D01*
X330599401Y-102552700D01*
X330511799Y-102552700D01*
X330425886Y-102535611D01*
X330344957Y-102502089D01*
X330344956Y-102502089D01*
X330344955Y-102502088D01*
X330272120Y-102453421D01*
X330210179Y-102391480D01*
X330161512Y-102318645D01*
X330127989Y-102237714D01*
X330110900Y-102151801D01*
X330110900Y-102064199D01*
X330127989Y-101978286D01*
X330161511Y-101897357D01*
X330161512Y-101897355D01*
X330210179Y-101824520D01*
X330272120Y-101762579D01*
X330344955Y-101713912D01*
X330425886Y-101680389D01*
X330511799Y-101663300D01*
X330599401Y-101663300D01*
X330685314Y-101680389D01*
G37*
G36*
X344706114Y-101629589D02*
G01*
X344787045Y-101663112D01*
X344859880Y-101711779D01*
X344921821Y-101773720D01*
X344955766Y-101824522D01*
X344970489Y-101846557D01*
X345004011Y-101927486D01*
X345019473Y-102005217D01*
X345021100Y-102013401D01*
X345021100Y-102100999D01*
X345004011Y-102186914D01*
X344970488Y-102267845D01*
X344921821Y-102340680D01*
X344859880Y-102402621D01*
X344787045Y-102451288D01*
X344787044Y-102451289D01*
X344787043Y-102451289D01*
X344706114Y-102484811D01*
X344620201Y-102501900D01*
X344532599Y-102501900D01*
X344446686Y-102484811D01*
X344365757Y-102451289D01*
X344365756Y-102451289D01*
X344365755Y-102451288D01*
X344292920Y-102402621D01*
X344230979Y-102340680D01*
X344182312Y-102267845D01*
X344148789Y-102186914D01*
X344131700Y-102100999D01*
X344131700Y-102013401D01*
X344133328Y-102005217D01*
X344148789Y-101927486D01*
X344182311Y-101846557D01*
X344197034Y-101824522D01*
X344230979Y-101773720D01*
X344292920Y-101711779D01*
X344365755Y-101663112D01*
X344446686Y-101629589D01*
X344532599Y-101612500D01*
X344620201Y-101612500D01*
X344706114Y-101629589D01*
G37*
G36*
X330685314Y-100410389D02*
G01*
X330766245Y-100443912D01*
X330839080Y-100492579D01*
X330901021Y-100554520D01*
X330949688Y-100627355D01*
X330949689Y-100627357D01*
X330983211Y-100708286D01*
X331000300Y-100794199D01*
X331000300Y-100881801D01*
X330983211Y-100967714D01*
X330953301Y-101039924D01*
X330949688Y-101048645D01*
X330901021Y-101121480D01*
X330839080Y-101183421D01*
X330766245Y-101232088D01*
X330766244Y-101232089D01*
X330766243Y-101232089D01*
X330685314Y-101265611D01*
X330599401Y-101282700D01*
X330511799Y-101282700D01*
X330425886Y-101265611D01*
X330344957Y-101232089D01*
X330344956Y-101232089D01*
X330344955Y-101232088D01*
X330272120Y-101183421D01*
X330210179Y-101121480D01*
X330161512Y-101048645D01*
X330157900Y-101039924D01*
X330127989Y-100967714D01*
X330110900Y-100881801D01*
X330110900Y-100794199D01*
X330127989Y-100708286D01*
X330161511Y-100627357D01*
X330161512Y-100627355D01*
X330210179Y-100554520D01*
X330272120Y-100492579D01*
X330344955Y-100443912D01*
X330425886Y-100410389D01*
X330511799Y-100393300D01*
X330599401Y-100393300D01*
X330685314Y-100410389D01*
G37*
G36*
X344706114Y-100359589D02*
G01*
X344787045Y-100393112D01*
X344859880Y-100441779D01*
X344921821Y-100503720D01*
X344955766Y-100554522D01*
X344970489Y-100576557D01*
X345004011Y-100657486D01*
X345014116Y-100708286D01*
X345021100Y-100743401D01*
X345021100Y-100830999D01*
X345004011Y-100916914D01*
X344970488Y-100997845D01*
X344921821Y-101070680D01*
X344859880Y-101132621D01*
X344787045Y-101181288D01*
X344787044Y-101181289D01*
X344787043Y-101181289D01*
X344706114Y-101214811D01*
X344620201Y-101231900D01*
X344532599Y-101231900D01*
X344446686Y-101214811D01*
X344365757Y-101181289D01*
X344365756Y-101181289D01*
X344365755Y-101181288D01*
X344292920Y-101132621D01*
X344230979Y-101070680D01*
X344182312Y-100997845D01*
X344148789Y-100916914D01*
X344131700Y-100830999D01*
X344131700Y-100743401D01*
X344138685Y-100708286D01*
X344148789Y-100657486D01*
X344182311Y-100576557D01*
X344197034Y-100554522D01*
X344230979Y-100503720D01*
X344292920Y-100441779D01*
X344365755Y-100393112D01*
X344446686Y-100359589D01*
X344532599Y-100342500D01*
X344620201Y-100342500D01*
X344706114Y-100359589D01*
G37*
G36*
X330685314Y-99140389D02*
G01*
X330766245Y-99173912D01*
X330839080Y-99222579D01*
X330901021Y-99284520D01*
X330949688Y-99357355D01*
X330949689Y-99357357D01*
X330983211Y-99438286D01*
X331000300Y-99524199D01*
X331000300Y-99611801D01*
X330983211Y-99697714D01*
X330949688Y-99778645D01*
X330901021Y-99851480D01*
X330839080Y-99913421D01*
X330766245Y-99962088D01*
X330766244Y-99962089D01*
X330766243Y-99962089D01*
X330685314Y-99995611D01*
X330599401Y-100012700D01*
X330511799Y-100012700D01*
X330425886Y-99995611D01*
X330344957Y-99962089D01*
X330344956Y-99962089D01*
X330344955Y-99962088D01*
X330272120Y-99913421D01*
X330210179Y-99851480D01*
X330161512Y-99778645D01*
X330127989Y-99697714D01*
X330110900Y-99611801D01*
X330110900Y-99524199D01*
X330127989Y-99438286D01*
X330161511Y-99357357D01*
X330161512Y-99357355D01*
X330210179Y-99284520D01*
X330272120Y-99222579D01*
X330344955Y-99173912D01*
X330425886Y-99140389D01*
X330511799Y-99123300D01*
X330599401Y-99123300D01*
X330685314Y-99140389D01*
G37*
G36*
X344706114Y-99089589D02*
G01*
X344787045Y-99123112D01*
X344859880Y-99171779D01*
X344921821Y-99233720D01*
X344955766Y-99284522D01*
X344970489Y-99306557D01*
X345004011Y-99387486D01*
X345014116Y-99438286D01*
X345021100Y-99473401D01*
X345021100Y-99560999D01*
X345004011Y-99646914D01*
X344970488Y-99727845D01*
X344921821Y-99800680D01*
X344859880Y-99862621D01*
X344787045Y-99911288D01*
X344787044Y-99911289D01*
X344787043Y-99911289D01*
X344706114Y-99944811D01*
X344620201Y-99961900D01*
X344532599Y-99961900D01*
X344446686Y-99944811D01*
X344365757Y-99911289D01*
X344365756Y-99911289D01*
X344365755Y-99911288D01*
X344292920Y-99862621D01*
X344230979Y-99800680D01*
X344182312Y-99727845D01*
X344148789Y-99646914D01*
X344131700Y-99560999D01*
X344131700Y-99473401D01*
X344138685Y-99438286D01*
X344148789Y-99387486D01*
X344182311Y-99306557D01*
X344197034Y-99284522D01*
X344230979Y-99233720D01*
X344292920Y-99171779D01*
X344365755Y-99123112D01*
X344446686Y-99089589D01*
X344532599Y-99072500D01*
X344620201Y-99072500D01*
X344706114Y-99089589D01*
G37*
G36*
X330685314Y-97870389D02*
G01*
X330766245Y-97903912D01*
X330839080Y-97952579D01*
X330901021Y-98014520D01*
X330949688Y-98087355D01*
X330949689Y-98087357D01*
X330983211Y-98168286D01*
X331000300Y-98254199D01*
X331000300Y-98341801D01*
X330983211Y-98427714D01*
X330949688Y-98508645D01*
X330901021Y-98581480D01*
X330839080Y-98643421D01*
X330766245Y-98692088D01*
X330766244Y-98692089D01*
X330766243Y-98692089D01*
X330685314Y-98725611D01*
X330599401Y-98742700D01*
X330511799Y-98742700D01*
X330425886Y-98725611D01*
X330344957Y-98692089D01*
X330344956Y-98692089D01*
X330344955Y-98692088D01*
X330272120Y-98643421D01*
X330210179Y-98581480D01*
X330161512Y-98508645D01*
X330127989Y-98427714D01*
X330110900Y-98341801D01*
X330110900Y-98254199D01*
X330127989Y-98168286D01*
X330161511Y-98087357D01*
X330161512Y-98087355D01*
X330210179Y-98014520D01*
X330272120Y-97952579D01*
X330344955Y-97903912D01*
X330425886Y-97870389D01*
X330511799Y-97853300D01*
X330599401Y-97853300D01*
X330685314Y-97870389D01*
G37*
G36*
X344706114Y-97819589D02*
G01*
X344787045Y-97853112D01*
X344859880Y-97901779D01*
X344921821Y-97963720D01*
X344955766Y-98014522D01*
X344970489Y-98036557D01*
X345004011Y-98117486D01*
X345014116Y-98168286D01*
X345021100Y-98203401D01*
X345021100Y-98290999D01*
X345004011Y-98376914D01*
X344970488Y-98457845D01*
X344921821Y-98530680D01*
X344859880Y-98592621D01*
X344787045Y-98641288D01*
X344787044Y-98641289D01*
X344787043Y-98641289D01*
X344706114Y-98674811D01*
X344620201Y-98691900D01*
X344532599Y-98691900D01*
X344446686Y-98674811D01*
X344365757Y-98641289D01*
X344365756Y-98641289D01*
X344365755Y-98641288D01*
X344292920Y-98592621D01*
X344230979Y-98530680D01*
X344182312Y-98457845D01*
X344148789Y-98376914D01*
X344131700Y-98290999D01*
X344131700Y-98203401D01*
X344138685Y-98168286D01*
X344148789Y-98117486D01*
X344182311Y-98036557D01*
X344197034Y-98014522D01*
X344230979Y-97963720D01*
X344292920Y-97901779D01*
X344365755Y-97853112D01*
X344446686Y-97819589D01*
X344532599Y-97802500D01*
X344620201Y-97802500D01*
X344706114Y-97819589D01*
G37*
G36*
X330678336Y-96599001D02*
G01*
X330685314Y-96600389D01*
X330766245Y-96633912D01*
X330839080Y-96682579D01*
X330901021Y-96744520D01*
X330949688Y-96817355D01*
X330949689Y-96817357D01*
X330983211Y-96898286D01*
X331000300Y-96984199D01*
X331000300Y-97071801D01*
X330983211Y-97157714D01*
X330949688Y-97238645D01*
X330901021Y-97311480D01*
X330839080Y-97373421D01*
X330766245Y-97422088D01*
X330766244Y-97422089D01*
X330766243Y-97422089D01*
X330685314Y-97455611D01*
X330599401Y-97472700D01*
X330511799Y-97472700D01*
X330425886Y-97455611D01*
X330344957Y-97422089D01*
X330344956Y-97422089D01*
X330344955Y-97422088D01*
X330272120Y-97373421D01*
X330210179Y-97311480D01*
X330161512Y-97238645D01*
X330127989Y-97157714D01*
X330110900Y-97071801D01*
X330110900Y-96984199D01*
X330127989Y-96898286D01*
X330161511Y-96817357D01*
X330161512Y-96817355D01*
X330210179Y-96744520D01*
X330272120Y-96682579D01*
X330344955Y-96633912D01*
X330425886Y-96600389D01*
X330432864Y-96599001D01*
X330511799Y-96583300D01*
X330599401Y-96583300D01*
X330678336Y-96599001D01*
G37*
G36*
X344706114Y-96549589D02*
G01*
X344787045Y-96583112D01*
X344859880Y-96631779D01*
X344921821Y-96693720D01*
X344955766Y-96744522D01*
X344970489Y-96766557D01*
X345004011Y-96847486D01*
X345014116Y-96898286D01*
X345021100Y-96933401D01*
X345021100Y-97020999D01*
X345004011Y-97106914D01*
X344970488Y-97187845D01*
X344921821Y-97260680D01*
X344859880Y-97322621D01*
X344787045Y-97371288D01*
X344787044Y-97371289D01*
X344787043Y-97371289D01*
X344706114Y-97404811D01*
X344620201Y-97421900D01*
X344532599Y-97421900D01*
X344446686Y-97404811D01*
X344365757Y-97371289D01*
X344365756Y-97371289D01*
X344365755Y-97371288D01*
X344292920Y-97322621D01*
X344230979Y-97260680D01*
X344182312Y-97187845D01*
X344148789Y-97106914D01*
X344131700Y-97020999D01*
X344131700Y-96933401D01*
X344138685Y-96898286D01*
X344148789Y-96847486D01*
X344182311Y-96766557D01*
X344197034Y-96744522D01*
X344230979Y-96693720D01*
X344292920Y-96631779D01*
X344365755Y-96583112D01*
X344446686Y-96549589D01*
X344532599Y-96532500D01*
X344620201Y-96532500D01*
X344706114Y-96549589D01*
G37*
M02*
