G04 #@! TF.GenerationSoftware,KiCad,Pcbnew,5.1.6*
G04 #@! TF.CreationDate,2020-06-22T06:55:26+02:00*
G04 #@! TF.ProjectId,punk75_inner,70756e6b-3735-45f6-996e-6e65722e6b69,rev?*
G04 #@! TF.SameCoordinates,Original*
G04 #@! TF.FileFunction,Copper,L2,Bot*
G04 #@! TF.FilePolarity,Positive*
%FSLAX46Y46*%
G04 Gerber Fmt 4.6, Leading zero omitted, Abs format (unit mm)*
G04 Created by KiCad (PCBNEW 5.1.6) date 2020-06-22 06:55:26*
%MOMM*%
%LPD*%
G01*
G04 APERTURE LIST*
G04 #@! TA.AperFunction,ComponentPad*
%ADD10C,8.500000*%
G04 #@! TD*
G04 #@! TA.AperFunction,NonConductor*
%ADD11C,0.254000*%
G04 #@! TD*
G04 APERTURE END LIST*
D10*
X352750000Y-99500000D03*
X171760000Y-99480000D03*
X91750000Y-99480000D03*
X272750000Y-236130000D03*
X171770000Y-236120000D03*
X91760000Y-236110000D03*
X352740000Y-236110000D03*
X272750000Y-99500000D03*
D11*
G36*
X168655994Y-232325573D02*
G01*
X167975573Y-233005994D01*
X167440970Y-233806085D01*
X167072728Y-234695098D01*
X166885000Y-235638870D01*
X166885000Y-236601130D01*
X167072728Y-237544902D01*
X167440970Y-238433915D01*
X167975573Y-239234006D01*
X168655994Y-239914427D01*
X169355019Y-240381500D01*
X94160015Y-240381500D01*
X94874006Y-239904427D01*
X95554427Y-239224006D01*
X96089030Y-238423915D01*
X96457272Y-237534902D01*
X96645000Y-236591130D01*
X96645000Y-235628870D01*
X96457272Y-234685098D01*
X96089030Y-233796085D01*
X95554427Y-232995994D01*
X94874006Y-232315573D01*
X94212770Y-231873750D01*
X169332196Y-231873750D01*
X168655994Y-232325573D01*
G37*
X168655994Y-232325573D02*
X167975573Y-233005994D01*
X167440970Y-233806085D01*
X167072728Y-234695098D01*
X166885000Y-235638870D01*
X166885000Y-236601130D01*
X167072728Y-237544902D01*
X167440970Y-238433915D01*
X167975573Y-239234006D01*
X168655994Y-239914427D01*
X169355019Y-240381500D01*
X94160015Y-240381500D01*
X94874006Y-239904427D01*
X95554427Y-239224006D01*
X96089030Y-238423915D01*
X96457272Y-237534902D01*
X96645000Y-236591130D01*
X96645000Y-235628870D01*
X96457272Y-234685098D01*
X96089030Y-233796085D01*
X95554427Y-232995994D01*
X94874006Y-232315573D01*
X94212770Y-231873750D01*
X169332196Y-231873750D01*
X168655994Y-232325573D01*
G36*
X89312779Y-95233361D02*
G01*
X88635994Y-95685573D01*
X87955573Y-96365994D01*
X87420970Y-97166085D01*
X87052728Y-98055098D01*
X86865000Y-98998870D01*
X86865000Y-99961130D01*
X87052728Y-100904902D01*
X87420970Y-101793915D01*
X87955573Y-102594006D01*
X88635994Y-103274427D01*
X89400120Y-103784999D01*
X81707121Y-103784999D01*
X81674080Y-103788253D01*
X81653006Y-103788106D01*
X81642792Y-103789107D01*
X80986502Y-103858086D01*
X80921188Y-103871493D01*
X80855810Y-103883965D01*
X80845985Y-103886930D01*
X80215594Y-104082069D01*
X80154131Y-104107906D01*
X80092417Y-104132840D01*
X80083360Y-104137655D01*
X80083355Y-104137657D01*
X80083351Y-104137660D01*
X79502870Y-104451524D01*
X79447631Y-104488784D01*
X79391900Y-104525253D01*
X79383947Y-104531739D01*
X78875482Y-104952378D01*
X78828505Y-104999684D01*
X78780947Y-105046256D01*
X78774405Y-105054163D01*
X78357326Y-105565552D01*
X78320439Y-105621071D01*
X78282825Y-105676006D01*
X78277943Y-105685033D01*
X77968137Y-106267694D01*
X77942742Y-106329307D01*
X77916509Y-106390513D01*
X77913474Y-106400316D01*
X77722740Y-107032056D01*
X77709793Y-107097446D01*
X77695951Y-107162566D01*
X77694878Y-107172772D01*
X77630483Y-107829527D01*
X77626975Y-107865146D01*
X77626976Y-109452636D01*
X77626975Y-109452646D01*
X77626976Y-227793605D01*
X77630229Y-227826636D01*
X77630082Y-227847720D01*
X77631083Y-227857934D01*
X77700062Y-228514224D01*
X77713469Y-228579538D01*
X77725941Y-228644916D01*
X77728906Y-228654740D01*
X77924045Y-229285132D01*
X77949883Y-229346599D01*
X77974816Y-229408310D01*
X77979633Y-229417371D01*
X78293500Y-229997856D01*
X78330780Y-230053126D01*
X78367229Y-230108826D01*
X78373715Y-230116779D01*
X78794354Y-230625243D01*
X78841641Y-230672202D01*
X78888232Y-230719779D01*
X78896139Y-230726321D01*
X79407528Y-231143400D01*
X79463047Y-231180287D01*
X79517982Y-231217901D01*
X79527009Y-231222783D01*
X80109669Y-231532589D01*
X80171296Y-231557990D01*
X80232489Y-231584217D01*
X80242292Y-231587252D01*
X80874032Y-231777986D01*
X80939422Y-231790933D01*
X81004542Y-231804775D01*
X81014746Y-231805848D01*
X81014748Y-231805848D01*
X81671503Y-231870243D01*
X81671513Y-231870243D01*
X81707121Y-231873750D01*
X89307230Y-231873750D01*
X88645994Y-232315573D01*
X87965573Y-232995994D01*
X87430970Y-233796085D01*
X87062728Y-234685098D01*
X86875000Y-235628870D01*
X86875000Y-236591130D01*
X87062728Y-237534902D01*
X87430970Y-238423915D01*
X87965573Y-239224006D01*
X88645994Y-239904427D01*
X89359985Y-240381500D01*
X81781450Y-240381500D01*
X80373653Y-240304024D01*
X79002805Y-240075853D01*
X77665270Y-239698630D01*
X76377210Y-239176911D01*
X75154179Y-238517000D01*
X74010957Y-237726870D01*
X72961340Y-236816059D01*
X72018006Y-235795567D01*
X71192349Y-234677717D01*
X70494349Y-233476022D01*
X69932433Y-232204992D01*
X69513382Y-230879965D01*
X69242265Y-229516968D01*
X69121104Y-228118028D01*
X69115000Y-227729498D01*
X69115000Y-107899200D01*
X69192476Y-106491394D01*
X69420647Y-105120554D01*
X69797870Y-103783021D01*
X70319585Y-102494967D01*
X70979496Y-101271936D01*
X71769633Y-100128703D01*
X72680445Y-99079085D01*
X73700933Y-98135756D01*
X74818783Y-97310099D01*
X76020478Y-96612099D01*
X77291505Y-96050184D01*
X78616536Y-95631132D01*
X79979530Y-95360015D01*
X81378474Y-95238854D01*
X81767002Y-95232750D01*
X82563052Y-95232750D01*
X89312779Y-95233361D01*
G37*
X89312779Y-95233361D02*
X88635994Y-95685573D01*
X87955573Y-96365994D01*
X87420970Y-97166085D01*
X87052728Y-98055098D01*
X86865000Y-98998870D01*
X86865000Y-99961130D01*
X87052728Y-100904902D01*
X87420970Y-101793915D01*
X87955573Y-102594006D01*
X88635994Y-103274427D01*
X89400120Y-103784999D01*
X81707121Y-103784999D01*
X81674080Y-103788253D01*
X81653006Y-103788106D01*
X81642792Y-103789107D01*
X80986502Y-103858086D01*
X80921188Y-103871493D01*
X80855810Y-103883965D01*
X80845985Y-103886930D01*
X80215594Y-104082069D01*
X80154131Y-104107906D01*
X80092417Y-104132840D01*
X80083360Y-104137655D01*
X80083355Y-104137657D01*
X80083351Y-104137660D01*
X79502870Y-104451524D01*
X79447631Y-104488784D01*
X79391900Y-104525253D01*
X79383947Y-104531739D01*
X78875482Y-104952378D01*
X78828505Y-104999684D01*
X78780947Y-105046256D01*
X78774405Y-105054163D01*
X78357326Y-105565552D01*
X78320439Y-105621071D01*
X78282825Y-105676006D01*
X78277943Y-105685033D01*
X77968137Y-106267694D01*
X77942742Y-106329307D01*
X77916509Y-106390513D01*
X77913474Y-106400316D01*
X77722740Y-107032056D01*
X77709793Y-107097446D01*
X77695951Y-107162566D01*
X77694878Y-107172772D01*
X77630483Y-107829527D01*
X77626975Y-107865146D01*
X77626976Y-109452636D01*
X77626975Y-109452646D01*
X77626976Y-227793605D01*
X77630229Y-227826636D01*
X77630082Y-227847720D01*
X77631083Y-227857934D01*
X77700062Y-228514224D01*
X77713469Y-228579538D01*
X77725941Y-228644916D01*
X77728906Y-228654740D01*
X77924045Y-229285132D01*
X77949883Y-229346599D01*
X77974816Y-229408310D01*
X77979633Y-229417371D01*
X78293500Y-229997856D01*
X78330780Y-230053126D01*
X78367229Y-230108826D01*
X78373715Y-230116779D01*
X78794354Y-230625243D01*
X78841641Y-230672202D01*
X78888232Y-230719779D01*
X78896139Y-230726321D01*
X79407528Y-231143400D01*
X79463047Y-231180287D01*
X79517982Y-231217901D01*
X79527009Y-231222783D01*
X80109669Y-231532589D01*
X80171296Y-231557990D01*
X80232489Y-231584217D01*
X80242292Y-231587252D01*
X80874032Y-231777986D01*
X80939422Y-231790933D01*
X81004542Y-231804775D01*
X81014746Y-231805848D01*
X81014748Y-231805848D01*
X81671503Y-231870243D01*
X81671513Y-231870243D01*
X81707121Y-231873750D01*
X89307230Y-231873750D01*
X88645994Y-232315573D01*
X87965573Y-232995994D01*
X87430970Y-233796085D01*
X87062728Y-234685098D01*
X86875000Y-235628870D01*
X86875000Y-236591130D01*
X87062728Y-237534902D01*
X87430970Y-238423915D01*
X87965573Y-239224006D01*
X88645994Y-239904427D01*
X89359985Y-240381500D01*
X81781450Y-240381500D01*
X80373653Y-240304024D01*
X79002805Y-240075853D01*
X77665270Y-239698630D01*
X76377210Y-239176911D01*
X75154179Y-238517000D01*
X74010957Y-237726870D01*
X72961340Y-236816059D01*
X72018006Y-235795567D01*
X71192349Y-234677717D01*
X70494349Y-233476022D01*
X69932433Y-232204992D01*
X69513382Y-230879965D01*
X69242265Y-229516968D01*
X69121104Y-228118028D01*
X69115000Y-227729498D01*
X69115000Y-107899200D01*
X69192476Y-106491394D01*
X69420647Y-105120554D01*
X69797870Y-103783021D01*
X70319585Y-102494967D01*
X70979496Y-101271936D01*
X71769633Y-100128703D01*
X72680445Y-99079085D01*
X73700933Y-98135756D01*
X74818783Y-97310099D01*
X76020478Y-96612099D01*
X77291505Y-96050184D01*
X78616536Y-95631132D01*
X79979530Y-95360015D01*
X81378474Y-95238854D01*
X81767002Y-95232750D01*
X82563052Y-95232750D01*
X89312779Y-95233361D01*
G36*
X269635994Y-232335573D02*
G01*
X268955573Y-233015994D01*
X268420970Y-233816085D01*
X268052728Y-234705098D01*
X267865000Y-235648870D01*
X267865000Y-236611130D01*
X268052728Y-237554902D01*
X268420970Y-238443915D01*
X268955573Y-239244006D01*
X269635994Y-239924427D01*
X270320053Y-240381500D01*
X174184981Y-240381500D01*
X174884006Y-239914427D01*
X175564427Y-239234006D01*
X176099030Y-238433915D01*
X176467272Y-237544902D01*
X176655000Y-236601130D01*
X176655000Y-235638870D01*
X176467272Y-234695098D01*
X176099030Y-233806085D01*
X175564427Y-233005994D01*
X174884006Y-232325573D01*
X174207804Y-231873750D01*
X270327162Y-231873750D01*
X269635994Y-232335573D01*
G37*
X269635994Y-232335573D02*
X268955573Y-233015994D01*
X268420970Y-233816085D01*
X268052728Y-234705098D01*
X267865000Y-235648870D01*
X267865000Y-236611130D01*
X268052728Y-237554902D01*
X268420970Y-238443915D01*
X268955573Y-239244006D01*
X269635994Y-239924427D01*
X270320053Y-240381500D01*
X174184981Y-240381500D01*
X174884006Y-239914427D01*
X175564427Y-239234006D01*
X176099030Y-238433915D01*
X176467272Y-237544902D01*
X176655000Y-236601130D01*
X176655000Y-235638870D01*
X176467272Y-234695098D01*
X176099030Y-233806085D01*
X175564427Y-233005994D01*
X174884006Y-232325573D01*
X174207804Y-231873750D01*
X270327162Y-231873750D01*
X269635994Y-232335573D01*
G36*
X349625994Y-232315573D02*
G01*
X348945573Y-232995994D01*
X348410970Y-233796085D01*
X348042728Y-234685098D01*
X347855000Y-235628870D01*
X347855000Y-236591130D01*
X348042728Y-237534902D01*
X348410970Y-238423915D01*
X348945573Y-239224006D01*
X349625994Y-239904427D01*
X350339985Y-240381500D01*
X275179947Y-240381500D01*
X275864006Y-239924427D01*
X276544427Y-239244006D01*
X277079030Y-238443915D01*
X277447272Y-237554902D01*
X277635000Y-236611130D01*
X277635000Y-235648870D01*
X277447272Y-234705098D01*
X277079030Y-233816085D01*
X276544427Y-233015994D01*
X275864006Y-232335573D01*
X275172838Y-231873750D01*
X350287230Y-231873750D01*
X349625994Y-232315573D01*
G37*
X349625994Y-232315573D02*
X348945573Y-232995994D01*
X348410970Y-233796085D01*
X348042728Y-234685098D01*
X347855000Y-235628870D01*
X347855000Y-236591130D01*
X348042728Y-237534902D01*
X348410970Y-238423915D01*
X348945573Y-239224006D01*
X349625994Y-239904427D01*
X350339985Y-240381500D01*
X275179947Y-240381500D01*
X275864006Y-239924427D01*
X276544427Y-239244006D01*
X277079030Y-238443915D01*
X277447272Y-237554902D01*
X277635000Y-236611130D01*
X277635000Y-235648870D01*
X277447272Y-234705098D01*
X277079030Y-233816085D01*
X276544427Y-233015994D01*
X275864006Y-232335573D01*
X275172838Y-231873750D01*
X350287230Y-231873750D01*
X349625994Y-232315573D01*
G36*
X364136356Y-95310226D02*
G01*
X365507196Y-95538397D01*
X366844729Y-95915620D01*
X368132783Y-96437335D01*
X369355814Y-97097246D01*
X370499047Y-97887383D01*
X371548665Y-98798195D01*
X372491994Y-99818683D01*
X373317651Y-100936533D01*
X374015651Y-102138228D01*
X374577566Y-103409255D01*
X374996618Y-104734286D01*
X375267735Y-106097280D01*
X375388896Y-107496224D01*
X375395001Y-107884816D01*
X375395000Y-227715050D01*
X375317524Y-229122847D01*
X375089353Y-230493695D01*
X374712130Y-231831230D01*
X374190411Y-233119290D01*
X373530500Y-234342321D01*
X372740370Y-235485543D01*
X371829559Y-236535160D01*
X370809067Y-237478494D01*
X369691217Y-238304151D01*
X368489522Y-239002151D01*
X367218492Y-239564067D01*
X365893465Y-239983118D01*
X364530468Y-240254235D01*
X363131528Y-240375396D01*
X362742998Y-240381500D01*
X355140015Y-240381500D01*
X355854006Y-239904427D01*
X356534427Y-239224006D01*
X357069030Y-238423915D01*
X357437272Y-237534902D01*
X357625000Y-236591130D01*
X357625000Y-235628870D01*
X357437272Y-234685098D01*
X357069030Y-233796085D01*
X356534427Y-232995994D01*
X355854006Y-232315573D01*
X355192770Y-231873750D01*
X362766831Y-231873750D01*
X362799872Y-231870496D01*
X362820946Y-231870643D01*
X362831160Y-231869642D01*
X363487450Y-231800663D01*
X363552764Y-231787256D01*
X363618142Y-231774784D01*
X363627966Y-231771819D01*
X364258358Y-231576680D01*
X364319825Y-231550842D01*
X364381536Y-231525909D01*
X364390588Y-231521096D01*
X364390597Y-231521092D01*
X364390604Y-231521087D01*
X364971081Y-231207224D01*
X365026325Y-231169962D01*
X365082051Y-231133496D01*
X365090004Y-231127010D01*
X365598468Y-230706371D01*
X365645427Y-230659084D01*
X365693004Y-230612493D01*
X365699546Y-230604586D01*
X366116625Y-230093197D01*
X366153512Y-230037678D01*
X366191126Y-229982743D01*
X366196008Y-229973716D01*
X366505814Y-229391056D01*
X366531215Y-229329429D01*
X366557442Y-229268236D01*
X366560477Y-229258433D01*
X366751211Y-228626694D01*
X366764160Y-228561298D01*
X366778000Y-228496184D01*
X366779073Y-228485978D01*
X366843468Y-227829223D01*
X366846976Y-227793605D01*
X366846976Y-107865145D01*
X366843722Y-107832104D01*
X366843869Y-107811030D01*
X366842868Y-107800816D01*
X366773889Y-107144526D01*
X366760482Y-107079212D01*
X366748010Y-107013834D01*
X366745045Y-107004009D01*
X366549906Y-106373618D01*
X366524068Y-106312151D01*
X366499135Y-106250440D01*
X366494318Y-106241379D01*
X366180450Y-105660895D01*
X366143198Y-105605667D01*
X366106722Y-105549925D01*
X366100236Y-105541972D01*
X365679597Y-105033507D01*
X365632291Y-104986530D01*
X365585719Y-104938972D01*
X365577812Y-104932430D01*
X365066423Y-104515351D01*
X365010904Y-104478464D01*
X364955969Y-104440850D01*
X364946942Y-104435968D01*
X364364281Y-104126162D01*
X364302668Y-104100767D01*
X364241462Y-104074534D01*
X364231659Y-104071499D01*
X363599920Y-103880765D01*
X363534530Y-103867818D01*
X363469410Y-103853976D01*
X363459206Y-103852903D01*
X363459204Y-103852903D01*
X362804645Y-103788723D01*
X362766831Y-103784999D01*
X355129812Y-103784999D01*
X355864006Y-103294427D01*
X356544427Y-102614006D01*
X357079030Y-101813915D01*
X357447272Y-100924902D01*
X357635000Y-99981130D01*
X357635000Y-99018870D01*
X357447272Y-98075098D01*
X357079030Y-97186085D01*
X356544427Y-96385994D01*
X355864006Y-95705573D01*
X355171950Y-95243156D01*
X362729041Y-95232777D01*
X364136356Y-95310226D01*
G37*
X364136356Y-95310226D02*
X365507196Y-95538397D01*
X366844729Y-95915620D01*
X368132783Y-96437335D01*
X369355814Y-97097246D01*
X370499047Y-97887383D01*
X371548665Y-98798195D01*
X372491994Y-99818683D01*
X373317651Y-100936533D01*
X374015651Y-102138228D01*
X374577566Y-103409255D01*
X374996618Y-104734286D01*
X375267735Y-106097280D01*
X375388896Y-107496224D01*
X375395001Y-107884816D01*
X375395000Y-227715050D01*
X375317524Y-229122847D01*
X375089353Y-230493695D01*
X374712130Y-231831230D01*
X374190411Y-233119290D01*
X373530500Y-234342321D01*
X372740370Y-235485543D01*
X371829559Y-236535160D01*
X370809067Y-237478494D01*
X369691217Y-238304151D01*
X368489522Y-239002151D01*
X367218492Y-239564067D01*
X365893465Y-239983118D01*
X364530468Y-240254235D01*
X363131528Y-240375396D01*
X362742998Y-240381500D01*
X355140015Y-240381500D01*
X355854006Y-239904427D01*
X356534427Y-239224006D01*
X357069030Y-238423915D01*
X357437272Y-237534902D01*
X357625000Y-236591130D01*
X357625000Y-235628870D01*
X357437272Y-234685098D01*
X357069030Y-233796085D01*
X356534427Y-232995994D01*
X355854006Y-232315573D01*
X355192770Y-231873750D01*
X362766831Y-231873750D01*
X362799872Y-231870496D01*
X362820946Y-231870643D01*
X362831160Y-231869642D01*
X363487450Y-231800663D01*
X363552764Y-231787256D01*
X363618142Y-231774784D01*
X363627966Y-231771819D01*
X364258358Y-231576680D01*
X364319825Y-231550842D01*
X364381536Y-231525909D01*
X364390588Y-231521096D01*
X364390597Y-231521092D01*
X364390604Y-231521087D01*
X364971081Y-231207224D01*
X365026325Y-231169962D01*
X365082051Y-231133496D01*
X365090004Y-231127010D01*
X365598468Y-230706371D01*
X365645427Y-230659084D01*
X365693004Y-230612493D01*
X365699546Y-230604586D01*
X366116625Y-230093197D01*
X366153512Y-230037678D01*
X366191126Y-229982743D01*
X366196008Y-229973716D01*
X366505814Y-229391056D01*
X366531215Y-229329429D01*
X366557442Y-229268236D01*
X366560477Y-229258433D01*
X366751211Y-228626694D01*
X366764160Y-228561298D01*
X366778000Y-228496184D01*
X366779073Y-228485978D01*
X366843468Y-227829223D01*
X366846976Y-227793605D01*
X366846976Y-107865145D01*
X366843722Y-107832104D01*
X366843869Y-107811030D01*
X366842868Y-107800816D01*
X366773889Y-107144526D01*
X366760482Y-107079212D01*
X366748010Y-107013834D01*
X366745045Y-107004009D01*
X366549906Y-106373618D01*
X366524068Y-106312151D01*
X366499135Y-106250440D01*
X366494318Y-106241379D01*
X366180450Y-105660895D01*
X366143198Y-105605667D01*
X366106722Y-105549925D01*
X366100236Y-105541972D01*
X365679597Y-105033507D01*
X365632291Y-104986530D01*
X365585719Y-104938972D01*
X365577812Y-104932430D01*
X365066423Y-104515351D01*
X365010904Y-104478464D01*
X364955969Y-104440850D01*
X364946942Y-104435968D01*
X364364281Y-104126162D01*
X364302668Y-104100767D01*
X364241462Y-104074534D01*
X364231659Y-104071499D01*
X363599920Y-103880765D01*
X363534530Y-103867818D01*
X363469410Y-103853976D01*
X363459206Y-103852903D01*
X363459204Y-103852903D01*
X362804645Y-103788723D01*
X362766831Y-103784999D01*
X355129812Y-103784999D01*
X355864006Y-103294427D01*
X356544427Y-102614006D01*
X357079030Y-101813915D01*
X357447272Y-100924902D01*
X357635000Y-99981130D01*
X357635000Y-99018870D01*
X357447272Y-98075098D01*
X357079030Y-97186085D01*
X356544427Y-96385994D01*
X355864006Y-95705573D01*
X355171950Y-95243156D01*
X362729041Y-95232777D01*
X364136356Y-95310226D01*
G36*
X328513017Y-95254996D02*
G01*
X328794021Y-95282549D01*
X329029712Y-95353708D01*
X329247089Y-95469291D01*
X329437879Y-95624895D01*
X329594811Y-95814593D01*
X329711906Y-96031157D01*
X329784709Y-96266344D01*
X329792103Y-96336696D01*
X329756557Y-96372242D01*
X329643978Y-96540728D01*
X329566433Y-96727939D01*
X329526900Y-96926682D01*
X329526900Y-97129318D01*
X329566433Y-97328061D01*
X329643978Y-97515272D01*
X329742687Y-97663000D01*
X329643978Y-97810728D01*
X329566433Y-97997939D01*
X329526900Y-98196682D01*
X329526900Y-98399318D01*
X329566433Y-98598061D01*
X329643978Y-98785272D01*
X329742687Y-98933000D01*
X329643978Y-99080728D01*
X329566433Y-99267939D01*
X329526900Y-99466682D01*
X329526900Y-99669318D01*
X329566433Y-99868061D01*
X329643978Y-100055272D01*
X329742687Y-100203000D01*
X329643978Y-100350728D01*
X329566433Y-100537939D01*
X329526900Y-100736682D01*
X329526900Y-100939318D01*
X329566433Y-101138061D01*
X329643978Y-101325272D01*
X329742687Y-101473000D01*
X329643978Y-101620728D01*
X329566433Y-101807939D01*
X329526900Y-102006682D01*
X329526900Y-102209318D01*
X329566433Y-102408061D01*
X329643978Y-102595272D01*
X329756557Y-102763758D01*
X329779811Y-102787012D01*
X329715291Y-103000711D01*
X329599711Y-103218087D01*
X329444104Y-103408878D01*
X329254408Y-103565810D01*
X329037843Y-103682905D01*
X328802656Y-103755708D01*
X328523972Y-103784999D01*
X275129812Y-103784999D01*
X275864006Y-103294427D01*
X276544427Y-102614006D01*
X277079030Y-101813915D01*
X277447272Y-100924902D01*
X277635000Y-99981130D01*
X277635000Y-99018870D01*
X277447272Y-98075098D01*
X277079030Y-97186085D01*
X276544427Y-96385994D01*
X275864006Y-95705573D01*
X275182450Y-95250173D01*
X328513017Y-95254996D01*
G37*
X328513017Y-95254996D02*
X328794021Y-95282549D01*
X329029712Y-95353708D01*
X329247089Y-95469291D01*
X329437879Y-95624895D01*
X329594811Y-95814593D01*
X329711906Y-96031157D01*
X329784709Y-96266344D01*
X329792103Y-96336696D01*
X329756557Y-96372242D01*
X329643978Y-96540728D01*
X329566433Y-96727939D01*
X329526900Y-96926682D01*
X329526900Y-97129318D01*
X329566433Y-97328061D01*
X329643978Y-97515272D01*
X329742687Y-97663000D01*
X329643978Y-97810728D01*
X329566433Y-97997939D01*
X329526900Y-98196682D01*
X329526900Y-98399318D01*
X329566433Y-98598061D01*
X329643978Y-98785272D01*
X329742687Y-98933000D01*
X329643978Y-99080728D01*
X329566433Y-99267939D01*
X329526900Y-99466682D01*
X329526900Y-99669318D01*
X329566433Y-99868061D01*
X329643978Y-100055272D01*
X329742687Y-100203000D01*
X329643978Y-100350728D01*
X329566433Y-100537939D01*
X329526900Y-100736682D01*
X329526900Y-100939318D01*
X329566433Y-101138061D01*
X329643978Y-101325272D01*
X329742687Y-101473000D01*
X329643978Y-101620728D01*
X329566433Y-101807939D01*
X329526900Y-102006682D01*
X329526900Y-102209318D01*
X329566433Y-102408061D01*
X329643978Y-102595272D01*
X329756557Y-102763758D01*
X329779811Y-102787012D01*
X329715291Y-103000711D01*
X329599711Y-103218087D01*
X329444104Y-103408878D01*
X329254408Y-103565810D01*
X329037843Y-103682905D01*
X328802656Y-103755708D01*
X328523972Y-103784999D01*
X275129812Y-103784999D01*
X275864006Y-103294427D01*
X276544427Y-102614006D01*
X277079030Y-101813915D01*
X277447272Y-100924902D01*
X277635000Y-99981130D01*
X277635000Y-99018870D01*
X277447272Y-98075098D01*
X277079030Y-97186085D01*
X276544427Y-96385994D01*
X275864006Y-95705573D01*
X275182450Y-95250173D01*
X328513017Y-95254996D01*
G36*
X169311949Y-95240597D02*
G01*
X168645994Y-95685573D01*
X167965573Y-96365994D01*
X167430970Y-97166085D01*
X167062728Y-98055098D01*
X166875000Y-98998870D01*
X166875000Y-99961130D01*
X167062728Y-100904902D01*
X167430970Y-101793915D01*
X167965573Y-102594006D01*
X168645994Y-103274427D01*
X169410120Y-103784999D01*
X94099880Y-103784999D01*
X94864006Y-103274427D01*
X95544427Y-102594006D01*
X96079030Y-101793915D01*
X96447272Y-100904902D01*
X96635000Y-99961130D01*
X96635000Y-98998870D01*
X96447272Y-98055098D01*
X96079030Y-97166085D01*
X95544427Y-96365994D01*
X94864006Y-95685573D01*
X94187881Y-95233801D01*
X169311949Y-95240597D01*
G37*
X169311949Y-95240597D02*
X168645994Y-95685573D01*
X167965573Y-96365994D01*
X167430970Y-97166085D01*
X167062728Y-98055098D01*
X166875000Y-98998870D01*
X166875000Y-99961130D01*
X167062728Y-100904902D01*
X167430970Y-101793915D01*
X167965573Y-102594006D01*
X168645994Y-103274427D01*
X169410120Y-103784999D01*
X94099880Y-103784999D01*
X94864006Y-103274427D01*
X95544427Y-102594006D01*
X96079030Y-101793915D01*
X96447272Y-100904902D01*
X96635000Y-99961130D01*
X96635000Y-98998870D01*
X96447272Y-98055098D01*
X96079030Y-97166085D01*
X95544427Y-96365994D01*
X94864006Y-95685573D01*
X94187881Y-95233801D01*
X169311949Y-95240597D01*
G36*
X342790313Y-95278036D02*
G01*
X343026863Y-95349455D01*
X343245034Y-95465458D01*
X343436520Y-95621631D01*
X343594023Y-95812019D01*
X343711550Y-96029380D01*
X343784616Y-96265416D01*
X343789254Y-96309545D01*
X343777357Y-96321442D01*
X343664778Y-96489928D01*
X343587233Y-96677139D01*
X343547700Y-96875882D01*
X343547700Y-97078518D01*
X343587233Y-97277261D01*
X343664778Y-97464472D01*
X343763487Y-97612200D01*
X343664778Y-97759928D01*
X343587233Y-97947139D01*
X343547700Y-98145882D01*
X343547700Y-98348518D01*
X343587233Y-98547261D01*
X343664778Y-98734472D01*
X343763487Y-98882200D01*
X343664778Y-99029928D01*
X343587233Y-99217139D01*
X343547700Y-99415882D01*
X343547700Y-99618518D01*
X343587233Y-99817261D01*
X343664778Y-100004472D01*
X343763487Y-100152200D01*
X343664778Y-100299928D01*
X343587233Y-100487139D01*
X343547700Y-100685882D01*
X343547700Y-100888518D01*
X343587233Y-101087261D01*
X343664778Y-101274472D01*
X343763487Y-101422200D01*
X343664778Y-101569928D01*
X343587233Y-101757139D01*
X343547700Y-101955882D01*
X343547700Y-102158518D01*
X343587233Y-102357261D01*
X343664778Y-102544472D01*
X343777357Y-102712958D01*
X343786098Y-102721699D01*
X343781851Y-102765020D01*
X343710691Y-103000711D01*
X343595111Y-103218087D01*
X343439504Y-103408878D01*
X343249808Y-103565810D01*
X343033243Y-103682905D01*
X342798056Y-103755708D01*
X342519372Y-103784999D01*
X332584947Y-103784999D01*
X332303979Y-103757450D01*
X332068288Y-103686290D01*
X331850912Y-103570710D01*
X331660121Y-103415103D01*
X331503189Y-103225407D01*
X331386094Y-103008842D01*
X331320726Y-102797675D01*
X331354643Y-102763758D01*
X331467222Y-102595272D01*
X331544767Y-102408061D01*
X331584300Y-102209318D01*
X331584300Y-102006682D01*
X331544767Y-101807939D01*
X331467222Y-101620728D01*
X331368513Y-101473000D01*
X331467222Y-101325272D01*
X331544767Y-101138061D01*
X331584300Y-100939318D01*
X331584300Y-100736682D01*
X331544767Y-100537939D01*
X331467222Y-100350728D01*
X331368513Y-100203000D01*
X331467222Y-100055272D01*
X331544767Y-99868061D01*
X331584300Y-99669318D01*
X331584300Y-99466682D01*
X331544767Y-99267939D01*
X331467222Y-99080728D01*
X331368513Y-98933000D01*
X331467222Y-98785272D01*
X331544767Y-98598061D01*
X331584300Y-98399318D01*
X331584300Y-98196682D01*
X331544767Y-97997939D01*
X331467222Y-97810728D01*
X331368513Y-97663000D01*
X331467222Y-97515272D01*
X331544767Y-97328061D01*
X331584300Y-97129318D01*
X331584300Y-96926682D01*
X331544767Y-96727939D01*
X331467222Y-96540728D01*
X331354643Y-96372242D01*
X331306712Y-96324311D01*
X331311549Y-96274979D01*
X331382708Y-96039288D01*
X331498291Y-95821911D01*
X331653895Y-95631121D01*
X331843593Y-95474189D01*
X332060157Y-95357094D01*
X332295344Y-95284291D01*
X332574028Y-95255000D01*
X342555369Y-95255000D01*
X342790313Y-95278036D01*
G37*
X342790313Y-95278036D02*
X343026863Y-95349455D01*
X343245034Y-95465458D01*
X343436520Y-95621631D01*
X343594023Y-95812019D01*
X343711550Y-96029380D01*
X343784616Y-96265416D01*
X343789254Y-96309545D01*
X343777357Y-96321442D01*
X343664778Y-96489928D01*
X343587233Y-96677139D01*
X343547700Y-96875882D01*
X343547700Y-97078518D01*
X343587233Y-97277261D01*
X343664778Y-97464472D01*
X343763487Y-97612200D01*
X343664778Y-97759928D01*
X343587233Y-97947139D01*
X343547700Y-98145882D01*
X343547700Y-98348518D01*
X343587233Y-98547261D01*
X343664778Y-98734472D01*
X343763487Y-98882200D01*
X343664778Y-99029928D01*
X343587233Y-99217139D01*
X343547700Y-99415882D01*
X343547700Y-99618518D01*
X343587233Y-99817261D01*
X343664778Y-100004472D01*
X343763487Y-100152200D01*
X343664778Y-100299928D01*
X343587233Y-100487139D01*
X343547700Y-100685882D01*
X343547700Y-100888518D01*
X343587233Y-101087261D01*
X343664778Y-101274472D01*
X343763487Y-101422200D01*
X343664778Y-101569928D01*
X343587233Y-101757139D01*
X343547700Y-101955882D01*
X343547700Y-102158518D01*
X343587233Y-102357261D01*
X343664778Y-102544472D01*
X343777357Y-102712958D01*
X343786098Y-102721699D01*
X343781851Y-102765020D01*
X343710691Y-103000711D01*
X343595111Y-103218087D01*
X343439504Y-103408878D01*
X343249808Y-103565810D01*
X343033243Y-103682905D01*
X342798056Y-103755708D01*
X342519372Y-103784999D01*
X332584947Y-103784999D01*
X332303979Y-103757450D01*
X332068288Y-103686290D01*
X331850912Y-103570710D01*
X331660121Y-103415103D01*
X331503189Y-103225407D01*
X331386094Y-103008842D01*
X331320726Y-102797675D01*
X331354643Y-102763758D01*
X331467222Y-102595272D01*
X331544767Y-102408061D01*
X331584300Y-102209318D01*
X331584300Y-102006682D01*
X331544767Y-101807939D01*
X331467222Y-101620728D01*
X331368513Y-101473000D01*
X331467222Y-101325272D01*
X331544767Y-101138061D01*
X331584300Y-100939318D01*
X331584300Y-100736682D01*
X331544767Y-100537939D01*
X331467222Y-100350728D01*
X331368513Y-100203000D01*
X331467222Y-100055272D01*
X331544767Y-99868061D01*
X331584300Y-99669318D01*
X331584300Y-99466682D01*
X331544767Y-99267939D01*
X331467222Y-99080728D01*
X331368513Y-98933000D01*
X331467222Y-98785272D01*
X331544767Y-98598061D01*
X331584300Y-98399318D01*
X331584300Y-98196682D01*
X331544767Y-97997939D01*
X331467222Y-97810728D01*
X331368513Y-97663000D01*
X331467222Y-97515272D01*
X331544767Y-97328061D01*
X331584300Y-97129318D01*
X331584300Y-96926682D01*
X331544767Y-96727939D01*
X331467222Y-96540728D01*
X331354643Y-96372242D01*
X331306712Y-96324311D01*
X331311549Y-96274979D01*
X331382708Y-96039288D01*
X331498291Y-95821911D01*
X331653895Y-95631121D01*
X331843593Y-95474189D01*
X332060157Y-95357094D01*
X332295344Y-95284291D01*
X332574028Y-95255000D01*
X342555369Y-95255000D01*
X342790313Y-95278036D01*
G36*
X270318208Y-95249733D02*
G01*
X269635994Y-95705573D01*
X268955573Y-96385994D01*
X268420970Y-97186085D01*
X268052728Y-98075098D01*
X267865000Y-99018870D01*
X267865000Y-99981130D01*
X268052728Y-100924902D01*
X268420970Y-101813915D01*
X268955573Y-102614006D01*
X269635994Y-103294427D01*
X270370188Y-103784999D01*
X174109880Y-103784999D01*
X174874006Y-103274427D01*
X175554427Y-102594006D01*
X176089030Y-101793915D01*
X176457272Y-100904902D01*
X176645000Y-99961130D01*
X176645000Y-98998870D01*
X176457272Y-98055098D01*
X176089030Y-97166085D01*
X175554427Y-96365994D01*
X174874006Y-95685573D01*
X174208714Y-95241039D01*
X270318208Y-95249733D01*
G37*
X270318208Y-95249733D02*
X269635994Y-95705573D01*
X268955573Y-96385994D01*
X268420970Y-97186085D01*
X268052728Y-98075098D01*
X267865000Y-99018870D01*
X267865000Y-99981130D01*
X268052728Y-100924902D01*
X268420970Y-101813915D01*
X268955573Y-102614006D01*
X269635994Y-103294427D01*
X270370188Y-103784999D01*
X174109880Y-103784999D01*
X174874006Y-103274427D01*
X175554427Y-102594006D01*
X176089030Y-101793915D01*
X176457272Y-100904902D01*
X176645000Y-99961130D01*
X176645000Y-98998870D01*
X176457272Y-98055098D01*
X176089030Y-97166085D01*
X175554427Y-96365994D01*
X174874006Y-95685573D01*
X174208714Y-95241039D01*
X270318208Y-95249733D01*
G36*
X349635994Y-95705573D02*
G01*
X348955573Y-96385994D01*
X348420970Y-97186085D01*
X348052728Y-98075098D01*
X347865000Y-99018870D01*
X347865000Y-99981130D01*
X348052728Y-100924902D01*
X348420970Y-101813915D01*
X348955573Y-102614006D01*
X349635994Y-103294427D01*
X350370188Y-103784999D01*
X346538031Y-103784999D01*
X346303087Y-103761963D01*
X346066536Y-103690544D01*
X345848360Y-103574537D01*
X345656880Y-103418369D01*
X345499377Y-103227980D01*
X345381851Y-103010622D01*
X345309974Y-102778427D01*
X345375443Y-102712958D01*
X345488022Y-102544472D01*
X345565567Y-102357261D01*
X345605100Y-102158518D01*
X345605100Y-101955882D01*
X345565567Y-101757139D01*
X345488022Y-101569928D01*
X345389313Y-101422200D01*
X345488022Y-101274472D01*
X345565567Y-101087261D01*
X345605100Y-100888518D01*
X345605100Y-100685882D01*
X345565567Y-100487139D01*
X345488022Y-100299928D01*
X345389313Y-100152200D01*
X345488022Y-100004472D01*
X345565567Y-99817261D01*
X345605100Y-99618518D01*
X345605100Y-99415882D01*
X345565567Y-99217139D01*
X345488022Y-99029928D01*
X345389313Y-98882200D01*
X345488022Y-98734472D01*
X345565567Y-98547261D01*
X345605100Y-98348518D01*
X345605100Y-98145882D01*
X345565567Y-97947139D01*
X345488022Y-97759928D01*
X345389313Y-97612200D01*
X345488022Y-97464472D01*
X345565567Y-97277261D01*
X345605100Y-97078518D01*
X345605100Y-96875882D01*
X345565567Y-96677139D01*
X345488022Y-96489928D01*
X345375443Y-96321442D01*
X345315591Y-96261590D01*
X345382708Y-96039288D01*
X345498291Y-95821911D01*
X345653895Y-95631121D01*
X345843593Y-95474189D01*
X346060157Y-95357094D01*
X346295344Y-95284291D01*
X346574361Y-95254965D01*
X350318073Y-95249823D01*
X349635994Y-95705573D01*
G37*
X349635994Y-95705573D02*
X348955573Y-96385994D01*
X348420970Y-97186085D01*
X348052728Y-98075098D01*
X347865000Y-99018870D01*
X347865000Y-99981130D01*
X348052728Y-100924902D01*
X348420970Y-101813915D01*
X348955573Y-102614006D01*
X349635994Y-103294427D01*
X350370188Y-103784999D01*
X346538031Y-103784999D01*
X346303087Y-103761963D01*
X346066536Y-103690544D01*
X345848360Y-103574537D01*
X345656880Y-103418369D01*
X345499377Y-103227980D01*
X345381851Y-103010622D01*
X345309974Y-102778427D01*
X345375443Y-102712958D01*
X345488022Y-102544472D01*
X345565567Y-102357261D01*
X345605100Y-102158518D01*
X345605100Y-101955882D01*
X345565567Y-101757139D01*
X345488022Y-101569928D01*
X345389313Y-101422200D01*
X345488022Y-101274472D01*
X345565567Y-101087261D01*
X345605100Y-100888518D01*
X345605100Y-100685882D01*
X345565567Y-100487139D01*
X345488022Y-100299928D01*
X345389313Y-100152200D01*
X345488022Y-100004472D01*
X345565567Y-99817261D01*
X345605100Y-99618518D01*
X345605100Y-99415882D01*
X345565567Y-99217139D01*
X345488022Y-99029928D01*
X345389313Y-98882200D01*
X345488022Y-98734472D01*
X345565567Y-98547261D01*
X345605100Y-98348518D01*
X345605100Y-98145882D01*
X345565567Y-97947139D01*
X345488022Y-97759928D01*
X345389313Y-97612200D01*
X345488022Y-97464472D01*
X345565567Y-97277261D01*
X345605100Y-97078518D01*
X345605100Y-96875882D01*
X345565567Y-96677139D01*
X345488022Y-96489928D01*
X345375443Y-96321442D01*
X345315591Y-96261590D01*
X345382708Y-96039288D01*
X345498291Y-95821911D01*
X345653895Y-95631121D01*
X345843593Y-95474189D01*
X346060157Y-95357094D01*
X346295344Y-95284291D01*
X346574361Y-95254965D01*
X350318073Y-95249823D01*
X349635994Y-95705573D01*
M02*
