G04 #@! TF.GenerationSoftware,KiCad,Pcbnew,5.1.6*
G04 #@! TF.CreationDate,2020-06-16T15:44:28+02:00*
G04 #@! TF.ProjectId,punk75_inner,70756e6b-3735-45f6-996e-6e65722e6b69,rev?*
G04 #@! TF.SameCoordinates,Original*
G04 #@! TF.FileFunction,Copper,L2,Bot*
G04 #@! TF.FilePolarity,Positive*
%FSLAX46Y46*%
G04 Gerber Fmt 4.6, Leading zero omitted, Abs format (unit mm)*
G04 Created by KiCad (PCBNEW 5.1.6) date 2020-06-16 15:44:28*
%MOMM*%
%LPD*%
G01*
G04 APERTURE LIST*
G04 #@! TA.AperFunction,ComponentPad*
%ADD10C,6.400000*%
G04 #@! TD*
G04 #@! TA.AperFunction,NonConductor*
%ADD11C,0.254000*%
G04 #@! TD*
G04 APERTURE END LIST*
D10*
X352750000Y-99500000D03*
X272750000Y-99500000D03*
X171760000Y-99480000D03*
X91750000Y-99480000D03*
X272750000Y-236130000D03*
X171770000Y-236120000D03*
X91760000Y-236110000D03*
X352740000Y-236110000D03*
D11*
G36*
X328513017Y-95254996D02*
G01*
X328794021Y-95282549D01*
X329029712Y-95353708D01*
X329247089Y-95469291D01*
X329437879Y-95624895D01*
X329594811Y-95814593D01*
X329711906Y-96031157D01*
X329784709Y-96266344D01*
X329792103Y-96336696D01*
X329756557Y-96372242D01*
X329643978Y-96540728D01*
X329566433Y-96727939D01*
X329526900Y-96926682D01*
X329526900Y-97129318D01*
X329566433Y-97328061D01*
X329643978Y-97515272D01*
X329742687Y-97663000D01*
X329643978Y-97810728D01*
X329566433Y-97997939D01*
X329526900Y-98196682D01*
X329526900Y-98399318D01*
X329566433Y-98598061D01*
X329643978Y-98785272D01*
X329742687Y-98933000D01*
X329643978Y-99080728D01*
X329566433Y-99267939D01*
X329526900Y-99466682D01*
X329526900Y-99669318D01*
X329566433Y-99868061D01*
X329643978Y-100055272D01*
X329742687Y-100203000D01*
X329643978Y-100350728D01*
X329566433Y-100537939D01*
X329526900Y-100736682D01*
X329526900Y-100939318D01*
X329566433Y-101138061D01*
X329643978Y-101325272D01*
X329742687Y-101473000D01*
X329643978Y-101620728D01*
X329566433Y-101807939D01*
X329526900Y-102006682D01*
X329526900Y-102209318D01*
X329566433Y-102408061D01*
X329643978Y-102595272D01*
X329756557Y-102763758D01*
X329779811Y-102787012D01*
X329715291Y-103000711D01*
X329599711Y-103218087D01*
X329444104Y-103408878D01*
X329254408Y-103565810D01*
X329037843Y-103682905D01*
X328802656Y-103755708D01*
X328523972Y-103784999D01*
X81707121Y-103784999D01*
X81674080Y-103788253D01*
X81653006Y-103788106D01*
X81642792Y-103789107D01*
X80986502Y-103858086D01*
X80921188Y-103871493D01*
X80855810Y-103883965D01*
X80845985Y-103886930D01*
X80215594Y-104082069D01*
X80154131Y-104107906D01*
X80092417Y-104132840D01*
X80083360Y-104137655D01*
X80083355Y-104137657D01*
X80083351Y-104137660D01*
X79502870Y-104451524D01*
X79447631Y-104488784D01*
X79391900Y-104525253D01*
X79383947Y-104531739D01*
X78875482Y-104952378D01*
X78828505Y-104999684D01*
X78780947Y-105046256D01*
X78774405Y-105054163D01*
X78357326Y-105565552D01*
X78320439Y-105621071D01*
X78282825Y-105676006D01*
X78277943Y-105685033D01*
X77968137Y-106267694D01*
X77942742Y-106329307D01*
X77916509Y-106390513D01*
X77913474Y-106400316D01*
X77722740Y-107032056D01*
X77709793Y-107097446D01*
X77695951Y-107162566D01*
X77694878Y-107172772D01*
X77630483Y-107829527D01*
X77626975Y-107865146D01*
X77626976Y-109452636D01*
X77626975Y-109452646D01*
X77626976Y-227793605D01*
X77630229Y-227826636D01*
X77630082Y-227847720D01*
X77631083Y-227857934D01*
X77700062Y-228514224D01*
X77713469Y-228579538D01*
X77725941Y-228644916D01*
X77728906Y-228654740D01*
X77924045Y-229285132D01*
X77949883Y-229346599D01*
X77974816Y-229408310D01*
X77979633Y-229417371D01*
X78293500Y-229997856D01*
X78330780Y-230053126D01*
X78367229Y-230108826D01*
X78373715Y-230116779D01*
X78794354Y-230625243D01*
X78841641Y-230672202D01*
X78888232Y-230719779D01*
X78896139Y-230726321D01*
X79407528Y-231143400D01*
X79463047Y-231180287D01*
X79517982Y-231217901D01*
X79527009Y-231222783D01*
X80109669Y-231532589D01*
X80171296Y-231557990D01*
X80232489Y-231584217D01*
X80242292Y-231587252D01*
X80874032Y-231777986D01*
X80939422Y-231790933D01*
X81004542Y-231804775D01*
X81014746Y-231805848D01*
X81014748Y-231805848D01*
X81671503Y-231870243D01*
X81671513Y-231870243D01*
X81707121Y-231873750D01*
X362766831Y-231873750D01*
X362799872Y-231870496D01*
X362820946Y-231870643D01*
X362831160Y-231869642D01*
X363487450Y-231800663D01*
X363552764Y-231787256D01*
X363618142Y-231774784D01*
X363627966Y-231771819D01*
X364258358Y-231576680D01*
X364319825Y-231550842D01*
X364381536Y-231525909D01*
X364390588Y-231521096D01*
X364390597Y-231521092D01*
X364390604Y-231521087D01*
X364971081Y-231207224D01*
X365026325Y-231169962D01*
X365082051Y-231133496D01*
X365090004Y-231127010D01*
X365598468Y-230706371D01*
X365645427Y-230659084D01*
X365693004Y-230612493D01*
X365699546Y-230604586D01*
X366116625Y-230093197D01*
X366153512Y-230037678D01*
X366191126Y-229982743D01*
X366196008Y-229973716D01*
X366505814Y-229391056D01*
X366531215Y-229329429D01*
X366557442Y-229268236D01*
X366560477Y-229258433D01*
X366751211Y-228626694D01*
X366764160Y-228561298D01*
X366778000Y-228496184D01*
X366779073Y-228485978D01*
X366843468Y-227829223D01*
X366846976Y-227793605D01*
X366846976Y-107865145D01*
X366843722Y-107832104D01*
X366843869Y-107811030D01*
X366842868Y-107800816D01*
X366773889Y-107144526D01*
X366760482Y-107079212D01*
X366748010Y-107013834D01*
X366745045Y-107004009D01*
X366549906Y-106373618D01*
X366524068Y-106312151D01*
X366499135Y-106250440D01*
X366494318Y-106241379D01*
X366180450Y-105660895D01*
X366143198Y-105605667D01*
X366106722Y-105549925D01*
X366100236Y-105541972D01*
X365679597Y-105033507D01*
X365632291Y-104986530D01*
X365585719Y-104938972D01*
X365577812Y-104932430D01*
X365066423Y-104515351D01*
X365010904Y-104478464D01*
X364955969Y-104440850D01*
X364946942Y-104435968D01*
X364364281Y-104126162D01*
X364302668Y-104100767D01*
X364241462Y-104074534D01*
X364231659Y-104071499D01*
X363599920Y-103880765D01*
X363534530Y-103867818D01*
X363469410Y-103853976D01*
X363459206Y-103852903D01*
X363459204Y-103852903D01*
X362804645Y-103788723D01*
X362766831Y-103784999D01*
X346538031Y-103784999D01*
X346303087Y-103761963D01*
X346066536Y-103690544D01*
X345848360Y-103574537D01*
X345656880Y-103418369D01*
X345499377Y-103227980D01*
X345381851Y-103010622D01*
X345309974Y-102778427D01*
X345375443Y-102712958D01*
X345488022Y-102544472D01*
X345565567Y-102357261D01*
X345605100Y-102158518D01*
X345605100Y-101955882D01*
X345565567Y-101757139D01*
X345488022Y-101569928D01*
X345389313Y-101422200D01*
X345488022Y-101274472D01*
X345565567Y-101087261D01*
X345605100Y-100888518D01*
X345605100Y-100685882D01*
X345565567Y-100487139D01*
X345488022Y-100299928D01*
X345389313Y-100152200D01*
X345488022Y-100004472D01*
X345565567Y-99817261D01*
X345605100Y-99618518D01*
X345605100Y-99415882D01*
X345565567Y-99217139D01*
X345526278Y-99122285D01*
X348915000Y-99122285D01*
X348915000Y-99877715D01*
X349062377Y-100618628D01*
X349351467Y-101316554D01*
X349771161Y-101944670D01*
X350305330Y-102478839D01*
X350933446Y-102898533D01*
X351631372Y-103187623D01*
X352372285Y-103335000D01*
X353127715Y-103335000D01*
X353868628Y-103187623D01*
X354566554Y-102898533D01*
X355194670Y-102478839D01*
X355728839Y-101944670D01*
X356148533Y-101316554D01*
X356437623Y-100618628D01*
X356585000Y-99877715D01*
X356585000Y-99122285D01*
X356437623Y-98381372D01*
X356148533Y-97683446D01*
X355728839Y-97055330D01*
X355194670Y-96521161D01*
X354566554Y-96101467D01*
X353868628Y-95812377D01*
X353127715Y-95665000D01*
X352372285Y-95665000D01*
X351631372Y-95812377D01*
X350933446Y-96101467D01*
X350305330Y-96521161D01*
X349771161Y-97055330D01*
X349351467Y-97683446D01*
X349062377Y-98381372D01*
X348915000Y-99122285D01*
X345526278Y-99122285D01*
X345488022Y-99029928D01*
X345389313Y-98882200D01*
X345488022Y-98734472D01*
X345565567Y-98547261D01*
X345605100Y-98348518D01*
X345605100Y-98145882D01*
X345565567Y-97947139D01*
X345488022Y-97759928D01*
X345389313Y-97612200D01*
X345488022Y-97464472D01*
X345565567Y-97277261D01*
X345605100Y-97078518D01*
X345605100Y-96875882D01*
X345565567Y-96677139D01*
X345488022Y-96489928D01*
X345375443Y-96321442D01*
X345315591Y-96261590D01*
X345382708Y-96039288D01*
X345498291Y-95821911D01*
X345653895Y-95631121D01*
X345843593Y-95474189D01*
X346060157Y-95357094D01*
X346295344Y-95284291D01*
X346574361Y-95254965D01*
X362729041Y-95232777D01*
X364136356Y-95310226D01*
X365507196Y-95538397D01*
X366844729Y-95915620D01*
X368132783Y-96437335D01*
X369355814Y-97097246D01*
X370499047Y-97887383D01*
X371548665Y-98798195D01*
X372491994Y-99818683D01*
X373317651Y-100936533D01*
X374015651Y-102138228D01*
X374577566Y-103409255D01*
X374996618Y-104734286D01*
X375267735Y-106097280D01*
X375388896Y-107496224D01*
X375395001Y-107884816D01*
X375395000Y-227715050D01*
X375317524Y-229122847D01*
X375089353Y-230493695D01*
X374712130Y-231831230D01*
X374190411Y-233119290D01*
X373530500Y-234342321D01*
X372740370Y-235485543D01*
X371829559Y-236535160D01*
X370809067Y-237478494D01*
X369691217Y-238304151D01*
X368489522Y-239002151D01*
X367218492Y-239564067D01*
X365893465Y-239983118D01*
X364530468Y-240254235D01*
X363131528Y-240375396D01*
X362742998Y-240381500D01*
X81781450Y-240381500D01*
X80373653Y-240304024D01*
X79002805Y-240075853D01*
X77665270Y-239698630D01*
X76377210Y-239176911D01*
X75154179Y-238517000D01*
X74010957Y-237726870D01*
X72961340Y-236816059D01*
X72018006Y-235795567D01*
X71971266Y-235732285D01*
X87925000Y-235732285D01*
X87925000Y-236487715D01*
X88072377Y-237228628D01*
X88361467Y-237926554D01*
X88781161Y-238554670D01*
X89315330Y-239088839D01*
X89943446Y-239508533D01*
X90641372Y-239797623D01*
X91382285Y-239945000D01*
X92137715Y-239945000D01*
X92878628Y-239797623D01*
X93576554Y-239508533D01*
X94204670Y-239088839D01*
X94738839Y-238554670D01*
X95158533Y-237926554D01*
X95447623Y-237228628D01*
X95595000Y-236487715D01*
X95595000Y-235742285D01*
X167935000Y-235742285D01*
X167935000Y-236497715D01*
X168082377Y-237238628D01*
X168371467Y-237936554D01*
X168791161Y-238564670D01*
X169325330Y-239098839D01*
X169953446Y-239518533D01*
X170651372Y-239807623D01*
X171392285Y-239955000D01*
X172147715Y-239955000D01*
X172888628Y-239807623D01*
X173586554Y-239518533D01*
X174214670Y-239098839D01*
X174748839Y-238564670D01*
X175168533Y-237936554D01*
X175457623Y-237238628D01*
X175605000Y-236497715D01*
X175605000Y-235752285D01*
X268915000Y-235752285D01*
X268915000Y-236507715D01*
X269062377Y-237248628D01*
X269351467Y-237946554D01*
X269771161Y-238574670D01*
X270305330Y-239108839D01*
X270933446Y-239528533D01*
X271631372Y-239817623D01*
X272372285Y-239965000D01*
X273127715Y-239965000D01*
X273868628Y-239817623D01*
X274566554Y-239528533D01*
X275194670Y-239108839D01*
X275728839Y-238574670D01*
X276148533Y-237946554D01*
X276437623Y-237248628D01*
X276585000Y-236507715D01*
X276585000Y-235752285D01*
X276581022Y-235732285D01*
X348905000Y-235732285D01*
X348905000Y-236487715D01*
X349052377Y-237228628D01*
X349341467Y-237926554D01*
X349761161Y-238554670D01*
X350295330Y-239088839D01*
X350923446Y-239508533D01*
X351621372Y-239797623D01*
X352362285Y-239945000D01*
X353117715Y-239945000D01*
X353858628Y-239797623D01*
X354556554Y-239508533D01*
X355184670Y-239088839D01*
X355718839Y-238554670D01*
X356138533Y-237926554D01*
X356427623Y-237228628D01*
X356575000Y-236487715D01*
X356575000Y-235732285D01*
X356427623Y-234991372D01*
X356138533Y-234293446D01*
X355718839Y-233665330D01*
X355184670Y-233131161D01*
X354556554Y-232711467D01*
X353858628Y-232422377D01*
X353117715Y-232275000D01*
X352362285Y-232275000D01*
X351621372Y-232422377D01*
X350923446Y-232711467D01*
X350295330Y-233131161D01*
X349761161Y-233665330D01*
X349341467Y-234293446D01*
X349052377Y-234991372D01*
X348905000Y-235732285D01*
X276581022Y-235732285D01*
X276437623Y-235011372D01*
X276148533Y-234313446D01*
X275728839Y-233685330D01*
X275194670Y-233151161D01*
X274566554Y-232731467D01*
X273868628Y-232442377D01*
X273127715Y-232295000D01*
X272372285Y-232295000D01*
X271631372Y-232442377D01*
X270933446Y-232731467D01*
X270305330Y-233151161D01*
X269771161Y-233685330D01*
X269351467Y-234313446D01*
X269062377Y-235011372D01*
X268915000Y-235752285D01*
X175605000Y-235752285D01*
X175605000Y-235742285D01*
X175457623Y-235001372D01*
X175168533Y-234303446D01*
X174748839Y-233675330D01*
X174214670Y-233141161D01*
X173586554Y-232721467D01*
X172888628Y-232432377D01*
X172147715Y-232285000D01*
X171392285Y-232285000D01*
X170651372Y-232432377D01*
X169953446Y-232721467D01*
X169325330Y-233141161D01*
X168791161Y-233675330D01*
X168371467Y-234303446D01*
X168082377Y-235001372D01*
X167935000Y-235742285D01*
X95595000Y-235742285D01*
X95595000Y-235732285D01*
X95447623Y-234991372D01*
X95158533Y-234293446D01*
X94738839Y-233665330D01*
X94204670Y-233131161D01*
X93576554Y-232711467D01*
X92878628Y-232422377D01*
X92137715Y-232275000D01*
X91382285Y-232275000D01*
X90641372Y-232422377D01*
X89943446Y-232711467D01*
X89315330Y-233131161D01*
X88781161Y-233665330D01*
X88361467Y-234293446D01*
X88072377Y-234991372D01*
X87925000Y-235732285D01*
X71971266Y-235732285D01*
X71192349Y-234677717D01*
X70494349Y-233476022D01*
X69932433Y-232204992D01*
X69513382Y-230879965D01*
X69242265Y-229516968D01*
X69121104Y-228118028D01*
X69115000Y-227729498D01*
X69115000Y-107899200D01*
X69192476Y-106491394D01*
X69420647Y-105120554D01*
X69797870Y-103783021D01*
X70319585Y-102494967D01*
X70979496Y-101271936D01*
X71769633Y-100128703D01*
X72660313Y-99102285D01*
X87915000Y-99102285D01*
X87915000Y-99857715D01*
X88062377Y-100598628D01*
X88351467Y-101296554D01*
X88771161Y-101924670D01*
X89305330Y-102458839D01*
X89933446Y-102878533D01*
X90631372Y-103167623D01*
X91372285Y-103315000D01*
X92127715Y-103315000D01*
X92868628Y-103167623D01*
X93566554Y-102878533D01*
X94194670Y-102458839D01*
X94728839Y-101924670D01*
X95148533Y-101296554D01*
X95437623Y-100598628D01*
X95585000Y-99857715D01*
X95585000Y-99102285D01*
X167925000Y-99102285D01*
X167925000Y-99857715D01*
X168072377Y-100598628D01*
X168361467Y-101296554D01*
X168781161Y-101924670D01*
X169315330Y-102458839D01*
X169943446Y-102878533D01*
X170641372Y-103167623D01*
X171382285Y-103315000D01*
X172137715Y-103315000D01*
X172878628Y-103167623D01*
X173576554Y-102878533D01*
X174204670Y-102458839D01*
X174738839Y-101924670D01*
X175158533Y-101296554D01*
X175447623Y-100598628D01*
X175595000Y-99857715D01*
X175595000Y-99122285D01*
X268915000Y-99122285D01*
X268915000Y-99877715D01*
X269062377Y-100618628D01*
X269351467Y-101316554D01*
X269771161Y-101944670D01*
X270305330Y-102478839D01*
X270933446Y-102898533D01*
X271631372Y-103187623D01*
X272372285Y-103335000D01*
X273127715Y-103335000D01*
X273868628Y-103187623D01*
X274566554Y-102898533D01*
X275194670Y-102478839D01*
X275728839Y-101944670D01*
X276148533Y-101316554D01*
X276437623Y-100618628D01*
X276585000Y-99877715D01*
X276585000Y-99122285D01*
X276437623Y-98381372D01*
X276148533Y-97683446D01*
X275728839Y-97055330D01*
X275194670Y-96521161D01*
X274566554Y-96101467D01*
X273868628Y-95812377D01*
X273127715Y-95665000D01*
X272372285Y-95665000D01*
X271631372Y-95812377D01*
X270933446Y-96101467D01*
X270305330Y-96521161D01*
X269771161Y-97055330D01*
X269351467Y-97683446D01*
X269062377Y-98381372D01*
X268915000Y-99122285D01*
X175595000Y-99122285D01*
X175595000Y-99102285D01*
X175447623Y-98361372D01*
X175158533Y-97663446D01*
X174738839Y-97035330D01*
X174204670Y-96501161D01*
X173576554Y-96081467D01*
X172878628Y-95792377D01*
X172137715Y-95645000D01*
X171382285Y-95645000D01*
X170641372Y-95792377D01*
X169943446Y-96081467D01*
X169315330Y-96501161D01*
X168781161Y-97035330D01*
X168361467Y-97663446D01*
X168072377Y-98361372D01*
X167925000Y-99102285D01*
X95585000Y-99102285D01*
X95437623Y-98361372D01*
X95148533Y-97663446D01*
X94728839Y-97035330D01*
X94194670Y-96501161D01*
X93566554Y-96081467D01*
X92868628Y-95792377D01*
X92127715Y-95645000D01*
X91372285Y-95645000D01*
X90631372Y-95792377D01*
X89933446Y-96081467D01*
X89305330Y-96501161D01*
X88771161Y-97035330D01*
X88351467Y-97663446D01*
X88062377Y-98361372D01*
X87915000Y-99102285D01*
X72660313Y-99102285D01*
X72680445Y-99079085D01*
X73700933Y-98135756D01*
X74818783Y-97310099D01*
X76020478Y-96612099D01*
X77291505Y-96050184D01*
X78616536Y-95631132D01*
X79979530Y-95360015D01*
X81378474Y-95238854D01*
X81767002Y-95232750D01*
X82563052Y-95232750D01*
X328513017Y-95254996D01*
G37*
X328513017Y-95254996D02*
X328794021Y-95282549D01*
X329029712Y-95353708D01*
X329247089Y-95469291D01*
X329437879Y-95624895D01*
X329594811Y-95814593D01*
X329711906Y-96031157D01*
X329784709Y-96266344D01*
X329792103Y-96336696D01*
X329756557Y-96372242D01*
X329643978Y-96540728D01*
X329566433Y-96727939D01*
X329526900Y-96926682D01*
X329526900Y-97129318D01*
X329566433Y-97328061D01*
X329643978Y-97515272D01*
X329742687Y-97663000D01*
X329643978Y-97810728D01*
X329566433Y-97997939D01*
X329526900Y-98196682D01*
X329526900Y-98399318D01*
X329566433Y-98598061D01*
X329643978Y-98785272D01*
X329742687Y-98933000D01*
X329643978Y-99080728D01*
X329566433Y-99267939D01*
X329526900Y-99466682D01*
X329526900Y-99669318D01*
X329566433Y-99868061D01*
X329643978Y-100055272D01*
X329742687Y-100203000D01*
X329643978Y-100350728D01*
X329566433Y-100537939D01*
X329526900Y-100736682D01*
X329526900Y-100939318D01*
X329566433Y-101138061D01*
X329643978Y-101325272D01*
X329742687Y-101473000D01*
X329643978Y-101620728D01*
X329566433Y-101807939D01*
X329526900Y-102006682D01*
X329526900Y-102209318D01*
X329566433Y-102408061D01*
X329643978Y-102595272D01*
X329756557Y-102763758D01*
X329779811Y-102787012D01*
X329715291Y-103000711D01*
X329599711Y-103218087D01*
X329444104Y-103408878D01*
X329254408Y-103565810D01*
X329037843Y-103682905D01*
X328802656Y-103755708D01*
X328523972Y-103784999D01*
X81707121Y-103784999D01*
X81674080Y-103788253D01*
X81653006Y-103788106D01*
X81642792Y-103789107D01*
X80986502Y-103858086D01*
X80921188Y-103871493D01*
X80855810Y-103883965D01*
X80845985Y-103886930D01*
X80215594Y-104082069D01*
X80154131Y-104107906D01*
X80092417Y-104132840D01*
X80083360Y-104137655D01*
X80083355Y-104137657D01*
X80083351Y-104137660D01*
X79502870Y-104451524D01*
X79447631Y-104488784D01*
X79391900Y-104525253D01*
X79383947Y-104531739D01*
X78875482Y-104952378D01*
X78828505Y-104999684D01*
X78780947Y-105046256D01*
X78774405Y-105054163D01*
X78357326Y-105565552D01*
X78320439Y-105621071D01*
X78282825Y-105676006D01*
X78277943Y-105685033D01*
X77968137Y-106267694D01*
X77942742Y-106329307D01*
X77916509Y-106390513D01*
X77913474Y-106400316D01*
X77722740Y-107032056D01*
X77709793Y-107097446D01*
X77695951Y-107162566D01*
X77694878Y-107172772D01*
X77630483Y-107829527D01*
X77626975Y-107865146D01*
X77626976Y-109452636D01*
X77626975Y-109452646D01*
X77626976Y-227793605D01*
X77630229Y-227826636D01*
X77630082Y-227847720D01*
X77631083Y-227857934D01*
X77700062Y-228514224D01*
X77713469Y-228579538D01*
X77725941Y-228644916D01*
X77728906Y-228654740D01*
X77924045Y-229285132D01*
X77949883Y-229346599D01*
X77974816Y-229408310D01*
X77979633Y-229417371D01*
X78293500Y-229997856D01*
X78330780Y-230053126D01*
X78367229Y-230108826D01*
X78373715Y-230116779D01*
X78794354Y-230625243D01*
X78841641Y-230672202D01*
X78888232Y-230719779D01*
X78896139Y-230726321D01*
X79407528Y-231143400D01*
X79463047Y-231180287D01*
X79517982Y-231217901D01*
X79527009Y-231222783D01*
X80109669Y-231532589D01*
X80171296Y-231557990D01*
X80232489Y-231584217D01*
X80242292Y-231587252D01*
X80874032Y-231777986D01*
X80939422Y-231790933D01*
X81004542Y-231804775D01*
X81014746Y-231805848D01*
X81014748Y-231805848D01*
X81671503Y-231870243D01*
X81671513Y-231870243D01*
X81707121Y-231873750D01*
X362766831Y-231873750D01*
X362799872Y-231870496D01*
X362820946Y-231870643D01*
X362831160Y-231869642D01*
X363487450Y-231800663D01*
X363552764Y-231787256D01*
X363618142Y-231774784D01*
X363627966Y-231771819D01*
X364258358Y-231576680D01*
X364319825Y-231550842D01*
X364381536Y-231525909D01*
X364390588Y-231521096D01*
X364390597Y-231521092D01*
X364390604Y-231521087D01*
X364971081Y-231207224D01*
X365026325Y-231169962D01*
X365082051Y-231133496D01*
X365090004Y-231127010D01*
X365598468Y-230706371D01*
X365645427Y-230659084D01*
X365693004Y-230612493D01*
X365699546Y-230604586D01*
X366116625Y-230093197D01*
X366153512Y-230037678D01*
X366191126Y-229982743D01*
X366196008Y-229973716D01*
X366505814Y-229391056D01*
X366531215Y-229329429D01*
X366557442Y-229268236D01*
X366560477Y-229258433D01*
X366751211Y-228626694D01*
X366764160Y-228561298D01*
X366778000Y-228496184D01*
X366779073Y-228485978D01*
X366843468Y-227829223D01*
X366846976Y-227793605D01*
X366846976Y-107865145D01*
X366843722Y-107832104D01*
X366843869Y-107811030D01*
X366842868Y-107800816D01*
X366773889Y-107144526D01*
X366760482Y-107079212D01*
X366748010Y-107013834D01*
X366745045Y-107004009D01*
X366549906Y-106373618D01*
X366524068Y-106312151D01*
X366499135Y-106250440D01*
X366494318Y-106241379D01*
X366180450Y-105660895D01*
X366143198Y-105605667D01*
X366106722Y-105549925D01*
X366100236Y-105541972D01*
X365679597Y-105033507D01*
X365632291Y-104986530D01*
X365585719Y-104938972D01*
X365577812Y-104932430D01*
X365066423Y-104515351D01*
X365010904Y-104478464D01*
X364955969Y-104440850D01*
X364946942Y-104435968D01*
X364364281Y-104126162D01*
X364302668Y-104100767D01*
X364241462Y-104074534D01*
X364231659Y-104071499D01*
X363599920Y-103880765D01*
X363534530Y-103867818D01*
X363469410Y-103853976D01*
X363459206Y-103852903D01*
X363459204Y-103852903D01*
X362804645Y-103788723D01*
X362766831Y-103784999D01*
X346538031Y-103784999D01*
X346303087Y-103761963D01*
X346066536Y-103690544D01*
X345848360Y-103574537D01*
X345656880Y-103418369D01*
X345499377Y-103227980D01*
X345381851Y-103010622D01*
X345309974Y-102778427D01*
X345375443Y-102712958D01*
X345488022Y-102544472D01*
X345565567Y-102357261D01*
X345605100Y-102158518D01*
X345605100Y-101955882D01*
X345565567Y-101757139D01*
X345488022Y-101569928D01*
X345389313Y-101422200D01*
X345488022Y-101274472D01*
X345565567Y-101087261D01*
X345605100Y-100888518D01*
X345605100Y-100685882D01*
X345565567Y-100487139D01*
X345488022Y-100299928D01*
X345389313Y-100152200D01*
X345488022Y-100004472D01*
X345565567Y-99817261D01*
X345605100Y-99618518D01*
X345605100Y-99415882D01*
X345565567Y-99217139D01*
X345526278Y-99122285D01*
X348915000Y-99122285D01*
X348915000Y-99877715D01*
X349062377Y-100618628D01*
X349351467Y-101316554D01*
X349771161Y-101944670D01*
X350305330Y-102478839D01*
X350933446Y-102898533D01*
X351631372Y-103187623D01*
X352372285Y-103335000D01*
X353127715Y-103335000D01*
X353868628Y-103187623D01*
X354566554Y-102898533D01*
X355194670Y-102478839D01*
X355728839Y-101944670D01*
X356148533Y-101316554D01*
X356437623Y-100618628D01*
X356585000Y-99877715D01*
X356585000Y-99122285D01*
X356437623Y-98381372D01*
X356148533Y-97683446D01*
X355728839Y-97055330D01*
X355194670Y-96521161D01*
X354566554Y-96101467D01*
X353868628Y-95812377D01*
X353127715Y-95665000D01*
X352372285Y-95665000D01*
X351631372Y-95812377D01*
X350933446Y-96101467D01*
X350305330Y-96521161D01*
X349771161Y-97055330D01*
X349351467Y-97683446D01*
X349062377Y-98381372D01*
X348915000Y-99122285D01*
X345526278Y-99122285D01*
X345488022Y-99029928D01*
X345389313Y-98882200D01*
X345488022Y-98734472D01*
X345565567Y-98547261D01*
X345605100Y-98348518D01*
X345605100Y-98145882D01*
X345565567Y-97947139D01*
X345488022Y-97759928D01*
X345389313Y-97612200D01*
X345488022Y-97464472D01*
X345565567Y-97277261D01*
X345605100Y-97078518D01*
X345605100Y-96875882D01*
X345565567Y-96677139D01*
X345488022Y-96489928D01*
X345375443Y-96321442D01*
X345315591Y-96261590D01*
X345382708Y-96039288D01*
X345498291Y-95821911D01*
X345653895Y-95631121D01*
X345843593Y-95474189D01*
X346060157Y-95357094D01*
X346295344Y-95284291D01*
X346574361Y-95254965D01*
X362729041Y-95232777D01*
X364136356Y-95310226D01*
X365507196Y-95538397D01*
X366844729Y-95915620D01*
X368132783Y-96437335D01*
X369355814Y-97097246D01*
X370499047Y-97887383D01*
X371548665Y-98798195D01*
X372491994Y-99818683D01*
X373317651Y-100936533D01*
X374015651Y-102138228D01*
X374577566Y-103409255D01*
X374996618Y-104734286D01*
X375267735Y-106097280D01*
X375388896Y-107496224D01*
X375395001Y-107884816D01*
X375395000Y-227715050D01*
X375317524Y-229122847D01*
X375089353Y-230493695D01*
X374712130Y-231831230D01*
X374190411Y-233119290D01*
X373530500Y-234342321D01*
X372740370Y-235485543D01*
X371829559Y-236535160D01*
X370809067Y-237478494D01*
X369691217Y-238304151D01*
X368489522Y-239002151D01*
X367218492Y-239564067D01*
X365893465Y-239983118D01*
X364530468Y-240254235D01*
X363131528Y-240375396D01*
X362742998Y-240381500D01*
X81781450Y-240381500D01*
X80373653Y-240304024D01*
X79002805Y-240075853D01*
X77665270Y-239698630D01*
X76377210Y-239176911D01*
X75154179Y-238517000D01*
X74010957Y-237726870D01*
X72961340Y-236816059D01*
X72018006Y-235795567D01*
X71971266Y-235732285D01*
X87925000Y-235732285D01*
X87925000Y-236487715D01*
X88072377Y-237228628D01*
X88361467Y-237926554D01*
X88781161Y-238554670D01*
X89315330Y-239088839D01*
X89943446Y-239508533D01*
X90641372Y-239797623D01*
X91382285Y-239945000D01*
X92137715Y-239945000D01*
X92878628Y-239797623D01*
X93576554Y-239508533D01*
X94204670Y-239088839D01*
X94738839Y-238554670D01*
X95158533Y-237926554D01*
X95447623Y-237228628D01*
X95595000Y-236487715D01*
X95595000Y-235742285D01*
X167935000Y-235742285D01*
X167935000Y-236497715D01*
X168082377Y-237238628D01*
X168371467Y-237936554D01*
X168791161Y-238564670D01*
X169325330Y-239098839D01*
X169953446Y-239518533D01*
X170651372Y-239807623D01*
X171392285Y-239955000D01*
X172147715Y-239955000D01*
X172888628Y-239807623D01*
X173586554Y-239518533D01*
X174214670Y-239098839D01*
X174748839Y-238564670D01*
X175168533Y-237936554D01*
X175457623Y-237238628D01*
X175605000Y-236497715D01*
X175605000Y-235752285D01*
X268915000Y-235752285D01*
X268915000Y-236507715D01*
X269062377Y-237248628D01*
X269351467Y-237946554D01*
X269771161Y-238574670D01*
X270305330Y-239108839D01*
X270933446Y-239528533D01*
X271631372Y-239817623D01*
X272372285Y-239965000D01*
X273127715Y-239965000D01*
X273868628Y-239817623D01*
X274566554Y-239528533D01*
X275194670Y-239108839D01*
X275728839Y-238574670D01*
X276148533Y-237946554D01*
X276437623Y-237248628D01*
X276585000Y-236507715D01*
X276585000Y-235752285D01*
X276581022Y-235732285D01*
X348905000Y-235732285D01*
X348905000Y-236487715D01*
X349052377Y-237228628D01*
X349341467Y-237926554D01*
X349761161Y-238554670D01*
X350295330Y-239088839D01*
X350923446Y-239508533D01*
X351621372Y-239797623D01*
X352362285Y-239945000D01*
X353117715Y-239945000D01*
X353858628Y-239797623D01*
X354556554Y-239508533D01*
X355184670Y-239088839D01*
X355718839Y-238554670D01*
X356138533Y-237926554D01*
X356427623Y-237228628D01*
X356575000Y-236487715D01*
X356575000Y-235732285D01*
X356427623Y-234991372D01*
X356138533Y-234293446D01*
X355718839Y-233665330D01*
X355184670Y-233131161D01*
X354556554Y-232711467D01*
X353858628Y-232422377D01*
X353117715Y-232275000D01*
X352362285Y-232275000D01*
X351621372Y-232422377D01*
X350923446Y-232711467D01*
X350295330Y-233131161D01*
X349761161Y-233665330D01*
X349341467Y-234293446D01*
X349052377Y-234991372D01*
X348905000Y-235732285D01*
X276581022Y-235732285D01*
X276437623Y-235011372D01*
X276148533Y-234313446D01*
X275728839Y-233685330D01*
X275194670Y-233151161D01*
X274566554Y-232731467D01*
X273868628Y-232442377D01*
X273127715Y-232295000D01*
X272372285Y-232295000D01*
X271631372Y-232442377D01*
X270933446Y-232731467D01*
X270305330Y-233151161D01*
X269771161Y-233685330D01*
X269351467Y-234313446D01*
X269062377Y-235011372D01*
X268915000Y-235752285D01*
X175605000Y-235752285D01*
X175605000Y-235742285D01*
X175457623Y-235001372D01*
X175168533Y-234303446D01*
X174748839Y-233675330D01*
X174214670Y-233141161D01*
X173586554Y-232721467D01*
X172888628Y-232432377D01*
X172147715Y-232285000D01*
X171392285Y-232285000D01*
X170651372Y-232432377D01*
X169953446Y-232721467D01*
X169325330Y-233141161D01*
X168791161Y-233675330D01*
X168371467Y-234303446D01*
X168082377Y-235001372D01*
X167935000Y-235742285D01*
X95595000Y-235742285D01*
X95595000Y-235732285D01*
X95447623Y-234991372D01*
X95158533Y-234293446D01*
X94738839Y-233665330D01*
X94204670Y-233131161D01*
X93576554Y-232711467D01*
X92878628Y-232422377D01*
X92137715Y-232275000D01*
X91382285Y-232275000D01*
X90641372Y-232422377D01*
X89943446Y-232711467D01*
X89315330Y-233131161D01*
X88781161Y-233665330D01*
X88361467Y-234293446D01*
X88072377Y-234991372D01*
X87925000Y-235732285D01*
X71971266Y-235732285D01*
X71192349Y-234677717D01*
X70494349Y-233476022D01*
X69932433Y-232204992D01*
X69513382Y-230879965D01*
X69242265Y-229516968D01*
X69121104Y-228118028D01*
X69115000Y-227729498D01*
X69115000Y-107899200D01*
X69192476Y-106491394D01*
X69420647Y-105120554D01*
X69797870Y-103783021D01*
X70319585Y-102494967D01*
X70979496Y-101271936D01*
X71769633Y-100128703D01*
X72660313Y-99102285D01*
X87915000Y-99102285D01*
X87915000Y-99857715D01*
X88062377Y-100598628D01*
X88351467Y-101296554D01*
X88771161Y-101924670D01*
X89305330Y-102458839D01*
X89933446Y-102878533D01*
X90631372Y-103167623D01*
X91372285Y-103315000D01*
X92127715Y-103315000D01*
X92868628Y-103167623D01*
X93566554Y-102878533D01*
X94194670Y-102458839D01*
X94728839Y-101924670D01*
X95148533Y-101296554D01*
X95437623Y-100598628D01*
X95585000Y-99857715D01*
X95585000Y-99102285D01*
X167925000Y-99102285D01*
X167925000Y-99857715D01*
X168072377Y-100598628D01*
X168361467Y-101296554D01*
X168781161Y-101924670D01*
X169315330Y-102458839D01*
X169943446Y-102878533D01*
X170641372Y-103167623D01*
X171382285Y-103315000D01*
X172137715Y-103315000D01*
X172878628Y-103167623D01*
X173576554Y-102878533D01*
X174204670Y-102458839D01*
X174738839Y-101924670D01*
X175158533Y-101296554D01*
X175447623Y-100598628D01*
X175595000Y-99857715D01*
X175595000Y-99122285D01*
X268915000Y-99122285D01*
X268915000Y-99877715D01*
X269062377Y-100618628D01*
X269351467Y-101316554D01*
X269771161Y-101944670D01*
X270305330Y-102478839D01*
X270933446Y-102898533D01*
X271631372Y-103187623D01*
X272372285Y-103335000D01*
X273127715Y-103335000D01*
X273868628Y-103187623D01*
X274566554Y-102898533D01*
X275194670Y-102478839D01*
X275728839Y-101944670D01*
X276148533Y-101316554D01*
X276437623Y-100618628D01*
X276585000Y-99877715D01*
X276585000Y-99122285D01*
X276437623Y-98381372D01*
X276148533Y-97683446D01*
X275728839Y-97055330D01*
X275194670Y-96521161D01*
X274566554Y-96101467D01*
X273868628Y-95812377D01*
X273127715Y-95665000D01*
X272372285Y-95665000D01*
X271631372Y-95812377D01*
X270933446Y-96101467D01*
X270305330Y-96521161D01*
X269771161Y-97055330D01*
X269351467Y-97683446D01*
X269062377Y-98381372D01*
X268915000Y-99122285D01*
X175595000Y-99122285D01*
X175595000Y-99102285D01*
X175447623Y-98361372D01*
X175158533Y-97663446D01*
X174738839Y-97035330D01*
X174204670Y-96501161D01*
X173576554Y-96081467D01*
X172878628Y-95792377D01*
X172137715Y-95645000D01*
X171382285Y-95645000D01*
X170641372Y-95792377D01*
X169943446Y-96081467D01*
X169315330Y-96501161D01*
X168781161Y-97035330D01*
X168361467Y-97663446D01*
X168072377Y-98361372D01*
X167925000Y-99102285D01*
X95585000Y-99102285D01*
X95437623Y-98361372D01*
X95148533Y-97663446D01*
X94728839Y-97035330D01*
X94194670Y-96501161D01*
X93566554Y-96081467D01*
X92868628Y-95792377D01*
X92127715Y-95645000D01*
X91372285Y-95645000D01*
X90631372Y-95792377D01*
X89933446Y-96081467D01*
X89305330Y-96501161D01*
X88771161Y-97035330D01*
X88351467Y-97663446D01*
X88062377Y-98361372D01*
X87915000Y-99102285D01*
X72660313Y-99102285D01*
X72680445Y-99079085D01*
X73700933Y-98135756D01*
X74818783Y-97310099D01*
X76020478Y-96612099D01*
X77291505Y-96050184D01*
X78616536Y-95631132D01*
X79979530Y-95360015D01*
X81378474Y-95238854D01*
X81767002Y-95232750D01*
X82563052Y-95232750D01*
X328513017Y-95254996D01*
G36*
X342790313Y-95278036D02*
G01*
X343026863Y-95349455D01*
X343245034Y-95465458D01*
X343436520Y-95621631D01*
X343594023Y-95812019D01*
X343711550Y-96029380D01*
X343784616Y-96265416D01*
X343789254Y-96309545D01*
X343777357Y-96321442D01*
X343664778Y-96489928D01*
X343587233Y-96677139D01*
X343547700Y-96875882D01*
X343547700Y-97078518D01*
X343587233Y-97277261D01*
X343664778Y-97464472D01*
X343763487Y-97612200D01*
X343664778Y-97759928D01*
X343587233Y-97947139D01*
X343547700Y-98145882D01*
X343547700Y-98348518D01*
X343587233Y-98547261D01*
X343664778Y-98734472D01*
X343763487Y-98882200D01*
X343664778Y-99029928D01*
X343587233Y-99217139D01*
X343547700Y-99415882D01*
X343547700Y-99618518D01*
X343587233Y-99817261D01*
X343664778Y-100004472D01*
X343763487Y-100152200D01*
X343664778Y-100299928D01*
X343587233Y-100487139D01*
X343547700Y-100685882D01*
X343547700Y-100888518D01*
X343587233Y-101087261D01*
X343664778Y-101274472D01*
X343763487Y-101422200D01*
X343664778Y-101569928D01*
X343587233Y-101757139D01*
X343547700Y-101955882D01*
X343547700Y-102158518D01*
X343587233Y-102357261D01*
X343664778Y-102544472D01*
X343777357Y-102712958D01*
X343786098Y-102721699D01*
X343781851Y-102765020D01*
X343710691Y-103000711D01*
X343595111Y-103218087D01*
X343439504Y-103408878D01*
X343249808Y-103565810D01*
X343033243Y-103682905D01*
X342798056Y-103755708D01*
X342519372Y-103784999D01*
X332584947Y-103784999D01*
X332303979Y-103757450D01*
X332068288Y-103686290D01*
X331850912Y-103570710D01*
X331660121Y-103415103D01*
X331503189Y-103225407D01*
X331386094Y-103008842D01*
X331320726Y-102797675D01*
X331354643Y-102763758D01*
X331467222Y-102595272D01*
X331544767Y-102408061D01*
X331584300Y-102209318D01*
X331584300Y-102006682D01*
X331544767Y-101807939D01*
X331467222Y-101620728D01*
X331368513Y-101473000D01*
X331467222Y-101325272D01*
X331544767Y-101138061D01*
X331584300Y-100939318D01*
X331584300Y-100736682D01*
X331544767Y-100537939D01*
X331467222Y-100350728D01*
X331368513Y-100203000D01*
X331467222Y-100055272D01*
X331544767Y-99868061D01*
X331584300Y-99669318D01*
X331584300Y-99466682D01*
X331544767Y-99267939D01*
X331467222Y-99080728D01*
X331368513Y-98933000D01*
X331467222Y-98785272D01*
X331544767Y-98598061D01*
X331584300Y-98399318D01*
X331584300Y-98196682D01*
X331544767Y-97997939D01*
X331467222Y-97810728D01*
X331368513Y-97663000D01*
X331467222Y-97515272D01*
X331544767Y-97328061D01*
X331584300Y-97129318D01*
X331584300Y-96926682D01*
X331544767Y-96727939D01*
X331467222Y-96540728D01*
X331354643Y-96372242D01*
X331306712Y-96324311D01*
X331311549Y-96274979D01*
X331382708Y-96039288D01*
X331498291Y-95821911D01*
X331653895Y-95631121D01*
X331843593Y-95474189D01*
X332060157Y-95357094D01*
X332295344Y-95284291D01*
X332574028Y-95255000D01*
X342555369Y-95255000D01*
X342790313Y-95278036D01*
G37*
X342790313Y-95278036D02*
X343026863Y-95349455D01*
X343245034Y-95465458D01*
X343436520Y-95621631D01*
X343594023Y-95812019D01*
X343711550Y-96029380D01*
X343784616Y-96265416D01*
X343789254Y-96309545D01*
X343777357Y-96321442D01*
X343664778Y-96489928D01*
X343587233Y-96677139D01*
X343547700Y-96875882D01*
X343547700Y-97078518D01*
X343587233Y-97277261D01*
X343664778Y-97464472D01*
X343763487Y-97612200D01*
X343664778Y-97759928D01*
X343587233Y-97947139D01*
X343547700Y-98145882D01*
X343547700Y-98348518D01*
X343587233Y-98547261D01*
X343664778Y-98734472D01*
X343763487Y-98882200D01*
X343664778Y-99029928D01*
X343587233Y-99217139D01*
X343547700Y-99415882D01*
X343547700Y-99618518D01*
X343587233Y-99817261D01*
X343664778Y-100004472D01*
X343763487Y-100152200D01*
X343664778Y-100299928D01*
X343587233Y-100487139D01*
X343547700Y-100685882D01*
X343547700Y-100888518D01*
X343587233Y-101087261D01*
X343664778Y-101274472D01*
X343763487Y-101422200D01*
X343664778Y-101569928D01*
X343587233Y-101757139D01*
X343547700Y-101955882D01*
X343547700Y-102158518D01*
X343587233Y-102357261D01*
X343664778Y-102544472D01*
X343777357Y-102712958D01*
X343786098Y-102721699D01*
X343781851Y-102765020D01*
X343710691Y-103000711D01*
X343595111Y-103218087D01*
X343439504Y-103408878D01*
X343249808Y-103565810D01*
X343033243Y-103682905D01*
X342798056Y-103755708D01*
X342519372Y-103784999D01*
X332584947Y-103784999D01*
X332303979Y-103757450D01*
X332068288Y-103686290D01*
X331850912Y-103570710D01*
X331660121Y-103415103D01*
X331503189Y-103225407D01*
X331386094Y-103008842D01*
X331320726Y-102797675D01*
X331354643Y-102763758D01*
X331467222Y-102595272D01*
X331544767Y-102408061D01*
X331584300Y-102209318D01*
X331584300Y-102006682D01*
X331544767Y-101807939D01*
X331467222Y-101620728D01*
X331368513Y-101473000D01*
X331467222Y-101325272D01*
X331544767Y-101138061D01*
X331584300Y-100939318D01*
X331584300Y-100736682D01*
X331544767Y-100537939D01*
X331467222Y-100350728D01*
X331368513Y-100203000D01*
X331467222Y-100055272D01*
X331544767Y-99868061D01*
X331584300Y-99669318D01*
X331584300Y-99466682D01*
X331544767Y-99267939D01*
X331467222Y-99080728D01*
X331368513Y-98933000D01*
X331467222Y-98785272D01*
X331544767Y-98598061D01*
X331584300Y-98399318D01*
X331584300Y-98196682D01*
X331544767Y-97997939D01*
X331467222Y-97810728D01*
X331368513Y-97663000D01*
X331467222Y-97515272D01*
X331544767Y-97328061D01*
X331584300Y-97129318D01*
X331584300Y-96926682D01*
X331544767Y-96727939D01*
X331467222Y-96540728D01*
X331354643Y-96372242D01*
X331306712Y-96324311D01*
X331311549Y-96274979D01*
X331382708Y-96039288D01*
X331498291Y-95821911D01*
X331653895Y-95631121D01*
X331843593Y-95474189D01*
X332060157Y-95357094D01*
X332295344Y-95284291D01*
X332574028Y-95255000D01*
X342555369Y-95255000D01*
X342790313Y-95278036D01*
M02*
