G04 #@! TF.GenerationSoftware,KiCad,Pcbnew,5.1.6*
G04 #@! TF.CreationDate,2020-06-16T15:44:28+02:00*
G04 #@! TF.ProjectId,punk75_inner,70756e6b-3735-45f6-996e-6e65722e6b69,rev?*
G04 #@! TF.SameCoordinates,Original*
G04 #@! TF.FileFunction,Legend,Top*
G04 #@! TF.FilePolarity,Positive*
%FSLAX46Y46*%
G04 Gerber Fmt 4.6, Leading zero omitted, Abs format (unit mm)*
G04 Created by KiCad (PCBNEW 5.1.6) date 2020-06-16 15:44:28*
%MOMM*%
%LPD*%
G01*
G04 APERTURE LIST*
%ADD10C,0.150000*%
G04 APERTURE END LIST*
D10*
X351940476Y-104152380D02*
X351940476Y-103152380D01*
X352273809Y-103866666D01*
X352607142Y-103152380D01*
X352607142Y-104152380D01*
X352988095Y-103152380D02*
X353607142Y-103152380D01*
X353273809Y-103533333D01*
X353416666Y-103533333D01*
X353511904Y-103580952D01*
X353559523Y-103628571D01*
X353607142Y-103723809D01*
X353607142Y-103961904D01*
X353559523Y-104057142D01*
X353511904Y-104104761D01*
X353416666Y-104152380D01*
X353130952Y-104152380D01*
X353035714Y-104104761D01*
X352988095Y-104057142D01*
X271940476Y-104152380D02*
X271940476Y-103152380D01*
X272273809Y-103866666D01*
X272607142Y-103152380D01*
X272607142Y-104152380D01*
X272988095Y-103152380D02*
X273607142Y-103152380D01*
X273273809Y-103533333D01*
X273416666Y-103533333D01*
X273511904Y-103580952D01*
X273559523Y-103628571D01*
X273607142Y-103723809D01*
X273607142Y-103961904D01*
X273559523Y-104057142D01*
X273511904Y-104104761D01*
X273416666Y-104152380D01*
X273130952Y-104152380D01*
X273035714Y-104104761D01*
X272988095Y-104057142D01*
X170950476Y-104132380D02*
X170950476Y-103132380D01*
X171283809Y-103846666D01*
X171617142Y-103132380D01*
X171617142Y-104132380D01*
X171998095Y-103132380D02*
X172617142Y-103132380D01*
X172283809Y-103513333D01*
X172426666Y-103513333D01*
X172521904Y-103560952D01*
X172569523Y-103608571D01*
X172617142Y-103703809D01*
X172617142Y-103941904D01*
X172569523Y-104037142D01*
X172521904Y-104084761D01*
X172426666Y-104132380D01*
X172140952Y-104132380D01*
X172045714Y-104084761D01*
X171998095Y-104037142D01*
X90940476Y-104132380D02*
X90940476Y-103132380D01*
X91273809Y-103846666D01*
X91607142Y-103132380D01*
X91607142Y-104132380D01*
X91988095Y-103132380D02*
X92607142Y-103132380D01*
X92273809Y-103513333D01*
X92416666Y-103513333D01*
X92511904Y-103560952D01*
X92559523Y-103608571D01*
X92607142Y-103703809D01*
X92607142Y-103941904D01*
X92559523Y-104037142D01*
X92511904Y-104084761D01*
X92416666Y-104132380D01*
X92130952Y-104132380D01*
X92035714Y-104084761D01*
X91988095Y-104037142D01*
X271890476Y-232342380D02*
X271890476Y-231342380D01*
X272223809Y-232056666D01*
X272557142Y-231342380D01*
X272557142Y-232342380D01*
X272938095Y-231342380D02*
X273557142Y-231342380D01*
X273223809Y-231723333D01*
X273366666Y-231723333D01*
X273461904Y-231770952D01*
X273509523Y-231818571D01*
X273557142Y-231913809D01*
X273557142Y-232151904D01*
X273509523Y-232247142D01*
X273461904Y-232294761D01*
X273366666Y-232342380D01*
X273080952Y-232342380D01*
X272985714Y-232294761D01*
X272938095Y-232247142D01*
X170880476Y-232382380D02*
X170880476Y-231382380D01*
X171213809Y-232096666D01*
X171547142Y-231382380D01*
X171547142Y-232382380D01*
X171928095Y-231382380D02*
X172547142Y-231382380D01*
X172213809Y-231763333D01*
X172356666Y-231763333D01*
X172451904Y-231810952D01*
X172499523Y-231858571D01*
X172547142Y-231953809D01*
X172547142Y-232191904D01*
X172499523Y-232287142D01*
X172451904Y-232334761D01*
X172356666Y-232382380D01*
X172070952Y-232382380D01*
X171975714Y-232334761D01*
X171928095Y-232287142D01*
X90960476Y-232372380D02*
X90960476Y-231372380D01*
X91293809Y-232086666D01*
X91627142Y-231372380D01*
X91627142Y-232372380D01*
X92008095Y-231372380D02*
X92627142Y-231372380D01*
X92293809Y-231753333D01*
X92436666Y-231753333D01*
X92531904Y-231800952D01*
X92579523Y-231848571D01*
X92627142Y-231943809D01*
X92627142Y-232181904D01*
X92579523Y-232277142D01*
X92531904Y-232324761D01*
X92436666Y-232372380D01*
X92150952Y-232372380D01*
X92055714Y-232324761D01*
X92008095Y-232277142D01*
X351820476Y-232382380D02*
X351820476Y-231382380D01*
X352153809Y-232096666D01*
X352487142Y-231382380D01*
X352487142Y-232382380D01*
X352868095Y-231382380D02*
X353487142Y-231382380D01*
X353153809Y-231763333D01*
X353296666Y-231763333D01*
X353391904Y-231810952D01*
X353439523Y-231858571D01*
X353487142Y-231953809D01*
X353487142Y-232191904D01*
X353439523Y-232287142D01*
X353391904Y-232334761D01*
X353296666Y-232382380D01*
X353010952Y-232382380D01*
X352915714Y-232334761D01*
X352868095Y-232287142D01*
M02*
