G04 #@! TF.GenerationSoftware,KiCad,Pcbnew,5.1.6*
G04 #@! TF.CreationDate,2020-06-18T09:03:02+02:00*
G04 #@! TF.ProjectId,punk75_bottom,70756e6b-3735-45f6-926f-74746f6d2e6b,rev?*
G04 #@! TF.SameCoordinates,Original*
G04 #@! TF.FileFunction,Legend,Top*
G04 #@! TF.FilePolarity,Positive*
%FSLAX46Y46*%
G04 Gerber Fmt 4.6, Leading zero omitted, Abs format (unit mm)*
G04 Created by KiCad (PCBNEW 5.1.6) date 2020-06-18 09:03:02*
%MOMM*%
%LPD*%
G01*
G04 APERTURE LIST*
%ADD10C,0.150000*%
G04 APERTURE END LIST*
D10*
X98280952Y-237892380D02*
X98280952Y-238606666D01*
X98233333Y-238749523D01*
X98138095Y-238844761D01*
X97995238Y-238892380D01*
X97900000Y-238892380D01*
X99233333Y-238892380D02*
X98757142Y-238892380D01*
X98757142Y-237892380D01*
X100138095Y-238797142D02*
X100090476Y-238844761D01*
X99947619Y-238892380D01*
X99852380Y-238892380D01*
X99709523Y-238844761D01*
X99614285Y-238749523D01*
X99566666Y-238654285D01*
X99519047Y-238463809D01*
X99519047Y-238320952D01*
X99566666Y-238130476D01*
X99614285Y-238035238D01*
X99709523Y-237940000D01*
X99852380Y-237892380D01*
X99947619Y-237892380D01*
X100090476Y-237940000D01*
X100138095Y-237987619D01*
X100852380Y-237892380D02*
X100852380Y-238606666D01*
X100804761Y-238749523D01*
X100709523Y-238844761D01*
X100566666Y-238892380D01*
X100471428Y-238892380D01*
X101804761Y-238892380D02*
X101328571Y-238892380D01*
X101328571Y-237892380D01*
X102709523Y-238797142D02*
X102661904Y-238844761D01*
X102519047Y-238892380D01*
X102423809Y-238892380D01*
X102280952Y-238844761D01*
X102185714Y-238749523D01*
X102138095Y-238654285D01*
X102090476Y-238463809D01*
X102090476Y-238320952D01*
X102138095Y-238130476D01*
X102185714Y-238035238D01*
X102280952Y-237940000D01*
X102423809Y-237892380D01*
X102519047Y-237892380D01*
X102661904Y-237940000D01*
X102709523Y-237987619D01*
X103423809Y-237892380D02*
X103423809Y-238606666D01*
X103376190Y-238749523D01*
X103280952Y-238844761D01*
X103138095Y-238892380D01*
X103042857Y-238892380D01*
X104376190Y-238892380D02*
X103900000Y-238892380D01*
X103900000Y-237892380D01*
X105280952Y-238797142D02*
X105233333Y-238844761D01*
X105090476Y-238892380D01*
X104995238Y-238892380D01*
X104852380Y-238844761D01*
X104757142Y-238749523D01*
X104709523Y-238654285D01*
X104661904Y-238463809D01*
X104661904Y-238320952D01*
X104709523Y-238130476D01*
X104757142Y-238035238D01*
X104852380Y-237940000D01*
X104995238Y-237892380D01*
X105090476Y-237892380D01*
X105233333Y-237940000D01*
X105280952Y-237987619D01*
X105995238Y-237892380D02*
X105995238Y-238606666D01*
X105947619Y-238749523D01*
X105852380Y-238844761D01*
X105709523Y-238892380D01*
X105614285Y-238892380D01*
X106947619Y-238892380D02*
X106471428Y-238892380D01*
X106471428Y-237892380D01*
X107852380Y-238797142D02*
X107804761Y-238844761D01*
X107661904Y-238892380D01*
X107566666Y-238892380D01*
X107423809Y-238844761D01*
X107328571Y-238749523D01*
X107280952Y-238654285D01*
X107233333Y-238463809D01*
X107233333Y-238320952D01*
X107280952Y-238130476D01*
X107328571Y-238035238D01*
X107423809Y-237940000D01*
X107566666Y-237892380D01*
X107661904Y-237892380D01*
X107804761Y-237940000D01*
X107852380Y-237987619D01*
X287870476Y-227731428D02*
X287870476Y-229350476D01*
X287775238Y-229540952D01*
X287680000Y-229636190D01*
X287489523Y-229731428D01*
X287203809Y-229731428D01*
X287013333Y-229636190D01*
X287870476Y-228969523D02*
X287680000Y-229064761D01*
X287299047Y-229064761D01*
X287108571Y-228969523D01*
X287013333Y-228874285D01*
X286918095Y-228683809D01*
X286918095Y-228112380D01*
X287013333Y-227921904D01*
X287108571Y-227826666D01*
X287299047Y-227731428D01*
X287680000Y-227731428D01*
X287870476Y-227826666D01*
X288822857Y-229064761D02*
X288822857Y-227731428D01*
X288822857Y-227064761D02*
X288727619Y-227160000D01*
X288822857Y-227255238D01*
X288918095Y-227160000D01*
X288822857Y-227064761D01*
X288822857Y-227255238D01*
X289489523Y-227731428D02*
X290251428Y-227731428D01*
X289775238Y-227064761D02*
X289775238Y-228779047D01*
X289870476Y-228969523D01*
X290060952Y-229064761D01*
X290251428Y-229064761D01*
X290918095Y-229064761D02*
X290918095Y-227064761D01*
X291775238Y-229064761D02*
X291775238Y-228017142D01*
X291680000Y-227826666D01*
X291489523Y-227731428D01*
X291203809Y-227731428D01*
X291013333Y-227826666D01*
X290918095Y-227921904D01*
X293584761Y-227731428D02*
X293584761Y-229064761D01*
X292727619Y-227731428D02*
X292727619Y-228779047D01*
X292822857Y-228969523D01*
X293013333Y-229064761D01*
X293299047Y-229064761D01*
X293489523Y-228969523D01*
X293584761Y-228874285D01*
X294537142Y-229064761D02*
X294537142Y-227064761D01*
X294537142Y-227826666D02*
X294727619Y-227731428D01*
X295108571Y-227731428D01*
X295299047Y-227826666D01*
X295394285Y-227921904D01*
X295489523Y-228112380D01*
X295489523Y-228683809D01*
X295394285Y-228874285D01*
X295299047Y-228969523D01*
X295108571Y-229064761D01*
X294727619Y-229064761D01*
X294537142Y-228969523D01*
X296346666Y-228874285D02*
X296441904Y-228969523D01*
X296346666Y-229064761D01*
X296251428Y-228969523D01*
X296346666Y-228874285D01*
X296346666Y-229064761D01*
X298156190Y-228969523D02*
X297965714Y-229064761D01*
X297584761Y-229064761D01*
X297394285Y-228969523D01*
X297299047Y-228874285D01*
X297203809Y-228683809D01*
X297203809Y-228112380D01*
X297299047Y-227921904D01*
X297394285Y-227826666D01*
X297584761Y-227731428D01*
X297965714Y-227731428D01*
X298156190Y-227826666D01*
X299299047Y-229064761D02*
X299108571Y-228969523D01*
X299013333Y-228874285D01*
X298918095Y-228683809D01*
X298918095Y-228112380D01*
X299013333Y-227921904D01*
X299108571Y-227826666D01*
X299299047Y-227731428D01*
X299584761Y-227731428D01*
X299775238Y-227826666D01*
X299870476Y-227921904D01*
X299965714Y-228112380D01*
X299965714Y-228683809D01*
X299870476Y-228874285D01*
X299775238Y-228969523D01*
X299584761Y-229064761D01*
X299299047Y-229064761D01*
X300822857Y-229064761D02*
X300822857Y-227731428D01*
X300822857Y-227921904D02*
X300918095Y-227826666D01*
X301108571Y-227731428D01*
X301394285Y-227731428D01*
X301584761Y-227826666D01*
X301680000Y-228017142D01*
X301680000Y-229064761D01*
X301680000Y-228017142D02*
X301775238Y-227826666D01*
X301965714Y-227731428D01*
X302251428Y-227731428D01*
X302441904Y-227826666D01*
X302537142Y-228017142D01*
X302537142Y-229064761D01*
X304918095Y-226969523D02*
X303203809Y-229540952D01*
X306441904Y-229064761D02*
X306441904Y-227064761D01*
X306441904Y-228969523D02*
X306251428Y-229064761D01*
X305870476Y-229064761D01*
X305680000Y-228969523D01*
X305584761Y-228874285D01*
X305489523Y-228683809D01*
X305489523Y-228112380D01*
X305584761Y-227921904D01*
X305680000Y-227826666D01*
X305870476Y-227731428D01*
X306251428Y-227731428D01*
X306441904Y-227826666D01*
X307299047Y-228969523D02*
X307489523Y-229064761D01*
X307870476Y-229064761D01*
X308060952Y-228969523D01*
X308156190Y-228779047D01*
X308156190Y-228683809D01*
X308060952Y-228493333D01*
X307870476Y-228398095D01*
X307584761Y-228398095D01*
X307394285Y-228302857D01*
X307299047Y-228112380D01*
X307299047Y-228017142D01*
X307394285Y-227826666D01*
X307584761Y-227731428D01*
X307870476Y-227731428D01*
X308060952Y-227826666D01*
X309870476Y-229064761D02*
X309870476Y-228017142D01*
X309775238Y-227826666D01*
X309584761Y-227731428D01*
X309203809Y-227731428D01*
X309013333Y-227826666D01*
X309870476Y-228969523D02*
X309680000Y-229064761D01*
X309203809Y-229064761D01*
X309013333Y-228969523D01*
X308918095Y-228779047D01*
X308918095Y-228588571D01*
X309013333Y-228398095D01*
X309203809Y-228302857D01*
X309680000Y-228302857D01*
X309870476Y-228207619D01*
X310822857Y-227731428D02*
X310822857Y-229064761D01*
X310822857Y-227921904D02*
X310918095Y-227826666D01*
X311108571Y-227731428D01*
X311394285Y-227731428D01*
X311584761Y-227826666D01*
X311680000Y-228017142D01*
X311680000Y-229064761D01*
X313489523Y-228969523D02*
X313299047Y-229064761D01*
X312918095Y-229064761D01*
X312727619Y-228969523D01*
X312632380Y-228874285D01*
X312537142Y-228683809D01*
X312537142Y-228112380D01*
X312632380Y-227921904D01*
X312727619Y-227826666D01*
X312918095Y-227731428D01*
X313299047Y-227731428D01*
X313489523Y-227826666D01*
X314346666Y-229064761D02*
X314346666Y-227064761D01*
X315203809Y-229064761D02*
X315203809Y-228017142D01*
X315108571Y-227826666D01*
X314918095Y-227731428D01*
X314632380Y-227731428D01*
X314441904Y-227826666D01*
X314346666Y-227921904D01*
X316918095Y-228969523D02*
X316727619Y-229064761D01*
X316346666Y-229064761D01*
X316156190Y-228969523D01*
X316060952Y-228779047D01*
X316060952Y-228017142D01*
X316156190Y-227826666D01*
X316346666Y-227731428D01*
X316727619Y-227731428D01*
X316918095Y-227826666D01*
X317013333Y-228017142D01*
X317013333Y-228207619D01*
X316060952Y-228398095D01*
X317680000Y-227731428D02*
X318727619Y-227731428D01*
X317680000Y-229064761D01*
X318727619Y-229064761D01*
X319394285Y-228969523D02*
X319584761Y-229064761D01*
X319965714Y-229064761D01*
X320156190Y-228969523D01*
X320251428Y-228779047D01*
X320251428Y-228683809D01*
X320156190Y-228493333D01*
X319965714Y-228398095D01*
X319680000Y-228398095D01*
X319489523Y-228302857D01*
X319394285Y-228112380D01*
X319394285Y-228017142D01*
X319489523Y-227826666D01*
X319680000Y-227731428D01*
X319965714Y-227731428D01*
X320156190Y-227826666D01*
X321870476Y-228969523D02*
X321680000Y-229064761D01*
X321299047Y-229064761D01*
X321108571Y-228969523D01*
X321013333Y-228779047D01*
X321013333Y-228017142D01*
X321108571Y-227826666D01*
X321299047Y-227731428D01*
X321680000Y-227731428D01*
X321870476Y-227826666D01*
X321965714Y-228017142D01*
X321965714Y-228207619D01*
X321013333Y-228398095D01*
X323680000Y-228969523D02*
X323489523Y-229064761D01*
X323108571Y-229064761D01*
X322918095Y-228969523D01*
X322822857Y-228874285D01*
X322727619Y-228683809D01*
X322727619Y-228112380D01*
X322822857Y-227921904D01*
X322918095Y-227826666D01*
X323108571Y-227731428D01*
X323489523Y-227731428D01*
X323680000Y-227826666D01*
X324822857Y-229064761D02*
X324632380Y-228969523D01*
X324537142Y-228874285D01*
X324441904Y-228683809D01*
X324441904Y-228112380D01*
X324537142Y-227921904D01*
X324632380Y-227826666D01*
X324822857Y-227731428D01*
X325108571Y-227731428D01*
X325299047Y-227826666D01*
X325394285Y-227921904D01*
X325489523Y-228112380D01*
X325489523Y-228683809D01*
X325394285Y-228874285D01*
X325299047Y-228969523D01*
X325108571Y-229064761D01*
X324822857Y-229064761D01*
X327775238Y-226969523D02*
X326060952Y-229540952D01*
X328441904Y-227731428D02*
X328441904Y-229731428D01*
X328441904Y-227826666D02*
X328632380Y-227731428D01*
X329013333Y-227731428D01*
X329203809Y-227826666D01*
X329299047Y-227921904D01*
X329394285Y-228112380D01*
X329394285Y-228683809D01*
X329299047Y-228874285D01*
X329203809Y-228969523D01*
X329013333Y-229064761D01*
X328632380Y-229064761D01*
X328441904Y-228969523D01*
X331108571Y-227731428D02*
X331108571Y-229064761D01*
X330251428Y-227731428D02*
X330251428Y-228779047D01*
X330346666Y-228969523D01*
X330537142Y-229064761D01*
X330822857Y-229064761D01*
X331013333Y-228969523D01*
X331108571Y-228874285D01*
X332060952Y-227731428D02*
X332060952Y-229064761D01*
X332060952Y-227921904D02*
X332156190Y-227826666D01*
X332346666Y-227731428D01*
X332632380Y-227731428D01*
X332822857Y-227826666D01*
X332918095Y-228017142D01*
X332918095Y-229064761D01*
X333870476Y-229064761D02*
X333870476Y-227064761D01*
X334060952Y-228302857D02*
X334632380Y-229064761D01*
X334632380Y-227731428D02*
X333870476Y-228493333D01*
X335299047Y-227064761D02*
X336632380Y-227064761D01*
X335775238Y-229064761D01*
X338346666Y-227064761D02*
X337394285Y-227064761D01*
X337299047Y-228017142D01*
X337394285Y-227921904D01*
X337584761Y-227826666D01*
X338060952Y-227826666D01*
X338251428Y-227921904D01*
X338346666Y-228017142D01*
X338441904Y-228207619D01*
X338441904Y-228683809D01*
X338346666Y-228874285D01*
X338251428Y-228969523D01*
X338060952Y-229064761D01*
X337584761Y-229064761D01*
X337394285Y-228969523D01*
X337299047Y-228874285D01*
X351940476Y-104152380D02*
X351940476Y-103152380D01*
X352273809Y-103866666D01*
X352607142Y-103152380D01*
X352607142Y-104152380D01*
X352988095Y-103152380D02*
X353607142Y-103152380D01*
X353273809Y-103533333D01*
X353416666Y-103533333D01*
X353511904Y-103580952D01*
X353559523Y-103628571D01*
X353607142Y-103723809D01*
X353607142Y-103961904D01*
X353559523Y-104057142D01*
X353511904Y-104104761D01*
X353416666Y-104152380D01*
X353130952Y-104152380D01*
X353035714Y-104104761D01*
X352988095Y-104057142D01*
X271940476Y-104152380D02*
X271940476Y-103152380D01*
X272273809Y-103866666D01*
X272607142Y-103152380D01*
X272607142Y-104152380D01*
X272988095Y-103152380D02*
X273607142Y-103152380D01*
X273273809Y-103533333D01*
X273416666Y-103533333D01*
X273511904Y-103580952D01*
X273559523Y-103628571D01*
X273607142Y-103723809D01*
X273607142Y-103961904D01*
X273559523Y-104057142D01*
X273511904Y-104104761D01*
X273416666Y-104152380D01*
X273130952Y-104152380D01*
X273035714Y-104104761D01*
X272988095Y-104057142D01*
X170950476Y-104132380D02*
X170950476Y-103132380D01*
X171283809Y-103846666D01*
X171617142Y-103132380D01*
X171617142Y-104132380D01*
X171998095Y-103132380D02*
X172617142Y-103132380D01*
X172283809Y-103513333D01*
X172426666Y-103513333D01*
X172521904Y-103560952D01*
X172569523Y-103608571D01*
X172617142Y-103703809D01*
X172617142Y-103941904D01*
X172569523Y-104037142D01*
X172521904Y-104084761D01*
X172426666Y-104132380D01*
X172140952Y-104132380D01*
X172045714Y-104084761D01*
X171998095Y-104037142D01*
X90940476Y-104132380D02*
X90940476Y-103132380D01*
X91273809Y-103846666D01*
X91607142Y-103132380D01*
X91607142Y-104132380D01*
X91988095Y-103132380D02*
X92607142Y-103132380D01*
X92273809Y-103513333D01*
X92416666Y-103513333D01*
X92511904Y-103560952D01*
X92559523Y-103608571D01*
X92607142Y-103703809D01*
X92607142Y-103941904D01*
X92559523Y-104037142D01*
X92511904Y-104084761D01*
X92416666Y-104132380D01*
X92130952Y-104132380D01*
X92035714Y-104084761D01*
X91988095Y-104037142D01*
X271890476Y-232342380D02*
X271890476Y-231342380D01*
X272223809Y-232056666D01*
X272557142Y-231342380D01*
X272557142Y-232342380D01*
X272938095Y-231342380D02*
X273557142Y-231342380D01*
X273223809Y-231723333D01*
X273366666Y-231723333D01*
X273461904Y-231770952D01*
X273509523Y-231818571D01*
X273557142Y-231913809D01*
X273557142Y-232151904D01*
X273509523Y-232247142D01*
X273461904Y-232294761D01*
X273366666Y-232342380D01*
X273080952Y-232342380D01*
X272985714Y-232294761D01*
X272938095Y-232247142D01*
X170880476Y-232382380D02*
X170880476Y-231382380D01*
X171213809Y-232096666D01*
X171547142Y-231382380D01*
X171547142Y-232382380D01*
X171928095Y-231382380D02*
X172547142Y-231382380D01*
X172213809Y-231763333D01*
X172356666Y-231763333D01*
X172451904Y-231810952D01*
X172499523Y-231858571D01*
X172547142Y-231953809D01*
X172547142Y-232191904D01*
X172499523Y-232287142D01*
X172451904Y-232334761D01*
X172356666Y-232382380D01*
X172070952Y-232382380D01*
X171975714Y-232334761D01*
X171928095Y-232287142D01*
X90960476Y-232372380D02*
X90960476Y-231372380D01*
X91293809Y-232086666D01*
X91627142Y-231372380D01*
X91627142Y-232372380D01*
X92008095Y-231372380D02*
X92627142Y-231372380D01*
X92293809Y-231753333D01*
X92436666Y-231753333D01*
X92531904Y-231800952D01*
X92579523Y-231848571D01*
X92627142Y-231943809D01*
X92627142Y-232181904D01*
X92579523Y-232277142D01*
X92531904Y-232324761D01*
X92436666Y-232372380D01*
X92150952Y-232372380D01*
X92055714Y-232324761D01*
X92008095Y-232277142D01*
X351820476Y-232382380D02*
X351820476Y-231382380D01*
X352153809Y-232096666D01*
X352487142Y-231382380D01*
X352487142Y-232382380D01*
X352868095Y-231382380D02*
X353487142Y-231382380D01*
X353153809Y-231763333D01*
X353296666Y-231763333D01*
X353391904Y-231810952D01*
X353439523Y-231858571D01*
X353487142Y-231953809D01*
X353487142Y-232191904D01*
X353439523Y-232287142D01*
X353391904Y-232334761D01*
X353296666Y-232382380D01*
X353010952Y-232382380D01*
X352915714Y-232334761D01*
X352868095Y-232287142D01*
X306451190Y-195789880D02*
X306451190Y-194789880D01*
X306784523Y-195504166D01*
X307117857Y-194789880D01*
X307117857Y-195789880D01*
X307546428Y-194885119D02*
X307594047Y-194837500D01*
X307689285Y-194789880D01*
X307927380Y-194789880D01*
X308022619Y-194837500D01*
X308070238Y-194885119D01*
X308117857Y-194980357D01*
X308117857Y-195075595D01*
X308070238Y-195218452D01*
X307498809Y-195789880D01*
X308117857Y-195789880D01*
X308546428Y-195694642D02*
X308594047Y-195742261D01*
X308546428Y-195789880D01*
X308498809Y-195742261D01*
X308546428Y-195694642D01*
X308546428Y-195789880D01*
X309498809Y-194789880D02*
X309022619Y-194789880D01*
X308975000Y-195266071D01*
X309022619Y-195218452D01*
X309117857Y-195170833D01*
X309355952Y-195170833D01*
X309451190Y-195218452D01*
X309498809Y-195266071D01*
X309546428Y-195361309D01*
X309546428Y-195599404D01*
X309498809Y-195694642D01*
X309451190Y-195742261D01*
X309355952Y-195789880D01*
X309117857Y-195789880D01*
X309022619Y-195742261D01*
X308975000Y-195694642D01*
X135001190Y-195789880D02*
X135001190Y-194789880D01*
X135334523Y-195504166D01*
X135667857Y-194789880D01*
X135667857Y-195789880D01*
X136096428Y-194885119D02*
X136144047Y-194837500D01*
X136239285Y-194789880D01*
X136477380Y-194789880D01*
X136572619Y-194837500D01*
X136620238Y-194885119D01*
X136667857Y-194980357D01*
X136667857Y-195075595D01*
X136620238Y-195218452D01*
X136048809Y-195789880D01*
X136667857Y-195789880D01*
X137096428Y-195694642D02*
X137144047Y-195742261D01*
X137096428Y-195789880D01*
X137048809Y-195742261D01*
X137096428Y-195694642D01*
X137096428Y-195789880D01*
X138048809Y-194789880D02*
X137572619Y-194789880D01*
X137525000Y-195266071D01*
X137572619Y-195218452D01*
X137667857Y-195170833D01*
X137905952Y-195170833D01*
X138001190Y-195218452D01*
X138048809Y-195266071D01*
X138096428Y-195361309D01*
X138096428Y-195599404D01*
X138048809Y-195694642D01*
X138001190Y-195742261D01*
X137905952Y-195789880D01*
X137667857Y-195789880D01*
X137572619Y-195742261D01*
X137525000Y-195694642D01*
X359632440Y-134671130D02*
X359632440Y-133671130D01*
X359965773Y-134385416D01*
X360299107Y-133671130D01*
X360299107Y-134671130D01*
X360727678Y-133766369D02*
X360775297Y-133718750D01*
X360870535Y-133671130D01*
X361108630Y-133671130D01*
X361203869Y-133718750D01*
X361251488Y-133766369D01*
X361299107Y-133861607D01*
X361299107Y-133956845D01*
X361251488Y-134099702D01*
X360680059Y-134671130D01*
X361299107Y-134671130D01*
X361727678Y-134575892D02*
X361775297Y-134623511D01*
X361727678Y-134671130D01*
X361680059Y-134623511D01*
X361727678Y-134575892D01*
X361727678Y-134671130D01*
X362680059Y-133671130D02*
X362203869Y-133671130D01*
X362156250Y-134147321D01*
X362203869Y-134099702D01*
X362299107Y-134052083D01*
X362537202Y-134052083D01*
X362632440Y-134099702D01*
X362680059Y-134147321D01*
X362727678Y-134242559D01*
X362727678Y-134480654D01*
X362680059Y-134575892D01*
X362632440Y-134623511D01*
X362537202Y-134671130D01*
X362299107Y-134671130D01*
X362203869Y-134623511D01*
X362156250Y-134575892D01*
X359632440Y-114827380D02*
X359632440Y-113827380D01*
X359965773Y-114541666D01*
X360299107Y-113827380D01*
X360299107Y-114827380D01*
X360727678Y-113922619D02*
X360775297Y-113875000D01*
X360870535Y-113827380D01*
X361108630Y-113827380D01*
X361203869Y-113875000D01*
X361251488Y-113922619D01*
X361299107Y-114017857D01*
X361299107Y-114113095D01*
X361251488Y-114255952D01*
X360680059Y-114827380D01*
X361299107Y-114827380D01*
X361727678Y-114732142D02*
X361775297Y-114779761D01*
X361727678Y-114827380D01*
X361680059Y-114779761D01*
X361727678Y-114732142D01*
X361727678Y-114827380D01*
X362680059Y-113827380D02*
X362203869Y-113827380D01*
X362156250Y-114303571D01*
X362203869Y-114255952D01*
X362299107Y-114208333D01*
X362537202Y-114208333D01*
X362632440Y-114255952D01*
X362680059Y-114303571D01*
X362727678Y-114398809D01*
X362727678Y-114636904D01*
X362680059Y-114732142D01*
X362632440Y-114779761D01*
X362537202Y-114827380D01*
X362299107Y-114827380D01*
X362203869Y-114779761D01*
X362156250Y-114732142D01*
X81788190Y-134512380D02*
X81788190Y-133512380D01*
X82121523Y-134226666D01*
X82454857Y-133512380D01*
X82454857Y-134512380D01*
X82883428Y-133607619D02*
X82931047Y-133560000D01*
X83026285Y-133512380D01*
X83264380Y-133512380D01*
X83359619Y-133560000D01*
X83407238Y-133607619D01*
X83454857Y-133702857D01*
X83454857Y-133798095D01*
X83407238Y-133940952D01*
X82835809Y-134512380D01*
X83454857Y-134512380D01*
X83883428Y-134417142D02*
X83931047Y-134464761D01*
X83883428Y-134512380D01*
X83835809Y-134464761D01*
X83883428Y-134417142D01*
X83883428Y-134512380D01*
X84835809Y-133512380D02*
X84359619Y-133512380D01*
X84312000Y-133988571D01*
X84359619Y-133940952D01*
X84454857Y-133893333D01*
X84692952Y-133893333D01*
X84788190Y-133940952D01*
X84835809Y-133988571D01*
X84883428Y-134083809D01*
X84883428Y-134321904D01*
X84835809Y-134417142D01*
X84788190Y-134464761D01*
X84692952Y-134512380D01*
X84454857Y-134512380D01*
X84359619Y-134464761D01*
X84312000Y-134417142D01*
X81819940Y-114827380D02*
X81819940Y-113827380D01*
X82153273Y-114541666D01*
X82486607Y-113827380D01*
X82486607Y-114827380D01*
X82915178Y-113922619D02*
X82962797Y-113875000D01*
X83058035Y-113827380D01*
X83296130Y-113827380D01*
X83391369Y-113875000D01*
X83438988Y-113922619D01*
X83486607Y-114017857D01*
X83486607Y-114113095D01*
X83438988Y-114255952D01*
X82867559Y-114827380D01*
X83486607Y-114827380D01*
X83915178Y-114732142D02*
X83962797Y-114779761D01*
X83915178Y-114827380D01*
X83867559Y-114779761D01*
X83915178Y-114732142D01*
X83915178Y-114827380D01*
X84867559Y-113827380D02*
X84391369Y-113827380D01*
X84343750Y-114303571D01*
X84391369Y-114255952D01*
X84486607Y-114208333D01*
X84724702Y-114208333D01*
X84819940Y-114255952D01*
X84867559Y-114303571D01*
X84915178Y-114398809D01*
X84915178Y-114636904D01*
X84867559Y-114732142D01*
X84819940Y-114779761D01*
X84724702Y-114827380D01*
X84486607Y-114827380D01*
X84391369Y-114779761D01*
X84343750Y-114732142D01*
X230251190Y-157753380D02*
X230251190Y-156753380D01*
X230584523Y-157467666D01*
X230917857Y-156753380D01*
X230917857Y-157753380D01*
X231346428Y-156848619D02*
X231394047Y-156801000D01*
X231489285Y-156753380D01*
X231727380Y-156753380D01*
X231822619Y-156801000D01*
X231870238Y-156848619D01*
X231917857Y-156943857D01*
X231917857Y-157039095D01*
X231870238Y-157181952D01*
X231298809Y-157753380D01*
X231917857Y-157753380D01*
X232346428Y-157658142D02*
X232394047Y-157705761D01*
X232346428Y-157753380D01*
X232298809Y-157705761D01*
X232346428Y-157658142D01*
X232346428Y-157753380D01*
X233298809Y-156753380D02*
X232822619Y-156753380D01*
X232775000Y-157229571D01*
X232822619Y-157181952D01*
X232917857Y-157134333D01*
X233155952Y-157134333D01*
X233251190Y-157181952D01*
X233298809Y-157229571D01*
X233346428Y-157324809D01*
X233346428Y-157562904D01*
X233298809Y-157658142D01*
X233251190Y-157705761D01*
X233155952Y-157753380D01*
X232917857Y-157753380D01*
X232822619Y-157705761D01*
X232775000Y-157658142D01*
X325501190Y-157702380D02*
X325501190Y-156702380D01*
X325834523Y-157416666D01*
X326167857Y-156702380D01*
X326167857Y-157702380D01*
X326596428Y-156797619D02*
X326644047Y-156750000D01*
X326739285Y-156702380D01*
X326977380Y-156702380D01*
X327072619Y-156750000D01*
X327120238Y-156797619D01*
X327167857Y-156892857D01*
X327167857Y-156988095D01*
X327120238Y-157130952D01*
X326548809Y-157702380D01*
X327167857Y-157702380D01*
X327596428Y-157607142D02*
X327644047Y-157654761D01*
X327596428Y-157702380D01*
X327548809Y-157654761D01*
X327596428Y-157607142D01*
X327596428Y-157702380D01*
X328548809Y-156702380D02*
X328072619Y-156702380D01*
X328025000Y-157178571D01*
X328072619Y-157130952D01*
X328167857Y-157083333D01*
X328405952Y-157083333D01*
X328501190Y-157130952D01*
X328548809Y-157178571D01*
X328596428Y-157273809D01*
X328596428Y-157511904D01*
X328548809Y-157607142D01*
X328501190Y-157654761D01*
X328405952Y-157702380D01*
X328167857Y-157702380D01*
X328072619Y-157654761D01*
X328025000Y-157607142D01*
X344551190Y-214839880D02*
X344551190Y-213839880D01*
X344884523Y-214554166D01*
X345217857Y-213839880D01*
X345217857Y-214839880D01*
X345646428Y-213935119D02*
X345694047Y-213887500D01*
X345789285Y-213839880D01*
X346027380Y-213839880D01*
X346122619Y-213887500D01*
X346170238Y-213935119D01*
X346217857Y-214030357D01*
X346217857Y-214125595D01*
X346170238Y-214268452D01*
X345598809Y-214839880D01*
X346217857Y-214839880D01*
X346646428Y-214744642D02*
X346694047Y-214792261D01*
X346646428Y-214839880D01*
X346598809Y-214792261D01*
X346646428Y-214744642D01*
X346646428Y-214839880D01*
X347598809Y-213839880D02*
X347122619Y-213839880D01*
X347075000Y-214316071D01*
X347122619Y-214268452D01*
X347217857Y-214220833D01*
X347455952Y-214220833D01*
X347551190Y-214268452D01*
X347598809Y-214316071D01*
X347646428Y-214411309D01*
X347646428Y-214649404D01*
X347598809Y-214744642D01*
X347551190Y-214792261D01*
X347455952Y-214839880D01*
X347217857Y-214839880D01*
X347122619Y-214792261D01*
X347075000Y-214744642D01*
X211201190Y-214839880D02*
X211201190Y-213839880D01*
X211534523Y-214554166D01*
X211867857Y-213839880D01*
X211867857Y-214839880D01*
X212296428Y-213935119D02*
X212344047Y-213887500D01*
X212439285Y-213839880D01*
X212677380Y-213839880D01*
X212772619Y-213887500D01*
X212820238Y-213935119D01*
X212867857Y-214030357D01*
X212867857Y-214125595D01*
X212820238Y-214268452D01*
X212248809Y-214839880D01*
X212867857Y-214839880D01*
X213296428Y-214744642D02*
X213344047Y-214792261D01*
X213296428Y-214839880D01*
X213248809Y-214792261D01*
X213296428Y-214744642D01*
X213296428Y-214839880D01*
X214248809Y-213839880D02*
X213772619Y-213839880D01*
X213725000Y-214316071D01*
X213772619Y-214268452D01*
X213867857Y-214220833D01*
X214105952Y-214220833D01*
X214201190Y-214268452D01*
X214248809Y-214316071D01*
X214296428Y-214411309D01*
X214296428Y-214649404D01*
X214248809Y-214744642D01*
X214201190Y-214792261D01*
X214105952Y-214839880D01*
X213867857Y-214839880D01*
X213772619Y-214792261D01*
X213725000Y-214744642D01*
X173101190Y-176739880D02*
X173101190Y-175739880D01*
X173434523Y-176454166D01*
X173767857Y-175739880D01*
X173767857Y-176739880D01*
X174196428Y-175835119D02*
X174244047Y-175787500D01*
X174339285Y-175739880D01*
X174577380Y-175739880D01*
X174672619Y-175787500D01*
X174720238Y-175835119D01*
X174767857Y-175930357D01*
X174767857Y-176025595D01*
X174720238Y-176168452D01*
X174148809Y-176739880D01*
X174767857Y-176739880D01*
X175196428Y-176644642D02*
X175244047Y-176692261D01*
X175196428Y-176739880D01*
X175148809Y-176692261D01*
X175196428Y-176644642D01*
X175196428Y-176739880D01*
X176148809Y-175739880D02*
X175672619Y-175739880D01*
X175625000Y-176216071D01*
X175672619Y-176168452D01*
X175767857Y-176120833D01*
X176005952Y-176120833D01*
X176101190Y-176168452D01*
X176148809Y-176216071D01*
X176196428Y-176311309D01*
X176196428Y-176549404D01*
X176148809Y-176644642D01*
X176101190Y-176692261D01*
X176005952Y-176739880D01*
X175767857Y-176739880D01*
X175672619Y-176692261D01*
X175625000Y-176644642D01*
X268351190Y-176803380D02*
X268351190Y-175803380D01*
X268684523Y-176517666D01*
X269017857Y-175803380D01*
X269017857Y-176803380D01*
X269446428Y-175898619D02*
X269494047Y-175851000D01*
X269589285Y-175803380D01*
X269827380Y-175803380D01*
X269922619Y-175851000D01*
X269970238Y-175898619D01*
X270017857Y-175993857D01*
X270017857Y-176089095D01*
X269970238Y-176231952D01*
X269398809Y-176803380D01*
X270017857Y-176803380D01*
X270446428Y-176708142D02*
X270494047Y-176755761D01*
X270446428Y-176803380D01*
X270398809Y-176755761D01*
X270446428Y-176708142D01*
X270446428Y-176803380D01*
X271398809Y-175803380D02*
X270922619Y-175803380D01*
X270875000Y-176279571D01*
X270922619Y-176231952D01*
X271017857Y-176184333D01*
X271255952Y-176184333D01*
X271351190Y-176231952D01*
X271398809Y-176279571D01*
X271446428Y-176374809D01*
X271446428Y-176612904D01*
X271398809Y-176708142D01*
X271351190Y-176755761D01*
X271255952Y-176803380D01*
X271017857Y-176803380D01*
X270922619Y-176755761D01*
X270875000Y-176708142D01*
X96901190Y-214839880D02*
X96901190Y-213839880D01*
X97234523Y-214554166D01*
X97567857Y-213839880D01*
X97567857Y-214839880D01*
X97996428Y-213935119D02*
X98044047Y-213887500D01*
X98139285Y-213839880D01*
X98377380Y-213839880D01*
X98472619Y-213887500D01*
X98520238Y-213935119D01*
X98567857Y-214030357D01*
X98567857Y-214125595D01*
X98520238Y-214268452D01*
X97948809Y-214839880D01*
X98567857Y-214839880D01*
X98996428Y-214744642D02*
X99044047Y-214792261D01*
X98996428Y-214839880D01*
X98948809Y-214792261D01*
X98996428Y-214744642D01*
X98996428Y-214839880D01*
X99948809Y-213839880D02*
X99472619Y-213839880D01*
X99425000Y-214316071D01*
X99472619Y-214268452D01*
X99567857Y-214220833D01*
X99805952Y-214220833D01*
X99901190Y-214268452D01*
X99948809Y-214316071D01*
X99996428Y-214411309D01*
X99996428Y-214649404D01*
X99948809Y-214744642D01*
X99901190Y-214792261D01*
X99805952Y-214839880D01*
X99567857Y-214839880D01*
X99472619Y-214792261D01*
X99425000Y-214744642D01*
X115951190Y-157712380D02*
X115951190Y-156712380D01*
X116284523Y-157426666D01*
X116617857Y-156712380D01*
X116617857Y-157712380D01*
X117046428Y-156807619D02*
X117094047Y-156760000D01*
X117189285Y-156712380D01*
X117427380Y-156712380D01*
X117522619Y-156760000D01*
X117570238Y-156807619D01*
X117617857Y-156902857D01*
X117617857Y-156998095D01*
X117570238Y-157140952D01*
X116998809Y-157712380D01*
X117617857Y-157712380D01*
X118046428Y-157617142D02*
X118094047Y-157664761D01*
X118046428Y-157712380D01*
X117998809Y-157664761D01*
X118046428Y-157617142D01*
X118046428Y-157712380D01*
X118998809Y-156712380D02*
X118522619Y-156712380D01*
X118475000Y-157188571D01*
X118522619Y-157140952D01*
X118617857Y-157093333D01*
X118855952Y-157093333D01*
X118951190Y-157140952D01*
X118998809Y-157188571D01*
X119046428Y-157283809D01*
X119046428Y-157521904D01*
X118998809Y-157617142D01*
X118951190Y-157664761D01*
X118855952Y-157712380D01*
X118617857Y-157712380D01*
X118522619Y-157664761D01*
X118475000Y-157617142D01*
M02*
