G04 #@! TF.GenerationSoftware,KiCad,Pcbnew,(5.1.6)-1*
G04 #@! TF.CreationDate,2020-06-16T10:18:24+02:00*
G04 #@! TF.ProjectId,punk75_bottom,70756e6b-3735-45f6-926f-74746f6d2e6b,rev?*
G04 #@! TF.SameCoordinates,Original*
G04 #@! TF.FileFunction,Copper,L2,Bot*
G04 #@! TF.FilePolarity,Positive*
%FSLAX46Y46*%
G04 Gerber Fmt 4.6, Leading zero omitted, Abs format (unit mm)*
G04 Created by KiCad (PCBNEW (5.1.6)-1) date 2020-06-16 10:18:24*
%MOMM*%
%LPD*%
G01*
G04 APERTURE LIST*
G04 #@! TA.AperFunction,ComponentPad*
%ADD10C,6.400000*%
G04 #@! TD*
G04 #@! TA.AperFunction,ComponentPad*
G04 #@! TD*
G04 #@! TA.AperFunction,NonConductor*
%ADD12C,0.254000*%
G04 #@! TD*
G04 APERTURE END LIST*
D10*
X352750000Y-99500000D03*
X272750000Y-99500000D03*
X171760000Y-99480000D03*
X91750000Y-99480000D03*
X272750000Y-236130000D03*
X171770000Y-236120000D03*
X91760000Y-236110000D03*
X352740000Y-236110000D03*
D11*
X307975000Y-192087500D03*
X136525000Y-192087500D03*
X361156250Y-130968750D03*
X361156250Y-111125000D03*
X83312000Y-130810000D03*
X83343750Y-111125000D03*
X231775000Y-154051000D03*
X327025000Y-154000000D03*
X346075000Y-211137500D03*
X212725000Y-211137500D03*
X174625000Y-173037500D03*
X269875000Y-173101000D03*
X98425000Y-211137500D03*
X117475000Y-154010000D03*
D12*
G36*
X364136356Y-95310226D02*
G01*
X365507196Y-95538397D01*
X366844729Y-95915620D01*
X368132783Y-96437335D01*
X369355814Y-97097246D01*
X370499047Y-97887383D01*
X371548665Y-98798195D01*
X372491994Y-99818683D01*
X373317651Y-100936533D01*
X374015651Y-102138228D01*
X374577566Y-103409255D01*
X374996618Y-104734286D01*
X375267735Y-106097280D01*
X375388896Y-107496224D01*
X375395001Y-107884816D01*
X375395000Y-227715050D01*
X375317524Y-229122847D01*
X375089353Y-230493695D01*
X374712130Y-231831230D01*
X374190411Y-233119290D01*
X373530500Y-234342321D01*
X372740370Y-235485543D01*
X371829559Y-236535160D01*
X370809067Y-237478494D01*
X369691217Y-238304151D01*
X368489522Y-239002151D01*
X367218492Y-239564067D01*
X365893465Y-239983118D01*
X364530468Y-240254235D01*
X363131528Y-240375396D01*
X362742998Y-240381500D01*
X81781450Y-240381500D01*
X80373653Y-240304024D01*
X79002805Y-240075853D01*
X77665270Y-239698630D01*
X76377210Y-239176911D01*
X75154179Y-238517000D01*
X74010957Y-237726870D01*
X72961340Y-236816059D01*
X72018006Y-235795567D01*
X71971266Y-235732285D01*
X87925000Y-235732285D01*
X87925000Y-236487715D01*
X88072377Y-237228628D01*
X88361467Y-237926554D01*
X88781161Y-238554670D01*
X89315330Y-239088839D01*
X89943446Y-239508533D01*
X90641372Y-239797623D01*
X91382285Y-239945000D01*
X92137715Y-239945000D01*
X92878628Y-239797623D01*
X93576554Y-239508533D01*
X94204670Y-239088839D01*
X94738839Y-238554670D01*
X95158533Y-237926554D01*
X95447623Y-237228628D01*
X95595000Y-236487715D01*
X95595000Y-235742285D01*
X167935000Y-235742285D01*
X167935000Y-236497715D01*
X168082377Y-237238628D01*
X168371467Y-237936554D01*
X168791161Y-238564670D01*
X169325330Y-239098839D01*
X169953446Y-239518533D01*
X170651372Y-239807623D01*
X171392285Y-239955000D01*
X172147715Y-239955000D01*
X172888628Y-239807623D01*
X173586554Y-239518533D01*
X174214670Y-239098839D01*
X174748839Y-238564670D01*
X175168533Y-237936554D01*
X175457623Y-237238628D01*
X175605000Y-236497715D01*
X175605000Y-235752285D01*
X268915000Y-235752285D01*
X268915000Y-236507715D01*
X269062377Y-237248628D01*
X269351467Y-237946554D01*
X269771161Y-238574670D01*
X270305330Y-239108839D01*
X270933446Y-239528533D01*
X271631372Y-239817623D01*
X272372285Y-239965000D01*
X273127715Y-239965000D01*
X273868628Y-239817623D01*
X274566554Y-239528533D01*
X275194670Y-239108839D01*
X275728839Y-238574670D01*
X276148533Y-237946554D01*
X276437623Y-237248628D01*
X276585000Y-236507715D01*
X276585000Y-235752285D01*
X276581022Y-235732285D01*
X348905000Y-235732285D01*
X348905000Y-236487715D01*
X349052377Y-237228628D01*
X349341467Y-237926554D01*
X349761161Y-238554670D01*
X350295330Y-239088839D01*
X350923446Y-239508533D01*
X351621372Y-239797623D01*
X352362285Y-239945000D01*
X353117715Y-239945000D01*
X353858628Y-239797623D01*
X354556554Y-239508533D01*
X355184670Y-239088839D01*
X355718839Y-238554670D01*
X356138533Y-237926554D01*
X356427623Y-237228628D01*
X356575000Y-236487715D01*
X356575000Y-235732285D01*
X356427623Y-234991372D01*
X356138533Y-234293446D01*
X355718839Y-233665330D01*
X355184670Y-233131161D01*
X354556554Y-232711467D01*
X353858628Y-232422377D01*
X353117715Y-232275000D01*
X352362285Y-232275000D01*
X351621372Y-232422377D01*
X350923446Y-232711467D01*
X350295330Y-233131161D01*
X349761161Y-233665330D01*
X349341467Y-234293446D01*
X349052377Y-234991372D01*
X348905000Y-235732285D01*
X276581022Y-235732285D01*
X276437623Y-235011372D01*
X276148533Y-234313446D01*
X275728839Y-233685330D01*
X275194670Y-233151161D01*
X274566554Y-232731467D01*
X273868628Y-232442377D01*
X273127715Y-232295000D01*
X272372285Y-232295000D01*
X271631372Y-232442377D01*
X270933446Y-232731467D01*
X270305330Y-233151161D01*
X269771161Y-233685330D01*
X269351467Y-234313446D01*
X269062377Y-235011372D01*
X268915000Y-235752285D01*
X175605000Y-235752285D01*
X175605000Y-235742285D01*
X175457623Y-235001372D01*
X175168533Y-234303446D01*
X174748839Y-233675330D01*
X174214670Y-233141161D01*
X173586554Y-232721467D01*
X172888628Y-232432377D01*
X172147715Y-232285000D01*
X171392285Y-232285000D01*
X170651372Y-232432377D01*
X169953446Y-232721467D01*
X169325330Y-233141161D01*
X168791161Y-233675330D01*
X168371467Y-234303446D01*
X168082377Y-235001372D01*
X167935000Y-235742285D01*
X95595000Y-235742285D01*
X95595000Y-235732285D01*
X95447623Y-234991372D01*
X95158533Y-234293446D01*
X94738839Y-233665330D01*
X94204670Y-233131161D01*
X93576554Y-232711467D01*
X92878628Y-232422377D01*
X92137715Y-232275000D01*
X91382285Y-232275000D01*
X90641372Y-232422377D01*
X89943446Y-232711467D01*
X89315330Y-233131161D01*
X88781161Y-233665330D01*
X88361467Y-234293446D01*
X88072377Y-234991372D01*
X87925000Y-235732285D01*
X71971266Y-235732285D01*
X71192349Y-234677717D01*
X70494349Y-233476022D01*
X69932433Y-232204992D01*
X69513382Y-230879965D01*
X69242265Y-229516968D01*
X69121104Y-228118028D01*
X69115000Y-227729498D01*
X69115000Y-210853352D01*
X95540000Y-210853352D01*
X95540000Y-211421648D01*
X95650869Y-211979023D01*
X95868346Y-212504060D01*
X96184074Y-212976580D01*
X96585920Y-213378426D01*
X97058440Y-213694154D01*
X97583477Y-213911631D01*
X98140852Y-214022500D01*
X98709148Y-214022500D01*
X99266523Y-213911631D01*
X99791560Y-213694154D01*
X100264080Y-213378426D01*
X100665926Y-212976580D01*
X100981654Y-212504060D01*
X101199131Y-211979023D01*
X101310000Y-211421648D01*
X101310000Y-210853352D01*
X209840000Y-210853352D01*
X209840000Y-211421648D01*
X209950869Y-211979023D01*
X210168346Y-212504060D01*
X210484074Y-212976580D01*
X210885920Y-213378426D01*
X211358440Y-213694154D01*
X211883477Y-213911631D01*
X212440852Y-214022500D01*
X213009148Y-214022500D01*
X213566523Y-213911631D01*
X214091560Y-213694154D01*
X214564080Y-213378426D01*
X214965926Y-212976580D01*
X215281654Y-212504060D01*
X215499131Y-211979023D01*
X215610000Y-211421648D01*
X215610000Y-210853352D01*
X343190000Y-210853352D01*
X343190000Y-211421648D01*
X343300869Y-211979023D01*
X343518346Y-212504060D01*
X343834074Y-212976580D01*
X344235920Y-213378426D01*
X344708440Y-213694154D01*
X345233477Y-213911631D01*
X345790852Y-214022500D01*
X346359148Y-214022500D01*
X346916523Y-213911631D01*
X347441560Y-213694154D01*
X347914080Y-213378426D01*
X348315926Y-212976580D01*
X348631654Y-212504060D01*
X348849131Y-211979023D01*
X348960000Y-211421648D01*
X348960000Y-210853352D01*
X348849131Y-210295977D01*
X348631654Y-209770940D01*
X348315926Y-209298420D01*
X347914080Y-208896574D01*
X347441560Y-208580846D01*
X346916523Y-208363369D01*
X346359148Y-208252500D01*
X345790852Y-208252500D01*
X345233477Y-208363369D01*
X344708440Y-208580846D01*
X344235920Y-208896574D01*
X343834074Y-209298420D01*
X343518346Y-209770940D01*
X343300869Y-210295977D01*
X343190000Y-210853352D01*
X215610000Y-210853352D01*
X215499131Y-210295977D01*
X215281654Y-209770940D01*
X214965926Y-209298420D01*
X214564080Y-208896574D01*
X214091560Y-208580846D01*
X213566523Y-208363369D01*
X213009148Y-208252500D01*
X212440852Y-208252500D01*
X211883477Y-208363369D01*
X211358440Y-208580846D01*
X210885920Y-208896574D01*
X210484074Y-209298420D01*
X210168346Y-209770940D01*
X209950869Y-210295977D01*
X209840000Y-210853352D01*
X101310000Y-210853352D01*
X101199131Y-210295977D01*
X100981654Y-209770940D01*
X100665926Y-209298420D01*
X100264080Y-208896574D01*
X99791560Y-208580846D01*
X99266523Y-208363369D01*
X98709148Y-208252500D01*
X98140852Y-208252500D01*
X97583477Y-208363369D01*
X97058440Y-208580846D01*
X96585920Y-208896574D01*
X96184074Y-209298420D01*
X95868346Y-209770940D01*
X95650869Y-210295977D01*
X95540000Y-210853352D01*
X69115000Y-210853352D01*
X69115000Y-191803352D01*
X133640000Y-191803352D01*
X133640000Y-192371648D01*
X133750869Y-192929023D01*
X133968346Y-193454060D01*
X134284074Y-193926580D01*
X134685920Y-194328426D01*
X135158440Y-194644154D01*
X135683477Y-194861631D01*
X136240852Y-194972500D01*
X136809148Y-194972500D01*
X137366523Y-194861631D01*
X137891560Y-194644154D01*
X138364080Y-194328426D01*
X138765926Y-193926580D01*
X139081654Y-193454060D01*
X139299131Y-192929023D01*
X139410000Y-192371648D01*
X139410000Y-191803352D01*
X305090000Y-191803352D01*
X305090000Y-192371648D01*
X305200869Y-192929023D01*
X305418346Y-193454060D01*
X305734074Y-193926580D01*
X306135920Y-194328426D01*
X306608440Y-194644154D01*
X307133477Y-194861631D01*
X307690852Y-194972500D01*
X308259148Y-194972500D01*
X308816523Y-194861631D01*
X309341560Y-194644154D01*
X309814080Y-194328426D01*
X310215926Y-193926580D01*
X310531654Y-193454060D01*
X310749131Y-192929023D01*
X310860000Y-192371648D01*
X310860000Y-191803352D01*
X310749131Y-191245977D01*
X310531654Y-190720940D01*
X310215926Y-190248420D01*
X309814080Y-189846574D01*
X309341560Y-189530846D01*
X308816523Y-189313369D01*
X308259148Y-189202500D01*
X307690852Y-189202500D01*
X307133477Y-189313369D01*
X306608440Y-189530846D01*
X306135920Y-189846574D01*
X305734074Y-190248420D01*
X305418346Y-190720940D01*
X305200869Y-191245977D01*
X305090000Y-191803352D01*
X139410000Y-191803352D01*
X139299131Y-191245977D01*
X139081654Y-190720940D01*
X138765926Y-190248420D01*
X138364080Y-189846574D01*
X137891560Y-189530846D01*
X137366523Y-189313369D01*
X136809148Y-189202500D01*
X136240852Y-189202500D01*
X135683477Y-189313369D01*
X135158440Y-189530846D01*
X134685920Y-189846574D01*
X134284074Y-190248420D01*
X133968346Y-190720940D01*
X133750869Y-191245977D01*
X133640000Y-191803352D01*
X69115000Y-191803352D01*
X69115000Y-172753352D01*
X171740000Y-172753352D01*
X171740000Y-173321648D01*
X171850869Y-173879023D01*
X172068346Y-174404060D01*
X172384074Y-174876580D01*
X172785920Y-175278426D01*
X173258440Y-175594154D01*
X173783477Y-175811631D01*
X174340852Y-175922500D01*
X174909148Y-175922500D01*
X175466523Y-175811631D01*
X175991560Y-175594154D01*
X176464080Y-175278426D01*
X176865926Y-174876580D01*
X177181654Y-174404060D01*
X177399131Y-173879023D01*
X177510000Y-173321648D01*
X177510000Y-172816852D01*
X266990000Y-172816852D01*
X266990000Y-173385148D01*
X267100869Y-173942523D01*
X267318346Y-174467560D01*
X267634074Y-174940080D01*
X268035920Y-175341926D01*
X268508440Y-175657654D01*
X269033477Y-175875131D01*
X269590852Y-175986000D01*
X270159148Y-175986000D01*
X270716523Y-175875131D01*
X271241560Y-175657654D01*
X271714080Y-175341926D01*
X272115926Y-174940080D01*
X272431654Y-174467560D01*
X272649131Y-173942523D01*
X272760000Y-173385148D01*
X272760000Y-172816852D01*
X272649131Y-172259477D01*
X272431654Y-171734440D01*
X272115926Y-171261920D01*
X271714080Y-170860074D01*
X271241560Y-170544346D01*
X270716523Y-170326869D01*
X270159148Y-170216000D01*
X269590852Y-170216000D01*
X269033477Y-170326869D01*
X268508440Y-170544346D01*
X268035920Y-170860074D01*
X267634074Y-171261920D01*
X267318346Y-171734440D01*
X267100869Y-172259477D01*
X266990000Y-172816852D01*
X177510000Y-172816852D01*
X177510000Y-172753352D01*
X177399131Y-172195977D01*
X177181654Y-171670940D01*
X176865926Y-171198420D01*
X176464080Y-170796574D01*
X175991560Y-170480846D01*
X175466523Y-170263369D01*
X174909148Y-170152500D01*
X174340852Y-170152500D01*
X173783477Y-170263369D01*
X173258440Y-170480846D01*
X172785920Y-170796574D01*
X172384074Y-171198420D01*
X172068346Y-171670940D01*
X171850869Y-172195977D01*
X171740000Y-172753352D01*
X69115000Y-172753352D01*
X69115000Y-153725852D01*
X114590000Y-153725852D01*
X114590000Y-154294148D01*
X114700869Y-154851523D01*
X114918346Y-155376560D01*
X115234074Y-155849080D01*
X115635920Y-156250926D01*
X116108440Y-156566654D01*
X116633477Y-156784131D01*
X117190852Y-156895000D01*
X117759148Y-156895000D01*
X118316523Y-156784131D01*
X118841560Y-156566654D01*
X119314080Y-156250926D01*
X119715926Y-155849080D01*
X120031654Y-155376560D01*
X120249131Y-154851523D01*
X120360000Y-154294148D01*
X120360000Y-153766852D01*
X228890000Y-153766852D01*
X228890000Y-154335148D01*
X229000869Y-154892523D01*
X229218346Y-155417560D01*
X229534074Y-155890080D01*
X229935920Y-156291926D01*
X230408440Y-156607654D01*
X230933477Y-156825131D01*
X231490852Y-156936000D01*
X232059148Y-156936000D01*
X232616523Y-156825131D01*
X233141560Y-156607654D01*
X233614080Y-156291926D01*
X234015926Y-155890080D01*
X234331654Y-155417560D01*
X234549131Y-154892523D01*
X234660000Y-154335148D01*
X234660000Y-153766852D01*
X234649856Y-153715852D01*
X324140000Y-153715852D01*
X324140000Y-154284148D01*
X324250869Y-154841523D01*
X324468346Y-155366560D01*
X324784074Y-155839080D01*
X325185920Y-156240926D01*
X325658440Y-156556654D01*
X326183477Y-156774131D01*
X326740852Y-156885000D01*
X327309148Y-156885000D01*
X327866523Y-156774131D01*
X328391560Y-156556654D01*
X328864080Y-156240926D01*
X329265926Y-155839080D01*
X329581654Y-155366560D01*
X329799131Y-154841523D01*
X329910000Y-154284148D01*
X329910000Y-153715852D01*
X329799131Y-153158477D01*
X329581654Y-152633440D01*
X329265926Y-152160920D01*
X328864080Y-151759074D01*
X328391560Y-151443346D01*
X327866523Y-151225869D01*
X327309148Y-151115000D01*
X326740852Y-151115000D01*
X326183477Y-151225869D01*
X325658440Y-151443346D01*
X325185920Y-151759074D01*
X324784074Y-152160920D01*
X324468346Y-152633440D01*
X324250869Y-153158477D01*
X324140000Y-153715852D01*
X234649856Y-153715852D01*
X234549131Y-153209477D01*
X234331654Y-152684440D01*
X234015926Y-152211920D01*
X233614080Y-151810074D01*
X233141560Y-151494346D01*
X232616523Y-151276869D01*
X232059148Y-151166000D01*
X231490852Y-151166000D01*
X230933477Y-151276869D01*
X230408440Y-151494346D01*
X229935920Y-151810074D01*
X229534074Y-152211920D01*
X229218346Y-152684440D01*
X229000869Y-153209477D01*
X228890000Y-153766852D01*
X120360000Y-153766852D01*
X120360000Y-153725852D01*
X120249131Y-153168477D01*
X120031654Y-152643440D01*
X119715926Y-152170920D01*
X119314080Y-151769074D01*
X118841560Y-151453346D01*
X118316523Y-151235869D01*
X117759148Y-151125000D01*
X117190852Y-151125000D01*
X116633477Y-151235869D01*
X116108440Y-151453346D01*
X115635920Y-151769074D01*
X115234074Y-152170920D01*
X114918346Y-152643440D01*
X114700869Y-153168477D01*
X114590000Y-153725852D01*
X69115000Y-153725852D01*
X69115000Y-130525852D01*
X80427000Y-130525852D01*
X80427000Y-131094148D01*
X80537869Y-131651523D01*
X80755346Y-132176560D01*
X81071074Y-132649080D01*
X81472920Y-133050926D01*
X81945440Y-133366654D01*
X82470477Y-133584131D01*
X83027852Y-133695000D01*
X83596148Y-133695000D01*
X84153523Y-133584131D01*
X84678560Y-133366654D01*
X85151080Y-133050926D01*
X85552926Y-132649080D01*
X85868654Y-132176560D01*
X86086131Y-131651523D01*
X86197000Y-131094148D01*
X86197000Y-130684602D01*
X358271250Y-130684602D01*
X358271250Y-131252898D01*
X358382119Y-131810273D01*
X358599596Y-132335310D01*
X358915324Y-132807830D01*
X359317170Y-133209676D01*
X359789690Y-133525404D01*
X360314727Y-133742881D01*
X360872102Y-133853750D01*
X361440398Y-133853750D01*
X361997773Y-133742881D01*
X362522810Y-133525404D01*
X362995330Y-133209676D01*
X363397176Y-132807830D01*
X363712904Y-132335310D01*
X363930381Y-131810273D01*
X364041250Y-131252898D01*
X364041250Y-130684602D01*
X363930381Y-130127227D01*
X363712904Y-129602190D01*
X363397176Y-129129670D01*
X362995330Y-128727824D01*
X362522810Y-128412096D01*
X361997773Y-128194619D01*
X361440398Y-128083750D01*
X360872102Y-128083750D01*
X360314727Y-128194619D01*
X359789690Y-128412096D01*
X359317170Y-128727824D01*
X358915324Y-129129670D01*
X358599596Y-129602190D01*
X358382119Y-130127227D01*
X358271250Y-130684602D01*
X86197000Y-130684602D01*
X86197000Y-130525852D01*
X86086131Y-129968477D01*
X85868654Y-129443440D01*
X85552926Y-128970920D01*
X85151080Y-128569074D01*
X84678560Y-128253346D01*
X84153523Y-128035869D01*
X83596148Y-127925000D01*
X83027852Y-127925000D01*
X82470477Y-128035869D01*
X81945440Y-128253346D01*
X81472920Y-128569074D01*
X81071074Y-128970920D01*
X80755346Y-129443440D01*
X80537869Y-129968477D01*
X80427000Y-130525852D01*
X69115000Y-130525852D01*
X69115000Y-110840852D01*
X80458750Y-110840852D01*
X80458750Y-111409148D01*
X80569619Y-111966523D01*
X80787096Y-112491560D01*
X81102824Y-112964080D01*
X81504670Y-113365926D01*
X81977190Y-113681654D01*
X82502227Y-113899131D01*
X83059602Y-114010000D01*
X83627898Y-114010000D01*
X84185273Y-113899131D01*
X84710310Y-113681654D01*
X85182830Y-113365926D01*
X85584676Y-112964080D01*
X85900404Y-112491560D01*
X86117881Y-111966523D01*
X86228750Y-111409148D01*
X86228750Y-110840852D01*
X358271250Y-110840852D01*
X358271250Y-111409148D01*
X358382119Y-111966523D01*
X358599596Y-112491560D01*
X358915324Y-112964080D01*
X359317170Y-113365926D01*
X359789690Y-113681654D01*
X360314727Y-113899131D01*
X360872102Y-114010000D01*
X361440398Y-114010000D01*
X361997773Y-113899131D01*
X362522810Y-113681654D01*
X362995330Y-113365926D01*
X363397176Y-112964080D01*
X363712904Y-112491560D01*
X363930381Y-111966523D01*
X364041250Y-111409148D01*
X364041250Y-110840852D01*
X363930381Y-110283477D01*
X363712904Y-109758440D01*
X363397176Y-109285920D01*
X362995330Y-108884074D01*
X362522810Y-108568346D01*
X361997773Y-108350869D01*
X361440398Y-108240000D01*
X360872102Y-108240000D01*
X360314727Y-108350869D01*
X359789690Y-108568346D01*
X359317170Y-108884074D01*
X358915324Y-109285920D01*
X358599596Y-109758440D01*
X358382119Y-110283477D01*
X358271250Y-110840852D01*
X86228750Y-110840852D01*
X86117881Y-110283477D01*
X85900404Y-109758440D01*
X85584676Y-109285920D01*
X85182830Y-108884074D01*
X84710310Y-108568346D01*
X84185273Y-108350869D01*
X83627898Y-108240000D01*
X83059602Y-108240000D01*
X82502227Y-108350869D01*
X81977190Y-108568346D01*
X81504670Y-108884074D01*
X81102824Y-109285920D01*
X80787096Y-109758440D01*
X80569619Y-110283477D01*
X80458750Y-110840852D01*
X69115000Y-110840852D01*
X69115000Y-107899200D01*
X69192476Y-106491394D01*
X69420647Y-105120554D01*
X69797870Y-103783021D01*
X70319585Y-102494967D01*
X70979496Y-101271936D01*
X71769633Y-100128703D01*
X72660313Y-99102285D01*
X87915000Y-99102285D01*
X87915000Y-99857715D01*
X88062377Y-100598628D01*
X88351467Y-101296554D01*
X88771161Y-101924670D01*
X89305330Y-102458839D01*
X89933446Y-102878533D01*
X90631372Y-103167623D01*
X91372285Y-103315000D01*
X92127715Y-103315000D01*
X92868628Y-103167623D01*
X93566554Y-102878533D01*
X94194670Y-102458839D01*
X94728839Y-101924670D01*
X95148533Y-101296554D01*
X95437623Y-100598628D01*
X95585000Y-99857715D01*
X95585000Y-99102285D01*
X167925000Y-99102285D01*
X167925000Y-99857715D01*
X168072377Y-100598628D01*
X168361467Y-101296554D01*
X168781161Y-101924670D01*
X169315330Y-102458839D01*
X169943446Y-102878533D01*
X170641372Y-103167623D01*
X171382285Y-103315000D01*
X172137715Y-103315000D01*
X172878628Y-103167623D01*
X173576554Y-102878533D01*
X174204670Y-102458839D01*
X174738839Y-101924670D01*
X175158533Y-101296554D01*
X175447623Y-100598628D01*
X175595000Y-99857715D01*
X175595000Y-99122285D01*
X268915000Y-99122285D01*
X268915000Y-99877715D01*
X269062377Y-100618628D01*
X269351467Y-101316554D01*
X269771161Y-101944670D01*
X270305330Y-102478839D01*
X270933446Y-102898533D01*
X271631372Y-103187623D01*
X272372285Y-103335000D01*
X273127715Y-103335000D01*
X273868628Y-103187623D01*
X274566554Y-102898533D01*
X275194670Y-102478839D01*
X275728839Y-101944670D01*
X276148533Y-101316554D01*
X276437623Y-100618628D01*
X276585000Y-99877715D01*
X276585000Y-99122285D01*
X348915000Y-99122285D01*
X348915000Y-99877715D01*
X349062377Y-100618628D01*
X349351467Y-101316554D01*
X349771161Y-101944670D01*
X350305330Y-102478839D01*
X350933446Y-102898533D01*
X351631372Y-103187623D01*
X352372285Y-103335000D01*
X353127715Y-103335000D01*
X353868628Y-103187623D01*
X354566554Y-102898533D01*
X355194670Y-102478839D01*
X355728839Y-101944670D01*
X356148533Y-101316554D01*
X356437623Y-100618628D01*
X356585000Y-99877715D01*
X356585000Y-99122285D01*
X356437623Y-98381372D01*
X356148533Y-97683446D01*
X355728839Y-97055330D01*
X355194670Y-96521161D01*
X354566554Y-96101467D01*
X353868628Y-95812377D01*
X353127715Y-95665000D01*
X352372285Y-95665000D01*
X351631372Y-95812377D01*
X350933446Y-96101467D01*
X350305330Y-96521161D01*
X349771161Y-97055330D01*
X349351467Y-97683446D01*
X349062377Y-98381372D01*
X348915000Y-99122285D01*
X276585000Y-99122285D01*
X276437623Y-98381372D01*
X276148533Y-97683446D01*
X275728839Y-97055330D01*
X275194670Y-96521161D01*
X274566554Y-96101467D01*
X273868628Y-95812377D01*
X273127715Y-95665000D01*
X272372285Y-95665000D01*
X271631372Y-95812377D01*
X270933446Y-96101467D01*
X270305330Y-96521161D01*
X269771161Y-97055330D01*
X269351467Y-97683446D01*
X269062377Y-98381372D01*
X268915000Y-99122285D01*
X175595000Y-99122285D01*
X175595000Y-99102285D01*
X175447623Y-98361372D01*
X175158533Y-97663446D01*
X174738839Y-97035330D01*
X174204670Y-96501161D01*
X173576554Y-96081467D01*
X172878628Y-95792377D01*
X172137715Y-95645000D01*
X171382285Y-95645000D01*
X170641372Y-95792377D01*
X169943446Y-96081467D01*
X169315330Y-96501161D01*
X168781161Y-97035330D01*
X168361467Y-97663446D01*
X168072377Y-98361372D01*
X167925000Y-99102285D01*
X95585000Y-99102285D01*
X95437623Y-98361372D01*
X95148533Y-97663446D01*
X94728839Y-97035330D01*
X94194670Y-96501161D01*
X93566554Y-96081467D01*
X92868628Y-95792377D01*
X92127715Y-95645000D01*
X91372285Y-95645000D01*
X90631372Y-95792377D01*
X89933446Y-96081467D01*
X89305330Y-96501161D01*
X88771161Y-97035330D01*
X88351467Y-97663446D01*
X88062377Y-98361372D01*
X87915000Y-99102285D01*
X72660313Y-99102285D01*
X72680445Y-99079085D01*
X73700933Y-98135756D01*
X74818783Y-97310099D01*
X76020478Y-96612099D01*
X77291505Y-96050184D01*
X78616536Y-95631132D01*
X79979530Y-95360015D01*
X81378474Y-95238854D01*
X81767002Y-95232750D01*
X362728550Y-95232750D01*
X364136356Y-95310226D01*
G37*
X364136356Y-95310226D02*
X365507196Y-95538397D01*
X366844729Y-95915620D01*
X368132783Y-96437335D01*
X369355814Y-97097246D01*
X370499047Y-97887383D01*
X371548665Y-98798195D01*
X372491994Y-99818683D01*
X373317651Y-100936533D01*
X374015651Y-102138228D01*
X374577566Y-103409255D01*
X374996618Y-104734286D01*
X375267735Y-106097280D01*
X375388896Y-107496224D01*
X375395001Y-107884816D01*
X375395000Y-227715050D01*
X375317524Y-229122847D01*
X375089353Y-230493695D01*
X374712130Y-231831230D01*
X374190411Y-233119290D01*
X373530500Y-234342321D01*
X372740370Y-235485543D01*
X371829559Y-236535160D01*
X370809067Y-237478494D01*
X369691217Y-238304151D01*
X368489522Y-239002151D01*
X367218492Y-239564067D01*
X365893465Y-239983118D01*
X364530468Y-240254235D01*
X363131528Y-240375396D01*
X362742998Y-240381500D01*
X81781450Y-240381500D01*
X80373653Y-240304024D01*
X79002805Y-240075853D01*
X77665270Y-239698630D01*
X76377210Y-239176911D01*
X75154179Y-238517000D01*
X74010957Y-237726870D01*
X72961340Y-236816059D01*
X72018006Y-235795567D01*
X71971266Y-235732285D01*
X87925000Y-235732285D01*
X87925000Y-236487715D01*
X88072377Y-237228628D01*
X88361467Y-237926554D01*
X88781161Y-238554670D01*
X89315330Y-239088839D01*
X89943446Y-239508533D01*
X90641372Y-239797623D01*
X91382285Y-239945000D01*
X92137715Y-239945000D01*
X92878628Y-239797623D01*
X93576554Y-239508533D01*
X94204670Y-239088839D01*
X94738839Y-238554670D01*
X95158533Y-237926554D01*
X95447623Y-237228628D01*
X95595000Y-236487715D01*
X95595000Y-235742285D01*
X167935000Y-235742285D01*
X167935000Y-236497715D01*
X168082377Y-237238628D01*
X168371467Y-237936554D01*
X168791161Y-238564670D01*
X169325330Y-239098839D01*
X169953446Y-239518533D01*
X170651372Y-239807623D01*
X171392285Y-239955000D01*
X172147715Y-239955000D01*
X172888628Y-239807623D01*
X173586554Y-239518533D01*
X174214670Y-239098839D01*
X174748839Y-238564670D01*
X175168533Y-237936554D01*
X175457623Y-237238628D01*
X175605000Y-236497715D01*
X175605000Y-235752285D01*
X268915000Y-235752285D01*
X268915000Y-236507715D01*
X269062377Y-237248628D01*
X269351467Y-237946554D01*
X269771161Y-238574670D01*
X270305330Y-239108839D01*
X270933446Y-239528533D01*
X271631372Y-239817623D01*
X272372285Y-239965000D01*
X273127715Y-239965000D01*
X273868628Y-239817623D01*
X274566554Y-239528533D01*
X275194670Y-239108839D01*
X275728839Y-238574670D01*
X276148533Y-237946554D01*
X276437623Y-237248628D01*
X276585000Y-236507715D01*
X276585000Y-235752285D01*
X276581022Y-235732285D01*
X348905000Y-235732285D01*
X348905000Y-236487715D01*
X349052377Y-237228628D01*
X349341467Y-237926554D01*
X349761161Y-238554670D01*
X350295330Y-239088839D01*
X350923446Y-239508533D01*
X351621372Y-239797623D01*
X352362285Y-239945000D01*
X353117715Y-239945000D01*
X353858628Y-239797623D01*
X354556554Y-239508533D01*
X355184670Y-239088839D01*
X355718839Y-238554670D01*
X356138533Y-237926554D01*
X356427623Y-237228628D01*
X356575000Y-236487715D01*
X356575000Y-235732285D01*
X356427623Y-234991372D01*
X356138533Y-234293446D01*
X355718839Y-233665330D01*
X355184670Y-233131161D01*
X354556554Y-232711467D01*
X353858628Y-232422377D01*
X353117715Y-232275000D01*
X352362285Y-232275000D01*
X351621372Y-232422377D01*
X350923446Y-232711467D01*
X350295330Y-233131161D01*
X349761161Y-233665330D01*
X349341467Y-234293446D01*
X349052377Y-234991372D01*
X348905000Y-235732285D01*
X276581022Y-235732285D01*
X276437623Y-235011372D01*
X276148533Y-234313446D01*
X275728839Y-233685330D01*
X275194670Y-233151161D01*
X274566554Y-232731467D01*
X273868628Y-232442377D01*
X273127715Y-232295000D01*
X272372285Y-232295000D01*
X271631372Y-232442377D01*
X270933446Y-232731467D01*
X270305330Y-233151161D01*
X269771161Y-233685330D01*
X269351467Y-234313446D01*
X269062377Y-235011372D01*
X268915000Y-235752285D01*
X175605000Y-235752285D01*
X175605000Y-235742285D01*
X175457623Y-235001372D01*
X175168533Y-234303446D01*
X174748839Y-233675330D01*
X174214670Y-233141161D01*
X173586554Y-232721467D01*
X172888628Y-232432377D01*
X172147715Y-232285000D01*
X171392285Y-232285000D01*
X170651372Y-232432377D01*
X169953446Y-232721467D01*
X169325330Y-233141161D01*
X168791161Y-233675330D01*
X168371467Y-234303446D01*
X168082377Y-235001372D01*
X167935000Y-235742285D01*
X95595000Y-235742285D01*
X95595000Y-235732285D01*
X95447623Y-234991372D01*
X95158533Y-234293446D01*
X94738839Y-233665330D01*
X94204670Y-233131161D01*
X93576554Y-232711467D01*
X92878628Y-232422377D01*
X92137715Y-232275000D01*
X91382285Y-232275000D01*
X90641372Y-232422377D01*
X89943446Y-232711467D01*
X89315330Y-233131161D01*
X88781161Y-233665330D01*
X88361467Y-234293446D01*
X88072377Y-234991372D01*
X87925000Y-235732285D01*
X71971266Y-235732285D01*
X71192349Y-234677717D01*
X70494349Y-233476022D01*
X69932433Y-232204992D01*
X69513382Y-230879965D01*
X69242265Y-229516968D01*
X69121104Y-228118028D01*
X69115000Y-227729498D01*
X69115000Y-210853352D01*
X95540000Y-210853352D01*
X95540000Y-211421648D01*
X95650869Y-211979023D01*
X95868346Y-212504060D01*
X96184074Y-212976580D01*
X96585920Y-213378426D01*
X97058440Y-213694154D01*
X97583477Y-213911631D01*
X98140852Y-214022500D01*
X98709148Y-214022500D01*
X99266523Y-213911631D01*
X99791560Y-213694154D01*
X100264080Y-213378426D01*
X100665926Y-212976580D01*
X100981654Y-212504060D01*
X101199131Y-211979023D01*
X101310000Y-211421648D01*
X101310000Y-210853352D01*
X209840000Y-210853352D01*
X209840000Y-211421648D01*
X209950869Y-211979023D01*
X210168346Y-212504060D01*
X210484074Y-212976580D01*
X210885920Y-213378426D01*
X211358440Y-213694154D01*
X211883477Y-213911631D01*
X212440852Y-214022500D01*
X213009148Y-214022500D01*
X213566523Y-213911631D01*
X214091560Y-213694154D01*
X214564080Y-213378426D01*
X214965926Y-212976580D01*
X215281654Y-212504060D01*
X215499131Y-211979023D01*
X215610000Y-211421648D01*
X215610000Y-210853352D01*
X343190000Y-210853352D01*
X343190000Y-211421648D01*
X343300869Y-211979023D01*
X343518346Y-212504060D01*
X343834074Y-212976580D01*
X344235920Y-213378426D01*
X344708440Y-213694154D01*
X345233477Y-213911631D01*
X345790852Y-214022500D01*
X346359148Y-214022500D01*
X346916523Y-213911631D01*
X347441560Y-213694154D01*
X347914080Y-213378426D01*
X348315926Y-212976580D01*
X348631654Y-212504060D01*
X348849131Y-211979023D01*
X348960000Y-211421648D01*
X348960000Y-210853352D01*
X348849131Y-210295977D01*
X348631654Y-209770940D01*
X348315926Y-209298420D01*
X347914080Y-208896574D01*
X347441560Y-208580846D01*
X346916523Y-208363369D01*
X346359148Y-208252500D01*
X345790852Y-208252500D01*
X345233477Y-208363369D01*
X344708440Y-208580846D01*
X344235920Y-208896574D01*
X343834074Y-209298420D01*
X343518346Y-209770940D01*
X343300869Y-210295977D01*
X343190000Y-210853352D01*
X215610000Y-210853352D01*
X215499131Y-210295977D01*
X215281654Y-209770940D01*
X214965926Y-209298420D01*
X214564080Y-208896574D01*
X214091560Y-208580846D01*
X213566523Y-208363369D01*
X213009148Y-208252500D01*
X212440852Y-208252500D01*
X211883477Y-208363369D01*
X211358440Y-208580846D01*
X210885920Y-208896574D01*
X210484074Y-209298420D01*
X210168346Y-209770940D01*
X209950869Y-210295977D01*
X209840000Y-210853352D01*
X101310000Y-210853352D01*
X101199131Y-210295977D01*
X100981654Y-209770940D01*
X100665926Y-209298420D01*
X100264080Y-208896574D01*
X99791560Y-208580846D01*
X99266523Y-208363369D01*
X98709148Y-208252500D01*
X98140852Y-208252500D01*
X97583477Y-208363369D01*
X97058440Y-208580846D01*
X96585920Y-208896574D01*
X96184074Y-209298420D01*
X95868346Y-209770940D01*
X95650869Y-210295977D01*
X95540000Y-210853352D01*
X69115000Y-210853352D01*
X69115000Y-191803352D01*
X133640000Y-191803352D01*
X133640000Y-192371648D01*
X133750869Y-192929023D01*
X133968346Y-193454060D01*
X134284074Y-193926580D01*
X134685920Y-194328426D01*
X135158440Y-194644154D01*
X135683477Y-194861631D01*
X136240852Y-194972500D01*
X136809148Y-194972500D01*
X137366523Y-194861631D01*
X137891560Y-194644154D01*
X138364080Y-194328426D01*
X138765926Y-193926580D01*
X139081654Y-193454060D01*
X139299131Y-192929023D01*
X139410000Y-192371648D01*
X139410000Y-191803352D01*
X305090000Y-191803352D01*
X305090000Y-192371648D01*
X305200869Y-192929023D01*
X305418346Y-193454060D01*
X305734074Y-193926580D01*
X306135920Y-194328426D01*
X306608440Y-194644154D01*
X307133477Y-194861631D01*
X307690852Y-194972500D01*
X308259148Y-194972500D01*
X308816523Y-194861631D01*
X309341560Y-194644154D01*
X309814080Y-194328426D01*
X310215926Y-193926580D01*
X310531654Y-193454060D01*
X310749131Y-192929023D01*
X310860000Y-192371648D01*
X310860000Y-191803352D01*
X310749131Y-191245977D01*
X310531654Y-190720940D01*
X310215926Y-190248420D01*
X309814080Y-189846574D01*
X309341560Y-189530846D01*
X308816523Y-189313369D01*
X308259148Y-189202500D01*
X307690852Y-189202500D01*
X307133477Y-189313369D01*
X306608440Y-189530846D01*
X306135920Y-189846574D01*
X305734074Y-190248420D01*
X305418346Y-190720940D01*
X305200869Y-191245977D01*
X305090000Y-191803352D01*
X139410000Y-191803352D01*
X139299131Y-191245977D01*
X139081654Y-190720940D01*
X138765926Y-190248420D01*
X138364080Y-189846574D01*
X137891560Y-189530846D01*
X137366523Y-189313369D01*
X136809148Y-189202500D01*
X136240852Y-189202500D01*
X135683477Y-189313369D01*
X135158440Y-189530846D01*
X134685920Y-189846574D01*
X134284074Y-190248420D01*
X133968346Y-190720940D01*
X133750869Y-191245977D01*
X133640000Y-191803352D01*
X69115000Y-191803352D01*
X69115000Y-172753352D01*
X171740000Y-172753352D01*
X171740000Y-173321648D01*
X171850869Y-173879023D01*
X172068346Y-174404060D01*
X172384074Y-174876580D01*
X172785920Y-175278426D01*
X173258440Y-175594154D01*
X173783477Y-175811631D01*
X174340852Y-175922500D01*
X174909148Y-175922500D01*
X175466523Y-175811631D01*
X175991560Y-175594154D01*
X176464080Y-175278426D01*
X176865926Y-174876580D01*
X177181654Y-174404060D01*
X177399131Y-173879023D01*
X177510000Y-173321648D01*
X177510000Y-172816852D01*
X266990000Y-172816852D01*
X266990000Y-173385148D01*
X267100869Y-173942523D01*
X267318346Y-174467560D01*
X267634074Y-174940080D01*
X268035920Y-175341926D01*
X268508440Y-175657654D01*
X269033477Y-175875131D01*
X269590852Y-175986000D01*
X270159148Y-175986000D01*
X270716523Y-175875131D01*
X271241560Y-175657654D01*
X271714080Y-175341926D01*
X272115926Y-174940080D01*
X272431654Y-174467560D01*
X272649131Y-173942523D01*
X272760000Y-173385148D01*
X272760000Y-172816852D01*
X272649131Y-172259477D01*
X272431654Y-171734440D01*
X272115926Y-171261920D01*
X271714080Y-170860074D01*
X271241560Y-170544346D01*
X270716523Y-170326869D01*
X270159148Y-170216000D01*
X269590852Y-170216000D01*
X269033477Y-170326869D01*
X268508440Y-170544346D01*
X268035920Y-170860074D01*
X267634074Y-171261920D01*
X267318346Y-171734440D01*
X267100869Y-172259477D01*
X266990000Y-172816852D01*
X177510000Y-172816852D01*
X177510000Y-172753352D01*
X177399131Y-172195977D01*
X177181654Y-171670940D01*
X176865926Y-171198420D01*
X176464080Y-170796574D01*
X175991560Y-170480846D01*
X175466523Y-170263369D01*
X174909148Y-170152500D01*
X174340852Y-170152500D01*
X173783477Y-170263369D01*
X173258440Y-170480846D01*
X172785920Y-170796574D01*
X172384074Y-171198420D01*
X172068346Y-171670940D01*
X171850869Y-172195977D01*
X171740000Y-172753352D01*
X69115000Y-172753352D01*
X69115000Y-153725852D01*
X114590000Y-153725852D01*
X114590000Y-154294148D01*
X114700869Y-154851523D01*
X114918346Y-155376560D01*
X115234074Y-155849080D01*
X115635920Y-156250926D01*
X116108440Y-156566654D01*
X116633477Y-156784131D01*
X117190852Y-156895000D01*
X117759148Y-156895000D01*
X118316523Y-156784131D01*
X118841560Y-156566654D01*
X119314080Y-156250926D01*
X119715926Y-155849080D01*
X120031654Y-155376560D01*
X120249131Y-154851523D01*
X120360000Y-154294148D01*
X120360000Y-153766852D01*
X228890000Y-153766852D01*
X228890000Y-154335148D01*
X229000869Y-154892523D01*
X229218346Y-155417560D01*
X229534074Y-155890080D01*
X229935920Y-156291926D01*
X230408440Y-156607654D01*
X230933477Y-156825131D01*
X231490852Y-156936000D01*
X232059148Y-156936000D01*
X232616523Y-156825131D01*
X233141560Y-156607654D01*
X233614080Y-156291926D01*
X234015926Y-155890080D01*
X234331654Y-155417560D01*
X234549131Y-154892523D01*
X234660000Y-154335148D01*
X234660000Y-153766852D01*
X234649856Y-153715852D01*
X324140000Y-153715852D01*
X324140000Y-154284148D01*
X324250869Y-154841523D01*
X324468346Y-155366560D01*
X324784074Y-155839080D01*
X325185920Y-156240926D01*
X325658440Y-156556654D01*
X326183477Y-156774131D01*
X326740852Y-156885000D01*
X327309148Y-156885000D01*
X327866523Y-156774131D01*
X328391560Y-156556654D01*
X328864080Y-156240926D01*
X329265926Y-155839080D01*
X329581654Y-155366560D01*
X329799131Y-154841523D01*
X329910000Y-154284148D01*
X329910000Y-153715852D01*
X329799131Y-153158477D01*
X329581654Y-152633440D01*
X329265926Y-152160920D01*
X328864080Y-151759074D01*
X328391560Y-151443346D01*
X327866523Y-151225869D01*
X327309148Y-151115000D01*
X326740852Y-151115000D01*
X326183477Y-151225869D01*
X325658440Y-151443346D01*
X325185920Y-151759074D01*
X324784074Y-152160920D01*
X324468346Y-152633440D01*
X324250869Y-153158477D01*
X324140000Y-153715852D01*
X234649856Y-153715852D01*
X234549131Y-153209477D01*
X234331654Y-152684440D01*
X234015926Y-152211920D01*
X233614080Y-151810074D01*
X233141560Y-151494346D01*
X232616523Y-151276869D01*
X232059148Y-151166000D01*
X231490852Y-151166000D01*
X230933477Y-151276869D01*
X230408440Y-151494346D01*
X229935920Y-151810074D01*
X229534074Y-152211920D01*
X229218346Y-152684440D01*
X229000869Y-153209477D01*
X228890000Y-153766852D01*
X120360000Y-153766852D01*
X120360000Y-153725852D01*
X120249131Y-153168477D01*
X120031654Y-152643440D01*
X119715926Y-152170920D01*
X119314080Y-151769074D01*
X118841560Y-151453346D01*
X118316523Y-151235869D01*
X117759148Y-151125000D01*
X117190852Y-151125000D01*
X116633477Y-151235869D01*
X116108440Y-151453346D01*
X115635920Y-151769074D01*
X115234074Y-152170920D01*
X114918346Y-152643440D01*
X114700869Y-153168477D01*
X114590000Y-153725852D01*
X69115000Y-153725852D01*
X69115000Y-130525852D01*
X80427000Y-130525852D01*
X80427000Y-131094148D01*
X80537869Y-131651523D01*
X80755346Y-132176560D01*
X81071074Y-132649080D01*
X81472920Y-133050926D01*
X81945440Y-133366654D01*
X82470477Y-133584131D01*
X83027852Y-133695000D01*
X83596148Y-133695000D01*
X84153523Y-133584131D01*
X84678560Y-133366654D01*
X85151080Y-133050926D01*
X85552926Y-132649080D01*
X85868654Y-132176560D01*
X86086131Y-131651523D01*
X86197000Y-131094148D01*
X86197000Y-130684602D01*
X358271250Y-130684602D01*
X358271250Y-131252898D01*
X358382119Y-131810273D01*
X358599596Y-132335310D01*
X358915324Y-132807830D01*
X359317170Y-133209676D01*
X359789690Y-133525404D01*
X360314727Y-133742881D01*
X360872102Y-133853750D01*
X361440398Y-133853750D01*
X361997773Y-133742881D01*
X362522810Y-133525404D01*
X362995330Y-133209676D01*
X363397176Y-132807830D01*
X363712904Y-132335310D01*
X363930381Y-131810273D01*
X364041250Y-131252898D01*
X364041250Y-130684602D01*
X363930381Y-130127227D01*
X363712904Y-129602190D01*
X363397176Y-129129670D01*
X362995330Y-128727824D01*
X362522810Y-128412096D01*
X361997773Y-128194619D01*
X361440398Y-128083750D01*
X360872102Y-128083750D01*
X360314727Y-128194619D01*
X359789690Y-128412096D01*
X359317170Y-128727824D01*
X358915324Y-129129670D01*
X358599596Y-129602190D01*
X358382119Y-130127227D01*
X358271250Y-130684602D01*
X86197000Y-130684602D01*
X86197000Y-130525852D01*
X86086131Y-129968477D01*
X85868654Y-129443440D01*
X85552926Y-128970920D01*
X85151080Y-128569074D01*
X84678560Y-128253346D01*
X84153523Y-128035869D01*
X83596148Y-127925000D01*
X83027852Y-127925000D01*
X82470477Y-128035869D01*
X81945440Y-128253346D01*
X81472920Y-128569074D01*
X81071074Y-128970920D01*
X80755346Y-129443440D01*
X80537869Y-129968477D01*
X80427000Y-130525852D01*
X69115000Y-130525852D01*
X69115000Y-110840852D01*
X80458750Y-110840852D01*
X80458750Y-111409148D01*
X80569619Y-111966523D01*
X80787096Y-112491560D01*
X81102824Y-112964080D01*
X81504670Y-113365926D01*
X81977190Y-113681654D01*
X82502227Y-113899131D01*
X83059602Y-114010000D01*
X83627898Y-114010000D01*
X84185273Y-113899131D01*
X84710310Y-113681654D01*
X85182830Y-113365926D01*
X85584676Y-112964080D01*
X85900404Y-112491560D01*
X86117881Y-111966523D01*
X86228750Y-111409148D01*
X86228750Y-110840852D01*
X358271250Y-110840852D01*
X358271250Y-111409148D01*
X358382119Y-111966523D01*
X358599596Y-112491560D01*
X358915324Y-112964080D01*
X359317170Y-113365926D01*
X359789690Y-113681654D01*
X360314727Y-113899131D01*
X360872102Y-114010000D01*
X361440398Y-114010000D01*
X361997773Y-113899131D01*
X362522810Y-113681654D01*
X362995330Y-113365926D01*
X363397176Y-112964080D01*
X363712904Y-112491560D01*
X363930381Y-111966523D01*
X364041250Y-111409148D01*
X364041250Y-110840852D01*
X363930381Y-110283477D01*
X363712904Y-109758440D01*
X363397176Y-109285920D01*
X362995330Y-108884074D01*
X362522810Y-108568346D01*
X361997773Y-108350869D01*
X361440398Y-108240000D01*
X360872102Y-108240000D01*
X360314727Y-108350869D01*
X359789690Y-108568346D01*
X359317170Y-108884074D01*
X358915324Y-109285920D01*
X358599596Y-109758440D01*
X358382119Y-110283477D01*
X358271250Y-110840852D01*
X86228750Y-110840852D01*
X86117881Y-110283477D01*
X85900404Y-109758440D01*
X85584676Y-109285920D01*
X85182830Y-108884074D01*
X84710310Y-108568346D01*
X84185273Y-108350869D01*
X83627898Y-108240000D01*
X83059602Y-108240000D01*
X82502227Y-108350869D01*
X81977190Y-108568346D01*
X81504670Y-108884074D01*
X81102824Y-109285920D01*
X80787096Y-109758440D01*
X80569619Y-110283477D01*
X80458750Y-110840852D01*
X69115000Y-110840852D01*
X69115000Y-107899200D01*
X69192476Y-106491394D01*
X69420647Y-105120554D01*
X69797870Y-103783021D01*
X70319585Y-102494967D01*
X70979496Y-101271936D01*
X71769633Y-100128703D01*
X72660313Y-99102285D01*
X87915000Y-99102285D01*
X87915000Y-99857715D01*
X88062377Y-100598628D01*
X88351467Y-101296554D01*
X88771161Y-101924670D01*
X89305330Y-102458839D01*
X89933446Y-102878533D01*
X90631372Y-103167623D01*
X91372285Y-103315000D01*
X92127715Y-103315000D01*
X92868628Y-103167623D01*
X93566554Y-102878533D01*
X94194670Y-102458839D01*
X94728839Y-101924670D01*
X95148533Y-101296554D01*
X95437623Y-100598628D01*
X95585000Y-99857715D01*
X95585000Y-99102285D01*
X167925000Y-99102285D01*
X167925000Y-99857715D01*
X168072377Y-100598628D01*
X168361467Y-101296554D01*
X168781161Y-101924670D01*
X169315330Y-102458839D01*
X169943446Y-102878533D01*
X170641372Y-103167623D01*
X171382285Y-103315000D01*
X172137715Y-103315000D01*
X172878628Y-103167623D01*
X173576554Y-102878533D01*
X174204670Y-102458839D01*
X174738839Y-101924670D01*
X175158533Y-101296554D01*
X175447623Y-100598628D01*
X175595000Y-99857715D01*
X175595000Y-99122285D01*
X268915000Y-99122285D01*
X268915000Y-99877715D01*
X269062377Y-100618628D01*
X269351467Y-101316554D01*
X269771161Y-101944670D01*
X270305330Y-102478839D01*
X270933446Y-102898533D01*
X271631372Y-103187623D01*
X272372285Y-103335000D01*
X273127715Y-103335000D01*
X273868628Y-103187623D01*
X274566554Y-102898533D01*
X275194670Y-102478839D01*
X275728839Y-101944670D01*
X276148533Y-101316554D01*
X276437623Y-100618628D01*
X276585000Y-99877715D01*
X276585000Y-99122285D01*
X348915000Y-99122285D01*
X348915000Y-99877715D01*
X349062377Y-100618628D01*
X349351467Y-101316554D01*
X349771161Y-101944670D01*
X350305330Y-102478839D01*
X350933446Y-102898533D01*
X351631372Y-103187623D01*
X352372285Y-103335000D01*
X353127715Y-103335000D01*
X353868628Y-103187623D01*
X354566554Y-102898533D01*
X355194670Y-102478839D01*
X355728839Y-101944670D01*
X356148533Y-101316554D01*
X356437623Y-100618628D01*
X356585000Y-99877715D01*
X356585000Y-99122285D01*
X356437623Y-98381372D01*
X356148533Y-97683446D01*
X355728839Y-97055330D01*
X355194670Y-96521161D01*
X354566554Y-96101467D01*
X353868628Y-95812377D01*
X353127715Y-95665000D01*
X352372285Y-95665000D01*
X351631372Y-95812377D01*
X350933446Y-96101467D01*
X350305330Y-96521161D01*
X349771161Y-97055330D01*
X349351467Y-97683446D01*
X349062377Y-98381372D01*
X348915000Y-99122285D01*
X276585000Y-99122285D01*
X276437623Y-98381372D01*
X276148533Y-97683446D01*
X275728839Y-97055330D01*
X275194670Y-96521161D01*
X274566554Y-96101467D01*
X273868628Y-95812377D01*
X273127715Y-95665000D01*
X272372285Y-95665000D01*
X271631372Y-95812377D01*
X270933446Y-96101467D01*
X270305330Y-96521161D01*
X269771161Y-97055330D01*
X269351467Y-97683446D01*
X269062377Y-98381372D01*
X268915000Y-99122285D01*
X175595000Y-99122285D01*
X175595000Y-99102285D01*
X175447623Y-98361372D01*
X175158533Y-97663446D01*
X174738839Y-97035330D01*
X174204670Y-96501161D01*
X173576554Y-96081467D01*
X172878628Y-95792377D01*
X172137715Y-95645000D01*
X171382285Y-95645000D01*
X170641372Y-95792377D01*
X169943446Y-96081467D01*
X169315330Y-96501161D01*
X168781161Y-97035330D01*
X168361467Y-97663446D01*
X168072377Y-98361372D01*
X167925000Y-99102285D01*
X95585000Y-99102285D01*
X95437623Y-98361372D01*
X95148533Y-97663446D01*
X94728839Y-97035330D01*
X94194670Y-96501161D01*
X93566554Y-96081467D01*
X92868628Y-95792377D01*
X92127715Y-95645000D01*
X91372285Y-95645000D01*
X90631372Y-95792377D01*
X89933446Y-96081467D01*
X89305330Y-96501161D01*
X88771161Y-97035330D01*
X88351467Y-97663446D01*
X88062377Y-98361372D01*
X87915000Y-99102285D01*
X72660313Y-99102285D01*
X72680445Y-99079085D01*
X73700933Y-98135756D01*
X74818783Y-97310099D01*
X76020478Y-96612099D01*
X77291505Y-96050184D01*
X78616536Y-95631132D01*
X79979530Y-95360015D01*
X81378474Y-95238854D01*
X81767002Y-95232750D01*
X362728550Y-95232750D01*
X364136356Y-95310226D01*
M02*
