G04 #@! TF.GenerationSoftware,KiCad,Pcbnew,5.1.6*
G04 #@! TF.CreationDate,2020-06-17T15:08:40+02:00*
G04 #@! TF.ProjectId,punk75_bottom,70756e6b-3735-45f6-926f-74746f6d2e6b,rev?*
G04 #@! TF.SameCoordinates,Original*
G04 #@! TF.FileFunction,Legend,Bot*
G04 #@! TF.FilePolarity,Positive*
%FSLAX46Y46*%
G04 Gerber Fmt 4.6, Leading zero omitted, Abs format (unit mm)*
G04 Created by KiCad (PCBNEW 5.1.6) date 2020-06-17 15:08:40*
%MOMM*%
%LPD*%
G01*
G04 APERTURE LIST*
%ADD10C,1.000000*%
%ADD11C,0.120000*%
%ADD12C,0.250000*%
%ADD13C,0.254000*%
G04 APERTURE END LIST*
D10*
X318496950Y-151193500D02*
X302113950Y-151193500D01*
X302113950Y-122872500D02*
X318496950Y-122872500D01*
X302113950Y-151193500D02*
X293985950Y-136969500D01*
X318623950Y-122872500D02*
X326624950Y-136969500D01*
X326624950Y-136969500D02*
X318496950Y-151193500D01*
X293985950Y-136969500D02*
X302113950Y-122872500D01*
X351231200Y-151130000D02*
X343103200Y-165354000D01*
X343103200Y-165354000D02*
X326720200Y-165354000D01*
X318592200Y-151130000D02*
X326720200Y-137033000D01*
X326720200Y-137033000D02*
X343103200Y-137033000D01*
X343230200Y-137033000D02*
X351231200Y-151130000D01*
X326720200Y-165354000D02*
X318592200Y-151130000D01*
X343230200Y-108712000D02*
X351231200Y-122809000D01*
X326809100Y-108712000D02*
X343192100Y-108712000D01*
X318592200Y-122809000D02*
X326720200Y-108712000D01*
X326720200Y-137033000D02*
X318592200Y-122809000D01*
X343103200Y-137033000D02*
X326720200Y-137033000D01*
X351231200Y-122809000D02*
X343103200Y-137033000D01*
D11*
X277063200Y-182422800D02*
X276453600Y-184962800D01*
X279247600Y-201066400D02*
X282651200Y-202895200D01*
X276758400Y-198983600D02*
X279247600Y-201066400D01*
X275488400Y-197104000D02*
X276758400Y-198983600D01*
X276402800Y-198628000D02*
X275488400Y-197104000D01*
X275539200Y-196951600D02*
X276402800Y-198628000D01*
X274828000Y-194564000D02*
X275539200Y-196951600D01*
X274980400Y-195122800D02*
X274828000Y-194564000D01*
X274777200Y-193548000D02*
X274980400Y-195122800D01*
X275082000Y-195681600D02*
X274777200Y-193548000D01*
X246938800Y-155956000D02*
X244805200Y-163423600D01*
X238810800Y-170738800D02*
X244805200Y-163372800D01*
X232968800Y-198628000D02*
X238810800Y-170738800D01*
X237693200Y-204266800D02*
X232968800Y-198628000D01*
X248869200Y-211023200D02*
X237693200Y-204266800D01*
X252425200Y-214731600D02*
X248869200Y-211023200D01*
X275386800Y-208432400D02*
X252425200Y-214731600D01*
X273812000Y-203200000D02*
X275386800Y-208432400D01*
X276402800Y-203098400D02*
X273812000Y-203200000D01*
X280263600Y-175056800D02*
X276402800Y-203098400D01*
X271322800Y-165049200D02*
X280263600Y-175056800D01*
X246938800Y-155956000D02*
X271322800Y-165049200D01*
D12*
X306477240Y-182837641D02*
X304697822Y-188659941D01*
X307425579Y-179849425D02*
X306477240Y-182837641D01*
X309094811Y-174752856D02*
X307425579Y-179849425D01*
X304879852Y-173421791D02*
X309094811Y-174752856D01*
X291824764Y-177832165D02*
G75*
G03*
X291349406Y-178016813I360649J-1632657D01*
G01*
X208928026Y-157152483D02*
G75*
G03*
X208906978Y-157129522I-35262J-11195D01*
G01*
X207480065Y-156535879D02*
X208906978Y-157129522D01*
X205895882Y-155880498D02*
X207480065Y-156535879D01*
X204016686Y-155109747D02*
X205895882Y-155880498D01*
X201883474Y-154271988D02*
X204016686Y-155109747D01*
X200276114Y-153726761D02*
X201883474Y-154271988D01*
X199076167Y-153401335D02*
X200276114Y-153726761D01*
X199076168Y-153401335D02*
G75*
G03*
X198699165Y-153501467I-95883J-398781D01*
G01*
X198699165Y-153501467D02*
G75*
G03*
X198458505Y-153846890I701638J-745385D01*
G01*
X197502611Y-156118719D02*
X198458505Y-153846890D01*
X196419479Y-158777680D02*
X197502611Y-156118719D01*
X195214060Y-161857515D02*
X196419479Y-158777680D01*
X194020105Y-164877639D02*
X195214060Y-161857515D01*
X192975673Y-167340409D02*
X194020105Y-164877639D01*
X192075212Y-169338041D02*
X192975673Y-167340409D01*
X191899725Y-169342405D02*
G75*
G03*
X192075212Y-169338041I86676J45108D01*
G01*
X191754449Y-168960967D02*
G75*
G03*
X191899725Y-169342406I1710106J432930D01*
G01*
X191029110Y-166082316D02*
X191754450Y-168960966D01*
X190209618Y-162762572D02*
X191029110Y-166082316D01*
X189284391Y-158913811D02*
X190209618Y-162762572D01*
X188361127Y-155069172D02*
X189284391Y-158913811D01*
X187547794Y-151762764D02*
X188361127Y-155069172D01*
X186826199Y-148882324D02*
X187547794Y-151762764D01*
X186826200Y-148882324D02*
G75*
G03*
X186696706Y-148544653I-1467000J-368914D01*
G01*
X186696706Y-148544654D02*
G75*
G03*
X186458215Y-148318402I-454200J-239947D01*
G01*
X184889245Y-147604450D02*
X186458215Y-148318402D01*
X183024203Y-146802348D02*
X184889245Y-147604450D01*
X180853284Y-145930080D02*
X183024203Y-146802348D01*
X239282060Y-158727195D02*
G75*
G03*
X239235315Y-158643193I-66721J17878D01*
G01*
X239235315Y-158643193D02*
G75*
G03*
X239235315Y-158643193I0J0D01*
G01*
X238580298Y-158452300D02*
X239235315Y-158643193D01*
X237783076Y-158247462D02*
X238580298Y-158452300D01*
X236827062Y-158037778D02*
X237783076Y-158247462D01*
X234325048Y-157523827D02*
X236827062Y-158037778D01*
X223014867Y-172837726D02*
X234325048Y-157523827D01*
X218667006Y-178715900D02*
X223014867Y-172837726D01*
X214980803Y-183679870D02*
X218667006Y-178715900D01*
X211655501Y-188146195D02*
X214980803Y-183679870D01*
X211547247Y-188242523D02*
G75*
G03*
X211655501Y-188146195I-179196J310373D01*
G01*
X211491658Y-188206072D02*
G75*
G03*
X211547246Y-188242523I36978J-4220D01*
G01*
X212055684Y-183273057D02*
X211491660Y-188206071D01*
X212701596Y-177762195D02*
X212055684Y-183273057D01*
X213499184Y-171197547D02*
X212701596Y-177762195D01*
X214306812Y-164564089D02*
X213499184Y-171197547D01*
X214985511Y-158828322D02*
X214306812Y-164564089D01*
X215561673Y-153845295D02*
X214985511Y-158828322D01*
X215561673Y-153845294D02*
G75*
G03*
X215596919Y-153152687I-5415563J622787D01*
G01*
X215596918Y-153152688D02*
G75*
G03*
X215469583Y-152687422I-958541J-12279D01*
G01*
X215469584Y-152687422D02*
G75*
G03*
X215127197Y-152315854I-990167J-568871D01*
G01*
X215127197Y-152315854D02*
G75*
G03*
X214496442Y-151995143I-1515909J-2200775D01*
G01*
X213444488Y-151670079D02*
X214496442Y-151995143D01*
X212616236Y-151478631D02*
X213444488Y-151670079D01*
X212616236Y-151478631D02*
G75*
G03*
X211901533Y-151380741I-1224294J-6280689D01*
G01*
X211901533Y-151380741D02*
G75*
G03*
X211353906Y-151367237I-396302J-4960497D01*
G01*
X211353906Y-151367237D02*
G75*
G03*
X211198087Y-151490610I5065J-166482D01*
G01*
X211198088Y-151490611D02*
G75*
G03*
X211052188Y-152244641I5253142J-1407575D01*
G01*
X208552307Y-172904906D02*
X211052188Y-152244641D01*
X206179533Y-192555554D02*
X208552307Y-172904906D01*
X205862438Y-195604924D02*
X206179533Y-192555554D01*
X205862439Y-195604923D02*
G75*
G03*
X205836656Y-196652952I8338248J-729464D01*
G01*
X205836655Y-196652953D02*
G75*
G03*
X206054630Y-197127082I681064J25941D01*
G01*
X206054631Y-197127081D02*
G75*
G03*
X206601522Y-197422386I847123J914772D01*
G01*
X208222134Y-197790116D02*
X206601522Y-197422386D01*
X108867663Y-179812537D02*
X105942119Y-178982540D01*
X111710233Y-180530045D02*
X108867663Y-179812537D01*
X111710232Y-180530045D02*
G75*
G03*
X113449440Y-180832217I3356536J14162921D01*
G01*
X113449441Y-180832215D02*
G75*
G03*
X114816273Y-180857609I819886J7332983D01*
G01*
X114816273Y-180857610D02*
G75*
G03*
X116251827Y-180638150I-695163J9352196D01*
G01*
X116251827Y-180638150D02*
G75*
G03*
X119368168Y-179245469I-2041901J8752064D01*
G01*
X119368169Y-179245469D02*
G75*
G03*
X121845989Y-176757799I-5753268J8208329D01*
G01*
X121845989Y-176757799D02*
G75*
G03*
X123907886Y-172818499I-14623552J10163484D01*
G01*
X123907886Y-172818499D02*
G75*
G03*
X125799998Y-166899910I-61146989J22809803D01*
G01*
X127325723Y-161205825D02*
X125799998Y-166899910D01*
X122013131Y-159782320D02*
X127325723Y-161205825D01*
X116700539Y-158358815D02*
X122013131Y-159782320D01*
X115028800Y-164597834D02*
X116700539Y-158358815D01*
X114352156Y-167037783D02*
X115028800Y-164597834D01*
X113701890Y-169205474D02*
X114352156Y-167037783D01*
X113120698Y-171011966D02*
X113701890Y-169205474D01*
X112859209Y-171522245D02*
G75*
G03*
X113120698Y-171011966I-1505817J1093783D01*
G01*
X112252606Y-171911331D02*
G75*
G03*
X112859208Y-171522246I-194917J971287D01*
G01*
X111346281Y-171910342D02*
G75*
G03*
X112252605Y-171911331I455612J2244970D01*
G01*
X110433995Y-171544646D02*
G75*
G03*
X111346282Y-171910343I1455209J2309472D01*
G01*
X109818808Y-170905200D02*
G75*
G03*
X110433996Y-171544646I1600274J923921D01*
G01*
X109593256Y-169240420D02*
G75*
G03*
X109818807Y-170905200I2143940J-557200D01*
G01*
X112030527Y-160112070D02*
X109593256Y-169240421D01*
X114596315Y-150975220D02*
X112030527Y-160112070D01*
X115603472Y-149803285D02*
G75*
G03*
X114596315Y-150975220I774269J-1684146D01*
G01*
X116488868Y-149622689D02*
G75*
G03*
X115603472Y-149803286I-56538J-1983480D01*
G01*
X117324701Y-149866350D02*
G75*
G03*
X116488868Y-149622689I-884975J-1480327D01*
G01*
X117964084Y-150501200D02*
G75*
G03*
X117324702Y-149866350I-1600019J-972041D01*
G01*
X118296172Y-151413045D02*
G75*
G03*
X117964084Y-150501200I-2454318J-377450D01*
G01*
X118296171Y-151413045D02*
G75*
G03*
X118600268Y-152145449I1642351J252578D01*
G01*
X118600269Y-152145449D02*
G75*
G03*
X119208430Y-152650884I1323987J974479D01*
G01*
X119208430Y-152650886D02*
G75*
G03*
X120457459Y-153126719I3367179J6961382D01*
G01*
X123680569Y-154017453D02*
X120457459Y-153126719D01*
X128878637Y-155410270D02*
X123680569Y-154017453D01*
X131551821Y-145644377D02*
X128878637Y-155410270D01*
X133143155Y-139882255D02*
X131551821Y-145644377D01*
X133748581Y-137989128D02*
X133143155Y-139882255D01*
X133961897Y-137997115D02*
G75*
G03*
X133748581Y-137989128I-107937J-30159D01*
G01*
X134042442Y-138764066D02*
G75*
G03*
X133961896Y-137997116I-2303805J145756D01*
G01*
X134042442Y-138764067D02*
G75*
G03*
X134057070Y-140595193I12849687J-812973D01*
G01*
X134057070Y-140595192D02*
G75*
G03*
X134369936Y-142031977I5435696J431188D01*
G01*
X134369937Y-142031978D02*
G75*
G03*
X135163082Y-143761110I11125808J4056890D01*
G01*
X137075686Y-147082574D02*
X135163082Y-143761110D01*
X140351482Y-153448264D02*
G75*
G03*
X137075686Y-147082574I-55349616J-24457305D01*
G01*
X142780817Y-160035331D02*
G75*
G03*
X140351483Y-153448264I-53637873J-16040334D01*
G01*
X210727866Y-198306047D02*
X208222134Y-197790116D01*
X221518916Y-183607668D02*
X210727866Y-198306047D01*
X225698866Y-177933343D02*
X221518916Y-183607668D01*
X229318048Y-173062398D02*
X225698866Y-177933343D01*
X232490616Y-168820707D02*
X229318048Y-173062398D01*
X232915767Y-168349155D02*
G75*
G03*
X232490616Y-168820707I2375519J-2569199D01*
G01*
X233148765Y-168462509D02*
G75*
G03*
X232915766Y-168349155I-138597J11256D01*
G01*
X232793917Y-172571342D02*
X233148763Y-168462509D01*
X232237859Y-177978803D02*
X232793917Y-172571342D01*
X231344601Y-185517995D02*
X232237859Y-177978803D01*
X229167633Y-203246968D02*
X231344601Y-185517995D01*
X231420922Y-204008507D02*
X229167633Y-203246968D01*
X232288343Y-204287819D02*
X231420922Y-204008507D01*
X233026214Y-204494442D02*
X232288343Y-204287819D01*
X233639271Y-204642846D02*
X233026214Y-204494442D01*
X233639273Y-204642845D02*
G75*
G03*
X233721553Y-204593358I15496J67380D01*
G01*
X233721554Y-204593359D02*
G75*
G03*
X233749845Y-204447231I-1019645J273212D01*
G01*
X234557830Y-197783703D02*
X233749845Y-204447231D01*
X235450646Y-190397907D02*
X234557830Y-197783703D01*
X236501971Y-181659665D02*
X235450646Y-190397907D01*
X237553273Y-172921507D02*
X236501971Y-181659665D01*
X238446015Y-165535986D02*
X237553273Y-172921507D01*
X239253963Y-158872323D02*
X238446015Y-165535986D01*
X239282060Y-158727195D02*
G75*
G03*
X239253963Y-158872323I1012607J-271327D01*
G01*
X136254980Y-127881384D02*
X135413818Y-131020643D01*
X136254980Y-127881384D02*
X136254980Y-127881384D01*
X123697945Y-124516736D02*
X136254980Y-127881384D01*
X111140909Y-121152089D02*
X123697945Y-124516736D01*
X110170337Y-124774311D02*
X111140909Y-121152089D01*
X109199766Y-128396533D02*
X110170337Y-124774311D01*
X116685691Y-130402380D02*
X109199766Y-128396533D01*
X124171616Y-132408228D02*
X116685691Y-130402380D01*
X254491169Y-186693522D02*
X251533408Y-194336867D01*
X209973995Y-154863920D02*
X208420521Y-153866100D01*
X207662459Y-164115047D02*
X209973995Y-154863920D01*
X197268460Y-194789307D02*
X207662459Y-164115047D01*
X192206343Y-197448036D02*
X197268460Y-194789307D01*
X185726013Y-193536780D02*
X192206343Y-197448036D01*
X177598133Y-192028108D02*
X185726013Y-193536780D01*
X176006617Y-191099772D02*
X177598133Y-192028108D01*
X170897475Y-189563485D02*
X176006617Y-191099772D01*
X156263849Y-187984570D02*
X170897475Y-189563485D01*
X159077274Y-176860365D02*
X156263849Y-187984570D01*
X173900826Y-141517618D02*
X159077274Y-176860365D01*
X187879476Y-142419144D02*
X173900826Y-141517618D01*
X189582255Y-146054038D02*
X187879476Y-142419144D01*
X208382478Y-153935584D02*
X189582255Y-146054038D01*
X178681999Y-145106699D02*
X180853284Y-145930080D01*
X178681999Y-145106699D02*
G75*
G03*
X178681999Y-145106699I0J0D01*
G01*
X178681999Y-145106699D02*
G75*
G03*
X178681999Y-145106699I0J0D01*
G01*
X176818562Y-144455677D02*
X178681999Y-145106699D01*
X175218920Y-143935731D02*
X176818562Y-144455677D01*
X175218921Y-143935731D02*
G75*
G03*
X175014078Y-143996245I-57810J-181269D01*
G01*
X175014078Y-143996247D02*
G75*
G03*
X174961656Y-144231036I206097J-169262D01*
G01*
X175798157Y-147513600D02*
X174961656Y-144231036D01*
X176779868Y-151233499D02*
X175798157Y-147513600D01*
X177987000Y-155600403D02*
X176779868Y-151233499D01*
X179201994Y-159970223D02*
X177987000Y-155600403D01*
X180208194Y-163699959D02*
X179201994Y-159970223D01*
X181079403Y-167001920D02*
X180208194Y-163699959D01*
X181070051Y-167247974D02*
G75*
G03*
X181079403Y-167001920I-399957J138406D01*
G01*
X180918318Y-167438380D02*
G75*
G03*
X181070051Y-167247974I-193534J309887D01*
G01*
X177756449Y-169409745D02*
X180918318Y-167438379D01*
X174173236Y-171615699D02*
X177756449Y-169409745D01*
X169938776Y-174176417D02*
X174173236Y-171615699D01*
X165718509Y-176728143D02*
X169938776Y-174176417D01*
X162182143Y-178904689D02*
X165718509Y-176728143D01*
X159043856Y-180859796D02*
X162182143Y-178904689D01*
X159043855Y-180859796D02*
G75*
G03*
X159015295Y-180974136I44870J-71945D01*
G01*
X159015296Y-180974137D02*
G75*
G03*
X159129261Y-181074648I206405J119168D01*
G01*
X160874541Y-181806814D02*
X159129261Y-181074648D01*
X162861837Y-182624447D02*
X160874541Y-181806814D01*
X165201920Y-183561575D02*
X162861837Y-182624447D01*
X171286906Y-185972971D02*
X165201920Y-183561575D01*
X174989459Y-183706414D02*
X171286906Y-185972971D01*
X176796229Y-182589760D02*
X174989459Y-183706414D01*
X179237212Y-181060766D02*
X176796229Y-182589760D01*
X181851326Y-179410608D02*
X179237212Y-181060766D01*
X184250566Y-177882778D02*
X181851326Y-179410608D01*
X187316207Y-175953822D02*
X184250566Y-177882778D01*
X188752157Y-175189378D02*
G75*
G03*
X187316207Y-175953822I5173228J-11448399D01*
G01*
X189398487Y-175106841D02*
G75*
G03*
X188752156Y-175189379I-188512J-1095698D01*
G01*
X189643965Y-175445650D02*
G75*
G03*
X189398487Y-175106840I-296254J43688D01*
G01*
X189461709Y-176180532D02*
G75*
G03*
X189643965Y-175445649I-3697198J1306972D01*
G01*
X188687665Y-178330485D02*
X189461710Y-176180532D01*
X187727326Y-180881697D02*
X188687665Y-178330485D01*
X186620391Y-183693669D02*
X187727326Y-180881697D01*
X185543720Y-186433906D02*
X186620391Y-183693669D01*
X184680910Y-188756372D02*
X185543720Y-186433906D01*
X183963766Y-190775461D02*
X184680910Y-188756372D01*
X183963766Y-190775459D02*
G75*
G03*
X184031856Y-190918771I106175J-37386D01*
G01*
X184235824Y-190996543D02*
X184031856Y-190918771D01*
X185628002Y-191558450D02*
X184235824Y-190996543D01*
X187233186Y-192207927D02*
X185628002Y-191558450D01*
X189086552Y-192960141D02*
X187233186Y-192207927D01*
X190924099Y-193703568D02*
X189086552Y-192960141D01*
X192477671Y-194324777D02*
X190924099Y-193703568D01*
X193876469Y-194879749D02*
X192477671Y-194324777D01*
X193876470Y-194879748D02*
G75*
G03*
X193911698Y-194875365I13615J34332D01*
G01*
X193911698Y-194875365D02*
G75*
G03*
X193969124Y-194801719I-97714J135404D01*
G01*
X201445880Y-176019348D02*
X193969124Y-194801719D01*
X208925254Y-157230086D02*
X201445880Y-176019348D01*
X208925253Y-157230086D02*
G75*
G03*
X208928025Y-157152483I-107222J42681D01*
G01*
X144402033Y-166989868D02*
G75*
G03*
X142780817Y-160035332I-57228238J-9674601D01*
G01*
X145261375Y-174455062D02*
G75*
G03*
X144402032Y-166989868I-70977195J-4388354D01*
G01*
X145592944Y-179817921D02*
X145261375Y-174455062D01*
X151120759Y-181444856D02*
X145592944Y-179817921D01*
X156648574Y-183071791D02*
X151120759Y-181444856D01*
X156288766Y-178429695D02*
X156648574Y-183071791D01*
X156288766Y-178429695D02*
G75*
G03*
X155415608Y-171627352I-67987330J-5269732D01*
G01*
X155415609Y-171627353D02*
G75*
G03*
X153863382Y-164944408I-67217865J-12090746D01*
G01*
X153863382Y-164944408D02*
G75*
G03*
X151655848Y-158476683I-65153154J-18627175D01*
G01*
X151655847Y-158476683D02*
G75*
G03*
X148823430Y-152317808I-60944603J-24297200D01*
G01*
X146392709Y-147679837D02*
X148823430Y-152317808D01*
X156092290Y-150278832D02*
X146392709Y-147679837D01*
X163673903Y-152270181D02*
X156092290Y-150278832D01*
X163673903Y-152270180D02*
G75*
G03*
X165267667Y-152308812I880252J3420107D01*
G01*
X165267667Y-152308812D02*
G75*
G03*
X166079681Y-151476690I-209795J1016982D01*
G01*
X166079682Y-151476691D02*
G75*
G03*
X166534038Y-148124788I-37625464J6806947D01*
G01*
X166642104Y-146892409D02*
X166534038Y-148124788D01*
X122672852Y-138001692D02*
X124171616Y-132408228D01*
X121174088Y-143595156D02*
X122672852Y-138001692D01*
X119753507Y-142086750D02*
X121174088Y-143595156D01*
X119753507Y-142086750D02*
G75*
G03*
X118993642Y-141408339I-4289422J-4039679D01*
G01*
X118993642Y-141408339D02*
G75*
G03*
X117979329Y-140726623I-7247699J-9688283D01*
G01*
X117979329Y-140726623D02*
G75*
G03*
X116823465Y-140105420I-7032954J-11700171D01*
G01*
X116823465Y-140105419D02*
G75*
G03*
X115629571Y-139607861I-5548400J-11632260D01*
G01*
X115629572Y-139607862D02*
G75*
G03*
X113023195Y-139008875I-3812940J-10621217D01*
G01*
X113023195Y-139008875D02*
G75*
G03*
X110558362Y-139115957I-879451J-8178184D01*
G01*
X110558362Y-139115957D02*
G75*
G03*
X108358302Y-139929796I1415886J-7208222D01*
G01*
X108358303Y-139929795D02*
G75*
G03*
X106522843Y-141396662I3639026J-6435207D01*
G01*
X106522843Y-141396662D02*
G75*
G03*
X105538454Y-142817915I4892576J-4440231D01*
G01*
X105538454Y-142817915D02*
G75*
G03*
X104715070Y-144758731I12801429J-6576024D01*
G01*
X103681260Y-148125165D02*
X104715070Y-144758731D01*
X101507090Y-156140069D02*
X103681260Y-148125165D01*
X98002883Y-169217942D02*
X101507090Y-156140069D01*
X98826269Y-171957820D02*
X98002883Y-169217942D01*
X98826270Y-171957819D02*
G75*
G03*
X99323979Y-173322335I12035005J3616759D01*
G01*
X99323979Y-173322336D02*
G75*
G03*
X99940200Y-174495939I8022311J3463675D01*
G01*
X99940199Y-174495939D02*
G75*
G03*
X100721963Y-175554684I7287642J4563107D01*
G01*
X100721964Y-175554684D02*
G75*
G03*
X101716658Y-176573989I8904738J7694740D01*
G01*
X101716657Y-176573989D02*
G75*
G03*
X103047390Y-177647733I9887556J10892547D01*
G01*
X103047389Y-177647733D02*
G75*
G03*
X104289775Y-178364049I4273010J5975584D01*
G01*
X104289775Y-178364050D02*
G75*
G03*
X105942119Y-178982540I5429291J11988341D01*
G01*
X251533408Y-194336867D02*
X250165180Y-198150459D01*
X257092153Y-190962944D02*
X259276831Y-185488817D01*
X255116237Y-195834080D02*
X257092153Y-190962944D01*
X253428245Y-199933985D02*
X255116237Y-195834080D01*
X252898838Y-201064696D02*
G75*
G03*
X253428245Y-199933985I-12175613J6390007D01*
G01*
X252104844Y-202098041D02*
G75*
G03*
X252898836Y-201064696I-2579882J2804020D01*
G01*
X237183175Y-192189897D02*
X241424964Y-181232445D01*
X237183176Y-192189898D02*
G75*
G03*
X236405172Y-194577959I22057046J-8506701D01*
G01*
X236405173Y-194577959D02*
G75*
G03*
X236121932Y-196370113I8356879J-2239219D01*
G01*
X236121931Y-196370114D02*
G75*
G03*
X236251705Y-198060834I6617437J-342409D01*
G01*
X236251705Y-198060834D02*
G75*
G03*
X236823397Y-199766680I7452030J1548732D01*
G01*
X134572656Y-134159902D02*
X150742713Y-138492655D01*
X135413818Y-131020643D02*
X134572656Y-134159902D01*
X302839009Y-172802217D02*
X304879852Y-173421791D01*
X302839009Y-172802217D02*
X302839009Y-172802217D01*
X300124590Y-172025463D02*
X302839009Y-172802217D01*
X287635026Y-169282980D02*
G75*
G03*
X286036012Y-169469168I453405J-10853291D01*
G01*
X286036012Y-169469168D02*
G75*
G03*
X282709322Y-170608314I2383406J-12387446D01*
G01*
X282709322Y-170608315D02*
G75*
G03*
X280566536Y-172497769I2584002J-5090224D01*
G01*
X280566535Y-172497769D02*
G75*
G03*
X278885579Y-175954556I11196135J-7581524D01*
G01*
X276752088Y-183179332D02*
X278885579Y-175954556D01*
X288222270Y-186651677D02*
X286743566Y-192398594D01*
X289419761Y-182295795D02*
X288222270Y-186651677D01*
X290159851Y-179994224D02*
X289419761Y-182295795D01*
X290752470Y-178641414D02*
G75*
G03*
X290159851Y-179994224I10027623J-5198964D01*
G01*
X291349405Y-178016813D02*
G75*
G03*
X290752470Y-178641414I769691J-1333148D01*
G01*
X255251976Y-167424848D02*
X261260665Y-169831640D01*
X289610553Y-196925343D02*
X291143943Y-191202657D01*
X288258257Y-196562997D02*
X289610553Y-196925343D01*
X286968127Y-195819438D02*
G75*
G03*
X288258257Y-196562997I2036762J2042916D01*
G01*
X286475452Y-194638606D02*
G75*
G03*
X286968128Y-195819438I1676016J6085D01*
G01*
X286743566Y-192398594D02*
G75*
G03*
X286475453Y-194638607I8943790J-2206558D01*
G01*
X293979778Y-181868573D02*
X295282224Y-178257177D01*
X293373364Y-183651055D02*
X293979778Y-181868573D01*
X292609493Y-186100161D02*
X293373364Y-183651055D01*
X291826358Y-188747175D02*
X292609493Y-186100161D01*
X291143943Y-191202657D02*
X291826358Y-188747175D01*
X252910114Y-166487253D02*
X255251976Y-167424848D01*
X250848327Y-165662750D02*
X252910114Y-166487253D01*
X249092530Y-164961328D02*
X250848327Y-165662750D01*
X248698565Y-164805972D02*
X249092530Y-164961328D01*
X248698566Y-164805971D02*
G75*
G03*
X248436674Y-164841189I-99090J-254507D01*
G01*
X296325124Y-216504566D02*
X294591149Y-222153489D01*
X298356383Y-209799826D02*
X296325124Y-216504566D01*
X300483627Y-202685785D02*
X298356383Y-209799826D01*
X302624721Y-195520285D02*
X300483627Y-202685785D01*
X304697822Y-188659941D02*
X302624721Y-195520285D01*
X236823398Y-199766679D02*
G75*
G03*
X237866405Y-201608991I13063660J6179462D01*
G01*
X237866404Y-201608992D02*
G75*
G03*
X239209842Y-203406112I17461498J11652648D01*
G01*
X239209842Y-203406112D02*
G75*
G03*
X240542938Y-204741150I8124148J6779235D01*
G01*
X240542939Y-204741151D02*
G75*
G03*
X242227477Y-205943390I8633592J10315821D01*
G01*
X244730871Y-207354046D02*
X242227477Y-205943390D01*
X297236879Y-171229471D02*
X300124590Y-172025463D01*
X294610605Y-170537487D02*
X297236879Y-171229471D01*
X291205765Y-169705980D02*
X294610605Y-170537487D01*
X291205765Y-169705980D02*
G75*
G03*
X289184798Y-169346711I-4463190J-19242598D01*
G01*
X289184798Y-169346711D02*
G75*
G03*
X287635026Y-169282979I-1158614J-9299314D01*
G01*
X277573278Y-177147466D02*
X273345877Y-188109325D01*
X277573279Y-177147465D02*
G75*
G03*
X277534950Y-176527659I-696336J268026D01*
G01*
X277534950Y-176527659D02*
G75*
G03*
X277115540Y-176149124I-735333J-393118D01*
G01*
X271314091Y-173783924D02*
X277115540Y-176149124D01*
X265481708Y-171425119D02*
X271314091Y-173783924D01*
X166741849Y-145669106D02*
X166642104Y-146892409D01*
X166821975Y-144606702D02*
X166741849Y-145669106D01*
X166859435Y-143975804D02*
X166821975Y-144606702D01*
X166912769Y-142825409D02*
X166859435Y-143975804D01*
X150742713Y-138492655D02*
X166912769Y-142825409D01*
X244730871Y-207354046D02*
G75*
G03*
X250565132Y-209701710I14514671J27647609D01*
G01*
X250565133Y-209701710D02*
G75*
G03*
X256321086Y-210602583I6421277J22188785D01*
G01*
X256321086Y-210602584D02*
G75*
G03*
X261238080Y-210005226I478263J16598444D01*
G01*
X261238080Y-210005226D02*
G75*
G03*
X264601806Y-207926616I-1893174J6824636D01*
G01*
X264601806Y-207926616D02*
G75*
G03*
X265088192Y-207285485I-3502953J3162533D01*
G01*
X256602905Y-181304584D02*
X254491169Y-186693522D01*
X276328193Y-198661319D02*
G75*
G03*
X278247868Y-200460455I10782030J9580696D01*
G01*
X278247867Y-200460455D02*
G75*
G03*
X280763658Y-202106811I11249942J14445636D01*
G01*
X280763658Y-202106812D02*
G75*
G03*
X283634215Y-203408995I10538753J19416772D01*
G01*
X287048909Y-204672793D02*
X283634215Y-203408995D01*
X283824462Y-215379847D02*
X287048909Y-204672793D01*
X251151654Y-202532372D02*
G75*
G03*
X252104844Y-202098041I-187066J1673646D01*
G01*
X250245054Y-202286958D02*
G75*
G03*
X251151654Y-202532372I764423J1026630D01*
G01*
X249557482Y-201438164D02*
G75*
G03*
X250245053Y-202286957I2006418J922433D01*
G01*
X249473101Y-200469446D02*
G75*
G03*
X249557482Y-201438165I1394068J-366603D01*
G01*
X250165180Y-198150459D02*
X249473100Y-200469446D01*
X275284119Y-188903721D02*
X276752088Y-183179332D01*
X275284119Y-188903721D02*
G75*
G03*
X274714461Y-192179627I24648728J-5973731D01*
G01*
X274714461Y-192179626D02*
G75*
G03*
X274730179Y-194576962I10558185J-1129494D01*
G01*
X274730179Y-194576963D02*
G75*
G03*
X275283657Y-196905770I10478155J1260122D01*
G01*
X275283657Y-196905770D02*
G75*
G03*
X276328192Y-198661319I5092748J1841618D01*
G01*
X265481708Y-171425119D02*
G75*
G03*
X264982195Y-171431567I-242043J-600765D01*
G01*
X264982195Y-171431567D02*
G75*
G03*
X264890096Y-171525799I69218J-159774D01*
G01*
X263239841Y-175589651D02*
X264890096Y-171525799D01*
X261414241Y-180120705D02*
X263239841Y-175589651D01*
X259276831Y-185488817D02*
X261414241Y-180120705D01*
X265750241Y-206183492D02*
X265088192Y-207285485D01*
X266448841Y-204890993D02*
X265750241Y-206183492D01*
X267085523Y-203571912D02*
X266448841Y-204890993D01*
X269501728Y-197904098D02*
X267085523Y-203571912D01*
X273345877Y-188109325D02*
X269501728Y-197904098D01*
X280600015Y-226086900D02*
X283824462Y-215379847D01*
X286425813Y-227647918D02*
X280600015Y-226086900D01*
X292251612Y-229208936D02*
X286425813Y-227647918D01*
X293731261Y-224817254D02*
X292251612Y-229208936D01*
X294591149Y-222153489D02*
X293731261Y-224817254D01*
X261260665Y-169831640D02*
X260566056Y-171375955D01*
X260566056Y-171375955D02*
X260102782Y-172468730D01*
X260102782Y-172468730D02*
X258495033Y-176512520D01*
X258495033Y-176512520D02*
X256602905Y-181304584D01*
X291824764Y-177832164D02*
G75*
G03*
X291824764Y-177832164I0J-1D01*
G01*
X292465325Y-177741336D02*
G75*
G03*
X291824764Y-177832164I271830J-4221255D01*
G01*
X293157624Y-177747843D02*
G75*
G03*
X292465324Y-177741337I-390206J-4684814D01*
G01*
X293796964Y-177859204D02*
G75*
G03*
X293157624Y-177747843I-941190J-3512583D01*
G01*
X295282224Y-178257177D02*
X293796965Y-177859203D01*
X248436674Y-164841188D02*
G75*
G03*
X248087109Y-165165643I1300299J-1751468D01*
G01*
X248087110Y-165165643D02*
G75*
G03*
X247717276Y-165679221I2692689J-2328991D01*
G01*
X247717276Y-165679221D02*
G75*
G03*
X247381942Y-166328202I5404203J-3203517D01*
G01*
X245506115Y-170801935D02*
X247381942Y-166328202D01*
X241424964Y-181232445D02*
X245506115Y-170801935D01*
D13*
G36*
X239134074Y-158748496D02*
G01*
X233572389Y-204505994D01*
X229305612Y-203157386D01*
X233247390Y-168416318D01*
X233247759Y-168391424D01*
X233243264Y-168366937D01*
X233234078Y-168343797D01*
X233220554Y-168322894D01*
X233203212Y-168305031D01*
X233182719Y-168290894D01*
X233168367Y-168284083D01*
X232914367Y-168182483D01*
X232890456Y-168175547D01*
X232865652Y-168173409D01*
X232840907Y-168176152D01*
X232817172Y-168183669D01*
X232795360Y-168195671D01*
X232776309Y-168211699D01*
X232765023Y-168224975D01*
X210834507Y-197934049D01*
X211705307Y-188210121D01*
X234342413Y-157672817D01*
X239134074Y-158748496D01*
G37*
X239134074Y-158748496D02*
X233572389Y-204505994D01*
X229305612Y-203157386D01*
X233247390Y-168416318D01*
X233247759Y-168391424D01*
X233243264Y-168366937D01*
X233234078Y-168343797D01*
X233220554Y-168322894D01*
X233203212Y-168305031D01*
X233182719Y-168290894D01*
X233168367Y-168284083D01*
X232914367Y-168182483D01*
X232890456Y-168175547D01*
X232865652Y-168173409D01*
X232840907Y-168176152D01*
X232817172Y-168183669D01*
X232795360Y-168195671D01*
X232776309Y-168211699D01*
X232765023Y-168224975D01*
X210834507Y-197934049D01*
X211705307Y-188210121D01*
X234342413Y-157672817D01*
X239134074Y-158748496D01*
G36*
X213681138Y-151812528D02*
G01*
X215101146Y-152449084D01*
X215463850Y-153038478D01*
X213030696Y-173416143D01*
X213030358Y-173419306D01*
X210706811Y-198119618D01*
X206426270Y-197244053D01*
X205972584Y-196563524D01*
X206425023Y-192139676D01*
X211337209Y-151525517D01*
X213681138Y-151812528D01*
G37*
X213681138Y-151812528D02*
X215101146Y-152449084D01*
X215463850Y-153038478D01*
X213030696Y-173416143D01*
X213030358Y-173419306D01*
X210706811Y-198119618D01*
X206426270Y-197244053D01*
X205972584Y-196563524D01*
X206425023Y-192139676D01*
X211337209Y-151525517D01*
X213681138Y-151812528D01*
G36*
X187874122Y-142514088D02*
G01*
X189418153Y-146100223D01*
X189430192Y-146122015D01*
X189446251Y-146141039D01*
X189465714Y-146156565D01*
X189486157Y-146167315D01*
X208231357Y-153939715D01*
X208255179Y-153946951D01*
X208280000Y-153949400D01*
X209238969Y-153949400D01*
X209968270Y-154769863D01*
X209357528Y-157024908D01*
X209027099Y-156951479D01*
X198976732Y-153246041D01*
X198952641Y-153239760D01*
X198927788Y-153238299D01*
X198903127Y-153241715D01*
X198879607Y-153249877D01*
X198858130Y-153262470D01*
X198839523Y-153279011D01*
X198824501Y-153298865D01*
X198815898Y-153315572D01*
X192104264Y-169125198D01*
X186762178Y-148405892D01*
X186753629Y-148382510D01*
X186740683Y-148361244D01*
X186723837Y-148342913D01*
X186703738Y-148328221D01*
X186686100Y-148319577D01*
X175052900Y-143696777D01*
X175028974Y-143689895D01*
X175004164Y-143687813D01*
X174979426Y-143690611D01*
X174955708Y-143698182D01*
X174933924Y-143710234D01*
X174914909Y-143726305D01*
X174899395Y-143745776D01*
X174887977Y-143767900D01*
X174881095Y-143791826D01*
X174879013Y-143816636D01*
X174883147Y-143846989D01*
X180955530Y-167023251D01*
X159101973Y-180756909D01*
X159890562Y-171737425D01*
X173966737Y-141610359D01*
X187874122Y-142514088D01*
G37*
X187874122Y-142514088D02*
X189418153Y-146100223D01*
X189430192Y-146122015D01*
X189446251Y-146141039D01*
X189465714Y-146156565D01*
X189486157Y-146167315D01*
X208231357Y-153939715D01*
X208255179Y-153946951D01*
X208280000Y-153949400D01*
X209238969Y-153949400D01*
X209968270Y-154769863D01*
X209357528Y-157024908D01*
X209027099Y-156951479D01*
X198976732Y-153246041D01*
X198952641Y-153239760D01*
X198927788Y-153238299D01*
X198903127Y-153241715D01*
X198879607Y-153249877D01*
X198858130Y-153262470D01*
X198839523Y-153279011D01*
X198824501Y-153298865D01*
X198815898Y-153315572D01*
X192104264Y-169125198D01*
X186762178Y-148405892D01*
X186753629Y-148382510D01*
X186740683Y-148361244D01*
X186723837Y-148342913D01*
X186703738Y-148328221D01*
X186686100Y-148319577D01*
X175052900Y-143696777D01*
X175028974Y-143689895D01*
X175004164Y-143687813D01*
X174979426Y-143690611D01*
X174955708Y-143698182D01*
X174933924Y-143710234D01*
X174914909Y-143726305D01*
X174899395Y-143745776D01*
X174887977Y-143767900D01*
X174881095Y-143791826D01*
X174879013Y-143816636D01*
X174883147Y-143846989D01*
X180955530Y-167023251D01*
X159101973Y-180756909D01*
X159890562Y-171737425D01*
X173966737Y-141610359D01*
X187874122Y-142514088D01*
G36*
X158877824Y-180985958D02*
G01*
X158877431Y-181010851D01*
X158881902Y-181035343D01*
X158891065Y-181058492D01*
X158904568Y-181079408D01*
X158921892Y-181097288D01*
X158942372Y-181111445D01*
X158956161Y-181118045D01*
X171198961Y-186096445D01*
X171222832Y-186103518D01*
X171247623Y-186105797D01*
X171272383Y-186103196D01*
X171296160Y-186095815D01*
X171312775Y-186087319D01*
X189145604Y-175245770D01*
X189622799Y-175392599D01*
X183878591Y-190811263D01*
X183872228Y-190835333D01*
X183870683Y-190860181D01*
X183874015Y-190884853D01*
X183882097Y-190908401D01*
X183894617Y-190929920D01*
X183911095Y-190948583D01*
X183930897Y-190963673D01*
X183949703Y-190973222D01*
X193804903Y-194986422D01*
X193828770Y-194993506D01*
X193856534Y-194995745D01*
X196745979Y-194910761D01*
X192131740Y-197263119D01*
X185893397Y-193389309D01*
X185871061Y-193378312D01*
X185848646Y-193372164D01*
X177594370Y-191903612D01*
X176244847Y-191003930D01*
X176222878Y-190992217D01*
X176210479Y-190987833D01*
X170724079Y-189362233D01*
X170700856Y-189357652D01*
X156367872Y-187899208D01*
X159611913Y-174572339D01*
X158877824Y-180985958D01*
G37*
X158877824Y-180985958D02*
X158877431Y-181010851D01*
X158881902Y-181035343D01*
X158891065Y-181058492D01*
X158904568Y-181079408D01*
X158921892Y-181097288D01*
X158942372Y-181111445D01*
X158956161Y-181118045D01*
X171198961Y-186096445D01*
X171222832Y-186103518D01*
X171247623Y-186105797D01*
X171272383Y-186103196D01*
X171296160Y-186095815D01*
X171312775Y-186087319D01*
X189145604Y-175245770D01*
X189622799Y-175392599D01*
X183878591Y-190811263D01*
X183872228Y-190835333D01*
X183870683Y-190860181D01*
X183874015Y-190884853D01*
X183882097Y-190908401D01*
X183894617Y-190929920D01*
X183911095Y-190948583D01*
X183930897Y-190963673D01*
X183949703Y-190973222D01*
X193804903Y-194986422D01*
X193828770Y-194993506D01*
X193856534Y-194995745D01*
X196745979Y-194910761D01*
X192131740Y-197263119D01*
X185893397Y-193389309D01*
X185871061Y-193378312D01*
X185848646Y-193372164D01*
X177594370Y-191903612D01*
X176244847Y-191003930D01*
X176222878Y-190992217D01*
X176210479Y-190987833D01*
X170724079Y-189362233D01*
X170700856Y-189357652D01*
X156367872Y-187899208D01*
X159611913Y-174572339D01*
X158877824Y-180985958D01*
G36*
X209416937Y-157987129D02*
G01*
X197699432Y-194610672D01*
X197095255Y-195540176D01*
X194027420Y-194926609D01*
X208296317Y-159254367D01*
X208301112Y-159239923D01*
X208999500Y-156620970D01*
X209416937Y-157987129D01*
G37*
X209416937Y-157987129D02*
X197699432Y-194610672D01*
X197095255Y-195540176D01*
X194027420Y-194926609D01*
X208296317Y-159254367D01*
X208301112Y-159239923D01*
X208999500Y-156620970D01*
X209416937Y-157987129D01*
G36*
X290605537Y-169696380D02*
G01*
X308907547Y-174889513D01*
X301209340Y-199845792D01*
X289770519Y-196836109D01*
X295421883Y-178294227D01*
X295426772Y-178269815D01*
X295426805Y-178244919D01*
X295421980Y-178220494D01*
X295412483Y-178197481D01*
X295398679Y-178176762D01*
X295381098Y-178159134D01*
X295360415Y-178145275D01*
X295326208Y-178132850D01*
X292633808Y-177574050D01*
X292609053Y-177571404D01*
X292575277Y-177575688D01*
X291051277Y-177982088D01*
X291027966Y-177990830D01*
X291006808Y-178003952D01*
X290988617Y-178020949D01*
X290970408Y-178048004D01*
X290005208Y-179978404D01*
X289996120Y-180002357D01*
X286541720Y-192905557D01*
X286537681Y-192929952D01*
X286385281Y-195215952D01*
X286386068Y-195240836D01*
X286391694Y-195265088D01*
X286401944Y-195287777D01*
X286417602Y-195309359D01*
X287332002Y-196325359D01*
X287350390Y-196342142D01*
X287371700Y-196355016D01*
X287387083Y-196361161D01*
X289450042Y-197032822D01*
X286969952Y-204507478D01*
X284528487Y-203590548D01*
X280378961Y-201718201D01*
X277105953Y-199301211D01*
X275255338Y-196500280D01*
X274854063Y-193139600D01*
X275105925Y-190268370D01*
X278302129Y-178498222D01*
X280121133Y-173344377D01*
X282020960Y-171194573D01*
X283611830Y-170299708D01*
X287132287Y-169495033D01*
X290605537Y-169696380D01*
G37*
X290605537Y-169696380D02*
X308907547Y-174889513D01*
X301209340Y-199845792D01*
X289770519Y-196836109D01*
X295421883Y-178294227D01*
X295426772Y-178269815D01*
X295426805Y-178244919D01*
X295421980Y-178220494D01*
X295412483Y-178197481D01*
X295398679Y-178176762D01*
X295381098Y-178159134D01*
X295360415Y-178145275D01*
X295326208Y-178132850D01*
X292633808Y-177574050D01*
X292609053Y-177571404D01*
X292575277Y-177575688D01*
X291051277Y-177982088D01*
X291027966Y-177990830D01*
X291006808Y-178003952D01*
X290988617Y-178020949D01*
X290970408Y-178048004D01*
X290005208Y-179978404D01*
X289996120Y-180002357D01*
X286541720Y-192905557D01*
X286537681Y-192929952D01*
X286385281Y-195215952D01*
X286386068Y-195240836D01*
X286391694Y-195265088D01*
X286401944Y-195287777D01*
X286417602Y-195309359D01*
X287332002Y-196325359D01*
X287350390Y-196342142D01*
X287371700Y-196355016D01*
X287387083Y-196361161D01*
X289450042Y-197032822D01*
X286969952Y-204507478D01*
X284528487Y-203590548D01*
X280378961Y-201718201D01*
X277105953Y-199301211D01*
X275255338Y-196500280D01*
X274854063Y-193139600D01*
X275105925Y-190268370D01*
X278302129Y-178498222D01*
X280121133Y-173344377D01*
X282020960Y-171194573D01*
X283611830Y-170299708D01*
X287132287Y-169495033D01*
X290605537Y-169696380D01*
G36*
X292110625Y-228989606D02*
G01*
X280778874Y-225971104D01*
X289438509Y-197419050D01*
X292110625Y-228989606D01*
G37*
X292110625Y-228989606D02*
X280778874Y-225971104D01*
X289438509Y-197419050D01*
X292110625Y-228989606D01*
G36*
X301134034Y-199785940D02*
G01*
X292220815Y-228865938D01*
X286847117Y-204833568D01*
X289641271Y-196950063D01*
X301134034Y-199785940D01*
G37*
X301134034Y-199785940D02*
X292220815Y-228865938D01*
X286847117Y-204833568D01*
X289641271Y-196950063D01*
X301134034Y-199785940D01*
G36*
X306706502Y-174101163D02*
G01*
X305452180Y-174519270D01*
X294088342Y-172256559D01*
X293736488Y-170409324D01*
X306706502Y-174101163D01*
G37*
X306706502Y-174101163D02*
X305452180Y-174519270D01*
X294088342Y-172256559D01*
X293736488Y-170409324D01*
X306706502Y-174101163D01*
G36*
X289298539Y-169492817D02*
G01*
X289518311Y-169740060D01*
X285066500Y-170553832D01*
X284297558Y-170041204D01*
X287285043Y-169443707D01*
X289298539Y-169492817D01*
G37*
X289298539Y-169492817D02*
X289518311Y-169740060D01*
X285066500Y-170553832D01*
X284297558Y-170041204D01*
X287285043Y-169443707D01*
X289298539Y-169492817D01*
G36*
X280040044Y-177185211D02*
G01*
X278750110Y-176755233D01*
X279566259Y-174450812D01*
X280923258Y-172189148D01*
X281588574Y-171523832D01*
X282455634Y-171484421D01*
X280040044Y-177185211D01*
G37*
X280040044Y-177185211D02*
X278750110Y-176755233D01*
X279566259Y-174450812D01*
X280923258Y-172189148D01*
X281588574Y-171523832D01*
X282455634Y-171484421D01*
X280040044Y-177185211D01*
G36*
X292506936Y-193812678D02*
G01*
X290729519Y-192923969D01*
X294195482Y-181859549D01*
X292506936Y-193812678D01*
G37*
X292506936Y-193812678D02*
X290729519Y-192923969D01*
X294195482Y-181859549D01*
X292506936Y-193812678D01*
G36*
X294799667Y-180135689D02*
G01*
X294423670Y-182433449D01*
X294069310Y-181756943D01*
X294766939Y-180129143D01*
X294799667Y-180135689D01*
G37*
X294799667Y-180135689D02*
X294423670Y-182433449D01*
X294069310Y-181756943D01*
X294766939Y-180129143D01*
X294799667Y-180135689D01*
G36*
X300179584Y-203459698D02*
G01*
X293942620Y-223903080D01*
X292234495Y-216880787D01*
X299313519Y-202923563D01*
X300179584Y-203459698D01*
G37*
X300179584Y-203459698D02*
X293942620Y-223903080D01*
X292234495Y-216880787D01*
X299313519Y-202923563D01*
X300179584Y-203459698D01*
M02*
