M48
; DRILL file {KiCad 5.1.6} date Mon Jun 22 09:04:01 2020
; FORMAT={-:-/ absolute / inch / decimal}
; #@! TF.CreationDate,2020-06-22T09:04:01+02:00
; #@! TF.GenerationSoftware,Kicad,Pcbnew,5.1.6
FMAT,2
INCH
T1C0.1063
T2C0.1260
%
G90
G05
T1
X3.2812Y-4.375
X14.2188Y-5.1562
X4.625Y-6.0634
X6.875Y-6.8125
X13.625Y-8.3125
X3.875Y-8.3125
X12.125Y-7.5625
X8.375Y-8.3125
X14.2188Y-4.375
X5.375Y-7.5625
X10.625Y-6.815
X12.875Y-6.063
X9.125Y-6.065
X3.28Y-5.15
T2
X3.6126Y-9.2957
X10.7382Y-9.2965
X6.7622Y-3.9165
X13.8878Y-3.9173
X6.7626Y-9.2961
X3.6122Y-3.9165
X13.8874Y-9.2957
X10.7382Y-3.9173
T0
M30
