G04 #@! TF.GenerationSoftware,KiCad,Pcbnew,5.1.5*
G04 #@! TF.CreationDate,2020-05-20T20:25:39+02:00*
G04 #@! TF.ProjectId,punk75,70756e6b-3735-42e6-9b69-6361645f7063,rev?*
G04 #@! TF.SameCoordinates,Original*
G04 #@! TF.FileFunction,Legend,Bot*
G04 #@! TF.FilePolarity,Positive*
%FSLAX46Y46*%
G04 Gerber Fmt 4.6, Leading zero omitted, Abs format (unit mm)*
G04 Created by KiCad (PCBNEW 5.1.5) date 2020-05-20 20:25:39*
%MOMM*%
%LPD*%
G04 APERTURE LIST*
%ADD10C,0.150000*%
%ADD11C,1.000000*%
%ADD12C,0.300000*%
G04 APERTURE END LIST*
D10*
X103044047Y-225385380D02*
X103044047Y-226099666D01*
X103091666Y-226242523D01*
X103186904Y-226337761D01*
X103329761Y-226385380D01*
X103425000Y-226385380D01*
X102091666Y-226385380D02*
X102567857Y-226385380D01*
X102567857Y-225385380D01*
X101186904Y-226290142D02*
X101234523Y-226337761D01*
X101377380Y-226385380D01*
X101472619Y-226385380D01*
X101615476Y-226337761D01*
X101710714Y-226242523D01*
X101758333Y-226147285D01*
X101805952Y-225956809D01*
X101805952Y-225813952D01*
X101758333Y-225623476D01*
X101710714Y-225528238D01*
X101615476Y-225433000D01*
X101472619Y-225385380D01*
X101377380Y-225385380D01*
X101234523Y-225433000D01*
X101186904Y-225480619D01*
X100472619Y-225385380D02*
X100472619Y-226099666D01*
X100520238Y-226242523D01*
X100615476Y-226337761D01*
X100758333Y-226385380D01*
X100853571Y-226385380D01*
X99520238Y-226385380D02*
X99996428Y-226385380D01*
X99996428Y-225385380D01*
X98615476Y-226290142D02*
X98663095Y-226337761D01*
X98805952Y-226385380D01*
X98901190Y-226385380D01*
X99044047Y-226337761D01*
X99139285Y-226242523D01*
X99186904Y-226147285D01*
X99234523Y-225956809D01*
X99234523Y-225813952D01*
X99186904Y-225623476D01*
X99139285Y-225528238D01*
X99044047Y-225433000D01*
X98901190Y-225385380D01*
X98805952Y-225385380D01*
X98663095Y-225433000D01*
X98615476Y-225480619D01*
X97901190Y-225385380D02*
X97901190Y-226099666D01*
X97948809Y-226242523D01*
X98044047Y-226337761D01*
X98186904Y-226385380D01*
X98282142Y-226385380D01*
X96948809Y-226385380D02*
X97425000Y-226385380D01*
X97425000Y-225385380D01*
X96044047Y-226290142D02*
X96091666Y-226337761D01*
X96234523Y-226385380D01*
X96329761Y-226385380D01*
X96472619Y-226337761D01*
X96567857Y-226242523D01*
X96615476Y-226147285D01*
X96663095Y-225956809D01*
X96663095Y-225813952D01*
X96615476Y-225623476D01*
X96567857Y-225528238D01*
X96472619Y-225433000D01*
X96329761Y-225385380D01*
X96234523Y-225385380D01*
X96091666Y-225433000D01*
X96044047Y-225480619D01*
X95329761Y-225385380D02*
X95329761Y-226099666D01*
X95377380Y-226242523D01*
X95472619Y-226337761D01*
X95615476Y-226385380D01*
X95710714Y-226385380D01*
X94377380Y-226385380D02*
X94853571Y-226385380D01*
X94853571Y-225385380D01*
X93472619Y-226290142D02*
X93520238Y-226337761D01*
X93663095Y-226385380D01*
X93758333Y-226385380D01*
X93901190Y-226337761D01*
X93996428Y-226242523D01*
X94044047Y-226147285D01*
X94091666Y-225956809D01*
X94091666Y-225813952D01*
X94044047Y-225623476D01*
X93996428Y-225528238D01*
X93901190Y-225433000D01*
X93758333Y-225385380D01*
X93663095Y-225385380D01*
X93520238Y-225433000D01*
X93472619Y-225480619D01*
D11*
X229076250Y-158940500D02*
X245459250Y-158940500D01*
X245459250Y-187261500D02*
X229076250Y-187261500D01*
X245459250Y-158940500D02*
X253587250Y-173164500D01*
X228949250Y-187261500D02*
X220948250Y-173164500D01*
X220948250Y-173164500D02*
X229076250Y-158940500D01*
X253587250Y-173164500D02*
X245459250Y-187261500D01*
X196342000Y-159004000D02*
X204470000Y-144780000D01*
X204470000Y-144780000D02*
X220853000Y-144780000D01*
X228981000Y-159004000D02*
X220853000Y-173101000D01*
X220853000Y-173101000D02*
X204470000Y-173101000D01*
X204343000Y-173101000D02*
X196342000Y-159004000D01*
X220853000Y-144780000D02*
X228981000Y-159004000D01*
X204343000Y-201422000D02*
X196342000Y-187325000D01*
X220853000Y-201422000D02*
X204470000Y-201422000D01*
X228981000Y-187325000D02*
X220853000Y-201422000D01*
X220853000Y-173101000D02*
X228981000Y-187325000D01*
X204470000Y-173101000D02*
X220853000Y-173101000D01*
X196342000Y-187325000D02*
X204470000Y-173101000D01*
D10*
X302558523Y-207343428D02*
X302558523Y-208962476D01*
X302653761Y-209152952D01*
X302749000Y-209248190D01*
X302939476Y-209343428D01*
X303225190Y-209343428D01*
X303415666Y-209248190D01*
X302558523Y-208581523D02*
X302749000Y-208676761D01*
X303129952Y-208676761D01*
X303320428Y-208581523D01*
X303415666Y-208486285D01*
X303510904Y-208295809D01*
X303510904Y-207724380D01*
X303415666Y-207533904D01*
X303320428Y-207438666D01*
X303129952Y-207343428D01*
X302749000Y-207343428D01*
X302558523Y-207438666D01*
X301606142Y-208676761D02*
X301606142Y-207343428D01*
X301606142Y-206676761D02*
X301701380Y-206772000D01*
X301606142Y-206867238D01*
X301510904Y-206772000D01*
X301606142Y-206676761D01*
X301606142Y-206867238D01*
X300939476Y-207343428D02*
X300177571Y-207343428D01*
X300653761Y-206676761D02*
X300653761Y-208391047D01*
X300558523Y-208581523D01*
X300368047Y-208676761D01*
X300177571Y-208676761D01*
X299510904Y-208676761D02*
X299510904Y-206676761D01*
X298653761Y-208676761D02*
X298653761Y-207629142D01*
X298749000Y-207438666D01*
X298939476Y-207343428D01*
X299225190Y-207343428D01*
X299415666Y-207438666D01*
X299510904Y-207533904D01*
X296844238Y-207343428D02*
X296844238Y-208676761D01*
X297701380Y-207343428D02*
X297701380Y-208391047D01*
X297606142Y-208581523D01*
X297415666Y-208676761D01*
X297129952Y-208676761D01*
X296939476Y-208581523D01*
X296844238Y-208486285D01*
X295891857Y-208676761D02*
X295891857Y-206676761D01*
X295891857Y-207438666D02*
X295701380Y-207343428D01*
X295320428Y-207343428D01*
X295129952Y-207438666D01*
X295034714Y-207533904D01*
X294939476Y-207724380D01*
X294939476Y-208295809D01*
X295034714Y-208486285D01*
X295129952Y-208581523D01*
X295320428Y-208676761D01*
X295701380Y-208676761D01*
X295891857Y-208581523D01*
X294082333Y-208486285D02*
X293987095Y-208581523D01*
X294082333Y-208676761D01*
X294177571Y-208581523D01*
X294082333Y-208486285D01*
X294082333Y-208676761D01*
X292272809Y-208581523D02*
X292463285Y-208676761D01*
X292844238Y-208676761D01*
X293034714Y-208581523D01*
X293129952Y-208486285D01*
X293225190Y-208295809D01*
X293225190Y-207724380D01*
X293129952Y-207533904D01*
X293034714Y-207438666D01*
X292844238Y-207343428D01*
X292463285Y-207343428D01*
X292272809Y-207438666D01*
X291129952Y-208676761D02*
X291320428Y-208581523D01*
X291415666Y-208486285D01*
X291510904Y-208295809D01*
X291510904Y-207724380D01*
X291415666Y-207533904D01*
X291320428Y-207438666D01*
X291129952Y-207343428D01*
X290844238Y-207343428D01*
X290653761Y-207438666D01*
X290558523Y-207533904D01*
X290463285Y-207724380D01*
X290463285Y-208295809D01*
X290558523Y-208486285D01*
X290653761Y-208581523D01*
X290844238Y-208676761D01*
X291129952Y-208676761D01*
X289606142Y-208676761D02*
X289606142Y-207343428D01*
X289606142Y-207533904D02*
X289510904Y-207438666D01*
X289320428Y-207343428D01*
X289034714Y-207343428D01*
X288844238Y-207438666D01*
X288749000Y-207629142D01*
X288749000Y-208676761D01*
X288749000Y-207629142D02*
X288653761Y-207438666D01*
X288463285Y-207343428D01*
X288177571Y-207343428D01*
X287987095Y-207438666D01*
X287891857Y-207629142D01*
X287891857Y-208676761D01*
X285510904Y-206581523D02*
X287225190Y-209152952D01*
X283987095Y-208676761D02*
X283987095Y-206676761D01*
X283987095Y-208581523D02*
X284177571Y-208676761D01*
X284558523Y-208676761D01*
X284749000Y-208581523D01*
X284844238Y-208486285D01*
X284939476Y-208295809D01*
X284939476Y-207724380D01*
X284844238Y-207533904D01*
X284749000Y-207438666D01*
X284558523Y-207343428D01*
X284177571Y-207343428D01*
X283987095Y-207438666D01*
X283129952Y-208581523D02*
X282939476Y-208676761D01*
X282558523Y-208676761D01*
X282368047Y-208581523D01*
X282272809Y-208391047D01*
X282272809Y-208295809D01*
X282368047Y-208105333D01*
X282558523Y-208010095D01*
X282844238Y-208010095D01*
X283034714Y-207914857D01*
X283129952Y-207724380D01*
X283129952Y-207629142D01*
X283034714Y-207438666D01*
X282844238Y-207343428D01*
X282558523Y-207343428D01*
X282368047Y-207438666D01*
X280558523Y-208676761D02*
X280558523Y-207629142D01*
X280653761Y-207438666D01*
X280844238Y-207343428D01*
X281225190Y-207343428D01*
X281415666Y-207438666D01*
X280558523Y-208581523D02*
X280749000Y-208676761D01*
X281225190Y-208676761D01*
X281415666Y-208581523D01*
X281510904Y-208391047D01*
X281510904Y-208200571D01*
X281415666Y-208010095D01*
X281225190Y-207914857D01*
X280749000Y-207914857D01*
X280558523Y-207819619D01*
X279606142Y-207343428D02*
X279606142Y-208676761D01*
X279606142Y-207533904D02*
X279510904Y-207438666D01*
X279320428Y-207343428D01*
X279034714Y-207343428D01*
X278844238Y-207438666D01*
X278749000Y-207629142D01*
X278749000Y-208676761D01*
X276939476Y-208581523D02*
X277129952Y-208676761D01*
X277510904Y-208676761D01*
X277701380Y-208581523D01*
X277796619Y-208486285D01*
X277891857Y-208295809D01*
X277891857Y-207724380D01*
X277796619Y-207533904D01*
X277701380Y-207438666D01*
X277510904Y-207343428D01*
X277129952Y-207343428D01*
X276939476Y-207438666D01*
X276082333Y-208676761D02*
X276082333Y-206676761D01*
X275225190Y-208676761D02*
X275225190Y-207629142D01*
X275320428Y-207438666D01*
X275510904Y-207343428D01*
X275796619Y-207343428D01*
X275987095Y-207438666D01*
X276082333Y-207533904D01*
X273510904Y-208581523D02*
X273701380Y-208676761D01*
X274082333Y-208676761D01*
X274272809Y-208581523D01*
X274368047Y-208391047D01*
X274368047Y-207629142D01*
X274272809Y-207438666D01*
X274082333Y-207343428D01*
X273701380Y-207343428D01*
X273510904Y-207438666D01*
X273415666Y-207629142D01*
X273415666Y-207819619D01*
X274368047Y-208010095D01*
X272749000Y-207343428D02*
X271701380Y-207343428D01*
X272749000Y-208676761D01*
X271701380Y-208676761D01*
X271034714Y-208581523D02*
X270844238Y-208676761D01*
X270463285Y-208676761D01*
X270272809Y-208581523D01*
X270177571Y-208391047D01*
X270177571Y-208295809D01*
X270272809Y-208105333D01*
X270463285Y-208010095D01*
X270749000Y-208010095D01*
X270939476Y-207914857D01*
X271034714Y-207724380D01*
X271034714Y-207629142D01*
X270939476Y-207438666D01*
X270749000Y-207343428D01*
X270463285Y-207343428D01*
X270272809Y-207438666D01*
X268558523Y-208581523D02*
X268749000Y-208676761D01*
X269129952Y-208676761D01*
X269320428Y-208581523D01*
X269415666Y-208391047D01*
X269415666Y-207629142D01*
X269320428Y-207438666D01*
X269129952Y-207343428D01*
X268749000Y-207343428D01*
X268558523Y-207438666D01*
X268463285Y-207629142D01*
X268463285Y-207819619D01*
X269415666Y-208010095D01*
X266749000Y-208581523D02*
X266939476Y-208676761D01*
X267320428Y-208676761D01*
X267510904Y-208581523D01*
X267606142Y-208486285D01*
X267701380Y-208295809D01*
X267701380Y-207724380D01*
X267606142Y-207533904D01*
X267510904Y-207438666D01*
X267320428Y-207343428D01*
X266939476Y-207343428D01*
X266749000Y-207438666D01*
X265606142Y-208676761D02*
X265796619Y-208581523D01*
X265891857Y-208486285D01*
X265987095Y-208295809D01*
X265987095Y-207724380D01*
X265891857Y-207533904D01*
X265796619Y-207438666D01*
X265606142Y-207343428D01*
X265320428Y-207343428D01*
X265129952Y-207438666D01*
X265034714Y-207533904D01*
X264939476Y-207724380D01*
X264939476Y-208295809D01*
X265034714Y-208486285D01*
X265129952Y-208581523D01*
X265320428Y-208676761D01*
X265606142Y-208676761D01*
X262653761Y-206581523D02*
X264368047Y-209152952D01*
X261987095Y-207343428D02*
X261987095Y-209343428D01*
X261987095Y-207438666D02*
X261796619Y-207343428D01*
X261415666Y-207343428D01*
X261225190Y-207438666D01*
X261129952Y-207533904D01*
X261034714Y-207724380D01*
X261034714Y-208295809D01*
X261129952Y-208486285D01*
X261225190Y-208581523D01*
X261415666Y-208676761D01*
X261796619Y-208676761D01*
X261987095Y-208581523D01*
X259320428Y-207343428D02*
X259320428Y-208676761D01*
X260177571Y-207343428D02*
X260177571Y-208391047D01*
X260082333Y-208581523D01*
X259891857Y-208676761D01*
X259606142Y-208676761D01*
X259415666Y-208581523D01*
X259320428Y-208486285D01*
X258368047Y-207343428D02*
X258368047Y-208676761D01*
X258368047Y-207533904D02*
X258272809Y-207438666D01*
X258082333Y-207343428D01*
X257796619Y-207343428D01*
X257606142Y-207438666D01*
X257510904Y-207629142D01*
X257510904Y-208676761D01*
X256558523Y-208676761D02*
X256558523Y-206676761D01*
X256368047Y-207914857D02*
X255796619Y-208676761D01*
X255796619Y-207343428D02*
X256558523Y-208105333D01*
X255129952Y-206676761D02*
X253796619Y-206676761D01*
X254653761Y-208676761D01*
X252082333Y-206676761D02*
X253034714Y-206676761D01*
X253129952Y-207629142D01*
X253034714Y-207533904D01*
X252844238Y-207438666D01*
X252368047Y-207438666D01*
X252177571Y-207533904D01*
X252082333Y-207629142D01*
X251987095Y-207819619D01*
X251987095Y-208295809D01*
X252082333Y-208486285D01*
X252177571Y-208581523D01*
X252368047Y-208676761D01*
X252844238Y-208676761D01*
X253034714Y-208581523D01*
X253129952Y-208486285D01*
D12*
X283845000Y-126238000D02*
X283845000Y-124460000D01*
X283845000Y-124478051D02*
X282321000Y-123571000D01*
X282321000Y-121793000D02*
X282321000Y-123571000D01*
X288417000Y-127145051D02*
X286893000Y-126238000D01*
X280797000Y-124478051D02*
X279273000Y-123571000D01*
X291465000Y-121793000D02*
X292989000Y-120885949D01*
X282321000Y-127145051D02*
X283845000Y-126238000D01*
X288417000Y-123571000D02*
X288417000Y-121793000D01*
X292989000Y-124478051D02*
X291465000Y-123571000D01*
X280797000Y-126238000D02*
X280797000Y-124460000D01*
X292989000Y-126238000D02*
X292989000Y-124460000D01*
X285369000Y-121793000D02*
X285369000Y-123571000D01*
X288417000Y-127145051D02*
X289941000Y-126238000D01*
X288417000Y-121793000D02*
X289941000Y-120885949D01*
X280797000Y-124478051D02*
X279273000Y-123571000D01*
X296037000Y-124460000D02*
X296037000Y-126238000D01*
X294513000Y-127145051D02*
X296037000Y-126238000D01*
X294513000Y-121811051D02*
X292989000Y-120904000D01*
X296037000Y-124478051D02*
X294513000Y-123571000D01*
X285369000Y-121811051D02*
X283845000Y-120904000D01*
X294513000Y-121793000D02*
X294513000Y-123571000D01*
X286893000Y-126238000D02*
X286893000Y-124460000D01*
X282321000Y-121811051D02*
X280797000Y-120904000D01*
X286893000Y-124478051D02*
X285369000Y-123571000D01*
X283845000Y-124460000D02*
X285369000Y-123552949D01*
X291465000Y-123571000D02*
X291465000Y-121793000D01*
X289941000Y-124478051D02*
X288417000Y-123571000D01*
X289941000Y-124478051D02*
X291465000Y-123571000D01*
X283845000Y-124460000D02*
X283845000Y-126238000D01*
X288417000Y-121793000D02*
X288417000Y-123571000D01*
X283845000Y-124478051D02*
X282321000Y-123571000D01*
X286893000Y-124460000D02*
X286893000Y-126238000D01*
X285369000Y-127145051D02*
X286893000Y-126238000D01*
X296037000Y-126238000D02*
X296037000Y-124460000D01*
X292989000Y-124478051D02*
X291465000Y-123571000D01*
X285369000Y-127145051D02*
X283845000Y-126238000D01*
X291465000Y-121793000D02*
X291465000Y-123571000D01*
X280797000Y-124460000D02*
X280797000Y-126238000D01*
X291465000Y-127145051D02*
X292989000Y-126238000D01*
X289941000Y-126238000D02*
X289941000Y-124460000D01*
X286893000Y-124460000D02*
X288417000Y-123552949D01*
X291465000Y-127145051D02*
X289941000Y-126238000D01*
X283845000Y-124478051D02*
X285369000Y-123571000D01*
X282321000Y-127145051D02*
X280797000Y-126238000D01*
X279273000Y-121793000D02*
X280797000Y-120885949D01*
X294513000Y-123571000D02*
X294513000Y-121793000D01*
X288417000Y-121811051D02*
X286893000Y-120904000D01*
X279273000Y-127145051D02*
X280797000Y-126238000D01*
X292989000Y-124460000D02*
X294513000Y-123552949D01*
X282321000Y-121793000D02*
X283845000Y-120885949D01*
X280797000Y-124460000D02*
X282321000Y-123552949D01*
X285369000Y-121793000D02*
X286893000Y-120885949D01*
X294513000Y-127145051D02*
X292989000Y-126238000D01*
X286893000Y-124478051D02*
X285369000Y-123571000D01*
X289941000Y-124460000D02*
X289941000Y-126238000D01*
X279273000Y-121793000D02*
X279273000Y-123571000D01*
X285369000Y-123571000D02*
X285369000Y-121793000D01*
X289941000Y-124478051D02*
X288417000Y-123571000D01*
X279273000Y-123571000D02*
X279273000Y-121793000D01*
X292989000Y-124478051D02*
X294513000Y-123571000D01*
X286893000Y-124478051D02*
X288417000Y-123571000D01*
X294513000Y-121793000D02*
X296037000Y-120885949D01*
X292989000Y-124460000D02*
X292989000Y-126238000D01*
X296037000Y-124460000D02*
X296037000Y-126238000D01*
X291465000Y-121811051D02*
X289941000Y-120904000D01*
X280797000Y-124478051D02*
X282321000Y-123571000D01*
X296037000Y-124478051D02*
X294513000Y-123571000D01*
X282321000Y-123571000D02*
X282321000Y-121793000D01*
X289941000Y-124460000D02*
X291465000Y-123552949D01*
X288417000Y-123571000D02*
X288417000Y-121793000D01*
X292989000Y-124460000D02*
X292989000Y-126238000D01*
X299085000Y-124460000D02*
X300609000Y-123552949D01*
X289941000Y-124460000D02*
X291465000Y-123552949D01*
X300609000Y-127145051D02*
X299085000Y-126238000D01*
X291465000Y-123571000D02*
X291465000Y-121793000D01*
X299085000Y-124478051D02*
X297561000Y-123571000D01*
X300609000Y-121811051D02*
X299085000Y-120904000D01*
X299085000Y-124460000D02*
X299085000Y-126238000D01*
X302133000Y-124478051D02*
X300609000Y-123571000D01*
X292989000Y-124478051D02*
X291465000Y-123571000D01*
X286893000Y-124460000D02*
X286893000Y-126238000D01*
X286893000Y-124460000D02*
X288417000Y-123552949D01*
X302133000Y-124460000D02*
X302133000Y-126238000D01*
X296037000Y-124478051D02*
X294513000Y-123571000D01*
X289941000Y-126238000D02*
X289941000Y-124460000D01*
X300609000Y-121793000D02*
X302133000Y-120885949D01*
X297561000Y-127145051D02*
X296037000Y-126238000D01*
X289941000Y-124478051D02*
X291465000Y-123571000D01*
X285369000Y-127145051D02*
X286893000Y-126238000D01*
X292989000Y-124478051D02*
X294513000Y-123571000D01*
X292989000Y-124460000D02*
X294513000Y-123552949D01*
X292989000Y-124478051D02*
X291465000Y-123571000D01*
X294513000Y-127145051D02*
X296037000Y-126238000D01*
X288417000Y-127145051D02*
X286893000Y-126238000D01*
X288417000Y-121811051D02*
X286893000Y-120904000D01*
X289941000Y-124478051D02*
X288417000Y-123571000D01*
X286893000Y-124478051D02*
X288417000Y-123571000D01*
X285369000Y-123571000D02*
X285369000Y-121793000D01*
X289941000Y-124478051D02*
X288417000Y-123571000D01*
X288417000Y-127145051D02*
X289941000Y-126238000D01*
X291465000Y-121811051D02*
X289941000Y-120904000D01*
X300609000Y-121793000D02*
X300609000Y-123571000D01*
X291465000Y-121793000D02*
X292989000Y-120885949D01*
X294513000Y-121793000D02*
X296037000Y-120885949D01*
X302133000Y-124478051D02*
X300609000Y-123571000D01*
X296037000Y-124478051D02*
X297561000Y-123571000D01*
X292989000Y-126238000D02*
X292989000Y-124460000D01*
X302133000Y-124460000D02*
X302133000Y-126238000D01*
X288417000Y-121793000D02*
X289941000Y-120885949D01*
X297561000Y-121811051D02*
X296037000Y-120904000D01*
X291465000Y-127145051D02*
X289941000Y-126238000D01*
X286893000Y-124478051D02*
X285369000Y-123571000D01*
X297561000Y-121793000D02*
X297561000Y-123571000D01*
X294513000Y-121811051D02*
X292989000Y-120904000D01*
X285369000Y-121793000D02*
X285369000Y-123571000D01*
X300609000Y-127145051D02*
X302133000Y-126238000D01*
X294513000Y-123571000D02*
X294513000Y-121793000D01*
X296037000Y-124460000D02*
X296037000Y-126238000D01*
X299085000Y-126238000D02*
X299085000Y-124460000D01*
X297561000Y-121793000D02*
X299085000Y-120885949D01*
X291465000Y-127145051D02*
X292989000Y-126238000D01*
X296037000Y-126238000D02*
X296037000Y-124460000D01*
X286893000Y-126238000D02*
X286893000Y-124460000D01*
X291465000Y-121793000D02*
X291465000Y-123571000D01*
X296037000Y-124478051D02*
X294513000Y-123571000D01*
X296037000Y-124460000D02*
X297561000Y-123552949D01*
X289941000Y-124460000D02*
X289941000Y-126238000D01*
X300609000Y-123571000D02*
X300609000Y-121793000D01*
X299085000Y-124478051D02*
X300609000Y-123571000D01*
X299085000Y-124478051D02*
X297561000Y-123571000D01*
X294513000Y-121793000D02*
X294513000Y-123571000D01*
X286893000Y-124478051D02*
X285369000Y-123571000D01*
X288417000Y-121793000D02*
X288417000Y-123571000D01*
X297561000Y-127145051D02*
X299085000Y-126238000D01*
X302133000Y-126238000D02*
X302133000Y-124460000D01*
X297561000Y-123571000D02*
X297561000Y-121793000D01*
X294513000Y-127145051D02*
X292989000Y-126238000D01*
X285369000Y-121793000D02*
X286893000Y-120885949D01*
X300609000Y-127145051D02*
X299085000Y-126238000D01*
X309753000Y-121811051D02*
X308229000Y-120904000D01*
X306705000Y-127145051D02*
X308229000Y-126238000D01*
X302133000Y-126238000D02*
X302133000Y-124460000D01*
X312801000Y-127145051D02*
X314325000Y-126238000D01*
X300609000Y-121811051D02*
X299085000Y-120904000D01*
X299085000Y-124460000D02*
X299085000Y-126238000D01*
X300609000Y-121793000D02*
X302133000Y-120885949D01*
X309753000Y-121793000D02*
X311277000Y-120885949D01*
X305181000Y-124460000D02*
X305181000Y-126238000D01*
X311277000Y-124478051D02*
X312801000Y-123571000D01*
X311277000Y-124460000D02*
X311277000Y-126238000D01*
X312801000Y-121811051D02*
X311277000Y-120904000D01*
X312801000Y-123571000D02*
X312801000Y-121793000D01*
X308229000Y-126238000D02*
X308229000Y-124460000D01*
X312801000Y-121793000D02*
X312801000Y-123571000D01*
X302133000Y-124460000D02*
X302133000Y-126238000D01*
X309753000Y-121793000D02*
X309753000Y-123571000D01*
X306705000Y-127145051D02*
X305181000Y-126238000D01*
X300609000Y-121793000D02*
X300609000Y-123571000D01*
X311277000Y-124478051D02*
X309753000Y-123571000D01*
X302133000Y-124478051D02*
X303657000Y-123571000D01*
X297561000Y-127145051D02*
X299085000Y-126238000D01*
X303657000Y-121793000D02*
X305181000Y-120885949D01*
X305181000Y-124460000D02*
X306705000Y-123552949D01*
X305181000Y-126238000D02*
X305181000Y-124460000D01*
X312801000Y-127145051D02*
X311277000Y-126238000D01*
X299085000Y-124478051D02*
X297561000Y-123571000D01*
X309753000Y-127145051D02*
X308229000Y-126238000D01*
X314325000Y-124460000D02*
X314325000Y-126238000D01*
X314325000Y-124478051D02*
X312801000Y-123571000D01*
X302133000Y-124460000D02*
X303657000Y-123552949D01*
X305181000Y-124478051D02*
X306705000Y-123571000D01*
X305181000Y-124478051D02*
X303657000Y-123571000D01*
X309753000Y-127145051D02*
X311277000Y-126238000D01*
X303657000Y-121793000D02*
X303657000Y-123571000D01*
X299085000Y-124460000D02*
X300609000Y-123552949D01*
X297561000Y-121793000D02*
X297561000Y-123571000D01*
X299085000Y-126238000D02*
X299085000Y-124460000D01*
X297561000Y-123571000D02*
X297561000Y-121793000D01*
X306705000Y-121811051D02*
X305181000Y-120904000D01*
X314325000Y-126238000D02*
X314325000Y-124460000D01*
X297561000Y-121793000D02*
X299085000Y-120885949D01*
X302133000Y-124478051D02*
X300609000Y-123571000D01*
X299085000Y-124478051D02*
X297561000Y-123571000D01*
X308229000Y-124478051D02*
X306705000Y-123571000D01*
X303657000Y-121811051D02*
X302133000Y-120904000D01*
X306705000Y-121793000D02*
X308229000Y-120885949D01*
X314325000Y-124478051D02*
X312801000Y-123571000D01*
X308229000Y-124460000D02*
X308229000Y-126238000D01*
X308229000Y-124478051D02*
X309753000Y-123571000D01*
X306705000Y-121793000D02*
X306705000Y-123571000D01*
X311277000Y-126238000D02*
X311277000Y-124460000D01*
X309753000Y-123571000D02*
X309753000Y-121793000D01*
X308229000Y-124478051D02*
X306705000Y-123571000D01*
X311277000Y-124460000D02*
X312801000Y-123552949D01*
X299085000Y-124478051D02*
X300609000Y-123571000D01*
X303657000Y-123571000D02*
X303657000Y-121793000D01*
X303657000Y-127145051D02*
X305181000Y-126238000D01*
X314325000Y-124460000D02*
X314325000Y-126238000D01*
X300609000Y-127145051D02*
X302133000Y-126238000D01*
X303657000Y-127145051D02*
X302133000Y-126238000D01*
X300609000Y-123571000D02*
X300609000Y-121793000D01*
X306705000Y-123571000D02*
X306705000Y-121793000D01*
X308229000Y-124460000D02*
X309753000Y-123552949D01*
X311277000Y-124478051D02*
X309753000Y-123571000D01*
X312801000Y-121793000D02*
X314325000Y-120885949D01*
X305181000Y-124478051D02*
X303657000Y-123571000D01*
X302133000Y-124478051D02*
X300609000Y-123571000D01*
X321945000Y-121793000D02*
X321945000Y-123571000D01*
X320421000Y-124460000D02*
X321945000Y-123552949D01*
X318897000Y-121793000D02*
X318897000Y-123571000D01*
X329565000Y-124478051D02*
X328041000Y-123571000D01*
X323469000Y-124460000D02*
X323469000Y-126238000D01*
X320421000Y-124478051D02*
X321945000Y-123571000D01*
X318897000Y-127145051D02*
X320421000Y-126238000D01*
X312801000Y-123571000D02*
X312801000Y-121793000D01*
X312801000Y-127145051D02*
X314325000Y-126238000D01*
X317373000Y-124460000D02*
X318897000Y-123552949D01*
X329565000Y-124460000D02*
X329565000Y-126238000D01*
X320421000Y-124460000D02*
X320421000Y-126238000D01*
X315849000Y-121793000D02*
X315849000Y-123571000D01*
X324993000Y-121793000D02*
X326517000Y-120885949D01*
X320421000Y-124478051D02*
X318897000Y-123571000D01*
X321945000Y-121793000D02*
X323469000Y-120885949D01*
X329565000Y-124460000D02*
X329565000Y-126238000D01*
X326517000Y-126238000D02*
X326517000Y-124460000D01*
X317373000Y-126238000D02*
X317373000Y-124460000D01*
X314325000Y-124478051D02*
X312801000Y-123571000D01*
X321945000Y-123571000D02*
X321945000Y-121793000D01*
X326517000Y-124478051D02*
X324993000Y-123571000D01*
X318897000Y-127145051D02*
X317373000Y-126238000D01*
X329565000Y-126238000D02*
X329565000Y-124460000D01*
X314325000Y-124478051D02*
X315849000Y-123571000D01*
X328041000Y-127145051D02*
X326517000Y-126238000D01*
X317373000Y-124478051D02*
X315849000Y-123571000D01*
X324993000Y-121793000D02*
X324993000Y-123571000D01*
X318897000Y-121793000D02*
X320421000Y-120885949D01*
X321945000Y-127145051D02*
X323469000Y-126238000D01*
X317373000Y-124460000D02*
X317373000Y-126238000D01*
X314325000Y-124478051D02*
X312801000Y-123571000D01*
X314325000Y-126238000D02*
X314325000Y-124460000D01*
X320421000Y-126238000D02*
X320421000Y-124460000D01*
X315849000Y-127145051D02*
X314325000Y-126238000D01*
X317373000Y-124478051D02*
X318897000Y-123571000D01*
X315849000Y-121811051D02*
X314325000Y-120904000D01*
X323469000Y-124478051D02*
X321945000Y-123571000D01*
X328041000Y-121793000D02*
X328041000Y-123571000D01*
X328041000Y-127145051D02*
X329565000Y-126238000D01*
X329565000Y-124478051D02*
X328041000Y-123571000D01*
X323469000Y-126238000D02*
X323469000Y-124460000D01*
X326517000Y-124478051D02*
X324993000Y-123571000D01*
X324993000Y-121811051D02*
X323469000Y-120904000D01*
X318897000Y-121811051D02*
X317373000Y-120904000D01*
X323469000Y-124478051D02*
X324993000Y-123571000D01*
X321945000Y-121811051D02*
X320421000Y-120904000D01*
X328041000Y-123571000D02*
X328041000Y-121793000D01*
X314325000Y-124460000D02*
X315849000Y-123552949D01*
X324993000Y-127145051D02*
X326517000Y-126238000D01*
X326517000Y-124478051D02*
X328041000Y-123571000D01*
X315849000Y-127145051D02*
X317373000Y-126238000D01*
X328041000Y-121793000D02*
X329565000Y-120885949D01*
X320421000Y-124478051D02*
X318897000Y-123571000D01*
X321945000Y-127145051D02*
X320421000Y-126238000D01*
X312801000Y-121793000D02*
X314325000Y-120885949D01*
X315849000Y-123571000D02*
X315849000Y-121793000D01*
X326517000Y-124460000D02*
X328041000Y-123552949D01*
X323469000Y-124460000D02*
X324993000Y-123552949D01*
X326517000Y-124460000D02*
X326517000Y-126238000D01*
X314325000Y-124460000D02*
X314325000Y-126238000D01*
X312801000Y-121793000D02*
X312801000Y-123571000D01*
X317373000Y-124478051D02*
X315849000Y-123571000D01*
X324993000Y-123571000D02*
X324993000Y-121793000D01*
X318897000Y-123571000D02*
X318897000Y-121793000D01*
X315849000Y-121793000D02*
X317373000Y-120885949D01*
X324993000Y-127145051D02*
X323469000Y-126238000D01*
X323469000Y-124478051D02*
X321945000Y-123571000D01*
X328041000Y-121811051D02*
X326517000Y-120904000D01*
X321945000Y-121811051D02*
X320421000Y-120904000D01*
X315849000Y-118237000D02*
X315849000Y-116459000D01*
X324993000Y-121811051D02*
X326517000Y-120904000D01*
X323469000Y-119144051D02*
X321945000Y-118237000D01*
X323469000Y-119144051D02*
X324993000Y-118237000D01*
X320421000Y-119144051D02*
X321945000Y-118237000D01*
X315849000Y-116477051D02*
X314325000Y-115570000D01*
X315849000Y-121811051D02*
X317373000Y-120904000D01*
X315849000Y-116459000D02*
X317373000Y-115551949D01*
X318897000Y-116459000D02*
X320421000Y-115551949D01*
X326517000Y-119144051D02*
X328041000Y-118237000D01*
X321945000Y-116477051D02*
X320421000Y-115570000D01*
X317373000Y-119144051D02*
X315849000Y-118237000D01*
X317373000Y-120904000D02*
X317373000Y-119126000D01*
X324993000Y-121811051D02*
X323469000Y-120904000D01*
X329565000Y-120904000D02*
X329565000Y-119126000D01*
X328041000Y-116459000D02*
X329565000Y-115551949D01*
X326517000Y-119126000D02*
X328041000Y-118218949D01*
X312801000Y-118237000D02*
X312801000Y-116459000D01*
X326517000Y-119126000D02*
X326517000Y-120904000D01*
X317373000Y-119126000D02*
X317373000Y-120904000D01*
X314325000Y-119144051D02*
X312801000Y-118237000D01*
X323469000Y-119144051D02*
X321945000Y-118237000D01*
X312801000Y-116459000D02*
X312801000Y-118237000D01*
X323469000Y-120904000D02*
X323469000Y-119126000D01*
X321945000Y-118237000D02*
X321945000Y-116459000D01*
X328041000Y-116459000D02*
X328041000Y-118237000D01*
X320421000Y-120904000D02*
X320421000Y-119126000D01*
X315849000Y-121811051D02*
X314325000Y-120904000D01*
X314325000Y-119144051D02*
X315849000Y-118237000D01*
X328041000Y-121811051D02*
X329565000Y-120904000D01*
X315849000Y-116459000D02*
X315849000Y-118237000D01*
X328041000Y-116477051D02*
X326517000Y-115570000D01*
X317373000Y-119126000D02*
X318897000Y-118218949D01*
X318897000Y-116459000D02*
X318897000Y-118237000D01*
X318897000Y-116477051D02*
X317373000Y-115570000D01*
X318897000Y-121811051D02*
X320421000Y-120904000D01*
X324993000Y-118237000D02*
X324993000Y-116459000D01*
X323469000Y-119126000D02*
X324993000Y-118218949D01*
X321945000Y-121811051D02*
X323469000Y-120904000D01*
X328041000Y-118237000D02*
X328041000Y-116459000D01*
X324993000Y-116477051D02*
X323469000Y-115570000D01*
X329565000Y-119126000D02*
X329565000Y-120904000D01*
X314325000Y-119126000D02*
X314325000Y-120904000D01*
X326517000Y-119144051D02*
X324993000Y-118237000D01*
X329565000Y-119144051D02*
X328041000Y-118237000D01*
X324993000Y-116459000D02*
X324993000Y-118237000D01*
X329565000Y-119126000D02*
X329565000Y-120904000D01*
X314325000Y-119144051D02*
X312801000Y-118237000D01*
X324993000Y-116459000D02*
X326517000Y-115551949D01*
X320421000Y-119126000D02*
X320421000Y-120904000D01*
X318897000Y-118237000D02*
X318897000Y-116459000D01*
X317373000Y-119144051D02*
X315849000Y-118237000D01*
X318897000Y-121811051D02*
X317373000Y-120904000D01*
X314325000Y-119126000D02*
X315849000Y-118218949D01*
X321945000Y-116459000D02*
X323469000Y-115551949D01*
X326517000Y-120904000D02*
X326517000Y-119126000D01*
X326517000Y-119144051D02*
X324993000Y-118237000D01*
X312801000Y-121811051D02*
X314325000Y-120904000D01*
X320421000Y-119126000D02*
X321945000Y-118218949D01*
X328041000Y-121811051D02*
X326517000Y-120904000D01*
X312801000Y-116459000D02*
X314325000Y-115551949D01*
X320421000Y-119144051D02*
X318897000Y-118237000D01*
X329565000Y-119144051D02*
X328041000Y-118237000D01*
X321945000Y-116459000D02*
X321945000Y-118237000D01*
X314325000Y-120904000D02*
X314325000Y-119126000D01*
X317373000Y-119144051D02*
X318897000Y-118237000D01*
X323469000Y-119126000D02*
X323469000Y-120904000D01*
X320421000Y-119144051D02*
X318897000Y-118237000D01*
X320421000Y-119144051D02*
X318897000Y-118237000D01*
X323469000Y-119126000D02*
X323469000Y-120904000D01*
X321945000Y-116459000D02*
X323469000Y-115551949D01*
X309753000Y-116477051D02*
X308229000Y-115570000D01*
X317373000Y-119126000D02*
X317373000Y-120904000D01*
X306705000Y-116459000D02*
X308229000Y-115551949D01*
X314325000Y-119126000D02*
X314325000Y-120904000D01*
X311277000Y-119144051D02*
X312801000Y-118237000D01*
X314325000Y-119144051D02*
X312801000Y-118237000D01*
X323469000Y-119144051D02*
X321945000Y-118237000D01*
X320421000Y-120904000D02*
X320421000Y-119126000D01*
X320421000Y-119144051D02*
X321945000Y-118237000D01*
X318897000Y-118237000D02*
X318897000Y-116459000D01*
X306705000Y-121811051D02*
X308229000Y-120904000D01*
X311277000Y-119144051D02*
X309753000Y-118237000D01*
X318897000Y-116459000D02*
X320421000Y-115551949D01*
X309753000Y-118237000D02*
X309753000Y-116459000D01*
X315849000Y-116459000D02*
X317373000Y-115551949D01*
X323469000Y-119144051D02*
X321945000Y-118237000D01*
X315849000Y-116459000D02*
X315849000Y-118237000D01*
X321945000Y-116459000D02*
X321945000Y-118237000D01*
X320421000Y-119126000D02*
X320421000Y-120904000D01*
X308229000Y-120904000D02*
X308229000Y-119126000D01*
X311277000Y-119126000D02*
X311277000Y-120904000D01*
X323469000Y-120904000D02*
X323469000Y-119126000D01*
X321945000Y-121811051D02*
X323469000Y-120904000D01*
X308229000Y-119144051D02*
X309753000Y-118237000D01*
X314325000Y-119144051D02*
X312801000Y-118237000D01*
X314325000Y-119144051D02*
X315849000Y-118237000D01*
X309753000Y-121811051D02*
X311277000Y-120904000D01*
X306705000Y-116459000D02*
X306705000Y-118237000D01*
X321945000Y-118237000D02*
X321945000Y-116459000D01*
X309753000Y-121811051D02*
X308229000Y-120904000D01*
X318897000Y-121811051D02*
X317373000Y-120904000D01*
X308229000Y-119126000D02*
X308229000Y-120904000D01*
X317373000Y-119126000D02*
X318897000Y-118218949D01*
X312801000Y-121811051D02*
X311277000Y-120904000D01*
X320421000Y-119144051D02*
X318897000Y-118237000D01*
X306705000Y-118237000D02*
X306705000Y-116459000D01*
X315849000Y-118237000D02*
X315849000Y-116459000D01*
X312801000Y-116459000D02*
X312801000Y-118237000D01*
X318897000Y-116459000D02*
X318897000Y-118237000D01*
X314325000Y-119126000D02*
X315849000Y-118218949D01*
X312801000Y-121811051D02*
X314325000Y-120904000D01*
X317373000Y-119144051D02*
X315849000Y-118237000D01*
X312801000Y-116477051D02*
X311277000Y-115570000D01*
X317373000Y-119144051D02*
X318897000Y-118237000D01*
X317373000Y-119144051D02*
X315849000Y-118237000D01*
X315849000Y-116477051D02*
X314325000Y-115570000D01*
X314325000Y-120904000D02*
X314325000Y-119126000D01*
X318897000Y-116477051D02*
X317373000Y-115570000D01*
X311277000Y-120904000D02*
X311277000Y-119126000D01*
X317373000Y-120904000D02*
X317373000Y-119126000D01*
X308229000Y-119144051D02*
X306705000Y-118237000D01*
X312801000Y-116459000D02*
X314325000Y-115551949D01*
X315849000Y-121811051D02*
X314325000Y-120904000D01*
X321945000Y-121811051D02*
X320421000Y-120904000D01*
X320421000Y-119126000D02*
X321945000Y-118218949D01*
X311277000Y-119144051D02*
X309753000Y-118237000D01*
X308229000Y-119144051D02*
X306705000Y-118237000D01*
X309753000Y-116459000D02*
X309753000Y-118237000D01*
X323469000Y-119126000D02*
X323469000Y-120904000D01*
X321945000Y-116477051D02*
X320421000Y-115570000D01*
X318897000Y-121811051D02*
X320421000Y-120904000D01*
X312801000Y-118237000D02*
X312801000Y-116459000D01*
X309753000Y-116459000D02*
X311277000Y-115551949D01*
X315849000Y-121811051D02*
X317373000Y-120904000D01*
X308229000Y-119126000D02*
X309753000Y-118218949D01*
X311277000Y-119126000D02*
X312801000Y-118218949D01*
X303657000Y-121811051D02*
X305181000Y-120904000D01*
X302133000Y-120904000D02*
X302133000Y-119126000D01*
X311277000Y-119144051D02*
X309753000Y-118237000D01*
X309753000Y-116477051D02*
X308229000Y-115570000D01*
X308229000Y-119126000D02*
X308229000Y-120904000D01*
X305181000Y-119144051D02*
X303657000Y-118237000D01*
X299085000Y-119144051D02*
X297561000Y-118237000D01*
X297561000Y-116459000D02*
X297561000Y-118237000D01*
X300609000Y-116459000D02*
X302133000Y-115551949D01*
X296037000Y-119144051D02*
X294513000Y-118237000D01*
X300609000Y-116459000D02*
X300609000Y-118237000D01*
X300609000Y-116477051D02*
X299085000Y-115570000D01*
X303657000Y-116477051D02*
X302133000Y-115570000D01*
X300609000Y-118237000D02*
X300609000Y-116459000D01*
X297561000Y-116459000D02*
X299085000Y-115551949D01*
X306705000Y-116477051D02*
X305181000Y-115570000D01*
X296037000Y-119144051D02*
X297561000Y-118237000D01*
X305181000Y-119144051D02*
X306705000Y-118237000D01*
X308229000Y-119144051D02*
X309753000Y-118237000D01*
X297561000Y-121811051D02*
X299085000Y-120904000D01*
X303657000Y-121811051D02*
X302133000Y-120904000D01*
X302133000Y-119126000D02*
X303657000Y-118218949D01*
X306705000Y-121811051D02*
X308229000Y-120904000D01*
X308229000Y-119126000D02*
X309753000Y-118218949D01*
X294513000Y-116459000D02*
X296037000Y-115551949D01*
X300609000Y-121811051D02*
X299085000Y-120904000D01*
X296037000Y-119126000D02*
X296037000Y-120904000D01*
X309753000Y-121811051D02*
X308229000Y-120904000D01*
X309753000Y-116459000D02*
X309753000Y-118237000D01*
X305181000Y-120904000D02*
X305181000Y-119126000D01*
X296037000Y-120904000D02*
X296037000Y-119126000D01*
X297561000Y-116477051D02*
X296037000Y-115570000D01*
X302133000Y-119144051D02*
X300609000Y-118237000D01*
X311277000Y-119144051D02*
X309753000Y-118237000D01*
X296037000Y-119144051D02*
X294513000Y-118237000D01*
X299085000Y-119126000D02*
X300609000Y-118218949D01*
X299085000Y-119144051D02*
X300609000Y-118237000D01*
X306705000Y-118237000D02*
X306705000Y-116459000D01*
X297561000Y-121811051D02*
X296037000Y-120904000D01*
X308229000Y-119144051D02*
X306705000Y-118237000D01*
X309753000Y-118237000D02*
X309753000Y-116459000D01*
X297561000Y-118237000D02*
X297561000Y-116459000D01*
X306705000Y-121811051D02*
X305181000Y-120904000D01*
X305181000Y-119126000D02*
X306705000Y-118218949D01*
X305181000Y-119144051D02*
X303657000Y-118237000D01*
X302133000Y-119144051D02*
X303657000Y-118237000D01*
X300609000Y-121811051D02*
X302133000Y-120904000D01*
X296037000Y-119126000D02*
X297561000Y-118218949D01*
X303657000Y-116459000D02*
X305181000Y-115551949D01*
X306705000Y-116459000D02*
X308229000Y-115551949D01*
X311277000Y-120904000D02*
X311277000Y-119126000D01*
X299085000Y-119126000D02*
X299085000Y-120904000D01*
X311277000Y-119126000D02*
X311277000Y-120904000D01*
X299085000Y-120904000D02*
X299085000Y-119126000D01*
X303657000Y-118237000D02*
X303657000Y-116459000D01*
X306705000Y-116459000D02*
X306705000Y-118237000D01*
X309753000Y-121811051D02*
X311277000Y-120904000D01*
X303657000Y-116459000D02*
X303657000Y-118237000D01*
X294513000Y-116459000D02*
X294513000Y-118237000D01*
X308229000Y-120904000D02*
X308229000Y-119126000D01*
X294513000Y-121811051D02*
X296037000Y-120904000D01*
X309753000Y-116459000D02*
X311277000Y-115551949D01*
X311277000Y-119126000D02*
X311277000Y-120904000D01*
X308229000Y-119144051D02*
X306705000Y-118237000D01*
X299085000Y-119144051D02*
X297561000Y-118237000D01*
X294513000Y-118237000D02*
X294513000Y-116459000D01*
X305181000Y-119126000D02*
X305181000Y-120904000D01*
X302133000Y-119126000D02*
X302133000Y-120904000D01*
X302133000Y-119144051D02*
X300609000Y-118237000D01*
X294513000Y-116459000D02*
X294513000Y-118237000D01*
X286893000Y-119144051D02*
X288417000Y-118237000D01*
X292989000Y-119126000D02*
X294513000Y-118218949D01*
X280797000Y-119144051D02*
X282321000Y-118237000D01*
X286893000Y-119126000D02*
X288417000Y-118218949D01*
X289941000Y-119144051D02*
X291465000Y-118237000D01*
X289941000Y-119144051D02*
X288417000Y-118237000D01*
X282321000Y-118237000D02*
X282321000Y-116459000D01*
X291465000Y-116477051D02*
X289941000Y-115570000D01*
X296037000Y-119144051D02*
X294513000Y-118237000D01*
X283845000Y-120904000D02*
X283845000Y-119126000D01*
X279273000Y-118237000D02*
X279273000Y-116459000D01*
X283845000Y-119144051D02*
X285369000Y-118237000D01*
X292989000Y-120904000D02*
X292989000Y-119126000D01*
X296037000Y-119126000D02*
X296037000Y-120904000D01*
X283845000Y-119144051D02*
X282321000Y-118237000D01*
X288417000Y-116459000D02*
X288417000Y-118237000D01*
X283845000Y-119144051D02*
X282321000Y-118237000D01*
X288417000Y-116477051D02*
X286893000Y-115570000D01*
X292989000Y-119144051D02*
X291465000Y-118237000D01*
X280797000Y-119126000D02*
X280797000Y-120904000D01*
X294513000Y-121811051D02*
X296037000Y-120904000D01*
X286893000Y-119126000D02*
X286893000Y-120904000D01*
X291465000Y-116459000D02*
X292989000Y-115551949D01*
X289941000Y-119126000D02*
X289941000Y-120904000D01*
X282321000Y-116477051D02*
X280797000Y-115570000D01*
X291465000Y-121811051D02*
X289941000Y-120904000D01*
X294513000Y-116459000D02*
X296037000Y-115551949D01*
X280797000Y-119144051D02*
X279273000Y-118237000D01*
X285369000Y-121811051D02*
X286893000Y-120904000D01*
X294513000Y-118237000D02*
X294513000Y-116459000D01*
X292989000Y-119144051D02*
X294513000Y-118237000D01*
X289941000Y-120904000D02*
X289941000Y-119126000D01*
X296037000Y-119144051D02*
X294513000Y-118237000D01*
X294513000Y-116477051D02*
X292989000Y-115570000D01*
X292989000Y-119144051D02*
X291465000Y-118237000D01*
X282321000Y-121811051D02*
X283845000Y-120904000D01*
X285369000Y-116459000D02*
X285369000Y-118237000D01*
X282321000Y-121811051D02*
X280797000Y-120904000D01*
X288417000Y-121811051D02*
X286893000Y-120904000D01*
X282321000Y-116459000D02*
X282321000Y-118237000D01*
X279273000Y-116459000D02*
X280797000Y-115551949D01*
X296037000Y-119126000D02*
X296037000Y-120904000D01*
X286893000Y-120904000D02*
X286893000Y-119126000D01*
X280797000Y-119126000D02*
X282321000Y-118218949D01*
X285369000Y-116477051D02*
X283845000Y-115570000D01*
X286893000Y-119144051D02*
X285369000Y-118237000D01*
X294513000Y-121811051D02*
X292989000Y-120904000D01*
X288417000Y-118237000D02*
X288417000Y-116459000D01*
X291465000Y-118237000D02*
X291465000Y-116459000D01*
X283845000Y-119126000D02*
X285369000Y-118218949D01*
X292989000Y-119126000D02*
X292989000Y-120904000D01*
X285369000Y-118237000D02*
X285369000Y-116459000D01*
X283845000Y-119126000D02*
X283845000Y-120904000D01*
X279273000Y-116459000D02*
X279273000Y-118237000D01*
X285369000Y-116459000D02*
X286893000Y-115551949D01*
X289941000Y-119144051D02*
X288417000Y-118237000D01*
X291465000Y-121811051D02*
X292989000Y-120904000D01*
X280797000Y-120904000D02*
X280797000Y-119126000D01*
X285369000Y-121811051D02*
X283845000Y-120904000D01*
X279273000Y-121811051D02*
X280797000Y-120904000D01*
X291465000Y-116459000D02*
X291465000Y-118237000D01*
X286893000Y-119144051D02*
X285369000Y-118237000D01*
X282321000Y-116459000D02*
X283845000Y-115551949D01*
X280797000Y-119144051D02*
X279273000Y-118237000D01*
X296037000Y-120904000D02*
X296037000Y-119126000D01*
X288417000Y-121811051D02*
X289941000Y-120904000D01*
X288417000Y-116459000D02*
X289941000Y-115551949D01*
X289941000Y-119126000D02*
X291465000Y-118218949D01*
M02*
