M48
; DRILL file {KiCad 5.1.5} date jue 21 may 2020 11:42:46
; FORMAT={-:-/ absolute / inch / decimal}
; #@! TF.CreationDate,2020-05-21T11:42:46+02:00
; #@! TF.GenerationSoftware,Kicad,Pcbnew,5.1.5
FMAT,2
INCH
T1C0.0157
T2C0.0236
T3C0.0276
T4C0.0315
T5C0.0354
T6C0.0394
T7C0.0433
T8C0.0583
T9C0.1024
T10C0.1063
T11C0.0689
T12C0.1200
T13C0.1570
%
G90
G05
T1
X3.405Y-7.3
X4.1516Y-7.3784
X4.9Y-7.4075
X5.6525Y-7.4325
X6.4Y-7.45
X6.94Y-5.2772
X7.1525Y-7.4575
X7.5216Y-8.3266
X7.9Y-7.4775
X8.65Y-7.49
X9.0Y-4.445
X9.04Y-4.475
X9.0573Y-7.0127
X9.09Y-7.06
X9.4025Y-7.5
X9.78Y-6.88
X9.8165Y-6.8985
X9.8467Y-5.545
X9.875Y-6.02
X9.875Y-6.75
X9.875Y-7.505
X9.94Y-8.225
X9.995Y-5.2144
X10.1525Y-7.49
X10.9016Y-7.5484
X10.995Y-5.1611
X11.28Y-4.6661
X11.3214Y-4.3436
X11.3811Y-4.4138
X11.48Y-4.665
X11.4929Y-4.5739
X11.585Y-4.5267
X11.65Y-7.565
X11.8307Y-4.6972
X12.0325Y-4.6975
X12.065Y-6.85
X12.0935Y-6.89
X12.1118Y-5.4925
X12.1127Y-6.2
X12.1225Y-6.94
X12.1525Y-6.9925
X12.16Y-7.04
X12.16Y-8.115
X12.32Y-5.175
X12.33Y-7.69
X12.3475Y-6.2025
X12.365Y-6.94
X12.4025Y-7.575
X12.535Y-4.875
X12.6325Y-4.885
X12.7325Y-4.8875
X12.83Y-4.895
X12.89Y-4.92
X12.9358Y-4.5957
X13.0524Y-4.5504
X13.0525Y-4.3575
X13.1185Y-4.5035
X13.15Y-7.6
X13.2051Y-4.502
X13.34Y-4.6575
X13.46Y-4.625
X13.4898Y-4.5024
X13.745Y-4.545
X13.1717Y-4.3713
X13.1717Y-4.4244
X13.2051Y-4.3713
X13.2051Y-4.4244
X13.2386Y-4.3713
X13.2386Y-4.4244
X13.272Y-4.3713
X13.272Y-4.4244
X13.3055Y-4.3713
X13.3055Y-4.4244
X13.339Y-4.3713
X13.339Y-4.4244
X13.3724Y-4.3713
X13.3724Y-4.4244
X13.4059Y-4.3713
X13.4059Y-4.4244
T2
X13.8875Y-4.575
X13.8875Y-4.6341
T3
X13.7862Y-5.0425
X13.9863Y-5.0425
X13.7862Y-4.9475
X13.9863Y-4.9475
X13.785Y-4.77
X13.985Y-4.77
X13.785Y-4.855
X13.985Y-4.855
X13.1312Y-4.9375
X13.3312Y-4.9375
X13.1312Y-4.8425
X13.3312Y-4.8425
X13.1312Y-4.7475
X13.3312Y-4.7475
X10.5Y-4.3
X10.5Y-4.5
T4
X5.315Y-4.855
X5.315Y-5.155
X7.315Y-4.8575
X7.315Y-5.1575
X7.715Y-4.7938
X7.715Y-5.0938
X12.1594Y-4.3525
X12.3562Y-4.3525
X6.115Y-4.73
X6.115Y-5.03
X8.615Y-4.7313
X8.615Y-5.0312
X6.215Y-4.7938
X6.215Y-5.0938
X9.415Y-4.605
X9.415Y-4.905
X10.215Y-4.7938
X10.215Y-5.0938
X3.515Y-4.6688
X3.515Y-4.9688
X6.315Y-4.8563
X6.315Y-5.1562
X5.415Y-4.6063
X5.415Y-4.9062
X13.465Y-4.7475
X13.465Y-5.0475
X6.515Y-4.6688
X6.515Y-4.9688
X9.115Y-4.7313
X9.115Y-5.0312
X4.415Y-4.605
X4.415Y-4.905
X5.715Y-4.7938
X5.715Y-5.0938
X6.815Y-4.8563
X6.815Y-5.1562
X5.615Y-4.73
X5.615Y-5.03
X4.215Y-4.7938
X4.215Y-5.0938
X9.915Y-4.605
X9.915Y-4.905
X3.815Y-4.8563
X3.815Y-5.1562
X4.915Y-4.6063
X4.915Y-4.9062
X3.915Y-4.605
X3.915Y-4.905
X7.815Y-4.855
X7.815Y-5.155
X9.215Y-4.7938
X9.215Y-5.0938
X9.615Y-4.7313
X9.615Y-5.0312
X7.415Y-4.6063
X7.415Y-4.9062
X9.715Y-4.7938
X9.715Y-5.0938
X6.415Y-4.6063
X6.415Y-4.9062
X7.215Y-4.7938
X7.215Y-5.0938
X10.315Y-4.8563
X10.315Y-5.1562
X9.315Y-4.8563
X9.315Y-5.1562
X7.615Y-4.7313
X7.615Y-5.0312
X4.515Y-4.6688
X4.515Y-4.9688
X11.0325Y-4.4775
X11.0325Y-5.0775
X11.1325Y-4.4775
X11.1325Y-5.0775
X11.2325Y-4.4775
X11.2325Y-5.0775
X11.3325Y-4.4775
X11.3325Y-5.0775
X11.4325Y-4.4775
X11.4325Y-5.0775
X11.5325Y-4.4775
X11.5325Y-5.0775
X11.6325Y-4.4775
X11.6325Y-5.0775
X11.7325Y-4.4775
X11.7325Y-5.0775
X11.8325Y-4.4775
X11.8325Y-5.0775
X11.9325Y-4.4775
X11.9325Y-5.0775
X12.0325Y-4.4775
X12.0325Y-5.0775
X12.1325Y-4.4775
X12.1325Y-5.0775
X12.2325Y-4.4775
X12.2325Y-5.0775
X12.3325Y-4.4775
X12.3325Y-5.0775
X12.4325Y-4.4775
X12.4325Y-5.0775
X12.5325Y-4.4775
X12.5325Y-5.0775
X12.6325Y-4.4775
X12.6325Y-5.0775
X12.7325Y-4.4775
X12.7325Y-5.0775
X12.8325Y-4.4775
X12.8325Y-5.0775
X12.9325Y-4.4775
X12.9325Y-5.0775
X9.515Y-4.6688
X9.515Y-4.9688
X4.615Y-4.73
X4.615Y-5.03
X10.715Y-4.7938
X10.715Y-5.0938
X13.645Y-4.2881
X13.645Y-4.485
X3.415Y-4.605
X3.415Y-4.905
X11.6825Y-4.3213
X11.8746Y-4.3213
X8.915Y-4.6063
X8.915Y-4.9062
X8.015Y-4.6688
X8.015Y-4.9688
X10.115Y-4.7313
X10.115Y-5.0312
X5.515Y-4.6688
X5.515Y-4.9688
X7.515Y-4.6688
X7.515Y-4.9688
X12.0612Y-4.2528
X12.0612Y-4.3513
X5.015Y-4.6688
X5.015Y-4.9688
X11.8856Y-5.17
X12.0825Y-5.17
X6.615Y-4.7313
X6.615Y-5.0312
X8.315Y-4.8563
X8.315Y-5.1562
X4.315Y-4.8563
X4.315Y-5.1562
X8.215Y-4.7938
X8.215Y-5.0938
X9.815Y-4.8563
X9.815Y-5.1562
X10.015Y-4.6688
X10.015Y-4.9688
X4.015Y-4.6688
X4.015Y-4.9688
X8.815Y-4.8563
X8.815Y-5.1562
X5.115Y-4.73
X5.115Y-5.03
X10.815Y-4.855
X10.815Y-5.155
X5.815Y-4.855
X5.815Y-5.155
X8.715Y-4.7938
X8.715Y-5.0938
X9.015Y-4.6688
X9.015Y-4.9688
X4.115Y-4.73
X4.115Y-5.03
X5.215Y-4.7938
X5.215Y-5.0938
X13.585Y-4.7475
X13.585Y-5.0475
X8.515Y-4.6688
X8.515Y-4.9688
X4.715Y-4.7938
X4.715Y-5.0938
X6.715Y-4.7938
X6.715Y-5.0938
X10.515Y-4.6688
X10.515Y-4.9688
X6.915Y-4.6063
X6.915Y-4.9062
X6.015Y-4.6688
X6.015Y-4.9688
X4.815Y-4.8563
X4.815Y-5.1562
X3.715Y-4.7938
X3.715Y-5.0938
X7.115Y-4.7313
X7.115Y-5.0312
X3.615Y-4.73
X3.615Y-5.03
X5.915Y-4.6063
X5.915Y-4.9062
X10.615Y-4.7313
X10.615Y-5.0312
X7.915Y-4.6063
X7.915Y-4.9062
X11.4962Y-4.2528
X11.4962Y-4.3513
X7.015Y-4.6688
X7.015Y-4.9688
X8.115Y-4.7313
X8.115Y-5.0312
X8.415Y-4.6063
X8.415Y-4.9062
X10.415Y-4.605
X10.415Y-4.905
T5
X13.955Y-4.39
X14.055Y-4.39
X13.755Y-4.39
X13.855Y-4.39
T6
X3.4Y-5.4141
X3.4Y-5.985
X3.4984Y-5.985
X3.5969Y-5.4141
X3.5969Y-5.985
X13.9016Y-5.411
X13.9016Y-5.9819
X14.0Y-5.9819
X14.0984Y-5.411
X14.0984Y-5.9819
X10.085Y-4.355
X10.085Y-4.455
X10.185Y-4.355
X10.185Y-4.455
X10.285Y-4.355
X10.285Y-4.455
T7
X9.6503Y-4.2916
X9.6503Y-4.4688
X9.9062Y-4.2916
X9.9062Y-4.4688
X9.1816Y-4.2916
X9.1816Y-4.4688
X9.4375Y-4.2916
X9.4375Y-4.4688
T9
X3.278Y-5.6897
X3.7189Y-5.6897
X13.7795Y-5.6866
X14.2205Y-5.6866
T10
X4.625Y-6.0634
X8.375Y-8.3125
X9.125Y-6.065
X3.28Y-5.15
X12.125Y-7.5625
X5.375Y-7.5625
X10.625Y-6.815
X14.2188Y-5.1562
X3.2812Y-4.375
X13.625Y-8.3125
X14.2188Y-4.375
X3.875Y-8.3125
X12.875Y-6.063
X6.875Y-6.8125
T11
X11.55Y-7.1875
X11.95Y-7.1875
X13.8Y-7.1875
X14.2Y-7.1875
X9.3Y-6.4375
X9.7Y-6.4375
X6.3Y-7.9375
X6.7Y-7.9375
X8.55Y-7.1875
X8.95Y-7.1875
X5.55Y-7.9375
X5.95Y-7.9375
X4.05Y-8.6875
X4.45Y-8.6875
X13.8Y-7.9375
X14.2Y-7.9375
X4.05Y-5.6875
X4.45Y-5.6875
X10.05Y-7.9375
X10.45Y-7.9375
X7.8Y-7.9375
X8.2Y-7.9375
X10.8Y-5.6875
X11.2Y-5.6875
X9.675Y-8.6875
X10.075Y-8.6875
X3.3Y-7.9375
X3.7Y-7.9375
X11.55Y-5.6875
X11.95Y-5.6875
X6.3Y-6.4375
X6.7Y-6.4375
X13.05Y-5.6875
X13.45Y-5.6875
X12.3Y-6.4375
X12.7Y-6.4375
X5.55Y-8.6875
X5.95Y-8.6875
X6.3Y-8.6875
X6.7Y-8.6875
X4.8Y-5.6875
X5.2Y-5.6875
X13.05Y-7.9375
X13.45Y-7.9375
X12.3Y-7.9375
X12.7Y-7.9375
X7.8Y-7.1875
X8.2Y-7.1875
X7.8Y-6.4375
X8.2Y-6.4375
X13.05Y-7.1875
X13.45Y-7.1875
X10.05Y-8.6875
X10.45Y-8.6875
X6.3Y-5.6875
X6.7Y-5.6875
X10.8Y-8.6875
X11.2Y-8.6875
X10.05Y-6.4375
X10.45Y-6.4375
X7.05Y-8.6875
X7.45Y-8.6875
X4.8Y-7.1875
X5.2Y-7.1875
X6.3Y-7.1875
X6.7Y-7.1875
X5.55Y-6.4375
X5.95Y-6.4375
X8.55Y-6.4375
X8.95Y-6.4375
X12.3Y-8.6875
X12.7Y-8.6875
X9.3Y-5.6875
X9.7Y-5.6875
X11.55Y-7.9375
X11.95Y-7.9375
X7.425Y-8.6875
X7.825Y-8.6875
X4.05Y-7.9375
X4.45Y-7.9375
X7.8Y-8.6875
X8.2Y-8.6875
X7.05Y-6.4375
X7.45Y-6.4375
X3.3Y-6.4375
X3.7Y-6.4375
X5.55Y-5.6875
X5.95Y-5.6875
X13.8Y-6.4375
X14.2Y-6.4375
X8.55Y-5.6875
X8.95Y-5.6875
X10.8Y-7.1875
X11.2Y-7.1875
X8.55Y-7.9375
X8.95Y-7.9375
X8.55Y-8.6875
X8.95Y-8.6875
X4.8Y-6.4375
X5.2Y-6.4375
X11.55Y-6.4375
X11.95Y-6.4375
X12.3Y-5.6875
X12.7Y-5.6875
X4.8Y-7.9375
X5.2Y-7.9375
X3.3Y-8.6875
X3.7Y-8.6875
X10.8Y-6.4375
X11.2Y-6.4375
X7.05Y-5.6875
X7.45Y-5.6875
X9.3Y-7.1875
X9.7Y-7.1875
X7.05Y-7.9375
X7.45Y-7.9375
X9.3Y-7.9375
X9.7Y-7.9375
X9.3Y-8.6875
X9.7Y-8.6875
X13.05Y-8.6875
X13.45Y-8.6875
X3.3Y-7.1875
X3.7Y-7.1875
X10.05Y-5.6875
X10.45Y-5.6875
X4.05Y-6.4375
X4.45Y-6.4375
X8.925Y-8.6875
X9.325Y-8.6875
X11.55Y-8.6875
X11.95Y-8.6875
X10.05Y-7.1875
X10.45Y-7.1875
X7.8Y-5.6875
X8.2Y-5.6875
X8.175Y-8.6875
X8.575Y-8.6875
X13.8Y-8.6875
X14.2Y-8.6875
X13.05Y-6.4375
X13.45Y-6.4375
X10.8Y-7.9375
X11.2Y-7.9375
X4.8Y-8.6875
X5.2Y-8.6875
X12.3Y-7.1875
X12.7Y-7.1875
X7.05Y-7.1875
X7.45Y-7.1875
X13.8Y-5.6875
X14.2Y-5.6875
X3.3Y-5.6875
X3.7Y-5.6875
X5.55Y-7.1875
X5.95Y-7.1875
X4.05Y-7.1875
X4.45Y-7.1875
T12
X9.405Y-8.9625
X7.155Y-8.9625
X9.595Y-8.9625
X7.905Y-8.9625
X8.845Y-8.9625
X10.345Y-8.9625
X8.095Y-8.9625
X8.655Y-8.9625
T13
X11.75Y-8.6875
X10.25Y-7.1875
X8.0Y-5.6875
X7.905Y-8.3625
X8.375Y-8.6875
X8.845Y-8.3625
X14.0Y-8.6875
X13.25Y-6.4375
X11.0Y-7.9375
X5.0Y-8.6875
X12.5Y-7.1875
X7.25Y-7.1875
X14.0Y-5.6875
X3.5Y-5.6875
X5.75Y-7.1875
X4.25Y-7.1875
X11.75Y-7.1875
X14.0Y-7.1875
X9.5Y-6.4375
X6.5Y-7.9375
X8.75Y-7.1875
X5.75Y-7.9375
X4.25Y-8.6875
X14.0Y-7.9375
X4.25Y-5.6875
X10.25Y-7.9375
X8.0Y-7.9375
X11.0Y-5.6875
X9.405Y-8.3625
X9.875Y-8.6875
X10.345Y-8.3625
X3.5Y-7.9375
X11.75Y-5.6875
X6.5Y-6.4375
X13.25Y-5.6875
X12.5Y-6.4375
X5.75Y-8.6875
X6.5Y-8.6875
X5.0Y-5.6875
X13.25Y-7.9375
X12.5Y-7.9375
X8.0Y-7.1875
X8.0Y-6.4375
X13.25Y-7.1875
X10.25Y-8.6875
X6.5Y-5.6875
X11.0Y-8.6875
X10.25Y-6.4375
X7.25Y-8.6875
X5.0Y-7.1875
X6.5Y-7.1875
X5.75Y-6.4375
X8.75Y-6.4375
X12.5Y-8.6875
X9.5Y-5.6875
X11.75Y-7.9375
X7.155Y-8.3625
X7.625Y-8.6875
X8.095Y-8.3625
X4.25Y-7.9375
X8.0Y-8.6875
X7.25Y-6.4375
X3.5Y-6.4375
X5.75Y-5.6875
X14.0Y-6.4375
X8.75Y-5.6875
X11.0Y-7.1875
X8.75Y-7.9375
X8.75Y-8.6875
X5.0Y-6.4375
X11.75Y-6.4375
X12.5Y-5.6875
X5.0Y-7.9375
X3.5Y-8.6875
X11.0Y-6.4375
X7.25Y-5.6875
X9.5Y-7.1875
X7.25Y-7.9375
X9.5Y-7.9375
X9.5Y-8.6875
X13.25Y-8.6875
X3.5Y-7.1875
X10.25Y-5.6875
X4.25Y-6.4375
X8.655Y-8.3625
X9.125Y-8.6875
X9.595Y-8.3625
T2
G00X13.1185Y-4.2685
M15
G01X13.1185Y-4.237
M16
G05
G00X13.1185Y-4.4154
M15
G01X13.1185Y-4.3563
M16
G05
G00X13.4591Y-4.2685
M15
G01X13.4591Y-4.237
M16
G05
G00X13.4591Y-4.4154
M15
G01X13.4591Y-4.3563
M16
G05
T8
G00X7.0999Y-7.0869
M15
G01X7.1513Y-7.0298
M16
G05
G00X7.3484Y-7.0101
M15
G01X7.35Y-6.9877
M16
G05
G00X13.8499Y-5.5869
M15
G01X13.9013Y-5.5298
M16
G05
G00X14.0984Y-5.5101
M15
G01X14.1Y-5.4877
M16
G05
G00X3.3499Y-5.5869
M15
G01X3.4013Y-5.5298
M16
G05
G00X3.5984Y-5.5101
M15
G01X3.6Y-5.4877
M16
G05
G00X5.5999Y-7.0869
M15
G01X5.6513Y-7.0298
M16
G05
G00X5.8484Y-7.0101
M15
G01X5.85Y-6.9877
M16
G05
G00X4.0999Y-7.0869
M15
G01X4.1513Y-7.0298
M16
G05
G00X4.3484Y-7.0101
M15
G01X4.35Y-6.9877
M16
G05
G00X11.5999Y-7.0869
M15
G01X11.6513Y-7.0298
M16
G05
G00X11.8484Y-7.0101
M15
G01X11.85Y-6.9877
M16
G05
G00X13.8499Y-7.0869
M15
G01X13.9013Y-7.0298
M16
G05
G00X14.0984Y-7.0101
M15
G01X14.1Y-6.9877
M16
G05
G00X9.3499Y-6.3369
M15
G01X9.4013Y-6.2798
M16
G05
G00X9.5984Y-6.2601
M15
G01X9.6Y-6.2377
M16
G05
G00X6.3499Y-7.8369
M15
G01X6.4013Y-7.7798
M16
G05
G00X6.5984Y-7.7601
M15
G01X6.6Y-7.7377
M16
G05
G00X8.5999Y-7.0869
M15
G01X8.6513Y-7.0298
M16
G05
G00X8.8484Y-7.0101
M15
G01X8.85Y-6.9877
M16
G05
G00X5.5999Y-7.8369
M15
G01X5.6513Y-7.7798
M16
G05
G00X5.8484Y-7.7601
M15
G01X5.85Y-7.7377
M16
G05
G00X4.0999Y-8.5869
M15
G01X4.1513Y-8.5298
M16
G05
G00X4.3484Y-8.5101
M15
G01X4.35Y-8.4877
M16
G05
G00X13.8499Y-7.8369
M15
G01X13.9013Y-7.7798
M16
G05
G00X14.0984Y-7.7601
M15
G01X14.1Y-7.7377
M16
G05
G00X4.0999Y-5.5869
M15
G01X4.1513Y-5.5298
M16
G05
G00X4.3484Y-5.5101
M15
G01X4.35Y-5.4877
M16
G05
G00X10.0999Y-7.8369
M15
G01X10.1513Y-7.7798
M16
G05
G00X10.3484Y-7.7601
M15
G01X10.35Y-7.7377
M16
G05
G00X7.8499Y-7.8369
M15
G01X7.9013Y-7.7798
M16
G05
G00X8.0984Y-7.7601
M15
G01X8.1Y-7.7377
M16
G05
G00X10.8499Y-5.5869
M15
G01X10.9013Y-5.5298
M16
G05
G00X11.0984Y-5.5101
M15
G01X11.1Y-5.4877
M16
G05
G00X9.7766Y-8.8649
M15
G01X9.775Y-8.8873
M16
G05
G00X10.0251Y-8.7881
M15
G01X9.9737Y-8.8452
M16
G05
G00X3.3499Y-7.8369
M15
G01X3.4013Y-7.7798
M16
G05
G00X3.5984Y-7.7601
M15
G01X3.6Y-7.7377
M16
G05
G00X11.5999Y-5.5869
M15
G01X11.6513Y-5.5298
M16
G05
G00X11.8484Y-5.5101
M15
G01X11.85Y-5.4877
M16
G05
G00X6.3499Y-6.3369
M15
G01X6.4013Y-6.2798
M16
G05
G00X6.5984Y-6.2601
M15
G01X6.6Y-6.2377
M16
G05
G00X13.0999Y-5.5869
M15
G01X13.1513Y-5.5298
M16
G05
G00X13.3484Y-5.5101
M15
G01X13.35Y-5.4877
M16
G05
G00X12.3499Y-6.3369
M15
G01X12.4013Y-6.2798
M16
G05
G00X12.5984Y-6.2601
M15
G01X12.6Y-6.2377
M16
G05
G00X5.5999Y-8.5869
M15
G01X5.6513Y-8.5298
M16
G05
G00X5.8484Y-8.5101
M15
G01X5.85Y-8.4877
M16
G05
G00X6.3499Y-8.5869
M15
G01X6.4013Y-8.5298
M16
G05
G00X6.5984Y-8.5101
M15
G01X6.6Y-8.4877
M16
G05
G00X4.8499Y-5.5869
M15
G01X4.9013Y-5.5298
M16
G05
G00X5.0984Y-5.5101
M15
G01X5.1Y-5.4877
M16
G05
G00X13.0999Y-7.8369
M15
G01X13.1513Y-7.7798
M16
G05
G00X13.3484Y-7.7601
M15
G01X13.35Y-7.7377
M16
G05
G00X12.3499Y-7.8369
M15
G01X12.4013Y-7.7798
M16
G05
G00X12.5984Y-7.7601
M15
G01X12.6Y-7.7377
M16
G05
G00X7.8499Y-7.0869
M15
G01X7.9013Y-7.0298
M16
G05
G00X8.0984Y-7.0101
M15
G01X8.1Y-6.9877
M16
G05
G00X7.8499Y-6.3369
M15
G01X7.9013Y-6.2798
M16
G05
G00X8.0984Y-6.2601
M15
G01X8.1Y-6.2377
M16
G05
G00X13.0999Y-7.0869
M15
G01X13.1513Y-7.0298
M16
G05
G00X13.3484Y-7.0101
M15
G01X13.35Y-6.9877
M16
G05
G00X10.0999Y-8.5869
M15
G01X10.1513Y-8.5298
M16
G05
G00X10.3484Y-8.5101
M15
G01X10.35Y-8.4877
M16
G05
G00X6.3499Y-5.5869
M15
G01X6.4013Y-5.5298
M16
G05
G00X6.5984Y-5.5101
M15
G01X6.6Y-5.4877
M16
G05
G00X10.8499Y-8.5869
M15
G01X10.9013Y-8.5298
M16
G05
G00X11.0984Y-8.5101
M15
G01X11.1Y-8.4877
M16
G05
G00X10.0999Y-6.3369
M15
G01X10.1513Y-6.2798
M16
G05
G00X10.3484Y-6.2601
M15
G01X10.35Y-6.2377
M16
G05
G00X7.0999Y-8.5869
M15
G01X7.1513Y-8.5298
M16
G05
G00X7.3484Y-8.5101
M15
G01X7.35Y-8.4877
M16
G05
G00X4.8499Y-7.0869
M15
G01X4.9013Y-7.0298
M16
G05
G00X5.0984Y-7.0101
M15
G01X5.1Y-6.9877
M16
G05
G00X6.3499Y-7.0869
M15
G01X6.4013Y-7.0298
M16
G05
G00X6.5984Y-7.0101
M15
G01X6.6Y-6.9877
M16
G05
G00X5.5999Y-6.3369
M15
G01X5.6513Y-6.2798
M16
G05
G00X5.8484Y-6.2601
M15
G01X5.85Y-6.2377
M16
G05
G00X8.5999Y-6.3369
M15
G01X8.6513Y-6.2798
M16
G05
G00X8.8484Y-6.2601
M15
G01X8.85Y-6.2377
M16
G05
G00X12.3499Y-8.5869
M15
G01X12.4013Y-8.5298
M16
G05
G00X12.5984Y-8.5101
M15
G01X12.6Y-8.4877
M16
G05
G00X9.3499Y-5.5869
M15
G01X9.4013Y-5.5298
M16
G05
G00X9.5984Y-5.5101
M15
G01X9.6Y-5.4877
M16
G05
G00X11.5999Y-7.8369
M15
G01X11.6513Y-7.7798
M16
G05
G00X11.8484Y-7.7601
M15
G01X11.85Y-7.7377
M16
G05
G00X7.5266Y-8.8649
M15
G01X7.525Y-8.8873
M16
G05
G00X7.7751Y-8.7881
M15
G01X7.7237Y-8.8452
M16
G05
G00X4.0999Y-7.8369
M15
G01X4.1513Y-7.7798
M16
G05
G00X4.3484Y-7.7601
M15
G01X4.35Y-7.7377
M16
G05
G00X7.8499Y-8.5869
M15
G01X7.9013Y-8.5298
M16
G05
G00X8.0984Y-8.5101
M15
G01X8.1Y-8.4877
M16
G05
G00X7.0999Y-6.3369
M15
G01X7.1513Y-6.2798
M16
G05
G00X7.3484Y-6.2601
M15
G01X7.35Y-6.2377
M16
G05
G00X3.3499Y-6.3369
M15
G01X3.4013Y-6.2798
M16
G05
G00X3.5984Y-6.2601
M15
G01X3.6Y-6.2377
M16
G05
G00X5.5999Y-5.5869
M15
G01X5.6513Y-5.5298
M16
G05
G00X5.8484Y-5.5101
M15
G01X5.85Y-5.4877
M16
G05
G00X13.8499Y-6.3369
M15
G01X13.9013Y-6.2798
M16
G05
G00X14.0984Y-6.2601
M15
G01X14.1Y-6.2377
M16
G05
G00X8.5999Y-5.5869
M15
G01X8.6513Y-5.5298
M16
G05
G00X8.8484Y-5.5101
M15
G01X8.85Y-5.4877
M16
G05
G00X10.8499Y-7.0869
M15
G01X10.9013Y-7.0298
M16
G05
G00X11.0984Y-7.0101
M15
G01X11.1Y-6.9877
M16
G05
G00X8.5999Y-7.8369
M15
G01X8.6513Y-7.7798
M16
G05
G00X8.8484Y-7.7601
M15
G01X8.85Y-7.7377
M16
G05
G00X8.5999Y-8.5869
M15
G01X8.6513Y-8.5298
M16
G05
G00X8.8484Y-8.5101
M15
G01X8.85Y-8.4877
M16
G05
G00X4.8499Y-6.3369
M15
G01X4.9013Y-6.2798
M16
G05
G00X5.0984Y-6.2601
M15
G01X5.1Y-6.2377
M16
G05
G00X11.5999Y-6.3369
M15
G01X11.6513Y-6.2798
M16
G05
G00X11.8484Y-6.2601
M15
G01X11.85Y-6.2377
M16
G05
G00X12.3499Y-5.5869
M15
G01X12.4013Y-5.5298
M16
G05
G00X12.5984Y-5.5101
M15
G01X12.6Y-5.4877
M16
G05
G00X4.8499Y-7.8369
M15
G01X4.9013Y-7.7798
M16
G05
G00X5.0984Y-7.7601
M15
G01X5.1Y-7.7377
M16
G05
G00X3.3499Y-8.5869
M15
G01X3.4013Y-8.5298
M16
G05
G00X3.5984Y-8.5101
M15
G01X3.6Y-8.4877
M16
G05
G00X10.8499Y-6.3369
M15
G01X10.9013Y-6.2798
M16
G05
G00X11.0984Y-6.2601
M15
G01X11.1Y-6.2377
M16
G05
G00X7.0999Y-5.5869
M15
G01X7.1513Y-5.5298
M16
G05
G00X7.3484Y-5.5101
M15
G01X7.35Y-5.4877
M16
G05
G00X9.3499Y-7.0869
M15
G01X9.4013Y-7.0298
M16
G05
G00X9.5984Y-7.0101
M15
G01X9.6Y-6.9877
M16
G05
G00X7.0999Y-7.8369
M15
G01X7.1513Y-7.7798
M16
G05
G00X7.3484Y-7.7601
M15
G01X7.35Y-7.7377
M16
G05
G00X9.3499Y-7.8369
M15
G01X9.4013Y-7.7798
M16
G05
G00X9.5984Y-7.7601
M15
G01X9.6Y-7.7377
M16
G05
G00X9.3499Y-8.5869
M15
G01X9.4013Y-8.5298
M16
G05
G00X9.5984Y-8.5101
M15
G01X9.6Y-8.4877
M16
G05
G00X13.0999Y-8.5869
M15
G01X13.1513Y-8.5298
M16
G05
G00X13.3484Y-8.5101
M15
G01X13.35Y-8.4877
M16
G05
G00X3.3499Y-7.0869
M15
G01X3.4013Y-7.0298
M16
G05
G00X3.5984Y-7.0101
M15
G01X3.6Y-6.9877
M16
G05
G00X10.0999Y-5.5869
M15
G01X10.1513Y-5.5298
M16
G05
G00X10.3484Y-5.5101
M15
G01X10.35Y-5.4877
M16
G05
G00X4.0999Y-6.3369
M15
G01X4.1513Y-6.2798
M16
G05
G00X4.3484Y-6.2601
M15
G01X4.35Y-6.2377
M16
G05
G00X9.0266Y-8.8649
M15
G01X9.025Y-8.8873
M16
G05
G00X9.2751Y-8.7881
M15
G01X9.2237Y-8.8452
M16
G05
G00X11.5999Y-8.5869
M15
G01X11.6513Y-8.5298
M16
G05
G00X11.8484Y-8.5101
M15
G01X11.85Y-8.4877
M16
G05
G00X10.0999Y-7.0869
M15
G01X10.1513Y-7.0298
M16
G05
G00X10.3484Y-7.0101
M15
G01X10.35Y-6.9877
M16
G05
G00X7.8499Y-5.5869
M15
G01X7.9013Y-5.5298
M16
G05
G00X8.0984Y-5.5101
M15
G01X8.1Y-5.4877
M16
G05
G00X8.2766Y-8.8649
M15
G01X8.275Y-8.8873
M16
G05
G00X8.5251Y-8.7881
M15
G01X8.4737Y-8.8452
M16
G05
G00X13.8499Y-8.5869
M15
G01X13.9013Y-8.5298
M16
G05
G00X14.0984Y-8.5101
M15
G01X14.1Y-8.4877
M16
G05
G00X13.0999Y-6.3369
M15
G01X13.1513Y-6.2798
M16
G05
G00X13.3484Y-6.2601
M15
G01X13.35Y-6.2377
M16
G05
G00X10.8499Y-7.8369
M15
G01X10.9013Y-7.7798
M16
G05
G00X11.0984Y-7.7601
M15
G01X11.1Y-7.7377
M16
G05
G00X4.8499Y-8.5869
M15
G01X4.9013Y-8.5298
M16
G05
G00X5.0984Y-8.5101
M15
G01X5.1Y-8.4877
M16
G05
G00X12.3499Y-7.0869
M15
G01X12.4013Y-7.0298
M16
G05
G00X12.5984Y-7.0101
M15
G01X12.6Y-6.9877
M16
G05
T0
M30
