G04 #@! TF.GenerationSoftware,KiCad,Pcbnew,(5.1.6)-1*
G04 #@! TF.CreationDate,2020-11-14T19:47:20+01:00*
G04 #@! TF.ProjectId,punk75_plate_eotw,70756e6b-3735-45f7-906c-6174655f656f,rev?*
G04 #@! TF.SameCoordinates,Original*
G04 #@! TF.FileFunction,Legend,Bot*
G04 #@! TF.FilePolarity,Positive*
%FSLAX46Y46*%
G04 Gerber Fmt 4.6, Leading zero omitted, Abs format (unit mm)*
G04 Created by KiCad (PCBNEW (5.1.6)-1) date 2020-11-14 19:47:20*
%MOMM*%
%LPD*%
G01*
G04 APERTURE LIST*
%ADD10C,0.150000*%
G04 APERTURE END LIST*
D10*
X102879047Y-228372380D02*
X102879047Y-229086666D01*
X102926666Y-229229523D01*
X103021904Y-229324761D01*
X103164761Y-229372380D01*
X103260000Y-229372380D01*
X101926666Y-229372380D02*
X102402857Y-229372380D01*
X102402857Y-228372380D01*
X101021904Y-229277142D02*
X101069523Y-229324761D01*
X101212380Y-229372380D01*
X101307619Y-229372380D01*
X101450476Y-229324761D01*
X101545714Y-229229523D01*
X101593333Y-229134285D01*
X101640952Y-228943809D01*
X101640952Y-228800952D01*
X101593333Y-228610476D01*
X101545714Y-228515238D01*
X101450476Y-228420000D01*
X101307619Y-228372380D01*
X101212380Y-228372380D01*
X101069523Y-228420000D01*
X101021904Y-228467619D01*
X100307619Y-228372380D02*
X100307619Y-229086666D01*
X100355238Y-229229523D01*
X100450476Y-229324761D01*
X100593333Y-229372380D01*
X100688571Y-229372380D01*
X99355238Y-229372380D02*
X99831428Y-229372380D01*
X99831428Y-228372380D01*
X98450476Y-229277142D02*
X98498095Y-229324761D01*
X98640952Y-229372380D01*
X98736190Y-229372380D01*
X98879047Y-229324761D01*
X98974285Y-229229523D01*
X99021904Y-229134285D01*
X99069523Y-228943809D01*
X99069523Y-228800952D01*
X99021904Y-228610476D01*
X98974285Y-228515238D01*
X98879047Y-228420000D01*
X98736190Y-228372380D01*
X98640952Y-228372380D01*
X98498095Y-228420000D01*
X98450476Y-228467619D01*
X97736190Y-228372380D02*
X97736190Y-229086666D01*
X97783809Y-229229523D01*
X97879047Y-229324761D01*
X98021904Y-229372380D01*
X98117142Y-229372380D01*
X96783809Y-229372380D02*
X97260000Y-229372380D01*
X97260000Y-228372380D01*
X95879047Y-229277142D02*
X95926666Y-229324761D01*
X96069523Y-229372380D01*
X96164761Y-229372380D01*
X96307619Y-229324761D01*
X96402857Y-229229523D01*
X96450476Y-229134285D01*
X96498095Y-228943809D01*
X96498095Y-228800952D01*
X96450476Y-228610476D01*
X96402857Y-228515238D01*
X96307619Y-228420000D01*
X96164761Y-228372380D01*
X96069523Y-228372380D01*
X95926666Y-228420000D01*
X95879047Y-228467619D01*
X95164761Y-228372380D02*
X95164761Y-229086666D01*
X95212380Y-229229523D01*
X95307619Y-229324761D01*
X95450476Y-229372380D01*
X95545714Y-229372380D01*
X94212380Y-229372380D02*
X94688571Y-229372380D01*
X94688571Y-228372380D01*
X93307619Y-229277142D02*
X93355238Y-229324761D01*
X93498095Y-229372380D01*
X93593333Y-229372380D01*
X93736190Y-229324761D01*
X93831428Y-229229523D01*
X93879047Y-229134285D01*
X93926666Y-228943809D01*
X93926666Y-228800952D01*
X93879047Y-228610476D01*
X93831428Y-228515238D01*
X93736190Y-228420000D01*
X93593333Y-228372380D01*
X93498095Y-228372380D01*
X93355238Y-228420000D01*
X93307619Y-228467619D01*
X331919523Y-210351428D02*
X331919523Y-211970476D01*
X332014761Y-212160952D01*
X332110000Y-212256190D01*
X332300476Y-212351428D01*
X332586190Y-212351428D01*
X332776666Y-212256190D01*
X331919523Y-211589523D02*
X332110000Y-211684761D01*
X332490952Y-211684761D01*
X332681428Y-211589523D01*
X332776666Y-211494285D01*
X332871904Y-211303809D01*
X332871904Y-210732380D01*
X332776666Y-210541904D01*
X332681428Y-210446666D01*
X332490952Y-210351428D01*
X332110000Y-210351428D01*
X331919523Y-210446666D01*
X330967142Y-211684761D02*
X330967142Y-210351428D01*
X330967142Y-209684761D02*
X331062380Y-209780000D01*
X330967142Y-209875238D01*
X330871904Y-209780000D01*
X330967142Y-209684761D01*
X330967142Y-209875238D01*
X330300476Y-210351428D02*
X329538571Y-210351428D01*
X330014761Y-209684761D02*
X330014761Y-211399047D01*
X329919523Y-211589523D01*
X329729047Y-211684761D01*
X329538571Y-211684761D01*
X328871904Y-211684761D02*
X328871904Y-209684761D01*
X328014761Y-211684761D02*
X328014761Y-210637142D01*
X328110000Y-210446666D01*
X328300476Y-210351428D01*
X328586190Y-210351428D01*
X328776666Y-210446666D01*
X328871904Y-210541904D01*
X326205238Y-210351428D02*
X326205238Y-211684761D01*
X327062380Y-210351428D02*
X327062380Y-211399047D01*
X326967142Y-211589523D01*
X326776666Y-211684761D01*
X326490952Y-211684761D01*
X326300476Y-211589523D01*
X326205238Y-211494285D01*
X325252857Y-211684761D02*
X325252857Y-209684761D01*
X325252857Y-210446666D02*
X325062380Y-210351428D01*
X324681428Y-210351428D01*
X324490952Y-210446666D01*
X324395714Y-210541904D01*
X324300476Y-210732380D01*
X324300476Y-211303809D01*
X324395714Y-211494285D01*
X324490952Y-211589523D01*
X324681428Y-211684761D01*
X325062380Y-211684761D01*
X325252857Y-211589523D01*
X323443333Y-211494285D02*
X323348095Y-211589523D01*
X323443333Y-211684761D01*
X323538571Y-211589523D01*
X323443333Y-211494285D01*
X323443333Y-211684761D01*
X321633809Y-211589523D02*
X321824285Y-211684761D01*
X322205238Y-211684761D01*
X322395714Y-211589523D01*
X322490952Y-211494285D01*
X322586190Y-211303809D01*
X322586190Y-210732380D01*
X322490952Y-210541904D01*
X322395714Y-210446666D01*
X322205238Y-210351428D01*
X321824285Y-210351428D01*
X321633809Y-210446666D01*
X320490952Y-211684761D02*
X320681428Y-211589523D01*
X320776666Y-211494285D01*
X320871904Y-211303809D01*
X320871904Y-210732380D01*
X320776666Y-210541904D01*
X320681428Y-210446666D01*
X320490952Y-210351428D01*
X320205238Y-210351428D01*
X320014761Y-210446666D01*
X319919523Y-210541904D01*
X319824285Y-210732380D01*
X319824285Y-211303809D01*
X319919523Y-211494285D01*
X320014761Y-211589523D01*
X320205238Y-211684761D01*
X320490952Y-211684761D01*
X318967142Y-211684761D02*
X318967142Y-210351428D01*
X318967142Y-210541904D02*
X318871904Y-210446666D01*
X318681428Y-210351428D01*
X318395714Y-210351428D01*
X318205238Y-210446666D01*
X318110000Y-210637142D01*
X318110000Y-211684761D01*
X318110000Y-210637142D02*
X318014761Y-210446666D01*
X317824285Y-210351428D01*
X317538571Y-210351428D01*
X317348095Y-210446666D01*
X317252857Y-210637142D01*
X317252857Y-211684761D01*
X314871904Y-209589523D02*
X316586190Y-212160952D01*
X313348095Y-211684761D02*
X313348095Y-209684761D01*
X313348095Y-211589523D02*
X313538571Y-211684761D01*
X313919523Y-211684761D01*
X314110000Y-211589523D01*
X314205238Y-211494285D01*
X314300476Y-211303809D01*
X314300476Y-210732380D01*
X314205238Y-210541904D01*
X314110000Y-210446666D01*
X313919523Y-210351428D01*
X313538571Y-210351428D01*
X313348095Y-210446666D01*
X312490952Y-211589523D02*
X312300476Y-211684761D01*
X311919523Y-211684761D01*
X311729047Y-211589523D01*
X311633809Y-211399047D01*
X311633809Y-211303809D01*
X311729047Y-211113333D01*
X311919523Y-211018095D01*
X312205238Y-211018095D01*
X312395714Y-210922857D01*
X312490952Y-210732380D01*
X312490952Y-210637142D01*
X312395714Y-210446666D01*
X312205238Y-210351428D01*
X311919523Y-210351428D01*
X311729047Y-210446666D01*
X309919523Y-211684761D02*
X309919523Y-210637142D01*
X310014761Y-210446666D01*
X310205238Y-210351428D01*
X310586190Y-210351428D01*
X310776666Y-210446666D01*
X309919523Y-211589523D02*
X310110000Y-211684761D01*
X310586190Y-211684761D01*
X310776666Y-211589523D01*
X310871904Y-211399047D01*
X310871904Y-211208571D01*
X310776666Y-211018095D01*
X310586190Y-210922857D01*
X310110000Y-210922857D01*
X309919523Y-210827619D01*
X308967142Y-210351428D02*
X308967142Y-211684761D01*
X308967142Y-210541904D02*
X308871904Y-210446666D01*
X308681428Y-210351428D01*
X308395714Y-210351428D01*
X308205238Y-210446666D01*
X308110000Y-210637142D01*
X308110000Y-211684761D01*
X306300476Y-211589523D02*
X306490952Y-211684761D01*
X306871904Y-211684761D01*
X307062380Y-211589523D01*
X307157619Y-211494285D01*
X307252857Y-211303809D01*
X307252857Y-210732380D01*
X307157619Y-210541904D01*
X307062380Y-210446666D01*
X306871904Y-210351428D01*
X306490952Y-210351428D01*
X306300476Y-210446666D01*
X305443333Y-211684761D02*
X305443333Y-209684761D01*
X304586190Y-211684761D02*
X304586190Y-210637142D01*
X304681428Y-210446666D01*
X304871904Y-210351428D01*
X305157619Y-210351428D01*
X305348095Y-210446666D01*
X305443333Y-210541904D01*
X302871904Y-211589523D02*
X303062380Y-211684761D01*
X303443333Y-211684761D01*
X303633809Y-211589523D01*
X303729047Y-211399047D01*
X303729047Y-210637142D01*
X303633809Y-210446666D01*
X303443333Y-210351428D01*
X303062380Y-210351428D01*
X302871904Y-210446666D01*
X302776666Y-210637142D01*
X302776666Y-210827619D01*
X303729047Y-211018095D01*
X302110000Y-210351428D02*
X301062380Y-210351428D01*
X302110000Y-211684761D01*
X301062380Y-211684761D01*
X300395714Y-211589523D02*
X300205238Y-211684761D01*
X299824285Y-211684761D01*
X299633809Y-211589523D01*
X299538571Y-211399047D01*
X299538571Y-211303809D01*
X299633809Y-211113333D01*
X299824285Y-211018095D01*
X300110000Y-211018095D01*
X300300476Y-210922857D01*
X300395714Y-210732380D01*
X300395714Y-210637142D01*
X300300476Y-210446666D01*
X300110000Y-210351428D01*
X299824285Y-210351428D01*
X299633809Y-210446666D01*
X297919523Y-211589523D02*
X298110000Y-211684761D01*
X298490952Y-211684761D01*
X298681428Y-211589523D01*
X298776666Y-211399047D01*
X298776666Y-210637142D01*
X298681428Y-210446666D01*
X298490952Y-210351428D01*
X298110000Y-210351428D01*
X297919523Y-210446666D01*
X297824285Y-210637142D01*
X297824285Y-210827619D01*
X298776666Y-211018095D01*
X296110000Y-211589523D02*
X296300476Y-211684761D01*
X296681428Y-211684761D01*
X296871904Y-211589523D01*
X296967142Y-211494285D01*
X297062380Y-211303809D01*
X297062380Y-210732380D01*
X296967142Y-210541904D01*
X296871904Y-210446666D01*
X296681428Y-210351428D01*
X296300476Y-210351428D01*
X296110000Y-210446666D01*
X294967142Y-211684761D02*
X295157619Y-211589523D01*
X295252857Y-211494285D01*
X295348095Y-211303809D01*
X295348095Y-210732380D01*
X295252857Y-210541904D01*
X295157619Y-210446666D01*
X294967142Y-210351428D01*
X294681428Y-210351428D01*
X294490952Y-210446666D01*
X294395714Y-210541904D01*
X294300476Y-210732380D01*
X294300476Y-211303809D01*
X294395714Y-211494285D01*
X294490952Y-211589523D01*
X294681428Y-211684761D01*
X294967142Y-211684761D01*
X292014761Y-209589523D02*
X293729047Y-212160952D01*
X291348095Y-210351428D02*
X291348095Y-212351428D01*
X291348095Y-210446666D02*
X291157619Y-210351428D01*
X290776666Y-210351428D01*
X290586190Y-210446666D01*
X290490952Y-210541904D01*
X290395714Y-210732380D01*
X290395714Y-211303809D01*
X290490952Y-211494285D01*
X290586190Y-211589523D01*
X290776666Y-211684761D01*
X291157619Y-211684761D01*
X291348095Y-211589523D01*
X288681428Y-210351428D02*
X288681428Y-211684761D01*
X289538571Y-210351428D02*
X289538571Y-211399047D01*
X289443333Y-211589523D01*
X289252857Y-211684761D01*
X288967142Y-211684761D01*
X288776666Y-211589523D01*
X288681428Y-211494285D01*
X287729047Y-210351428D02*
X287729047Y-211684761D01*
X287729047Y-210541904D02*
X287633809Y-210446666D01*
X287443333Y-210351428D01*
X287157619Y-210351428D01*
X286967142Y-210446666D01*
X286871904Y-210637142D01*
X286871904Y-211684761D01*
X285919523Y-211684761D02*
X285919523Y-209684761D01*
X285729047Y-210922857D02*
X285157619Y-211684761D01*
X285157619Y-210351428D02*
X285919523Y-211113333D01*
X284490952Y-209684761D02*
X283157619Y-209684761D01*
X284014761Y-211684761D01*
X281443333Y-209684761D02*
X282395714Y-209684761D01*
X282490952Y-210637142D01*
X282395714Y-210541904D01*
X282205238Y-210446666D01*
X281729047Y-210446666D01*
X281538571Y-210541904D01*
X281443333Y-210637142D01*
X281348095Y-210827619D01*
X281348095Y-211303809D01*
X281443333Y-211494285D01*
X281538571Y-211589523D01*
X281729047Y-211684761D01*
X282205238Y-211684761D01*
X282395714Y-211589523D01*
X282490952Y-211494285D01*
M02*
