G04 #@! TF.GenerationSoftware,KiCad,Pcbnew,(5.1.6)-1*
G04 #@! TF.CreationDate,2020-11-14T19:47:20+01:00*
G04 #@! TF.ProjectId,punk75_plate_eotw,70756e6b-3735-45f7-906c-6174655f656f,rev?*
G04 #@! TF.SameCoordinates,Original*
G04 #@! TF.FileFunction,Profile,NP*
%FSLAX46Y46*%
G04 Gerber Fmt 4.6, Leading zero omitted, Abs format (unit mm)*
G04 Created by KiCad (PCBNEW (5.1.6)-1) date 2020-11-14 19:47:20*
%MOMM*%
%LPD*%
G01*
G04 APERTURE LIST*
G04 #@! TA.AperFunction,Profile*
%ADD10C,0.200000*%
G04 #@! TD*
G04 #@! TA.AperFunction,Profile*
%ADD11C,0.050000*%
G04 #@! TD*
G04 APERTURE END LIST*
D10*
X310330000Y-192100000D02*
G75*
G03*
X310330000Y-192100000I-2350000J0D01*
G01*
D11*
X362748750Y-134298750D02*
G75*
G02*
X365130000Y-136680000I0J-2381250D01*
G01*
X79378750Y-136680000D02*
G75*
G02*
X81760000Y-134298750I2381250J0D01*
G01*
X81760000Y-134298750D02*
X362748750Y-134298750D01*
X79378750Y-136680000D02*
X79375000Y-227806250D01*
D10*
X228824163Y-170365837D02*
X215424163Y-170365837D01*
X215124163Y-156665837D02*
G75*
G02*
X215424163Y-156365837I300000J0D01*
G01*
X152624163Y-189415837D02*
X139224163Y-189415837D01*
X348774163Y-137315837D02*
X362174163Y-137315837D01*
X329424163Y-151015837D02*
X329424163Y-137615837D01*
X362474163Y-137615837D02*
X362474163Y-151015837D01*
X329724163Y-137315837D02*
X343124163Y-137315837D01*
X348774163Y-151315837D02*
G75*
G02*
X348474163Y-151015837I0J300000D01*
G01*
X229124163Y-156665837D02*
X229124163Y-170065837D01*
X348474163Y-137615837D02*
G75*
G02*
X348774163Y-137315837I300000J0D01*
G01*
X343424163Y-151015837D02*
G75*
G02*
X343124163Y-151315837I-300000J0D01*
G01*
X348474163Y-151015837D02*
X348474163Y-137615837D01*
X343424163Y-137615837D02*
X343424163Y-151015837D01*
X228824163Y-156365837D02*
G75*
G02*
X229124163Y-156665837I0J-300000D01*
G01*
X329724163Y-151315837D02*
G75*
G02*
X329424163Y-151015837I0J300000D01*
G01*
X343124163Y-151315837D02*
X329724163Y-151315837D01*
X215424163Y-170365837D02*
G75*
G02*
X215124163Y-170065837I0J300000D01*
G01*
X215124163Y-170065837D02*
X215124163Y-156665837D01*
X215424163Y-156365837D02*
X228824163Y-156365837D01*
X362174163Y-137315837D02*
G75*
G02*
X362474163Y-137615837I0J-300000D01*
G01*
X329424163Y-137615837D02*
G75*
G02*
X329724163Y-137315837I300000J0D01*
G01*
X343124163Y-137315837D02*
G75*
G02*
X343424163Y-137615837I0J-300000D01*
G01*
X229124163Y-170065837D02*
G75*
G02*
X228824163Y-170365837I-300000J0D01*
G01*
X152924163Y-227215837D02*
G75*
G02*
X152624163Y-227515837I-300000J0D01*
G01*
X171674163Y-227515837D02*
X158274163Y-227515837D01*
X120174163Y-227515837D02*
G75*
G02*
X119874163Y-227215837I0J300000D01*
G01*
X133874163Y-213815837D02*
X133874163Y-227215837D01*
X100824163Y-213815837D02*
G75*
G02*
X101124163Y-213515837I300000J0D01*
G01*
X152624163Y-227515837D02*
X139224163Y-227515837D01*
X171974163Y-227215837D02*
G75*
G02*
X171674163Y-227515837I-300000J0D01*
G01*
X138924163Y-227215837D02*
X138924163Y-213815837D01*
X139224163Y-227515837D02*
G75*
G02*
X138924163Y-227215837I0J300000D01*
G01*
X152624163Y-213515837D02*
G75*
G02*
X152924163Y-213815837I0J-300000D01*
G01*
X119874163Y-227215837D02*
X119874163Y-213815837D01*
X157974163Y-227215837D02*
X157974163Y-213815837D01*
X101124163Y-213515837D02*
X114524163Y-213515837D01*
X119874163Y-213815837D02*
G75*
G02*
X120174163Y-213515837I300000J0D01*
G01*
X152924163Y-213815837D02*
X152924163Y-227215837D01*
X120174163Y-213515837D02*
X133574163Y-213515837D01*
X157974163Y-213815837D02*
G75*
G02*
X158274163Y-213515837I300000J0D01*
G01*
X133874163Y-227215837D02*
G75*
G02*
X133574163Y-227515837I-300000J0D01*
G01*
X138924163Y-213815837D02*
G75*
G02*
X139224163Y-213515837I300000J0D01*
G01*
X101124163Y-227515837D02*
G75*
G02*
X100824163Y-227215837I0J300000D01*
G01*
X100824163Y-227215837D02*
X100824163Y-213815837D01*
X139224163Y-213515837D02*
X152624163Y-213515837D01*
X171674163Y-213515837D02*
G75*
G02*
X171974163Y-213815837I0J-300000D01*
G01*
X133574163Y-227515837D02*
X120174163Y-227515837D01*
X158274163Y-213515837D02*
X171674163Y-213515837D01*
X133574163Y-213515837D02*
G75*
G02*
X133874163Y-213815837I0J-300000D01*
G01*
X171974163Y-213815837D02*
X171974163Y-227215837D01*
X95774163Y-227215837D02*
G75*
G02*
X95474163Y-227515837I-300000J0D01*
G01*
X329424163Y-208165837D02*
X329424163Y-194765837D01*
X95474163Y-227515837D02*
X82074163Y-227515837D01*
X329724163Y-208465837D02*
G75*
G02*
X329424163Y-208165837I0J300000D01*
G01*
X348774163Y-194465837D02*
X362174163Y-194465837D01*
X81774163Y-227215837D02*
X81774163Y-213815837D01*
X343424163Y-208165837D02*
G75*
G02*
X343124163Y-208465837I-300000J0D01*
G01*
X95774163Y-213815837D02*
X95774163Y-227215837D01*
X362174163Y-194465837D02*
G75*
G02*
X362474163Y-194765837I0J-300000D01*
G01*
X362474163Y-208165837D02*
G75*
G02*
X362174163Y-208465837I-300000J0D01*
G01*
X348474163Y-208165837D02*
X348474163Y-194765837D01*
X348474163Y-194765837D02*
G75*
G02*
X348774163Y-194465837I300000J0D01*
G01*
X362474163Y-194765837D02*
X362474163Y-208165837D01*
X329724163Y-194465837D02*
X343124163Y-194465837D01*
X362174163Y-208465837D02*
X348774163Y-208465837D01*
X343424163Y-194765837D02*
X343424163Y-208165837D01*
X329424163Y-194765837D02*
G75*
G02*
X329724163Y-194465837I300000J0D01*
G01*
X343124163Y-194465837D02*
G75*
G02*
X343424163Y-194765837I0J-300000D01*
G01*
X114524163Y-213515837D02*
G75*
G02*
X114824163Y-213815837I0J-300000D01*
G01*
X114824163Y-213815837D02*
X114824163Y-227215837D01*
X114824163Y-227215837D02*
G75*
G02*
X114524163Y-227515837I-300000J0D01*
G01*
X114524163Y-227515837D02*
X101124163Y-227515837D01*
X82074163Y-227515837D02*
G75*
G02*
X81774163Y-227215837I0J300000D01*
G01*
X343124163Y-208465837D02*
X329724163Y-208465837D01*
X81774163Y-213815837D02*
G75*
G02*
X82074163Y-213515837I300000J0D01*
G01*
X82074163Y-213515837D02*
X95474163Y-213515837D01*
X95474163Y-213515837D02*
G75*
G02*
X95774163Y-213815837I0J-300000D01*
G01*
X348774163Y-208465837D02*
G75*
G02*
X348474163Y-208165837I0J300000D01*
G01*
X291324163Y-151015837D02*
X291324163Y-137615837D01*
X272274163Y-137615837D02*
G75*
G02*
X272574163Y-137315837I300000J0D01*
G01*
X291324163Y-208165837D02*
X291324163Y-194765837D01*
X305024163Y-208465837D02*
X291624163Y-208465837D01*
X291624163Y-151315837D02*
G75*
G02*
X291324163Y-151015837I0J300000D01*
G01*
X101124163Y-156365837D02*
X114524163Y-156365837D01*
X114524163Y-170365837D02*
X101124163Y-170365837D01*
X133874163Y-156665837D02*
X133874163Y-170065837D01*
X272274163Y-208165837D02*
X272274163Y-194765837D01*
X286274163Y-208165837D02*
G75*
G02*
X285974163Y-208465837I-300000J0D01*
G01*
X286274163Y-151015837D02*
G75*
G02*
X285974163Y-151315837I-300000J0D01*
G01*
X177024163Y-213815837D02*
X177024163Y-227215837D01*
X310374163Y-208165837D02*
X310374163Y-194765837D01*
X305324163Y-208165837D02*
G75*
G02*
X305024163Y-208465837I-300000J0D01*
G01*
X158274163Y-189415837D02*
G75*
G02*
X157974163Y-189115837I0J300000D01*
G01*
X310674163Y-208465837D02*
G75*
G02*
X310374163Y-208165837I0J300000D01*
G01*
X157974163Y-175715837D02*
G75*
G02*
X158274163Y-175415837I300000J0D01*
G01*
X310374163Y-194765837D02*
G75*
G02*
X310674163Y-194465837I300000J0D01*
G01*
X324074163Y-194465837D02*
G75*
G02*
X324374163Y-194765837I0J-300000D01*
G01*
X272574163Y-137315837D02*
X285974163Y-137315837D01*
X272274163Y-194765837D02*
G75*
G02*
X272574163Y-194465837I300000J0D01*
G01*
X324374163Y-194765837D02*
X324374163Y-208165837D01*
X324374163Y-208165837D02*
G75*
G02*
X324074163Y-208465837I-300000J0D01*
G01*
X324074163Y-208465837D02*
X310674163Y-208465837D01*
X272574163Y-194465837D02*
X285974163Y-194465837D01*
X286274163Y-137615837D02*
X286274163Y-151015837D01*
X272574163Y-151315837D02*
G75*
G02*
X272274163Y-151015837I0J300000D01*
G01*
X157974163Y-189115837D02*
X157974163Y-175715837D01*
X285974163Y-208465837D02*
X272574163Y-208465837D01*
X119874163Y-170065837D02*
X119874163Y-156665837D01*
X158274163Y-175415837D02*
X171674163Y-175415837D01*
X285974163Y-137315837D02*
G75*
G02*
X286274163Y-137615837I0J-300000D01*
G01*
X266924163Y-213515837D02*
X177324163Y-213515837D01*
X291624163Y-208465837D02*
G75*
G02*
X291324163Y-208165837I0J300000D01*
G01*
X114824163Y-170065837D02*
G75*
G02*
X114524163Y-170365837I-300000J0D01*
G01*
X266924163Y-213515837D02*
G75*
G02*
X267224163Y-213815837I0J-300000D01*
G01*
X285974163Y-194465837D02*
G75*
G02*
X286274163Y-194765837I0J-300000D01*
G01*
X101124163Y-170365837D02*
G75*
G02*
X100824163Y-170065837I0J300000D01*
G01*
X291324163Y-194765837D02*
G75*
G02*
X291624163Y-194465837I300000J0D01*
G01*
X133574163Y-170365837D02*
X120174163Y-170365837D01*
X305324163Y-194765837D02*
X305324163Y-208165837D01*
X120174163Y-170365837D02*
G75*
G02*
X119874163Y-170065837I0J300000D01*
G01*
X286274163Y-194765837D02*
X286274163Y-208165837D01*
X100824163Y-170065837D02*
X100824163Y-156665837D01*
X305024163Y-194465837D02*
G75*
G02*
X305324163Y-194765837I0J-300000D01*
G01*
X291624163Y-137315837D02*
X305024163Y-137315837D01*
X119874163Y-156665837D02*
G75*
G02*
X120174163Y-156365837I300000J0D01*
G01*
X305324163Y-137615837D02*
X305324163Y-151015837D01*
X305024163Y-137315837D02*
G75*
G02*
X305324163Y-137615837I0J-300000D01*
G01*
X120174163Y-156365837D02*
X133574163Y-156365837D01*
X133574163Y-156365837D02*
G75*
G02*
X133874163Y-156665837I0J-300000D01*
G01*
X133874163Y-170065837D02*
G75*
G02*
X133574163Y-170365837I-300000J0D01*
G01*
X285974163Y-151315837D02*
X272574163Y-151315837D01*
X177024163Y-213815837D02*
G75*
G02*
X177324163Y-213515837I300000J0D01*
G01*
X177324163Y-227515837D02*
G75*
G02*
X177024163Y-227215837I0J300000D01*
G01*
X291324163Y-137615837D02*
G75*
G02*
X291624163Y-137315837I300000J0D01*
G01*
X291624163Y-194465837D02*
X305024163Y-194465837D01*
X114524163Y-156365837D02*
G75*
G02*
X114824163Y-156665837I0J-300000D01*
G01*
X310674163Y-194465837D02*
X324074163Y-194465837D01*
X272574163Y-208465837D02*
G75*
G02*
X272274163Y-208165837I0J300000D01*
G01*
X100824163Y-156665837D02*
G75*
G02*
X101124163Y-156365837I300000J0D01*
G01*
X267224163Y-227215837D02*
X267224163Y-213815837D01*
X114824163Y-156665837D02*
X114824163Y-170065837D01*
X272274163Y-151015837D02*
X272274163Y-137615837D01*
X133874163Y-151015837D02*
G75*
G02*
X133574163Y-151315837I-300000J0D01*
G01*
X101124163Y-189415837D02*
G75*
G02*
X100824163Y-189115837I0J300000D01*
G01*
X266924163Y-170365837D02*
X253524163Y-170365837D01*
X253224163Y-156665837D02*
G75*
G02*
X253524163Y-156365837I300000J0D01*
G01*
X253524163Y-170365837D02*
G75*
G02*
X253224163Y-170065837I0J300000D01*
G01*
X114824163Y-175715837D02*
X114824163Y-189115837D01*
X253224163Y-170065837D02*
X253224163Y-156665837D01*
X267224163Y-156665837D02*
X267224163Y-170065837D01*
X253524163Y-156365837D02*
X266924163Y-156365837D01*
X266924163Y-156365837D02*
G75*
G02*
X267224163Y-156665837I0J-300000D01*
G01*
X100824163Y-175715837D02*
G75*
G02*
X101124163Y-175415837I300000J0D01*
G01*
X267224163Y-170065837D02*
G75*
G02*
X266924163Y-170365837I-300000J0D01*
G01*
X114524163Y-175415837D02*
G75*
G02*
X114824163Y-175715837I0J-300000D01*
G01*
X100824163Y-189115837D02*
X100824163Y-175715837D01*
X101124163Y-175415837D02*
X114524163Y-175415837D01*
X119874163Y-151015837D02*
X119874163Y-137615837D01*
X119874163Y-137615837D02*
G75*
G02*
X120174163Y-137315837I300000J0D01*
G01*
X114524163Y-189415837D02*
X101124163Y-189415837D01*
X120174163Y-137315837D02*
X133574163Y-137315837D01*
X114824163Y-189115837D02*
G75*
G02*
X114524163Y-189415837I-300000J0D01*
G01*
X133574163Y-137315837D02*
G75*
G02*
X133874163Y-137615837I0J-300000D01*
G01*
X133874163Y-137615837D02*
X133874163Y-151015837D01*
X133574163Y-151315837D02*
X120174163Y-151315837D01*
X82074163Y-175415837D02*
X95474163Y-175415837D01*
X177024163Y-137615837D02*
G75*
G02*
X177324163Y-137315837I300000J0D01*
G01*
X95474163Y-189415837D02*
X82074163Y-189415837D01*
X362474163Y-156665837D02*
X362474163Y-170065837D01*
X152624163Y-156365837D02*
G75*
G02*
X152924163Y-156665837I0J-300000D01*
G01*
X81774163Y-170065837D02*
X81774163Y-156665837D01*
X81774163Y-156665837D02*
G75*
G02*
X82074163Y-156365837I300000J0D01*
G01*
X191024163Y-151015837D02*
G75*
G02*
X190724163Y-151315837I-300000J0D01*
G01*
X82074163Y-156365837D02*
X95474163Y-156365837D01*
X139224163Y-170365837D02*
G75*
G02*
X138924163Y-170065837I0J300000D01*
G01*
X158274163Y-151315837D02*
G75*
G02*
X157974163Y-151015837I0J300000D01*
G01*
X157974163Y-137615837D02*
G75*
G02*
X158274163Y-137315837I300000J0D01*
G01*
X138924163Y-170065837D02*
X138924163Y-156665837D01*
X138924163Y-156665837D02*
G75*
G02*
X139224163Y-156365837I300000J0D01*
G01*
X177324163Y-137315837D02*
X190724163Y-137315837D01*
X152924163Y-156665837D02*
X152924163Y-170065837D01*
X152924163Y-170065837D02*
G75*
G02*
X152624163Y-170365837I-300000J0D01*
G01*
X177324163Y-151315837D02*
G75*
G02*
X177024163Y-151015837I0J300000D01*
G01*
X191024163Y-137615837D02*
X191024163Y-151015837D01*
X157974163Y-151015837D02*
X157974163Y-137615837D01*
X348474163Y-170065837D02*
X348474163Y-156665837D01*
X158274163Y-137315837D02*
X171674163Y-137315837D01*
X190724163Y-137315837D02*
G75*
G02*
X191024163Y-137615837I0J-300000D01*
G01*
X95774163Y-189115837D02*
G75*
G02*
X95474163Y-189415837I-300000J0D01*
G01*
X139224163Y-156365837D02*
X152624163Y-156365837D01*
X171974163Y-137615837D02*
X171974163Y-151015837D01*
X362174163Y-170365837D02*
X348774163Y-170365837D01*
X348774163Y-170365837D02*
G75*
G02*
X348474163Y-170065837I0J300000D01*
G01*
X152624163Y-170365837D02*
X139224163Y-170365837D01*
X248174163Y-151015837D02*
G75*
G02*
X247874163Y-151315837I-300000J0D01*
G01*
X247874163Y-151315837D02*
X234474163Y-151315837D01*
X82074163Y-170365837D02*
G75*
G02*
X81774163Y-170065837I0J300000D01*
G01*
X95474163Y-156365837D02*
G75*
G02*
X95774163Y-156665837I0J-300000D01*
G01*
X95474163Y-175415837D02*
G75*
G02*
X95774163Y-175715837I0J-300000D01*
G01*
X348474163Y-156665837D02*
G75*
G02*
X348774163Y-156365837I300000J0D01*
G01*
X362174163Y-156365837D02*
G75*
G02*
X362474163Y-156665837I0J-300000D01*
G01*
X348774163Y-156365837D02*
X362174163Y-156365837D01*
X362474163Y-170065837D02*
G75*
G02*
X362174163Y-170365837I-300000J0D01*
G01*
X190724163Y-151315837D02*
X177324163Y-151315837D01*
X95774163Y-156665837D02*
X95774163Y-170065837D01*
X81774163Y-175715837D02*
G75*
G02*
X82074163Y-175415837I300000J0D01*
G01*
X95774163Y-170065837D02*
G75*
G02*
X95474163Y-170365837I-300000J0D01*
G01*
X95474163Y-170365837D02*
X82074163Y-170365837D01*
X95774163Y-175715837D02*
X95774163Y-189115837D01*
X171674163Y-137315837D02*
G75*
G02*
X171974163Y-137615837I0J-300000D01*
G01*
X177024163Y-151015837D02*
X177024163Y-137615837D01*
X253224163Y-194765837D02*
G75*
G02*
X253524163Y-194465837I300000J0D01*
G01*
X234474163Y-194465837D02*
X247874163Y-194465837D01*
X253524163Y-194465837D02*
X266924163Y-194465837D01*
X266924163Y-194465837D02*
G75*
G02*
X267224163Y-194765837I0J-300000D01*
G01*
X228824163Y-194465837D02*
G75*
G02*
X229124163Y-194765837I0J-300000D01*
G01*
X177324163Y-208465837D02*
G75*
G02*
X177024163Y-208165837I0J300000D01*
G01*
X267224163Y-194765837D02*
X267224163Y-208165837D01*
X228824163Y-208465837D02*
X215424163Y-208465837D01*
X234174163Y-194765837D02*
G75*
G02*
X234474163Y-194465837I300000J0D01*
G01*
X229124163Y-208165837D02*
G75*
G02*
X228824163Y-208465837I-300000J0D01*
G01*
X196074163Y-208165837D02*
X196074163Y-194765837D01*
X196374163Y-194465837D02*
X209774163Y-194465837D01*
X215424163Y-194465837D02*
X228824163Y-194465837D01*
X266924163Y-208465837D02*
X253524163Y-208465837D01*
X248174163Y-194765837D02*
X248174163Y-208165837D01*
X191024163Y-194765837D02*
X191024163Y-208165837D01*
X196074163Y-194765837D02*
G75*
G02*
X196374163Y-194465837I300000J0D01*
G01*
X209774163Y-194465837D02*
G75*
G02*
X210074163Y-194765837I0J-300000D01*
G01*
X248174163Y-208165837D02*
G75*
G02*
X247874163Y-208465837I-300000J0D01*
G01*
X234474163Y-208465837D02*
G75*
G02*
X234174163Y-208165837I0J300000D01*
G01*
X210074163Y-208165837D02*
G75*
G02*
X209774163Y-208465837I-300000J0D01*
G01*
X229124163Y-194765837D02*
X229124163Y-208165837D01*
X210074163Y-194765837D02*
X210074163Y-208165837D01*
X190724163Y-194465837D02*
G75*
G02*
X191024163Y-194765837I0J-300000D01*
G01*
X177324163Y-156365837D02*
X190724163Y-156365837D01*
X177024163Y-170065837D02*
X177024163Y-156665837D01*
X215124163Y-208165837D02*
X215124163Y-194765837D01*
X171974163Y-151015837D02*
G75*
G02*
X171674163Y-151315837I-300000J0D01*
G01*
X171674163Y-151315837D02*
X158274163Y-151315837D01*
X177324163Y-170365837D02*
G75*
G02*
X177024163Y-170065837I0J300000D01*
G01*
X177024163Y-156665837D02*
G75*
G02*
X177324163Y-156365837I300000J0D01*
G01*
X215124163Y-194765837D02*
G75*
G02*
X215424163Y-194465837I300000J0D01*
G01*
X267224163Y-208165837D02*
G75*
G02*
X266924163Y-208465837I-300000J0D01*
G01*
X234174163Y-208165837D02*
X234174163Y-194765837D01*
X247874163Y-194465837D02*
G75*
G02*
X248174163Y-194765837I0J-300000D01*
G01*
X177024163Y-208165837D02*
X177024163Y-194765837D01*
X177324163Y-194465837D02*
X190724163Y-194465837D01*
X247874163Y-208465837D02*
X234474163Y-208465837D01*
X215424163Y-208465837D02*
G75*
G02*
X215124163Y-208165837I0J300000D01*
G01*
X191024163Y-208165837D02*
G75*
G02*
X190724163Y-208465837I-300000J0D01*
G01*
X253524163Y-208465837D02*
G75*
G02*
X253224163Y-208165837I0J300000D01*
G01*
X253224163Y-208165837D02*
X253224163Y-194765837D01*
X196374163Y-208465837D02*
G75*
G02*
X196074163Y-208165837I0J300000D01*
G01*
X209774163Y-208465837D02*
X196374163Y-208465837D01*
X177024163Y-194765837D02*
G75*
G02*
X177324163Y-194465837I300000J0D01*
G01*
X190724163Y-208465837D02*
X177324163Y-208465837D01*
X348474163Y-175715837D02*
G75*
G02*
X348774163Y-175415837I300000J0D01*
G01*
X133874163Y-194765837D02*
X133874163Y-208165837D01*
X114824163Y-194765837D02*
X114824163Y-208165837D01*
X152924163Y-194765837D02*
X152924163Y-208165837D01*
X152924163Y-208165837D02*
G75*
G02*
X152624163Y-208465837I-300000J0D01*
G01*
X101124163Y-194465837D02*
X114524163Y-194465837D01*
X82074163Y-194465837D02*
X95474163Y-194465837D01*
X152624163Y-194465837D02*
G75*
G02*
X152924163Y-194765837I0J-300000D01*
G01*
X101124163Y-208465837D02*
G75*
G02*
X100824163Y-208165837I0J300000D01*
G01*
X81774163Y-194765837D02*
G75*
G02*
X82074163Y-194465837I300000J0D01*
G01*
X95474163Y-208465837D02*
X82074163Y-208465837D01*
X152624163Y-208465837D02*
X139224163Y-208465837D01*
X95774163Y-194765837D02*
X95774163Y-208165837D01*
X119874163Y-194765837D02*
G75*
G02*
X120174163Y-194465837I300000J0D01*
G01*
X138924163Y-194765837D02*
G75*
G02*
X139224163Y-194465837I300000J0D01*
G01*
X119874163Y-208165837D02*
X119874163Y-194765837D01*
X171674163Y-208465837D02*
X158274163Y-208465837D01*
X362174163Y-175415837D02*
G75*
G02*
X362474163Y-175715837I0J-300000D01*
G01*
X158274163Y-208465837D02*
G75*
G02*
X157974163Y-208165837I0J300000D01*
G01*
X157974163Y-208165837D02*
X157974163Y-194765837D01*
X157974163Y-194765837D02*
G75*
G02*
X158274163Y-194465837I300000J0D01*
G01*
X158274163Y-194465837D02*
X171674163Y-194465837D01*
X171674163Y-194465837D02*
G75*
G02*
X171974163Y-194765837I0J-300000D01*
G01*
X348774163Y-175415837D02*
X362174163Y-175415837D01*
X171974163Y-194765837D02*
X171974163Y-208165837D01*
X171974163Y-208165837D02*
G75*
G02*
X171674163Y-208465837I-300000J0D01*
G01*
X139224163Y-194465837D02*
X152624163Y-194465837D01*
X120174163Y-208465837D02*
G75*
G02*
X119874163Y-208165837I0J300000D01*
G01*
X133874163Y-208165837D02*
G75*
G02*
X133574163Y-208465837I-300000J0D01*
G01*
X114824163Y-208165837D02*
G75*
G02*
X114524163Y-208465837I-300000J0D01*
G01*
X120174163Y-194465837D02*
X133574163Y-194465837D01*
X114524163Y-194465837D02*
G75*
G02*
X114824163Y-194765837I0J-300000D01*
G01*
X133574163Y-194465837D02*
G75*
G02*
X133874163Y-194765837I0J-300000D01*
G01*
X348474163Y-189115837D02*
X348474163Y-175715837D01*
X81774163Y-208165837D02*
X81774163Y-194765837D01*
X133574163Y-208465837D02*
X120174163Y-208465837D01*
X100824163Y-208165837D02*
X100824163Y-194765837D01*
X114524163Y-208465837D02*
X101124163Y-208465837D01*
X82074163Y-208465837D02*
G75*
G02*
X81774163Y-208165837I0J300000D01*
G01*
X348774163Y-189415837D02*
G75*
G02*
X348474163Y-189115837I0J300000D01*
G01*
X362474163Y-175715837D02*
X362474163Y-189115837D01*
X100824163Y-194765837D02*
G75*
G02*
X101124163Y-194465837I300000J0D01*
G01*
X95774163Y-208165837D02*
G75*
G02*
X95474163Y-208465837I-300000J0D01*
G01*
X139224163Y-208465837D02*
G75*
G02*
X138924163Y-208165837I0J300000D01*
G01*
X138924163Y-208165837D02*
X138924163Y-194765837D01*
X95474163Y-194465837D02*
G75*
G02*
X95774163Y-194765837I0J-300000D01*
G01*
X329724163Y-189415837D02*
G75*
G02*
X329424163Y-189115837I0J300000D01*
G01*
X310374163Y-189115837D02*
X310374163Y-175715837D01*
X329424163Y-175715837D02*
G75*
G02*
X329724163Y-175415837I300000J0D01*
G01*
X329724163Y-175415837D02*
X343124163Y-175415837D01*
X343124163Y-175415837D02*
G75*
G02*
X343424163Y-175715837I0J-300000D01*
G01*
X343424163Y-175715837D02*
X343424163Y-189115837D01*
X310374163Y-175715837D02*
G75*
G02*
X310674163Y-175415837I300000J0D01*
G01*
X310674163Y-175415837D02*
X324074163Y-175415837D01*
X324074163Y-175415837D02*
G75*
G02*
X324374163Y-175715837I0J-300000D01*
G01*
X324374163Y-189115837D02*
G75*
G02*
X324074163Y-189415837I-300000J0D01*
G01*
X291324163Y-189115837D02*
X291324163Y-175715837D01*
X291624163Y-189415837D02*
G75*
G02*
X291324163Y-189115837I0J300000D01*
G01*
X305024163Y-175415837D02*
G75*
G02*
X305324163Y-175715837I0J-300000D01*
G01*
X291324163Y-175715837D02*
G75*
G02*
X291624163Y-175415837I300000J0D01*
G01*
X310674163Y-189415837D02*
G75*
G02*
X310374163Y-189115837I0J300000D01*
G01*
X291624163Y-175415837D02*
X305024163Y-175415837D01*
X362474163Y-189115837D02*
G75*
G02*
X362174163Y-189415837I-300000J0D01*
G01*
X343424163Y-189115837D02*
G75*
G02*
X343124163Y-189415837I-300000J0D01*
G01*
X343124163Y-189415837D02*
X329724163Y-189415837D01*
X324374163Y-175715837D02*
X324374163Y-189115837D01*
X324074163Y-189415837D02*
X310674163Y-189415837D01*
X362174163Y-189415837D02*
X348774163Y-189415837D01*
X329424163Y-189115837D02*
X329424163Y-175715837D01*
X272574163Y-189415837D02*
G75*
G02*
X272274163Y-189115837I0J300000D01*
G01*
X272274163Y-189115837D02*
X272274163Y-175715837D01*
X272274163Y-175715837D02*
G75*
G02*
X272574163Y-175415837I300000J0D01*
G01*
X272574163Y-175415837D02*
X285974163Y-175415837D01*
X286274163Y-175715837D02*
X286274163Y-189115837D01*
X253524163Y-175415837D02*
X266924163Y-175415837D01*
X253524163Y-189415837D02*
G75*
G02*
X253224163Y-189115837I0J300000D01*
G01*
X285974163Y-175415837D02*
G75*
G02*
X286274163Y-175715837I0J-300000D01*
G01*
X267224163Y-175715837D02*
X267224163Y-189115837D01*
X234474163Y-175415837D02*
X247874163Y-175415837D01*
X234174163Y-175715837D02*
G75*
G02*
X234474163Y-175415837I300000J0D01*
G01*
X286274163Y-189115837D02*
G75*
G02*
X285974163Y-189415837I-300000J0D01*
G01*
X285974163Y-189415837D02*
X272574163Y-189415837D01*
X234474163Y-189415837D02*
G75*
G02*
X234174163Y-189115837I0J300000D01*
G01*
X266924163Y-175415837D02*
G75*
G02*
X267224163Y-175715837I0J-300000D01*
G01*
X234174163Y-189115837D02*
X234174163Y-175715837D01*
X266924163Y-189415837D02*
X253524163Y-189415837D01*
X305324163Y-175715837D02*
X305324163Y-189115837D01*
X253224163Y-189115837D02*
X253224163Y-175715837D01*
X305324163Y-189115837D02*
G75*
G02*
X305024163Y-189415837I-300000J0D01*
G01*
X267224163Y-189115837D02*
G75*
G02*
X266924163Y-189415837I-300000J0D01*
G01*
X305024163Y-189415837D02*
X291624163Y-189415837D01*
X253224163Y-175715837D02*
G75*
G02*
X253524163Y-175415837I300000J0D01*
G01*
X248174163Y-156665837D02*
X248174163Y-170065837D01*
X139224163Y-137315837D02*
X152624163Y-137315837D01*
X247874163Y-170365837D02*
X234474163Y-170365837D01*
X152624163Y-175415837D02*
G75*
G02*
X152924163Y-175715837I0J-300000D01*
G01*
X247874163Y-156365837D02*
G75*
G02*
X248174163Y-156665837I0J-300000D01*
G01*
X152924163Y-151015837D02*
G75*
G02*
X152624163Y-151315837I-300000J0D01*
G01*
X139224163Y-151315837D02*
G75*
G02*
X138924163Y-151015837I0J300000D01*
G01*
X139224163Y-189415837D02*
G75*
G02*
X138924163Y-189115837I0J300000D01*
G01*
X138924163Y-151015837D02*
X138924163Y-137615837D01*
X234474163Y-156365837D02*
X247874163Y-156365837D01*
X138924163Y-189115837D02*
X138924163Y-175715837D01*
X152924163Y-175715837D02*
X152924163Y-189115837D01*
X138924163Y-175715837D02*
G75*
G02*
X139224163Y-175415837I300000J0D01*
G01*
X152924163Y-189115837D02*
G75*
G02*
X152624163Y-189415837I-300000J0D01*
G01*
X234174163Y-156665837D02*
G75*
G02*
X234474163Y-156365837I300000J0D01*
G01*
X139224163Y-175415837D02*
X152624163Y-175415837D01*
X138924163Y-137615837D02*
G75*
G02*
X139224163Y-137315837I300000J0D01*
G01*
X152924163Y-137615837D02*
X152924163Y-151015837D01*
X234474163Y-170365837D02*
G75*
G02*
X234174163Y-170065837I0J300000D01*
G01*
X234174163Y-170065837D02*
X234174163Y-156665837D01*
X152624163Y-137315837D02*
G75*
G02*
X152924163Y-137615837I0J-300000D01*
G01*
X152624163Y-151315837D02*
X139224163Y-151315837D01*
X248174163Y-170065837D02*
G75*
G02*
X247874163Y-170365837I-300000J0D01*
G01*
X209774163Y-170365837D02*
X196374163Y-170365837D01*
X209774163Y-151315837D02*
X196374163Y-151315837D01*
X196374163Y-151315837D02*
G75*
G02*
X196074163Y-151015837I0J300000D01*
G01*
X196074163Y-170065837D02*
X196074163Y-156665837D01*
X196074163Y-151015837D02*
X196074163Y-137615837D01*
X210074163Y-170065837D02*
G75*
G02*
X209774163Y-170365837I-300000J0D01*
G01*
X196374163Y-170365837D02*
G75*
G02*
X196074163Y-170065837I0J300000D01*
G01*
X210074163Y-137615837D02*
X210074163Y-151015837D01*
X329424163Y-156665837D02*
G75*
G02*
X329724163Y-156365837I300000J0D01*
G01*
X196074163Y-156665837D02*
G75*
G02*
X196374163Y-156365837I300000J0D01*
G01*
X120174163Y-151315837D02*
G75*
G02*
X119874163Y-151015837I0J300000D01*
G01*
X196374163Y-156365837D02*
X209774163Y-156365837D01*
X196374163Y-137315837D02*
X209774163Y-137315837D01*
X209774163Y-137315837D02*
G75*
G02*
X210074163Y-137615837I0J-300000D01*
G01*
X329724163Y-156365837D02*
X343124163Y-156365837D01*
X209774163Y-156365837D02*
G75*
G02*
X210074163Y-156665837I0J-300000D01*
G01*
X196074163Y-137615837D02*
G75*
G02*
X196374163Y-137315837I300000J0D01*
G01*
X343124163Y-156365837D02*
G75*
G02*
X343424163Y-156665837I0J-300000D01*
G01*
X343424163Y-156665837D02*
X343424163Y-170065837D01*
X210074163Y-151015837D02*
G75*
G02*
X209774163Y-151315837I-300000J0D01*
G01*
X343424163Y-170065837D02*
G75*
G02*
X343124163Y-170365837I-300000J0D01*
G01*
X343124163Y-170365837D02*
X329724163Y-170365837D01*
X210074163Y-156665837D02*
X210074163Y-170065837D01*
X210074163Y-189115837D02*
G75*
G02*
X209774163Y-189415837I-300000J0D01*
G01*
X228824163Y-189415837D02*
X215424163Y-189415837D01*
X210074163Y-175715837D02*
X210074163Y-189115837D01*
X196074163Y-175715837D02*
G75*
G02*
X196374163Y-175415837I300000J0D01*
G01*
X209774163Y-189415837D02*
X196374163Y-189415837D01*
X196374163Y-175415837D02*
X209774163Y-175415837D01*
X177324163Y-189415837D02*
G75*
G02*
X177024163Y-189115837I0J300000D01*
G01*
X247874163Y-175415837D02*
G75*
G02*
X248174163Y-175715837I0J-300000D01*
G01*
X248174163Y-175715837D02*
X248174163Y-189115837D01*
X177024163Y-189115837D02*
X177024163Y-175715837D01*
X196374163Y-189415837D02*
G75*
G02*
X196074163Y-189115837I0J300000D01*
G01*
X248174163Y-189115837D02*
G75*
G02*
X247874163Y-189415837I-300000J0D01*
G01*
X215124163Y-175715837D02*
G75*
G02*
X215424163Y-175415837I300000J0D01*
G01*
X247874163Y-189415837D02*
X234474163Y-189415837D01*
X215424163Y-189415837D02*
G75*
G02*
X215124163Y-189115837I0J300000D01*
G01*
X196074163Y-189115837D02*
X196074163Y-175715837D01*
X215124163Y-189115837D02*
X215124163Y-175715837D01*
X215424163Y-175415837D02*
X228824163Y-175415837D01*
X228824163Y-175415837D02*
G75*
G02*
X229124163Y-175715837I0J-300000D01*
G01*
X229124163Y-175715837D02*
X229124163Y-189115837D01*
X229124163Y-189115837D02*
G75*
G02*
X228824163Y-189415837I-300000J0D01*
G01*
X209774163Y-175415837D02*
G75*
G02*
X210074163Y-175715837I0J-300000D01*
G01*
X177024163Y-175715837D02*
G75*
G02*
X177324163Y-175415837I300000J0D01*
G01*
X171674163Y-175415837D02*
G75*
G02*
X171974163Y-175715837I0J-300000D01*
G01*
X158274163Y-156365837D02*
X171674163Y-156365837D01*
X324374163Y-156665837D02*
X324374163Y-170065837D01*
X324074163Y-170365837D02*
X310674163Y-170365837D01*
X291624163Y-170365837D02*
G75*
G02*
X291324163Y-170065837I0J300000D01*
G01*
X305324163Y-170065837D02*
G75*
G02*
X305024163Y-170365837I-300000J0D01*
G01*
X81774163Y-189115837D02*
X81774163Y-175715837D01*
X171974163Y-175715837D02*
X171974163Y-189115837D01*
X171674163Y-189415837D02*
X158274163Y-189415837D01*
X82074163Y-189415837D02*
G75*
G02*
X81774163Y-189115837I0J300000D01*
G01*
X305324163Y-156665837D02*
X305324163Y-170065837D01*
X171974163Y-189115837D02*
G75*
G02*
X171674163Y-189415837I-300000J0D01*
G01*
X158274163Y-170365837D02*
G75*
G02*
X157974163Y-170065837I0J300000D01*
G01*
X305024163Y-170365837D02*
X291624163Y-170365837D01*
X157974163Y-156665837D02*
G75*
G02*
X158274163Y-156365837I300000J0D01*
G01*
X157974163Y-170065837D02*
X157974163Y-156665837D01*
X305324163Y-151015837D02*
G75*
G02*
X305024163Y-151315837I-300000J0D01*
G01*
X310674163Y-170365837D02*
G75*
G02*
X310374163Y-170065837I0J300000D01*
G01*
X291624163Y-156365837D02*
X305024163Y-156365837D01*
X305024163Y-151315837D02*
X291624163Y-151315837D01*
X310674163Y-156365837D02*
X324074163Y-156365837D01*
X305024163Y-156365837D02*
G75*
G02*
X305324163Y-156665837I0J-300000D01*
G01*
X310374163Y-170065837D02*
X310374163Y-156665837D01*
X310374163Y-156665837D02*
G75*
G02*
X310674163Y-156365837I300000J0D01*
G01*
X324374163Y-170065837D02*
G75*
G02*
X324074163Y-170365837I-300000J0D01*
G01*
X291324163Y-170065837D02*
X291324163Y-156665837D01*
X291324163Y-156665837D02*
G75*
G02*
X291624163Y-156365837I300000J0D01*
G01*
X324074163Y-156365837D02*
G75*
G02*
X324374163Y-156665837I0J-300000D01*
G01*
X310374163Y-227215837D02*
X310374163Y-213815837D01*
X133874163Y-189115837D02*
G75*
G02*
X133574163Y-189415837I-300000J0D01*
G01*
X267224163Y-227215837D02*
G75*
G02*
X266924163Y-227515837I-300000J0D01*
G01*
X114524163Y-137315837D02*
G75*
G02*
X114824163Y-137615837I0J-300000D01*
G01*
X362174163Y-213515837D02*
G75*
G02*
X362474163Y-213815837I0J-300000D01*
G01*
X190724163Y-156365837D02*
G75*
G02*
X191024163Y-156665837I0J-300000D01*
G01*
X191024163Y-156665837D02*
X191024163Y-170065837D01*
X324374163Y-213815837D02*
X324374163Y-227215837D01*
X324374163Y-227215837D02*
G75*
G02*
X324074163Y-227515837I-300000J0D01*
G01*
X348474163Y-213815837D02*
G75*
G02*
X348774163Y-213515837I300000J0D01*
G01*
X329424163Y-213815837D02*
G75*
G02*
X329724163Y-213515837I300000J0D01*
G01*
X114524163Y-151315837D02*
X101124163Y-151315837D01*
X329424163Y-227215837D02*
X329424163Y-213815837D01*
X343424163Y-227215837D02*
G75*
G02*
X343124163Y-227515837I-300000J0D01*
G01*
X291324163Y-213815837D02*
G75*
G02*
X291624163Y-213515837I300000J0D01*
G01*
X343124163Y-213515837D02*
G75*
G02*
X343424163Y-213815837I0J-300000D01*
G01*
X305024163Y-213515837D02*
G75*
G02*
X305324163Y-213815837I0J-300000D01*
G01*
X191024163Y-170065837D02*
G75*
G02*
X190724163Y-170365837I-300000J0D01*
G01*
X253224163Y-151015837D02*
X253224163Y-137615837D01*
X100824163Y-151015837D02*
X100824163Y-137615837D01*
X133874163Y-175715837D02*
X133874163Y-189115837D01*
X133574163Y-189415837D02*
X120174163Y-189415837D01*
X101124163Y-151315837D02*
G75*
G02*
X100824163Y-151015837I0J300000D01*
G01*
X266924163Y-137315837D02*
G75*
G02*
X267224163Y-137615837I0J-300000D01*
G01*
X310674163Y-213515837D02*
X324074163Y-213515837D01*
X119874163Y-189115837D02*
X119874163Y-175715837D01*
X171674163Y-156365837D02*
G75*
G02*
X171974163Y-156665837I0J-300000D01*
G01*
X171974163Y-156665837D02*
X171974163Y-170065837D01*
X266924163Y-151315837D02*
X253524163Y-151315837D01*
X171974163Y-170065837D02*
G75*
G02*
X171674163Y-170365837I-300000J0D01*
G01*
X171674163Y-170365837D02*
X158274163Y-170365837D01*
X253524163Y-151315837D02*
G75*
G02*
X253224163Y-151015837I0J300000D01*
G01*
X310374163Y-213815837D02*
G75*
G02*
X310674163Y-213515837I300000J0D01*
G01*
X253224163Y-137615837D02*
G75*
G02*
X253524163Y-137315837I300000J0D01*
G01*
X253524163Y-137315837D02*
X266924163Y-137315837D01*
X267224163Y-137615837D02*
X267224163Y-151015837D01*
X120174163Y-189415837D02*
G75*
G02*
X119874163Y-189115837I0J300000D01*
G01*
X133574163Y-175415837D02*
G75*
G02*
X133874163Y-175715837I0J-300000D01*
G01*
X291624163Y-213515837D02*
X305024163Y-213515837D01*
X114824163Y-137615837D02*
X114824163Y-151015837D01*
X291624163Y-227515837D02*
G75*
G02*
X291324163Y-227215837I0J300000D01*
G01*
X177324163Y-227515837D02*
X266924163Y-227515837D01*
X362474163Y-213815837D02*
X362474163Y-227215837D01*
X101124163Y-137315837D02*
X114524163Y-137315837D01*
X348774163Y-213515837D02*
X362174163Y-213515837D01*
X310674163Y-227515837D02*
G75*
G02*
X310374163Y-227215837I0J300000D01*
G01*
X324074163Y-227515837D02*
X310674163Y-227515837D01*
X190724163Y-170365837D02*
X177324163Y-170365837D01*
X100824163Y-137615837D02*
G75*
G02*
X101124163Y-137315837I300000J0D01*
G01*
X329724163Y-227515837D02*
G75*
G02*
X329424163Y-227215837I0J300000D01*
G01*
X291324163Y-227215837D02*
X291324163Y-213815837D01*
X114824163Y-151015837D02*
G75*
G02*
X114524163Y-151315837I-300000J0D01*
G01*
X305324163Y-213815837D02*
X305324163Y-227215837D01*
X362474163Y-227215837D02*
G75*
G02*
X362174163Y-227515837I-300000J0D01*
G01*
X362174163Y-227515837D02*
X348774163Y-227515837D01*
X343124163Y-227515837D02*
X329724163Y-227515837D01*
X324074163Y-213515837D02*
G75*
G02*
X324374163Y-213815837I0J-300000D01*
G01*
X348774163Y-227515837D02*
G75*
G02*
X348474163Y-227215837I0J300000D01*
G01*
X348474163Y-227215837D02*
X348474163Y-213815837D01*
X343424163Y-213815837D02*
X343424163Y-227215837D01*
X267224163Y-151015837D02*
G75*
G02*
X266924163Y-151315837I-300000J0D01*
G01*
X119874163Y-175715837D02*
G75*
G02*
X120174163Y-175415837I300000J0D01*
G01*
X329724163Y-213515837D02*
X343124163Y-213515837D01*
X120174163Y-175415837D02*
X133574163Y-175415837D01*
X272574163Y-213515837D02*
X285974163Y-213515837D01*
X119806250Y-153956251D02*
G75*
G03*
X119806250Y-153956251I-2350000J0D01*
G01*
X234106250Y-153997251D02*
G75*
G03*
X234106250Y-153997251I-2350000J0D01*
G01*
X286274163Y-156665837D02*
X286274163Y-170065837D01*
X272574163Y-170365837D02*
G75*
G02*
X272274163Y-170065837I0J300000D01*
G01*
X234474163Y-151315837D02*
G75*
G02*
X234174163Y-151015837I0J300000D01*
G01*
X348406250Y-211083751D02*
G75*
G03*
X348406250Y-211083751I-2350000J0D01*
G01*
X176956250Y-172983751D02*
G75*
G03*
X176956250Y-172983751I-2350000J0D01*
G01*
X272274163Y-170065837D02*
X272274163Y-156665837D01*
X272574163Y-156365837D02*
X285974163Y-156365837D01*
X234474163Y-137315837D02*
X247874163Y-137315837D01*
X248174163Y-137615837D02*
X248174163Y-151015837D01*
X286274163Y-213815837D02*
X286274163Y-227215837D01*
X285974163Y-227515837D02*
X272574163Y-227515837D01*
X158274163Y-227515837D02*
G75*
G02*
X157974163Y-227215837I0J300000D01*
G01*
X138856250Y-192033751D02*
G75*
G03*
X138856250Y-192033751I-2350000J0D01*
G01*
X272274163Y-156665837D02*
G75*
G02*
X272574163Y-156365837I300000J0D01*
G01*
X285974163Y-156365837D02*
G75*
G02*
X286274163Y-156665837I0J-300000D01*
G01*
X329356250Y-153946251D02*
G75*
G03*
X329356250Y-153946251I-2350000J0D01*
G01*
X234174163Y-151015837D02*
X234174163Y-137615837D01*
X100756250Y-211083751D02*
G75*
G03*
X100756250Y-211083751I-2350000J0D01*
G01*
X272206250Y-173047251D02*
G75*
G03*
X272206250Y-173047251I-2350000J0D01*
G01*
X215056250Y-211083751D02*
G75*
G03*
X215056250Y-211083751I-2350000J0D01*
G01*
X285974163Y-170365837D02*
X272574163Y-170365837D01*
X305324163Y-227215837D02*
G75*
G02*
X305024163Y-227515837I-300000J0D01*
G01*
X285974163Y-213515837D02*
G75*
G02*
X286274163Y-213815837I0J-300000D01*
G01*
X286274163Y-170065837D02*
G75*
G02*
X285974163Y-170365837I-300000J0D01*
G01*
X286274163Y-227215837D02*
G75*
G02*
X285974163Y-227515837I-300000J0D01*
G01*
X247874163Y-137315837D02*
G75*
G02*
X248174163Y-137615837I0J-300000D01*
G01*
X305024163Y-227515837D02*
X291624163Y-227515837D01*
X272574163Y-227515837D02*
G75*
G02*
X272274163Y-227215837I0J300000D01*
G01*
X272274163Y-227215837D02*
X272274163Y-213815837D01*
X234174163Y-137615837D02*
G75*
G02*
X234474163Y-137315837I300000J0D01*
G01*
X272274163Y-213815837D02*
G75*
G02*
X272574163Y-213515837I300000J0D01*
G01*
X310374163Y-151015837D02*
X310374163Y-137615837D01*
X310374163Y-137615837D02*
G75*
G02*
X310674163Y-137315837I300000J0D01*
G01*
X324074163Y-137315837D02*
G75*
G02*
X324374163Y-137615837I0J-300000D01*
G01*
X324374163Y-137615837D02*
X324374163Y-151015837D01*
X329424163Y-170065837D02*
X329424163Y-156665837D01*
X81774163Y-151015837D02*
X81774163Y-137615837D01*
X310674163Y-137315837D02*
X324074163Y-137315837D01*
X95474163Y-151315837D02*
X82074163Y-151315837D01*
X95774163Y-151015837D02*
G75*
G02*
X95474163Y-151315837I-300000J0D01*
G01*
X190724163Y-175415837D02*
G75*
G02*
X191024163Y-175715837I0J-300000D01*
G01*
X81774163Y-137615837D02*
G75*
G02*
X82074163Y-137315837I300000J0D01*
G01*
X324074163Y-151315837D02*
X310674163Y-151315837D01*
X329724163Y-170365837D02*
G75*
G02*
X329424163Y-170065837I0J300000D01*
G01*
X177324163Y-175415837D02*
X190724163Y-175415837D01*
X191024163Y-175715837D02*
X191024163Y-189115837D01*
X191024163Y-189115837D02*
G75*
G02*
X190724163Y-189415837I-300000J0D01*
G01*
X190724163Y-189415837D02*
X177324163Y-189415837D01*
X82074163Y-151315837D02*
G75*
G02*
X81774163Y-151015837I0J300000D01*
G01*
X82074163Y-137315837D02*
X95474163Y-137315837D01*
X95474163Y-137315837D02*
G75*
G02*
X95774163Y-137615837I0J-300000D01*
G01*
X95774163Y-137615837D02*
X95774163Y-151015837D01*
X310674163Y-151315837D02*
G75*
G02*
X310374163Y-151015837I0J300000D01*
G01*
X324374163Y-151015837D02*
G75*
G02*
X324074163Y-151315837I-300000J0D01*
G01*
X362174163Y-151315837D02*
X348774163Y-151315837D01*
X215424163Y-137315837D02*
X228824163Y-137315837D01*
X215124163Y-137615837D02*
G75*
G02*
X215424163Y-137315837I300000J0D01*
G01*
X215424163Y-151315837D02*
G75*
G02*
X215124163Y-151015837I0J300000D01*
G01*
X215124163Y-151015837D02*
X215124163Y-137615837D01*
X229124163Y-137615837D02*
X229124163Y-151015837D01*
X228824163Y-137315837D02*
G75*
G02*
X229124163Y-137615837I0J-300000D01*
G01*
X229124163Y-151015837D02*
G75*
G02*
X228824163Y-151315837I-300000J0D01*
G01*
X228824163Y-151315837D02*
X215424163Y-151315837D01*
X362474163Y-151015837D02*
G75*
G02*
X362174163Y-151315837I-300000J0D01*
G01*
D11*
X362743750Y-230187500D02*
X81756250Y-230187500D01*
X365130000Y-136680000D02*
X365125000Y-227806250D01*
X81756250Y-230187500D02*
G75*
G02*
X79375000Y-227806250I0J2381250D01*
G01*
X365125000Y-227806250D02*
G75*
G02*
X362743750Y-230187500I-2381250J0D01*
G01*
M02*
