G04 #@! TF.GenerationSoftware,KiCad,Pcbnew,5.1.6*
G04 #@! TF.CreationDate,2020-06-16T11:26:21+02:00*
G04 #@! TF.ProjectId,punk75_plate,70756e6b-3735-45f7-906c-6174652e6b69,rev?*
G04 #@! TF.SameCoordinates,Original*
G04 #@! TF.FileFunction,Copper,L1,Top*
G04 #@! TF.FilePolarity,Positive*
%FSLAX46Y46*%
G04 Gerber Fmt 4.6, Leading zero omitted, Abs format (unit mm)*
G04 Created by KiCad (PCBNEW 5.1.6) date 2020-06-16 11:26:21*
%MOMM*%
%LPD*%
G01*
G04 APERTURE LIST*
G04 #@! TA.AperFunction,ComponentPad*
%ADD10C,6.400000*%
G04 #@! TD*
G04 #@! TA.AperFunction,NonConductor*
%ADD11C,0.254000*%
G04 #@! TD*
G04 APERTURE END LIST*
D10*
X352750000Y-99500000D03*
X272750000Y-99500000D03*
X171760000Y-99480000D03*
X91750000Y-99480000D03*
X272750000Y-236130000D03*
X171770000Y-236120000D03*
X91760000Y-236110000D03*
X352740000Y-236110000D03*
D11*
G36*
X364136356Y-95310226D02*
G01*
X365507196Y-95538397D01*
X366844729Y-95915620D01*
X368132783Y-96437335D01*
X369355814Y-97097246D01*
X370499047Y-97887383D01*
X371548665Y-98798195D01*
X372491994Y-99818683D01*
X373317651Y-100936533D01*
X374015651Y-102138228D01*
X374577566Y-103409255D01*
X374996618Y-104734286D01*
X375267735Y-106097280D01*
X375388896Y-107496224D01*
X375395001Y-107884816D01*
X375395000Y-227715050D01*
X375317524Y-229122847D01*
X375089353Y-230493695D01*
X374712130Y-231831230D01*
X374190411Y-233119290D01*
X373530500Y-234342321D01*
X372740370Y-235485543D01*
X371829559Y-236535160D01*
X370809067Y-237478494D01*
X369691217Y-238304151D01*
X368489522Y-239002151D01*
X367218492Y-239564067D01*
X365893465Y-239983118D01*
X364530468Y-240254235D01*
X363131528Y-240375396D01*
X362742998Y-240381500D01*
X81781450Y-240381500D01*
X80373653Y-240304024D01*
X79002805Y-240075853D01*
X77665270Y-239698630D01*
X76377210Y-239176911D01*
X75154179Y-238517000D01*
X74010957Y-237726870D01*
X72961340Y-236816059D01*
X72018006Y-235795567D01*
X71971266Y-235732285D01*
X87925000Y-235732285D01*
X87925000Y-236487715D01*
X88072377Y-237228628D01*
X88361467Y-237926554D01*
X88781161Y-238554670D01*
X89315330Y-239088839D01*
X89943446Y-239508533D01*
X90641372Y-239797623D01*
X91382285Y-239945000D01*
X92137715Y-239945000D01*
X92878628Y-239797623D01*
X93576554Y-239508533D01*
X94204670Y-239088839D01*
X94738839Y-238554670D01*
X95158533Y-237926554D01*
X95447623Y-237228628D01*
X95595000Y-236487715D01*
X95595000Y-235742285D01*
X167935000Y-235742285D01*
X167935000Y-236497715D01*
X168082377Y-237238628D01*
X168371467Y-237936554D01*
X168791161Y-238564670D01*
X169325330Y-239098839D01*
X169953446Y-239518533D01*
X170651372Y-239807623D01*
X171392285Y-239955000D01*
X172147715Y-239955000D01*
X172888628Y-239807623D01*
X173586554Y-239518533D01*
X174214670Y-239098839D01*
X174748839Y-238564670D01*
X175168533Y-237936554D01*
X175457623Y-237238628D01*
X175605000Y-236497715D01*
X175605000Y-235752285D01*
X268915000Y-235752285D01*
X268915000Y-236507715D01*
X269062377Y-237248628D01*
X269351467Y-237946554D01*
X269771161Y-238574670D01*
X270305330Y-239108839D01*
X270933446Y-239528533D01*
X271631372Y-239817623D01*
X272372285Y-239965000D01*
X273127715Y-239965000D01*
X273868628Y-239817623D01*
X274566554Y-239528533D01*
X275194670Y-239108839D01*
X275728839Y-238574670D01*
X276148533Y-237946554D01*
X276437623Y-237248628D01*
X276585000Y-236507715D01*
X276585000Y-235752285D01*
X276581022Y-235732285D01*
X348905000Y-235732285D01*
X348905000Y-236487715D01*
X349052377Y-237228628D01*
X349341467Y-237926554D01*
X349761161Y-238554670D01*
X350295330Y-239088839D01*
X350923446Y-239508533D01*
X351621372Y-239797623D01*
X352362285Y-239945000D01*
X353117715Y-239945000D01*
X353858628Y-239797623D01*
X354556554Y-239508533D01*
X355184670Y-239088839D01*
X355718839Y-238554670D01*
X356138533Y-237926554D01*
X356427623Y-237228628D01*
X356575000Y-236487715D01*
X356575000Y-235732285D01*
X356427623Y-234991372D01*
X356138533Y-234293446D01*
X355718839Y-233665330D01*
X355184670Y-233131161D01*
X354556554Y-232711467D01*
X353858628Y-232422377D01*
X353117715Y-232275000D01*
X352362285Y-232275000D01*
X351621372Y-232422377D01*
X350923446Y-232711467D01*
X350295330Y-233131161D01*
X349761161Y-233665330D01*
X349341467Y-234293446D01*
X349052377Y-234991372D01*
X348905000Y-235732285D01*
X276581022Y-235732285D01*
X276437623Y-235011372D01*
X276148533Y-234313446D01*
X275728839Y-233685330D01*
X275194670Y-233151161D01*
X274566554Y-232731467D01*
X273868628Y-232442377D01*
X273127715Y-232295000D01*
X272372285Y-232295000D01*
X271631372Y-232442377D01*
X270933446Y-232731467D01*
X270305330Y-233151161D01*
X269771161Y-233685330D01*
X269351467Y-234313446D01*
X269062377Y-235011372D01*
X268915000Y-235752285D01*
X175605000Y-235752285D01*
X175605000Y-235742285D01*
X175457623Y-235001372D01*
X175168533Y-234303446D01*
X174748839Y-233675330D01*
X174214670Y-233141161D01*
X173586554Y-232721467D01*
X172888628Y-232432377D01*
X172147715Y-232285000D01*
X171392285Y-232285000D01*
X170651372Y-232432377D01*
X169953446Y-232721467D01*
X169325330Y-233141161D01*
X168791161Y-233675330D01*
X168371467Y-234303446D01*
X168082377Y-235001372D01*
X167935000Y-235742285D01*
X95595000Y-235742285D01*
X95595000Y-235732285D01*
X95447623Y-234991372D01*
X95158533Y-234293446D01*
X94738839Y-233665330D01*
X94204670Y-233131161D01*
X93576554Y-232711467D01*
X92878628Y-232422377D01*
X92137715Y-232275000D01*
X91382285Y-232275000D01*
X90641372Y-232422377D01*
X89943446Y-232711467D01*
X89315330Y-233131161D01*
X88781161Y-233665330D01*
X88361467Y-234293446D01*
X88072377Y-234991372D01*
X87925000Y-235732285D01*
X71971266Y-235732285D01*
X71192349Y-234677717D01*
X70494349Y-233476022D01*
X69932433Y-232204992D01*
X69513382Y-230879965D01*
X69242265Y-229516968D01*
X69121104Y-228118028D01*
X69115000Y-227729498D01*
X69115000Y-194449586D01*
X81059357Y-194449586D01*
X81062913Y-194485691D01*
X81062914Y-208613471D01*
X81059357Y-208649586D01*
X81073548Y-208793671D01*
X81115576Y-208932219D01*
X81183826Y-209059906D01*
X81275675Y-209171824D01*
X81387593Y-209263673D01*
X81515280Y-209331923D01*
X81653828Y-209373951D01*
X81761808Y-209384586D01*
X81797913Y-209388142D01*
X81834018Y-209384586D01*
X95838117Y-209384586D01*
X95691634Y-209603813D01*
X95458700Y-210166166D01*
X95339951Y-210763157D01*
X95339951Y-211371843D01*
X95458700Y-211968834D01*
X95691634Y-212531187D01*
X95847587Y-212764586D01*
X81834018Y-212764586D01*
X81797913Y-212761030D01*
X81761808Y-212764586D01*
X81653828Y-212775221D01*
X81515280Y-212817249D01*
X81387593Y-212885499D01*
X81275675Y-212977348D01*
X81183826Y-213089266D01*
X81115576Y-213216953D01*
X81073548Y-213355501D01*
X81059357Y-213499586D01*
X81062913Y-213535691D01*
X81062914Y-227663471D01*
X81059357Y-227699586D01*
X81073548Y-227843671D01*
X81115576Y-227982219D01*
X81183826Y-228109906D01*
X81275675Y-228221824D01*
X81387593Y-228313673D01*
X81515280Y-228381923D01*
X81653828Y-228423951D01*
X81761808Y-228434586D01*
X81797913Y-228438142D01*
X81834018Y-228434586D01*
X95961808Y-228434586D01*
X95997913Y-228438142D01*
X96034018Y-228434586D01*
X96141998Y-228423951D01*
X96280546Y-228381923D01*
X96408233Y-228313673D01*
X96520151Y-228221824D01*
X96612000Y-228109906D01*
X96680250Y-227982219D01*
X96722278Y-227843671D01*
X96736469Y-227699586D01*
X96732913Y-227663481D01*
X96732913Y-213649913D01*
X96966313Y-213805866D01*
X97528666Y-214038800D01*
X98125657Y-214157549D01*
X98734343Y-214157549D01*
X99331334Y-214038800D01*
X99893687Y-213805866D01*
X100112913Y-213659383D01*
X100112914Y-227663471D01*
X100109357Y-227699586D01*
X100123548Y-227843671D01*
X100165576Y-227982219D01*
X100233826Y-228109906D01*
X100325675Y-228221824D01*
X100437593Y-228313673D01*
X100565280Y-228381923D01*
X100703828Y-228423951D01*
X100811808Y-228434586D01*
X100847913Y-228438142D01*
X100884018Y-228434586D01*
X115011808Y-228434586D01*
X115047913Y-228438142D01*
X115084018Y-228434586D01*
X115191998Y-228423951D01*
X115330546Y-228381923D01*
X115458233Y-228313673D01*
X115570151Y-228221824D01*
X115662000Y-228109906D01*
X115730250Y-227982219D01*
X115772278Y-227843671D01*
X115786469Y-227699586D01*
X115782913Y-227663481D01*
X115782913Y-213535691D01*
X115786469Y-213499586D01*
X119159357Y-213499586D01*
X119162913Y-213535691D01*
X119162914Y-227663471D01*
X119159357Y-227699586D01*
X119173548Y-227843671D01*
X119215576Y-227982219D01*
X119283826Y-228109906D01*
X119375675Y-228221824D01*
X119487593Y-228313673D01*
X119615280Y-228381923D01*
X119753828Y-228423951D01*
X119861808Y-228434586D01*
X119897913Y-228438142D01*
X119934018Y-228434586D01*
X134061808Y-228434586D01*
X134097913Y-228438142D01*
X134134018Y-228434586D01*
X134241998Y-228423951D01*
X134380546Y-228381923D01*
X134508233Y-228313673D01*
X134620151Y-228221824D01*
X134712000Y-228109906D01*
X134780250Y-227982219D01*
X134822278Y-227843671D01*
X134836469Y-227699586D01*
X134832913Y-227663481D01*
X134832913Y-213535691D01*
X134836469Y-213499586D01*
X138209357Y-213499586D01*
X138212913Y-213535691D01*
X138212914Y-227663471D01*
X138209357Y-227699586D01*
X138223548Y-227843671D01*
X138265576Y-227982219D01*
X138333826Y-228109906D01*
X138425675Y-228221824D01*
X138537593Y-228313673D01*
X138665280Y-228381923D01*
X138803828Y-228423951D01*
X138911808Y-228434586D01*
X138947913Y-228438142D01*
X138984018Y-228434586D01*
X153111808Y-228434586D01*
X153147913Y-228438142D01*
X153184018Y-228434586D01*
X153291998Y-228423951D01*
X153430546Y-228381923D01*
X153558233Y-228313673D01*
X153670151Y-228221824D01*
X153762000Y-228109906D01*
X153830250Y-227982219D01*
X153872278Y-227843671D01*
X153886469Y-227699586D01*
X153882913Y-227663481D01*
X153882913Y-213535691D01*
X153886469Y-213499586D01*
X157259357Y-213499586D01*
X157262913Y-213535691D01*
X157262914Y-227663471D01*
X157259357Y-227699586D01*
X157273548Y-227843671D01*
X157315576Y-227982219D01*
X157383826Y-228109906D01*
X157475675Y-228221824D01*
X157587593Y-228313673D01*
X157715280Y-228381923D01*
X157853828Y-228423951D01*
X157961808Y-228434586D01*
X157997913Y-228438142D01*
X158034018Y-228434586D01*
X172161808Y-228434586D01*
X172197913Y-228438142D01*
X172234018Y-228434586D01*
X172341998Y-228423951D01*
X172480546Y-228381923D01*
X172608233Y-228313673D01*
X172720151Y-228221824D01*
X172812000Y-228109906D01*
X172880250Y-227982219D01*
X172922278Y-227843671D01*
X172936469Y-227699586D01*
X172932913Y-227663481D01*
X172932913Y-213535691D01*
X172936469Y-213499586D01*
X176309357Y-213499586D01*
X176312913Y-213535691D01*
X176312914Y-227663471D01*
X176309357Y-227699586D01*
X176323548Y-227843671D01*
X176365576Y-227982219D01*
X176433826Y-228109906D01*
X176525675Y-228221824D01*
X176637593Y-228313673D01*
X176765280Y-228381923D01*
X176903828Y-228423951D01*
X177011808Y-228434586D01*
X177047913Y-228438142D01*
X177084018Y-228434586D01*
X267411808Y-228434586D01*
X267447913Y-228438142D01*
X267484018Y-228434586D01*
X267591998Y-228423951D01*
X267730546Y-228381923D01*
X267858233Y-228313673D01*
X267970151Y-228221824D01*
X268062000Y-228109906D01*
X268130250Y-227982219D01*
X268172278Y-227843671D01*
X268186469Y-227699586D01*
X268182913Y-227663481D01*
X268182913Y-213535691D01*
X268186469Y-213499586D01*
X271559357Y-213499586D01*
X271562913Y-213535691D01*
X271562914Y-227663471D01*
X271559357Y-227699586D01*
X271573548Y-227843671D01*
X271615576Y-227982219D01*
X271683826Y-228109906D01*
X271775675Y-228221824D01*
X271887593Y-228313673D01*
X272015280Y-228381923D01*
X272153828Y-228423951D01*
X272261808Y-228434586D01*
X272297913Y-228438142D01*
X272334018Y-228434586D01*
X286461808Y-228434586D01*
X286497913Y-228438142D01*
X286534018Y-228434586D01*
X286641998Y-228423951D01*
X286780546Y-228381923D01*
X286908233Y-228313673D01*
X287020151Y-228221824D01*
X287112000Y-228109906D01*
X287180250Y-227982219D01*
X287222278Y-227843671D01*
X287236469Y-227699586D01*
X287232913Y-227663481D01*
X287232913Y-213535691D01*
X287236469Y-213499586D01*
X290609357Y-213499586D01*
X290612913Y-213535691D01*
X290612914Y-227663471D01*
X290609357Y-227699586D01*
X290623548Y-227843671D01*
X290665576Y-227982219D01*
X290733826Y-228109906D01*
X290825675Y-228221824D01*
X290937593Y-228313673D01*
X291065280Y-228381923D01*
X291203828Y-228423951D01*
X291311808Y-228434586D01*
X291347913Y-228438142D01*
X291384018Y-228434586D01*
X305511808Y-228434586D01*
X305547913Y-228438142D01*
X305584018Y-228434586D01*
X305691998Y-228423951D01*
X305830546Y-228381923D01*
X305958233Y-228313673D01*
X306070151Y-228221824D01*
X306162000Y-228109906D01*
X306230250Y-227982219D01*
X306272278Y-227843671D01*
X306286469Y-227699586D01*
X306282913Y-227663481D01*
X306282913Y-213535691D01*
X306286469Y-213499586D01*
X309659357Y-213499586D01*
X309662913Y-213535691D01*
X309662914Y-227663471D01*
X309659357Y-227699586D01*
X309673548Y-227843671D01*
X309715576Y-227982219D01*
X309783826Y-228109906D01*
X309875675Y-228221824D01*
X309987593Y-228313673D01*
X310115280Y-228381923D01*
X310253828Y-228423951D01*
X310361808Y-228434586D01*
X310397913Y-228438142D01*
X310434018Y-228434586D01*
X324561808Y-228434586D01*
X324597913Y-228438142D01*
X324634018Y-228434586D01*
X324741998Y-228423951D01*
X324880546Y-228381923D01*
X325008233Y-228313673D01*
X325120151Y-228221824D01*
X325212000Y-228109906D01*
X325280250Y-227982219D01*
X325322278Y-227843671D01*
X325336469Y-227699586D01*
X325332913Y-227663481D01*
X325332913Y-213535691D01*
X325336469Y-213499586D01*
X325322278Y-213355501D01*
X325280250Y-213216953D01*
X325212000Y-213089266D01*
X325120151Y-212977348D01*
X325008233Y-212885499D01*
X324880546Y-212817249D01*
X324741998Y-212775221D01*
X324634018Y-212764586D01*
X324597913Y-212761030D01*
X324561808Y-212764586D01*
X310434018Y-212764586D01*
X310397913Y-212761030D01*
X310361808Y-212764586D01*
X310253828Y-212775221D01*
X310115280Y-212817249D01*
X309987593Y-212885499D01*
X309875675Y-212977348D01*
X309783826Y-213089266D01*
X309715576Y-213216953D01*
X309673548Y-213355501D01*
X309659357Y-213499586D01*
X306286469Y-213499586D01*
X306272278Y-213355501D01*
X306230250Y-213216953D01*
X306162000Y-213089266D01*
X306070151Y-212977348D01*
X305958233Y-212885499D01*
X305830546Y-212817249D01*
X305691998Y-212775221D01*
X305584018Y-212764586D01*
X305547913Y-212761030D01*
X305511808Y-212764586D01*
X291384018Y-212764586D01*
X291347913Y-212761030D01*
X291311808Y-212764586D01*
X291203828Y-212775221D01*
X291065280Y-212817249D01*
X290937593Y-212885499D01*
X290825675Y-212977348D01*
X290733826Y-213089266D01*
X290665576Y-213216953D01*
X290623548Y-213355501D01*
X290609357Y-213499586D01*
X287236469Y-213499586D01*
X287222278Y-213355501D01*
X287180250Y-213216953D01*
X287112000Y-213089266D01*
X287020151Y-212977348D01*
X286908233Y-212885499D01*
X286780546Y-212817249D01*
X286641998Y-212775221D01*
X286534018Y-212764586D01*
X286497913Y-212761030D01*
X286461808Y-212764586D01*
X272334018Y-212764586D01*
X272297913Y-212761030D01*
X272261808Y-212764586D01*
X272153828Y-212775221D01*
X272015280Y-212817249D01*
X271887593Y-212885499D01*
X271775675Y-212977348D01*
X271683826Y-213089266D01*
X271615576Y-213216953D01*
X271573548Y-213355501D01*
X271559357Y-213499586D01*
X268186469Y-213499586D01*
X268172278Y-213355501D01*
X268130250Y-213216953D01*
X268062000Y-213089266D01*
X267970151Y-212977348D01*
X267858233Y-212885499D01*
X267730546Y-212817249D01*
X267591998Y-212775221D01*
X267484018Y-212764586D01*
X267447913Y-212761030D01*
X267411808Y-212764586D01*
X215312413Y-212764586D01*
X215468366Y-212531187D01*
X215701300Y-211968834D01*
X215820049Y-211371843D01*
X215820049Y-210763157D01*
X215701300Y-210166166D01*
X215468366Y-209603813D01*
X215321883Y-209384586D01*
X229311808Y-209384586D01*
X229347913Y-209388142D01*
X229384018Y-209384586D01*
X229491998Y-209373951D01*
X229630546Y-209331923D01*
X229758233Y-209263673D01*
X229870151Y-209171824D01*
X229962000Y-209059906D01*
X230030250Y-208932219D01*
X230072278Y-208793671D01*
X230086469Y-208649586D01*
X230082913Y-208613481D01*
X230082913Y-194485691D01*
X230086469Y-194449586D01*
X233459357Y-194449586D01*
X233462913Y-194485691D01*
X233462914Y-208613471D01*
X233459357Y-208649586D01*
X233473548Y-208793671D01*
X233515576Y-208932219D01*
X233583826Y-209059906D01*
X233675675Y-209171824D01*
X233787593Y-209263673D01*
X233915280Y-209331923D01*
X234053828Y-209373951D01*
X234161808Y-209384586D01*
X234197913Y-209388142D01*
X234234018Y-209384586D01*
X248361808Y-209384586D01*
X248397913Y-209388142D01*
X248434018Y-209384586D01*
X248541998Y-209373951D01*
X248680546Y-209331923D01*
X248808233Y-209263673D01*
X248920151Y-209171824D01*
X249012000Y-209059906D01*
X249080250Y-208932219D01*
X249122278Y-208793671D01*
X249136469Y-208649586D01*
X249132913Y-208613481D01*
X249132913Y-194485691D01*
X249136469Y-194449586D01*
X252509357Y-194449586D01*
X252512913Y-194485691D01*
X252512914Y-208613471D01*
X252509357Y-208649586D01*
X252523548Y-208793671D01*
X252565576Y-208932219D01*
X252633826Y-209059906D01*
X252725675Y-209171824D01*
X252837593Y-209263673D01*
X252965280Y-209331923D01*
X253103828Y-209373951D01*
X253211808Y-209384586D01*
X253247913Y-209388142D01*
X253284018Y-209384586D01*
X267411808Y-209384586D01*
X267447913Y-209388142D01*
X267484018Y-209384586D01*
X267591998Y-209373951D01*
X267730546Y-209331923D01*
X267858233Y-209263673D01*
X267970151Y-209171824D01*
X268062000Y-209059906D01*
X268130250Y-208932219D01*
X268172278Y-208793671D01*
X268186469Y-208649586D01*
X268182913Y-208613481D01*
X268182913Y-194485691D01*
X268186469Y-194449586D01*
X271559357Y-194449586D01*
X271562913Y-194485691D01*
X271562914Y-208613471D01*
X271559357Y-208649586D01*
X271573548Y-208793671D01*
X271615576Y-208932219D01*
X271683826Y-209059906D01*
X271775675Y-209171824D01*
X271887593Y-209263673D01*
X272015280Y-209331923D01*
X272153828Y-209373951D01*
X272261808Y-209384586D01*
X272297913Y-209388142D01*
X272334018Y-209384586D01*
X286461808Y-209384586D01*
X286497913Y-209388142D01*
X286534018Y-209384586D01*
X286641998Y-209373951D01*
X286780546Y-209331923D01*
X286908233Y-209263673D01*
X287020151Y-209171824D01*
X287112000Y-209059906D01*
X287180250Y-208932219D01*
X287222278Y-208793671D01*
X287236469Y-208649586D01*
X287232913Y-208613481D01*
X287232913Y-194485691D01*
X287236469Y-194449586D01*
X287222278Y-194305501D01*
X287180250Y-194166953D01*
X287112000Y-194039266D01*
X287020151Y-193927348D01*
X286908233Y-193835499D01*
X286780546Y-193767249D01*
X286641998Y-193725221D01*
X286534018Y-193714586D01*
X286497913Y-193711030D01*
X286461808Y-193714586D01*
X272334018Y-193714586D01*
X272297913Y-193711030D01*
X272261808Y-193714586D01*
X272153828Y-193725221D01*
X272015280Y-193767249D01*
X271887593Y-193835499D01*
X271775675Y-193927348D01*
X271683826Y-194039266D01*
X271615576Y-194166953D01*
X271573548Y-194305501D01*
X271559357Y-194449586D01*
X268186469Y-194449586D01*
X268172278Y-194305501D01*
X268130250Y-194166953D01*
X268062000Y-194039266D01*
X267970151Y-193927348D01*
X267858233Y-193835499D01*
X267730546Y-193767249D01*
X267591998Y-193725221D01*
X267484018Y-193714586D01*
X267447913Y-193711030D01*
X267411808Y-193714586D01*
X253284018Y-193714586D01*
X253247913Y-193711030D01*
X253211808Y-193714586D01*
X253103828Y-193725221D01*
X252965280Y-193767249D01*
X252837593Y-193835499D01*
X252725675Y-193927348D01*
X252633826Y-194039266D01*
X252565576Y-194166953D01*
X252523548Y-194305501D01*
X252509357Y-194449586D01*
X249136469Y-194449586D01*
X249122278Y-194305501D01*
X249080250Y-194166953D01*
X249012000Y-194039266D01*
X248920151Y-193927348D01*
X248808233Y-193835499D01*
X248680546Y-193767249D01*
X248541998Y-193725221D01*
X248434018Y-193714586D01*
X248397913Y-193711030D01*
X248361808Y-193714586D01*
X234234018Y-193714586D01*
X234197913Y-193711030D01*
X234161808Y-193714586D01*
X234053828Y-193725221D01*
X233915280Y-193767249D01*
X233787593Y-193835499D01*
X233675675Y-193927348D01*
X233583826Y-194039266D01*
X233515576Y-194166953D01*
X233473548Y-194305501D01*
X233459357Y-194449586D01*
X230086469Y-194449586D01*
X230072278Y-194305501D01*
X230030250Y-194166953D01*
X229962000Y-194039266D01*
X229870151Y-193927348D01*
X229758233Y-193835499D01*
X229630546Y-193767249D01*
X229491998Y-193725221D01*
X229384018Y-193714586D01*
X229347913Y-193711030D01*
X229311808Y-193714586D01*
X215184018Y-193714586D01*
X215147913Y-193711030D01*
X215111808Y-193714586D01*
X215003828Y-193725221D01*
X214865280Y-193767249D01*
X214737593Y-193835499D01*
X214625675Y-193927348D01*
X214533826Y-194039266D01*
X214465576Y-194166953D01*
X214423548Y-194305501D01*
X214409357Y-194449586D01*
X214412913Y-194485691D01*
X214412914Y-208475617D01*
X214193687Y-208329134D01*
X213631334Y-208096200D01*
X213034343Y-207977451D01*
X212425657Y-207977451D01*
X211828666Y-208096200D01*
X211266313Y-208329134D01*
X211032913Y-208485087D01*
X211032913Y-194485691D01*
X211036469Y-194449586D01*
X211022278Y-194305501D01*
X210980250Y-194166953D01*
X210912000Y-194039266D01*
X210820151Y-193927348D01*
X210708233Y-193835499D01*
X210580546Y-193767249D01*
X210441998Y-193725221D01*
X210334018Y-193714586D01*
X210297913Y-193711030D01*
X210261808Y-193714586D01*
X196134018Y-193714586D01*
X196097913Y-193711030D01*
X196061808Y-193714586D01*
X195953828Y-193725221D01*
X195815280Y-193767249D01*
X195687593Y-193835499D01*
X195575675Y-193927348D01*
X195483826Y-194039266D01*
X195415576Y-194166953D01*
X195373548Y-194305501D01*
X195359357Y-194449586D01*
X195362913Y-194485691D01*
X195362914Y-208613471D01*
X195359357Y-208649586D01*
X195373548Y-208793671D01*
X195415576Y-208932219D01*
X195483826Y-209059906D01*
X195575675Y-209171824D01*
X195687593Y-209263673D01*
X195815280Y-209331923D01*
X195953828Y-209373951D01*
X196061808Y-209384586D01*
X196097913Y-209388142D01*
X196134018Y-209384586D01*
X210138117Y-209384586D01*
X209991634Y-209603813D01*
X209758700Y-210166166D01*
X209639951Y-210763157D01*
X209639951Y-211371843D01*
X209758700Y-211968834D01*
X209991634Y-212531187D01*
X210147587Y-212764586D01*
X177084018Y-212764586D01*
X177047913Y-212761030D01*
X177011808Y-212764586D01*
X176903828Y-212775221D01*
X176765280Y-212817249D01*
X176637593Y-212885499D01*
X176525675Y-212977348D01*
X176433826Y-213089266D01*
X176365576Y-213216953D01*
X176323548Y-213355501D01*
X176309357Y-213499586D01*
X172936469Y-213499586D01*
X172922278Y-213355501D01*
X172880250Y-213216953D01*
X172812000Y-213089266D01*
X172720151Y-212977348D01*
X172608233Y-212885499D01*
X172480546Y-212817249D01*
X172341998Y-212775221D01*
X172234018Y-212764586D01*
X172197913Y-212761030D01*
X172161808Y-212764586D01*
X158034018Y-212764586D01*
X157997913Y-212761030D01*
X157961808Y-212764586D01*
X157853828Y-212775221D01*
X157715280Y-212817249D01*
X157587593Y-212885499D01*
X157475675Y-212977348D01*
X157383826Y-213089266D01*
X157315576Y-213216953D01*
X157273548Y-213355501D01*
X157259357Y-213499586D01*
X153886469Y-213499586D01*
X153872278Y-213355501D01*
X153830250Y-213216953D01*
X153762000Y-213089266D01*
X153670151Y-212977348D01*
X153558233Y-212885499D01*
X153430546Y-212817249D01*
X153291998Y-212775221D01*
X153184018Y-212764586D01*
X153147913Y-212761030D01*
X153111808Y-212764586D01*
X138984018Y-212764586D01*
X138947913Y-212761030D01*
X138911808Y-212764586D01*
X138803828Y-212775221D01*
X138665280Y-212817249D01*
X138537593Y-212885499D01*
X138425675Y-212977348D01*
X138333826Y-213089266D01*
X138265576Y-213216953D01*
X138223548Y-213355501D01*
X138209357Y-213499586D01*
X134836469Y-213499586D01*
X134822278Y-213355501D01*
X134780250Y-213216953D01*
X134712000Y-213089266D01*
X134620151Y-212977348D01*
X134508233Y-212885499D01*
X134380546Y-212817249D01*
X134241998Y-212775221D01*
X134134018Y-212764586D01*
X134097913Y-212761030D01*
X134061808Y-212764586D01*
X119934018Y-212764586D01*
X119897913Y-212761030D01*
X119861808Y-212764586D01*
X119753828Y-212775221D01*
X119615280Y-212817249D01*
X119487593Y-212885499D01*
X119375675Y-212977348D01*
X119283826Y-213089266D01*
X119215576Y-213216953D01*
X119173548Y-213355501D01*
X119159357Y-213499586D01*
X115786469Y-213499586D01*
X115772278Y-213355501D01*
X115730250Y-213216953D01*
X115662000Y-213089266D01*
X115570151Y-212977348D01*
X115458233Y-212885499D01*
X115330546Y-212817249D01*
X115191998Y-212775221D01*
X115084018Y-212764586D01*
X115047913Y-212761030D01*
X115011808Y-212764586D01*
X101012413Y-212764586D01*
X101168366Y-212531187D01*
X101401300Y-211968834D01*
X101520049Y-211371843D01*
X101520049Y-210763157D01*
X101401300Y-210166166D01*
X101168366Y-209603813D01*
X101021883Y-209384586D01*
X115011808Y-209384586D01*
X115047913Y-209388142D01*
X115084018Y-209384586D01*
X115191998Y-209373951D01*
X115330546Y-209331923D01*
X115458233Y-209263673D01*
X115570151Y-209171824D01*
X115662000Y-209059906D01*
X115730250Y-208932219D01*
X115772278Y-208793671D01*
X115786469Y-208649586D01*
X115782913Y-208613481D01*
X115782913Y-194485691D01*
X115786469Y-194449586D01*
X115772278Y-194305501D01*
X115730250Y-194166953D01*
X115662000Y-194039266D01*
X115570151Y-193927348D01*
X115458233Y-193835499D01*
X115330546Y-193767249D01*
X115191998Y-193725221D01*
X115084018Y-193714586D01*
X115047913Y-193711030D01*
X115011808Y-193714586D01*
X100884018Y-193714586D01*
X100847913Y-193711030D01*
X100811808Y-193714586D01*
X100703828Y-193725221D01*
X100565280Y-193767249D01*
X100437593Y-193835499D01*
X100325675Y-193927348D01*
X100233826Y-194039266D01*
X100165576Y-194166953D01*
X100123548Y-194305501D01*
X100109357Y-194449586D01*
X100112913Y-194485691D01*
X100112914Y-208475617D01*
X99893687Y-208329134D01*
X99331334Y-208096200D01*
X98734343Y-207977451D01*
X98125657Y-207977451D01*
X97528666Y-208096200D01*
X96966313Y-208329134D01*
X96732913Y-208485087D01*
X96732913Y-194485691D01*
X96736469Y-194449586D01*
X96722278Y-194305501D01*
X96680250Y-194166953D01*
X96612000Y-194039266D01*
X96520151Y-193927348D01*
X96408233Y-193835499D01*
X96280546Y-193767249D01*
X96141998Y-193725221D01*
X96034018Y-193714586D01*
X95997913Y-193711030D01*
X95961808Y-193714586D01*
X81834018Y-193714586D01*
X81797913Y-193711030D01*
X81761808Y-193714586D01*
X81653828Y-193725221D01*
X81515280Y-193767249D01*
X81387593Y-193835499D01*
X81275675Y-193927348D01*
X81183826Y-194039266D01*
X81115576Y-194166953D01*
X81073548Y-194305501D01*
X81059357Y-194449586D01*
X69115000Y-194449586D01*
X69115000Y-175399586D01*
X81059357Y-175399586D01*
X81062913Y-175435691D01*
X81062914Y-189563471D01*
X81059357Y-189599586D01*
X81073548Y-189743671D01*
X81115576Y-189882219D01*
X81183826Y-190009906D01*
X81275675Y-190121824D01*
X81387593Y-190213673D01*
X81515280Y-190281923D01*
X81653828Y-190323951D01*
X81761808Y-190334586D01*
X81797913Y-190338142D01*
X81834018Y-190334586D01*
X95961808Y-190334586D01*
X95997913Y-190338142D01*
X96034018Y-190334586D01*
X96141998Y-190323951D01*
X96280546Y-190281923D01*
X96408233Y-190213673D01*
X96520151Y-190121824D01*
X96612000Y-190009906D01*
X96680250Y-189882219D01*
X96722278Y-189743671D01*
X96736469Y-189599586D01*
X96732913Y-189563481D01*
X96732913Y-175435691D01*
X96736469Y-175399586D01*
X100109357Y-175399586D01*
X100112913Y-175435691D01*
X100112914Y-189563471D01*
X100109357Y-189599586D01*
X100123548Y-189743671D01*
X100165576Y-189882219D01*
X100233826Y-190009906D01*
X100325675Y-190121824D01*
X100437593Y-190213673D01*
X100565280Y-190281923D01*
X100703828Y-190323951D01*
X100811808Y-190334586D01*
X100847913Y-190338142D01*
X100884018Y-190334586D01*
X115011808Y-190334586D01*
X115047913Y-190338142D01*
X115084018Y-190334586D01*
X115191998Y-190323951D01*
X115330546Y-190281923D01*
X115458233Y-190213673D01*
X115570151Y-190121824D01*
X115662000Y-190009906D01*
X115730250Y-189882219D01*
X115772278Y-189743671D01*
X115786469Y-189599586D01*
X115782913Y-189563481D01*
X115782913Y-175435691D01*
X115786469Y-175399586D01*
X119159357Y-175399586D01*
X119162913Y-175435691D01*
X119162914Y-189563471D01*
X119159357Y-189599586D01*
X119173548Y-189743671D01*
X119215576Y-189882219D01*
X119283826Y-190009906D01*
X119375675Y-190121824D01*
X119487593Y-190213673D01*
X119615280Y-190281923D01*
X119753828Y-190323951D01*
X119861808Y-190334586D01*
X119897913Y-190338142D01*
X119934018Y-190334586D01*
X133938117Y-190334586D01*
X133791634Y-190553813D01*
X133558700Y-191116166D01*
X133439951Y-191713157D01*
X133439951Y-192321843D01*
X133558700Y-192918834D01*
X133791634Y-193481187D01*
X133947587Y-193714586D01*
X119934018Y-193714586D01*
X119897913Y-193711030D01*
X119861808Y-193714586D01*
X119753828Y-193725221D01*
X119615280Y-193767249D01*
X119487593Y-193835499D01*
X119375675Y-193927348D01*
X119283826Y-194039266D01*
X119215576Y-194166953D01*
X119173548Y-194305501D01*
X119159357Y-194449586D01*
X119162913Y-194485691D01*
X119162914Y-208613471D01*
X119159357Y-208649586D01*
X119173548Y-208793671D01*
X119215576Y-208932219D01*
X119283826Y-209059906D01*
X119375675Y-209171824D01*
X119487593Y-209263673D01*
X119615280Y-209331923D01*
X119753828Y-209373951D01*
X119861808Y-209384586D01*
X119897913Y-209388142D01*
X119934018Y-209384586D01*
X134061808Y-209384586D01*
X134097913Y-209388142D01*
X134134018Y-209384586D01*
X134241998Y-209373951D01*
X134380546Y-209331923D01*
X134508233Y-209263673D01*
X134620151Y-209171824D01*
X134712000Y-209059906D01*
X134780250Y-208932219D01*
X134822278Y-208793671D01*
X134836469Y-208649586D01*
X134832913Y-208613481D01*
X134832913Y-194599913D01*
X135066313Y-194755866D01*
X135628666Y-194988800D01*
X136225657Y-195107549D01*
X136834343Y-195107549D01*
X137431334Y-194988800D01*
X137993687Y-194755866D01*
X138212913Y-194609383D01*
X138212914Y-208613471D01*
X138209357Y-208649586D01*
X138223548Y-208793671D01*
X138265576Y-208932219D01*
X138333826Y-209059906D01*
X138425675Y-209171824D01*
X138537593Y-209263673D01*
X138665280Y-209331923D01*
X138803828Y-209373951D01*
X138911808Y-209384586D01*
X138947913Y-209388142D01*
X138984018Y-209384586D01*
X153111808Y-209384586D01*
X153147913Y-209388142D01*
X153184018Y-209384586D01*
X153291998Y-209373951D01*
X153430546Y-209331923D01*
X153558233Y-209263673D01*
X153670151Y-209171824D01*
X153762000Y-209059906D01*
X153830250Y-208932219D01*
X153872278Y-208793671D01*
X153886469Y-208649586D01*
X153882913Y-208613481D01*
X153882913Y-194485691D01*
X153886469Y-194449586D01*
X157259357Y-194449586D01*
X157262913Y-194485691D01*
X157262914Y-208613471D01*
X157259357Y-208649586D01*
X157273548Y-208793671D01*
X157315576Y-208932219D01*
X157383826Y-209059906D01*
X157475675Y-209171824D01*
X157587593Y-209263673D01*
X157715280Y-209331923D01*
X157853828Y-209373951D01*
X157961808Y-209384586D01*
X157997913Y-209388142D01*
X158034018Y-209384586D01*
X172161808Y-209384586D01*
X172197913Y-209388142D01*
X172234018Y-209384586D01*
X172341998Y-209373951D01*
X172480546Y-209331923D01*
X172608233Y-209263673D01*
X172720151Y-209171824D01*
X172812000Y-209059906D01*
X172880250Y-208932219D01*
X172922278Y-208793671D01*
X172936469Y-208649586D01*
X172932913Y-208613481D01*
X172932913Y-194485691D01*
X172936469Y-194449586D01*
X176309357Y-194449586D01*
X176312913Y-194485691D01*
X176312914Y-208613471D01*
X176309357Y-208649586D01*
X176323548Y-208793671D01*
X176365576Y-208932219D01*
X176433826Y-209059906D01*
X176525675Y-209171824D01*
X176637593Y-209263673D01*
X176765280Y-209331923D01*
X176903828Y-209373951D01*
X177011808Y-209384586D01*
X177047913Y-209388142D01*
X177084018Y-209384586D01*
X191211808Y-209384586D01*
X191247913Y-209388142D01*
X191284018Y-209384586D01*
X191391998Y-209373951D01*
X191530546Y-209331923D01*
X191658233Y-209263673D01*
X191770151Y-209171824D01*
X191862000Y-209059906D01*
X191930250Y-208932219D01*
X191972278Y-208793671D01*
X191986469Y-208649586D01*
X191982913Y-208613481D01*
X191982913Y-194485691D01*
X191986469Y-194449586D01*
X191972278Y-194305501D01*
X191930250Y-194166953D01*
X191862000Y-194039266D01*
X191770151Y-193927348D01*
X191658233Y-193835499D01*
X191530546Y-193767249D01*
X191391998Y-193725221D01*
X191284018Y-193714586D01*
X191247913Y-193711030D01*
X191211808Y-193714586D01*
X177084018Y-193714586D01*
X177047913Y-193711030D01*
X177011808Y-193714586D01*
X176903828Y-193725221D01*
X176765280Y-193767249D01*
X176637593Y-193835499D01*
X176525675Y-193927348D01*
X176433826Y-194039266D01*
X176365576Y-194166953D01*
X176323548Y-194305501D01*
X176309357Y-194449586D01*
X172936469Y-194449586D01*
X172922278Y-194305501D01*
X172880250Y-194166953D01*
X172812000Y-194039266D01*
X172720151Y-193927348D01*
X172608233Y-193835499D01*
X172480546Y-193767249D01*
X172341998Y-193725221D01*
X172234018Y-193714586D01*
X172197913Y-193711030D01*
X172161808Y-193714586D01*
X158034018Y-193714586D01*
X157997913Y-193711030D01*
X157961808Y-193714586D01*
X157853828Y-193725221D01*
X157715280Y-193767249D01*
X157587593Y-193835499D01*
X157475675Y-193927348D01*
X157383826Y-194039266D01*
X157315576Y-194166953D01*
X157273548Y-194305501D01*
X157259357Y-194449586D01*
X153886469Y-194449586D01*
X153872278Y-194305501D01*
X153830250Y-194166953D01*
X153762000Y-194039266D01*
X153670151Y-193927348D01*
X153558233Y-193835499D01*
X153430546Y-193767249D01*
X153291998Y-193725221D01*
X153184018Y-193714586D01*
X153147913Y-193711030D01*
X153111808Y-193714586D01*
X139112413Y-193714586D01*
X139268366Y-193481187D01*
X139501300Y-192918834D01*
X139620049Y-192321843D01*
X139620049Y-191713157D01*
X139501300Y-191116166D01*
X139268366Y-190553813D01*
X139121883Y-190334586D01*
X153111808Y-190334586D01*
X153147913Y-190338142D01*
X153184018Y-190334586D01*
X153291998Y-190323951D01*
X153430546Y-190281923D01*
X153558233Y-190213673D01*
X153670151Y-190121824D01*
X153762000Y-190009906D01*
X153830250Y-189882219D01*
X153872278Y-189743671D01*
X153886469Y-189599586D01*
X153882913Y-189563481D01*
X153882913Y-175435691D01*
X153886469Y-175399586D01*
X153872278Y-175255501D01*
X153830250Y-175116953D01*
X153762000Y-174989266D01*
X153670151Y-174877348D01*
X153558233Y-174785499D01*
X153430546Y-174717249D01*
X153291998Y-174675221D01*
X153184018Y-174664586D01*
X153147913Y-174661030D01*
X153111808Y-174664586D01*
X138984018Y-174664586D01*
X138947913Y-174661030D01*
X138911808Y-174664586D01*
X138803828Y-174675221D01*
X138665280Y-174717249D01*
X138537593Y-174785499D01*
X138425675Y-174877348D01*
X138333826Y-174989266D01*
X138265576Y-175116953D01*
X138223548Y-175255501D01*
X138209357Y-175399586D01*
X138212913Y-175435691D01*
X138212914Y-189425617D01*
X137993687Y-189279134D01*
X137431334Y-189046200D01*
X136834343Y-188927451D01*
X136225657Y-188927451D01*
X135628666Y-189046200D01*
X135066313Y-189279134D01*
X134832913Y-189435087D01*
X134832913Y-175435691D01*
X134836469Y-175399586D01*
X134822278Y-175255501D01*
X134780250Y-175116953D01*
X134712000Y-174989266D01*
X134620151Y-174877348D01*
X134508233Y-174785499D01*
X134380546Y-174717249D01*
X134241998Y-174675221D01*
X134134018Y-174664586D01*
X134097913Y-174661030D01*
X134061808Y-174664586D01*
X119934018Y-174664586D01*
X119897913Y-174661030D01*
X119861808Y-174664586D01*
X119753828Y-174675221D01*
X119615280Y-174717249D01*
X119487593Y-174785499D01*
X119375675Y-174877348D01*
X119283826Y-174989266D01*
X119215576Y-175116953D01*
X119173548Y-175255501D01*
X119159357Y-175399586D01*
X115786469Y-175399586D01*
X115772278Y-175255501D01*
X115730250Y-175116953D01*
X115662000Y-174989266D01*
X115570151Y-174877348D01*
X115458233Y-174785499D01*
X115330546Y-174717249D01*
X115191998Y-174675221D01*
X115084018Y-174664586D01*
X115047913Y-174661030D01*
X115011808Y-174664586D01*
X100884018Y-174664586D01*
X100847913Y-174661030D01*
X100811808Y-174664586D01*
X100703828Y-174675221D01*
X100565280Y-174717249D01*
X100437593Y-174785499D01*
X100325675Y-174877348D01*
X100233826Y-174989266D01*
X100165576Y-175116953D01*
X100123548Y-175255501D01*
X100109357Y-175399586D01*
X96736469Y-175399586D01*
X96722278Y-175255501D01*
X96680250Y-175116953D01*
X96612000Y-174989266D01*
X96520151Y-174877348D01*
X96408233Y-174785499D01*
X96280546Y-174717249D01*
X96141998Y-174675221D01*
X96034018Y-174664586D01*
X95997913Y-174661030D01*
X95961808Y-174664586D01*
X81834018Y-174664586D01*
X81797913Y-174661030D01*
X81761808Y-174664586D01*
X81653828Y-174675221D01*
X81515280Y-174717249D01*
X81387593Y-174785499D01*
X81275675Y-174877348D01*
X81183826Y-174989266D01*
X81115576Y-175116953D01*
X81073548Y-175255501D01*
X81059357Y-175399586D01*
X69115000Y-175399586D01*
X69115000Y-156349586D01*
X81059357Y-156349586D01*
X81062913Y-156385691D01*
X81062914Y-170513471D01*
X81059357Y-170549586D01*
X81073548Y-170693671D01*
X81115576Y-170832219D01*
X81183826Y-170959906D01*
X81275675Y-171071824D01*
X81387593Y-171163673D01*
X81515280Y-171231923D01*
X81653828Y-171273951D01*
X81761808Y-171284586D01*
X81797913Y-171288142D01*
X81834018Y-171284586D01*
X95961808Y-171284586D01*
X95997913Y-171288142D01*
X96034018Y-171284586D01*
X96141998Y-171273951D01*
X96280546Y-171231923D01*
X96408233Y-171163673D01*
X96520151Y-171071824D01*
X96612000Y-170959906D01*
X96680250Y-170832219D01*
X96722278Y-170693671D01*
X96736469Y-170549586D01*
X96732913Y-170513481D01*
X96732913Y-156385691D01*
X96736469Y-156349586D01*
X96722278Y-156205501D01*
X96680250Y-156066953D01*
X96612000Y-155939266D01*
X96520151Y-155827348D01*
X96408233Y-155735499D01*
X96280546Y-155667249D01*
X96141998Y-155625221D01*
X96034018Y-155614586D01*
X95997913Y-155611030D01*
X95961808Y-155614586D01*
X81834018Y-155614586D01*
X81797913Y-155611030D01*
X81761808Y-155614586D01*
X81653828Y-155625221D01*
X81515280Y-155667249D01*
X81387593Y-155735499D01*
X81275675Y-155827348D01*
X81183826Y-155939266D01*
X81115576Y-156066953D01*
X81073548Y-156205501D01*
X81059357Y-156349586D01*
X69115000Y-156349586D01*
X69115000Y-137299586D01*
X81059357Y-137299586D01*
X81062913Y-137335691D01*
X81062914Y-151463471D01*
X81059357Y-151499586D01*
X81073548Y-151643671D01*
X81115576Y-151782219D01*
X81183826Y-151909906D01*
X81275675Y-152021824D01*
X81387593Y-152113673D01*
X81515280Y-152181923D01*
X81653828Y-152223951D01*
X81761808Y-152234586D01*
X81797913Y-152238142D01*
X81834018Y-152234586D01*
X95961808Y-152234586D01*
X95997913Y-152238142D01*
X96034018Y-152234586D01*
X96141998Y-152223951D01*
X96280546Y-152181923D01*
X96408233Y-152113673D01*
X96520151Y-152021824D01*
X96612000Y-151909906D01*
X96680250Y-151782219D01*
X96722278Y-151643671D01*
X96736469Y-151499586D01*
X96732913Y-151463481D01*
X96732913Y-137335691D01*
X96736469Y-137299586D01*
X100109357Y-137299586D01*
X100112913Y-137335691D01*
X100112914Y-151463471D01*
X100109357Y-151499586D01*
X100123548Y-151643671D01*
X100165576Y-151782219D01*
X100233826Y-151909906D01*
X100325675Y-152021824D01*
X100437593Y-152113673D01*
X100565280Y-152181923D01*
X100703828Y-152223951D01*
X100811808Y-152234586D01*
X100847913Y-152238142D01*
X100884018Y-152234586D01*
X114903151Y-152234586D01*
X114741634Y-152476313D01*
X114508700Y-153038666D01*
X114389951Y-153635657D01*
X114389951Y-154244343D01*
X114508700Y-154841334D01*
X114741634Y-155403687D01*
X114882553Y-155614586D01*
X100884018Y-155614586D01*
X100847913Y-155611030D01*
X100811808Y-155614586D01*
X100703828Y-155625221D01*
X100565280Y-155667249D01*
X100437593Y-155735499D01*
X100325675Y-155827348D01*
X100233826Y-155939266D01*
X100165576Y-156066953D01*
X100123548Y-156205501D01*
X100109357Y-156349586D01*
X100112913Y-156385691D01*
X100112914Y-170513471D01*
X100109357Y-170549586D01*
X100123548Y-170693671D01*
X100165576Y-170832219D01*
X100233826Y-170959906D01*
X100325675Y-171071824D01*
X100437593Y-171163673D01*
X100565280Y-171231923D01*
X100703828Y-171273951D01*
X100811808Y-171284586D01*
X100847913Y-171288142D01*
X100884018Y-171284586D01*
X115011808Y-171284586D01*
X115047913Y-171288142D01*
X115084018Y-171284586D01*
X115191998Y-171273951D01*
X115330546Y-171231923D01*
X115458233Y-171163673D01*
X115570151Y-171071824D01*
X115662000Y-170959906D01*
X115730250Y-170832219D01*
X115772278Y-170693671D01*
X115786469Y-170549586D01*
X115782913Y-170513481D01*
X115782913Y-156522413D01*
X116016313Y-156678366D01*
X116578666Y-156911300D01*
X117175657Y-157030049D01*
X117784343Y-157030049D01*
X118381334Y-156911300D01*
X118943687Y-156678366D01*
X119162913Y-156531883D01*
X119162914Y-170513471D01*
X119159357Y-170549586D01*
X119173548Y-170693671D01*
X119215576Y-170832219D01*
X119283826Y-170959906D01*
X119375675Y-171071824D01*
X119487593Y-171163673D01*
X119615280Y-171231923D01*
X119753828Y-171273951D01*
X119861808Y-171284586D01*
X119897913Y-171288142D01*
X119934018Y-171284586D01*
X134061808Y-171284586D01*
X134097913Y-171288142D01*
X134134018Y-171284586D01*
X134241998Y-171273951D01*
X134380546Y-171231923D01*
X134508233Y-171163673D01*
X134620151Y-171071824D01*
X134712000Y-170959906D01*
X134780250Y-170832219D01*
X134822278Y-170693671D01*
X134836469Y-170549586D01*
X134832913Y-170513481D01*
X134832913Y-156385691D01*
X134836469Y-156349586D01*
X138209357Y-156349586D01*
X138212913Y-156385691D01*
X138212914Y-170513471D01*
X138209357Y-170549586D01*
X138223548Y-170693671D01*
X138265576Y-170832219D01*
X138333826Y-170959906D01*
X138425675Y-171071824D01*
X138537593Y-171163673D01*
X138665280Y-171231923D01*
X138803828Y-171273951D01*
X138911808Y-171284586D01*
X138947913Y-171288142D01*
X138984018Y-171284586D01*
X153111808Y-171284586D01*
X153147913Y-171288142D01*
X153184018Y-171284586D01*
X153291998Y-171273951D01*
X153430546Y-171231923D01*
X153558233Y-171163673D01*
X153670151Y-171071824D01*
X153762000Y-170959906D01*
X153830250Y-170832219D01*
X153872278Y-170693671D01*
X153886469Y-170549586D01*
X153882913Y-170513481D01*
X153882913Y-156385691D01*
X153886469Y-156349586D01*
X157259357Y-156349586D01*
X157262913Y-156385691D01*
X157262914Y-170513471D01*
X157259357Y-170549586D01*
X157273548Y-170693671D01*
X157315576Y-170832219D01*
X157383826Y-170959906D01*
X157475675Y-171071824D01*
X157587593Y-171163673D01*
X157715280Y-171231923D01*
X157853828Y-171273951D01*
X157961808Y-171284586D01*
X157997913Y-171288142D01*
X158034018Y-171284586D01*
X172038117Y-171284586D01*
X171891634Y-171503813D01*
X171658700Y-172066166D01*
X171539951Y-172663157D01*
X171539951Y-173271843D01*
X171658700Y-173868834D01*
X171891634Y-174431187D01*
X172047587Y-174664586D01*
X158034018Y-174664586D01*
X157997913Y-174661030D01*
X157961808Y-174664586D01*
X157853828Y-174675221D01*
X157715280Y-174717249D01*
X157587593Y-174785499D01*
X157475675Y-174877348D01*
X157383826Y-174989266D01*
X157315576Y-175116953D01*
X157273548Y-175255501D01*
X157259357Y-175399586D01*
X157262913Y-175435691D01*
X157262914Y-189563471D01*
X157259357Y-189599586D01*
X157273548Y-189743671D01*
X157315576Y-189882219D01*
X157383826Y-190009906D01*
X157475675Y-190121824D01*
X157587593Y-190213673D01*
X157715280Y-190281923D01*
X157853828Y-190323951D01*
X157961808Y-190334586D01*
X157997913Y-190338142D01*
X158034018Y-190334586D01*
X172161808Y-190334586D01*
X172197913Y-190338142D01*
X172234018Y-190334586D01*
X172341998Y-190323951D01*
X172480546Y-190281923D01*
X172608233Y-190213673D01*
X172720151Y-190121824D01*
X172812000Y-190009906D01*
X172880250Y-189882219D01*
X172922278Y-189743671D01*
X172936469Y-189599586D01*
X172932913Y-189563481D01*
X172932913Y-175549913D01*
X173166313Y-175705866D01*
X173728666Y-175938800D01*
X174325657Y-176057549D01*
X174934343Y-176057549D01*
X175531334Y-175938800D01*
X176093687Y-175705866D01*
X176312913Y-175559383D01*
X176312914Y-189563471D01*
X176309357Y-189599586D01*
X176323548Y-189743671D01*
X176365576Y-189882219D01*
X176433826Y-190009906D01*
X176525675Y-190121824D01*
X176637593Y-190213673D01*
X176765280Y-190281923D01*
X176903828Y-190323951D01*
X177011808Y-190334586D01*
X177047913Y-190338142D01*
X177084018Y-190334586D01*
X191211808Y-190334586D01*
X191247913Y-190338142D01*
X191284018Y-190334586D01*
X191391998Y-190323951D01*
X191530546Y-190281923D01*
X191658233Y-190213673D01*
X191770151Y-190121824D01*
X191862000Y-190009906D01*
X191930250Y-189882219D01*
X191972278Y-189743671D01*
X191986469Y-189599586D01*
X191982913Y-189563481D01*
X191982913Y-175435691D01*
X191986469Y-175399586D01*
X195359357Y-175399586D01*
X195362913Y-175435691D01*
X195362914Y-189563471D01*
X195359357Y-189599586D01*
X195373548Y-189743671D01*
X195415576Y-189882219D01*
X195483826Y-190009906D01*
X195575675Y-190121824D01*
X195687593Y-190213673D01*
X195815280Y-190281923D01*
X195953828Y-190323951D01*
X196061808Y-190334586D01*
X196097913Y-190338142D01*
X196134018Y-190334586D01*
X210261808Y-190334586D01*
X210297913Y-190338142D01*
X210334018Y-190334586D01*
X210441998Y-190323951D01*
X210580546Y-190281923D01*
X210708233Y-190213673D01*
X210820151Y-190121824D01*
X210912000Y-190009906D01*
X210980250Y-189882219D01*
X211022278Y-189743671D01*
X211036469Y-189599586D01*
X211032913Y-189563481D01*
X211032913Y-175435691D01*
X211036469Y-175399586D01*
X214409357Y-175399586D01*
X214412913Y-175435691D01*
X214412914Y-189563471D01*
X214409357Y-189599586D01*
X214423548Y-189743671D01*
X214465576Y-189882219D01*
X214533826Y-190009906D01*
X214625675Y-190121824D01*
X214737593Y-190213673D01*
X214865280Y-190281923D01*
X215003828Y-190323951D01*
X215111808Y-190334586D01*
X215147913Y-190338142D01*
X215184018Y-190334586D01*
X229311808Y-190334586D01*
X229347913Y-190338142D01*
X229384018Y-190334586D01*
X229491998Y-190323951D01*
X229630546Y-190281923D01*
X229758233Y-190213673D01*
X229870151Y-190121824D01*
X229962000Y-190009906D01*
X230030250Y-189882219D01*
X230072278Y-189743671D01*
X230086469Y-189599586D01*
X230082913Y-189563481D01*
X230082913Y-175435691D01*
X230086469Y-175399586D01*
X233459357Y-175399586D01*
X233462913Y-175435691D01*
X233462914Y-189563471D01*
X233459357Y-189599586D01*
X233473548Y-189743671D01*
X233515576Y-189882219D01*
X233583826Y-190009906D01*
X233675675Y-190121824D01*
X233787593Y-190213673D01*
X233915280Y-190281923D01*
X234053828Y-190323951D01*
X234161808Y-190334586D01*
X234197913Y-190338142D01*
X234234018Y-190334586D01*
X248361808Y-190334586D01*
X248397913Y-190338142D01*
X248434018Y-190334586D01*
X248541998Y-190323951D01*
X248680546Y-190281923D01*
X248808233Y-190213673D01*
X248920151Y-190121824D01*
X249012000Y-190009906D01*
X249080250Y-189882219D01*
X249122278Y-189743671D01*
X249136469Y-189599586D01*
X249132913Y-189563481D01*
X249132913Y-175435691D01*
X249136469Y-175399586D01*
X249122278Y-175255501D01*
X249080250Y-175116953D01*
X249012000Y-174989266D01*
X248920151Y-174877348D01*
X248808233Y-174785499D01*
X248680546Y-174717249D01*
X248541998Y-174675221D01*
X248434018Y-174664586D01*
X248397913Y-174661030D01*
X248361808Y-174664586D01*
X234234018Y-174664586D01*
X234197913Y-174661030D01*
X234161808Y-174664586D01*
X234053828Y-174675221D01*
X233915280Y-174717249D01*
X233787593Y-174785499D01*
X233675675Y-174877348D01*
X233583826Y-174989266D01*
X233515576Y-175116953D01*
X233473548Y-175255501D01*
X233459357Y-175399586D01*
X230086469Y-175399586D01*
X230072278Y-175255501D01*
X230030250Y-175116953D01*
X229962000Y-174989266D01*
X229870151Y-174877348D01*
X229758233Y-174785499D01*
X229630546Y-174717249D01*
X229491998Y-174675221D01*
X229384018Y-174664586D01*
X229347913Y-174661030D01*
X229311808Y-174664586D01*
X215184018Y-174664586D01*
X215147913Y-174661030D01*
X215111808Y-174664586D01*
X215003828Y-174675221D01*
X214865280Y-174717249D01*
X214737593Y-174785499D01*
X214625675Y-174877348D01*
X214533826Y-174989266D01*
X214465576Y-175116953D01*
X214423548Y-175255501D01*
X214409357Y-175399586D01*
X211036469Y-175399586D01*
X211022278Y-175255501D01*
X210980250Y-175116953D01*
X210912000Y-174989266D01*
X210820151Y-174877348D01*
X210708233Y-174785499D01*
X210580546Y-174717249D01*
X210441998Y-174675221D01*
X210334018Y-174664586D01*
X210297913Y-174661030D01*
X210261808Y-174664586D01*
X196134018Y-174664586D01*
X196097913Y-174661030D01*
X196061808Y-174664586D01*
X195953828Y-174675221D01*
X195815280Y-174717249D01*
X195687593Y-174785499D01*
X195575675Y-174877348D01*
X195483826Y-174989266D01*
X195415576Y-175116953D01*
X195373548Y-175255501D01*
X195359357Y-175399586D01*
X191986469Y-175399586D01*
X191972278Y-175255501D01*
X191930250Y-175116953D01*
X191862000Y-174989266D01*
X191770151Y-174877348D01*
X191658233Y-174785499D01*
X191530546Y-174717249D01*
X191391998Y-174675221D01*
X191284018Y-174664586D01*
X191247913Y-174661030D01*
X191211808Y-174664586D01*
X177212413Y-174664586D01*
X177368366Y-174431187D01*
X177601300Y-173868834D01*
X177720049Y-173271843D01*
X177720049Y-172663157D01*
X177601300Y-172066166D01*
X177368366Y-171503813D01*
X177221883Y-171284586D01*
X191211808Y-171284586D01*
X191247913Y-171288142D01*
X191284018Y-171284586D01*
X191391998Y-171273951D01*
X191530546Y-171231923D01*
X191658233Y-171163673D01*
X191770151Y-171071824D01*
X191862000Y-170959906D01*
X191930250Y-170832219D01*
X191972278Y-170693671D01*
X191986469Y-170549586D01*
X191982913Y-170513481D01*
X191982913Y-156385691D01*
X191986469Y-156349586D01*
X195359357Y-156349586D01*
X195362913Y-156385691D01*
X195362914Y-170513471D01*
X195359357Y-170549586D01*
X195373548Y-170693671D01*
X195415576Y-170832219D01*
X195483826Y-170959906D01*
X195575675Y-171071824D01*
X195687593Y-171163673D01*
X195815280Y-171231923D01*
X195953828Y-171273951D01*
X196061808Y-171284586D01*
X196097913Y-171288142D01*
X196134018Y-171284586D01*
X210261808Y-171284586D01*
X210297913Y-171288142D01*
X210334018Y-171284586D01*
X210441998Y-171273951D01*
X210580546Y-171231923D01*
X210708233Y-171163673D01*
X210820151Y-171071824D01*
X210912000Y-170959906D01*
X210980250Y-170832219D01*
X211022278Y-170693671D01*
X211036469Y-170549586D01*
X211032913Y-170513481D01*
X211032913Y-156385691D01*
X211036469Y-156349586D01*
X211022278Y-156205501D01*
X210980250Y-156066953D01*
X210912000Y-155939266D01*
X210820151Y-155827348D01*
X210708233Y-155735499D01*
X210580546Y-155667249D01*
X210441998Y-155625221D01*
X210334018Y-155614586D01*
X210297913Y-155611030D01*
X210261808Y-155614586D01*
X196134018Y-155614586D01*
X196097913Y-155611030D01*
X196061808Y-155614586D01*
X195953828Y-155625221D01*
X195815280Y-155667249D01*
X195687593Y-155735499D01*
X195575675Y-155827348D01*
X195483826Y-155939266D01*
X195415576Y-156066953D01*
X195373548Y-156205501D01*
X195359357Y-156349586D01*
X191986469Y-156349586D01*
X191972278Y-156205501D01*
X191930250Y-156066953D01*
X191862000Y-155939266D01*
X191770151Y-155827348D01*
X191658233Y-155735499D01*
X191530546Y-155667249D01*
X191391998Y-155625221D01*
X191284018Y-155614586D01*
X191247913Y-155611030D01*
X191211808Y-155614586D01*
X177084018Y-155614586D01*
X177047913Y-155611030D01*
X177011808Y-155614586D01*
X176903828Y-155625221D01*
X176765280Y-155667249D01*
X176637593Y-155735499D01*
X176525675Y-155827348D01*
X176433826Y-155939266D01*
X176365576Y-156066953D01*
X176323548Y-156205501D01*
X176309357Y-156349586D01*
X176312913Y-156385691D01*
X176312914Y-170375617D01*
X176093687Y-170229134D01*
X175531334Y-169996200D01*
X174934343Y-169877451D01*
X174325657Y-169877451D01*
X173728666Y-169996200D01*
X173166313Y-170229134D01*
X172932913Y-170385087D01*
X172932913Y-156385691D01*
X172936469Y-156349586D01*
X172922278Y-156205501D01*
X172880250Y-156066953D01*
X172812000Y-155939266D01*
X172720151Y-155827348D01*
X172608233Y-155735499D01*
X172480546Y-155667249D01*
X172341998Y-155625221D01*
X172234018Y-155614586D01*
X172197913Y-155611030D01*
X172161808Y-155614586D01*
X158034018Y-155614586D01*
X157997913Y-155611030D01*
X157961808Y-155614586D01*
X157853828Y-155625221D01*
X157715280Y-155667249D01*
X157587593Y-155735499D01*
X157475675Y-155827348D01*
X157383826Y-155939266D01*
X157315576Y-156066953D01*
X157273548Y-156205501D01*
X157259357Y-156349586D01*
X153886469Y-156349586D01*
X153872278Y-156205501D01*
X153830250Y-156066953D01*
X153762000Y-155939266D01*
X153670151Y-155827348D01*
X153558233Y-155735499D01*
X153430546Y-155667249D01*
X153291998Y-155625221D01*
X153184018Y-155614586D01*
X153147913Y-155611030D01*
X153111808Y-155614586D01*
X138984018Y-155614586D01*
X138947913Y-155611030D01*
X138911808Y-155614586D01*
X138803828Y-155625221D01*
X138665280Y-155667249D01*
X138537593Y-155735499D01*
X138425675Y-155827348D01*
X138333826Y-155939266D01*
X138265576Y-156066953D01*
X138223548Y-156205501D01*
X138209357Y-156349586D01*
X134836469Y-156349586D01*
X134822278Y-156205501D01*
X134780250Y-156066953D01*
X134712000Y-155939266D01*
X134620151Y-155827348D01*
X134508233Y-155735499D01*
X134380546Y-155667249D01*
X134241998Y-155625221D01*
X134134018Y-155614586D01*
X134097913Y-155611030D01*
X134061808Y-155614586D01*
X120077447Y-155614586D01*
X120218366Y-155403687D01*
X120451300Y-154841334D01*
X120570049Y-154244343D01*
X120570049Y-153635657D01*
X120451300Y-153038666D01*
X120218366Y-152476313D01*
X120056849Y-152234586D01*
X134061808Y-152234586D01*
X134097913Y-152238142D01*
X134134018Y-152234586D01*
X134241998Y-152223951D01*
X134380546Y-152181923D01*
X134508233Y-152113673D01*
X134620151Y-152021824D01*
X134712000Y-151909906D01*
X134780250Y-151782219D01*
X134822278Y-151643671D01*
X134836469Y-151499586D01*
X134832913Y-151463481D01*
X134832913Y-137335691D01*
X134836469Y-137299586D01*
X138209357Y-137299586D01*
X138212913Y-137335691D01*
X138212914Y-151463471D01*
X138209357Y-151499586D01*
X138223548Y-151643671D01*
X138265576Y-151782219D01*
X138333826Y-151909906D01*
X138425675Y-152021824D01*
X138537593Y-152113673D01*
X138665280Y-152181923D01*
X138803828Y-152223951D01*
X138911808Y-152234586D01*
X138947913Y-152238142D01*
X138984018Y-152234586D01*
X153111808Y-152234586D01*
X153147913Y-152238142D01*
X153184018Y-152234586D01*
X153291998Y-152223951D01*
X153430546Y-152181923D01*
X153558233Y-152113673D01*
X153670151Y-152021824D01*
X153762000Y-151909906D01*
X153830250Y-151782219D01*
X153872278Y-151643671D01*
X153886469Y-151499586D01*
X153882913Y-151463481D01*
X153882913Y-137335691D01*
X153886469Y-137299586D01*
X157259357Y-137299586D01*
X157262913Y-137335691D01*
X157262914Y-151463471D01*
X157259357Y-151499586D01*
X157273548Y-151643671D01*
X157315576Y-151782219D01*
X157383826Y-151909906D01*
X157475675Y-152021824D01*
X157587593Y-152113673D01*
X157715280Y-152181923D01*
X157853828Y-152223951D01*
X157961808Y-152234586D01*
X157997913Y-152238142D01*
X158034018Y-152234586D01*
X172161808Y-152234586D01*
X172197913Y-152238142D01*
X172234018Y-152234586D01*
X172341998Y-152223951D01*
X172480546Y-152181923D01*
X172608233Y-152113673D01*
X172720151Y-152021824D01*
X172812000Y-151909906D01*
X172880250Y-151782219D01*
X172922278Y-151643671D01*
X172936469Y-151499586D01*
X172932913Y-151463481D01*
X172932913Y-137335691D01*
X172936469Y-137299586D01*
X176309357Y-137299586D01*
X176312913Y-137335691D01*
X176312914Y-151463471D01*
X176309357Y-151499586D01*
X176323548Y-151643671D01*
X176365576Y-151782219D01*
X176433826Y-151909906D01*
X176525675Y-152021824D01*
X176637593Y-152113673D01*
X176765280Y-152181923D01*
X176903828Y-152223951D01*
X177011808Y-152234586D01*
X177047913Y-152238142D01*
X177084018Y-152234586D01*
X191211808Y-152234586D01*
X191247913Y-152238142D01*
X191284018Y-152234586D01*
X191391998Y-152223951D01*
X191530546Y-152181923D01*
X191658233Y-152113673D01*
X191770151Y-152021824D01*
X191862000Y-151909906D01*
X191930250Y-151782219D01*
X191972278Y-151643671D01*
X191986469Y-151499586D01*
X191982913Y-151463481D01*
X191982913Y-137335691D01*
X191986469Y-137299586D01*
X195359357Y-137299586D01*
X195362913Y-137335691D01*
X195362914Y-151463471D01*
X195359357Y-151499586D01*
X195373548Y-151643671D01*
X195415576Y-151782219D01*
X195483826Y-151909906D01*
X195575675Y-152021824D01*
X195687593Y-152113673D01*
X195815280Y-152181923D01*
X195953828Y-152223951D01*
X196061808Y-152234586D01*
X196097913Y-152238142D01*
X196134018Y-152234586D01*
X210261808Y-152234586D01*
X210297913Y-152238142D01*
X210334018Y-152234586D01*
X210441998Y-152223951D01*
X210580546Y-152181923D01*
X210708233Y-152113673D01*
X210820151Y-152021824D01*
X210912000Y-151909906D01*
X210980250Y-151782219D01*
X211022278Y-151643671D01*
X211036469Y-151499586D01*
X211032913Y-151463481D01*
X211032913Y-137335691D01*
X211036469Y-137299586D01*
X214409357Y-137299586D01*
X214412913Y-137335691D01*
X214412914Y-151463471D01*
X214409357Y-151499586D01*
X214423548Y-151643671D01*
X214465576Y-151782219D01*
X214533826Y-151909906D01*
X214625675Y-152021824D01*
X214737593Y-152113673D01*
X214865280Y-152181923D01*
X215003828Y-152223951D01*
X215111808Y-152234586D01*
X215147913Y-152238142D01*
X215184018Y-152234586D01*
X229230547Y-152234586D01*
X229041634Y-152517313D01*
X228808700Y-153079666D01*
X228689951Y-153676657D01*
X228689951Y-154285343D01*
X228808700Y-154882334D01*
X229041634Y-155444687D01*
X229155157Y-155614586D01*
X215184018Y-155614586D01*
X215147913Y-155611030D01*
X215111808Y-155614586D01*
X215003828Y-155625221D01*
X214865280Y-155667249D01*
X214737593Y-155735499D01*
X214625675Y-155827348D01*
X214533826Y-155939266D01*
X214465576Y-156066953D01*
X214423548Y-156205501D01*
X214409357Y-156349586D01*
X214412913Y-156385691D01*
X214412914Y-170513471D01*
X214409357Y-170549586D01*
X214423548Y-170693671D01*
X214465576Y-170832219D01*
X214533826Y-170959906D01*
X214625675Y-171071824D01*
X214737593Y-171163673D01*
X214865280Y-171231923D01*
X215003828Y-171273951D01*
X215111808Y-171284586D01*
X215147913Y-171288142D01*
X215184018Y-171284586D01*
X229311808Y-171284586D01*
X229347913Y-171288142D01*
X229384018Y-171284586D01*
X229491998Y-171273951D01*
X229630546Y-171231923D01*
X229758233Y-171163673D01*
X229870151Y-171071824D01*
X229962000Y-170959906D01*
X230030250Y-170832219D01*
X230072278Y-170693671D01*
X230086469Y-170549586D01*
X230082913Y-170513481D01*
X230082913Y-156563413D01*
X230316313Y-156719366D01*
X230878666Y-156952300D01*
X231475657Y-157071049D01*
X232084343Y-157071049D01*
X232681334Y-156952300D01*
X233243687Y-156719366D01*
X233462913Y-156572883D01*
X233462914Y-170513471D01*
X233459357Y-170549586D01*
X233473548Y-170693671D01*
X233515576Y-170832219D01*
X233583826Y-170959906D01*
X233675675Y-171071824D01*
X233787593Y-171163673D01*
X233915280Y-171231923D01*
X234053828Y-171273951D01*
X234161808Y-171284586D01*
X234197913Y-171288142D01*
X234234018Y-171284586D01*
X248361808Y-171284586D01*
X248397913Y-171288142D01*
X248434018Y-171284586D01*
X248541998Y-171273951D01*
X248680546Y-171231923D01*
X248808233Y-171163673D01*
X248920151Y-171071824D01*
X249012000Y-170959906D01*
X249080250Y-170832219D01*
X249122278Y-170693671D01*
X249136469Y-170549586D01*
X249132913Y-170513481D01*
X249132913Y-156385691D01*
X249136469Y-156349586D01*
X252509357Y-156349586D01*
X252512913Y-156385691D01*
X252512914Y-170513471D01*
X252509357Y-170549586D01*
X252523548Y-170693671D01*
X252565576Y-170832219D01*
X252633826Y-170959906D01*
X252725675Y-171071824D01*
X252837593Y-171163673D01*
X252965280Y-171231923D01*
X253103828Y-171273951D01*
X253211808Y-171284586D01*
X253247913Y-171288142D01*
X253284018Y-171284586D01*
X267330547Y-171284586D01*
X267141634Y-171567313D01*
X266908700Y-172129666D01*
X266789951Y-172726657D01*
X266789951Y-173335343D01*
X266908700Y-173932334D01*
X267141634Y-174494687D01*
X267255157Y-174664586D01*
X253284018Y-174664586D01*
X253247913Y-174661030D01*
X253211808Y-174664586D01*
X253103828Y-174675221D01*
X252965280Y-174717249D01*
X252837593Y-174785499D01*
X252725675Y-174877348D01*
X252633826Y-174989266D01*
X252565576Y-175116953D01*
X252523548Y-175255501D01*
X252509357Y-175399586D01*
X252512913Y-175435691D01*
X252512914Y-189563471D01*
X252509357Y-189599586D01*
X252523548Y-189743671D01*
X252565576Y-189882219D01*
X252633826Y-190009906D01*
X252725675Y-190121824D01*
X252837593Y-190213673D01*
X252965280Y-190281923D01*
X253103828Y-190323951D01*
X253211808Y-190334586D01*
X253247913Y-190338142D01*
X253284018Y-190334586D01*
X267411808Y-190334586D01*
X267447913Y-190338142D01*
X267484018Y-190334586D01*
X267591998Y-190323951D01*
X267730546Y-190281923D01*
X267858233Y-190213673D01*
X267970151Y-190121824D01*
X268062000Y-190009906D01*
X268130250Y-189882219D01*
X268172278Y-189743671D01*
X268186469Y-189599586D01*
X268182913Y-189563481D01*
X268182913Y-175613413D01*
X268416313Y-175769366D01*
X268978666Y-176002300D01*
X269575657Y-176121049D01*
X270184343Y-176121049D01*
X270781334Y-176002300D01*
X271343687Y-175769366D01*
X271562913Y-175622883D01*
X271562914Y-189563471D01*
X271559357Y-189599586D01*
X271573548Y-189743671D01*
X271615576Y-189882219D01*
X271683826Y-190009906D01*
X271775675Y-190121824D01*
X271887593Y-190213673D01*
X272015280Y-190281923D01*
X272153828Y-190323951D01*
X272261808Y-190334586D01*
X272297913Y-190338142D01*
X272334018Y-190334586D01*
X286461808Y-190334586D01*
X286497913Y-190338142D01*
X286534018Y-190334586D01*
X286641998Y-190323951D01*
X286780546Y-190281923D01*
X286908233Y-190213673D01*
X287020151Y-190121824D01*
X287112000Y-190009906D01*
X287180250Y-189882219D01*
X287222278Y-189743671D01*
X287236469Y-189599586D01*
X287232913Y-189563481D01*
X287232913Y-175435691D01*
X287236469Y-175399586D01*
X290609357Y-175399586D01*
X290612913Y-175435691D01*
X290612914Y-189563471D01*
X290609357Y-189599586D01*
X290623548Y-189743671D01*
X290665576Y-189882219D01*
X290733826Y-190009906D01*
X290825675Y-190121824D01*
X290937593Y-190213673D01*
X291065280Y-190281923D01*
X291203828Y-190323951D01*
X291311808Y-190334586D01*
X291347913Y-190338142D01*
X291384018Y-190334586D01*
X305388117Y-190334586D01*
X305241634Y-190553813D01*
X305008700Y-191116166D01*
X304889951Y-191713157D01*
X304889951Y-192321843D01*
X305008700Y-192918834D01*
X305241634Y-193481187D01*
X305397587Y-193714586D01*
X291384018Y-193714586D01*
X291347913Y-193711030D01*
X291311808Y-193714586D01*
X291203828Y-193725221D01*
X291065280Y-193767249D01*
X290937593Y-193835499D01*
X290825675Y-193927348D01*
X290733826Y-194039266D01*
X290665576Y-194166953D01*
X290623548Y-194305501D01*
X290609357Y-194449586D01*
X290612913Y-194485691D01*
X290612914Y-208613471D01*
X290609357Y-208649586D01*
X290623548Y-208793671D01*
X290665576Y-208932219D01*
X290733826Y-209059906D01*
X290825675Y-209171824D01*
X290937593Y-209263673D01*
X291065280Y-209331923D01*
X291203828Y-209373951D01*
X291311808Y-209384586D01*
X291347913Y-209388142D01*
X291384018Y-209384586D01*
X305511808Y-209384586D01*
X305547913Y-209388142D01*
X305584018Y-209384586D01*
X305691998Y-209373951D01*
X305830546Y-209331923D01*
X305958233Y-209263673D01*
X306070151Y-209171824D01*
X306162000Y-209059906D01*
X306230250Y-208932219D01*
X306272278Y-208793671D01*
X306286469Y-208649586D01*
X306282913Y-208613481D01*
X306282913Y-194599913D01*
X306516313Y-194755866D01*
X307078666Y-194988800D01*
X307675657Y-195107549D01*
X308284343Y-195107549D01*
X308881334Y-194988800D01*
X309443687Y-194755866D01*
X309662913Y-194609383D01*
X309662914Y-208613471D01*
X309659357Y-208649586D01*
X309673548Y-208793671D01*
X309715576Y-208932219D01*
X309783826Y-209059906D01*
X309875675Y-209171824D01*
X309987593Y-209263673D01*
X310115280Y-209331923D01*
X310253828Y-209373951D01*
X310361808Y-209384586D01*
X310397913Y-209388142D01*
X310434018Y-209384586D01*
X324561808Y-209384586D01*
X324597913Y-209388142D01*
X324634018Y-209384586D01*
X324741998Y-209373951D01*
X324880546Y-209331923D01*
X325008233Y-209263673D01*
X325120151Y-209171824D01*
X325212000Y-209059906D01*
X325280250Y-208932219D01*
X325322278Y-208793671D01*
X325336469Y-208649586D01*
X325332913Y-208613481D01*
X325332913Y-194485691D01*
X325336469Y-194449586D01*
X328709357Y-194449586D01*
X328712913Y-194485691D01*
X328712914Y-208613471D01*
X328709357Y-208649586D01*
X328723548Y-208793671D01*
X328765576Y-208932219D01*
X328833826Y-209059906D01*
X328925675Y-209171824D01*
X329037593Y-209263673D01*
X329165280Y-209331923D01*
X329303828Y-209373951D01*
X329411808Y-209384586D01*
X329447913Y-209388142D01*
X329484018Y-209384586D01*
X343488117Y-209384586D01*
X343341634Y-209603813D01*
X343108700Y-210166166D01*
X342989951Y-210763157D01*
X342989951Y-211371843D01*
X343108700Y-211968834D01*
X343341634Y-212531187D01*
X343497587Y-212764586D01*
X329484018Y-212764586D01*
X329447913Y-212761030D01*
X329411808Y-212764586D01*
X329303828Y-212775221D01*
X329165280Y-212817249D01*
X329037593Y-212885499D01*
X328925675Y-212977348D01*
X328833826Y-213089266D01*
X328765576Y-213216953D01*
X328723548Y-213355501D01*
X328709357Y-213499586D01*
X328712913Y-213535691D01*
X328712914Y-227663471D01*
X328709357Y-227699586D01*
X328723548Y-227843671D01*
X328765576Y-227982219D01*
X328833826Y-228109906D01*
X328925675Y-228221824D01*
X329037593Y-228313673D01*
X329165280Y-228381923D01*
X329303828Y-228423951D01*
X329411808Y-228434586D01*
X329447913Y-228438142D01*
X329484018Y-228434586D01*
X343611808Y-228434586D01*
X343647913Y-228438142D01*
X343684018Y-228434586D01*
X343791998Y-228423951D01*
X343930546Y-228381923D01*
X344058233Y-228313673D01*
X344170151Y-228221824D01*
X344262000Y-228109906D01*
X344330250Y-227982219D01*
X344372278Y-227843671D01*
X344386469Y-227699586D01*
X344382913Y-227663481D01*
X344382913Y-213649913D01*
X344616313Y-213805866D01*
X345178666Y-214038800D01*
X345775657Y-214157549D01*
X346384343Y-214157549D01*
X346981334Y-214038800D01*
X347543687Y-213805866D01*
X347762913Y-213659383D01*
X347762914Y-227663471D01*
X347759357Y-227699586D01*
X347773548Y-227843671D01*
X347815576Y-227982219D01*
X347883826Y-228109906D01*
X347975675Y-228221824D01*
X348087593Y-228313673D01*
X348215280Y-228381923D01*
X348353828Y-228423951D01*
X348461808Y-228434586D01*
X348497913Y-228438142D01*
X348534018Y-228434586D01*
X362661808Y-228434586D01*
X362697913Y-228438142D01*
X362734018Y-228434586D01*
X362841998Y-228423951D01*
X362980546Y-228381923D01*
X363108233Y-228313673D01*
X363220151Y-228221824D01*
X363312000Y-228109906D01*
X363380250Y-227982219D01*
X363422278Y-227843671D01*
X363436469Y-227699586D01*
X363432913Y-227663481D01*
X363432913Y-213535691D01*
X363436469Y-213499586D01*
X363422278Y-213355501D01*
X363380250Y-213216953D01*
X363312000Y-213089266D01*
X363220151Y-212977348D01*
X363108233Y-212885499D01*
X362980546Y-212817249D01*
X362841998Y-212775221D01*
X362734018Y-212764586D01*
X362697913Y-212761030D01*
X362661808Y-212764586D01*
X348662413Y-212764586D01*
X348818366Y-212531187D01*
X349051300Y-211968834D01*
X349170049Y-211371843D01*
X349170049Y-210763157D01*
X349051300Y-210166166D01*
X348818366Y-209603813D01*
X348671883Y-209384586D01*
X362661808Y-209384586D01*
X362697913Y-209388142D01*
X362734018Y-209384586D01*
X362841998Y-209373951D01*
X362980546Y-209331923D01*
X363108233Y-209263673D01*
X363220151Y-209171824D01*
X363312000Y-209059906D01*
X363380250Y-208932219D01*
X363422278Y-208793671D01*
X363436469Y-208649586D01*
X363432913Y-208613481D01*
X363432913Y-194485691D01*
X363436469Y-194449586D01*
X363422278Y-194305501D01*
X363380250Y-194166953D01*
X363312000Y-194039266D01*
X363220151Y-193927348D01*
X363108233Y-193835499D01*
X362980546Y-193767249D01*
X362841998Y-193725221D01*
X362734018Y-193714586D01*
X362697913Y-193711030D01*
X362661808Y-193714586D01*
X348534018Y-193714586D01*
X348497913Y-193711030D01*
X348461808Y-193714586D01*
X348353828Y-193725221D01*
X348215280Y-193767249D01*
X348087593Y-193835499D01*
X347975675Y-193927348D01*
X347883826Y-194039266D01*
X347815576Y-194166953D01*
X347773548Y-194305501D01*
X347759357Y-194449586D01*
X347762913Y-194485691D01*
X347762914Y-208475617D01*
X347543687Y-208329134D01*
X346981334Y-208096200D01*
X346384343Y-207977451D01*
X345775657Y-207977451D01*
X345178666Y-208096200D01*
X344616313Y-208329134D01*
X344382913Y-208485087D01*
X344382913Y-194485691D01*
X344386469Y-194449586D01*
X344372278Y-194305501D01*
X344330250Y-194166953D01*
X344262000Y-194039266D01*
X344170151Y-193927348D01*
X344058233Y-193835499D01*
X343930546Y-193767249D01*
X343791998Y-193725221D01*
X343684018Y-193714586D01*
X343647913Y-193711030D01*
X343611808Y-193714586D01*
X329484018Y-193714586D01*
X329447913Y-193711030D01*
X329411808Y-193714586D01*
X329303828Y-193725221D01*
X329165280Y-193767249D01*
X329037593Y-193835499D01*
X328925675Y-193927348D01*
X328833826Y-194039266D01*
X328765576Y-194166953D01*
X328723548Y-194305501D01*
X328709357Y-194449586D01*
X325336469Y-194449586D01*
X325322278Y-194305501D01*
X325280250Y-194166953D01*
X325212000Y-194039266D01*
X325120151Y-193927348D01*
X325008233Y-193835499D01*
X324880546Y-193767249D01*
X324741998Y-193725221D01*
X324634018Y-193714586D01*
X324597913Y-193711030D01*
X324561808Y-193714586D01*
X310562413Y-193714586D01*
X310718366Y-193481187D01*
X310951300Y-192918834D01*
X311070049Y-192321843D01*
X311070049Y-191713157D01*
X310951300Y-191116166D01*
X310718366Y-190553813D01*
X310571883Y-190334586D01*
X324561808Y-190334586D01*
X324597913Y-190338142D01*
X324634018Y-190334586D01*
X324741998Y-190323951D01*
X324880546Y-190281923D01*
X325008233Y-190213673D01*
X325120151Y-190121824D01*
X325212000Y-190009906D01*
X325280250Y-189882219D01*
X325322278Y-189743671D01*
X325336469Y-189599586D01*
X325332913Y-189563481D01*
X325332913Y-175435691D01*
X325336469Y-175399586D01*
X328709357Y-175399586D01*
X328712913Y-175435691D01*
X328712914Y-189563471D01*
X328709357Y-189599586D01*
X328723548Y-189743671D01*
X328765576Y-189882219D01*
X328833826Y-190009906D01*
X328925675Y-190121824D01*
X329037593Y-190213673D01*
X329165280Y-190281923D01*
X329303828Y-190323951D01*
X329411808Y-190334586D01*
X329447913Y-190338142D01*
X329484018Y-190334586D01*
X343611808Y-190334586D01*
X343647913Y-190338142D01*
X343684018Y-190334586D01*
X343791998Y-190323951D01*
X343930546Y-190281923D01*
X344058233Y-190213673D01*
X344170151Y-190121824D01*
X344262000Y-190009906D01*
X344330250Y-189882219D01*
X344372278Y-189743671D01*
X344386469Y-189599586D01*
X344382913Y-189563481D01*
X344382913Y-175435691D01*
X344386469Y-175399586D01*
X347759357Y-175399586D01*
X347762913Y-175435691D01*
X347762914Y-189563471D01*
X347759357Y-189599586D01*
X347773548Y-189743671D01*
X347815576Y-189882219D01*
X347883826Y-190009906D01*
X347975675Y-190121824D01*
X348087593Y-190213673D01*
X348215280Y-190281923D01*
X348353828Y-190323951D01*
X348461808Y-190334586D01*
X348497913Y-190338142D01*
X348534018Y-190334586D01*
X362661808Y-190334586D01*
X362697913Y-190338142D01*
X362734018Y-190334586D01*
X362841998Y-190323951D01*
X362980546Y-190281923D01*
X363108233Y-190213673D01*
X363220151Y-190121824D01*
X363312000Y-190009906D01*
X363380250Y-189882219D01*
X363422278Y-189743671D01*
X363436469Y-189599586D01*
X363432913Y-189563481D01*
X363432913Y-175435691D01*
X363436469Y-175399586D01*
X363422278Y-175255501D01*
X363380250Y-175116953D01*
X363312000Y-174989266D01*
X363220151Y-174877348D01*
X363108233Y-174785499D01*
X362980546Y-174717249D01*
X362841998Y-174675221D01*
X362734018Y-174664586D01*
X362697913Y-174661030D01*
X362661808Y-174664586D01*
X348534018Y-174664586D01*
X348497913Y-174661030D01*
X348461808Y-174664586D01*
X348353828Y-174675221D01*
X348215280Y-174717249D01*
X348087593Y-174785499D01*
X347975675Y-174877348D01*
X347883826Y-174989266D01*
X347815576Y-175116953D01*
X347773548Y-175255501D01*
X347759357Y-175399586D01*
X344386469Y-175399586D01*
X344372278Y-175255501D01*
X344330250Y-175116953D01*
X344262000Y-174989266D01*
X344170151Y-174877348D01*
X344058233Y-174785499D01*
X343930546Y-174717249D01*
X343791998Y-174675221D01*
X343684018Y-174664586D01*
X343647913Y-174661030D01*
X343611808Y-174664586D01*
X329484018Y-174664586D01*
X329447913Y-174661030D01*
X329411808Y-174664586D01*
X329303828Y-174675221D01*
X329165280Y-174717249D01*
X329037593Y-174785499D01*
X328925675Y-174877348D01*
X328833826Y-174989266D01*
X328765576Y-175116953D01*
X328723548Y-175255501D01*
X328709357Y-175399586D01*
X325336469Y-175399586D01*
X325322278Y-175255501D01*
X325280250Y-175116953D01*
X325212000Y-174989266D01*
X325120151Y-174877348D01*
X325008233Y-174785499D01*
X324880546Y-174717249D01*
X324741998Y-174675221D01*
X324634018Y-174664586D01*
X324597913Y-174661030D01*
X324561808Y-174664586D01*
X310434018Y-174664586D01*
X310397913Y-174661030D01*
X310361808Y-174664586D01*
X310253828Y-174675221D01*
X310115280Y-174717249D01*
X309987593Y-174785499D01*
X309875675Y-174877348D01*
X309783826Y-174989266D01*
X309715576Y-175116953D01*
X309673548Y-175255501D01*
X309659357Y-175399586D01*
X309662913Y-175435691D01*
X309662914Y-189425617D01*
X309443687Y-189279134D01*
X308881334Y-189046200D01*
X308284343Y-188927451D01*
X307675657Y-188927451D01*
X307078666Y-189046200D01*
X306516313Y-189279134D01*
X306282913Y-189435087D01*
X306282913Y-175435691D01*
X306286469Y-175399586D01*
X306272278Y-175255501D01*
X306230250Y-175116953D01*
X306162000Y-174989266D01*
X306070151Y-174877348D01*
X305958233Y-174785499D01*
X305830546Y-174717249D01*
X305691998Y-174675221D01*
X305584018Y-174664586D01*
X305547913Y-174661030D01*
X305511808Y-174664586D01*
X291384018Y-174664586D01*
X291347913Y-174661030D01*
X291311808Y-174664586D01*
X291203828Y-174675221D01*
X291065280Y-174717249D01*
X290937593Y-174785499D01*
X290825675Y-174877348D01*
X290733826Y-174989266D01*
X290665576Y-175116953D01*
X290623548Y-175255501D01*
X290609357Y-175399586D01*
X287236469Y-175399586D01*
X287222278Y-175255501D01*
X287180250Y-175116953D01*
X287112000Y-174989266D01*
X287020151Y-174877348D01*
X286908233Y-174785499D01*
X286780546Y-174717249D01*
X286641998Y-174675221D01*
X286534018Y-174664586D01*
X286497913Y-174661030D01*
X286461808Y-174664586D01*
X272504843Y-174664586D01*
X272618366Y-174494687D01*
X272851300Y-173932334D01*
X272970049Y-173335343D01*
X272970049Y-172726657D01*
X272851300Y-172129666D01*
X272618366Y-171567313D01*
X272429453Y-171284586D01*
X286461808Y-171284586D01*
X286497913Y-171288142D01*
X286534018Y-171284586D01*
X286641998Y-171273951D01*
X286780546Y-171231923D01*
X286908233Y-171163673D01*
X287020151Y-171071824D01*
X287112000Y-170959906D01*
X287180250Y-170832219D01*
X287222278Y-170693671D01*
X287236469Y-170549586D01*
X287232913Y-170513481D01*
X287232913Y-156385691D01*
X287236469Y-156349586D01*
X290609357Y-156349586D01*
X290612913Y-156385691D01*
X290612914Y-170513471D01*
X290609357Y-170549586D01*
X290623548Y-170693671D01*
X290665576Y-170832219D01*
X290733826Y-170959906D01*
X290825675Y-171071824D01*
X290937593Y-171163673D01*
X291065280Y-171231923D01*
X291203828Y-171273951D01*
X291311808Y-171284586D01*
X291347913Y-171288142D01*
X291384018Y-171284586D01*
X305511808Y-171284586D01*
X305547913Y-171288142D01*
X305584018Y-171284586D01*
X305691998Y-171273951D01*
X305830546Y-171231923D01*
X305958233Y-171163673D01*
X306070151Y-171071824D01*
X306162000Y-170959906D01*
X306230250Y-170832219D01*
X306272278Y-170693671D01*
X306286469Y-170549586D01*
X306282913Y-170513481D01*
X306282913Y-156385691D01*
X306286469Y-156349586D01*
X306272278Y-156205501D01*
X306230250Y-156066953D01*
X306162000Y-155939266D01*
X306070151Y-155827348D01*
X305958233Y-155735499D01*
X305830546Y-155667249D01*
X305691998Y-155625221D01*
X305584018Y-155614586D01*
X305547913Y-155611030D01*
X305511808Y-155614586D01*
X291384018Y-155614586D01*
X291347913Y-155611030D01*
X291311808Y-155614586D01*
X291203828Y-155625221D01*
X291065280Y-155667249D01*
X290937593Y-155735499D01*
X290825675Y-155827348D01*
X290733826Y-155939266D01*
X290665576Y-156066953D01*
X290623548Y-156205501D01*
X290609357Y-156349586D01*
X287236469Y-156349586D01*
X287222278Y-156205501D01*
X287180250Y-156066953D01*
X287112000Y-155939266D01*
X287020151Y-155827348D01*
X286908233Y-155735499D01*
X286780546Y-155667249D01*
X286641998Y-155625221D01*
X286534018Y-155614586D01*
X286497913Y-155611030D01*
X286461808Y-155614586D01*
X272334018Y-155614586D01*
X272297913Y-155611030D01*
X272261808Y-155614586D01*
X272153828Y-155625221D01*
X272015280Y-155667249D01*
X271887593Y-155735499D01*
X271775675Y-155827348D01*
X271683826Y-155939266D01*
X271615576Y-156066953D01*
X271573548Y-156205501D01*
X271559357Y-156349586D01*
X271562913Y-156385691D01*
X271562914Y-170439117D01*
X271343687Y-170292634D01*
X270781334Y-170059700D01*
X270184343Y-169940951D01*
X269575657Y-169940951D01*
X268978666Y-170059700D01*
X268416313Y-170292634D01*
X268182913Y-170448587D01*
X268182913Y-156385691D01*
X268186469Y-156349586D01*
X268172278Y-156205501D01*
X268130250Y-156066953D01*
X268062000Y-155939266D01*
X267970151Y-155827348D01*
X267858233Y-155735499D01*
X267730546Y-155667249D01*
X267591998Y-155625221D01*
X267484018Y-155614586D01*
X267447913Y-155611030D01*
X267411808Y-155614586D01*
X253284018Y-155614586D01*
X253247913Y-155611030D01*
X253211808Y-155614586D01*
X253103828Y-155625221D01*
X252965280Y-155667249D01*
X252837593Y-155735499D01*
X252725675Y-155827348D01*
X252633826Y-155939266D01*
X252565576Y-156066953D01*
X252523548Y-156205501D01*
X252509357Y-156349586D01*
X249136469Y-156349586D01*
X249122278Y-156205501D01*
X249080250Y-156066953D01*
X249012000Y-155939266D01*
X248920151Y-155827348D01*
X248808233Y-155735499D01*
X248680546Y-155667249D01*
X248541998Y-155625221D01*
X248434018Y-155614586D01*
X248397913Y-155611030D01*
X248361808Y-155614586D01*
X234404843Y-155614586D01*
X234518366Y-155444687D01*
X234751300Y-154882334D01*
X234870049Y-154285343D01*
X234870049Y-153676657D01*
X234751300Y-153079666D01*
X234518366Y-152517313D01*
X234329453Y-152234586D01*
X248361808Y-152234586D01*
X248397913Y-152238142D01*
X248434018Y-152234586D01*
X248541998Y-152223951D01*
X248680546Y-152181923D01*
X248808233Y-152113673D01*
X248920151Y-152021824D01*
X249012000Y-151909906D01*
X249080250Y-151782219D01*
X249122278Y-151643671D01*
X249136469Y-151499586D01*
X249132913Y-151463481D01*
X249132913Y-137335691D01*
X249136469Y-137299586D01*
X252509357Y-137299586D01*
X252512913Y-137335691D01*
X252512914Y-151463471D01*
X252509357Y-151499586D01*
X252523548Y-151643671D01*
X252565576Y-151782219D01*
X252633826Y-151909906D01*
X252725675Y-152021824D01*
X252837593Y-152113673D01*
X252965280Y-152181923D01*
X253103828Y-152223951D01*
X253211808Y-152234586D01*
X253247913Y-152238142D01*
X253284018Y-152234586D01*
X267411808Y-152234586D01*
X267447913Y-152238142D01*
X267484018Y-152234586D01*
X267591998Y-152223951D01*
X267730546Y-152181923D01*
X267858233Y-152113673D01*
X267970151Y-152021824D01*
X268062000Y-151909906D01*
X268130250Y-151782219D01*
X268172278Y-151643671D01*
X268186469Y-151499586D01*
X268182913Y-151463481D01*
X268182913Y-137335691D01*
X268186469Y-137299586D01*
X271559357Y-137299586D01*
X271562913Y-137335691D01*
X271562914Y-151463471D01*
X271559357Y-151499586D01*
X271573548Y-151643671D01*
X271615576Y-151782219D01*
X271683826Y-151909906D01*
X271775675Y-152021824D01*
X271887593Y-152113673D01*
X272015280Y-152181923D01*
X272153828Y-152223951D01*
X272261808Y-152234586D01*
X272297913Y-152238142D01*
X272334018Y-152234586D01*
X286461808Y-152234586D01*
X286497913Y-152238142D01*
X286534018Y-152234586D01*
X286641998Y-152223951D01*
X286780546Y-152181923D01*
X286908233Y-152113673D01*
X287020151Y-152021824D01*
X287112000Y-151909906D01*
X287180250Y-151782219D01*
X287222278Y-151643671D01*
X287236469Y-151499586D01*
X287232913Y-151463481D01*
X287232913Y-137335691D01*
X287236469Y-137299586D01*
X290609357Y-137299586D01*
X290612913Y-137335691D01*
X290612914Y-151463471D01*
X290609357Y-151499586D01*
X290623548Y-151643671D01*
X290665576Y-151782219D01*
X290733826Y-151909906D01*
X290825675Y-152021824D01*
X290937593Y-152113673D01*
X291065280Y-152181923D01*
X291203828Y-152223951D01*
X291311808Y-152234586D01*
X291347913Y-152238142D01*
X291384018Y-152234586D01*
X305511808Y-152234586D01*
X305547913Y-152238142D01*
X305584018Y-152234586D01*
X305691998Y-152223951D01*
X305830546Y-152181923D01*
X305958233Y-152113673D01*
X306070151Y-152021824D01*
X306162000Y-151909906D01*
X306230250Y-151782219D01*
X306272278Y-151643671D01*
X306286469Y-151499586D01*
X306282913Y-151463481D01*
X306282913Y-137335691D01*
X306286469Y-137299586D01*
X309659357Y-137299586D01*
X309662913Y-137335691D01*
X309662914Y-151463471D01*
X309659357Y-151499586D01*
X309673548Y-151643671D01*
X309715576Y-151782219D01*
X309783826Y-151909906D01*
X309875675Y-152021824D01*
X309987593Y-152113673D01*
X310115280Y-152181923D01*
X310253828Y-152223951D01*
X310361808Y-152234586D01*
X310397913Y-152238142D01*
X310434018Y-152234586D01*
X324446470Y-152234586D01*
X324291634Y-152466313D01*
X324058700Y-153028666D01*
X323939951Y-153625657D01*
X323939951Y-154234343D01*
X324058700Y-154831334D01*
X324291634Y-155393687D01*
X324439234Y-155614586D01*
X310434018Y-155614586D01*
X310397913Y-155611030D01*
X310361808Y-155614586D01*
X310253828Y-155625221D01*
X310115280Y-155667249D01*
X309987593Y-155735499D01*
X309875675Y-155827348D01*
X309783826Y-155939266D01*
X309715576Y-156066953D01*
X309673548Y-156205501D01*
X309659357Y-156349586D01*
X309662913Y-156385691D01*
X309662914Y-170513471D01*
X309659357Y-170549586D01*
X309673548Y-170693671D01*
X309715576Y-170832219D01*
X309783826Y-170959906D01*
X309875675Y-171071824D01*
X309987593Y-171163673D01*
X310115280Y-171231923D01*
X310253828Y-171273951D01*
X310361808Y-171284586D01*
X310397913Y-171288142D01*
X310434018Y-171284586D01*
X324561808Y-171284586D01*
X324597913Y-171288142D01*
X324634018Y-171284586D01*
X324741998Y-171273951D01*
X324880546Y-171231923D01*
X325008233Y-171163673D01*
X325120151Y-171071824D01*
X325212000Y-170959906D01*
X325280250Y-170832219D01*
X325322278Y-170693671D01*
X325336469Y-170549586D01*
X325332913Y-170513481D01*
X325332913Y-156512413D01*
X325566313Y-156668366D01*
X326128666Y-156901300D01*
X326725657Y-157020049D01*
X327334343Y-157020049D01*
X327931334Y-156901300D01*
X328493687Y-156668366D01*
X328712913Y-156521883D01*
X328712914Y-170513471D01*
X328709357Y-170549586D01*
X328723548Y-170693671D01*
X328765576Y-170832219D01*
X328833826Y-170959906D01*
X328925675Y-171071824D01*
X329037593Y-171163673D01*
X329165280Y-171231923D01*
X329303828Y-171273951D01*
X329411808Y-171284586D01*
X329447913Y-171288142D01*
X329484018Y-171284586D01*
X343611808Y-171284586D01*
X343647913Y-171288142D01*
X343684018Y-171284586D01*
X343791998Y-171273951D01*
X343930546Y-171231923D01*
X344058233Y-171163673D01*
X344170151Y-171071824D01*
X344262000Y-170959906D01*
X344330250Y-170832219D01*
X344372278Y-170693671D01*
X344386469Y-170549586D01*
X344382913Y-170513481D01*
X344382913Y-156385691D01*
X344386469Y-156349586D01*
X347759357Y-156349586D01*
X347762913Y-156385691D01*
X347762914Y-170513471D01*
X347759357Y-170549586D01*
X347773548Y-170693671D01*
X347815576Y-170832219D01*
X347883826Y-170959906D01*
X347975675Y-171071824D01*
X348087593Y-171163673D01*
X348215280Y-171231923D01*
X348353828Y-171273951D01*
X348461808Y-171284586D01*
X348497913Y-171288142D01*
X348534018Y-171284586D01*
X362661808Y-171284586D01*
X362697913Y-171288142D01*
X362734018Y-171284586D01*
X362841998Y-171273951D01*
X362980546Y-171231923D01*
X363108233Y-171163673D01*
X363220151Y-171071824D01*
X363312000Y-170959906D01*
X363380250Y-170832219D01*
X363422278Y-170693671D01*
X363436469Y-170549586D01*
X363432913Y-170513481D01*
X363432913Y-156385691D01*
X363436469Y-156349586D01*
X363422278Y-156205501D01*
X363380250Y-156066953D01*
X363312000Y-155939266D01*
X363220151Y-155827348D01*
X363108233Y-155735499D01*
X362980546Y-155667249D01*
X362841998Y-155625221D01*
X362734018Y-155614586D01*
X362697913Y-155611030D01*
X362661808Y-155614586D01*
X348534018Y-155614586D01*
X348497913Y-155611030D01*
X348461808Y-155614586D01*
X348353828Y-155625221D01*
X348215280Y-155667249D01*
X348087593Y-155735499D01*
X347975675Y-155827348D01*
X347883826Y-155939266D01*
X347815576Y-156066953D01*
X347773548Y-156205501D01*
X347759357Y-156349586D01*
X344386469Y-156349586D01*
X344372278Y-156205501D01*
X344330250Y-156066953D01*
X344262000Y-155939266D01*
X344170151Y-155827348D01*
X344058233Y-155735499D01*
X343930546Y-155667249D01*
X343791998Y-155625221D01*
X343684018Y-155614586D01*
X343647913Y-155611030D01*
X343611808Y-155614586D01*
X329620766Y-155614586D01*
X329768366Y-155393687D01*
X330001300Y-154831334D01*
X330120049Y-154234343D01*
X330120049Y-153625657D01*
X330001300Y-153028666D01*
X329768366Y-152466313D01*
X329613530Y-152234586D01*
X343611808Y-152234586D01*
X343647913Y-152238142D01*
X343684018Y-152234586D01*
X343791998Y-152223951D01*
X343930546Y-152181923D01*
X344058233Y-152113673D01*
X344170151Y-152021824D01*
X344262000Y-151909906D01*
X344330250Y-151782219D01*
X344372278Y-151643671D01*
X344386469Y-151499586D01*
X344382913Y-151463481D01*
X344382913Y-137335691D01*
X344386469Y-137299586D01*
X347759357Y-137299586D01*
X347762913Y-137335691D01*
X347762914Y-151463471D01*
X347759357Y-151499586D01*
X347773548Y-151643671D01*
X347815576Y-151782219D01*
X347883826Y-151909906D01*
X347975675Y-152021824D01*
X348087593Y-152113673D01*
X348215280Y-152181923D01*
X348353828Y-152223951D01*
X348461808Y-152234586D01*
X348497913Y-152238142D01*
X348534018Y-152234586D01*
X362661808Y-152234586D01*
X362697913Y-152238142D01*
X362734018Y-152234586D01*
X362841998Y-152223951D01*
X362980546Y-152181923D01*
X363108233Y-152113673D01*
X363220151Y-152021824D01*
X363312000Y-151909906D01*
X363380250Y-151782219D01*
X363422278Y-151643671D01*
X363436469Y-151499586D01*
X363432913Y-151463481D01*
X363432913Y-137335691D01*
X363436469Y-137299586D01*
X363422278Y-137155501D01*
X363380250Y-137016953D01*
X363312000Y-136889266D01*
X363220151Y-136777348D01*
X363108233Y-136685499D01*
X362980546Y-136617249D01*
X362841998Y-136575221D01*
X362734018Y-136564586D01*
X362697913Y-136561030D01*
X362661808Y-136564586D01*
X348534018Y-136564586D01*
X348497913Y-136561030D01*
X348461808Y-136564586D01*
X348353828Y-136575221D01*
X348215280Y-136617249D01*
X348087593Y-136685499D01*
X347975675Y-136777348D01*
X347883826Y-136889266D01*
X347815576Y-137016953D01*
X347773548Y-137155501D01*
X347759357Y-137299586D01*
X344386469Y-137299586D01*
X344372278Y-137155501D01*
X344330250Y-137016953D01*
X344262000Y-136889266D01*
X344170151Y-136777348D01*
X344058233Y-136685499D01*
X343930546Y-136617249D01*
X343791998Y-136575221D01*
X343684018Y-136564586D01*
X343647913Y-136561030D01*
X343611808Y-136564586D01*
X329484018Y-136564586D01*
X329447913Y-136561030D01*
X329411808Y-136564586D01*
X329303828Y-136575221D01*
X329165280Y-136617249D01*
X329037593Y-136685499D01*
X328925675Y-136777348D01*
X328833826Y-136889266D01*
X328765576Y-137016953D01*
X328723548Y-137155501D01*
X328709357Y-137299586D01*
X328712913Y-137335691D01*
X328712914Y-151338117D01*
X328493687Y-151191634D01*
X327931334Y-150958700D01*
X327334343Y-150839951D01*
X326725657Y-150839951D01*
X326128666Y-150958700D01*
X325566313Y-151191634D01*
X325332913Y-151347587D01*
X325332913Y-137335691D01*
X325336469Y-137299586D01*
X325322278Y-137155501D01*
X325280250Y-137016953D01*
X325212000Y-136889266D01*
X325120151Y-136777348D01*
X325008233Y-136685499D01*
X324880546Y-136617249D01*
X324741998Y-136575221D01*
X324634018Y-136564586D01*
X324597913Y-136561030D01*
X324561808Y-136564586D01*
X310434018Y-136564586D01*
X310397913Y-136561030D01*
X310361808Y-136564586D01*
X310253828Y-136575221D01*
X310115280Y-136617249D01*
X309987593Y-136685499D01*
X309875675Y-136777348D01*
X309783826Y-136889266D01*
X309715576Y-137016953D01*
X309673548Y-137155501D01*
X309659357Y-137299586D01*
X306286469Y-137299586D01*
X306272278Y-137155501D01*
X306230250Y-137016953D01*
X306162000Y-136889266D01*
X306070151Y-136777348D01*
X305958233Y-136685499D01*
X305830546Y-136617249D01*
X305691998Y-136575221D01*
X305584018Y-136564586D01*
X305547913Y-136561030D01*
X305511808Y-136564586D01*
X291384018Y-136564586D01*
X291347913Y-136561030D01*
X291311808Y-136564586D01*
X291203828Y-136575221D01*
X291065280Y-136617249D01*
X290937593Y-136685499D01*
X290825675Y-136777348D01*
X290733826Y-136889266D01*
X290665576Y-137016953D01*
X290623548Y-137155501D01*
X290609357Y-137299586D01*
X287236469Y-137299586D01*
X287222278Y-137155501D01*
X287180250Y-137016953D01*
X287112000Y-136889266D01*
X287020151Y-136777348D01*
X286908233Y-136685499D01*
X286780546Y-136617249D01*
X286641998Y-136575221D01*
X286534018Y-136564586D01*
X286497913Y-136561030D01*
X286461808Y-136564586D01*
X272334018Y-136564586D01*
X272297913Y-136561030D01*
X272261808Y-136564586D01*
X272153828Y-136575221D01*
X272015280Y-136617249D01*
X271887593Y-136685499D01*
X271775675Y-136777348D01*
X271683826Y-136889266D01*
X271615576Y-137016953D01*
X271573548Y-137155501D01*
X271559357Y-137299586D01*
X268186469Y-137299586D01*
X268172278Y-137155501D01*
X268130250Y-137016953D01*
X268062000Y-136889266D01*
X267970151Y-136777348D01*
X267858233Y-136685499D01*
X267730546Y-136617249D01*
X267591998Y-136575221D01*
X267484018Y-136564586D01*
X267447913Y-136561030D01*
X267411808Y-136564586D01*
X253284018Y-136564586D01*
X253247913Y-136561030D01*
X253211808Y-136564586D01*
X253103828Y-136575221D01*
X252965280Y-136617249D01*
X252837593Y-136685499D01*
X252725675Y-136777348D01*
X252633826Y-136889266D01*
X252565576Y-137016953D01*
X252523548Y-137155501D01*
X252509357Y-137299586D01*
X249136469Y-137299586D01*
X249122278Y-137155501D01*
X249080250Y-137016953D01*
X249012000Y-136889266D01*
X248920151Y-136777348D01*
X248808233Y-136685499D01*
X248680546Y-136617249D01*
X248541998Y-136575221D01*
X248434018Y-136564586D01*
X248397913Y-136561030D01*
X248361808Y-136564586D01*
X234234018Y-136564586D01*
X234197913Y-136561030D01*
X234161808Y-136564586D01*
X234053828Y-136575221D01*
X233915280Y-136617249D01*
X233787593Y-136685499D01*
X233675675Y-136777348D01*
X233583826Y-136889266D01*
X233515576Y-137016953D01*
X233473548Y-137155501D01*
X233459357Y-137299586D01*
X233462913Y-137335691D01*
X233462914Y-151389117D01*
X233243687Y-151242634D01*
X232681334Y-151009700D01*
X232084343Y-150890951D01*
X231475657Y-150890951D01*
X230878666Y-151009700D01*
X230316313Y-151242634D01*
X230082913Y-151398587D01*
X230082913Y-137335691D01*
X230086469Y-137299586D01*
X230072278Y-137155501D01*
X230030250Y-137016953D01*
X229962000Y-136889266D01*
X229870151Y-136777348D01*
X229758233Y-136685499D01*
X229630546Y-136617249D01*
X229491998Y-136575221D01*
X229384018Y-136564586D01*
X229347913Y-136561030D01*
X229311808Y-136564586D01*
X215184018Y-136564586D01*
X215147913Y-136561030D01*
X215111808Y-136564586D01*
X215003828Y-136575221D01*
X214865280Y-136617249D01*
X214737593Y-136685499D01*
X214625675Y-136777348D01*
X214533826Y-136889266D01*
X214465576Y-137016953D01*
X214423548Y-137155501D01*
X214409357Y-137299586D01*
X211036469Y-137299586D01*
X211022278Y-137155501D01*
X210980250Y-137016953D01*
X210912000Y-136889266D01*
X210820151Y-136777348D01*
X210708233Y-136685499D01*
X210580546Y-136617249D01*
X210441998Y-136575221D01*
X210334018Y-136564586D01*
X210297913Y-136561030D01*
X210261808Y-136564586D01*
X196134018Y-136564586D01*
X196097913Y-136561030D01*
X196061808Y-136564586D01*
X195953828Y-136575221D01*
X195815280Y-136617249D01*
X195687593Y-136685499D01*
X195575675Y-136777348D01*
X195483826Y-136889266D01*
X195415576Y-137016953D01*
X195373548Y-137155501D01*
X195359357Y-137299586D01*
X191986469Y-137299586D01*
X191972278Y-137155501D01*
X191930250Y-137016953D01*
X191862000Y-136889266D01*
X191770151Y-136777348D01*
X191658233Y-136685499D01*
X191530546Y-136617249D01*
X191391998Y-136575221D01*
X191284018Y-136564586D01*
X191247913Y-136561030D01*
X191211808Y-136564586D01*
X177084018Y-136564586D01*
X177047913Y-136561030D01*
X177011808Y-136564586D01*
X176903828Y-136575221D01*
X176765280Y-136617249D01*
X176637593Y-136685499D01*
X176525675Y-136777348D01*
X176433826Y-136889266D01*
X176365576Y-137016953D01*
X176323548Y-137155501D01*
X176309357Y-137299586D01*
X172936469Y-137299586D01*
X172922278Y-137155501D01*
X172880250Y-137016953D01*
X172812000Y-136889266D01*
X172720151Y-136777348D01*
X172608233Y-136685499D01*
X172480546Y-136617249D01*
X172341998Y-136575221D01*
X172234018Y-136564586D01*
X172197913Y-136561030D01*
X172161808Y-136564586D01*
X158034018Y-136564586D01*
X157997913Y-136561030D01*
X157961808Y-136564586D01*
X157853828Y-136575221D01*
X157715280Y-136617249D01*
X157587593Y-136685499D01*
X157475675Y-136777348D01*
X157383826Y-136889266D01*
X157315576Y-137016953D01*
X157273548Y-137155501D01*
X157259357Y-137299586D01*
X153886469Y-137299586D01*
X153872278Y-137155501D01*
X153830250Y-137016953D01*
X153762000Y-136889266D01*
X153670151Y-136777348D01*
X153558233Y-136685499D01*
X153430546Y-136617249D01*
X153291998Y-136575221D01*
X153184018Y-136564586D01*
X153147913Y-136561030D01*
X153111808Y-136564586D01*
X138984018Y-136564586D01*
X138947913Y-136561030D01*
X138911808Y-136564586D01*
X138803828Y-136575221D01*
X138665280Y-136617249D01*
X138537593Y-136685499D01*
X138425675Y-136777348D01*
X138333826Y-136889266D01*
X138265576Y-137016953D01*
X138223548Y-137155501D01*
X138209357Y-137299586D01*
X134836469Y-137299586D01*
X134822278Y-137155501D01*
X134780250Y-137016953D01*
X134712000Y-136889266D01*
X134620151Y-136777348D01*
X134508233Y-136685499D01*
X134380546Y-136617249D01*
X134241998Y-136575221D01*
X134134018Y-136564586D01*
X134097913Y-136561030D01*
X134061808Y-136564586D01*
X119934018Y-136564586D01*
X119897913Y-136561030D01*
X119861808Y-136564586D01*
X119753828Y-136575221D01*
X119615280Y-136617249D01*
X119487593Y-136685499D01*
X119375675Y-136777348D01*
X119283826Y-136889266D01*
X119215576Y-137016953D01*
X119173548Y-137155501D01*
X119159357Y-137299586D01*
X119162913Y-137335691D01*
X119162914Y-151348117D01*
X118943687Y-151201634D01*
X118381334Y-150968700D01*
X117784343Y-150849951D01*
X117175657Y-150849951D01*
X116578666Y-150968700D01*
X116016313Y-151201634D01*
X115782913Y-151357587D01*
X115782913Y-137335691D01*
X115786469Y-137299586D01*
X115772278Y-137155501D01*
X115730250Y-137016953D01*
X115662000Y-136889266D01*
X115570151Y-136777348D01*
X115458233Y-136685499D01*
X115330546Y-136617249D01*
X115191998Y-136575221D01*
X115084018Y-136564586D01*
X115047913Y-136561030D01*
X115011808Y-136564586D01*
X100884018Y-136564586D01*
X100847913Y-136561030D01*
X100811808Y-136564586D01*
X100703828Y-136575221D01*
X100565280Y-136617249D01*
X100437593Y-136685499D01*
X100325675Y-136777348D01*
X100233826Y-136889266D01*
X100165576Y-137016953D01*
X100123548Y-137155501D01*
X100109357Y-137299586D01*
X96736469Y-137299586D01*
X96722278Y-137155501D01*
X96680250Y-137016953D01*
X96612000Y-136889266D01*
X96520151Y-136777348D01*
X96408233Y-136685499D01*
X96280546Y-136617249D01*
X96141998Y-136575221D01*
X96034018Y-136564586D01*
X95997913Y-136561030D01*
X95961808Y-136564586D01*
X81834018Y-136564586D01*
X81797913Y-136561030D01*
X81761808Y-136564586D01*
X81653828Y-136575221D01*
X81515280Y-136617249D01*
X81387593Y-136685499D01*
X81275675Y-136777348D01*
X81183826Y-136889266D01*
X81115576Y-137016953D01*
X81073548Y-137155501D01*
X81059357Y-137299586D01*
X69115000Y-137299586D01*
X69115000Y-131536675D01*
X77644913Y-131536675D01*
X77648167Y-131569716D01*
X77648020Y-131590789D01*
X77649021Y-131601002D01*
X77717992Y-132257243D01*
X77731394Y-132322532D01*
X77743870Y-132387937D01*
X77746836Y-132397762D01*
X77941959Y-133028107D01*
X77967780Y-133089533D01*
X77992728Y-133151284D01*
X77997544Y-133160341D01*
X77997546Y-133160346D01*
X77997548Y-133160349D01*
X78311387Y-133740787D01*
X78348643Y-133796021D01*
X78385115Y-133851758D01*
X78391601Y-133859711D01*
X78812207Y-134368140D01*
X78859494Y-134415098D01*
X78906084Y-134462675D01*
X78913991Y-134469217D01*
X79425341Y-134886268D01*
X79480872Y-134923163D01*
X79535795Y-134960770D01*
X79544822Y-134965652D01*
X80127439Y-135275437D01*
X80189066Y-135300838D01*
X80250257Y-135327065D01*
X80260061Y-135330100D01*
X80891753Y-135520822D01*
X80957129Y-135533767D01*
X81022262Y-135547612D01*
X81032466Y-135548685D01*
X81032468Y-135548685D01*
X81689173Y-135613078D01*
X81689176Y-135613078D01*
X81724794Y-135616586D01*
X362785205Y-135616586D01*
X362820709Y-135613089D01*
X362850525Y-135613216D01*
X362860735Y-135612188D01*
X363516786Y-135541427D01*
X363582061Y-135527842D01*
X363647409Y-135515192D01*
X363657226Y-135512200D01*
X364287037Y-135315358D01*
X364348428Y-135289354D01*
X364410074Y-135264252D01*
X364419122Y-135259410D01*
X364998706Y-134943986D01*
X365053863Y-134906563D01*
X365109475Y-134869955D01*
X365117410Y-134863448D01*
X365624689Y-134441457D01*
X365671535Y-134394025D01*
X365718969Y-134347320D01*
X365725489Y-134339396D01*
X366141142Y-133826909D01*
X366177877Y-133771291D01*
X366215342Y-133716254D01*
X366220194Y-133707222D01*
X366220199Y-133707214D01*
X366220202Y-133707206D01*
X366528393Y-133123754D01*
X366553618Y-133062078D01*
X366579687Y-133000793D01*
X366582695Y-132990982D01*
X366771692Y-132358772D01*
X366784452Y-132293393D01*
X366798126Y-132228191D01*
X366799171Y-132217982D01*
X366861683Y-131562032D01*
X366865087Y-131527475D01*
X366864999Y-107843893D01*
X366861746Y-107810862D01*
X366861893Y-107789780D01*
X366860892Y-107779566D01*
X366791913Y-107123276D01*
X366778506Y-107057962D01*
X366766034Y-106992584D01*
X366763069Y-106982759D01*
X366567930Y-106352368D01*
X366542092Y-106290901D01*
X366517159Y-106229190D01*
X366512342Y-106220129D01*
X366198474Y-105639645D01*
X366161222Y-105584417D01*
X366124746Y-105528675D01*
X366118260Y-105520722D01*
X365697621Y-105012257D01*
X365650315Y-104965280D01*
X365603743Y-104917722D01*
X365595836Y-104911180D01*
X365084447Y-104494101D01*
X365028928Y-104457214D01*
X364973993Y-104419600D01*
X364964966Y-104414718D01*
X364382305Y-104104912D01*
X364320692Y-104079517D01*
X364259486Y-104053284D01*
X364249683Y-104050249D01*
X363617944Y-103859515D01*
X363552554Y-103846568D01*
X363487434Y-103832726D01*
X363477230Y-103831653D01*
X363477228Y-103831653D01*
X362822669Y-103767473D01*
X362784855Y-103763749D01*
X81725145Y-103763749D01*
X81692104Y-103767003D01*
X81671030Y-103766856D01*
X81660816Y-103767857D01*
X81004526Y-103836836D01*
X80939212Y-103850243D01*
X80873834Y-103862715D01*
X80864009Y-103865680D01*
X80233618Y-104060819D01*
X80172155Y-104086656D01*
X80110441Y-104111590D01*
X80101384Y-104116405D01*
X80101379Y-104116407D01*
X80101375Y-104116410D01*
X79520894Y-104430274D01*
X79465655Y-104467534D01*
X79409924Y-104504003D01*
X79401971Y-104510489D01*
X78893506Y-104931128D01*
X78846529Y-104978434D01*
X78798971Y-105025006D01*
X78792429Y-105032913D01*
X78375350Y-105544302D01*
X78338463Y-105599821D01*
X78300849Y-105654756D01*
X78295967Y-105663783D01*
X77986161Y-106246444D01*
X77960766Y-106308057D01*
X77934533Y-106369263D01*
X77931498Y-106379066D01*
X77740764Y-107010806D01*
X77727817Y-107076196D01*
X77713975Y-107141316D01*
X77712902Y-107151522D01*
X77648507Y-107808277D01*
X77644999Y-107843896D01*
X77645000Y-109431393D01*
X77644913Y-131536675D01*
X69115000Y-131536675D01*
X69115000Y-107899200D01*
X69192476Y-106491394D01*
X69420647Y-105120554D01*
X69797870Y-103783021D01*
X70319585Y-102494967D01*
X70979496Y-101271936D01*
X71769633Y-100128703D01*
X72660313Y-99102285D01*
X87915000Y-99102285D01*
X87915000Y-99857715D01*
X88062377Y-100598628D01*
X88351467Y-101296554D01*
X88771161Y-101924670D01*
X89305330Y-102458839D01*
X89933446Y-102878533D01*
X90631372Y-103167623D01*
X91372285Y-103315000D01*
X92127715Y-103315000D01*
X92868628Y-103167623D01*
X93566554Y-102878533D01*
X94194670Y-102458839D01*
X94728839Y-101924670D01*
X95148533Y-101296554D01*
X95437623Y-100598628D01*
X95585000Y-99857715D01*
X95585000Y-99102285D01*
X167925000Y-99102285D01*
X167925000Y-99857715D01*
X168072377Y-100598628D01*
X168361467Y-101296554D01*
X168781161Y-101924670D01*
X169315330Y-102458839D01*
X169943446Y-102878533D01*
X170641372Y-103167623D01*
X171382285Y-103315000D01*
X172137715Y-103315000D01*
X172878628Y-103167623D01*
X173576554Y-102878533D01*
X174204670Y-102458839D01*
X174738839Y-101924670D01*
X175158533Y-101296554D01*
X175447623Y-100598628D01*
X175595000Y-99857715D01*
X175595000Y-99122285D01*
X268915000Y-99122285D01*
X268915000Y-99877715D01*
X269062377Y-100618628D01*
X269351467Y-101316554D01*
X269771161Y-101944670D01*
X270305330Y-102478839D01*
X270933446Y-102898533D01*
X271631372Y-103187623D01*
X272372285Y-103335000D01*
X273127715Y-103335000D01*
X273868628Y-103187623D01*
X274566554Y-102898533D01*
X275194670Y-102478839D01*
X275728839Y-101944670D01*
X276148533Y-101316554D01*
X276437623Y-100618628D01*
X276585000Y-99877715D01*
X276585000Y-99122285D01*
X348915000Y-99122285D01*
X348915000Y-99877715D01*
X349062377Y-100618628D01*
X349351467Y-101316554D01*
X349771161Y-101944670D01*
X350305330Y-102478839D01*
X350933446Y-102898533D01*
X351631372Y-103187623D01*
X352372285Y-103335000D01*
X353127715Y-103335000D01*
X353868628Y-103187623D01*
X354566554Y-102898533D01*
X355194670Y-102478839D01*
X355728839Y-101944670D01*
X356148533Y-101316554D01*
X356437623Y-100618628D01*
X356585000Y-99877715D01*
X356585000Y-99122285D01*
X356437623Y-98381372D01*
X356148533Y-97683446D01*
X355728839Y-97055330D01*
X355194670Y-96521161D01*
X354566554Y-96101467D01*
X353868628Y-95812377D01*
X353127715Y-95665000D01*
X352372285Y-95665000D01*
X351631372Y-95812377D01*
X350933446Y-96101467D01*
X350305330Y-96521161D01*
X349771161Y-97055330D01*
X349351467Y-97683446D01*
X349062377Y-98381372D01*
X348915000Y-99122285D01*
X276585000Y-99122285D01*
X276437623Y-98381372D01*
X276148533Y-97683446D01*
X275728839Y-97055330D01*
X275194670Y-96521161D01*
X274566554Y-96101467D01*
X273868628Y-95812377D01*
X273127715Y-95665000D01*
X272372285Y-95665000D01*
X271631372Y-95812377D01*
X270933446Y-96101467D01*
X270305330Y-96521161D01*
X269771161Y-97055330D01*
X269351467Y-97683446D01*
X269062377Y-98381372D01*
X268915000Y-99122285D01*
X175595000Y-99122285D01*
X175595000Y-99102285D01*
X175447623Y-98361372D01*
X175158533Y-97663446D01*
X174738839Y-97035330D01*
X174204670Y-96501161D01*
X173576554Y-96081467D01*
X172878628Y-95792377D01*
X172137715Y-95645000D01*
X171382285Y-95645000D01*
X170641372Y-95792377D01*
X169943446Y-96081467D01*
X169315330Y-96501161D01*
X168781161Y-97035330D01*
X168361467Y-97663446D01*
X168072377Y-98361372D01*
X167925000Y-99102285D01*
X95585000Y-99102285D01*
X95437623Y-98361372D01*
X95148533Y-97663446D01*
X94728839Y-97035330D01*
X94194670Y-96501161D01*
X93566554Y-96081467D01*
X92868628Y-95792377D01*
X92127715Y-95645000D01*
X91372285Y-95645000D01*
X90631372Y-95792377D01*
X89933446Y-96081467D01*
X89305330Y-96501161D01*
X88771161Y-97035330D01*
X88351467Y-97663446D01*
X88062377Y-98361372D01*
X87915000Y-99102285D01*
X72660313Y-99102285D01*
X72680445Y-99079085D01*
X73700933Y-98135756D01*
X74818783Y-97310099D01*
X76020478Y-96612099D01*
X77291505Y-96050184D01*
X78616536Y-95631132D01*
X79979530Y-95360015D01*
X81378474Y-95238854D01*
X81767002Y-95232750D01*
X362728550Y-95232750D01*
X364136356Y-95310226D01*
G37*
X364136356Y-95310226D02*
X365507196Y-95538397D01*
X366844729Y-95915620D01*
X368132783Y-96437335D01*
X369355814Y-97097246D01*
X370499047Y-97887383D01*
X371548665Y-98798195D01*
X372491994Y-99818683D01*
X373317651Y-100936533D01*
X374015651Y-102138228D01*
X374577566Y-103409255D01*
X374996618Y-104734286D01*
X375267735Y-106097280D01*
X375388896Y-107496224D01*
X375395001Y-107884816D01*
X375395000Y-227715050D01*
X375317524Y-229122847D01*
X375089353Y-230493695D01*
X374712130Y-231831230D01*
X374190411Y-233119290D01*
X373530500Y-234342321D01*
X372740370Y-235485543D01*
X371829559Y-236535160D01*
X370809067Y-237478494D01*
X369691217Y-238304151D01*
X368489522Y-239002151D01*
X367218492Y-239564067D01*
X365893465Y-239983118D01*
X364530468Y-240254235D01*
X363131528Y-240375396D01*
X362742998Y-240381500D01*
X81781450Y-240381500D01*
X80373653Y-240304024D01*
X79002805Y-240075853D01*
X77665270Y-239698630D01*
X76377210Y-239176911D01*
X75154179Y-238517000D01*
X74010957Y-237726870D01*
X72961340Y-236816059D01*
X72018006Y-235795567D01*
X71971266Y-235732285D01*
X87925000Y-235732285D01*
X87925000Y-236487715D01*
X88072377Y-237228628D01*
X88361467Y-237926554D01*
X88781161Y-238554670D01*
X89315330Y-239088839D01*
X89943446Y-239508533D01*
X90641372Y-239797623D01*
X91382285Y-239945000D01*
X92137715Y-239945000D01*
X92878628Y-239797623D01*
X93576554Y-239508533D01*
X94204670Y-239088839D01*
X94738839Y-238554670D01*
X95158533Y-237926554D01*
X95447623Y-237228628D01*
X95595000Y-236487715D01*
X95595000Y-235742285D01*
X167935000Y-235742285D01*
X167935000Y-236497715D01*
X168082377Y-237238628D01*
X168371467Y-237936554D01*
X168791161Y-238564670D01*
X169325330Y-239098839D01*
X169953446Y-239518533D01*
X170651372Y-239807623D01*
X171392285Y-239955000D01*
X172147715Y-239955000D01*
X172888628Y-239807623D01*
X173586554Y-239518533D01*
X174214670Y-239098839D01*
X174748839Y-238564670D01*
X175168533Y-237936554D01*
X175457623Y-237238628D01*
X175605000Y-236497715D01*
X175605000Y-235752285D01*
X268915000Y-235752285D01*
X268915000Y-236507715D01*
X269062377Y-237248628D01*
X269351467Y-237946554D01*
X269771161Y-238574670D01*
X270305330Y-239108839D01*
X270933446Y-239528533D01*
X271631372Y-239817623D01*
X272372285Y-239965000D01*
X273127715Y-239965000D01*
X273868628Y-239817623D01*
X274566554Y-239528533D01*
X275194670Y-239108839D01*
X275728839Y-238574670D01*
X276148533Y-237946554D01*
X276437623Y-237248628D01*
X276585000Y-236507715D01*
X276585000Y-235752285D01*
X276581022Y-235732285D01*
X348905000Y-235732285D01*
X348905000Y-236487715D01*
X349052377Y-237228628D01*
X349341467Y-237926554D01*
X349761161Y-238554670D01*
X350295330Y-239088839D01*
X350923446Y-239508533D01*
X351621372Y-239797623D01*
X352362285Y-239945000D01*
X353117715Y-239945000D01*
X353858628Y-239797623D01*
X354556554Y-239508533D01*
X355184670Y-239088839D01*
X355718839Y-238554670D01*
X356138533Y-237926554D01*
X356427623Y-237228628D01*
X356575000Y-236487715D01*
X356575000Y-235732285D01*
X356427623Y-234991372D01*
X356138533Y-234293446D01*
X355718839Y-233665330D01*
X355184670Y-233131161D01*
X354556554Y-232711467D01*
X353858628Y-232422377D01*
X353117715Y-232275000D01*
X352362285Y-232275000D01*
X351621372Y-232422377D01*
X350923446Y-232711467D01*
X350295330Y-233131161D01*
X349761161Y-233665330D01*
X349341467Y-234293446D01*
X349052377Y-234991372D01*
X348905000Y-235732285D01*
X276581022Y-235732285D01*
X276437623Y-235011372D01*
X276148533Y-234313446D01*
X275728839Y-233685330D01*
X275194670Y-233151161D01*
X274566554Y-232731467D01*
X273868628Y-232442377D01*
X273127715Y-232295000D01*
X272372285Y-232295000D01*
X271631372Y-232442377D01*
X270933446Y-232731467D01*
X270305330Y-233151161D01*
X269771161Y-233685330D01*
X269351467Y-234313446D01*
X269062377Y-235011372D01*
X268915000Y-235752285D01*
X175605000Y-235752285D01*
X175605000Y-235742285D01*
X175457623Y-235001372D01*
X175168533Y-234303446D01*
X174748839Y-233675330D01*
X174214670Y-233141161D01*
X173586554Y-232721467D01*
X172888628Y-232432377D01*
X172147715Y-232285000D01*
X171392285Y-232285000D01*
X170651372Y-232432377D01*
X169953446Y-232721467D01*
X169325330Y-233141161D01*
X168791161Y-233675330D01*
X168371467Y-234303446D01*
X168082377Y-235001372D01*
X167935000Y-235742285D01*
X95595000Y-235742285D01*
X95595000Y-235732285D01*
X95447623Y-234991372D01*
X95158533Y-234293446D01*
X94738839Y-233665330D01*
X94204670Y-233131161D01*
X93576554Y-232711467D01*
X92878628Y-232422377D01*
X92137715Y-232275000D01*
X91382285Y-232275000D01*
X90641372Y-232422377D01*
X89943446Y-232711467D01*
X89315330Y-233131161D01*
X88781161Y-233665330D01*
X88361467Y-234293446D01*
X88072377Y-234991372D01*
X87925000Y-235732285D01*
X71971266Y-235732285D01*
X71192349Y-234677717D01*
X70494349Y-233476022D01*
X69932433Y-232204992D01*
X69513382Y-230879965D01*
X69242265Y-229516968D01*
X69121104Y-228118028D01*
X69115000Y-227729498D01*
X69115000Y-194449586D01*
X81059357Y-194449586D01*
X81062913Y-194485691D01*
X81062914Y-208613471D01*
X81059357Y-208649586D01*
X81073548Y-208793671D01*
X81115576Y-208932219D01*
X81183826Y-209059906D01*
X81275675Y-209171824D01*
X81387593Y-209263673D01*
X81515280Y-209331923D01*
X81653828Y-209373951D01*
X81761808Y-209384586D01*
X81797913Y-209388142D01*
X81834018Y-209384586D01*
X95838117Y-209384586D01*
X95691634Y-209603813D01*
X95458700Y-210166166D01*
X95339951Y-210763157D01*
X95339951Y-211371843D01*
X95458700Y-211968834D01*
X95691634Y-212531187D01*
X95847587Y-212764586D01*
X81834018Y-212764586D01*
X81797913Y-212761030D01*
X81761808Y-212764586D01*
X81653828Y-212775221D01*
X81515280Y-212817249D01*
X81387593Y-212885499D01*
X81275675Y-212977348D01*
X81183826Y-213089266D01*
X81115576Y-213216953D01*
X81073548Y-213355501D01*
X81059357Y-213499586D01*
X81062913Y-213535691D01*
X81062914Y-227663471D01*
X81059357Y-227699586D01*
X81073548Y-227843671D01*
X81115576Y-227982219D01*
X81183826Y-228109906D01*
X81275675Y-228221824D01*
X81387593Y-228313673D01*
X81515280Y-228381923D01*
X81653828Y-228423951D01*
X81761808Y-228434586D01*
X81797913Y-228438142D01*
X81834018Y-228434586D01*
X95961808Y-228434586D01*
X95997913Y-228438142D01*
X96034018Y-228434586D01*
X96141998Y-228423951D01*
X96280546Y-228381923D01*
X96408233Y-228313673D01*
X96520151Y-228221824D01*
X96612000Y-228109906D01*
X96680250Y-227982219D01*
X96722278Y-227843671D01*
X96736469Y-227699586D01*
X96732913Y-227663481D01*
X96732913Y-213649913D01*
X96966313Y-213805866D01*
X97528666Y-214038800D01*
X98125657Y-214157549D01*
X98734343Y-214157549D01*
X99331334Y-214038800D01*
X99893687Y-213805866D01*
X100112913Y-213659383D01*
X100112914Y-227663471D01*
X100109357Y-227699586D01*
X100123548Y-227843671D01*
X100165576Y-227982219D01*
X100233826Y-228109906D01*
X100325675Y-228221824D01*
X100437593Y-228313673D01*
X100565280Y-228381923D01*
X100703828Y-228423951D01*
X100811808Y-228434586D01*
X100847913Y-228438142D01*
X100884018Y-228434586D01*
X115011808Y-228434586D01*
X115047913Y-228438142D01*
X115084018Y-228434586D01*
X115191998Y-228423951D01*
X115330546Y-228381923D01*
X115458233Y-228313673D01*
X115570151Y-228221824D01*
X115662000Y-228109906D01*
X115730250Y-227982219D01*
X115772278Y-227843671D01*
X115786469Y-227699586D01*
X115782913Y-227663481D01*
X115782913Y-213535691D01*
X115786469Y-213499586D01*
X119159357Y-213499586D01*
X119162913Y-213535691D01*
X119162914Y-227663471D01*
X119159357Y-227699586D01*
X119173548Y-227843671D01*
X119215576Y-227982219D01*
X119283826Y-228109906D01*
X119375675Y-228221824D01*
X119487593Y-228313673D01*
X119615280Y-228381923D01*
X119753828Y-228423951D01*
X119861808Y-228434586D01*
X119897913Y-228438142D01*
X119934018Y-228434586D01*
X134061808Y-228434586D01*
X134097913Y-228438142D01*
X134134018Y-228434586D01*
X134241998Y-228423951D01*
X134380546Y-228381923D01*
X134508233Y-228313673D01*
X134620151Y-228221824D01*
X134712000Y-228109906D01*
X134780250Y-227982219D01*
X134822278Y-227843671D01*
X134836469Y-227699586D01*
X134832913Y-227663481D01*
X134832913Y-213535691D01*
X134836469Y-213499586D01*
X138209357Y-213499586D01*
X138212913Y-213535691D01*
X138212914Y-227663471D01*
X138209357Y-227699586D01*
X138223548Y-227843671D01*
X138265576Y-227982219D01*
X138333826Y-228109906D01*
X138425675Y-228221824D01*
X138537593Y-228313673D01*
X138665280Y-228381923D01*
X138803828Y-228423951D01*
X138911808Y-228434586D01*
X138947913Y-228438142D01*
X138984018Y-228434586D01*
X153111808Y-228434586D01*
X153147913Y-228438142D01*
X153184018Y-228434586D01*
X153291998Y-228423951D01*
X153430546Y-228381923D01*
X153558233Y-228313673D01*
X153670151Y-228221824D01*
X153762000Y-228109906D01*
X153830250Y-227982219D01*
X153872278Y-227843671D01*
X153886469Y-227699586D01*
X153882913Y-227663481D01*
X153882913Y-213535691D01*
X153886469Y-213499586D01*
X157259357Y-213499586D01*
X157262913Y-213535691D01*
X157262914Y-227663471D01*
X157259357Y-227699586D01*
X157273548Y-227843671D01*
X157315576Y-227982219D01*
X157383826Y-228109906D01*
X157475675Y-228221824D01*
X157587593Y-228313673D01*
X157715280Y-228381923D01*
X157853828Y-228423951D01*
X157961808Y-228434586D01*
X157997913Y-228438142D01*
X158034018Y-228434586D01*
X172161808Y-228434586D01*
X172197913Y-228438142D01*
X172234018Y-228434586D01*
X172341998Y-228423951D01*
X172480546Y-228381923D01*
X172608233Y-228313673D01*
X172720151Y-228221824D01*
X172812000Y-228109906D01*
X172880250Y-227982219D01*
X172922278Y-227843671D01*
X172936469Y-227699586D01*
X172932913Y-227663481D01*
X172932913Y-213535691D01*
X172936469Y-213499586D01*
X176309357Y-213499586D01*
X176312913Y-213535691D01*
X176312914Y-227663471D01*
X176309357Y-227699586D01*
X176323548Y-227843671D01*
X176365576Y-227982219D01*
X176433826Y-228109906D01*
X176525675Y-228221824D01*
X176637593Y-228313673D01*
X176765280Y-228381923D01*
X176903828Y-228423951D01*
X177011808Y-228434586D01*
X177047913Y-228438142D01*
X177084018Y-228434586D01*
X267411808Y-228434586D01*
X267447913Y-228438142D01*
X267484018Y-228434586D01*
X267591998Y-228423951D01*
X267730546Y-228381923D01*
X267858233Y-228313673D01*
X267970151Y-228221824D01*
X268062000Y-228109906D01*
X268130250Y-227982219D01*
X268172278Y-227843671D01*
X268186469Y-227699586D01*
X268182913Y-227663481D01*
X268182913Y-213535691D01*
X268186469Y-213499586D01*
X271559357Y-213499586D01*
X271562913Y-213535691D01*
X271562914Y-227663471D01*
X271559357Y-227699586D01*
X271573548Y-227843671D01*
X271615576Y-227982219D01*
X271683826Y-228109906D01*
X271775675Y-228221824D01*
X271887593Y-228313673D01*
X272015280Y-228381923D01*
X272153828Y-228423951D01*
X272261808Y-228434586D01*
X272297913Y-228438142D01*
X272334018Y-228434586D01*
X286461808Y-228434586D01*
X286497913Y-228438142D01*
X286534018Y-228434586D01*
X286641998Y-228423951D01*
X286780546Y-228381923D01*
X286908233Y-228313673D01*
X287020151Y-228221824D01*
X287112000Y-228109906D01*
X287180250Y-227982219D01*
X287222278Y-227843671D01*
X287236469Y-227699586D01*
X287232913Y-227663481D01*
X287232913Y-213535691D01*
X287236469Y-213499586D01*
X290609357Y-213499586D01*
X290612913Y-213535691D01*
X290612914Y-227663471D01*
X290609357Y-227699586D01*
X290623548Y-227843671D01*
X290665576Y-227982219D01*
X290733826Y-228109906D01*
X290825675Y-228221824D01*
X290937593Y-228313673D01*
X291065280Y-228381923D01*
X291203828Y-228423951D01*
X291311808Y-228434586D01*
X291347913Y-228438142D01*
X291384018Y-228434586D01*
X305511808Y-228434586D01*
X305547913Y-228438142D01*
X305584018Y-228434586D01*
X305691998Y-228423951D01*
X305830546Y-228381923D01*
X305958233Y-228313673D01*
X306070151Y-228221824D01*
X306162000Y-228109906D01*
X306230250Y-227982219D01*
X306272278Y-227843671D01*
X306286469Y-227699586D01*
X306282913Y-227663481D01*
X306282913Y-213535691D01*
X306286469Y-213499586D01*
X309659357Y-213499586D01*
X309662913Y-213535691D01*
X309662914Y-227663471D01*
X309659357Y-227699586D01*
X309673548Y-227843671D01*
X309715576Y-227982219D01*
X309783826Y-228109906D01*
X309875675Y-228221824D01*
X309987593Y-228313673D01*
X310115280Y-228381923D01*
X310253828Y-228423951D01*
X310361808Y-228434586D01*
X310397913Y-228438142D01*
X310434018Y-228434586D01*
X324561808Y-228434586D01*
X324597913Y-228438142D01*
X324634018Y-228434586D01*
X324741998Y-228423951D01*
X324880546Y-228381923D01*
X325008233Y-228313673D01*
X325120151Y-228221824D01*
X325212000Y-228109906D01*
X325280250Y-227982219D01*
X325322278Y-227843671D01*
X325336469Y-227699586D01*
X325332913Y-227663481D01*
X325332913Y-213535691D01*
X325336469Y-213499586D01*
X325322278Y-213355501D01*
X325280250Y-213216953D01*
X325212000Y-213089266D01*
X325120151Y-212977348D01*
X325008233Y-212885499D01*
X324880546Y-212817249D01*
X324741998Y-212775221D01*
X324634018Y-212764586D01*
X324597913Y-212761030D01*
X324561808Y-212764586D01*
X310434018Y-212764586D01*
X310397913Y-212761030D01*
X310361808Y-212764586D01*
X310253828Y-212775221D01*
X310115280Y-212817249D01*
X309987593Y-212885499D01*
X309875675Y-212977348D01*
X309783826Y-213089266D01*
X309715576Y-213216953D01*
X309673548Y-213355501D01*
X309659357Y-213499586D01*
X306286469Y-213499586D01*
X306272278Y-213355501D01*
X306230250Y-213216953D01*
X306162000Y-213089266D01*
X306070151Y-212977348D01*
X305958233Y-212885499D01*
X305830546Y-212817249D01*
X305691998Y-212775221D01*
X305584018Y-212764586D01*
X305547913Y-212761030D01*
X305511808Y-212764586D01*
X291384018Y-212764586D01*
X291347913Y-212761030D01*
X291311808Y-212764586D01*
X291203828Y-212775221D01*
X291065280Y-212817249D01*
X290937593Y-212885499D01*
X290825675Y-212977348D01*
X290733826Y-213089266D01*
X290665576Y-213216953D01*
X290623548Y-213355501D01*
X290609357Y-213499586D01*
X287236469Y-213499586D01*
X287222278Y-213355501D01*
X287180250Y-213216953D01*
X287112000Y-213089266D01*
X287020151Y-212977348D01*
X286908233Y-212885499D01*
X286780546Y-212817249D01*
X286641998Y-212775221D01*
X286534018Y-212764586D01*
X286497913Y-212761030D01*
X286461808Y-212764586D01*
X272334018Y-212764586D01*
X272297913Y-212761030D01*
X272261808Y-212764586D01*
X272153828Y-212775221D01*
X272015280Y-212817249D01*
X271887593Y-212885499D01*
X271775675Y-212977348D01*
X271683826Y-213089266D01*
X271615576Y-213216953D01*
X271573548Y-213355501D01*
X271559357Y-213499586D01*
X268186469Y-213499586D01*
X268172278Y-213355501D01*
X268130250Y-213216953D01*
X268062000Y-213089266D01*
X267970151Y-212977348D01*
X267858233Y-212885499D01*
X267730546Y-212817249D01*
X267591998Y-212775221D01*
X267484018Y-212764586D01*
X267447913Y-212761030D01*
X267411808Y-212764586D01*
X215312413Y-212764586D01*
X215468366Y-212531187D01*
X215701300Y-211968834D01*
X215820049Y-211371843D01*
X215820049Y-210763157D01*
X215701300Y-210166166D01*
X215468366Y-209603813D01*
X215321883Y-209384586D01*
X229311808Y-209384586D01*
X229347913Y-209388142D01*
X229384018Y-209384586D01*
X229491998Y-209373951D01*
X229630546Y-209331923D01*
X229758233Y-209263673D01*
X229870151Y-209171824D01*
X229962000Y-209059906D01*
X230030250Y-208932219D01*
X230072278Y-208793671D01*
X230086469Y-208649586D01*
X230082913Y-208613481D01*
X230082913Y-194485691D01*
X230086469Y-194449586D01*
X233459357Y-194449586D01*
X233462913Y-194485691D01*
X233462914Y-208613471D01*
X233459357Y-208649586D01*
X233473548Y-208793671D01*
X233515576Y-208932219D01*
X233583826Y-209059906D01*
X233675675Y-209171824D01*
X233787593Y-209263673D01*
X233915280Y-209331923D01*
X234053828Y-209373951D01*
X234161808Y-209384586D01*
X234197913Y-209388142D01*
X234234018Y-209384586D01*
X248361808Y-209384586D01*
X248397913Y-209388142D01*
X248434018Y-209384586D01*
X248541998Y-209373951D01*
X248680546Y-209331923D01*
X248808233Y-209263673D01*
X248920151Y-209171824D01*
X249012000Y-209059906D01*
X249080250Y-208932219D01*
X249122278Y-208793671D01*
X249136469Y-208649586D01*
X249132913Y-208613481D01*
X249132913Y-194485691D01*
X249136469Y-194449586D01*
X252509357Y-194449586D01*
X252512913Y-194485691D01*
X252512914Y-208613471D01*
X252509357Y-208649586D01*
X252523548Y-208793671D01*
X252565576Y-208932219D01*
X252633826Y-209059906D01*
X252725675Y-209171824D01*
X252837593Y-209263673D01*
X252965280Y-209331923D01*
X253103828Y-209373951D01*
X253211808Y-209384586D01*
X253247913Y-209388142D01*
X253284018Y-209384586D01*
X267411808Y-209384586D01*
X267447913Y-209388142D01*
X267484018Y-209384586D01*
X267591998Y-209373951D01*
X267730546Y-209331923D01*
X267858233Y-209263673D01*
X267970151Y-209171824D01*
X268062000Y-209059906D01*
X268130250Y-208932219D01*
X268172278Y-208793671D01*
X268186469Y-208649586D01*
X268182913Y-208613481D01*
X268182913Y-194485691D01*
X268186469Y-194449586D01*
X271559357Y-194449586D01*
X271562913Y-194485691D01*
X271562914Y-208613471D01*
X271559357Y-208649586D01*
X271573548Y-208793671D01*
X271615576Y-208932219D01*
X271683826Y-209059906D01*
X271775675Y-209171824D01*
X271887593Y-209263673D01*
X272015280Y-209331923D01*
X272153828Y-209373951D01*
X272261808Y-209384586D01*
X272297913Y-209388142D01*
X272334018Y-209384586D01*
X286461808Y-209384586D01*
X286497913Y-209388142D01*
X286534018Y-209384586D01*
X286641998Y-209373951D01*
X286780546Y-209331923D01*
X286908233Y-209263673D01*
X287020151Y-209171824D01*
X287112000Y-209059906D01*
X287180250Y-208932219D01*
X287222278Y-208793671D01*
X287236469Y-208649586D01*
X287232913Y-208613481D01*
X287232913Y-194485691D01*
X287236469Y-194449586D01*
X287222278Y-194305501D01*
X287180250Y-194166953D01*
X287112000Y-194039266D01*
X287020151Y-193927348D01*
X286908233Y-193835499D01*
X286780546Y-193767249D01*
X286641998Y-193725221D01*
X286534018Y-193714586D01*
X286497913Y-193711030D01*
X286461808Y-193714586D01*
X272334018Y-193714586D01*
X272297913Y-193711030D01*
X272261808Y-193714586D01*
X272153828Y-193725221D01*
X272015280Y-193767249D01*
X271887593Y-193835499D01*
X271775675Y-193927348D01*
X271683826Y-194039266D01*
X271615576Y-194166953D01*
X271573548Y-194305501D01*
X271559357Y-194449586D01*
X268186469Y-194449586D01*
X268172278Y-194305501D01*
X268130250Y-194166953D01*
X268062000Y-194039266D01*
X267970151Y-193927348D01*
X267858233Y-193835499D01*
X267730546Y-193767249D01*
X267591998Y-193725221D01*
X267484018Y-193714586D01*
X267447913Y-193711030D01*
X267411808Y-193714586D01*
X253284018Y-193714586D01*
X253247913Y-193711030D01*
X253211808Y-193714586D01*
X253103828Y-193725221D01*
X252965280Y-193767249D01*
X252837593Y-193835499D01*
X252725675Y-193927348D01*
X252633826Y-194039266D01*
X252565576Y-194166953D01*
X252523548Y-194305501D01*
X252509357Y-194449586D01*
X249136469Y-194449586D01*
X249122278Y-194305501D01*
X249080250Y-194166953D01*
X249012000Y-194039266D01*
X248920151Y-193927348D01*
X248808233Y-193835499D01*
X248680546Y-193767249D01*
X248541998Y-193725221D01*
X248434018Y-193714586D01*
X248397913Y-193711030D01*
X248361808Y-193714586D01*
X234234018Y-193714586D01*
X234197913Y-193711030D01*
X234161808Y-193714586D01*
X234053828Y-193725221D01*
X233915280Y-193767249D01*
X233787593Y-193835499D01*
X233675675Y-193927348D01*
X233583826Y-194039266D01*
X233515576Y-194166953D01*
X233473548Y-194305501D01*
X233459357Y-194449586D01*
X230086469Y-194449586D01*
X230072278Y-194305501D01*
X230030250Y-194166953D01*
X229962000Y-194039266D01*
X229870151Y-193927348D01*
X229758233Y-193835499D01*
X229630546Y-193767249D01*
X229491998Y-193725221D01*
X229384018Y-193714586D01*
X229347913Y-193711030D01*
X229311808Y-193714586D01*
X215184018Y-193714586D01*
X215147913Y-193711030D01*
X215111808Y-193714586D01*
X215003828Y-193725221D01*
X214865280Y-193767249D01*
X214737593Y-193835499D01*
X214625675Y-193927348D01*
X214533826Y-194039266D01*
X214465576Y-194166953D01*
X214423548Y-194305501D01*
X214409357Y-194449586D01*
X214412913Y-194485691D01*
X214412914Y-208475617D01*
X214193687Y-208329134D01*
X213631334Y-208096200D01*
X213034343Y-207977451D01*
X212425657Y-207977451D01*
X211828666Y-208096200D01*
X211266313Y-208329134D01*
X211032913Y-208485087D01*
X211032913Y-194485691D01*
X211036469Y-194449586D01*
X211022278Y-194305501D01*
X210980250Y-194166953D01*
X210912000Y-194039266D01*
X210820151Y-193927348D01*
X210708233Y-193835499D01*
X210580546Y-193767249D01*
X210441998Y-193725221D01*
X210334018Y-193714586D01*
X210297913Y-193711030D01*
X210261808Y-193714586D01*
X196134018Y-193714586D01*
X196097913Y-193711030D01*
X196061808Y-193714586D01*
X195953828Y-193725221D01*
X195815280Y-193767249D01*
X195687593Y-193835499D01*
X195575675Y-193927348D01*
X195483826Y-194039266D01*
X195415576Y-194166953D01*
X195373548Y-194305501D01*
X195359357Y-194449586D01*
X195362913Y-194485691D01*
X195362914Y-208613471D01*
X195359357Y-208649586D01*
X195373548Y-208793671D01*
X195415576Y-208932219D01*
X195483826Y-209059906D01*
X195575675Y-209171824D01*
X195687593Y-209263673D01*
X195815280Y-209331923D01*
X195953828Y-209373951D01*
X196061808Y-209384586D01*
X196097913Y-209388142D01*
X196134018Y-209384586D01*
X210138117Y-209384586D01*
X209991634Y-209603813D01*
X209758700Y-210166166D01*
X209639951Y-210763157D01*
X209639951Y-211371843D01*
X209758700Y-211968834D01*
X209991634Y-212531187D01*
X210147587Y-212764586D01*
X177084018Y-212764586D01*
X177047913Y-212761030D01*
X177011808Y-212764586D01*
X176903828Y-212775221D01*
X176765280Y-212817249D01*
X176637593Y-212885499D01*
X176525675Y-212977348D01*
X176433826Y-213089266D01*
X176365576Y-213216953D01*
X176323548Y-213355501D01*
X176309357Y-213499586D01*
X172936469Y-213499586D01*
X172922278Y-213355501D01*
X172880250Y-213216953D01*
X172812000Y-213089266D01*
X172720151Y-212977348D01*
X172608233Y-212885499D01*
X172480546Y-212817249D01*
X172341998Y-212775221D01*
X172234018Y-212764586D01*
X172197913Y-212761030D01*
X172161808Y-212764586D01*
X158034018Y-212764586D01*
X157997913Y-212761030D01*
X157961808Y-212764586D01*
X157853828Y-212775221D01*
X157715280Y-212817249D01*
X157587593Y-212885499D01*
X157475675Y-212977348D01*
X157383826Y-213089266D01*
X157315576Y-213216953D01*
X157273548Y-213355501D01*
X157259357Y-213499586D01*
X153886469Y-213499586D01*
X153872278Y-213355501D01*
X153830250Y-213216953D01*
X153762000Y-213089266D01*
X153670151Y-212977348D01*
X153558233Y-212885499D01*
X153430546Y-212817249D01*
X153291998Y-212775221D01*
X153184018Y-212764586D01*
X153147913Y-212761030D01*
X153111808Y-212764586D01*
X138984018Y-212764586D01*
X138947913Y-212761030D01*
X138911808Y-212764586D01*
X138803828Y-212775221D01*
X138665280Y-212817249D01*
X138537593Y-212885499D01*
X138425675Y-212977348D01*
X138333826Y-213089266D01*
X138265576Y-213216953D01*
X138223548Y-213355501D01*
X138209357Y-213499586D01*
X134836469Y-213499586D01*
X134822278Y-213355501D01*
X134780250Y-213216953D01*
X134712000Y-213089266D01*
X134620151Y-212977348D01*
X134508233Y-212885499D01*
X134380546Y-212817249D01*
X134241998Y-212775221D01*
X134134018Y-212764586D01*
X134097913Y-212761030D01*
X134061808Y-212764586D01*
X119934018Y-212764586D01*
X119897913Y-212761030D01*
X119861808Y-212764586D01*
X119753828Y-212775221D01*
X119615280Y-212817249D01*
X119487593Y-212885499D01*
X119375675Y-212977348D01*
X119283826Y-213089266D01*
X119215576Y-213216953D01*
X119173548Y-213355501D01*
X119159357Y-213499586D01*
X115786469Y-213499586D01*
X115772278Y-213355501D01*
X115730250Y-213216953D01*
X115662000Y-213089266D01*
X115570151Y-212977348D01*
X115458233Y-212885499D01*
X115330546Y-212817249D01*
X115191998Y-212775221D01*
X115084018Y-212764586D01*
X115047913Y-212761030D01*
X115011808Y-212764586D01*
X101012413Y-212764586D01*
X101168366Y-212531187D01*
X101401300Y-211968834D01*
X101520049Y-211371843D01*
X101520049Y-210763157D01*
X101401300Y-210166166D01*
X101168366Y-209603813D01*
X101021883Y-209384586D01*
X115011808Y-209384586D01*
X115047913Y-209388142D01*
X115084018Y-209384586D01*
X115191998Y-209373951D01*
X115330546Y-209331923D01*
X115458233Y-209263673D01*
X115570151Y-209171824D01*
X115662000Y-209059906D01*
X115730250Y-208932219D01*
X115772278Y-208793671D01*
X115786469Y-208649586D01*
X115782913Y-208613481D01*
X115782913Y-194485691D01*
X115786469Y-194449586D01*
X115772278Y-194305501D01*
X115730250Y-194166953D01*
X115662000Y-194039266D01*
X115570151Y-193927348D01*
X115458233Y-193835499D01*
X115330546Y-193767249D01*
X115191998Y-193725221D01*
X115084018Y-193714586D01*
X115047913Y-193711030D01*
X115011808Y-193714586D01*
X100884018Y-193714586D01*
X100847913Y-193711030D01*
X100811808Y-193714586D01*
X100703828Y-193725221D01*
X100565280Y-193767249D01*
X100437593Y-193835499D01*
X100325675Y-193927348D01*
X100233826Y-194039266D01*
X100165576Y-194166953D01*
X100123548Y-194305501D01*
X100109357Y-194449586D01*
X100112913Y-194485691D01*
X100112914Y-208475617D01*
X99893687Y-208329134D01*
X99331334Y-208096200D01*
X98734343Y-207977451D01*
X98125657Y-207977451D01*
X97528666Y-208096200D01*
X96966313Y-208329134D01*
X96732913Y-208485087D01*
X96732913Y-194485691D01*
X96736469Y-194449586D01*
X96722278Y-194305501D01*
X96680250Y-194166953D01*
X96612000Y-194039266D01*
X96520151Y-193927348D01*
X96408233Y-193835499D01*
X96280546Y-193767249D01*
X96141998Y-193725221D01*
X96034018Y-193714586D01*
X95997913Y-193711030D01*
X95961808Y-193714586D01*
X81834018Y-193714586D01*
X81797913Y-193711030D01*
X81761808Y-193714586D01*
X81653828Y-193725221D01*
X81515280Y-193767249D01*
X81387593Y-193835499D01*
X81275675Y-193927348D01*
X81183826Y-194039266D01*
X81115576Y-194166953D01*
X81073548Y-194305501D01*
X81059357Y-194449586D01*
X69115000Y-194449586D01*
X69115000Y-175399586D01*
X81059357Y-175399586D01*
X81062913Y-175435691D01*
X81062914Y-189563471D01*
X81059357Y-189599586D01*
X81073548Y-189743671D01*
X81115576Y-189882219D01*
X81183826Y-190009906D01*
X81275675Y-190121824D01*
X81387593Y-190213673D01*
X81515280Y-190281923D01*
X81653828Y-190323951D01*
X81761808Y-190334586D01*
X81797913Y-190338142D01*
X81834018Y-190334586D01*
X95961808Y-190334586D01*
X95997913Y-190338142D01*
X96034018Y-190334586D01*
X96141998Y-190323951D01*
X96280546Y-190281923D01*
X96408233Y-190213673D01*
X96520151Y-190121824D01*
X96612000Y-190009906D01*
X96680250Y-189882219D01*
X96722278Y-189743671D01*
X96736469Y-189599586D01*
X96732913Y-189563481D01*
X96732913Y-175435691D01*
X96736469Y-175399586D01*
X100109357Y-175399586D01*
X100112913Y-175435691D01*
X100112914Y-189563471D01*
X100109357Y-189599586D01*
X100123548Y-189743671D01*
X100165576Y-189882219D01*
X100233826Y-190009906D01*
X100325675Y-190121824D01*
X100437593Y-190213673D01*
X100565280Y-190281923D01*
X100703828Y-190323951D01*
X100811808Y-190334586D01*
X100847913Y-190338142D01*
X100884018Y-190334586D01*
X115011808Y-190334586D01*
X115047913Y-190338142D01*
X115084018Y-190334586D01*
X115191998Y-190323951D01*
X115330546Y-190281923D01*
X115458233Y-190213673D01*
X115570151Y-190121824D01*
X115662000Y-190009906D01*
X115730250Y-189882219D01*
X115772278Y-189743671D01*
X115786469Y-189599586D01*
X115782913Y-189563481D01*
X115782913Y-175435691D01*
X115786469Y-175399586D01*
X119159357Y-175399586D01*
X119162913Y-175435691D01*
X119162914Y-189563471D01*
X119159357Y-189599586D01*
X119173548Y-189743671D01*
X119215576Y-189882219D01*
X119283826Y-190009906D01*
X119375675Y-190121824D01*
X119487593Y-190213673D01*
X119615280Y-190281923D01*
X119753828Y-190323951D01*
X119861808Y-190334586D01*
X119897913Y-190338142D01*
X119934018Y-190334586D01*
X133938117Y-190334586D01*
X133791634Y-190553813D01*
X133558700Y-191116166D01*
X133439951Y-191713157D01*
X133439951Y-192321843D01*
X133558700Y-192918834D01*
X133791634Y-193481187D01*
X133947587Y-193714586D01*
X119934018Y-193714586D01*
X119897913Y-193711030D01*
X119861808Y-193714586D01*
X119753828Y-193725221D01*
X119615280Y-193767249D01*
X119487593Y-193835499D01*
X119375675Y-193927348D01*
X119283826Y-194039266D01*
X119215576Y-194166953D01*
X119173548Y-194305501D01*
X119159357Y-194449586D01*
X119162913Y-194485691D01*
X119162914Y-208613471D01*
X119159357Y-208649586D01*
X119173548Y-208793671D01*
X119215576Y-208932219D01*
X119283826Y-209059906D01*
X119375675Y-209171824D01*
X119487593Y-209263673D01*
X119615280Y-209331923D01*
X119753828Y-209373951D01*
X119861808Y-209384586D01*
X119897913Y-209388142D01*
X119934018Y-209384586D01*
X134061808Y-209384586D01*
X134097913Y-209388142D01*
X134134018Y-209384586D01*
X134241998Y-209373951D01*
X134380546Y-209331923D01*
X134508233Y-209263673D01*
X134620151Y-209171824D01*
X134712000Y-209059906D01*
X134780250Y-208932219D01*
X134822278Y-208793671D01*
X134836469Y-208649586D01*
X134832913Y-208613481D01*
X134832913Y-194599913D01*
X135066313Y-194755866D01*
X135628666Y-194988800D01*
X136225657Y-195107549D01*
X136834343Y-195107549D01*
X137431334Y-194988800D01*
X137993687Y-194755866D01*
X138212913Y-194609383D01*
X138212914Y-208613471D01*
X138209357Y-208649586D01*
X138223548Y-208793671D01*
X138265576Y-208932219D01*
X138333826Y-209059906D01*
X138425675Y-209171824D01*
X138537593Y-209263673D01*
X138665280Y-209331923D01*
X138803828Y-209373951D01*
X138911808Y-209384586D01*
X138947913Y-209388142D01*
X138984018Y-209384586D01*
X153111808Y-209384586D01*
X153147913Y-209388142D01*
X153184018Y-209384586D01*
X153291998Y-209373951D01*
X153430546Y-209331923D01*
X153558233Y-209263673D01*
X153670151Y-209171824D01*
X153762000Y-209059906D01*
X153830250Y-208932219D01*
X153872278Y-208793671D01*
X153886469Y-208649586D01*
X153882913Y-208613481D01*
X153882913Y-194485691D01*
X153886469Y-194449586D01*
X157259357Y-194449586D01*
X157262913Y-194485691D01*
X157262914Y-208613471D01*
X157259357Y-208649586D01*
X157273548Y-208793671D01*
X157315576Y-208932219D01*
X157383826Y-209059906D01*
X157475675Y-209171824D01*
X157587593Y-209263673D01*
X157715280Y-209331923D01*
X157853828Y-209373951D01*
X157961808Y-209384586D01*
X157997913Y-209388142D01*
X158034018Y-209384586D01*
X172161808Y-209384586D01*
X172197913Y-209388142D01*
X172234018Y-209384586D01*
X172341998Y-209373951D01*
X172480546Y-209331923D01*
X172608233Y-209263673D01*
X172720151Y-209171824D01*
X172812000Y-209059906D01*
X172880250Y-208932219D01*
X172922278Y-208793671D01*
X172936469Y-208649586D01*
X172932913Y-208613481D01*
X172932913Y-194485691D01*
X172936469Y-194449586D01*
X176309357Y-194449586D01*
X176312913Y-194485691D01*
X176312914Y-208613471D01*
X176309357Y-208649586D01*
X176323548Y-208793671D01*
X176365576Y-208932219D01*
X176433826Y-209059906D01*
X176525675Y-209171824D01*
X176637593Y-209263673D01*
X176765280Y-209331923D01*
X176903828Y-209373951D01*
X177011808Y-209384586D01*
X177047913Y-209388142D01*
X177084018Y-209384586D01*
X191211808Y-209384586D01*
X191247913Y-209388142D01*
X191284018Y-209384586D01*
X191391998Y-209373951D01*
X191530546Y-209331923D01*
X191658233Y-209263673D01*
X191770151Y-209171824D01*
X191862000Y-209059906D01*
X191930250Y-208932219D01*
X191972278Y-208793671D01*
X191986469Y-208649586D01*
X191982913Y-208613481D01*
X191982913Y-194485691D01*
X191986469Y-194449586D01*
X191972278Y-194305501D01*
X191930250Y-194166953D01*
X191862000Y-194039266D01*
X191770151Y-193927348D01*
X191658233Y-193835499D01*
X191530546Y-193767249D01*
X191391998Y-193725221D01*
X191284018Y-193714586D01*
X191247913Y-193711030D01*
X191211808Y-193714586D01*
X177084018Y-193714586D01*
X177047913Y-193711030D01*
X177011808Y-193714586D01*
X176903828Y-193725221D01*
X176765280Y-193767249D01*
X176637593Y-193835499D01*
X176525675Y-193927348D01*
X176433826Y-194039266D01*
X176365576Y-194166953D01*
X176323548Y-194305501D01*
X176309357Y-194449586D01*
X172936469Y-194449586D01*
X172922278Y-194305501D01*
X172880250Y-194166953D01*
X172812000Y-194039266D01*
X172720151Y-193927348D01*
X172608233Y-193835499D01*
X172480546Y-193767249D01*
X172341998Y-193725221D01*
X172234018Y-193714586D01*
X172197913Y-193711030D01*
X172161808Y-193714586D01*
X158034018Y-193714586D01*
X157997913Y-193711030D01*
X157961808Y-193714586D01*
X157853828Y-193725221D01*
X157715280Y-193767249D01*
X157587593Y-193835499D01*
X157475675Y-193927348D01*
X157383826Y-194039266D01*
X157315576Y-194166953D01*
X157273548Y-194305501D01*
X157259357Y-194449586D01*
X153886469Y-194449586D01*
X153872278Y-194305501D01*
X153830250Y-194166953D01*
X153762000Y-194039266D01*
X153670151Y-193927348D01*
X153558233Y-193835499D01*
X153430546Y-193767249D01*
X153291998Y-193725221D01*
X153184018Y-193714586D01*
X153147913Y-193711030D01*
X153111808Y-193714586D01*
X139112413Y-193714586D01*
X139268366Y-193481187D01*
X139501300Y-192918834D01*
X139620049Y-192321843D01*
X139620049Y-191713157D01*
X139501300Y-191116166D01*
X139268366Y-190553813D01*
X139121883Y-190334586D01*
X153111808Y-190334586D01*
X153147913Y-190338142D01*
X153184018Y-190334586D01*
X153291998Y-190323951D01*
X153430546Y-190281923D01*
X153558233Y-190213673D01*
X153670151Y-190121824D01*
X153762000Y-190009906D01*
X153830250Y-189882219D01*
X153872278Y-189743671D01*
X153886469Y-189599586D01*
X153882913Y-189563481D01*
X153882913Y-175435691D01*
X153886469Y-175399586D01*
X153872278Y-175255501D01*
X153830250Y-175116953D01*
X153762000Y-174989266D01*
X153670151Y-174877348D01*
X153558233Y-174785499D01*
X153430546Y-174717249D01*
X153291998Y-174675221D01*
X153184018Y-174664586D01*
X153147913Y-174661030D01*
X153111808Y-174664586D01*
X138984018Y-174664586D01*
X138947913Y-174661030D01*
X138911808Y-174664586D01*
X138803828Y-174675221D01*
X138665280Y-174717249D01*
X138537593Y-174785499D01*
X138425675Y-174877348D01*
X138333826Y-174989266D01*
X138265576Y-175116953D01*
X138223548Y-175255501D01*
X138209357Y-175399586D01*
X138212913Y-175435691D01*
X138212914Y-189425617D01*
X137993687Y-189279134D01*
X137431334Y-189046200D01*
X136834343Y-188927451D01*
X136225657Y-188927451D01*
X135628666Y-189046200D01*
X135066313Y-189279134D01*
X134832913Y-189435087D01*
X134832913Y-175435691D01*
X134836469Y-175399586D01*
X134822278Y-175255501D01*
X134780250Y-175116953D01*
X134712000Y-174989266D01*
X134620151Y-174877348D01*
X134508233Y-174785499D01*
X134380546Y-174717249D01*
X134241998Y-174675221D01*
X134134018Y-174664586D01*
X134097913Y-174661030D01*
X134061808Y-174664586D01*
X119934018Y-174664586D01*
X119897913Y-174661030D01*
X119861808Y-174664586D01*
X119753828Y-174675221D01*
X119615280Y-174717249D01*
X119487593Y-174785499D01*
X119375675Y-174877348D01*
X119283826Y-174989266D01*
X119215576Y-175116953D01*
X119173548Y-175255501D01*
X119159357Y-175399586D01*
X115786469Y-175399586D01*
X115772278Y-175255501D01*
X115730250Y-175116953D01*
X115662000Y-174989266D01*
X115570151Y-174877348D01*
X115458233Y-174785499D01*
X115330546Y-174717249D01*
X115191998Y-174675221D01*
X115084018Y-174664586D01*
X115047913Y-174661030D01*
X115011808Y-174664586D01*
X100884018Y-174664586D01*
X100847913Y-174661030D01*
X100811808Y-174664586D01*
X100703828Y-174675221D01*
X100565280Y-174717249D01*
X100437593Y-174785499D01*
X100325675Y-174877348D01*
X100233826Y-174989266D01*
X100165576Y-175116953D01*
X100123548Y-175255501D01*
X100109357Y-175399586D01*
X96736469Y-175399586D01*
X96722278Y-175255501D01*
X96680250Y-175116953D01*
X96612000Y-174989266D01*
X96520151Y-174877348D01*
X96408233Y-174785499D01*
X96280546Y-174717249D01*
X96141998Y-174675221D01*
X96034018Y-174664586D01*
X95997913Y-174661030D01*
X95961808Y-174664586D01*
X81834018Y-174664586D01*
X81797913Y-174661030D01*
X81761808Y-174664586D01*
X81653828Y-174675221D01*
X81515280Y-174717249D01*
X81387593Y-174785499D01*
X81275675Y-174877348D01*
X81183826Y-174989266D01*
X81115576Y-175116953D01*
X81073548Y-175255501D01*
X81059357Y-175399586D01*
X69115000Y-175399586D01*
X69115000Y-156349586D01*
X81059357Y-156349586D01*
X81062913Y-156385691D01*
X81062914Y-170513471D01*
X81059357Y-170549586D01*
X81073548Y-170693671D01*
X81115576Y-170832219D01*
X81183826Y-170959906D01*
X81275675Y-171071824D01*
X81387593Y-171163673D01*
X81515280Y-171231923D01*
X81653828Y-171273951D01*
X81761808Y-171284586D01*
X81797913Y-171288142D01*
X81834018Y-171284586D01*
X95961808Y-171284586D01*
X95997913Y-171288142D01*
X96034018Y-171284586D01*
X96141998Y-171273951D01*
X96280546Y-171231923D01*
X96408233Y-171163673D01*
X96520151Y-171071824D01*
X96612000Y-170959906D01*
X96680250Y-170832219D01*
X96722278Y-170693671D01*
X96736469Y-170549586D01*
X96732913Y-170513481D01*
X96732913Y-156385691D01*
X96736469Y-156349586D01*
X96722278Y-156205501D01*
X96680250Y-156066953D01*
X96612000Y-155939266D01*
X96520151Y-155827348D01*
X96408233Y-155735499D01*
X96280546Y-155667249D01*
X96141998Y-155625221D01*
X96034018Y-155614586D01*
X95997913Y-155611030D01*
X95961808Y-155614586D01*
X81834018Y-155614586D01*
X81797913Y-155611030D01*
X81761808Y-155614586D01*
X81653828Y-155625221D01*
X81515280Y-155667249D01*
X81387593Y-155735499D01*
X81275675Y-155827348D01*
X81183826Y-155939266D01*
X81115576Y-156066953D01*
X81073548Y-156205501D01*
X81059357Y-156349586D01*
X69115000Y-156349586D01*
X69115000Y-137299586D01*
X81059357Y-137299586D01*
X81062913Y-137335691D01*
X81062914Y-151463471D01*
X81059357Y-151499586D01*
X81073548Y-151643671D01*
X81115576Y-151782219D01*
X81183826Y-151909906D01*
X81275675Y-152021824D01*
X81387593Y-152113673D01*
X81515280Y-152181923D01*
X81653828Y-152223951D01*
X81761808Y-152234586D01*
X81797913Y-152238142D01*
X81834018Y-152234586D01*
X95961808Y-152234586D01*
X95997913Y-152238142D01*
X96034018Y-152234586D01*
X96141998Y-152223951D01*
X96280546Y-152181923D01*
X96408233Y-152113673D01*
X96520151Y-152021824D01*
X96612000Y-151909906D01*
X96680250Y-151782219D01*
X96722278Y-151643671D01*
X96736469Y-151499586D01*
X96732913Y-151463481D01*
X96732913Y-137335691D01*
X96736469Y-137299586D01*
X100109357Y-137299586D01*
X100112913Y-137335691D01*
X100112914Y-151463471D01*
X100109357Y-151499586D01*
X100123548Y-151643671D01*
X100165576Y-151782219D01*
X100233826Y-151909906D01*
X100325675Y-152021824D01*
X100437593Y-152113673D01*
X100565280Y-152181923D01*
X100703828Y-152223951D01*
X100811808Y-152234586D01*
X100847913Y-152238142D01*
X100884018Y-152234586D01*
X114903151Y-152234586D01*
X114741634Y-152476313D01*
X114508700Y-153038666D01*
X114389951Y-153635657D01*
X114389951Y-154244343D01*
X114508700Y-154841334D01*
X114741634Y-155403687D01*
X114882553Y-155614586D01*
X100884018Y-155614586D01*
X100847913Y-155611030D01*
X100811808Y-155614586D01*
X100703828Y-155625221D01*
X100565280Y-155667249D01*
X100437593Y-155735499D01*
X100325675Y-155827348D01*
X100233826Y-155939266D01*
X100165576Y-156066953D01*
X100123548Y-156205501D01*
X100109357Y-156349586D01*
X100112913Y-156385691D01*
X100112914Y-170513471D01*
X100109357Y-170549586D01*
X100123548Y-170693671D01*
X100165576Y-170832219D01*
X100233826Y-170959906D01*
X100325675Y-171071824D01*
X100437593Y-171163673D01*
X100565280Y-171231923D01*
X100703828Y-171273951D01*
X100811808Y-171284586D01*
X100847913Y-171288142D01*
X100884018Y-171284586D01*
X115011808Y-171284586D01*
X115047913Y-171288142D01*
X115084018Y-171284586D01*
X115191998Y-171273951D01*
X115330546Y-171231923D01*
X115458233Y-171163673D01*
X115570151Y-171071824D01*
X115662000Y-170959906D01*
X115730250Y-170832219D01*
X115772278Y-170693671D01*
X115786469Y-170549586D01*
X115782913Y-170513481D01*
X115782913Y-156522413D01*
X116016313Y-156678366D01*
X116578666Y-156911300D01*
X117175657Y-157030049D01*
X117784343Y-157030049D01*
X118381334Y-156911300D01*
X118943687Y-156678366D01*
X119162913Y-156531883D01*
X119162914Y-170513471D01*
X119159357Y-170549586D01*
X119173548Y-170693671D01*
X119215576Y-170832219D01*
X119283826Y-170959906D01*
X119375675Y-171071824D01*
X119487593Y-171163673D01*
X119615280Y-171231923D01*
X119753828Y-171273951D01*
X119861808Y-171284586D01*
X119897913Y-171288142D01*
X119934018Y-171284586D01*
X134061808Y-171284586D01*
X134097913Y-171288142D01*
X134134018Y-171284586D01*
X134241998Y-171273951D01*
X134380546Y-171231923D01*
X134508233Y-171163673D01*
X134620151Y-171071824D01*
X134712000Y-170959906D01*
X134780250Y-170832219D01*
X134822278Y-170693671D01*
X134836469Y-170549586D01*
X134832913Y-170513481D01*
X134832913Y-156385691D01*
X134836469Y-156349586D01*
X138209357Y-156349586D01*
X138212913Y-156385691D01*
X138212914Y-170513471D01*
X138209357Y-170549586D01*
X138223548Y-170693671D01*
X138265576Y-170832219D01*
X138333826Y-170959906D01*
X138425675Y-171071824D01*
X138537593Y-171163673D01*
X138665280Y-171231923D01*
X138803828Y-171273951D01*
X138911808Y-171284586D01*
X138947913Y-171288142D01*
X138984018Y-171284586D01*
X153111808Y-171284586D01*
X153147913Y-171288142D01*
X153184018Y-171284586D01*
X153291998Y-171273951D01*
X153430546Y-171231923D01*
X153558233Y-171163673D01*
X153670151Y-171071824D01*
X153762000Y-170959906D01*
X153830250Y-170832219D01*
X153872278Y-170693671D01*
X153886469Y-170549586D01*
X153882913Y-170513481D01*
X153882913Y-156385691D01*
X153886469Y-156349586D01*
X157259357Y-156349586D01*
X157262913Y-156385691D01*
X157262914Y-170513471D01*
X157259357Y-170549586D01*
X157273548Y-170693671D01*
X157315576Y-170832219D01*
X157383826Y-170959906D01*
X157475675Y-171071824D01*
X157587593Y-171163673D01*
X157715280Y-171231923D01*
X157853828Y-171273951D01*
X157961808Y-171284586D01*
X157997913Y-171288142D01*
X158034018Y-171284586D01*
X172038117Y-171284586D01*
X171891634Y-171503813D01*
X171658700Y-172066166D01*
X171539951Y-172663157D01*
X171539951Y-173271843D01*
X171658700Y-173868834D01*
X171891634Y-174431187D01*
X172047587Y-174664586D01*
X158034018Y-174664586D01*
X157997913Y-174661030D01*
X157961808Y-174664586D01*
X157853828Y-174675221D01*
X157715280Y-174717249D01*
X157587593Y-174785499D01*
X157475675Y-174877348D01*
X157383826Y-174989266D01*
X157315576Y-175116953D01*
X157273548Y-175255501D01*
X157259357Y-175399586D01*
X157262913Y-175435691D01*
X157262914Y-189563471D01*
X157259357Y-189599586D01*
X157273548Y-189743671D01*
X157315576Y-189882219D01*
X157383826Y-190009906D01*
X157475675Y-190121824D01*
X157587593Y-190213673D01*
X157715280Y-190281923D01*
X157853828Y-190323951D01*
X157961808Y-190334586D01*
X157997913Y-190338142D01*
X158034018Y-190334586D01*
X172161808Y-190334586D01*
X172197913Y-190338142D01*
X172234018Y-190334586D01*
X172341998Y-190323951D01*
X172480546Y-190281923D01*
X172608233Y-190213673D01*
X172720151Y-190121824D01*
X172812000Y-190009906D01*
X172880250Y-189882219D01*
X172922278Y-189743671D01*
X172936469Y-189599586D01*
X172932913Y-189563481D01*
X172932913Y-175549913D01*
X173166313Y-175705866D01*
X173728666Y-175938800D01*
X174325657Y-176057549D01*
X174934343Y-176057549D01*
X175531334Y-175938800D01*
X176093687Y-175705866D01*
X176312913Y-175559383D01*
X176312914Y-189563471D01*
X176309357Y-189599586D01*
X176323548Y-189743671D01*
X176365576Y-189882219D01*
X176433826Y-190009906D01*
X176525675Y-190121824D01*
X176637593Y-190213673D01*
X176765280Y-190281923D01*
X176903828Y-190323951D01*
X177011808Y-190334586D01*
X177047913Y-190338142D01*
X177084018Y-190334586D01*
X191211808Y-190334586D01*
X191247913Y-190338142D01*
X191284018Y-190334586D01*
X191391998Y-190323951D01*
X191530546Y-190281923D01*
X191658233Y-190213673D01*
X191770151Y-190121824D01*
X191862000Y-190009906D01*
X191930250Y-189882219D01*
X191972278Y-189743671D01*
X191986469Y-189599586D01*
X191982913Y-189563481D01*
X191982913Y-175435691D01*
X191986469Y-175399586D01*
X195359357Y-175399586D01*
X195362913Y-175435691D01*
X195362914Y-189563471D01*
X195359357Y-189599586D01*
X195373548Y-189743671D01*
X195415576Y-189882219D01*
X195483826Y-190009906D01*
X195575675Y-190121824D01*
X195687593Y-190213673D01*
X195815280Y-190281923D01*
X195953828Y-190323951D01*
X196061808Y-190334586D01*
X196097913Y-190338142D01*
X196134018Y-190334586D01*
X210261808Y-190334586D01*
X210297913Y-190338142D01*
X210334018Y-190334586D01*
X210441998Y-190323951D01*
X210580546Y-190281923D01*
X210708233Y-190213673D01*
X210820151Y-190121824D01*
X210912000Y-190009906D01*
X210980250Y-189882219D01*
X211022278Y-189743671D01*
X211036469Y-189599586D01*
X211032913Y-189563481D01*
X211032913Y-175435691D01*
X211036469Y-175399586D01*
X214409357Y-175399586D01*
X214412913Y-175435691D01*
X214412914Y-189563471D01*
X214409357Y-189599586D01*
X214423548Y-189743671D01*
X214465576Y-189882219D01*
X214533826Y-190009906D01*
X214625675Y-190121824D01*
X214737593Y-190213673D01*
X214865280Y-190281923D01*
X215003828Y-190323951D01*
X215111808Y-190334586D01*
X215147913Y-190338142D01*
X215184018Y-190334586D01*
X229311808Y-190334586D01*
X229347913Y-190338142D01*
X229384018Y-190334586D01*
X229491998Y-190323951D01*
X229630546Y-190281923D01*
X229758233Y-190213673D01*
X229870151Y-190121824D01*
X229962000Y-190009906D01*
X230030250Y-189882219D01*
X230072278Y-189743671D01*
X230086469Y-189599586D01*
X230082913Y-189563481D01*
X230082913Y-175435691D01*
X230086469Y-175399586D01*
X233459357Y-175399586D01*
X233462913Y-175435691D01*
X233462914Y-189563471D01*
X233459357Y-189599586D01*
X233473548Y-189743671D01*
X233515576Y-189882219D01*
X233583826Y-190009906D01*
X233675675Y-190121824D01*
X233787593Y-190213673D01*
X233915280Y-190281923D01*
X234053828Y-190323951D01*
X234161808Y-190334586D01*
X234197913Y-190338142D01*
X234234018Y-190334586D01*
X248361808Y-190334586D01*
X248397913Y-190338142D01*
X248434018Y-190334586D01*
X248541998Y-190323951D01*
X248680546Y-190281923D01*
X248808233Y-190213673D01*
X248920151Y-190121824D01*
X249012000Y-190009906D01*
X249080250Y-189882219D01*
X249122278Y-189743671D01*
X249136469Y-189599586D01*
X249132913Y-189563481D01*
X249132913Y-175435691D01*
X249136469Y-175399586D01*
X249122278Y-175255501D01*
X249080250Y-175116953D01*
X249012000Y-174989266D01*
X248920151Y-174877348D01*
X248808233Y-174785499D01*
X248680546Y-174717249D01*
X248541998Y-174675221D01*
X248434018Y-174664586D01*
X248397913Y-174661030D01*
X248361808Y-174664586D01*
X234234018Y-174664586D01*
X234197913Y-174661030D01*
X234161808Y-174664586D01*
X234053828Y-174675221D01*
X233915280Y-174717249D01*
X233787593Y-174785499D01*
X233675675Y-174877348D01*
X233583826Y-174989266D01*
X233515576Y-175116953D01*
X233473548Y-175255501D01*
X233459357Y-175399586D01*
X230086469Y-175399586D01*
X230072278Y-175255501D01*
X230030250Y-175116953D01*
X229962000Y-174989266D01*
X229870151Y-174877348D01*
X229758233Y-174785499D01*
X229630546Y-174717249D01*
X229491998Y-174675221D01*
X229384018Y-174664586D01*
X229347913Y-174661030D01*
X229311808Y-174664586D01*
X215184018Y-174664586D01*
X215147913Y-174661030D01*
X215111808Y-174664586D01*
X215003828Y-174675221D01*
X214865280Y-174717249D01*
X214737593Y-174785499D01*
X214625675Y-174877348D01*
X214533826Y-174989266D01*
X214465576Y-175116953D01*
X214423548Y-175255501D01*
X214409357Y-175399586D01*
X211036469Y-175399586D01*
X211022278Y-175255501D01*
X210980250Y-175116953D01*
X210912000Y-174989266D01*
X210820151Y-174877348D01*
X210708233Y-174785499D01*
X210580546Y-174717249D01*
X210441998Y-174675221D01*
X210334018Y-174664586D01*
X210297913Y-174661030D01*
X210261808Y-174664586D01*
X196134018Y-174664586D01*
X196097913Y-174661030D01*
X196061808Y-174664586D01*
X195953828Y-174675221D01*
X195815280Y-174717249D01*
X195687593Y-174785499D01*
X195575675Y-174877348D01*
X195483826Y-174989266D01*
X195415576Y-175116953D01*
X195373548Y-175255501D01*
X195359357Y-175399586D01*
X191986469Y-175399586D01*
X191972278Y-175255501D01*
X191930250Y-175116953D01*
X191862000Y-174989266D01*
X191770151Y-174877348D01*
X191658233Y-174785499D01*
X191530546Y-174717249D01*
X191391998Y-174675221D01*
X191284018Y-174664586D01*
X191247913Y-174661030D01*
X191211808Y-174664586D01*
X177212413Y-174664586D01*
X177368366Y-174431187D01*
X177601300Y-173868834D01*
X177720049Y-173271843D01*
X177720049Y-172663157D01*
X177601300Y-172066166D01*
X177368366Y-171503813D01*
X177221883Y-171284586D01*
X191211808Y-171284586D01*
X191247913Y-171288142D01*
X191284018Y-171284586D01*
X191391998Y-171273951D01*
X191530546Y-171231923D01*
X191658233Y-171163673D01*
X191770151Y-171071824D01*
X191862000Y-170959906D01*
X191930250Y-170832219D01*
X191972278Y-170693671D01*
X191986469Y-170549586D01*
X191982913Y-170513481D01*
X191982913Y-156385691D01*
X191986469Y-156349586D01*
X195359357Y-156349586D01*
X195362913Y-156385691D01*
X195362914Y-170513471D01*
X195359357Y-170549586D01*
X195373548Y-170693671D01*
X195415576Y-170832219D01*
X195483826Y-170959906D01*
X195575675Y-171071824D01*
X195687593Y-171163673D01*
X195815280Y-171231923D01*
X195953828Y-171273951D01*
X196061808Y-171284586D01*
X196097913Y-171288142D01*
X196134018Y-171284586D01*
X210261808Y-171284586D01*
X210297913Y-171288142D01*
X210334018Y-171284586D01*
X210441998Y-171273951D01*
X210580546Y-171231923D01*
X210708233Y-171163673D01*
X210820151Y-171071824D01*
X210912000Y-170959906D01*
X210980250Y-170832219D01*
X211022278Y-170693671D01*
X211036469Y-170549586D01*
X211032913Y-170513481D01*
X211032913Y-156385691D01*
X211036469Y-156349586D01*
X211022278Y-156205501D01*
X210980250Y-156066953D01*
X210912000Y-155939266D01*
X210820151Y-155827348D01*
X210708233Y-155735499D01*
X210580546Y-155667249D01*
X210441998Y-155625221D01*
X210334018Y-155614586D01*
X210297913Y-155611030D01*
X210261808Y-155614586D01*
X196134018Y-155614586D01*
X196097913Y-155611030D01*
X196061808Y-155614586D01*
X195953828Y-155625221D01*
X195815280Y-155667249D01*
X195687593Y-155735499D01*
X195575675Y-155827348D01*
X195483826Y-155939266D01*
X195415576Y-156066953D01*
X195373548Y-156205501D01*
X195359357Y-156349586D01*
X191986469Y-156349586D01*
X191972278Y-156205501D01*
X191930250Y-156066953D01*
X191862000Y-155939266D01*
X191770151Y-155827348D01*
X191658233Y-155735499D01*
X191530546Y-155667249D01*
X191391998Y-155625221D01*
X191284018Y-155614586D01*
X191247913Y-155611030D01*
X191211808Y-155614586D01*
X177084018Y-155614586D01*
X177047913Y-155611030D01*
X177011808Y-155614586D01*
X176903828Y-155625221D01*
X176765280Y-155667249D01*
X176637593Y-155735499D01*
X176525675Y-155827348D01*
X176433826Y-155939266D01*
X176365576Y-156066953D01*
X176323548Y-156205501D01*
X176309357Y-156349586D01*
X176312913Y-156385691D01*
X176312914Y-170375617D01*
X176093687Y-170229134D01*
X175531334Y-169996200D01*
X174934343Y-169877451D01*
X174325657Y-169877451D01*
X173728666Y-169996200D01*
X173166313Y-170229134D01*
X172932913Y-170385087D01*
X172932913Y-156385691D01*
X172936469Y-156349586D01*
X172922278Y-156205501D01*
X172880250Y-156066953D01*
X172812000Y-155939266D01*
X172720151Y-155827348D01*
X172608233Y-155735499D01*
X172480546Y-155667249D01*
X172341998Y-155625221D01*
X172234018Y-155614586D01*
X172197913Y-155611030D01*
X172161808Y-155614586D01*
X158034018Y-155614586D01*
X157997913Y-155611030D01*
X157961808Y-155614586D01*
X157853828Y-155625221D01*
X157715280Y-155667249D01*
X157587593Y-155735499D01*
X157475675Y-155827348D01*
X157383826Y-155939266D01*
X157315576Y-156066953D01*
X157273548Y-156205501D01*
X157259357Y-156349586D01*
X153886469Y-156349586D01*
X153872278Y-156205501D01*
X153830250Y-156066953D01*
X153762000Y-155939266D01*
X153670151Y-155827348D01*
X153558233Y-155735499D01*
X153430546Y-155667249D01*
X153291998Y-155625221D01*
X153184018Y-155614586D01*
X153147913Y-155611030D01*
X153111808Y-155614586D01*
X138984018Y-155614586D01*
X138947913Y-155611030D01*
X138911808Y-155614586D01*
X138803828Y-155625221D01*
X138665280Y-155667249D01*
X138537593Y-155735499D01*
X138425675Y-155827348D01*
X138333826Y-155939266D01*
X138265576Y-156066953D01*
X138223548Y-156205501D01*
X138209357Y-156349586D01*
X134836469Y-156349586D01*
X134822278Y-156205501D01*
X134780250Y-156066953D01*
X134712000Y-155939266D01*
X134620151Y-155827348D01*
X134508233Y-155735499D01*
X134380546Y-155667249D01*
X134241998Y-155625221D01*
X134134018Y-155614586D01*
X134097913Y-155611030D01*
X134061808Y-155614586D01*
X120077447Y-155614586D01*
X120218366Y-155403687D01*
X120451300Y-154841334D01*
X120570049Y-154244343D01*
X120570049Y-153635657D01*
X120451300Y-153038666D01*
X120218366Y-152476313D01*
X120056849Y-152234586D01*
X134061808Y-152234586D01*
X134097913Y-152238142D01*
X134134018Y-152234586D01*
X134241998Y-152223951D01*
X134380546Y-152181923D01*
X134508233Y-152113673D01*
X134620151Y-152021824D01*
X134712000Y-151909906D01*
X134780250Y-151782219D01*
X134822278Y-151643671D01*
X134836469Y-151499586D01*
X134832913Y-151463481D01*
X134832913Y-137335691D01*
X134836469Y-137299586D01*
X138209357Y-137299586D01*
X138212913Y-137335691D01*
X138212914Y-151463471D01*
X138209357Y-151499586D01*
X138223548Y-151643671D01*
X138265576Y-151782219D01*
X138333826Y-151909906D01*
X138425675Y-152021824D01*
X138537593Y-152113673D01*
X138665280Y-152181923D01*
X138803828Y-152223951D01*
X138911808Y-152234586D01*
X138947913Y-152238142D01*
X138984018Y-152234586D01*
X153111808Y-152234586D01*
X153147913Y-152238142D01*
X153184018Y-152234586D01*
X153291998Y-152223951D01*
X153430546Y-152181923D01*
X153558233Y-152113673D01*
X153670151Y-152021824D01*
X153762000Y-151909906D01*
X153830250Y-151782219D01*
X153872278Y-151643671D01*
X153886469Y-151499586D01*
X153882913Y-151463481D01*
X153882913Y-137335691D01*
X153886469Y-137299586D01*
X157259357Y-137299586D01*
X157262913Y-137335691D01*
X157262914Y-151463471D01*
X157259357Y-151499586D01*
X157273548Y-151643671D01*
X157315576Y-151782219D01*
X157383826Y-151909906D01*
X157475675Y-152021824D01*
X157587593Y-152113673D01*
X157715280Y-152181923D01*
X157853828Y-152223951D01*
X157961808Y-152234586D01*
X157997913Y-152238142D01*
X158034018Y-152234586D01*
X172161808Y-152234586D01*
X172197913Y-152238142D01*
X172234018Y-152234586D01*
X172341998Y-152223951D01*
X172480546Y-152181923D01*
X172608233Y-152113673D01*
X172720151Y-152021824D01*
X172812000Y-151909906D01*
X172880250Y-151782219D01*
X172922278Y-151643671D01*
X172936469Y-151499586D01*
X172932913Y-151463481D01*
X172932913Y-137335691D01*
X172936469Y-137299586D01*
X176309357Y-137299586D01*
X176312913Y-137335691D01*
X176312914Y-151463471D01*
X176309357Y-151499586D01*
X176323548Y-151643671D01*
X176365576Y-151782219D01*
X176433826Y-151909906D01*
X176525675Y-152021824D01*
X176637593Y-152113673D01*
X176765280Y-152181923D01*
X176903828Y-152223951D01*
X177011808Y-152234586D01*
X177047913Y-152238142D01*
X177084018Y-152234586D01*
X191211808Y-152234586D01*
X191247913Y-152238142D01*
X191284018Y-152234586D01*
X191391998Y-152223951D01*
X191530546Y-152181923D01*
X191658233Y-152113673D01*
X191770151Y-152021824D01*
X191862000Y-151909906D01*
X191930250Y-151782219D01*
X191972278Y-151643671D01*
X191986469Y-151499586D01*
X191982913Y-151463481D01*
X191982913Y-137335691D01*
X191986469Y-137299586D01*
X195359357Y-137299586D01*
X195362913Y-137335691D01*
X195362914Y-151463471D01*
X195359357Y-151499586D01*
X195373548Y-151643671D01*
X195415576Y-151782219D01*
X195483826Y-151909906D01*
X195575675Y-152021824D01*
X195687593Y-152113673D01*
X195815280Y-152181923D01*
X195953828Y-152223951D01*
X196061808Y-152234586D01*
X196097913Y-152238142D01*
X196134018Y-152234586D01*
X210261808Y-152234586D01*
X210297913Y-152238142D01*
X210334018Y-152234586D01*
X210441998Y-152223951D01*
X210580546Y-152181923D01*
X210708233Y-152113673D01*
X210820151Y-152021824D01*
X210912000Y-151909906D01*
X210980250Y-151782219D01*
X211022278Y-151643671D01*
X211036469Y-151499586D01*
X211032913Y-151463481D01*
X211032913Y-137335691D01*
X211036469Y-137299586D01*
X214409357Y-137299586D01*
X214412913Y-137335691D01*
X214412914Y-151463471D01*
X214409357Y-151499586D01*
X214423548Y-151643671D01*
X214465576Y-151782219D01*
X214533826Y-151909906D01*
X214625675Y-152021824D01*
X214737593Y-152113673D01*
X214865280Y-152181923D01*
X215003828Y-152223951D01*
X215111808Y-152234586D01*
X215147913Y-152238142D01*
X215184018Y-152234586D01*
X229230547Y-152234586D01*
X229041634Y-152517313D01*
X228808700Y-153079666D01*
X228689951Y-153676657D01*
X228689951Y-154285343D01*
X228808700Y-154882334D01*
X229041634Y-155444687D01*
X229155157Y-155614586D01*
X215184018Y-155614586D01*
X215147913Y-155611030D01*
X215111808Y-155614586D01*
X215003828Y-155625221D01*
X214865280Y-155667249D01*
X214737593Y-155735499D01*
X214625675Y-155827348D01*
X214533826Y-155939266D01*
X214465576Y-156066953D01*
X214423548Y-156205501D01*
X214409357Y-156349586D01*
X214412913Y-156385691D01*
X214412914Y-170513471D01*
X214409357Y-170549586D01*
X214423548Y-170693671D01*
X214465576Y-170832219D01*
X214533826Y-170959906D01*
X214625675Y-171071824D01*
X214737593Y-171163673D01*
X214865280Y-171231923D01*
X215003828Y-171273951D01*
X215111808Y-171284586D01*
X215147913Y-171288142D01*
X215184018Y-171284586D01*
X229311808Y-171284586D01*
X229347913Y-171288142D01*
X229384018Y-171284586D01*
X229491998Y-171273951D01*
X229630546Y-171231923D01*
X229758233Y-171163673D01*
X229870151Y-171071824D01*
X229962000Y-170959906D01*
X230030250Y-170832219D01*
X230072278Y-170693671D01*
X230086469Y-170549586D01*
X230082913Y-170513481D01*
X230082913Y-156563413D01*
X230316313Y-156719366D01*
X230878666Y-156952300D01*
X231475657Y-157071049D01*
X232084343Y-157071049D01*
X232681334Y-156952300D01*
X233243687Y-156719366D01*
X233462913Y-156572883D01*
X233462914Y-170513471D01*
X233459357Y-170549586D01*
X233473548Y-170693671D01*
X233515576Y-170832219D01*
X233583826Y-170959906D01*
X233675675Y-171071824D01*
X233787593Y-171163673D01*
X233915280Y-171231923D01*
X234053828Y-171273951D01*
X234161808Y-171284586D01*
X234197913Y-171288142D01*
X234234018Y-171284586D01*
X248361808Y-171284586D01*
X248397913Y-171288142D01*
X248434018Y-171284586D01*
X248541998Y-171273951D01*
X248680546Y-171231923D01*
X248808233Y-171163673D01*
X248920151Y-171071824D01*
X249012000Y-170959906D01*
X249080250Y-170832219D01*
X249122278Y-170693671D01*
X249136469Y-170549586D01*
X249132913Y-170513481D01*
X249132913Y-156385691D01*
X249136469Y-156349586D01*
X252509357Y-156349586D01*
X252512913Y-156385691D01*
X252512914Y-170513471D01*
X252509357Y-170549586D01*
X252523548Y-170693671D01*
X252565576Y-170832219D01*
X252633826Y-170959906D01*
X252725675Y-171071824D01*
X252837593Y-171163673D01*
X252965280Y-171231923D01*
X253103828Y-171273951D01*
X253211808Y-171284586D01*
X253247913Y-171288142D01*
X253284018Y-171284586D01*
X267330547Y-171284586D01*
X267141634Y-171567313D01*
X266908700Y-172129666D01*
X266789951Y-172726657D01*
X266789951Y-173335343D01*
X266908700Y-173932334D01*
X267141634Y-174494687D01*
X267255157Y-174664586D01*
X253284018Y-174664586D01*
X253247913Y-174661030D01*
X253211808Y-174664586D01*
X253103828Y-174675221D01*
X252965280Y-174717249D01*
X252837593Y-174785499D01*
X252725675Y-174877348D01*
X252633826Y-174989266D01*
X252565576Y-175116953D01*
X252523548Y-175255501D01*
X252509357Y-175399586D01*
X252512913Y-175435691D01*
X252512914Y-189563471D01*
X252509357Y-189599586D01*
X252523548Y-189743671D01*
X252565576Y-189882219D01*
X252633826Y-190009906D01*
X252725675Y-190121824D01*
X252837593Y-190213673D01*
X252965280Y-190281923D01*
X253103828Y-190323951D01*
X253211808Y-190334586D01*
X253247913Y-190338142D01*
X253284018Y-190334586D01*
X267411808Y-190334586D01*
X267447913Y-190338142D01*
X267484018Y-190334586D01*
X267591998Y-190323951D01*
X267730546Y-190281923D01*
X267858233Y-190213673D01*
X267970151Y-190121824D01*
X268062000Y-190009906D01*
X268130250Y-189882219D01*
X268172278Y-189743671D01*
X268186469Y-189599586D01*
X268182913Y-189563481D01*
X268182913Y-175613413D01*
X268416313Y-175769366D01*
X268978666Y-176002300D01*
X269575657Y-176121049D01*
X270184343Y-176121049D01*
X270781334Y-176002300D01*
X271343687Y-175769366D01*
X271562913Y-175622883D01*
X271562914Y-189563471D01*
X271559357Y-189599586D01*
X271573548Y-189743671D01*
X271615576Y-189882219D01*
X271683826Y-190009906D01*
X271775675Y-190121824D01*
X271887593Y-190213673D01*
X272015280Y-190281923D01*
X272153828Y-190323951D01*
X272261808Y-190334586D01*
X272297913Y-190338142D01*
X272334018Y-190334586D01*
X286461808Y-190334586D01*
X286497913Y-190338142D01*
X286534018Y-190334586D01*
X286641998Y-190323951D01*
X286780546Y-190281923D01*
X286908233Y-190213673D01*
X287020151Y-190121824D01*
X287112000Y-190009906D01*
X287180250Y-189882219D01*
X287222278Y-189743671D01*
X287236469Y-189599586D01*
X287232913Y-189563481D01*
X287232913Y-175435691D01*
X287236469Y-175399586D01*
X290609357Y-175399586D01*
X290612913Y-175435691D01*
X290612914Y-189563471D01*
X290609357Y-189599586D01*
X290623548Y-189743671D01*
X290665576Y-189882219D01*
X290733826Y-190009906D01*
X290825675Y-190121824D01*
X290937593Y-190213673D01*
X291065280Y-190281923D01*
X291203828Y-190323951D01*
X291311808Y-190334586D01*
X291347913Y-190338142D01*
X291384018Y-190334586D01*
X305388117Y-190334586D01*
X305241634Y-190553813D01*
X305008700Y-191116166D01*
X304889951Y-191713157D01*
X304889951Y-192321843D01*
X305008700Y-192918834D01*
X305241634Y-193481187D01*
X305397587Y-193714586D01*
X291384018Y-193714586D01*
X291347913Y-193711030D01*
X291311808Y-193714586D01*
X291203828Y-193725221D01*
X291065280Y-193767249D01*
X290937593Y-193835499D01*
X290825675Y-193927348D01*
X290733826Y-194039266D01*
X290665576Y-194166953D01*
X290623548Y-194305501D01*
X290609357Y-194449586D01*
X290612913Y-194485691D01*
X290612914Y-208613471D01*
X290609357Y-208649586D01*
X290623548Y-208793671D01*
X290665576Y-208932219D01*
X290733826Y-209059906D01*
X290825675Y-209171824D01*
X290937593Y-209263673D01*
X291065280Y-209331923D01*
X291203828Y-209373951D01*
X291311808Y-209384586D01*
X291347913Y-209388142D01*
X291384018Y-209384586D01*
X305511808Y-209384586D01*
X305547913Y-209388142D01*
X305584018Y-209384586D01*
X305691998Y-209373951D01*
X305830546Y-209331923D01*
X305958233Y-209263673D01*
X306070151Y-209171824D01*
X306162000Y-209059906D01*
X306230250Y-208932219D01*
X306272278Y-208793671D01*
X306286469Y-208649586D01*
X306282913Y-208613481D01*
X306282913Y-194599913D01*
X306516313Y-194755866D01*
X307078666Y-194988800D01*
X307675657Y-195107549D01*
X308284343Y-195107549D01*
X308881334Y-194988800D01*
X309443687Y-194755866D01*
X309662913Y-194609383D01*
X309662914Y-208613471D01*
X309659357Y-208649586D01*
X309673548Y-208793671D01*
X309715576Y-208932219D01*
X309783826Y-209059906D01*
X309875675Y-209171824D01*
X309987593Y-209263673D01*
X310115280Y-209331923D01*
X310253828Y-209373951D01*
X310361808Y-209384586D01*
X310397913Y-209388142D01*
X310434018Y-209384586D01*
X324561808Y-209384586D01*
X324597913Y-209388142D01*
X324634018Y-209384586D01*
X324741998Y-209373951D01*
X324880546Y-209331923D01*
X325008233Y-209263673D01*
X325120151Y-209171824D01*
X325212000Y-209059906D01*
X325280250Y-208932219D01*
X325322278Y-208793671D01*
X325336469Y-208649586D01*
X325332913Y-208613481D01*
X325332913Y-194485691D01*
X325336469Y-194449586D01*
X328709357Y-194449586D01*
X328712913Y-194485691D01*
X328712914Y-208613471D01*
X328709357Y-208649586D01*
X328723548Y-208793671D01*
X328765576Y-208932219D01*
X328833826Y-209059906D01*
X328925675Y-209171824D01*
X329037593Y-209263673D01*
X329165280Y-209331923D01*
X329303828Y-209373951D01*
X329411808Y-209384586D01*
X329447913Y-209388142D01*
X329484018Y-209384586D01*
X343488117Y-209384586D01*
X343341634Y-209603813D01*
X343108700Y-210166166D01*
X342989951Y-210763157D01*
X342989951Y-211371843D01*
X343108700Y-211968834D01*
X343341634Y-212531187D01*
X343497587Y-212764586D01*
X329484018Y-212764586D01*
X329447913Y-212761030D01*
X329411808Y-212764586D01*
X329303828Y-212775221D01*
X329165280Y-212817249D01*
X329037593Y-212885499D01*
X328925675Y-212977348D01*
X328833826Y-213089266D01*
X328765576Y-213216953D01*
X328723548Y-213355501D01*
X328709357Y-213499586D01*
X328712913Y-213535691D01*
X328712914Y-227663471D01*
X328709357Y-227699586D01*
X328723548Y-227843671D01*
X328765576Y-227982219D01*
X328833826Y-228109906D01*
X328925675Y-228221824D01*
X329037593Y-228313673D01*
X329165280Y-228381923D01*
X329303828Y-228423951D01*
X329411808Y-228434586D01*
X329447913Y-228438142D01*
X329484018Y-228434586D01*
X343611808Y-228434586D01*
X343647913Y-228438142D01*
X343684018Y-228434586D01*
X343791998Y-228423951D01*
X343930546Y-228381923D01*
X344058233Y-228313673D01*
X344170151Y-228221824D01*
X344262000Y-228109906D01*
X344330250Y-227982219D01*
X344372278Y-227843671D01*
X344386469Y-227699586D01*
X344382913Y-227663481D01*
X344382913Y-213649913D01*
X344616313Y-213805866D01*
X345178666Y-214038800D01*
X345775657Y-214157549D01*
X346384343Y-214157549D01*
X346981334Y-214038800D01*
X347543687Y-213805866D01*
X347762913Y-213659383D01*
X347762914Y-227663471D01*
X347759357Y-227699586D01*
X347773548Y-227843671D01*
X347815576Y-227982219D01*
X347883826Y-228109906D01*
X347975675Y-228221824D01*
X348087593Y-228313673D01*
X348215280Y-228381923D01*
X348353828Y-228423951D01*
X348461808Y-228434586D01*
X348497913Y-228438142D01*
X348534018Y-228434586D01*
X362661808Y-228434586D01*
X362697913Y-228438142D01*
X362734018Y-228434586D01*
X362841998Y-228423951D01*
X362980546Y-228381923D01*
X363108233Y-228313673D01*
X363220151Y-228221824D01*
X363312000Y-228109906D01*
X363380250Y-227982219D01*
X363422278Y-227843671D01*
X363436469Y-227699586D01*
X363432913Y-227663481D01*
X363432913Y-213535691D01*
X363436469Y-213499586D01*
X363422278Y-213355501D01*
X363380250Y-213216953D01*
X363312000Y-213089266D01*
X363220151Y-212977348D01*
X363108233Y-212885499D01*
X362980546Y-212817249D01*
X362841998Y-212775221D01*
X362734018Y-212764586D01*
X362697913Y-212761030D01*
X362661808Y-212764586D01*
X348662413Y-212764586D01*
X348818366Y-212531187D01*
X349051300Y-211968834D01*
X349170049Y-211371843D01*
X349170049Y-210763157D01*
X349051300Y-210166166D01*
X348818366Y-209603813D01*
X348671883Y-209384586D01*
X362661808Y-209384586D01*
X362697913Y-209388142D01*
X362734018Y-209384586D01*
X362841998Y-209373951D01*
X362980546Y-209331923D01*
X363108233Y-209263673D01*
X363220151Y-209171824D01*
X363312000Y-209059906D01*
X363380250Y-208932219D01*
X363422278Y-208793671D01*
X363436469Y-208649586D01*
X363432913Y-208613481D01*
X363432913Y-194485691D01*
X363436469Y-194449586D01*
X363422278Y-194305501D01*
X363380250Y-194166953D01*
X363312000Y-194039266D01*
X363220151Y-193927348D01*
X363108233Y-193835499D01*
X362980546Y-193767249D01*
X362841998Y-193725221D01*
X362734018Y-193714586D01*
X362697913Y-193711030D01*
X362661808Y-193714586D01*
X348534018Y-193714586D01*
X348497913Y-193711030D01*
X348461808Y-193714586D01*
X348353828Y-193725221D01*
X348215280Y-193767249D01*
X348087593Y-193835499D01*
X347975675Y-193927348D01*
X347883826Y-194039266D01*
X347815576Y-194166953D01*
X347773548Y-194305501D01*
X347759357Y-194449586D01*
X347762913Y-194485691D01*
X347762914Y-208475617D01*
X347543687Y-208329134D01*
X346981334Y-208096200D01*
X346384343Y-207977451D01*
X345775657Y-207977451D01*
X345178666Y-208096200D01*
X344616313Y-208329134D01*
X344382913Y-208485087D01*
X344382913Y-194485691D01*
X344386469Y-194449586D01*
X344372278Y-194305501D01*
X344330250Y-194166953D01*
X344262000Y-194039266D01*
X344170151Y-193927348D01*
X344058233Y-193835499D01*
X343930546Y-193767249D01*
X343791998Y-193725221D01*
X343684018Y-193714586D01*
X343647913Y-193711030D01*
X343611808Y-193714586D01*
X329484018Y-193714586D01*
X329447913Y-193711030D01*
X329411808Y-193714586D01*
X329303828Y-193725221D01*
X329165280Y-193767249D01*
X329037593Y-193835499D01*
X328925675Y-193927348D01*
X328833826Y-194039266D01*
X328765576Y-194166953D01*
X328723548Y-194305501D01*
X328709357Y-194449586D01*
X325336469Y-194449586D01*
X325322278Y-194305501D01*
X325280250Y-194166953D01*
X325212000Y-194039266D01*
X325120151Y-193927348D01*
X325008233Y-193835499D01*
X324880546Y-193767249D01*
X324741998Y-193725221D01*
X324634018Y-193714586D01*
X324597913Y-193711030D01*
X324561808Y-193714586D01*
X310562413Y-193714586D01*
X310718366Y-193481187D01*
X310951300Y-192918834D01*
X311070049Y-192321843D01*
X311070049Y-191713157D01*
X310951300Y-191116166D01*
X310718366Y-190553813D01*
X310571883Y-190334586D01*
X324561808Y-190334586D01*
X324597913Y-190338142D01*
X324634018Y-190334586D01*
X324741998Y-190323951D01*
X324880546Y-190281923D01*
X325008233Y-190213673D01*
X325120151Y-190121824D01*
X325212000Y-190009906D01*
X325280250Y-189882219D01*
X325322278Y-189743671D01*
X325336469Y-189599586D01*
X325332913Y-189563481D01*
X325332913Y-175435691D01*
X325336469Y-175399586D01*
X328709357Y-175399586D01*
X328712913Y-175435691D01*
X328712914Y-189563471D01*
X328709357Y-189599586D01*
X328723548Y-189743671D01*
X328765576Y-189882219D01*
X328833826Y-190009906D01*
X328925675Y-190121824D01*
X329037593Y-190213673D01*
X329165280Y-190281923D01*
X329303828Y-190323951D01*
X329411808Y-190334586D01*
X329447913Y-190338142D01*
X329484018Y-190334586D01*
X343611808Y-190334586D01*
X343647913Y-190338142D01*
X343684018Y-190334586D01*
X343791998Y-190323951D01*
X343930546Y-190281923D01*
X344058233Y-190213673D01*
X344170151Y-190121824D01*
X344262000Y-190009906D01*
X344330250Y-189882219D01*
X344372278Y-189743671D01*
X344386469Y-189599586D01*
X344382913Y-189563481D01*
X344382913Y-175435691D01*
X344386469Y-175399586D01*
X347759357Y-175399586D01*
X347762913Y-175435691D01*
X347762914Y-189563471D01*
X347759357Y-189599586D01*
X347773548Y-189743671D01*
X347815576Y-189882219D01*
X347883826Y-190009906D01*
X347975675Y-190121824D01*
X348087593Y-190213673D01*
X348215280Y-190281923D01*
X348353828Y-190323951D01*
X348461808Y-190334586D01*
X348497913Y-190338142D01*
X348534018Y-190334586D01*
X362661808Y-190334586D01*
X362697913Y-190338142D01*
X362734018Y-190334586D01*
X362841998Y-190323951D01*
X362980546Y-190281923D01*
X363108233Y-190213673D01*
X363220151Y-190121824D01*
X363312000Y-190009906D01*
X363380250Y-189882219D01*
X363422278Y-189743671D01*
X363436469Y-189599586D01*
X363432913Y-189563481D01*
X363432913Y-175435691D01*
X363436469Y-175399586D01*
X363422278Y-175255501D01*
X363380250Y-175116953D01*
X363312000Y-174989266D01*
X363220151Y-174877348D01*
X363108233Y-174785499D01*
X362980546Y-174717249D01*
X362841998Y-174675221D01*
X362734018Y-174664586D01*
X362697913Y-174661030D01*
X362661808Y-174664586D01*
X348534018Y-174664586D01*
X348497913Y-174661030D01*
X348461808Y-174664586D01*
X348353828Y-174675221D01*
X348215280Y-174717249D01*
X348087593Y-174785499D01*
X347975675Y-174877348D01*
X347883826Y-174989266D01*
X347815576Y-175116953D01*
X347773548Y-175255501D01*
X347759357Y-175399586D01*
X344386469Y-175399586D01*
X344372278Y-175255501D01*
X344330250Y-175116953D01*
X344262000Y-174989266D01*
X344170151Y-174877348D01*
X344058233Y-174785499D01*
X343930546Y-174717249D01*
X343791998Y-174675221D01*
X343684018Y-174664586D01*
X343647913Y-174661030D01*
X343611808Y-174664586D01*
X329484018Y-174664586D01*
X329447913Y-174661030D01*
X329411808Y-174664586D01*
X329303828Y-174675221D01*
X329165280Y-174717249D01*
X329037593Y-174785499D01*
X328925675Y-174877348D01*
X328833826Y-174989266D01*
X328765576Y-175116953D01*
X328723548Y-175255501D01*
X328709357Y-175399586D01*
X325336469Y-175399586D01*
X325322278Y-175255501D01*
X325280250Y-175116953D01*
X325212000Y-174989266D01*
X325120151Y-174877348D01*
X325008233Y-174785499D01*
X324880546Y-174717249D01*
X324741998Y-174675221D01*
X324634018Y-174664586D01*
X324597913Y-174661030D01*
X324561808Y-174664586D01*
X310434018Y-174664586D01*
X310397913Y-174661030D01*
X310361808Y-174664586D01*
X310253828Y-174675221D01*
X310115280Y-174717249D01*
X309987593Y-174785499D01*
X309875675Y-174877348D01*
X309783826Y-174989266D01*
X309715576Y-175116953D01*
X309673548Y-175255501D01*
X309659357Y-175399586D01*
X309662913Y-175435691D01*
X309662914Y-189425617D01*
X309443687Y-189279134D01*
X308881334Y-189046200D01*
X308284343Y-188927451D01*
X307675657Y-188927451D01*
X307078666Y-189046200D01*
X306516313Y-189279134D01*
X306282913Y-189435087D01*
X306282913Y-175435691D01*
X306286469Y-175399586D01*
X306272278Y-175255501D01*
X306230250Y-175116953D01*
X306162000Y-174989266D01*
X306070151Y-174877348D01*
X305958233Y-174785499D01*
X305830546Y-174717249D01*
X305691998Y-174675221D01*
X305584018Y-174664586D01*
X305547913Y-174661030D01*
X305511808Y-174664586D01*
X291384018Y-174664586D01*
X291347913Y-174661030D01*
X291311808Y-174664586D01*
X291203828Y-174675221D01*
X291065280Y-174717249D01*
X290937593Y-174785499D01*
X290825675Y-174877348D01*
X290733826Y-174989266D01*
X290665576Y-175116953D01*
X290623548Y-175255501D01*
X290609357Y-175399586D01*
X287236469Y-175399586D01*
X287222278Y-175255501D01*
X287180250Y-175116953D01*
X287112000Y-174989266D01*
X287020151Y-174877348D01*
X286908233Y-174785499D01*
X286780546Y-174717249D01*
X286641998Y-174675221D01*
X286534018Y-174664586D01*
X286497913Y-174661030D01*
X286461808Y-174664586D01*
X272504843Y-174664586D01*
X272618366Y-174494687D01*
X272851300Y-173932334D01*
X272970049Y-173335343D01*
X272970049Y-172726657D01*
X272851300Y-172129666D01*
X272618366Y-171567313D01*
X272429453Y-171284586D01*
X286461808Y-171284586D01*
X286497913Y-171288142D01*
X286534018Y-171284586D01*
X286641998Y-171273951D01*
X286780546Y-171231923D01*
X286908233Y-171163673D01*
X287020151Y-171071824D01*
X287112000Y-170959906D01*
X287180250Y-170832219D01*
X287222278Y-170693671D01*
X287236469Y-170549586D01*
X287232913Y-170513481D01*
X287232913Y-156385691D01*
X287236469Y-156349586D01*
X290609357Y-156349586D01*
X290612913Y-156385691D01*
X290612914Y-170513471D01*
X290609357Y-170549586D01*
X290623548Y-170693671D01*
X290665576Y-170832219D01*
X290733826Y-170959906D01*
X290825675Y-171071824D01*
X290937593Y-171163673D01*
X291065280Y-171231923D01*
X291203828Y-171273951D01*
X291311808Y-171284586D01*
X291347913Y-171288142D01*
X291384018Y-171284586D01*
X305511808Y-171284586D01*
X305547913Y-171288142D01*
X305584018Y-171284586D01*
X305691998Y-171273951D01*
X305830546Y-171231923D01*
X305958233Y-171163673D01*
X306070151Y-171071824D01*
X306162000Y-170959906D01*
X306230250Y-170832219D01*
X306272278Y-170693671D01*
X306286469Y-170549586D01*
X306282913Y-170513481D01*
X306282913Y-156385691D01*
X306286469Y-156349586D01*
X306272278Y-156205501D01*
X306230250Y-156066953D01*
X306162000Y-155939266D01*
X306070151Y-155827348D01*
X305958233Y-155735499D01*
X305830546Y-155667249D01*
X305691998Y-155625221D01*
X305584018Y-155614586D01*
X305547913Y-155611030D01*
X305511808Y-155614586D01*
X291384018Y-155614586D01*
X291347913Y-155611030D01*
X291311808Y-155614586D01*
X291203828Y-155625221D01*
X291065280Y-155667249D01*
X290937593Y-155735499D01*
X290825675Y-155827348D01*
X290733826Y-155939266D01*
X290665576Y-156066953D01*
X290623548Y-156205501D01*
X290609357Y-156349586D01*
X287236469Y-156349586D01*
X287222278Y-156205501D01*
X287180250Y-156066953D01*
X287112000Y-155939266D01*
X287020151Y-155827348D01*
X286908233Y-155735499D01*
X286780546Y-155667249D01*
X286641998Y-155625221D01*
X286534018Y-155614586D01*
X286497913Y-155611030D01*
X286461808Y-155614586D01*
X272334018Y-155614586D01*
X272297913Y-155611030D01*
X272261808Y-155614586D01*
X272153828Y-155625221D01*
X272015280Y-155667249D01*
X271887593Y-155735499D01*
X271775675Y-155827348D01*
X271683826Y-155939266D01*
X271615576Y-156066953D01*
X271573548Y-156205501D01*
X271559357Y-156349586D01*
X271562913Y-156385691D01*
X271562914Y-170439117D01*
X271343687Y-170292634D01*
X270781334Y-170059700D01*
X270184343Y-169940951D01*
X269575657Y-169940951D01*
X268978666Y-170059700D01*
X268416313Y-170292634D01*
X268182913Y-170448587D01*
X268182913Y-156385691D01*
X268186469Y-156349586D01*
X268172278Y-156205501D01*
X268130250Y-156066953D01*
X268062000Y-155939266D01*
X267970151Y-155827348D01*
X267858233Y-155735499D01*
X267730546Y-155667249D01*
X267591998Y-155625221D01*
X267484018Y-155614586D01*
X267447913Y-155611030D01*
X267411808Y-155614586D01*
X253284018Y-155614586D01*
X253247913Y-155611030D01*
X253211808Y-155614586D01*
X253103828Y-155625221D01*
X252965280Y-155667249D01*
X252837593Y-155735499D01*
X252725675Y-155827348D01*
X252633826Y-155939266D01*
X252565576Y-156066953D01*
X252523548Y-156205501D01*
X252509357Y-156349586D01*
X249136469Y-156349586D01*
X249122278Y-156205501D01*
X249080250Y-156066953D01*
X249012000Y-155939266D01*
X248920151Y-155827348D01*
X248808233Y-155735499D01*
X248680546Y-155667249D01*
X248541998Y-155625221D01*
X248434018Y-155614586D01*
X248397913Y-155611030D01*
X248361808Y-155614586D01*
X234404843Y-155614586D01*
X234518366Y-155444687D01*
X234751300Y-154882334D01*
X234870049Y-154285343D01*
X234870049Y-153676657D01*
X234751300Y-153079666D01*
X234518366Y-152517313D01*
X234329453Y-152234586D01*
X248361808Y-152234586D01*
X248397913Y-152238142D01*
X248434018Y-152234586D01*
X248541998Y-152223951D01*
X248680546Y-152181923D01*
X248808233Y-152113673D01*
X248920151Y-152021824D01*
X249012000Y-151909906D01*
X249080250Y-151782219D01*
X249122278Y-151643671D01*
X249136469Y-151499586D01*
X249132913Y-151463481D01*
X249132913Y-137335691D01*
X249136469Y-137299586D01*
X252509357Y-137299586D01*
X252512913Y-137335691D01*
X252512914Y-151463471D01*
X252509357Y-151499586D01*
X252523548Y-151643671D01*
X252565576Y-151782219D01*
X252633826Y-151909906D01*
X252725675Y-152021824D01*
X252837593Y-152113673D01*
X252965280Y-152181923D01*
X253103828Y-152223951D01*
X253211808Y-152234586D01*
X253247913Y-152238142D01*
X253284018Y-152234586D01*
X267411808Y-152234586D01*
X267447913Y-152238142D01*
X267484018Y-152234586D01*
X267591998Y-152223951D01*
X267730546Y-152181923D01*
X267858233Y-152113673D01*
X267970151Y-152021824D01*
X268062000Y-151909906D01*
X268130250Y-151782219D01*
X268172278Y-151643671D01*
X268186469Y-151499586D01*
X268182913Y-151463481D01*
X268182913Y-137335691D01*
X268186469Y-137299586D01*
X271559357Y-137299586D01*
X271562913Y-137335691D01*
X271562914Y-151463471D01*
X271559357Y-151499586D01*
X271573548Y-151643671D01*
X271615576Y-151782219D01*
X271683826Y-151909906D01*
X271775675Y-152021824D01*
X271887593Y-152113673D01*
X272015280Y-152181923D01*
X272153828Y-152223951D01*
X272261808Y-152234586D01*
X272297913Y-152238142D01*
X272334018Y-152234586D01*
X286461808Y-152234586D01*
X286497913Y-152238142D01*
X286534018Y-152234586D01*
X286641998Y-152223951D01*
X286780546Y-152181923D01*
X286908233Y-152113673D01*
X287020151Y-152021824D01*
X287112000Y-151909906D01*
X287180250Y-151782219D01*
X287222278Y-151643671D01*
X287236469Y-151499586D01*
X287232913Y-151463481D01*
X287232913Y-137335691D01*
X287236469Y-137299586D01*
X290609357Y-137299586D01*
X290612913Y-137335691D01*
X290612914Y-151463471D01*
X290609357Y-151499586D01*
X290623548Y-151643671D01*
X290665576Y-151782219D01*
X290733826Y-151909906D01*
X290825675Y-152021824D01*
X290937593Y-152113673D01*
X291065280Y-152181923D01*
X291203828Y-152223951D01*
X291311808Y-152234586D01*
X291347913Y-152238142D01*
X291384018Y-152234586D01*
X305511808Y-152234586D01*
X305547913Y-152238142D01*
X305584018Y-152234586D01*
X305691998Y-152223951D01*
X305830546Y-152181923D01*
X305958233Y-152113673D01*
X306070151Y-152021824D01*
X306162000Y-151909906D01*
X306230250Y-151782219D01*
X306272278Y-151643671D01*
X306286469Y-151499586D01*
X306282913Y-151463481D01*
X306282913Y-137335691D01*
X306286469Y-137299586D01*
X309659357Y-137299586D01*
X309662913Y-137335691D01*
X309662914Y-151463471D01*
X309659357Y-151499586D01*
X309673548Y-151643671D01*
X309715576Y-151782219D01*
X309783826Y-151909906D01*
X309875675Y-152021824D01*
X309987593Y-152113673D01*
X310115280Y-152181923D01*
X310253828Y-152223951D01*
X310361808Y-152234586D01*
X310397913Y-152238142D01*
X310434018Y-152234586D01*
X324446470Y-152234586D01*
X324291634Y-152466313D01*
X324058700Y-153028666D01*
X323939951Y-153625657D01*
X323939951Y-154234343D01*
X324058700Y-154831334D01*
X324291634Y-155393687D01*
X324439234Y-155614586D01*
X310434018Y-155614586D01*
X310397913Y-155611030D01*
X310361808Y-155614586D01*
X310253828Y-155625221D01*
X310115280Y-155667249D01*
X309987593Y-155735499D01*
X309875675Y-155827348D01*
X309783826Y-155939266D01*
X309715576Y-156066953D01*
X309673548Y-156205501D01*
X309659357Y-156349586D01*
X309662913Y-156385691D01*
X309662914Y-170513471D01*
X309659357Y-170549586D01*
X309673548Y-170693671D01*
X309715576Y-170832219D01*
X309783826Y-170959906D01*
X309875675Y-171071824D01*
X309987593Y-171163673D01*
X310115280Y-171231923D01*
X310253828Y-171273951D01*
X310361808Y-171284586D01*
X310397913Y-171288142D01*
X310434018Y-171284586D01*
X324561808Y-171284586D01*
X324597913Y-171288142D01*
X324634018Y-171284586D01*
X324741998Y-171273951D01*
X324880546Y-171231923D01*
X325008233Y-171163673D01*
X325120151Y-171071824D01*
X325212000Y-170959906D01*
X325280250Y-170832219D01*
X325322278Y-170693671D01*
X325336469Y-170549586D01*
X325332913Y-170513481D01*
X325332913Y-156512413D01*
X325566313Y-156668366D01*
X326128666Y-156901300D01*
X326725657Y-157020049D01*
X327334343Y-157020049D01*
X327931334Y-156901300D01*
X328493687Y-156668366D01*
X328712913Y-156521883D01*
X328712914Y-170513471D01*
X328709357Y-170549586D01*
X328723548Y-170693671D01*
X328765576Y-170832219D01*
X328833826Y-170959906D01*
X328925675Y-171071824D01*
X329037593Y-171163673D01*
X329165280Y-171231923D01*
X329303828Y-171273951D01*
X329411808Y-171284586D01*
X329447913Y-171288142D01*
X329484018Y-171284586D01*
X343611808Y-171284586D01*
X343647913Y-171288142D01*
X343684018Y-171284586D01*
X343791998Y-171273951D01*
X343930546Y-171231923D01*
X344058233Y-171163673D01*
X344170151Y-171071824D01*
X344262000Y-170959906D01*
X344330250Y-170832219D01*
X344372278Y-170693671D01*
X344386469Y-170549586D01*
X344382913Y-170513481D01*
X344382913Y-156385691D01*
X344386469Y-156349586D01*
X347759357Y-156349586D01*
X347762913Y-156385691D01*
X347762914Y-170513471D01*
X347759357Y-170549586D01*
X347773548Y-170693671D01*
X347815576Y-170832219D01*
X347883826Y-170959906D01*
X347975675Y-171071824D01*
X348087593Y-171163673D01*
X348215280Y-171231923D01*
X348353828Y-171273951D01*
X348461808Y-171284586D01*
X348497913Y-171288142D01*
X348534018Y-171284586D01*
X362661808Y-171284586D01*
X362697913Y-171288142D01*
X362734018Y-171284586D01*
X362841998Y-171273951D01*
X362980546Y-171231923D01*
X363108233Y-171163673D01*
X363220151Y-171071824D01*
X363312000Y-170959906D01*
X363380250Y-170832219D01*
X363422278Y-170693671D01*
X363436469Y-170549586D01*
X363432913Y-170513481D01*
X363432913Y-156385691D01*
X363436469Y-156349586D01*
X363422278Y-156205501D01*
X363380250Y-156066953D01*
X363312000Y-155939266D01*
X363220151Y-155827348D01*
X363108233Y-155735499D01*
X362980546Y-155667249D01*
X362841998Y-155625221D01*
X362734018Y-155614586D01*
X362697913Y-155611030D01*
X362661808Y-155614586D01*
X348534018Y-155614586D01*
X348497913Y-155611030D01*
X348461808Y-155614586D01*
X348353828Y-155625221D01*
X348215280Y-155667249D01*
X348087593Y-155735499D01*
X347975675Y-155827348D01*
X347883826Y-155939266D01*
X347815576Y-156066953D01*
X347773548Y-156205501D01*
X347759357Y-156349586D01*
X344386469Y-156349586D01*
X344372278Y-156205501D01*
X344330250Y-156066953D01*
X344262000Y-155939266D01*
X344170151Y-155827348D01*
X344058233Y-155735499D01*
X343930546Y-155667249D01*
X343791998Y-155625221D01*
X343684018Y-155614586D01*
X343647913Y-155611030D01*
X343611808Y-155614586D01*
X329620766Y-155614586D01*
X329768366Y-155393687D01*
X330001300Y-154831334D01*
X330120049Y-154234343D01*
X330120049Y-153625657D01*
X330001300Y-153028666D01*
X329768366Y-152466313D01*
X329613530Y-152234586D01*
X343611808Y-152234586D01*
X343647913Y-152238142D01*
X343684018Y-152234586D01*
X343791998Y-152223951D01*
X343930546Y-152181923D01*
X344058233Y-152113673D01*
X344170151Y-152021824D01*
X344262000Y-151909906D01*
X344330250Y-151782219D01*
X344372278Y-151643671D01*
X344386469Y-151499586D01*
X344382913Y-151463481D01*
X344382913Y-137335691D01*
X344386469Y-137299586D01*
X347759357Y-137299586D01*
X347762913Y-137335691D01*
X347762914Y-151463471D01*
X347759357Y-151499586D01*
X347773548Y-151643671D01*
X347815576Y-151782219D01*
X347883826Y-151909906D01*
X347975675Y-152021824D01*
X348087593Y-152113673D01*
X348215280Y-152181923D01*
X348353828Y-152223951D01*
X348461808Y-152234586D01*
X348497913Y-152238142D01*
X348534018Y-152234586D01*
X362661808Y-152234586D01*
X362697913Y-152238142D01*
X362734018Y-152234586D01*
X362841998Y-152223951D01*
X362980546Y-152181923D01*
X363108233Y-152113673D01*
X363220151Y-152021824D01*
X363312000Y-151909906D01*
X363380250Y-151782219D01*
X363422278Y-151643671D01*
X363436469Y-151499586D01*
X363432913Y-151463481D01*
X363432913Y-137335691D01*
X363436469Y-137299586D01*
X363422278Y-137155501D01*
X363380250Y-137016953D01*
X363312000Y-136889266D01*
X363220151Y-136777348D01*
X363108233Y-136685499D01*
X362980546Y-136617249D01*
X362841998Y-136575221D01*
X362734018Y-136564586D01*
X362697913Y-136561030D01*
X362661808Y-136564586D01*
X348534018Y-136564586D01*
X348497913Y-136561030D01*
X348461808Y-136564586D01*
X348353828Y-136575221D01*
X348215280Y-136617249D01*
X348087593Y-136685499D01*
X347975675Y-136777348D01*
X347883826Y-136889266D01*
X347815576Y-137016953D01*
X347773548Y-137155501D01*
X347759357Y-137299586D01*
X344386469Y-137299586D01*
X344372278Y-137155501D01*
X344330250Y-137016953D01*
X344262000Y-136889266D01*
X344170151Y-136777348D01*
X344058233Y-136685499D01*
X343930546Y-136617249D01*
X343791998Y-136575221D01*
X343684018Y-136564586D01*
X343647913Y-136561030D01*
X343611808Y-136564586D01*
X329484018Y-136564586D01*
X329447913Y-136561030D01*
X329411808Y-136564586D01*
X329303828Y-136575221D01*
X329165280Y-136617249D01*
X329037593Y-136685499D01*
X328925675Y-136777348D01*
X328833826Y-136889266D01*
X328765576Y-137016953D01*
X328723548Y-137155501D01*
X328709357Y-137299586D01*
X328712913Y-137335691D01*
X328712914Y-151338117D01*
X328493687Y-151191634D01*
X327931334Y-150958700D01*
X327334343Y-150839951D01*
X326725657Y-150839951D01*
X326128666Y-150958700D01*
X325566313Y-151191634D01*
X325332913Y-151347587D01*
X325332913Y-137335691D01*
X325336469Y-137299586D01*
X325322278Y-137155501D01*
X325280250Y-137016953D01*
X325212000Y-136889266D01*
X325120151Y-136777348D01*
X325008233Y-136685499D01*
X324880546Y-136617249D01*
X324741998Y-136575221D01*
X324634018Y-136564586D01*
X324597913Y-136561030D01*
X324561808Y-136564586D01*
X310434018Y-136564586D01*
X310397913Y-136561030D01*
X310361808Y-136564586D01*
X310253828Y-136575221D01*
X310115280Y-136617249D01*
X309987593Y-136685499D01*
X309875675Y-136777348D01*
X309783826Y-136889266D01*
X309715576Y-137016953D01*
X309673548Y-137155501D01*
X309659357Y-137299586D01*
X306286469Y-137299586D01*
X306272278Y-137155501D01*
X306230250Y-137016953D01*
X306162000Y-136889266D01*
X306070151Y-136777348D01*
X305958233Y-136685499D01*
X305830546Y-136617249D01*
X305691998Y-136575221D01*
X305584018Y-136564586D01*
X305547913Y-136561030D01*
X305511808Y-136564586D01*
X291384018Y-136564586D01*
X291347913Y-136561030D01*
X291311808Y-136564586D01*
X291203828Y-136575221D01*
X291065280Y-136617249D01*
X290937593Y-136685499D01*
X290825675Y-136777348D01*
X290733826Y-136889266D01*
X290665576Y-137016953D01*
X290623548Y-137155501D01*
X290609357Y-137299586D01*
X287236469Y-137299586D01*
X287222278Y-137155501D01*
X287180250Y-137016953D01*
X287112000Y-136889266D01*
X287020151Y-136777348D01*
X286908233Y-136685499D01*
X286780546Y-136617249D01*
X286641998Y-136575221D01*
X286534018Y-136564586D01*
X286497913Y-136561030D01*
X286461808Y-136564586D01*
X272334018Y-136564586D01*
X272297913Y-136561030D01*
X272261808Y-136564586D01*
X272153828Y-136575221D01*
X272015280Y-136617249D01*
X271887593Y-136685499D01*
X271775675Y-136777348D01*
X271683826Y-136889266D01*
X271615576Y-137016953D01*
X271573548Y-137155501D01*
X271559357Y-137299586D01*
X268186469Y-137299586D01*
X268172278Y-137155501D01*
X268130250Y-137016953D01*
X268062000Y-136889266D01*
X267970151Y-136777348D01*
X267858233Y-136685499D01*
X267730546Y-136617249D01*
X267591998Y-136575221D01*
X267484018Y-136564586D01*
X267447913Y-136561030D01*
X267411808Y-136564586D01*
X253284018Y-136564586D01*
X253247913Y-136561030D01*
X253211808Y-136564586D01*
X253103828Y-136575221D01*
X252965280Y-136617249D01*
X252837593Y-136685499D01*
X252725675Y-136777348D01*
X252633826Y-136889266D01*
X252565576Y-137016953D01*
X252523548Y-137155501D01*
X252509357Y-137299586D01*
X249136469Y-137299586D01*
X249122278Y-137155501D01*
X249080250Y-137016953D01*
X249012000Y-136889266D01*
X248920151Y-136777348D01*
X248808233Y-136685499D01*
X248680546Y-136617249D01*
X248541998Y-136575221D01*
X248434018Y-136564586D01*
X248397913Y-136561030D01*
X248361808Y-136564586D01*
X234234018Y-136564586D01*
X234197913Y-136561030D01*
X234161808Y-136564586D01*
X234053828Y-136575221D01*
X233915280Y-136617249D01*
X233787593Y-136685499D01*
X233675675Y-136777348D01*
X233583826Y-136889266D01*
X233515576Y-137016953D01*
X233473548Y-137155501D01*
X233459357Y-137299586D01*
X233462913Y-137335691D01*
X233462914Y-151389117D01*
X233243687Y-151242634D01*
X232681334Y-151009700D01*
X232084343Y-150890951D01*
X231475657Y-150890951D01*
X230878666Y-151009700D01*
X230316313Y-151242634D01*
X230082913Y-151398587D01*
X230082913Y-137335691D01*
X230086469Y-137299586D01*
X230072278Y-137155501D01*
X230030250Y-137016953D01*
X229962000Y-136889266D01*
X229870151Y-136777348D01*
X229758233Y-136685499D01*
X229630546Y-136617249D01*
X229491998Y-136575221D01*
X229384018Y-136564586D01*
X229347913Y-136561030D01*
X229311808Y-136564586D01*
X215184018Y-136564586D01*
X215147913Y-136561030D01*
X215111808Y-136564586D01*
X215003828Y-136575221D01*
X214865280Y-136617249D01*
X214737593Y-136685499D01*
X214625675Y-136777348D01*
X214533826Y-136889266D01*
X214465576Y-137016953D01*
X214423548Y-137155501D01*
X214409357Y-137299586D01*
X211036469Y-137299586D01*
X211022278Y-137155501D01*
X210980250Y-137016953D01*
X210912000Y-136889266D01*
X210820151Y-136777348D01*
X210708233Y-136685499D01*
X210580546Y-136617249D01*
X210441998Y-136575221D01*
X210334018Y-136564586D01*
X210297913Y-136561030D01*
X210261808Y-136564586D01*
X196134018Y-136564586D01*
X196097913Y-136561030D01*
X196061808Y-136564586D01*
X195953828Y-136575221D01*
X195815280Y-136617249D01*
X195687593Y-136685499D01*
X195575675Y-136777348D01*
X195483826Y-136889266D01*
X195415576Y-137016953D01*
X195373548Y-137155501D01*
X195359357Y-137299586D01*
X191986469Y-137299586D01*
X191972278Y-137155501D01*
X191930250Y-137016953D01*
X191862000Y-136889266D01*
X191770151Y-136777348D01*
X191658233Y-136685499D01*
X191530546Y-136617249D01*
X191391998Y-136575221D01*
X191284018Y-136564586D01*
X191247913Y-136561030D01*
X191211808Y-136564586D01*
X177084018Y-136564586D01*
X177047913Y-136561030D01*
X177011808Y-136564586D01*
X176903828Y-136575221D01*
X176765280Y-136617249D01*
X176637593Y-136685499D01*
X176525675Y-136777348D01*
X176433826Y-136889266D01*
X176365576Y-137016953D01*
X176323548Y-137155501D01*
X176309357Y-137299586D01*
X172936469Y-137299586D01*
X172922278Y-137155501D01*
X172880250Y-137016953D01*
X172812000Y-136889266D01*
X172720151Y-136777348D01*
X172608233Y-136685499D01*
X172480546Y-136617249D01*
X172341998Y-136575221D01*
X172234018Y-136564586D01*
X172197913Y-136561030D01*
X172161808Y-136564586D01*
X158034018Y-136564586D01*
X157997913Y-136561030D01*
X157961808Y-136564586D01*
X157853828Y-136575221D01*
X157715280Y-136617249D01*
X157587593Y-136685499D01*
X157475675Y-136777348D01*
X157383826Y-136889266D01*
X157315576Y-137016953D01*
X157273548Y-137155501D01*
X157259357Y-137299586D01*
X153886469Y-137299586D01*
X153872278Y-137155501D01*
X153830250Y-137016953D01*
X153762000Y-136889266D01*
X153670151Y-136777348D01*
X153558233Y-136685499D01*
X153430546Y-136617249D01*
X153291998Y-136575221D01*
X153184018Y-136564586D01*
X153147913Y-136561030D01*
X153111808Y-136564586D01*
X138984018Y-136564586D01*
X138947913Y-136561030D01*
X138911808Y-136564586D01*
X138803828Y-136575221D01*
X138665280Y-136617249D01*
X138537593Y-136685499D01*
X138425675Y-136777348D01*
X138333826Y-136889266D01*
X138265576Y-137016953D01*
X138223548Y-137155501D01*
X138209357Y-137299586D01*
X134836469Y-137299586D01*
X134822278Y-137155501D01*
X134780250Y-137016953D01*
X134712000Y-136889266D01*
X134620151Y-136777348D01*
X134508233Y-136685499D01*
X134380546Y-136617249D01*
X134241998Y-136575221D01*
X134134018Y-136564586D01*
X134097913Y-136561030D01*
X134061808Y-136564586D01*
X119934018Y-136564586D01*
X119897913Y-136561030D01*
X119861808Y-136564586D01*
X119753828Y-136575221D01*
X119615280Y-136617249D01*
X119487593Y-136685499D01*
X119375675Y-136777348D01*
X119283826Y-136889266D01*
X119215576Y-137016953D01*
X119173548Y-137155501D01*
X119159357Y-137299586D01*
X119162913Y-137335691D01*
X119162914Y-151348117D01*
X118943687Y-151201634D01*
X118381334Y-150968700D01*
X117784343Y-150849951D01*
X117175657Y-150849951D01*
X116578666Y-150968700D01*
X116016313Y-151201634D01*
X115782913Y-151357587D01*
X115782913Y-137335691D01*
X115786469Y-137299586D01*
X115772278Y-137155501D01*
X115730250Y-137016953D01*
X115662000Y-136889266D01*
X115570151Y-136777348D01*
X115458233Y-136685499D01*
X115330546Y-136617249D01*
X115191998Y-136575221D01*
X115084018Y-136564586D01*
X115047913Y-136561030D01*
X115011808Y-136564586D01*
X100884018Y-136564586D01*
X100847913Y-136561030D01*
X100811808Y-136564586D01*
X100703828Y-136575221D01*
X100565280Y-136617249D01*
X100437593Y-136685499D01*
X100325675Y-136777348D01*
X100233826Y-136889266D01*
X100165576Y-137016953D01*
X100123548Y-137155501D01*
X100109357Y-137299586D01*
X96736469Y-137299586D01*
X96722278Y-137155501D01*
X96680250Y-137016953D01*
X96612000Y-136889266D01*
X96520151Y-136777348D01*
X96408233Y-136685499D01*
X96280546Y-136617249D01*
X96141998Y-136575221D01*
X96034018Y-136564586D01*
X95997913Y-136561030D01*
X95961808Y-136564586D01*
X81834018Y-136564586D01*
X81797913Y-136561030D01*
X81761808Y-136564586D01*
X81653828Y-136575221D01*
X81515280Y-136617249D01*
X81387593Y-136685499D01*
X81275675Y-136777348D01*
X81183826Y-136889266D01*
X81115576Y-137016953D01*
X81073548Y-137155501D01*
X81059357Y-137299586D01*
X69115000Y-137299586D01*
X69115000Y-131536675D01*
X77644913Y-131536675D01*
X77648167Y-131569716D01*
X77648020Y-131590789D01*
X77649021Y-131601002D01*
X77717992Y-132257243D01*
X77731394Y-132322532D01*
X77743870Y-132387937D01*
X77746836Y-132397762D01*
X77941959Y-133028107D01*
X77967780Y-133089533D01*
X77992728Y-133151284D01*
X77997544Y-133160341D01*
X77997546Y-133160346D01*
X77997548Y-133160349D01*
X78311387Y-133740787D01*
X78348643Y-133796021D01*
X78385115Y-133851758D01*
X78391601Y-133859711D01*
X78812207Y-134368140D01*
X78859494Y-134415098D01*
X78906084Y-134462675D01*
X78913991Y-134469217D01*
X79425341Y-134886268D01*
X79480872Y-134923163D01*
X79535795Y-134960770D01*
X79544822Y-134965652D01*
X80127439Y-135275437D01*
X80189066Y-135300838D01*
X80250257Y-135327065D01*
X80260061Y-135330100D01*
X80891753Y-135520822D01*
X80957129Y-135533767D01*
X81022262Y-135547612D01*
X81032466Y-135548685D01*
X81032468Y-135548685D01*
X81689173Y-135613078D01*
X81689176Y-135613078D01*
X81724794Y-135616586D01*
X362785205Y-135616586D01*
X362820709Y-135613089D01*
X362850525Y-135613216D01*
X362860735Y-135612188D01*
X363516786Y-135541427D01*
X363582061Y-135527842D01*
X363647409Y-135515192D01*
X363657226Y-135512200D01*
X364287037Y-135315358D01*
X364348428Y-135289354D01*
X364410074Y-135264252D01*
X364419122Y-135259410D01*
X364998706Y-134943986D01*
X365053863Y-134906563D01*
X365109475Y-134869955D01*
X365117410Y-134863448D01*
X365624689Y-134441457D01*
X365671535Y-134394025D01*
X365718969Y-134347320D01*
X365725489Y-134339396D01*
X366141142Y-133826909D01*
X366177877Y-133771291D01*
X366215342Y-133716254D01*
X366220194Y-133707222D01*
X366220199Y-133707214D01*
X366220202Y-133707206D01*
X366528393Y-133123754D01*
X366553618Y-133062078D01*
X366579687Y-133000793D01*
X366582695Y-132990982D01*
X366771692Y-132358772D01*
X366784452Y-132293393D01*
X366798126Y-132228191D01*
X366799171Y-132217982D01*
X366861683Y-131562032D01*
X366865087Y-131527475D01*
X366864999Y-107843893D01*
X366861746Y-107810862D01*
X366861893Y-107789780D01*
X366860892Y-107779566D01*
X366791913Y-107123276D01*
X366778506Y-107057962D01*
X366766034Y-106992584D01*
X366763069Y-106982759D01*
X366567930Y-106352368D01*
X366542092Y-106290901D01*
X366517159Y-106229190D01*
X366512342Y-106220129D01*
X366198474Y-105639645D01*
X366161222Y-105584417D01*
X366124746Y-105528675D01*
X366118260Y-105520722D01*
X365697621Y-105012257D01*
X365650315Y-104965280D01*
X365603743Y-104917722D01*
X365595836Y-104911180D01*
X365084447Y-104494101D01*
X365028928Y-104457214D01*
X364973993Y-104419600D01*
X364964966Y-104414718D01*
X364382305Y-104104912D01*
X364320692Y-104079517D01*
X364259486Y-104053284D01*
X364249683Y-104050249D01*
X363617944Y-103859515D01*
X363552554Y-103846568D01*
X363487434Y-103832726D01*
X363477230Y-103831653D01*
X363477228Y-103831653D01*
X362822669Y-103767473D01*
X362784855Y-103763749D01*
X81725145Y-103763749D01*
X81692104Y-103767003D01*
X81671030Y-103766856D01*
X81660816Y-103767857D01*
X81004526Y-103836836D01*
X80939212Y-103850243D01*
X80873834Y-103862715D01*
X80864009Y-103865680D01*
X80233618Y-104060819D01*
X80172155Y-104086656D01*
X80110441Y-104111590D01*
X80101384Y-104116405D01*
X80101379Y-104116407D01*
X80101375Y-104116410D01*
X79520894Y-104430274D01*
X79465655Y-104467534D01*
X79409924Y-104504003D01*
X79401971Y-104510489D01*
X78893506Y-104931128D01*
X78846529Y-104978434D01*
X78798971Y-105025006D01*
X78792429Y-105032913D01*
X78375350Y-105544302D01*
X78338463Y-105599821D01*
X78300849Y-105654756D01*
X78295967Y-105663783D01*
X77986161Y-106246444D01*
X77960766Y-106308057D01*
X77934533Y-106369263D01*
X77931498Y-106379066D01*
X77740764Y-107010806D01*
X77727817Y-107076196D01*
X77713975Y-107141316D01*
X77712902Y-107151522D01*
X77648507Y-107808277D01*
X77644999Y-107843896D01*
X77645000Y-109431393D01*
X77644913Y-131536675D01*
X69115000Y-131536675D01*
X69115000Y-107899200D01*
X69192476Y-106491394D01*
X69420647Y-105120554D01*
X69797870Y-103783021D01*
X70319585Y-102494967D01*
X70979496Y-101271936D01*
X71769633Y-100128703D01*
X72660313Y-99102285D01*
X87915000Y-99102285D01*
X87915000Y-99857715D01*
X88062377Y-100598628D01*
X88351467Y-101296554D01*
X88771161Y-101924670D01*
X89305330Y-102458839D01*
X89933446Y-102878533D01*
X90631372Y-103167623D01*
X91372285Y-103315000D01*
X92127715Y-103315000D01*
X92868628Y-103167623D01*
X93566554Y-102878533D01*
X94194670Y-102458839D01*
X94728839Y-101924670D01*
X95148533Y-101296554D01*
X95437623Y-100598628D01*
X95585000Y-99857715D01*
X95585000Y-99102285D01*
X167925000Y-99102285D01*
X167925000Y-99857715D01*
X168072377Y-100598628D01*
X168361467Y-101296554D01*
X168781161Y-101924670D01*
X169315330Y-102458839D01*
X169943446Y-102878533D01*
X170641372Y-103167623D01*
X171382285Y-103315000D01*
X172137715Y-103315000D01*
X172878628Y-103167623D01*
X173576554Y-102878533D01*
X174204670Y-102458839D01*
X174738839Y-101924670D01*
X175158533Y-101296554D01*
X175447623Y-100598628D01*
X175595000Y-99857715D01*
X175595000Y-99122285D01*
X268915000Y-99122285D01*
X268915000Y-99877715D01*
X269062377Y-100618628D01*
X269351467Y-101316554D01*
X269771161Y-101944670D01*
X270305330Y-102478839D01*
X270933446Y-102898533D01*
X271631372Y-103187623D01*
X272372285Y-103335000D01*
X273127715Y-103335000D01*
X273868628Y-103187623D01*
X274566554Y-102898533D01*
X275194670Y-102478839D01*
X275728839Y-101944670D01*
X276148533Y-101316554D01*
X276437623Y-100618628D01*
X276585000Y-99877715D01*
X276585000Y-99122285D01*
X348915000Y-99122285D01*
X348915000Y-99877715D01*
X349062377Y-100618628D01*
X349351467Y-101316554D01*
X349771161Y-101944670D01*
X350305330Y-102478839D01*
X350933446Y-102898533D01*
X351631372Y-103187623D01*
X352372285Y-103335000D01*
X353127715Y-103335000D01*
X353868628Y-103187623D01*
X354566554Y-102898533D01*
X355194670Y-102478839D01*
X355728839Y-101944670D01*
X356148533Y-101316554D01*
X356437623Y-100618628D01*
X356585000Y-99877715D01*
X356585000Y-99122285D01*
X356437623Y-98381372D01*
X356148533Y-97683446D01*
X355728839Y-97055330D01*
X355194670Y-96521161D01*
X354566554Y-96101467D01*
X353868628Y-95812377D01*
X353127715Y-95665000D01*
X352372285Y-95665000D01*
X351631372Y-95812377D01*
X350933446Y-96101467D01*
X350305330Y-96521161D01*
X349771161Y-97055330D01*
X349351467Y-97683446D01*
X349062377Y-98381372D01*
X348915000Y-99122285D01*
X276585000Y-99122285D01*
X276437623Y-98381372D01*
X276148533Y-97683446D01*
X275728839Y-97055330D01*
X275194670Y-96521161D01*
X274566554Y-96101467D01*
X273868628Y-95812377D01*
X273127715Y-95665000D01*
X272372285Y-95665000D01*
X271631372Y-95812377D01*
X270933446Y-96101467D01*
X270305330Y-96521161D01*
X269771161Y-97055330D01*
X269351467Y-97683446D01*
X269062377Y-98381372D01*
X268915000Y-99122285D01*
X175595000Y-99122285D01*
X175595000Y-99102285D01*
X175447623Y-98361372D01*
X175158533Y-97663446D01*
X174738839Y-97035330D01*
X174204670Y-96501161D01*
X173576554Y-96081467D01*
X172878628Y-95792377D01*
X172137715Y-95645000D01*
X171382285Y-95645000D01*
X170641372Y-95792377D01*
X169943446Y-96081467D01*
X169315330Y-96501161D01*
X168781161Y-97035330D01*
X168361467Y-97663446D01*
X168072377Y-98361372D01*
X167925000Y-99102285D01*
X95585000Y-99102285D01*
X95437623Y-98361372D01*
X95148533Y-97663446D01*
X94728839Y-97035330D01*
X94194670Y-96501161D01*
X93566554Y-96081467D01*
X92868628Y-95792377D01*
X92127715Y-95645000D01*
X91372285Y-95645000D01*
X90631372Y-95792377D01*
X89933446Y-96081467D01*
X89305330Y-96501161D01*
X88771161Y-97035330D01*
X88351467Y-97663446D01*
X88062377Y-98361372D01*
X87915000Y-99102285D01*
X72660313Y-99102285D01*
X72680445Y-99079085D01*
X73700933Y-98135756D01*
X74818783Y-97310099D01*
X76020478Y-96612099D01*
X77291505Y-96050184D01*
X78616536Y-95631132D01*
X79979530Y-95360015D01*
X81378474Y-95238854D01*
X81767002Y-95232750D01*
X362728550Y-95232750D01*
X364136356Y-95310226D01*
M02*
