G04 #@! TF.GenerationSoftware,KiCad,Pcbnew,(5.1.6)-1*
G04 #@! TF.CreationDate,2020-06-16T17:00:21+02:00*
G04 #@! TF.ProjectId,punk75_plate,70756e6b-3735-45f7-906c-6174652e6b69,rev?*
G04 #@! TF.SameCoordinates,Original*
G04 #@! TF.FileFunction,Profile,NP*
%FSLAX46Y46*%
G04 Gerber Fmt 4.6, Leading zero omitted, Abs format (unit mm)*
G04 Created by KiCad (PCBNEW (5.1.6)-1) date 2020-06-16 17:00:21*
%MOMM*%
%LPD*%
G01*
G04 APERTURE LIST*
G04 #@! TA.AperFunction,Profile*
%ADD10C,0.200000*%
G04 #@! TD*
G04 APERTURE END LIST*
D10*
X171700000Y-175375000D02*
G75*
G02*
X172000000Y-175675000I0J-300000D01*
G01*
X272300000Y-150975000D02*
X272300000Y-137575000D01*
X133900000Y-156625000D02*
X133900000Y-170025000D01*
X158300000Y-189375000D02*
G75*
G02*
X158000000Y-189075000I0J300000D01*
G01*
X158300000Y-175375000D02*
X171700000Y-175375000D01*
X272600000Y-137275000D02*
X286000000Y-137275000D01*
X158000000Y-156625000D02*
G75*
G02*
X158300000Y-156325000I300000J0D01*
G01*
X158000000Y-170025000D02*
X158000000Y-156625000D01*
X272600000Y-151275000D02*
G75*
G02*
X272300000Y-150975000I0J300000D01*
G01*
X172000000Y-175675000D02*
X172000000Y-189075000D01*
X171700000Y-189375000D02*
X158300000Y-189375000D01*
X133900000Y-170025000D02*
G75*
G02*
X133600000Y-170325000I-300000J0D01*
G01*
X171700000Y-156325000D02*
G75*
G02*
X172000000Y-156625000I0J-300000D01*
G01*
X158300000Y-170325000D02*
G75*
G02*
X158000000Y-170025000I0J300000D01*
G01*
X172000000Y-189075000D02*
G75*
G02*
X171700000Y-189375000I-300000J0D01*
G01*
X158000000Y-175675000D02*
G75*
G02*
X158300000Y-175375000I300000J0D01*
G01*
X286000000Y-137275000D02*
G75*
G02*
X286300000Y-137575000I0J-300000D01*
G01*
X158000000Y-189075000D02*
X158000000Y-175675000D01*
X286000000Y-151275000D02*
X272600000Y-151275000D01*
X286300000Y-150975000D02*
G75*
G02*
X286000000Y-151275000I-300000J0D01*
G01*
X286300000Y-137575000D02*
X286300000Y-150975000D01*
X171700000Y-170325000D02*
X158300000Y-170325000D01*
X158300000Y-156325000D02*
X171700000Y-156325000D01*
X272300000Y-137575000D02*
G75*
G02*
X272600000Y-137275000I300000J0D01*
G01*
X253550000Y-151275000D02*
G75*
G02*
X253250000Y-150975000I0J300000D01*
G01*
X172000000Y-170025000D02*
G75*
G02*
X171700000Y-170325000I-300000J0D01*
G01*
X133600000Y-170325000D02*
X120200000Y-170325000D01*
X172000000Y-156625000D02*
X172000000Y-170025000D01*
X177050000Y-213775000D02*
G75*
G02*
X177350000Y-213475000I300000J0D01*
G01*
X362500000Y-156625000D02*
X362500000Y-170025000D01*
X362200000Y-156325000D02*
G75*
G02*
X362500000Y-156625000I0J-300000D01*
G01*
X120200000Y-175375000D02*
X133600000Y-175375000D01*
X305350000Y-137575000D02*
X305350000Y-150975000D01*
X348800000Y-156325000D02*
X362200000Y-156325000D01*
X348500000Y-156625000D02*
G75*
G02*
X348800000Y-156325000I300000J0D01*
G01*
X348500000Y-170025000D02*
X348500000Y-156625000D01*
X95800000Y-189075000D02*
G75*
G02*
X95500000Y-189375000I-300000J0D01*
G01*
X305350000Y-156625000D02*
X305350000Y-170025000D01*
X291650000Y-156325000D02*
X305050000Y-156325000D01*
X291350000Y-156625000D02*
G75*
G02*
X291650000Y-156325000I300000J0D01*
G01*
X291350000Y-170025000D02*
X291350000Y-156625000D01*
X119900000Y-189075000D02*
X119900000Y-175675000D01*
X324400000Y-170025000D02*
G75*
G02*
X324100000Y-170325000I-300000J0D01*
G01*
X310700000Y-156325000D02*
X324100000Y-156325000D01*
X324400000Y-156625000D02*
X324400000Y-170025000D01*
X177350000Y-227475000D02*
X266950000Y-227475000D01*
X266950000Y-213475000D02*
X177350000Y-213475000D01*
X177050000Y-213775000D02*
X177050000Y-227175000D01*
X253250000Y-137575000D02*
G75*
G02*
X253550000Y-137275000I300000J0D01*
G01*
X267250000Y-227175000D02*
X267250000Y-213775000D01*
X291350000Y-137575000D02*
G75*
G02*
X291650000Y-137275000I300000J0D01*
G01*
X266950000Y-213475000D02*
G75*
G02*
X267250000Y-213775000I0J-300000D01*
G01*
X305350000Y-150975000D02*
G75*
G02*
X305050000Y-151275000I-300000J0D01*
G01*
X133600000Y-189375000D02*
X120200000Y-189375000D01*
X348800000Y-170325000D02*
G75*
G02*
X348500000Y-170025000I0J300000D01*
G01*
X82100000Y-175375000D02*
X95500000Y-175375000D01*
X81800000Y-175675000D02*
G75*
G02*
X82100000Y-175375000I300000J0D01*
G01*
X82100000Y-189375000D02*
G75*
G02*
X81800000Y-189075000I0J300000D01*
G01*
X310700000Y-170325000D02*
G75*
G02*
X310400000Y-170025000I0J300000D01*
G01*
X120200000Y-189375000D02*
G75*
G02*
X119900000Y-189075000I0J300000D01*
G01*
X291650000Y-151275000D02*
G75*
G02*
X291350000Y-150975000I0J300000D01*
G01*
X324100000Y-156325000D02*
G75*
G02*
X324400000Y-156625000I0J-300000D01*
G01*
X267250000Y-227175000D02*
G75*
G02*
X266950000Y-227475000I-300000J0D01*
G01*
X291350000Y-150975000D02*
X291350000Y-137575000D01*
X81800000Y-189075000D02*
X81800000Y-175675000D01*
X95500000Y-189375000D02*
X82100000Y-189375000D01*
X253250000Y-150975000D02*
X253250000Y-137575000D01*
X95800000Y-175675000D02*
X95800000Y-189075000D01*
X305050000Y-170325000D02*
X291650000Y-170325000D01*
X253550000Y-137275000D02*
X266950000Y-137275000D01*
X305050000Y-151275000D02*
X291650000Y-151275000D01*
X324100000Y-170325000D02*
X310700000Y-170325000D01*
X267250000Y-150975000D02*
G75*
G02*
X266950000Y-151275000I-300000J0D01*
G01*
X305050000Y-156325000D02*
G75*
G02*
X305350000Y-156625000I0J-300000D01*
G01*
X266950000Y-151275000D02*
X253550000Y-151275000D01*
X291650000Y-137275000D02*
X305050000Y-137275000D01*
X266950000Y-137275000D02*
G75*
G02*
X267250000Y-137575000I0J-300000D01*
G01*
X133900000Y-189075000D02*
G75*
G02*
X133600000Y-189375000I-300000J0D01*
G01*
X177350000Y-151275000D02*
G75*
G02*
X177050000Y-150975000I0J300000D01*
G01*
X119900000Y-175675000D02*
G75*
G02*
X120200000Y-175375000I300000J0D01*
G01*
X305050000Y-137275000D02*
G75*
G02*
X305350000Y-137575000I0J-300000D01*
G01*
X362200000Y-170325000D02*
X348800000Y-170325000D01*
X305350000Y-170025000D02*
G75*
G02*
X305050000Y-170325000I-300000J0D01*
G01*
X362500000Y-170025000D02*
G75*
G02*
X362200000Y-170325000I-300000J0D01*
G01*
X95500000Y-175375000D02*
G75*
G02*
X95800000Y-175675000I0J-300000D01*
G01*
X291650000Y-170325000D02*
G75*
G02*
X291350000Y-170025000I0J300000D01*
G01*
X177350000Y-227475000D02*
G75*
G02*
X177050000Y-227175000I0J300000D01*
G01*
X267250000Y-137575000D02*
X267250000Y-150975000D01*
X133900000Y-175675000D02*
X133900000Y-189075000D01*
X310400000Y-156625000D02*
G75*
G02*
X310700000Y-156325000I300000J0D01*
G01*
X310400000Y-170025000D02*
X310400000Y-156625000D01*
X133600000Y-175375000D02*
G75*
G02*
X133900000Y-175675000I0J-300000D01*
G01*
X272232087Y-173006414D02*
G75*
G03*
X272232087Y-173006414I-2350000J0D01*
G01*
X348432087Y-211042914D02*
G75*
G03*
X348432087Y-211042914I-2350000J0D01*
G01*
X119832087Y-153915414D02*
G75*
G03*
X119832087Y-153915414I-2350000J0D01*
G01*
X82557087Y-104474163D02*
X81763337Y-104474163D01*
X366132174Y-131466787D02*
G75*
G02*
X362751187Y-134857000I-3380987J-9213D01*
G01*
X366132087Y-107855414D02*
X366132174Y-131466787D01*
X81762987Y-134857000D02*
G75*
G02*
X78382000Y-131475987I13J3381000D01*
G01*
X362751087Y-134857000D02*
X362751187Y-134857000D01*
X362750837Y-94474164D02*
G75*
G02*
X376132087Y-107855414I0J-13381250D01*
G01*
X362750837Y-104474164D02*
G75*
G02*
X366132087Y-107855414I0J-3381250D01*
G01*
X81763087Y-134857000D02*
X81762986Y-134857000D01*
X138882087Y-191992914D02*
G75*
G03*
X138882087Y-191992914I-2350000J0D01*
G01*
X176982087Y-172942914D02*
G75*
G03*
X176982087Y-172942914I-2350000J0D01*
G01*
X329382087Y-153905414D02*
G75*
G03*
X329382087Y-153905414I-2350000J0D01*
G01*
X362750837Y-104474163D02*
X82557087Y-104474163D01*
X215082087Y-211042914D02*
G75*
G03*
X215082087Y-211042914I-2350000J0D01*
G01*
X234132087Y-153956414D02*
G75*
G03*
X234132087Y-153956414I-2350000J0D01*
G01*
X78382086Y-109442914D02*
X78382000Y-131475987D01*
X78382086Y-107855414D02*
X78382086Y-109442914D01*
X78382086Y-107855414D02*
G75*
G02*
X81763337Y-104474163I3381251J0D01*
G01*
X229150000Y-170025000D02*
G75*
G02*
X228850000Y-170325000I-300000J0D01*
G01*
X228850000Y-156325000D02*
G75*
G02*
X229150000Y-156625000I0J-300000D01*
G01*
X215150000Y-137575000D02*
G75*
G02*
X215450000Y-137275000I300000J0D01*
G01*
X343150000Y-151275000D02*
X329750000Y-151275000D01*
X228850000Y-137275000D02*
G75*
G02*
X229150000Y-137575000I0J-300000D01*
G01*
X348500000Y-137575000D02*
G75*
G02*
X348800000Y-137275000I300000J0D01*
G01*
X228850000Y-170325000D02*
X215450000Y-170325000D01*
X215150000Y-156625000D02*
G75*
G02*
X215450000Y-156325000I300000J0D01*
G01*
X362751087Y-134857000D02*
X81763087Y-134857000D01*
X362200000Y-137275000D02*
G75*
G02*
X362500000Y-137575000I0J-300000D01*
G01*
X228850000Y-151275000D02*
X215450000Y-151275000D01*
X215450000Y-151275000D02*
G75*
G02*
X215150000Y-150975000I0J300000D01*
G01*
X362500000Y-150975000D02*
G75*
G02*
X362200000Y-151275000I-300000J0D01*
G01*
X215450000Y-156325000D02*
X228850000Y-156325000D01*
X348500000Y-150975000D02*
X348500000Y-137575000D01*
X229150000Y-150975000D02*
G75*
G02*
X228850000Y-151275000I-300000J0D01*
G01*
X215150000Y-170025000D02*
X215150000Y-156625000D01*
X215150000Y-150975000D02*
X215150000Y-137575000D01*
X229150000Y-137575000D02*
X229150000Y-150975000D01*
X348800000Y-137275000D02*
X362200000Y-137275000D01*
X343450000Y-137575000D02*
X343450000Y-150975000D01*
X362500000Y-137575000D02*
X362500000Y-150975000D01*
X343450000Y-150975000D02*
G75*
G02*
X343150000Y-151275000I-300000J0D01*
G01*
X215450000Y-170325000D02*
G75*
G02*
X215150000Y-170025000I0J300000D01*
G01*
X362200000Y-151275000D02*
X348800000Y-151275000D01*
X215450000Y-137275000D02*
X228850000Y-137275000D01*
X229150000Y-156625000D02*
X229150000Y-170025000D01*
X348800000Y-151275000D02*
G75*
G02*
X348500000Y-150975000I0J300000D01*
G01*
X329450000Y-137575000D02*
G75*
G02*
X329750000Y-137275000I300000J0D01*
G01*
X152950000Y-189075000D02*
G75*
G02*
X152650000Y-189375000I-300000J0D01*
G01*
X253250000Y-156625000D02*
G75*
G02*
X253550000Y-156325000I300000J0D01*
G01*
X196100000Y-156625000D02*
G75*
G02*
X196400000Y-156325000I300000J0D01*
G01*
X210100000Y-150975000D02*
G75*
G02*
X209800000Y-151275000I-300000J0D01*
G01*
X152650000Y-151275000D02*
X139250000Y-151275000D01*
X152950000Y-175675000D02*
X152950000Y-189075000D01*
X138950000Y-175675000D02*
G75*
G02*
X139250000Y-175375000I300000J0D01*
G01*
X119900000Y-150975000D02*
X119900000Y-137575000D01*
X133900000Y-137575000D02*
X133900000Y-150975000D01*
X152950000Y-137575000D02*
X152950000Y-150975000D01*
X133600000Y-137275000D02*
G75*
G02*
X133900000Y-137575000I0J-300000D01*
G01*
X209800000Y-156325000D02*
G75*
G02*
X210100000Y-156625000I0J-300000D01*
G01*
X139250000Y-151275000D02*
G75*
G02*
X138950000Y-150975000I0J300000D01*
G01*
X139250000Y-175375000D02*
X152650000Y-175375000D01*
X152950000Y-150975000D02*
G75*
G02*
X152650000Y-151275000I-300000J0D01*
G01*
X138950000Y-137575000D02*
G75*
G02*
X139250000Y-137275000I300000J0D01*
G01*
X196100000Y-170025000D02*
X196100000Y-156625000D01*
X210100000Y-137575000D02*
X210100000Y-150975000D01*
X248200000Y-156625000D02*
X248200000Y-170025000D01*
X247900000Y-170325000D02*
X234500000Y-170325000D01*
X267250000Y-170025000D02*
G75*
G02*
X266950000Y-170325000I-300000J0D01*
G01*
X343150000Y-137275000D02*
G75*
G02*
X343450000Y-137575000I0J-300000D01*
G01*
X329750000Y-137275000D02*
X343150000Y-137275000D01*
X100850000Y-189075000D02*
X100850000Y-175675000D01*
X209800000Y-151275000D02*
X196400000Y-151275000D01*
X152650000Y-137275000D02*
G75*
G02*
X152950000Y-137575000I0J-300000D01*
G01*
X329450000Y-150975000D02*
X329450000Y-137575000D01*
X152650000Y-189375000D02*
X139250000Y-189375000D01*
X152650000Y-175375000D02*
G75*
G02*
X152950000Y-175675000I0J-300000D01*
G01*
X139250000Y-189375000D02*
G75*
G02*
X138950000Y-189075000I0J300000D01*
G01*
X247900000Y-156325000D02*
G75*
G02*
X248200000Y-156625000I0J-300000D01*
G01*
X234500000Y-170325000D02*
G75*
G02*
X234200000Y-170025000I0J300000D01*
G01*
X100850000Y-175675000D02*
G75*
G02*
X101150000Y-175375000I300000J0D01*
G01*
X234500000Y-156325000D02*
X247900000Y-156325000D01*
X234200000Y-156625000D02*
G75*
G02*
X234500000Y-156325000I300000J0D01*
G01*
X139250000Y-137275000D02*
X152650000Y-137275000D01*
X210100000Y-156625000D02*
X210100000Y-170025000D01*
X234200000Y-170025000D02*
X234200000Y-156625000D01*
X138950000Y-150975000D02*
X138950000Y-137575000D01*
X101150000Y-175375000D02*
X114550000Y-175375000D01*
X119900000Y-137575000D02*
G75*
G02*
X120200000Y-137275000I300000J0D01*
G01*
X267250000Y-156625000D02*
X267250000Y-170025000D01*
X120200000Y-137275000D02*
X133600000Y-137275000D01*
X209800000Y-170325000D02*
X196400000Y-170325000D01*
X210100000Y-170025000D02*
G75*
G02*
X209800000Y-170325000I-300000J0D01*
G01*
X120200000Y-151275000D02*
G75*
G02*
X119900000Y-150975000I0J300000D01*
G01*
X114550000Y-175375000D02*
G75*
G02*
X114850000Y-175675000I0J-300000D01*
G01*
X329750000Y-151275000D02*
G75*
G02*
X329450000Y-150975000I0J300000D01*
G01*
X248200000Y-170025000D02*
G75*
G02*
X247900000Y-170325000I-300000J0D01*
G01*
X101150000Y-189375000D02*
G75*
G02*
X100850000Y-189075000I0J300000D01*
G01*
X133900000Y-150975000D02*
G75*
G02*
X133600000Y-151275000I-300000J0D01*
G01*
X253550000Y-156325000D02*
X266950000Y-156325000D01*
X196400000Y-156325000D02*
X209800000Y-156325000D01*
X133600000Y-151275000D02*
X120200000Y-151275000D01*
X266950000Y-156325000D02*
G75*
G02*
X267250000Y-156625000I0J-300000D01*
G01*
X253550000Y-170325000D02*
G75*
G02*
X253250000Y-170025000I0J300000D01*
G01*
X266950000Y-170325000D02*
X253550000Y-170325000D01*
X253250000Y-170025000D02*
X253250000Y-156625000D01*
X114850000Y-175675000D02*
X114850000Y-189075000D01*
X196400000Y-170325000D02*
G75*
G02*
X196100000Y-170025000I0J300000D01*
G01*
X114550000Y-189375000D02*
X101150000Y-189375000D01*
X114850000Y-189075000D02*
G75*
G02*
X114550000Y-189375000I-300000J0D01*
G01*
X138950000Y-189075000D02*
X138950000Y-175675000D01*
X310400000Y-150975000D02*
X310400000Y-137575000D01*
X234200000Y-189075000D02*
X234200000Y-175675000D01*
X215450000Y-189375000D02*
G75*
G02*
X215150000Y-189075000I0J300000D01*
G01*
X310700000Y-137275000D02*
X324100000Y-137275000D01*
X82100000Y-137275000D02*
X95500000Y-137275000D01*
X310700000Y-151275000D02*
G75*
G02*
X310400000Y-150975000I0J300000D01*
G01*
X81800000Y-137575000D02*
G75*
G02*
X82100000Y-137275000I300000J0D01*
G01*
X234500000Y-175375000D02*
X247900000Y-175375000D01*
X190750000Y-175375000D02*
G75*
G02*
X191050000Y-175675000I0J-300000D01*
G01*
X81800000Y-150975000D02*
X81800000Y-137575000D01*
X310400000Y-137575000D02*
G75*
G02*
X310700000Y-137275000I300000J0D01*
G01*
X95800000Y-150975000D02*
G75*
G02*
X95500000Y-151275000I-300000J0D01*
G01*
X95800000Y-137575000D02*
X95800000Y-150975000D01*
X82100000Y-151275000D02*
G75*
G02*
X81800000Y-150975000I0J300000D01*
G01*
X190750000Y-189375000D02*
X177350000Y-189375000D01*
X191050000Y-189075000D02*
G75*
G02*
X190750000Y-189375000I-300000J0D01*
G01*
X177050000Y-175675000D02*
G75*
G02*
X177350000Y-175375000I300000J0D01*
G01*
X215450000Y-175375000D02*
X228850000Y-175375000D01*
X215150000Y-175675000D02*
G75*
G02*
X215450000Y-175375000I300000J0D01*
G01*
X247900000Y-175375000D02*
G75*
G02*
X248200000Y-175675000I0J-300000D01*
G01*
X229150000Y-189075000D02*
G75*
G02*
X228850000Y-189375000I-300000J0D01*
G01*
X228850000Y-175375000D02*
G75*
G02*
X229150000Y-175675000I0J-300000D01*
G01*
X248200000Y-189075000D02*
G75*
G02*
X247900000Y-189375000I-300000J0D01*
G01*
X267250000Y-189075000D02*
G75*
G02*
X266950000Y-189375000I-300000J0D01*
G01*
X209800000Y-189375000D02*
X196400000Y-189375000D01*
X247900000Y-189375000D02*
X234500000Y-189375000D01*
X234200000Y-175675000D02*
G75*
G02*
X234500000Y-175375000I300000J0D01*
G01*
X209800000Y-175375000D02*
G75*
G02*
X210100000Y-175675000I0J-300000D01*
G01*
X196400000Y-175375000D02*
X209800000Y-175375000D01*
X177050000Y-189075000D02*
X177050000Y-175675000D01*
X196100000Y-189075000D02*
X196100000Y-175675000D01*
X209800000Y-137275000D02*
G75*
G02*
X210100000Y-137575000I0J-300000D01*
G01*
X196400000Y-137275000D02*
X209800000Y-137275000D01*
X234500000Y-189375000D02*
G75*
G02*
X234200000Y-189075000I0J300000D01*
G01*
X343450000Y-156625000D02*
X343450000Y-170025000D01*
X196100000Y-175675000D02*
G75*
G02*
X196400000Y-175375000I300000J0D01*
G01*
X248200000Y-175675000D02*
X248200000Y-189075000D01*
X196100000Y-137575000D02*
G75*
G02*
X196400000Y-137275000I300000J0D01*
G01*
X196100000Y-150975000D02*
X196100000Y-137575000D01*
X210100000Y-189075000D02*
G75*
G02*
X209800000Y-189375000I-300000J0D01*
G01*
X196400000Y-151275000D02*
G75*
G02*
X196100000Y-150975000I0J300000D01*
G01*
X177350000Y-189375000D02*
G75*
G02*
X177050000Y-189075000I0J300000D01*
G01*
X343150000Y-170325000D02*
X329750000Y-170325000D01*
X196400000Y-189375000D02*
G75*
G02*
X196100000Y-189075000I0J300000D01*
G01*
X191050000Y-175675000D02*
X191050000Y-189075000D01*
X177350000Y-175375000D02*
X190750000Y-175375000D01*
X229150000Y-175675000D02*
X229150000Y-189075000D01*
X343450000Y-170025000D02*
G75*
G02*
X343150000Y-170325000I-300000J0D01*
G01*
X343150000Y-156325000D02*
G75*
G02*
X343450000Y-156625000I0J-300000D01*
G01*
X329750000Y-156325000D02*
X343150000Y-156325000D01*
X266950000Y-189375000D02*
X253550000Y-189375000D01*
X329450000Y-156625000D02*
G75*
G02*
X329750000Y-156325000I300000J0D01*
G01*
X329450000Y-170025000D02*
X329450000Y-156625000D01*
X329750000Y-170325000D02*
G75*
G02*
X329450000Y-170025000I0J300000D01*
G01*
X228850000Y-189375000D02*
X215450000Y-189375000D01*
X324100000Y-151275000D02*
X310700000Y-151275000D01*
X95500000Y-151275000D02*
X82100000Y-151275000D01*
X210100000Y-175675000D02*
X210100000Y-189075000D01*
X215150000Y-189075000D02*
X215150000Y-175675000D01*
X324400000Y-150975000D02*
G75*
G02*
X324100000Y-151275000I-300000J0D01*
G01*
X267250000Y-175675000D02*
X267250000Y-189075000D01*
X324400000Y-137575000D02*
X324400000Y-150975000D01*
X324100000Y-137275000D02*
G75*
G02*
X324400000Y-137575000I0J-300000D01*
G01*
X95500000Y-137275000D02*
G75*
G02*
X95800000Y-137575000I0J-300000D01*
G01*
X266950000Y-175375000D02*
G75*
G02*
X267250000Y-175675000I0J-300000D01*
G01*
X253550000Y-175375000D02*
X266950000Y-175375000D01*
X310700000Y-175375000D02*
X324100000Y-175375000D01*
X253550000Y-189375000D02*
G75*
G02*
X253250000Y-189075000I0J300000D01*
G01*
X286000000Y-189375000D02*
X272600000Y-189375000D01*
X310400000Y-189075000D02*
X310400000Y-175675000D01*
X253250000Y-175675000D02*
G75*
G02*
X253550000Y-175375000I300000J0D01*
G01*
X305350000Y-175675000D02*
X305350000Y-189075000D01*
X253250000Y-189075000D02*
X253250000Y-175675000D01*
X310400000Y-175675000D02*
G75*
G02*
X310700000Y-175375000I300000J0D01*
G01*
X286300000Y-175675000D02*
X286300000Y-189075000D01*
X286000000Y-175375000D02*
G75*
G02*
X286300000Y-175675000I0J-300000D01*
G01*
X272600000Y-175375000D02*
X286000000Y-175375000D01*
X291350000Y-189075000D02*
X291350000Y-175675000D01*
X272300000Y-175675000D02*
G75*
G02*
X272600000Y-175375000I300000J0D01*
G01*
X291650000Y-189375000D02*
G75*
G02*
X291350000Y-189075000I0J300000D01*
G01*
X324400000Y-189075000D02*
G75*
G02*
X324100000Y-189375000I-300000J0D01*
G01*
X324100000Y-189375000D02*
X310700000Y-189375000D01*
X305050000Y-189375000D02*
X291650000Y-189375000D01*
X305350000Y-189075000D02*
G75*
G02*
X305050000Y-189375000I-300000J0D01*
G01*
X291650000Y-175375000D02*
X305050000Y-175375000D01*
X272600000Y-189375000D02*
G75*
G02*
X272300000Y-189075000I0J300000D01*
G01*
X305050000Y-175375000D02*
G75*
G02*
X305350000Y-175675000I0J-300000D01*
G01*
X291350000Y-175675000D02*
G75*
G02*
X291650000Y-175375000I300000J0D01*
G01*
X324100000Y-175375000D02*
G75*
G02*
X324400000Y-175675000I0J-300000D01*
G01*
X286300000Y-189075000D02*
G75*
G02*
X286000000Y-189375000I-300000J0D01*
G01*
X272300000Y-189075000D02*
X272300000Y-175675000D01*
X324400000Y-175675000D02*
X324400000Y-189075000D01*
X190750000Y-208425000D02*
X177350000Y-208425000D01*
X172000000Y-194725000D02*
X172000000Y-208125000D01*
X152650000Y-194425000D02*
G75*
G02*
X152950000Y-194725000I0J-300000D01*
G01*
X329750000Y-189375000D02*
G75*
G02*
X329450000Y-189075000I0J300000D01*
G01*
X362500000Y-175675000D02*
X362500000Y-189075000D01*
X348800000Y-175375000D02*
X362200000Y-175375000D01*
X95800000Y-208125000D02*
G75*
G02*
X95500000Y-208425000I-300000J0D01*
G01*
X171700000Y-208425000D02*
X158300000Y-208425000D01*
X82100000Y-208425000D02*
G75*
G02*
X81800000Y-208125000I0J300000D01*
G01*
X95800000Y-194725000D02*
X95800000Y-208125000D01*
X95500000Y-194425000D02*
G75*
G02*
X95800000Y-194725000I0J-300000D01*
G01*
X82100000Y-194425000D02*
X95500000Y-194425000D01*
X81800000Y-194725000D02*
G75*
G02*
X82100000Y-194425000I300000J0D01*
G01*
X114850000Y-208125000D02*
G75*
G02*
X114550000Y-208425000I-300000J0D01*
G01*
X158300000Y-208425000D02*
G75*
G02*
X158000000Y-208125000I0J300000D01*
G01*
X177050000Y-208125000D02*
X177050000Y-194725000D01*
X101150000Y-194425000D02*
X114550000Y-194425000D01*
X152650000Y-208425000D02*
X139250000Y-208425000D01*
X152950000Y-208125000D02*
G75*
G02*
X152650000Y-208425000I-300000J0D01*
G01*
X139250000Y-208425000D02*
G75*
G02*
X138950000Y-208125000I0J300000D01*
G01*
X119900000Y-194725000D02*
G75*
G02*
X120200000Y-194425000I300000J0D01*
G01*
X158000000Y-194725000D02*
G75*
G02*
X158300000Y-194425000I300000J0D01*
G01*
X120200000Y-208425000D02*
G75*
G02*
X119900000Y-208125000I0J300000D01*
G01*
X138950000Y-194725000D02*
G75*
G02*
X139250000Y-194425000I300000J0D01*
G01*
X177350000Y-194425000D02*
X190750000Y-194425000D01*
X139250000Y-194425000D02*
X152650000Y-194425000D01*
X172000000Y-208125000D02*
G75*
G02*
X171700000Y-208425000I-300000J0D01*
G01*
X101150000Y-208425000D02*
G75*
G02*
X100850000Y-208125000I0J300000D01*
G01*
X133600000Y-208425000D02*
X120200000Y-208425000D01*
X114850000Y-194725000D02*
X114850000Y-208125000D01*
X133900000Y-194725000D02*
X133900000Y-208125000D01*
X191050000Y-194725000D02*
X191050000Y-208125000D01*
X95500000Y-208425000D02*
X82100000Y-208425000D01*
X171700000Y-194425000D02*
G75*
G02*
X172000000Y-194725000I0J-300000D01*
G01*
X158000000Y-208125000D02*
X158000000Y-194725000D01*
X133900000Y-208125000D02*
G75*
G02*
X133600000Y-208425000I-300000J0D01*
G01*
X138950000Y-208125000D02*
X138950000Y-194725000D01*
X362200000Y-175375000D02*
G75*
G02*
X362500000Y-175675000I0J-300000D01*
G01*
X348500000Y-189075000D02*
X348500000Y-175675000D01*
X100850000Y-194725000D02*
G75*
G02*
X101150000Y-194425000I300000J0D01*
G01*
X348800000Y-189375000D02*
G75*
G02*
X348500000Y-189075000I0J300000D01*
G01*
X114550000Y-194425000D02*
G75*
G02*
X114850000Y-194725000I0J-300000D01*
G01*
X190750000Y-194425000D02*
G75*
G02*
X191050000Y-194725000I0J-300000D01*
G01*
X133600000Y-194425000D02*
G75*
G02*
X133900000Y-194725000I0J-300000D01*
G01*
X81800000Y-208125000D02*
X81800000Y-194725000D01*
X114550000Y-208425000D02*
X101150000Y-208425000D01*
X119900000Y-208125000D02*
X119900000Y-194725000D01*
X343150000Y-189375000D02*
X329750000Y-189375000D01*
X310700000Y-189375000D02*
G75*
G02*
X310400000Y-189075000I0J300000D01*
G01*
X343450000Y-189075000D02*
G75*
G02*
X343150000Y-189375000I-300000J0D01*
G01*
X158300000Y-194425000D02*
X171700000Y-194425000D01*
X343450000Y-175675000D02*
X343450000Y-189075000D01*
X343150000Y-175375000D02*
G75*
G02*
X343450000Y-175675000I0J-300000D01*
G01*
X362200000Y-189375000D02*
X348800000Y-189375000D01*
X120200000Y-194425000D02*
X133600000Y-194425000D01*
X329750000Y-175375000D02*
X343150000Y-175375000D01*
X177050000Y-194725000D02*
G75*
G02*
X177350000Y-194425000I300000J0D01*
G01*
X100850000Y-208125000D02*
X100850000Y-194725000D01*
X152950000Y-194725000D02*
X152950000Y-208125000D01*
X329450000Y-175675000D02*
G75*
G02*
X329750000Y-175375000I300000J0D01*
G01*
X329450000Y-189075000D02*
X329450000Y-175675000D01*
X348500000Y-175675000D02*
G75*
G02*
X348800000Y-175375000I300000J0D01*
G01*
X362500000Y-189075000D02*
G75*
G02*
X362200000Y-189375000I-300000J0D01*
G01*
X191050000Y-208125000D02*
G75*
G02*
X190750000Y-208425000I-300000J0D01*
G01*
X133600000Y-227475000D02*
X120200000Y-227475000D01*
X114850000Y-227175000D02*
G75*
G02*
X114550000Y-227475000I-300000J0D01*
G01*
X114550000Y-227475000D02*
X101150000Y-227475000D01*
X100850000Y-227175000D02*
X100850000Y-213775000D01*
X95500000Y-227475000D02*
X82100000Y-227475000D01*
X362200000Y-194425000D02*
G75*
G02*
X362500000Y-194725000I0J-300000D01*
G01*
X348500000Y-208125000D02*
X348500000Y-194725000D01*
X81800000Y-213775000D02*
G75*
G02*
X82100000Y-213475000I300000J0D01*
G01*
X100850000Y-213775000D02*
G75*
G02*
X101150000Y-213475000I300000J0D01*
G01*
X114850000Y-213775000D02*
X114850000Y-227175000D01*
X114550000Y-213475000D02*
G75*
G02*
X114850000Y-213775000I0J-300000D01*
G01*
X101150000Y-227475000D02*
G75*
G02*
X100850000Y-227175000I0J300000D01*
G01*
X348800000Y-194425000D02*
X362200000Y-194425000D01*
X82100000Y-213475000D02*
X95500000Y-213475000D01*
X133900000Y-227175000D02*
G75*
G02*
X133600000Y-227475000I-300000J0D01*
G01*
X81800000Y-227175000D02*
X81800000Y-213775000D01*
X101150000Y-213475000D02*
X114550000Y-213475000D01*
X329750000Y-208425000D02*
G75*
G02*
X329450000Y-208125000I0J300000D01*
G01*
X362200000Y-208425000D02*
X348800000Y-208425000D01*
X362500000Y-208125000D02*
G75*
G02*
X362200000Y-208425000I-300000J0D01*
G01*
X362500000Y-194725000D02*
X362500000Y-208125000D01*
X348500000Y-194725000D02*
G75*
G02*
X348800000Y-194425000I300000J0D01*
G01*
X133900000Y-213775000D02*
X133900000Y-227175000D01*
X82100000Y-227475000D02*
G75*
G02*
X81800000Y-227175000I0J300000D01*
G01*
X348800000Y-208425000D02*
G75*
G02*
X348500000Y-208125000I0J300000D01*
G01*
X95800000Y-227175000D02*
G75*
G02*
X95500000Y-227475000I-300000J0D01*
G01*
X95800000Y-213775000D02*
X95800000Y-227175000D01*
X95500000Y-213475000D02*
G75*
G02*
X95800000Y-213775000I0J-300000D01*
G01*
X329750000Y-194425000D02*
X343150000Y-194425000D01*
X272300000Y-208125000D02*
X272300000Y-194725000D01*
X177350000Y-208425000D02*
G75*
G02*
X177050000Y-208125000I0J300000D01*
G01*
X209800000Y-208425000D02*
X196400000Y-208425000D01*
X247900000Y-208425000D02*
X234500000Y-208425000D01*
X247900000Y-194425000D02*
G75*
G02*
X248200000Y-194725000I0J-300000D01*
G01*
X286000000Y-208425000D02*
X272600000Y-208425000D01*
X310400000Y-194725000D02*
G75*
G02*
X310700000Y-194425000I300000J0D01*
G01*
X266950000Y-194425000D02*
G75*
G02*
X267250000Y-194725000I0J-300000D01*
G01*
X329450000Y-194725000D02*
G75*
G02*
X329750000Y-194425000I300000J0D01*
G01*
X210100000Y-208125000D02*
G75*
G02*
X209800000Y-208425000I-300000J0D01*
G01*
X248200000Y-194725000D02*
X248200000Y-208125000D01*
X305350000Y-194725000D02*
X305350000Y-208125000D01*
X343150000Y-194425000D02*
G75*
G02*
X343450000Y-194725000I0J-300000D01*
G01*
X291350000Y-194725000D02*
G75*
G02*
X291650000Y-194425000I300000J0D01*
G01*
X324400000Y-208125000D02*
G75*
G02*
X324100000Y-208425000I-300000J0D01*
G01*
X196100000Y-208125000D02*
X196100000Y-194725000D01*
X248200000Y-208125000D02*
G75*
G02*
X247900000Y-208425000I-300000J0D01*
G01*
X324400000Y-194725000D02*
X324400000Y-208125000D01*
X324100000Y-208425000D02*
X310700000Y-208425000D01*
X305350000Y-208125000D02*
G75*
G02*
X305050000Y-208425000I-300000J0D01*
G01*
X310700000Y-208425000D02*
G75*
G02*
X310400000Y-208125000I0J300000D01*
G01*
X234200000Y-208125000D02*
X234200000Y-194725000D01*
X234500000Y-208425000D02*
G75*
G02*
X234200000Y-208125000I0J300000D01*
G01*
X196400000Y-194425000D02*
X209800000Y-194425000D01*
X267250000Y-208125000D02*
G75*
G02*
X266950000Y-208425000I-300000J0D01*
G01*
X234200000Y-194725000D02*
G75*
G02*
X234500000Y-194425000I300000J0D01*
G01*
X253250000Y-208125000D02*
X253250000Y-194725000D01*
X310700000Y-194425000D02*
X324100000Y-194425000D01*
X291650000Y-208425000D02*
G75*
G02*
X291350000Y-208125000I0J300000D01*
G01*
X343150000Y-208425000D02*
X329750000Y-208425000D01*
X196100000Y-194725000D02*
G75*
G02*
X196400000Y-194425000I300000J0D01*
G01*
X229150000Y-194725000D02*
X229150000Y-208125000D01*
X272600000Y-194425000D02*
X286000000Y-194425000D01*
X228850000Y-194425000D02*
G75*
G02*
X229150000Y-194725000I0J-300000D01*
G01*
X291350000Y-208125000D02*
X291350000Y-194725000D01*
X215150000Y-194725000D02*
G75*
G02*
X215450000Y-194425000I300000J0D01*
G01*
X286000000Y-194425000D02*
G75*
G02*
X286300000Y-194725000I0J-300000D01*
G01*
X305050000Y-194425000D02*
G75*
G02*
X305350000Y-194725000I0J-300000D01*
G01*
X343450000Y-208125000D02*
G75*
G02*
X343150000Y-208425000I-300000J0D01*
G01*
X329450000Y-208125000D02*
X329450000Y-194725000D01*
X215450000Y-194425000D02*
X228850000Y-194425000D01*
X253550000Y-208425000D02*
G75*
G02*
X253250000Y-208125000I0J300000D01*
G01*
X286300000Y-194725000D02*
X286300000Y-208125000D01*
X305050000Y-208425000D02*
X291650000Y-208425000D01*
X343450000Y-194725000D02*
X343450000Y-208125000D01*
X228850000Y-208425000D02*
X215450000Y-208425000D01*
X234500000Y-194425000D02*
X247900000Y-194425000D01*
X310400000Y-208125000D02*
X310400000Y-194725000D01*
X210100000Y-194725000D02*
X210100000Y-208125000D01*
X209800000Y-194425000D02*
G75*
G02*
X210100000Y-194725000I0J-300000D01*
G01*
X196400000Y-208425000D02*
G75*
G02*
X196100000Y-208125000I0J300000D01*
G01*
X272300000Y-194725000D02*
G75*
G02*
X272600000Y-194425000I300000J0D01*
G01*
X253550000Y-194425000D02*
X266950000Y-194425000D01*
X229150000Y-208125000D02*
G75*
G02*
X228850000Y-208425000I-300000J0D01*
G01*
X215150000Y-208125000D02*
X215150000Y-194725000D01*
X215450000Y-208425000D02*
G75*
G02*
X215150000Y-208125000I0J300000D01*
G01*
X291650000Y-194425000D02*
X305050000Y-194425000D01*
X266950000Y-208425000D02*
X253550000Y-208425000D01*
X267250000Y-194725000D02*
X267250000Y-208125000D01*
X324100000Y-194425000D02*
G75*
G02*
X324400000Y-194725000I0J-300000D01*
G01*
X286300000Y-208125000D02*
G75*
G02*
X286000000Y-208425000I-300000J0D01*
G01*
X253250000Y-194725000D02*
G75*
G02*
X253550000Y-194425000I300000J0D01*
G01*
X272600000Y-208425000D02*
G75*
G02*
X272300000Y-208125000I0J300000D01*
G01*
X158300000Y-151275000D02*
G75*
G02*
X158000000Y-150975000I0J300000D01*
G01*
X191050000Y-150975000D02*
G75*
G02*
X190750000Y-151275000I-300000J0D01*
G01*
X190750000Y-156325000D02*
G75*
G02*
X191050000Y-156625000I0J-300000D01*
G01*
X177050000Y-150975000D02*
X177050000Y-137575000D01*
X101150000Y-151275000D02*
G75*
G02*
X100850000Y-150975000I0J300000D01*
G01*
X171700000Y-137275000D02*
G75*
G02*
X172000000Y-137575000I0J-300000D01*
G01*
X158000000Y-150975000D02*
X158000000Y-137575000D01*
X190750000Y-137275000D02*
G75*
G02*
X191050000Y-137575000I0J-300000D01*
G01*
X190750000Y-170325000D02*
X177350000Y-170325000D01*
X177050000Y-156625000D02*
G75*
G02*
X177350000Y-156325000I300000J0D01*
G01*
X172000000Y-150975000D02*
G75*
G02*
X171700000Y-151275000I-300000J0D01*
G01*
X177350000Y-170325000D02*
G75*
G02*
X177050000Y-170025000I0J300000D01*
G01*
X158300000Y-137275000D02*
X171700000Y-137275000D01*
X191050000Y-137575000D02*
X191050000Y-150975000D01*
X114550000Y-137275000D02*
G75*
G02*
X114850000Y-137575000I0J-300000D01*
G01*
X177350000Y-156325000D02*
X190750000Y-156325000D01*
X177350000Y-137275000D02*
X190750000Y-137275000D01*
X171700000Y-151275000D02*
X158300000Y-151275000D01*
X172000000Y-137575000D02*
X172000000Y-150975000D01*
X101150000Y-137275000D02*
X114550000Y-137275000D01*
X100850000Y-137575000D02*
G75*
G02*
X101150000Y-137275000I300000J0D01*
G01*
X100850000Y-150975000D02*
X100850000Y-137575000D01*
X177050000Y-170025000D02*
X177050000Y-156625000D01*
X177050000Y-137575000D02*
G75*
G02*
X177350000Y-137275000I300000J0D01*
G01*
X191050000Y-170025000D02*
G75*
G02*
X190750000Y-170325000I-300000J0D01*
G01*
X191050000Y-156625000D02*
X191050000Y-170025000D01*
X158000000Y-137575000D02*
G75*
G02*
X158300000Y-137275000I300000J0D01*
G01*
X190750000Y-151275000D02*
X177350000Y-151275000D01*
X324100000Y-213475000D02*
G75*
G02*
X324400000Y-213775000I0J-300000D01*
G01*
X329750000Y-213475000D02*
X343150000Y-213475000D01*
X133600000Y-213475000D02*
G75*
G02*
X133900000Y-213775000I0J-300000D01*
G01*
X120200000Y-213475000D02*
X133600000Y-213475000D01*
X119900000Y-213775000D02*
G75*
G02*
X120200000Y-213475000I300000J0D01*
G01*
X272300000Y-227175000D02*
X272300000Y-213775000D01*
X152950000Y-213775000D02*
X152950000Y-227175000D01*
X310400000Y-227175000D02*
X310400000Y-213775000D01*
X324400000Y-227175000D02*
G75*
G02*
X324100000Y-227475000I-300000J0D01*
G01*
X305350000Y-227175000D02*
G75*
G02*
X305050000Y-227475000I-300000J0D01*
G01*
X119900000Y-227175000D02*
X119900000Y-213775000D01*
X305050000Y-227475000D02*
X291650000Y-227475000D01*
X362200000Y-227475000D02*
X348800000Y-227475000D01*
X138950000Y-213775000D02*
G75*
G02*
X139250000Y-213475000I300000J0D01*
G01*
X362200000Y-213475000D02*
G75*
G02*
X362500000Y-213775000I0J-300000D01*
G01*
X348800000Y-227475000D02*
G75*
G02*
X348500000Y-227175000I0J300000D01*
G01*
X120200000Y-227475000D02*
G75*
G02*
X119900000Y-227175000I0J300000D01*
G01*
X158300000Y-213475000D02*
X171700000Y-213475000D01*
X114550000Y-151275000D02*
X101150000Y-151275000D01*
X348500000Y-227175000D02*
X348500000Y-213775000D01*
X329750000Y-227475000D02*
G75*
G02*
X329450000Y-227175000I0J300000D01*
G01*
X272600000Y-227475000D02*
G75*
G02*
X272300000Y-227175000I0J300000D01*
G01*
X291650000Y-213475000D02*
X305050000Y-213475000D01*
X291350000Y-213775000D02*
G75*
G02*
X291650000Y-213475000I300000J0D01*
G01*
X152650000Y-213475000D02*
G75*
G02*
X152950000Y-213775000I0J-300000D01*
G01*
X291650000Y-227475000D02*
G75*
G02*
X291350000Y-227175000I0J300000D01*
G01*
X305050000Y-213475000D02*
G75*
G02*
X305350000Y-213775000I0J-300000D01*
G01*
X310700000Y-213475000D02*
X324100000Y-213475000D01*
X114850000Y-137575000D02*
X114850000Y-150975000D01*
X152650000Y-227475000D02*
X139250000Y-227475000D01*
X348500000Y-213775000D02*
G75*
G02*
X348800000Y-213475000I300000J0D01*
G01*
X152950000Y-227175000D02*
G75*
G02*
X152650000Y-227475000I-300000J0D01*
G01*
X286000000Y-227475000D02*
X272600000Y-227475000D01*
X343450000Y-213775000D02*
X343450000Y-227175000D01*
X139250000Y-213475000D02*
X152650000Y-213475000D01*
X348800000Y-213475000D02*
X362200000Y-213475000D01*
X138950000Y-227175000D02*
X138950000Y-213775000D01*
X286300000Y-227175000D02*
G75*
G02*
X286000000Y-227475000I-300000J0D01*
G01*
X362500000Y-227175000D02*
G75*
G02*
X362200000Y-227475000I-300000J0D01*
G01*
X286000000Y-213475000D02*
G75*
G02*
X286300000Y-213775000I0J-300000D01*
G01*
X343450000Y-227175000D02*
G75*
G02*
X343150000Y-227475000I-300000J0D01*
G01*
X286300000Y-213775000D02*
X286300000Y-227175000D01*
X310400000Y-213775000D02*
G75*
G02*
X310700000Y-213475000I300000J0D01*
G01*
X172000000Y-213775000D02*
X172000000Y-227175000D01*
X329450000Y-227175000D02*
X329450000Y-213775000D01*
X343150000Y-227475000D02*
X329750000Y-227475000D01*
X171700000Y-213475000D02*
G75*
G02*
X172000000Y-213775000I0J-300000D01*
G01*
X305350000Y-213775000D02*
X305350000Y-227175000D01*
X158000000Y-227175000D02*
X158000000Y-213775000D01*
X139250000Y-227475000D02*
G75*
G02*
X138950000Y-227175000I0J300000D01*
G01*
X172000000Y-227175000D02*
G75*
G02*
X171700000Y-227475000I-300000J0D01*
G01*
X158000000Y-213775000D02*
G75*
G02*
X158300000Y-213475000I300000J0D01*
G01*
X343150000Y-213475000D02*
G75*
G02*
X343450000Y-213775000I0J-300000D01*
G01*
X324400000Y-213775000D02*
X324400000Y-227175000D01*
X171700000Y-227475000D02*
X158300000Y-227475000D01*
X158300000Y-227475000D02*
G75*
G02*
X158000000Y-227175000I0J300000D01*
G01*
X272300000Y-213775000D02*
G75*
G02*
X272600000Y-213475000I300000J0D01*
G01*
X362500000Y-213775000D02*
X362500000Y-227175000D01*
X291350000Y-227175000D02*
X291350000Y-213775000D01*
X324100000Y-227475000D02*
X310700000Y-227475000D01*
X114850000Y-150975000D02*
G75*
G02*
X114550000Y-151275000I-300000J0D01*
G01*
X310700000Y-227475000D02*
G75*
G02*
X310400000Y-227175000I0J300000D01*
G01*
X272600000Y-213475000D02*
X286000000Y-213475000D01*
X329450000Y-213775000D02*
G75*
G02*
X329750000Y-213475000I300000J0D01*
G01*
X138950000Y-170025000D02*
X138950000Y-156625000D01*
X95500000Y-170325000D02*
X82100000Y-170325000D01*
X114850000Y-156625000D02*
X114850000Y-170025000D01*
X152950000Y-156625000D02*
X152950000Y-170025000D01*
X234200000Y-150975000D02*
X234200000Y-137575000D01*
X286300000Y-156625000D02*
X286300000Y-170025000D01*
X138950000Y-156625000D02*
G75*
G02*
X139250000Y-156325000I300000J0D01*
G01*
X95800000Y-156625000D02*
X95800000Y-170025000D01*
X81800000Y-156625000D02*
G75*
G02*
X82100000Y-156325000I300000J0D01*
G01*
X286300000Y-170025000D02*
G75*
G02*
X286000000Y-170325000I-300000J0D01*
G01*
X248200000Y-137575000D02*
X248200000Y-150975000D01*
X234500000Y-151275000D02*
G75*
G02*
X234200000Y-150975000I0J300000D01*
G01*
X81800000Y-170025000D02*
X81800000Y-156625000D01*
X272300000Y-156625000D02*
G75*
G02*
X272600000Y-156325000I300000J0D01*
G01*
X272600000Y-170325000D02*
G75*
G02*
X272300000Y-170025000I0J300000D01*
G01*
X101150000Y-156325000D02*
X114550000Y-156325000D01*
X100850000Y-170025000D02*
X100850000Y-156625000D01*
X152650000Y-170325000D02*
X139250000Y-170325000D01*
X152650000Y-156325000D02*
G75*
G02*
X152950000Y-156625000I0J-300000D01*
G01*
X95800000Y-170025000D02*
G75*
G02*
X95500000Y-170325000I-300000J0D01*
G01*
X234200000Y-137575000D02*
G75*
G02*
X234500000Y-137275000I300000J0D01*
G01*
X272600000Y-156325000D02*
X286000000Y-156325000D01*
X120200000Y-170325000D02*
G75*
G02*
X119900000Y-170025000I0J300000D01*
G01*
X133600000Y-156325000D02*
G75*
G02*
X133900000Y-156625000I0J-300000D01*
G01*
X247900000Y-137275000D02*
G75*
G02*
X248200000Y-137575000I0J-300000D01*
G01*
X114550000Y-156325000D02*
G75*
G02*
X114850000Y-156625000I0J-300000D01*
G01*
X95500000Y-156325000D02*
G75*
G02*
X95800000Y-156625000I0J-300000D01*
G01*
X100782087Y-211042914D02*
G75*
G03*
X100782087Y-211042914I-2350000J0D01*
G01*
X120200000Y-156325000D02*
X133600000Y-156325000D01*
X119900000Y-156625000D02*
G75*
G02*
X120200000Y-156325000I300000J0D01*
G01*
X152950000Y-170025000D02*
G75*
G02*
X152650000Y-170325000I-300000J0D01*
G01*
X101150000Y-170325000D02*
G75*
G02*
X100850000Y-170025000I0J300000D01*
G01*
X286000000Y-170325000D02*
X272600000Y-170325000D01*
X82100000Y-170325000D02*
G75*
G02*
X81800000Y-170025000I0J300000D01*
G01*
X247900000Y-151275000D02*
X234500000Y-151275000D01*
X119900000Y-170025000D02*
X119900000Y-156625000D01*
X100850000Y-156625000D02*
G75*
G02*
X101150000Y-156325000I300000J0D01*
G01*
X272300000Y-170025000D02*
X272300000Y-156625000D01*
X82100000Y-156325000D02*
X95500000Y-156325000D01*
X114550000Y-170325000D02*
X101150000Y-170325000D01*
X234500000Y-137275000D02*
X247900000Y-137275000D01*
X248200000Y-150975000D02*
G75*
G02*
X247900000Y-151275000I-300000J0D01*
G01*
X114850000Y-170025000D02*
G75*
G02*
X114550000Y-170325000I-300000J0D01*
G01*
X139250000Y-170325000D02*
G75*
G02*
X138950000Y-170025000I0J300000D01*
G01*
X139250000Y-156325000D02*
X152650000Y-156325000D01*
X286000000Y-156325000D02*
G75*
G02*
X286300000Y-156625000I0J-300000D01*
G01*
X174311249Y-236117500D02*
G75*
G03*
X174311249Y-236117500I-2549999J0D01*
G01*
X355298750Y-236117500D02*
G75*
G03*
X355298750Y-236117500I-2550000J0D01*
G01*
X275298750Y-236117500D02*
G75*
G03*
X275298750Y-236117500I-2550000J0D01*
G01*
X94311250Y-236117500D02*
G75*
G03*
X94311250Y-236117500I-2550000J0D01*
G01*
X275298750Y-99498750D02*
G75*
G03*
X275298750Y-99498750I-2550000J0D01*
G01*
X94311250Y-99498750D02*
G75*
G03*
X94311250Y-99498750I-2550000J0D01*
G01*
X174311249Y-99498750D02*
G75*
G03*
X174311249Y-99498750I-2549999J0D01*
G01*
X355298750Y-99498750D02*
G75*
G03*
X355298750Y-99498750I-2550000J0D01*
G01*
X376130000Y-227735250D02*
X376132087Y-107855414D01*
X376130000Y-227735250D02*
G75*
G02*
X362748750Y-241116500I-13381250J0D01*
G01*
X68380000Y-107879000D02*
G75*
G02*
X81761250Y-94497750I13381250J0D01*
G01*
X362750837Y-94474164D02*
X82555000Y-94497750D01*
X82555000Y-94497750D02*
X81761250Y-94497750D01*
X81761250Y-241116500D02*
X362748750Y-241116500D01*
X68380000Y-109466500D02*
X68380000Y-227735250D01*
X81761250Y-241116500D02*
G75*
G02*
X68380000Y-227735250I0J13381250D01*
G01*
X68380000Y-107879000D02*
X68380000Y-109466500D01*
M02*
