G04 #@! TF.GenerationSoftware,KiCad,Pcbnew,5.1.6*
G04 #@! TF.CreationDate,2020-06-22T06:58:59+02:00*
G04 #@! TF.ProjectId,punk75_plate,70756e6b-3735-45f7-906c-6174652e6b69,rev?*
G04 #@! TF.SameCoordinates,Original*
G04 #@! TF.FileFunction,Soldermask,Bot*
G04 #@! TF.FilePolarity,Negative*
%FSLAX46Y46*%
G04 Gerber Fmt 4.6, Leading zero omitted, Abs format (unit mm)*
G04 Created by KiCad (PCBNEW 5.1.6) date 2020-06-22 06:58:59*
%MOMM*%
%LPD*%
G01*
G04 APERTURE LIST*
%ADD10C,0.100000*%
G04 APERTURE END LIST*
D10*
G36*
X274004554Y-231994284D02*
G01*
X274763146Y-232308503D01*
X274787288Y-232318503D01*
X275491728Y-232789195D01*
X276090805Y-233388272D01*
X276561497Y-234092712D01*
X276561498Y-234092714D01*
X276885716Y-234875446D01*
X277051000Y-235706387D01*
X277051000Y-236553613D01*
X276885716Y-237384554D01*
X276885715Y-237384556D01*
X276561497Y-238167288D01*
X276090805Y-238871728D01*
X275491728Y-239470805D01*
X274787288Y-239941497D01*
X274787287Y-239941498D01*
X274787286Y-239941498D01*
X274004554Y-240265716D01*
X273173613Y-240431000D01*
X272326387Y-240431000D01*
X271495446Y-240265716D01*
X270712714Y-239941498D01*
X270712713Y-239941498D01*
X270712712Y-239941497D01*
X270008272Y-239470805D01*
X269409195Y-238871728D01*
X268938503Y-238167288D01*
X268614285Y-237384556D01*
X268614284Y-237384554D01*
X268449000Y-236553613D01*
X268449000Y-235706387D01*
X268614284Y-234875446D01*
X268938502Y-234092714D01*
X268938503Y-234092712D01*
X269409195Y-233388272D01*
X270008272Y-232789195D01*
X270712712Y-232318503D01*
X270736854Y-232308503D01*
X271495446Y-231994284D01*
X272326387Y-231829000D01*
X273173613Y-231829000D01*
X274004554Y-231994284D01*
G37*
G36*
X173024554Y-231984284D02*
G01*
X173783146Y-232298503D01*
X173807288Y-232308503D01*
X174511728Y-232779195D01*
X175110805Y-233378272D01*
X175581497Y-234082712D01*
X175581498Y-234082714D01*
X175905716Y-234865446D01*
X176071000Y-235696387D01*
X176071000Y-236543613D01*
X175905716Y-237374554D01*
X175905715Y-237374556D01*
X175581497Y-238157288D01*
X175110805Y-238861728D01*
X174511728Y-239460805D01*
X173807288Y-239931497D01*
X173807287Y-239931498D01*
X173807286Y-239931498D01*
X173024554Y-240255716D01*
X172193613Y-240421000D01*
X171346387Y-240421000D01*
X170515446Y-240255716D01*
X169732714Y-239931498D01*
X169732713Y-239931498D01*
X169732712Y-239931497D01*
X169028272Y-239460805D01*
X168429195Y-238861728D01*
X167958503Y-238157288D01*
X167634285Y-237374556D01*
X167634284Y-237374554D01*
X167469000Y-236543613D01*
X167469000Y-235696387D01*
X167634284Y-234865446D01*
X167958502Y-234082714D01*
X167958503Y-234082712D01*
X168429195Y-233378272D01*
X169028272Y-232779195D01*
X169732712Y-232308503D01*
X169756854Y-232298503D01*
X170515446Y-231984284D01*
X171346387Y-231819000D01*
X172193613Y-231819000D01*
X173024554Y-231984284D01*
G37*
G36*
X353994554Y-231974284D02*
G01*
X354777286Y-232298502D01*
X354777288Y-232298503D01*
X355481728Y-232769195D01*
X356080805Y-233368272D01*
X356094169Y-233388273D01*
X356551498Y-234072714D01*
X356875716Y-234855446D01*
X357041000Y-235686387D01*
X357041000Y-236533613D01*
X356875716Y-237364554D01*
X356875715Y-237364556D01*
X356551497Y-238147288D01*
X356080805Y-238851728D01*
X355481728Y-239450805D01*
X354777288Y-239921497D01*
X354777287Y-239921498D01*
X354777286Y-239921498D01*
X353994554Y-240245716D01*
X353163613Y-240411000D01*
X352316387Y-240411000D01*
X351485446Y-240245716D01*
X350702714Y-239921498D01*
X350702713Y-239921498D01*
X350702712Y-239921497D01*
X349998272Y-239450805D01*
X349399195Y-238851728D01*
X348928503Y-238147288D01*
X348604285Y-237364556D01*
X348604284Y-237364554D01*
X348439000Y-236533613D01*
X348439000Y-235686387D01*
X348604284Y-234855446D01*
X348928502Y-234072714D01*
X349385831Y-233388273D01*
X349399195Y-233368272D01*
X349998272Y-232769195D01*
X350702712Y-232298503D01*
X350702714Y-232298502D01*
X351485446Y-231974284D01*
X352316387Y-231809000D01*
X353163613Y-231809000D01*
X353994554Y-231974284D01*
G37*
G36*
X93014554Y-231974284D02*
G01*
X93797286Y-232298502D01*
X93797288Y-232298503D01*
X94501728Y-232769195D01*
X95100805Y-233368272D01*
X95114169Y-233388273D01*
X95571498Y-234072714D01*
X95895716Y-234855446D01*
X96061000Y-235686387D01*
X96061000Y-236533613D01*
X95895716Y-237364554D01*
X95895715Y-237364556D01*
X95571497Y-238147288D01*
X95100805Y-238851728D01*
X94501728Y-239450805D01*
X93797288Y-239921497D01*
X93797287Y-239921498D01*
X93797286Y-239921498D01*
X93014554Y-240245716D01*
X92183613Y-240411000D01*
X91336387Y-240411000D01*
X90505446Y-240245716D01*
X89722714Y-239921498D01*
X89722713Y-239921498D01*
X89722712Y-239921497D01*
X89018272Y-239450805D01*
X88419195Y-238851728D01*
X87948503Y-238147288D01*
X87624285Y-237364556D01*
X87624284Y-237364554D01*
X87459000Y-236533613D01*
X87459000Y-235686387D01*
X87624284Y-234855446D01*
X87948502Y-234072714D01*
X88405831Y-233388273D01*
X88419195Y-233368272D01*
X89018272Y-232769195D01*
X89722712Y-232298503D01*
X89722714Y-232298502D01*
X90505446Y-231974284D01*
X91336387Y-231809000D01*
X92183613Y-231809000D01*
X93014554Y-231974284D01*
G37*
G36*
X354004554Y-95364284D02*
G01*
X354739004Y-95668503D01*
X354787288Y-95688503D01*
X355491728Y-96159195D01*
X356090805Y-96758272D01*
X356561497Y-97462712D01*
X356561498Y-97462714D01*
X356885716Y-98245446D01*
X357051000Y-99076387D01*
X357051000Y-99923613D01*
X356885716Y-100754554D01*
X356885715Y-100754556D01*
X356561497Y-101537288D01*
X356090805Y-102241728D01*
X355491728Y-102840805D01*
X354787288Y-103311497D01*
X354787287Y-103311498D01*
X354787286Y-103311498D01*
X354004554Y-103635716D01*
X353173613Y-103801000D01*
X352326387Y-103801000D01*
X351495446Y-103635716D01*
X350712714Y-103311498D01*
X350712713Y-103311498D01*
X350712712Y-103311497D01*
X350008272Y-102840805D01*
X349409195Y-102241728D01*
X348938503Y-101537288D01*
X348614285Y-100754556D01*
X348614284Y-100754554D01*
X348449000Y-99923613D01*
X348449000Y-99076387D01*
X348614284Y-98245446D01*
X348938502Y-97462714D01*
X348938503Y-97462712D01*
X349409195Y-96758272D01*
X350008272Y-96159195D01*
X350712712Y-95688503D01*
X350760996Y-95668503D01*
X351495446Y-95364284D01*
X352326387Y-95199000D01*
X353173613Y-95199000D01*
X354004554Y-95364284D01*
G37*
G36*
X274004554Y-95364284D02*
G01*
X274739004Y-95668503D01*
X274787288Y-95688503D01*
X275491728Y-96159195D01*
X276090805Y-96758272D01*
X276561497Y-97462712D01*
X276561498Y-97462714D01*
X276885716Y-98245446D01*
X277051000Y-99076387D01*
X277051000Y-99923613D01*
X276885716Y-100754554D01*
X276885715Y-100754556D01*
X276561497Y-101537288D01*
X276090805Y-102241728D01*
X275491728Y-102840805D01*
X274787288Y-103311497D01*
X274787287Y-103311498D01*
X274787286Y-103311498D01*
X274004554Y-103635716D01*
X273173613Y-103801000D01*
X272326387Y-103801000D01*
X271495446Y-103635716D01*
X270712714Y-103311498D01*
X270712713Y-103311498D01*
X270712712Y-103311497D01*
X270008272Y-102840805D01*
X269409195Y-102241728D01*
X268938503Y-101537288D01*
X268614285Y-100754556D01*
X268614284Y-100754554D01*
X268449000Y-99923613D01*
X268449000Y-99076387D01*
X268614284Y-98245446D01*
X268938502Y-97462714D01*
X268938503Y-97462712D01*
X269409195Y-96758272D01*
X270008272Y-96159195D01*
X270712712Y-95688503D01*
X270760996Y-95668503D01*
X271495446Y-95364284D01*
X272326387Y-95199000D01*
X273173613Y-95199000D01*
X274004554Y-95364284D01*
G37*
G36*
X173014554Y-95344284D02*
G01*
X173797286Y-95668502D01*
X173797288Y-95668503D01*
X174501728Y-96139195D01*
X175100805Y-96738272D01*
X175114169Y-96758273D01*
X175571498Y-97442714D01*
X175895716Y-98225446D01*
X176061000Y-99056387D01*
X176061000Y-99903613D01*
X175895716Y-100734554D01*
X175895715Y-100734556D01*
X175571497Y-101517288D01*
X175100805Y-102221728D01*
X174501728Y-102820805D01*
X173797288Y-103291497D01*
X173797287Y-103291498D01*
X173797286Y-103291498D01*
X173014554Y-103615716D01*
X172183613Y-103781000D01*
X171336387Y-103781000D01*
X170505446Y-103615716D01*
X169722714Y-103291498D01*
X169722713Y-103291498D01*
X169722712Y-103291497D01*
X169018272Y-102820805D01*
X168419195Y-102221728D01*
X167948503Y-101517288D01*
X167624285Y-100734556D01*
X167624284Y-100734554D01*
X167459000Y-99903613D01*
X167459000Y-99056387D01*
X167624284Y-98225446D01*
X167948502Y-97442714D01*
X168405831Y-96758273D01*
X168419195Y-96738272D01*
X169018272Y-96139195D01*
X169722712Y-95668503D01*
X169722714Y-95668502D01*
X170505446Y-95344284D01*
X171336387Y-95179000D01*
X172183613Y-95179000D01*
X173014554Y-95344284D01*
G37*
G36*
X93004554Y-95344284D02*
G01*
X93787286Y-95668502D01*
X93787288Y-95668503D01*
X94491728Y-96139195D01*
X95090805Y-96738272D01*
X95104169Y-96758273D01*
X95561498Y-97442714D01*
X95885716Y-98225446D01*
X96051000Y-99056387D01*
X96051000Y-99903613D01*
X95885716Y-100734554D01*
X95885715Y-100734556D01*
X95561497Y-101517288D01*
X95090805Y-102221728D01*
X94491728Y-102820805D01*
X93787288Y-103291497D01*
X93787287Y-103291498D01*
X93787286Y-103291498D01*
X93004554Y-103615716D01*
X92173613Y-103781000D01*
X91326387Y-103781000D01*
X90495446Y-103615716D01*
X89712714Y-103291498D01*
X89712713Y-103291498D01*
X89712712Y-103291497D01*
X89008272Y-102820805D01*
X88409195Y-102221728D01*
X87938503Y-101517288D01*
X87614285Y-100734556D01*
X87614284Y-100734554D01*
X87449000Y-99903613D01*
X87449000Y-99056387D01*
X87614284Y-98225446D01*
X87938502Y-97442714D01*
X88395831Y-96758273D01*
X88409195Y-96738272D01*
X89008272Y-96139195D01*
X89712712Y-95668503D01*
X89712714Y-95668502D01*
X90495446Y-95344284D01*
X91326387Y-95179000D01*
X92173613Y-95179000D01*
X93004554Y-95344284D01*
G37*
M02*
