G04 #@! TF.GenerationSoftware,KiCad,Pcbnew,(5.1.6)-1*
G04 #@! TF.CreationDate,2020-06-16T10:30:54+02:00*
G04 #@! TF.ProjectId,punk75_plate,70756e6b-3735-45f7-906c-6174652e6b69,rev?*
G04 #@! TF.SameCoordinates,Original*
G04 #@! TF.FileFunction,Soldermask,Top*
G04 #@! TF.FilePolarity,Negative*
%FSLAX46Y46*%
G04 Gerber Fmt 4.6, Leading zero omitted, Abs format (unit mm)*
G04 Created by KiCad (PCBNEW (5.1.6)-1) date 2020-06-16 10:30:54*
%MOMM*%
%LPD*%
G01*
G04 APERTURE LIST*
%ADD10C,0.100000*%
G04 APERTURE END LIST*
D10*
G36*
X273384239Y-232941467D02*
G01*
X273698282Y-233003934D01*
X274289926Y-233249001D01*
X274716477Y-233534014D01*
X274807425Y-233594783D01*
X274822392Y-233604784D01*
X275275216Y-234057608D01*
X275630999Y-234590074D01*
X275876066Y-235181718D01*
X276001000Y-235809804D01*
X276001000Y-236450196D01*
X275876066Y-237078282D01*
X275630999Y-237669926D01*
X275345986Y-238096477D01*
X275281899Y-238192391D01*
X275275216Y-238202392D01*
X274822392Y-238655216D01*
X274289926Y-239010999D01*
X273698282Y-239256066D01*
X273384239Y-239318533D01*
X273070197Y-239381000D01*
X272429803Y-239381000D01*
X272115761Y-239318533D01*
X271801718Y-239256066D01*
X271210074Y-239010999D01*
X270677608Y-238655216D01*
X270224784Y-238202392D01*
X270218102Y-238192391D01*
X270154014Y-238096477D01*
X269869001Y-237669926D01*
X269623934Y-237078282D01*
X269499000Y-236450196D01*
X269499000Y-235809804D01*
X269623934Y-235181718D01*
X269869001Y-234590074D01*
X270224784Y-234057608D01*
X270677608Y-233604784D01*
X270692576Y-233594783D01*
X270783523Y-233534014D01*
X271210074Y-233249001D01*
X271801718Y-233003934D01*
X272115761Y-232941467D01*
X272429803Y-232879000D01*
X273070197Y-232879000D01*
X273384239Y-232941467D01*
G37*
G36*
X172404239Y-232931467D02*
G01*
X172718282Y-232993934D01*
X173309926Y-233239001D01*
X173736477Y-233524014D01*
X173842391Y-233594783D01*
X174295217Y-234047609D01*
X174365986Y-234153523D01*
X174650999Y-234580074D01*
X174896066Y-235171718D01*
X175021000Y-235799804D01*
X175021000Y-236440196D01*
X174896066Y-237068282D01*
X174650999Y-237659926D01*
X174365986Y-238086477D01*
X174295217Y-238192391D01*
X173842391Y-238645217D01*
X173736477Y-238715986D01*
X173309926Y-239000999D01*
X172718282Y-239246066D01*
X172404239Y-239308533D01*
X172090197Y-239371000D01*
X171449803Y-239371000D01*
X171135761Y-239308533D01*
X170821718Y-239246066D01*
X170230074Y-239000999D01*
X169803523Y-238715986D01*
X169697609Y-238645217D01*
X169244783Y-238192391D01*
X169174014Y-238086477D01*
X168889001Y-237659926D01*
X168643934Y-237068282D01*
X168519000Y-236440196D01*
X168519000Y-235799804D01*
X168643934Y-235171718D01*
X168889001Y-234580074D01*
X169174014Y-234153523D01*
X169244783Y-234047609D01*
X169697609Y-233594783D01*
X169803523Y-233524014D01*
X170230074Y-233239001D01*
X170821718Y-232993934D01*
X171135761Y-232931467D01*
X171449803Y-232869000D01*
X172090197Y-232869000D01*
X172404239Y-232931467D01*
G37*
G36*
X353374239Y-232921467D02*
G01*
X353688282Y-232983934D01*
X354279926Y-233229001D01*
X354706477Y-233514014D01*
X354812391Y-233584783D01*
X355265217Y-234037609D01*
X355335986Y-234143523D01*
X355620999Y-234570074D01*
X355866066Y-235161718D01*
X355991000Y-235789804D01*
X355991000Y-236430196D01*
X355866066Y-237058282D01*
X355620999Y-237649926D01*
X355335986Y-238076477D01*
X355265217Y-238182391D01*
X354812391Y-238635217D01*
X354706477Y-238705986D01*
X354279926Y-238990999D01*
X353688282Y-239236066D01*
X353374239Y-239298533D01*
X353060197Y-239361000D01*
X352419803Y-239361000D01*
X352105761Y-239298533D01*
X351791718Y-239236066D01*
X351200074Y-238990999D01*
X350773523Y-238705986D01*
X350667609Y-238635217D01*
X350214783Y-238182391D01*
X350144014Y-238076477D01*
X349859001Y-237649926D01*
X349613934Y-237058282D01*
X349489000Y-236430196D01*
X349489000Y-235789804D01*
X349613934Y-235161718D01*
X349859001Y-234570074D01*
X350144014Y-234143523D01*
X350214783Y-234037609D01*
X350667609Y-233584783D01*
X350773523Y-233514014D01*
X351200074Y-233229001D01*
X351791718Y-232983934D01*
X352105761Y-232921467D01*
X352419803Y-232859000D01*
X353060197Y-232859000D01*
X353374239Y-232921467D01*
G37*
G36*
X92394239Y-232921467D02*
G01*
X92708282Y-232983934D01*
X93299926Y-233229001D01*
X93726477Y-233514014D01*
X93832391Y-233584783D01*
X94285217Y-234037609D01*
X94355986Y-234143523D01*
X94640999Y-234570074D01*
X94886066Y-235161718D01*
X95011000Y-235789804D01*
X95011000Y-236430196D01*
X94886066Y-237058282D01*
X94640999Y-237649926D01*
X94355986Y-238076477D01*
X94285217Y-238182391D01*
X93832391Y-238635217D01*
X93726477Y-238705986D01*
X93299926Y-238990999D01*
X92708282Y-239236066D01*
X92394239Y-239298533D01*
X92080197Y-239361000D01*
X91439803Y-239361000D01*
X91125761Y-239298533D01*
X90811718Y-239236066D01*
X90220074Y-238990999D01*
X89793523Y-238705986D01*
X89687609Y-238635217D01*
X89234783Y-238182391D01*
X89164014Y-238076477D01*
X88879001Y-237649926D01*
X88633934Y-237058282D01*
X88509000Y-236430196D01*
X88509000Y-235789804D01*
X88633934Y-235161718D01*
X88879001Y-234570074D01*
X89164014Y-234143523D01*
X89234783Y-234037609D01*
X89687609Y-233584783D01*
X89793523Y-233514014D01*
X90220074Y-233229001D01*
X90811718Y-232983934D01*
X91125761Y-232921467D01*
X91439803Y-232859000D01*
X92080197Y-232859000D01*
X92394239Y-232921467D01*
G37*
G36*
X353384239Y-96311467D02*
G01*
X353698282Y-96373934D01*
X354289926Y-96619001D01*
X354716477Y-96904014D01*
X354792459Y-96954783D01*
X354822392Y-96974784D01*
X355275216Y-97427608D01*
X355630999Y-97960074D01*
X355876066Y-98551718D01*
X356001000Y-99179804D01*
X356001000Y-99820196D01*
X355876066Y-100448282D01*
X355630999Y-101039926D01*
X355345986Y-101466477D01*
X355288581Y-101552391D01*
X355275216Y-101572392D01*
X354822392Y-102025216D01*
X354289926Y-102380999D01*
X353698282Y-102626066D01*
X353384239Y-102688533D01*
X353070197Y-102751000D01*
X352429803Y-102751000D01*
X352115761Y-102688533D01*
X351801718Y-102626066D01*
X351210074Y-102380999D01*
X350677608Y-102025216D01*
X350224784Y-101572392D01*
X350211420Y-101552391D01*
X350154014Y-101466477D01*
X349869001Y-101039926D01*
X349623934Y-100448282D01*
X349499000Y-99820196D01*
X349499000Y-99179804D01*
X349623934Y-98551718D01*
X349869001Y-97960074D01*
X350224784Y-97427608D01*
X350677608Y-96974784D01*
X350707542Y-96954783D01*
X350783523Y-96904014D01*
X351210074Y-96619001D01*
X351801718Y-96373934D01*
X352115761Y-96311467D01*
X352429803Y-96249000D01*
X353070197Y-96249000D01*
X353384239Y-96311467D01*
G37*
G36*
X273384239Y-96311467D02*
G01*
X273698282Y-96373934D01*
X274289926Y-96619001D01*
X274716477Y-96904014D01*
X274792459Y-96954783D01*
X274822392Y-96974784D01*
X275275216Y-97427608D01*
X275630999Y-97960074D01*
X275876066Y-98551718D01*
X276001000Y-99179804D01*
X276001000Y-99820196D01*
X275876066Y-100448282D01*
X275630999Y-101039926D01*
X275345986Y-101466477D01*
X275288581Y-101552391D01*
X275275216Y-101572392D01*
X274822392Y-102025216D01*
X274289926Y-102380999D01*
X273698282Y-102626066D01*
X273384239Y-102688533D01*
X273070197Y-102751000D01*
X272429803Y-102751000D01*
X272115761Y-102688533D01*
X271801718Y-102626066D01*
X271210074Y-102380999D01*
X270677608Y-102025216D01*
X270224784Y-101572392D01*
X270211420Y-101552391D01*
X270154014Y-101466477D01*
X269869001Y-101039926D01*
X269623934Y-100448282D01*
X269499000Y-99820196D01*
X269499000Y-99179804D01*
X269623934Y-98551718D01*
X269869001Y-97960074D01*
X270224784Y-97427608D01*
X270677608Y-96974784D01*
X270707542Y-96954783D01*
X270783523Y-96904014D01*
X271210074Y-96619001D01*
X271801718Y-96373934D01*
X272115761Y-96311467D01*
X272429803Y-96249000D01*
X273070197Y-96249000D01*
X273384239Y-96311467D01*
G37*
G36*
X172394239Y-96291467D02*
G01*
X172708282Y-96353934D01*
X173299926Y-96599001D01*
X173726477Y-96884014D01*
X173832391Y-96954783D01*
X174285217Y-97407609D01*
X174355986Y-97513523D01*
X174640999Y-97940074D01*
X174886066Y-98531718D01*
X175011000Y-99159804D01*
X175011000Y-99800196D01*
X174886066Y-100428282D01*
X174640999Y-101019926D01*
X174355986Y-101446477D01*
X174285217Y-101552391D01*
X173832391Y-102005217D01*
X173726477Y-102075986D01*
X173299926Y-102360999D01*
X172708282Y-102606066D01*
X172394239Y-102668533D01*
X172080197Y-102731000D01*
X171439803Y-102731000D01*
X171125761Y-102668533D01*
X170811718Y-102606066D01*
X170220074Y-102360999D01*
X169793523Y-102075986D01*
X169687609Y-102005217D01*
X169234783Y-101552391D01*
X169164014Y-101446477D01*
X168879001Y-101019926D01*
X168633934Y-100428282D01*
X168509000Y-99800196D01*
X168509000Y-99159804D01*
X168633934Y-98531718D01*
X168879001Y-97940074D01*
X169164014Y-97513523D01*
X169234783Y-97407609D01*
X169687609Y-96954783D01*
X169793523Y-96884014D01*
X170220074Y-96599001D01*
X170811718Y-96353934D01*
X171125761Y-96291467D01*
X171439803Y-96229000D01*
X172080197Y-96229000D01*
X172394239Y-96291467D01*
G37*
G36*
X92384239Y-96291467D02*
G01*
X92698282Y-96353934D01*
X93289926Y-96599001D01*
X93716477Y-96884014D01*
X93822391Y-96954783D01*
X94275217Y-97407609D01*
X94345986Y-97513523D01*
X94630999Y-97940074D01*
X94876066Y-98531718D01*
X95001000Y-99159804D01*
X95001000Y-99800196D01*
X94876066Y-100428282D01*
X94630999Y-101019926D01*
X94345986Y-101446477D01*
X94275217Y-101552391D01*
X93822391Y-102005217D01*
X93716477Y-102075986D01*
X93289926Y-102360999D01*
X92698282Y-102606066D01*
X92384239Y-102668533D01*
X92070197Y-102731000D01*
X91429803Y-102731000D01*
X91115761Y-102668533D01*
X90801718Y-102606066D01*
X90210074Y-102360999D01*
X89783523Y-102075986D01*
X89677609Y-102005217D01*
X89224783Y-101552391D01*
X89154014Y-101446477D01*
X88869001Y-101019926D01*
X88623934Y-100428282D01*
X88499000Y-99800196D01*
X88499000Y-99159804D01*
X88623934Y-98531718D01*
X88869001Y-97940074D01*
X89154014Y-97513523D01*
X89224783Y-97407609D01*
X89677609Y-96954783D01*
X89783523Y-96884014D01*
X90210074Y-96599001D01*
X90801718Y-96353934D01*
X91115761Y-96291467D01*
X91429803Y-96229000D01*
X92070197Y-96229000D01*
X92384239Y-96291467D01*
G37*
M02*
