G04 #@! TF.GenerationSoftware,KiCad,Pcbnew,5.1.6*
G04 #@! TF.CreationDate,2020-06-16T11:26:21+02:00*
G04 #@! TF.ProjectId,punk75_plate,70756e6b-3735-45f7-906c-6174652e6b69,rev?*
G04 #@! TF.SameCoordinates,Original*
G04 #@! TF.FileFunction,Profile,NP*
%FSLAX46Y46*%
G04 Gerber Fmt 4.6, Leading zero omitted, Abs format (unit mm)*
G04 Created by KiCad (PCBNEW 5.1.6) date 2020-06-16 11:26:21*
%MOMM*%
%LPD*%
G01*
G04 APERTURE LIST*
G04 #@! TA.AperFunction,Profile*
%ADD10C,0.200000*%
G04 #@! TD*
G04 APERTURE END LIST*
D10*
X234197913Y-170549586D02*
X248397913Y-170549586D01*
X329447913Y-175399586D02*
X329447913Y-189599586D01*
X100847913Y-194449586D02*
X100847913Y-208649586D01*
X115047913Y-208649586D02*
X115047913Y-194449586D01*
X115047913Y-189599586D02*
X115047913Y-175399586D01*
X215147913Y-175399586D02*
X215147913Y-189599586D01*
X229347913Y-175399586D02*
X215147913Y-175399586D01*
X229347913Y-189599586D02*
X229347913Y-175399586D01*
X329447913Y-189599586D02*
X343647913Y-189599586D01*
X215147913Y-189599586D02*
X229347913Y-189599586D01*
X100847913Y-213499586D02*
X100847913Y-227699586D01*
X248397913Y-156349586D02*
X234197913Y-156349586D01*
X115047913Y-213499586D02*
X100847913Y-213499586D01*
X100847913Y-208649586D02*
X115047913Y-208649586D01*
X115047913Y-227699586D02*
X115047913Y-213499586D01*
X100847913Y-227699586D02*
X115047913Y-227699586D01*
X248397913Y-170549586D02*
X248397913Y-156349586D01*
X343647913Y-175399586D02*
X329447913Y-175399586D01*
X115047913Y-194449586D02*
X100847913Y-194449586D01*
X343647913Y-189599586D02*
X343647913Y-175399586D01*
X100847913Y-175399586D02*
X100847913Y-189599586D01*
X115047913Y-175399586D02*
X100847913Y-175399586D01*
X234197913Y-156349586D02*
X234197913Y-170549586D01*
X82555000Y-104498749D02*
X81761250Y-104498749D01*
X324597913Y-208649586D02*
X324597913Y-194449586D01*
X134097913Y-175399586D02*
X119897913Y-175399586D01*
X134097913Y-189599586D02*
X134097913Y-175399586D01*
X210297913Y-151499586D02*
X210297913Y-137299586D01*
X196097913Y-137299586D02*
X196097913Y-151499586D01*
X253247913Y-194449586D02*
X253247913Y-208649586D01*
X253247913Y-208649586D02*
X267447913Y-208649586D01*
X267447913Y-194449586D02*
X253247913Y-194449586D01*
X134097913Y-208649586D02*
X134097913Y-194449586D01*
X119897913Y-208649586D02*
X134097913Y-208649586D01*
X310397913Y-194449586D02*
X310397913Y-208649586D01*
X196097913Y-151499586D02*
X210297913Y-151499586D01*
X119897913Y-175399586D02*
X119897913Y-189599586D01*
X100847913Y-189599586D02*
X115047913Y-189599586D01*
X210297913Y-137299586D02*
X196097913Y-137299586D01*
X324597913Y-194449586D02*
X310397913Y-194449586D01*
X119897913Y-194449586D02*
X119897913Y-208649586D01*
X119897913Y-189599586D02*
X134097913Y-189599586D01*
X310397913Y-208649586D02*
X324597913Y-208649586D01*
X134097913Y-194449586D02*
X119897913Y-194449586D01*
X78379999Y-107880000D02*
X78379999Y-109467500D01*
X267447913Y-208649586D02*
X267447913Y-194449586D01*
X176980000Y-172967500D02*
G75*
G03*
X176980000Y-172967500I-2350000J0D01*
G01*
X215080000Y-211067500D02*
G75*
G03*
X215080000Y-211067500I-2350000J0D01*
G01*
X100780000Y-211067500D02*
G75*
G03*
X100780000Y-211067500I-2350000J0D01*
G01*
X138880000Y-192017500D02*
G75*
G03*
X138880000Y-192017500I-2350000J0D01*
G01*
X291347913Y-151499586D02*
X305547913Y-151499586D01*
X177047913Y-213499586D02*
X177047913Y-227699586D01*
X286497913Y-189599586D02*
X286497913Y-175399586D01*
X119897913Y-170549586D02*
X134097913Y-170549586D01*
X366130000Y-107880000D02*
X366130087Y-131491373D01*
X100847913Y-151499586D02*
X115047913Y-151499586D01*
X272297913Y-170549586D02*
X286497913Y-170549586D01*
X362749000Y-134881586D02*
X362749100Y-134881586D01*
X286497913Y-156349586D02*
X272297913Y-156349586D01*
X81797913Y-156349586D02*
X81797913Y-170549586D01*
X95997913Y-170549586D02*
X95997913Y-156349586D01*
X286497913Y-175399586D02*
X272297913Y-175399586D01*
X272297913Y-175399586D02*
X272297913Y-189599586D01*
X134097913Y-170549586D02*
X134097913Y-156349586D01*
X310397913Y-213499586D02*
X310397913Y-227699586D01*
X305547913Y-151499586D02*
X305547913Y-137299586D01*
X362749000Y-134881586D02*
X81761000Y-134881586D01*
X272230000Y-173031000D02*
G75*
G03*
X272230000Y-173031000I-2350000J0D01*
G01*
X348430000Y-211067500D02*
G75*
G03*
X348430000Y-211067500I-2350000J0D01*
G01*
X291347913Y-137299586D02*
X291347913Y-151499586D01*
X177047913Y-227699586D02*
X267447913Y-227699586D01*
X329380000Y-153930000D02*
G75*
G03*
X329380000Y-153930000I-2350000J0D01*
G01*
X324597913Y-227699586D02*
X324597913Y-213499586D01*
X234130000Y-153981000D02*
G75*
G03*
X234130000Y-153981000I-2350000J0D01*
G01*
X119830000Y-153940000D02*
G75*
G03*
X119830000Y-153940000I-2350000J0D01*
G01*
X366130087Y-131491373D02*
G75*
G02*
X362749100Y-134881586I-3380987J-9213D01*
G01*
X81760900Y-134881586D02*
G75*
G02*
X78379913Y-131500573I13J3381000D01*
G01*
X81761000Y-134881586D02*
X81760899Y-134881586D01*
X267447913Y-227699586D02*
X267447913Y-213499586D01*
X78379999Y-109467500D02*
X78379913Y-131500573D01*
X272297913Y-156349586D02*
X272297913Y-170549586D01*
X286497913Y-170549586D02*
X286497913Y-156349586D01*
X100847913Y-137299586D02*
X100847913Y-151499586D01*
X115047913Y-151499586D02*
X115047913Y-137299586D01*
X95997913Y-156349586D02*
X81797913Y-156349586D01*
X324597913Y-213499586D02*
X310397913Y-213499586D01*
X115047913Y-137299586D02*
X100847913Y-137299586D01*
X310397913Y-227699586D02*
X324597913Y-227699586D01*
X119897913Y-156349586D02*
X119897913Y-170549586D01*
X81797913Y-137299586D02*
X81797913Y-151499586D01*
X134097913Y-156349586D02*
X119897913Y-156349586D01*
X81797913Y-170549586D02*
X95997913Y-170549586D01*
X267447913Y-213499586D02*
X177047913Y-213499586D01*
X272297913Y-189599586D02*
X286497913Y-189599586D01*
X310330000Y-192017500D02*
G75*
G03*
X310330000Y-192017500I-2350000J0D01*
G01*
X305547913Y-137299586D02*
X291347913Y-137299586D01*
X157997913Y-137299586D02*
X157997913Y-151499586D01*
X324597913Y-137299586D02*
X310397913Y-137299586D01*
X119897913Y-151499586D02*
X134097913Y-151499586D01*
X253247913Y-156349586D02*
X253247913Y-170549586D01*
X362697913Y-137299586D02*
X348497913Y-137299586D01*
X95997913Y-151499586D02*
X95997913Y-137299586D01*
X267447913Y-156349586D02*
X253247913Y-156349586D01*
X291347913Y-194449586D02*
X291347913Y-208649586D01*
X305547913Y-194449586D02*
X291347913Y-194449586D01*
X153147913Y-156349586D02*
X138947913Y-156349586D01*
X153147913Y-170549586D02*
X153147913Y-156349586D01*
X134097913Y-151499586D02*
X134097913Y-137299586D01*
X134097913Y-137299586D02*
X119897913Y-137299586D01*
X348497913Y-137299586D02*
X348497913Y-151499586D01*
X210297913Y-194449586D02*
X196097913Y-194449586D01*
X267447913Y-170549586D02*
X267447913Y-156349586D01*
X253247913Y-170549586D02*
X267447913Y-170549586D01*
X305547913Y-208649586D02*
X305547913Y-194449586D01*
X329447913Y-208649586D02*
X343647913Y-208649586D01*
X291347913Y-208649586D02*
X305547913Y-208649586D01*
X329447913Y-194449586D02*
X329447913Y-208649586D01*
X234197913Y-175399586D02*
X234197913Y-189599586D01*
X196097913Y-208649586D02*
X210297913Y-208649586D01*
X348497913Y-151499586D02*
X362697913Y-151499586D01*
X343647913Y-194449586D02*
X329447913Y-194449586D01*
X343647913Y-208649586D02*
X343647913Y-194449586D01*
X177047913Y-194449586D02*
X177047913Y-208649586D01*
X191247913Y-194449586D02*
X177047913Y-194449586D01*
X362697913Y-151499586D02*
X362697913Y-137299586D01*
X138947913Y-156349586D02*
X138947913Y-170549586D01*
X138947913Y-170549586D02*
X153147913Y-170549586D01*
X248397913Y-175399586D02*
X234197913Y-175399586D01*
X248397913Y-189599586D02*
X248397913Y-175399586D01*
X172197913Y-137299586D02*
X157997913Y-137299586D01*
X157997913Y-151499586D02*
X172197913Y-151499586D01*
X210297913Y-208649586D02*
X210297913Y-194449586D01*
X191247913Y-208649586D02*
X191247913Y-194449586D01*
X310397913Y-137299586D02*
X310397913Y-151499586D01*
X172197913Y-151499586D02*
X172197913Y-137299586D01*
X177047913Y-208649586D02*
X191247913Y-208649586D01*
X234197913Y-189599586D02*
X248397913Y-189599586D01*
X119897913Y-137299586D02*
X119897913Y-151499586D01*
X324597913Y-151499586D02*
X324597913Y-137299586D01*
X196097913Y-194449586D02*
X196097913Y-208649586D01*
X95997913Y-137299586D02*
X81797913Y-137299586D01*
X81797913Y-151499586D02*
X95997913Y-151499586D01*
X95997913Y-175399586D02*
X81797913Y-175399586D01*
X95997913Y-189599586D02*
X95997913Y-175399586D01*
X177047913Y-175399586D02*
X177047913Y-189599586D01*
X272297913Y-208649586D02*
X286497913Y-208649586D01*
X324597913Y-156349586D02*
X310397913Y-156349586D01*
X310397913Y-170549586D02*
X324597913Y-170549586D01*
X310397913Y-151499586D02*
X324597913Y-151499586D01*
X272297913Y-137299586D02*
X272297913Y-151499586D01*
X329447913Y-137299586D02*
X329447913Y-151499586D01*
X291347913Y-175399586D02*
X291347913Y-189599586D01*
X305547913Y-175399586D02*
X291347913Y-175399586D01*
X272297913Y-194449586D02*
X272297913Y-208649586D01*
X305547913Y-189599586D02*
X305547913Y-175399586D01*
X310397913Y-156349586D02*
X310397913Y-170549586D01*
X291347913Y-189599586D02*
X305547913Y-189599586D01*
X81797913Y-189599586D02*
X95997913Y-189599586D01*
X234197913Y-137299586D02*
X234197913Y-151499586D01*
X248397913Y-137299586D02*
X234197913Y-137299586D01*
X248397913Y-151499586D02*
X248397913Y-137299586D01*
X343647913Y-137299586D02*
X329447913Y-137299586D01*
X115047913Y-156349586D02*
X100847913Y-156349586D01*
X343647913Y-151499586D02*
X343647913Y-137299586D01*
X177047913Y-189599586D02*
X191247913Y-189599586D01*
X153147913Y-208649586D02*
X153147913Y-194449586D01*
X272297913Y-151499586D02*
X286497913Y-151499586D01*
X100847913Y-156349586D02*
X100847913Y-170549586D01*
X115047913Y-170549586D02*
X115047913Y-156349586D01*
X157997913Y-156349586D02*
X157997913Y-170549586D01*
X191247913Y-170549586D02*
X191247913Y-156349586D01*
X138947913Y-194449586D02*
X138947913Y-208649586D01*
X153147913Y-194449586D02*
X138947913Y-194449586D01*
X286497913Y-194449586D02*
X272297913Y-194449586D01*
X81797913Y-175399586D02*
X81797913Y-189599586D01*
X177047913Y-156349586D02*
X177047913Y-170549586D01*
X191247913Y-175399586D02*
X177047913Y-175399586D01*
X329447913Y-151499586D02*
X343647913Y-151499586D01*
X191247913Y-156349586D02*
X177047913Y-156349586D01*
X324597913Y-170549586D02*
X324597913Y-156349586D01*
X177047913Y-170549586D02*
X191247913Y-170549586D01*
X138947913Y-208649586D02*
X153147913Y-208649586D01*
X100847913Y-170549586D02*
X115047913Y-170549586D01*
X286497913Y-208649586D02*
X286497913Y-194449586D01*
X191247913Y-189599586D02*
X191247913Y-175399586D01*
X286497913Y-137299586D02*
X272297913Y-137299586D01*
X234197913Y-151499586D02*
X248397913Y-151499586D01*
X286497913Y-151499586D02*
X286497913Y-137299586D01*
X267447913Y-189599586D02*
X267447913Y-175399586D01*
X253247913Y-175399586D02*
X253247913Y-189599586D01*
X196097913Y-189599586D02*
X210297913Y-189599586D01*
X157997913Y-189599586D02*
X172197913Y-189599586D01*
X95997913Y-194449586D02*
X81797913Y-194449586D01*
X229347913Y-137299586D02*
X215147913Y-137299586D01*
X172197913Y-170549586D02*
X172197913Y-156349586D01*
X81797913Y-208649586D02*
X95997913Y-208649586D01*
X310397913Y-189599586D02*
X324597913Y-189599586D01*
X157997913Y-170549586D02*
X172197913Y-170549586D01*
X153147913Y-227699586D02*
X153147913Y-213499586D01*
X215147913Y-137299586D02*
X215147913Y-151499586D01*
X305547913Y-156349586D02*
X291347913Y-156349586D01*
X210297913Y-175399586D02*
X196097913Y-175399586D01*
X253247913Y-189599586D02*
X267447913Y-189599586D01*
X81797913Y-194449586D02*
X81797913Y-208649586D01*
X343647913Y-170549586D02*
X343647913Y-156349586D01*
X138947913Y-137299586D02*
X138947913Y-151499586D01*
X138947913Y-213499586D02*
X138947913Y-227699586D01*
X196097913Y-175399586D02*
X196097913Y-189599586D01*
X153147913Y-137299586D02*
X138947913Y-137299586D01*
X138947913Y-151499586D02*
X153147913Y-151499586D01*
X138947913Y-227699586D02*
X153147913Y-227699586D01*
X157997913Y-175399586D02*
X157997913Y-189599586D01*
X329447913Y-213499586D02*
X329447913Y-227699586D01*
X343647913Y-213499586D02*
X329447913Y-213499586D01*
X310397913Y-175399586D02*
X310397913Y-189599586D01*
X229347913Y-151499586D02*
X229347913Y-137299586D01*
X215147913Y-151499586D02*
X229347913Y-151499586D01*
X267447913Y-175399586D02*
X253247913Y-175399586D01*
X329447913Y-227699586D02*
X343647913Y-227699586D01*
X343647913Y-227699586D02*
X343647913Y-213499586D01*
X291347913Y-156349586D02*
X291347913Y-170549586D01*
X210297913Y-189599586D02*
X210297913Y-175399586D01*
X329447913Y-156349586D02*
X329447913Y-170549586D01*
X172197913Y-156349586D02*
X157997913Y-156349586D01*
X153147913Y-151499586D02*
X153147913Y-137299586D01*
X95997913Y-208649586D02*
X95997913Y-194449586D01*
X172197913Y-175399586D02*
X157997913Y-175399586D01*
X172197913Y-189599586D02*
X172197913Y-175399586D01*
X305547913Y-170549586D02*
X305547913Y-156349586D01*
X291347913Y-170549586D02*
X305547913Y-170549586D01*
X324597913Y-175399586D02*
X310397913Y-175399586D01*
X324597913Y-189599586D02*
X324597913Y-175399586D01*
X343647913Y-156349586D02*
X329447913Y-156349586D01*
X153147913Y-213499586D02*
X138947913Y-213499586D01*
X134097913Y-227699586D02*
X134097913Y-213499586D01*
X95997913Y-213499586D02*
X81797913Y-213499586D01*
X362697913Y-156349586D02*
X348497913Y-156349586D01*
X234197913Y-194449586D02*
X234197913Y-208649586D01*
X362697913Y-170549586D02*
X362697913Y-156349586D01*
X248397913Y-194449586D02*
X234197913Y-194449586D01*
X248397913Y-208649586D02*
X248397913Y-194449586D01*
X134097913Y-213499586D02*
X119897913Y-213499586D01*
X119897913Y-227699586D02*
X134097913Y-227699586D01*
X119897913Y-213499586D02*
X119897913Y-227699586D01*
X138947913Y-189599586D02*
X153147913Y-189599586D01*
X138947913Y-175399586D02*
X138947913Y-189599586D01*
X153147913Y-175399586D02*
X138947913Y-175399586D01*
X153147913Y-189599586D02*
X153147913Y-175399586D01*
X348497913Y-170549586D02*
X362697913Y-170549586D01*
X234197913Y-208649586D02*
X248397913Y-208649586D01*
X329447913Y-170549586D02*
X343647913Y-170549586D01*
X81797913Y-213499586D02*
X81797913Y-227699586D01*
X253247913Y-137299586D02*
X253247913Y-151499586D01*
X267447913Y-137299586D02*
X253247913Y-137299586D01*
X267447913Y-151499586D02*
X267447913Y-137299586D01*
X253247913Y-151499586D02*
X267447913Y-151499586D01*
X348497913Y-156349586D02*
X348497913Y-170549586D01*
X348497913Y-175399586D02*
X348497913Y-189599586D01*
X362697913Y-227699586D02*
X362697913Y-213499586D01*
X172197913Y-227699586D02*
X172197913Y-213499586D01*
X362697913Y-175399586D02*
X348497913Y-175399586D01*
X81797913Y-227699586D02*
X95997913Y-227699586D01*
X348497913Y-227699586D02*
X362697913Y-227699586D01*
X362697913Y-189599586D02*
X362697913Y-175399586D01*
X215147913Y-208649586D02*
X229347913Y-208649586D01*
X362697913Y-213499586D02*
X348497913Y-213499586D01*
X348497913Y-189599586D02*
X362697913Y-189599586D01*
X215147913Y-194449586D02*
X215147913Y-208649586D01*
X229347913Y-194449586D02*
X215147913Y-194449586D01*
X229347913Y-208649586D02*
X229347913Y-194449586D01*
X215147913Y-156349586D02*
X215147913Y-170549586D01*
X229347913Y-156349586D02*
X215147913Y-156349586D01*
X157997913Y-213499586D02*
X157997913Y-227699586D01*
X229347913Y-170549586D02*
X229347913Y-156349586D01*
X157997913Y-227699586D02*
X172197913Y-227699586D01*
X177047913Y-137299586D02*
X177047913Y-151499586D01*
X215147913Y-170549586D02*
X229347913Y-170549586D01*
X172197913Y-213499586D02*
X157997913Y-213499586D01*
X95997913Y-227699586D02*
X95997913Y-213499586D01*
X348497913Y-213499586D02*
X348497913Y-227699586D01*
X272297913Y-227699586D02*
X286497913Y-227699586D01*
X177047913Y-151499586D02*
X191247913Y-151499586D01*
X305547913Y-213499586D02*
X291347913Y-213499586D01*
X191247913Y-151499586D02*
X191247913Y-137299586D01*
X157997913Y-194449586D02*
X157997913Y-208649586D01*
X157997913Y-208649586D02*
X172197913Y-208649586D01*
X272297913Y-213499586D02*
X272297913Y-227699586D01*
X172197913Y-208649586D02*
X172197913Y-194449586D01*
X362697913Y-194449586D02*
X348497913Y-194449586D01*
X286497913Y-213499586D02*
X272297913Y-213499586D01*
X172197913Y-194449586D02*
X157997913Y-194449586D01*
X286497913Y-227699586D02*
X286497913Y-213499586D01*
X210297913Y-156349586D02*
X196097913Y-156349586D01*
X348497913Y-194449586D02*
X348497913Y-208649586D01*
X291347913Y-227699586D02*
X305547913Y-227699586D01*
X291347913Y-213499586D02*
X291347913Y-227699586D01*
X210297913Y-170549586D02*
X210297913Y-156349586D01*
X196097913Y-170549586D02*
X210297913Y-170549586D01*
X348497913Y-208649586D02*
X362697913Y-208649586D01*
X305547913Y-227699586D02*
X305547913Y-213499586D01*
X362697913Y-208649586D02*
X362697913Y-194449586D01*
X196097913Y-156349586D02*
X196097913Y-170549586D01*
X191247913Y-137299586D02*
X177047913Y-137299586D01*
X174311249Y-236117500D02*
G75*
G03*
X174311249Y-236117500I-2549999J0D01*
G01*
X355298750Y-236117500D02*
G75*
G03*
X355298750Y-236117500I-2550000J0D01*
G01*
X362748750Y-104498749D02*
X82555000Y-104498749D01*
X275298750Y-236117500D02*
G75*
G03*
X275298750Y-236117500I-2550000J0D01*
G01*
X94311250Y-236117500D02*
G75*
G03*
X94311250Y-236117500I-2550000J0D01*
G01*
X362748750Y-104498750D02*
G75*
G02*
X366130000Y-107880000I0J-3381250D01*
G01*
X275298750Y-99498750D02*
G75*
G03*
X275298750Y-99498750I-2550000J0D01*
G01*
X78379999Y-107880000D02*
G75*
G02*
X81761250Y-104498749I3381251J0D01*
G01*
X94311250Y-99498750D02*
G75*
G03*
X94311250Y-99498750I-2550000J0D01*
G01*
X174311249Y-99498750D02*
G75*
G03*
X174311249Y-99498750I-2549999J0D01*
G01*
X355298750Y-99498750D02*
G75*
G03*
X355298750Y-99498750I-2550000J0D01*
G01*
X376130000Y-227735250D02*
X376130000Y-107879000D01*
X376130000Y-227735250D02*
G75*
G02*
X362748750Y-241116500I-13381250J0D01*
G01*
X68380000Y-107879000D02*
G75*
G02*
X81761250Y-94497750I13381250J0D01*
G01*
X362748750Y-94497750D02*
X82555000Y-94497750D01*
X82555000Y-94497750D02*
X81761250Y-94497750D01*
X81761250Y-241116500D02*
X362748750Y-241116500D01*
X68380000Y-109466500D02*
X68380000Y-227735250D01*
X81761250Y-241116500D02*
G75*
G02*
X68380000Y-227735250I0J13381250D01*
G01*
X68380000Y-107879000D02*
X68380000Y-109466500D01*
X362748750Y-94497750D02*
G75*
G02*
X376130000Y-107879000I0J-13381250D01*
G01*
M02*
