0
SECTION
2
HEADER
9
$INSUNITS
70
4
9
$ACADVER
1
AC1014
9
$HANDSEED
5
FFFF
0
ENDSEC
0
SECTION
2
TABLES
0
TABLE
2
VPORT
5
8
100
AcDbSymbolTable
0
ENDTAB
0
TABLE
2
LTYPE
5
5
100
AcDbSymbolTable
0
LTYPE
5
14
100
AcDbSymbolTableRecord
100
AcDbLinetypeTableRecord
2
BYBLOCK
70
0
0
LTYPE
5
15
100
AcDbSymbolTableRecord
100
AcDbLinetypeTableRecord
2
BYLAYER
70
0
0
ENDTAB
0
TABLE
2
LAYER
5
2
100
AcDbSymbolTable
70
2
0
LAYER
5
50
100
AcDbSymbolTableRecord
100
AcDbLayerTableRecord
2
0
70
0
6
CONTINUOUS
0
ENDTAB
0
TABLE
2
STYLE
5
3
100
AcDbSymbolTable
70
1
0
STYLE
5
11
100
AcDbSymbolTableRecord
100
AcDbTextStyleTableRecord
2
STANDARD
70
0
0
ENDTAB
0
TABLE
2
VIEW
5
6
100
AcDbSymbolTable
70
0
0
ENDTAB
0
TABLE
2
UCS
5
7
100
AcDbSymbolTable
70
0
0
ENDTAB
0
TABLE
2
APPID
5
9
100
AcDbSymbolTable
70
2
0
APPID
5
12
100
AcDbSymbolTableRecord
100
AcDbRegAppTableRecord
2
ACAD
70
0
0
ENDTAB
0
TABLE
2
DIMSTYLE
5
A
100
AcDbSymbolTable
70
1
0
ENDTAB
0
TABLE
2
BLOCK_RECORD
5
1
100
AcDbSymbolTable
70
1
0
BLOCK_RECORD
5
1F
100
AcDbSymbolTableRecord
100
AcDbBlockTableRecord
2
*MODEL_SPACE
0
BLOCK_RECORD
5
1B
100
AcDbSymbolTableRecord
100
AcDbBlockTableRecord
2
*PAPER_SPACE
0
ENDTAB
0
ENDSEC
0
SECTION
2
BLOCKS
0
BLOCK
5
20
100
AcDbEntity
100
AcDbBlockBegin
2
*MODEL_SPACE
0
ENDBLK
5
21
100
AcDbEntity
100
AcDbBlockEnd
0
BLOCK
5
1C
100
AcDbEntity
100
AcDbBlockBegin
2
*PAPER_SPACE
0
ENDBLK
5
1D
100
AcDbEntity
100
AcDbBlockEnd
0
ENDSEC
0
SECTION
2
ENTITIES
0
CIRCLE
5
100
100
AcDbEntity
8
0
100
AcDbCircle
10
272.74374999999998
20
-99.568750014901156
30
0
40
2.5499999999999901
210
0
220
-0
230
1
0
LINE
5
101
100
AcDbEntity
8
0
100
AcDbLine
10
362.74374999999998
20
-104.56874998509883
30
0
11
82.550000000000026
21
-104.56874998509883
31
0
0
CIRCLE
5
102
100
AcDbEntity
8
0
100
AcDbCircle
10
171.75624999999999
20
-99.568750014901156
30
0
40
2.5499999999999901
210
0
220
-0
230
1
0
CIRCLE
5
103
100
AcDbEntity
8
0
100
AcDbCircle
10
91.756249999999994
20
-99.568750014901156
30
0
40
2.5500000000000078
210
0
220
-0
230
1
0
CIRCLE
5
104
100
AcDbEntity
8
0
100
AcDbCircle
10
352.74374999999998
20
-99.568750014901156
30
0
40
2.5499999999999878
210
0
220
-0
230
1
0
ARC
5
105
100
AcDbEntity
8
0
100
AcDbCircle
10
362.74374999999998
20
-107.95000000000002
30
0
40
3.3812500149011271
210
0
220
-0
230
1
100
AcDbArc
50
0
51
90
0
LINE
5
106
100
AcDbEntity
8
0
100
AcDbLine
10
376.125
20
-227.80625000000001
30
0
11
376.12500000000006
21
-107.95000000000002
31
0
0
ARC
5
107
100
AcDbEntity
8
0
100
AcDbCircle
10
362.74374999999998
20
-107.95000000000002
30
0
40
13.381250000000051
210
0
220
-0
230
1
100
AcDbArc
50
0
51
90
0
LINE
5
108
100
AcDbEntity
8
0
100
AcDbLine
10
362.74374999999998
20
-94.568750000000051
30
0
11
82.550000000000026
21
-94.568749999999994
31
0
0
ARC
5
109
100
AcDbEntity
8
0
100
AcDbCircle
10
362.74374999999998
20
-227.80625000000001
30
0
40
13.381250000000016
210
-0
220
0
230
1
100
AcDbArc
50
-90
51
0
0
LINE
5
110
100
AcDbEntity
8
0
100
AcDbLine
10
81.756249999999994
20
-241.18750000000003
30
0
11
362.74374999999998
21
-241.18750000000003
31
0
0
ARC
5
111
100
AcDbEntity
8
0
100
AcDbCircle
10
81.756249999999994
20
-227.80625000000001
30
0
40
13.381249999999998
210
0
220
0
230
1
100
AcDbArc
50
180
51
270
0
LINE
5
112
100
AcDbEntity
8
0
100
AcDbLine
10
68.375
20
-109.53749999999999
30
0
11
68.375
21
-227.80625000000001
31
0
0
CIRCLE
5
113
100
AcDbEntity
8
0
100
AcDbCircle
10
91.756249999999994
20
-236.18750001490116
30
0
40
2.5500000000000078
210
0
220
-0
230
1
0
CIRCLE
5
114
100
AcDbEntity
8
0
100
AcDbCircle
10
171.75624999999999
20
-236.18750001490116
30
0
40
2.5499999999999901
210
0
220
-0
230
1
0
CIRCLE
5
115
100
AcDbEntity
8
0
100
AcDbCircle
10
272.74374999999998
20
-236.18750001490116
30
0
40
2.5499999999999901
210
0
220
-0
230
1
0
CIRCLE
5
116
100
AcDbEntity
8
0
100
AcDbCircle
10
352.74374999999998
20
-236.18750001490116
30
0
40
2.5499999999999878
210
0
220
-0
230
1
0
ARC
5
117
100
AcDbEntity
8
0
100
AcDbCircle
10
81.756249999999994
20
-107.95000000000002
30
0
40
13.381250000000016
210
0
220
-0
230
1
100
AcDbArc
50
90
51
180
0
LINE
5
118
100
AcDbEntity
8
0
100
AcDbLine
10
68.375
20
-107.95000000000002
30
0
11
68.375
21
-109.53749999999999
31
0
0
LINE
5
119
100
AcDbEntity
8
0
100
AcDbLine
10
82.550000000000026
20
-94.568749999999994
30
0
11
81.756249999999994
21
-94.568749999999994
31
0
0
ARC
5
120
100
AcDbEntity
8
0
100
AcDbCircle
10
81.756249999999994
20
-107.95000000000002
30
0
40
3.3812500149011804
210
0
220
-0
230
1
100
AcDbArc
50
90
51
180
0
LINE
5
121
100
AcDbEntity
8
0
100
AcDbLine
10
78.374999985098839
20
-107.95000000000002
30
0
11
78.374999985098839
21
-109.53749999999999
31
0
0
LINE
5
122
100
AcDbEntity
8
0
100
AcDbLine
10
82.550000000000026
20
-104.56874998509883
30
0
11
81.756249999999994
21
-104.56874998509883
31
0
0
LWPOLYLINE
5
123
100
AcDbEntity
8
0
100
AcDbPolyline
90
4
70
1
43
0.0
10
253.24291338582697
20
-208.71958661417301
10
267.44291338582696
20
-208.71958661417301
10
267.44291338582696
20
-194.51958661417302
10
253.24291338582697
20
-194.51958661417305
0
LWPOLYLINE
5
124
100
AcDbEntity
8
0
100
AcDbPolyline
90
4
70
1
43
0.0
10
196.09291338582696
20
-151.56958661417298
10
210.29291338582695
20
-151.56958661417298
10
210.29291338582695
20
-137.36958661417299
10
196.09291338582696
20
-137.36958661417302
0
LWPOLYLINE
5
125
100
AcDbEntity
8
0
100
AcDbPolyline
90
4
70
1
43
0.0
10
119.892913385827
20
-189.669586614173
10
134.09291338582699
20
-189.669586614173
10
134.09291338582699
20
-175.46958661417301
10
119.892913385827
20
-175.46958661417304
0
LWPOLYLINE
5
126
100
AcDbEntity
8
0
100
AcDbPolyline
90
4
70
1
43
0.0
10
119.892913385827
20
-208.71958661417301
10
134.09291338582699
20
-208.71958661417301
10
134.09291338582699
20
-194.51958661417302
10
119.892913385827
20
-194.51958661417305
0
LWPOLYLINE
5
127
100
AcDbEntity
8
0
100
AcDbPolyline
90
4
70
1
43
0.0
10
310.39291338582694
20
-208.71958661417301
10
324.59291338582693
20
-208.71958661417301
10
324.59291338582688
20
-194.51958661417302
10
310.39291338582694
20
-194.51958661417305
0
LWPOLYLINE
5
128
100
AcDbEntity
8
0
100
AcDbPolyline
90
4
70
1
43
0.0
10
100.842913385827
20
-189.669586614173
10
115.04291338582701
20
-189.669586614173
10
115.04291338582698
20
-175.46958661417301
10
100.842913385827
20
-175.46958661417304
0
LWPOLYLINE
5
129
100
AcDbEntity
8
0
100
AcDbPolyline
90
4
70
1
43
0.0
10
100.842913385827
20
-208.71958661417301
10
115.04291338582701
20
-208.71958661417301
10
115.04291338582698
20
-194.51958661417302
10
100.842913385827
20
-194.51958661417305
0
LWPOLYLINE
5
130
100
AcDbEntity
8
0
100
AcDbPolyline
90
4
70
1
43
0.0
10
329.44291338582696
20
-189.669586614173
10
343.64291338582694
20
-189.669586614173
10
343.64291338582689
20
-175.46958661417301
10
329.44291338582696
20
-175.46958661417304
0
LWPOLYLINE
5
131
100
AcDbEntity
8
0
100
AcDbPolyline
90
4
70
1
43
0.0
10
234.19291338582696
20
-170.61958661417299
10
248.39291338582697
20
-170.61958661417299
10
248.39291338582694
20
-156.419586614173
10
234.19291338582696
20
-156.41958661417303
0
LWPOLYLINE
5
132
100
AcDbEntity
8
0
100
AcDbPolyline
90
4
70
1
43
0.0
10
100.842913385827
20
-227.76958661417302
10
115.04291338582701
20
-227.76958661417302
10
115.04291338582698
20
-213.56958661417303
10
100.842913385827
20
-213.56958661417306
0
LWPOLYLINE
5
133
100
AcDbEntity
8
0
100
AcDbPolyline
90
4
70
1
43
0.0
10
215.14291338582694
20
-189.669586614173
10
229.34291338582696
20
-189.669586614173
10
229.34291338582696
20
-175.46958661417301
10
215.14291338582694
20
-175.46958661417304
0
LWPOLYLINE
5
134
100
AcDbEntity
8
0
100
AcDbPolyline
90
4
70
1
43
0.0
10
291.34291338582693
20
-227.76958661417302
10
305.54291338582692
20
-227.76958661417302
10
305.54291338582692
20
-213.56958661417303
10
291.34291338582693
20
-213.56958661417306
0
LWPOLYLINE
5
135
100
AcDbEntity
8
0
100
AcDbPolyline
90
4
70
1
43
0.0
10
348.49291338582691
20
-208.71958661417301
10
362.6929133858269
20
-208.71958661417301
10
362.6929133858269
20
-194.51958661417302
10
348.49291338582691
20
-194.51958661417305
0
LWPOLYLINE
5
136
100
AcDbEntity
8
0
100
AcDbPolyline
90
4
70
1
43
0.0
10
196.09291338582696
20
-170.61958661417299
10
210.29291338582695
20
-170.61958661417299
10
210.29291338582695
20
-156.419586614173
10
196.09291338582696
20
-156.41958661417303
0
LWPOLYLINE
5
137
100
AcDbEntity
8
0
100
AcDbPolyline
90
4
70
1
43
0.0
10
157.99291338582697
20
-208.71958661417301
10
172.19291338582701
20
-208.71958661417301
10
172.19291338582696
20
-194.51958661417302
10
157.99291338582697
20
-194.51958661417305
0
LWPOLYLINE
5
138
100
AcDbEntity
8
0
100
AcDbPolyline
90
4
70
1
43
0.0
10
272.29291338582692
20
-227.76958661417302
10
286.49291338582697
20
-227.76958661417302
10
286.49291338582691
20
-213.56958661417303
10
272.29291338582692
20
-213.56958661417306
0
LWPOLYLINE
5
139
100
AcDbEntity
8
0
100
AcDbPolyline
90
4
70
1
43
0.0
10
177.04291338582698
20
-151.56958661417298
10
191.24291338582697
20
-151.56958661417298
10
191.24291338582694
20
-137.36958661417299
10
177.04291338582698
20
-137.36958661417302
0
LWPOLYLINE
5
140
100
AcDbEntity
8
0
100
AcDbPolyline
90
4
70
1
43
0.0
10
157.99291338582697
20
-227.76958661417302
10
172.19291338582701
20
-227.76958661417302
10
172.19291338582696
20
-213.56958661417303
10
157.99291338582697
20
-213.56958661417306
0
LWPOLYLINE
5
141
100
AcDbEntity
8
0
100
AcDbPolyline
90
4
70
1
43
0.0
10
348.49291338582691
20
-227.76958661417302
10
362.6929133858269
20
-227.76958661417302
10
362.6929133858269
20
-213.56958661417303
10
348.49291338582691
20
-213.56958661417306
0
LWPOLYLINE
5
142
100
AcDbEntity
8
0
100
AcDbPolyline
90
4
70
1
43
0.0
10
215.14291338582694
20
-170.61958661417299
10
229.34291338582696
20
-170.61958661417299
10
229.34291338582696
20
-156.419586614173
10
215.14291338582694
20
-156.41958661417303
0
LWPOLYLINE
5
143
100
AcDbEntity
8
0
100
AcDbPolyline
90
4
70
1
43
0.0
10
215.14291338582694
20
-208.71958661417301
10
229.34291338582696
20
-208.71958661417301
10
229.34291338582696
20
-194.51958661417302
10
215.14291338582694
20
-194.51958661417305
0
LWPOLYLINE
5
144
100
AcDbEntity
8
0
100
AcDbPolyline
90
4
70
1
43
0.0
10
348.49291338582691
20
-189.669586614173
10
362.6929133858269
20
-189.669586614173
10
362.6929133858269
20
-175.46958661417301
10
348.49291338582691
20
-175.46958661417304
0
LWPOLYLINE
5
145
100
AcDbEntity
8
0
100
AcDbPolyline
90
4
70
1
43
0.0
10
81.792913385827006
20
-227.76958661417302
10
95.992913385827009
20
-227.76958661417302
10
95.992913385826995
20
-213.56958661417303
10
81.792913385827006
20
-213.56958661417306
0
LWPOLYLINE
5
146
100
AcDbEntity
8
0
100
AcDbPolyline
90
4
70
1
43
0.0
10
138.94291338582698
20
-189.669586614173
10
153.142913385827
20
-189.669586614173
10
153.14291338582697
20
-175.46958661417301
10
138.94291338582698
20
-175.46958661417304
0
LWPOLYLINE
5
147
100
AcDbEntity
8
0
100
AcDbPolyline
90
4
70
1
43
0.0
10
119.892913385827
20
-227.76958661417302
10
134.09291338582699
20
-227.76958661417302
10
134.09291338582699
20
-213.56958661417303
10
119.892913385827
20
-213.56958661417306
0
LWPOLYLINE
5
148
100
AcDbEntity
8
0
100
AcDbPolyline
90
4
70
1
43
0.0
10
234.19291338582696
20
-208.71958661417301
10
248.39291338582697
20
-208.71958661417301
10
248.39291338582694
20
-194.51958661417302
10
234.19291338582696
20
-194.51958661417305
0
LWPOLYLINE
5
149
100
AcDbEntity
8
0
100
AcDbPolyline
90
4
70
1
43
0.0
10
348.49291338582691
20
-170.61958661417299
10
362.6929133858269
20
-170.61958661417299
10
362.6929133858269
20
-156.419586614173
10
348.49291338582691
20
-156.41958661417303
0
LWPOLYLINE
5
150
100
AcDbEntity
8
0
100
AcDbPolyline
90
4
70
1
43
0.0
10
253.24291338582697
20
-151.56958661417298
10
267.44291338582696
20
-151.56958661417298
10
267.44291338582696
20
-137.36958661417299
10
253.24291338582697
20
-137.36958661417302
0
LWPOLYLINE
5
151
100
AcDbEntity
8
0
100
AcDbPolyline
90
4
70
1
43
0.0
10
329.44291338582696
20
-170.61958661417299
10
343.64291338582694
20
-170.61958661417299
10
343.64291338582689
20
-156.419586614173
10
329.44291338582696
20
-156.41958661417303
0
LWPOLYLINE
5
152
100
AcDbEntity
8
0
100
AcDbPolyline
90
4
70
1
43
0.0
10
329.44291338582696
20
-227.76958661417302
10
343.64291338582694
20
-227.76958661417302
10
343.64291338582689
20
-213.56958661417303
10
329.44291338582696
20
-213.56958661417306
0
LWPOLYLINE
5
153
100
AcDbEntity
8
0
100
AcDbPolyline
90
4
70
1
43
0.0
10
196.09291338582696
20
-189.669586614173
10
210.29291338582695
20
-189.669586614173
10
210.29291338582695
20
-175.46958661417301
10
196.09291338582696
20
-175.46958661417304
0
LWPOLYLINE
5
154
100
AcDbEntity
8
0
100
AcDbPolyline
90
4
70
1
43
0.0
10
253.24291338582697
20
-189.669586614173
10
267.44291338582696
20
-189.669586614173
10
267.44291338582696
20
-175.46958661417301
10
253.24291338582697
20
-175.46958661417304
0
LWPOLYLINE
5
155
100
AcDbEntity
8
0
100
AcDbPolyline
90
4
70
1
43
0.0
10
310.39291338582694
20
-189.669586614173
10
324.59291338582693
20
-189.669586614173
10
324.59291338582688
20
-175.46958661417301
10
310.39291338582694
20
-175.46958661417304
0
LWPOLYLINE
5
156
100
AcDbEntity
8
0
100
AcDbPolyline
90
4
70
1
43
0.0
10
81.792913385827006
20
-208.71958661417301
10
95.992913385827009
20
-208.71958661417301
10
95.992913385826995
20
-194.51958661417302
10
81.792913385827006
20
-194.51958661417305
0
LWPOLYLINE
5
157
100
AcDbEntity
8
0
100
AcDbPolyline
90
4
70
1
43
0.0
10
291.34291338582693
20
-170.61958661417299
10
305.54291338582692
20
-170.61958661417299
10
305.54291338582692
20
-156.419586614173
10
291.34291338582693
20
-156.41958661417303
0
LWPOLYLINE
5
158
100
AcDbEntity
8
0
100
AcDbPolyline
90
4
70
1
43
0.0
10
215.14291338582694
20
-151.56958661417298
10
229.34291338582696
20
-151.56958661417298
10
229.34291338582696
20
-137.36958661417299
10
215.14291338582694
20
-137.36958661417302
0
LWPOLYLINE
5
159
100
AcDbEntity
8
0
100
AcDbPolyline
90
4
70
1
43
0.0
10
157.99291338582697
20
-189.669586614173
10
172.19291338582701
20
-189.669586614173
10
172.19291338582696
20
-175.46958661417301
10
157.99291338582697
20
-175.46958661417304
0
LWPOLYLINE
5
160
100
AcDbEntity
8
0
100
AcDbPolyline
90
4
70
1
43
0.0
10
138.94291338582698
20
-227.76958661417302
10
153.142913385827
20
-227.76958661417302
10
153.14291338582697
20
-213.56958661417303
10
138.94291338582698
20
-213.56958661417306
0
LWPOLYLINE
5
161
100
AcDbEntity
8
0
100
AcDbPolyline
90
4
70
1
43
0.0
10
138.94291338582698
20
-151.56958661417298
10
153.142913385827
20
-151.56958661417298
10
153.14291338582697
20
-137.36958661417299
10
138.94291338582698
20
-137.36958661417302
0
LWPOLYLINE
5
162
100
AcDbEntity
8
0
100
AcDbPolyline
90
4
70
1
43
0.0
10
157.99291338582697
20
-170.61958661417299
10
172.19291338582701
20
-170.61958661417299
10
172.19291338582696
20
-156.419586614173
10
157.99291338582697
20
-156.41958661417303
0
LWPOLYLINE
5
163
100
AcDbEntity
8
0
100
AcDbPolyline
90
4
70
1
43
0.0
10
138.94291338582698
20
-208.71958661417301
10
153.142913385827
20
-208.71958661417301
10
153.14291338582697
20
-194.51958661417302
10
138.94291338582698
20
-194.51958661417305
0
LWPOLYLINE
5
164
100
AcDbEntity
8
0
100
AcDbPolyline
90
4
70
1
43
0.0
10
177.04291338582698
20
-189.669586614173
10
191.24291338582697
20
-189.669586614173
10
191.24291338582694
20
-175.46958661417301
10
177.04291338582698
20
-175.46958661417304
0
LWPOLYLINE
5
165
100
AcDbEntity
8
0
100
AcDbPolyline
90
4
70
1
43
0.0
10
310.39291338582694
20
-170.61958661417299
10
324.59291338582693
20
-170.61958661417299
10
324.59291338582688
20
-156.419586614173
10
310.39291338582694
20
-156.41958661417303
0
LWPOLYLINE
5
166
100
AcDbEntity
8
0
100
AcDbPolyline
90
4
70
1
43
0.0
10
177.04291338582698
20
-170.61958661417299
10
191.24291338582697
20
-170.61958661417299
10
191.24291338582694
20
-156.419586614173
10
177.04291338582698
20
-156.41958661417303
0
LWPOLYLINE
5
167
100
AcDbEntity
8
0
100
AcDbPolyline
90
4
70
1
43
0.0
10
272.29291338582692
20
-208.71958661417301
10
286.49291338582697
20
-208.71958661417301
10
286.49291338582691
20
-194.51958661417302
10
272.29291338582692
20
-194.51958661417305
0
LWPOLYLINE
5
168
100
AcDbEntity
8
0
100
AcDbPolyline
90
4
70
1
43
0.0
10
329.44291338582696
20
-151.56958661417298
10
343.64291338582694
20
-151.56958661417298
10
343.64291338582689
20
-137.36958661417299
10
329.44291338582696
20
-137.36958661417302
0
LWPOLYLINE
5
169
100
AcDbEntity
8
0
100
AcDbPolyline
90
4
70
1
43
0.0
10
100.842913385827
20
-170.61958661417299
10
115.04291338582701
20
-170.61958661417299
10
115.04291338582698
20
-156.419586614173
10
100.842913385827
20
-156.41958661417303
0
LWPOLYLINE
5
170
100
AcDbEntity
8
0
100
AcDbPolyline
90
4
70
1
43
0.0
10
81.792913385827006
20
-189.669586614173
10
95.992913385827009
20
-189.669586614173
10
95.992913385826995
20
-175.46958661417301
10
81.792913385827006
20
-175.46958661417304
0
LWPOLYLINE
5
171
100
AcDbEntity
8
0
100
AcDbPolyline
90
4
70
1
43
0.0
10
272.29291338582692
20
-151.56958661417298
10
286.49291338582697
20
-151.56958661417298
10
286.49291338582691
20
-137.36958661417299
10
272.29291338582692
20
-137.36958661417302
0
LWPOLYLINE
5
172
100
AcDbEntity
8
0
100
AcDbPolyline
90
4
70
1
43
0.0
10
234.19291338582696
20
-151.56958661417298
10
248.39291338582697
20
-151.56958661417298
10
248.39291338582694
20
-137.36958661417299
10
234.19291338582696
20
-137.36958661417302
0
LWPOLYLINE
5
173
100
AcDbEntity
8
0
100
AcDbPolyline
90
4
70
1
43
0.0
10
291.34291338582693
20
-189.669586614173
10
305.54291338582692
20
-189.669586614173
10
305.54291338582692
20
-175.46958661417301
10
291.34291338582693
20
-175.46958661417304
0
LWPOLYLINE
5
174
100
AcDbEntity
8
0
100
AcDbPolyline
90
4
70
1
43
0.0
10
310.39291338582694
20
-151.56958661417298
10
324.59291338582693
20
-151.56958661417298
10
324.59291338582688
20
-137.36958661417299
10
310.39291338582694
20
-137.36958661417302
0
LWPOLYLINE
5
175
100
AcDbEntity
8
0
100
AcDbPolyline
90
4
70
1
43
0.0
10
196.09291338582696
20
-208.71958661417301
10
210.29291338582695
20
-208.71958661417301
10
210.29291338582695
20
-194.51958661417302
10
196.09291338582696
20
-194.51958661417305
0
LWPOLYLINE
5
176
100
AcDbEntity
8
0
100
AcDbPolyline
90
4
70
1
43
0.0
10
119.892913385827
20
-151.56958661417298
10
134.09291338582699
20
-151.56958661417298
10
134.09291338582699
20
-137.36958661417299
10
119.892913385827
20
-137.36958661417302
0
LWPOLYLINE
5
177
100
AcDbEntity
8
0
100
AcDbPolyline
90
4
70
1
43
0.0
10
157.99291338582697
20
-151.56958661417298
10
172.19291338582701
20
-151.56958661417298
10
172.19291338582696
20
-137.36958661417299
10
157.99291338582697
20
-137.36958661417302
0
LWPOLYLINE
5
178
100
AcDbEntity
8
0
100
AcDbPolyline
90
4
70
1
43
0.0
10
234.19291338582696
20
-189.669586614173
10
248.39291338582697
20
-189.669586614173
10
248.39291338582694
20
-175.46958661417301
10
234.19291338582696
20
-175.46958661417304
0
LWPOLYLINE
5
179
100
AcDbEntity
8
0
100
AcDbPolyline
90
4
70
1
43
0.0
10
138.94291338582698
20
-170.61958661417299
10
153.142913385827
20
-170.61958661417299
10
153.14291338582697
20
-156.419586614173
10
138.94291338582698
20
-156.41958661417303
0
LWPOLYLINE
5
180
100
AcDbEntity
8
0
100
AcDbPolyline
90
4
70
1
43
0.0
10
348.49291338582691
20
-151.56958661417298
10
362.6929133858269
20
-151.56958661417298
10
362.6929133858269
20
-137.36958661417299
10
348.49291338582691
20
-137.36958661417302
0
LWPOLYLINE
5
181
100
AcDbEntity
8
0
100
AcDbPolyline
90
4
70
1
43
0.0
10
177.04291338582698
20
-208.71958661417301
10
191.24291338582697
20
-208.71958661417301
10
191.24291338582694
20
-194.51958661417302
10
177.04291338582698
20
-194.51958661417305
0
LWPOLYLINE
5
182
100
AcDbEntity
8
0
100
AcDbPolyline
90
4
70
1
43
0.0
10
329.44291338582696
20
-208.71958661417301
10
343.64291338582694
20
-208.71958661417301
10
343.64291338582689
20
-194.51958661417302
10
329.44291338582696
20
-194.51958661417305
0
LWPOLYLINE
5
183
100
AcDbEntity
8
0
100
AcDbPolyline
90
4
70
1
43
0.0
10
291.34291338582693
20
-208.71958661417301
10
305.54291338582692
20
-208.71958661417301
10
305.54291338582692
20
-194.51958661417302
10
291.34291338582693
20
-194.51958661417305
0
LWPOLYLINE
5
184
100
AcDbEntity
8
0
100
AcDbPolyline
90
4
70
1
43
0.0
10
253.24291338582697
20
-170.61958661417299
10
267.44291338582696
20
-170.61958661417299
10
267.44291338582696
20
-156.419586614173
10
253.24291338582697
20
-156.41958661417303
0
LWPOLYLINE
5
185
100
AcDbEntity
8
0
100
AcDbPolyline
90
4
70
1
43
0.0
10
81.792913385827006
20
-151.56958661417298
10
95.992913385827009
20
-151.56958661417298
10
95.992913385826995
20
-137.36958661417299
10
81.792913385827006
20
-137.36958661417302
0
LWPOLYLINE
5
186
100
AcDbEntity
8
0
100
AcDbPolyline
90
4
70
1
43
0.0
10
177.04291338582698
20
-227.76958661417302
10
267.44291338582696
20
-227.76958661417302
10
267.44291338582696
20
-213.56958661417303
10
177.04291338582698
20
-213.56958661417306
0
LWPOLYLINE
5
187
100
AcDbEntity
8
0
100
AcDbPolyline
90
4
70
1
43
0.0
10
310.39291338582694
20
-227.76958661417302
10
324.59291338582693
20
-227.76958661417302
10
324.59291338582688
20
-213.56958661417303
10
310.39291338582694
20
-213.56958661417306
0
LWPOLYLINE
5
188
100
AcDbEntity
8
0
100
AcDbPolyline
90
4
70
1
43
0.0
10
272.29291338582692
20
-189.669586614173
10
286.49291338582697
20
-189.669586614173
10
286.49291338582691
20
-175.46958661417301
10
272.29291338582692
20
-175.46958661417304
0
LWPOLYLINE
5
189
100
AcDbEntity
8
0
100
AcDbPolyline
90
4
70
1
43
0.0
10
81.792913385827006
20
-170.61958661417299
10
95.992913385827009
20
-170.61958661417299
10
95.992913385826995
20
-156.419586614173
10
81.792913385827006
20
-156.41958661417303
0
LWPOLYLINE
5
190
100
AcDbEntity
8
0
100
AcDbPolyline
90
4
70
1
43
0.0
10
119.892913385827
20
-170.61958661417299
10
134.09291338582699
20
-170.61958661417299
10
134.09291338582699
20
-156.419586614173
10
119.892913385827
20
-156.41958661417303
0
LWPOLYLINE
5
191
100
AcDbEntity
8
0
100
AcDbPolyline
90
4
70
1
43
0.0
10
100.842913385827
20
-151.56958661417298
10
115.04291338582701
20
-151.56958661417298
10
115.04291338582698
20
-137.36958661417299
10
100.842913385827
20
-137.36958661417302
0
LWPOLYLINE
5
192
100
AcDbEntity
8
0
100
AcDbPolyline
90
4
70
1
43
0.0
10
272.29291338582692
20
-170.61958661417299
10
286.49291338582697
20
-170.61958661417299
10
286.49291338582691
20
-156.419586614173
10
272.29291338582692
20
-156.41958661417303
0
LWPOLYLINE
5
193
100
AcDbEntity
8
0
100
AcDbPolyline
90
4
70
1
43
0.0
10
291.34291338582693
20
-151.56958661417298
10
305.54291338582692
20
-151.56958661417298
10
305.54291338582692
20
-137.36958661417299
10
291.34291338582693
20
-137.36958661417302
0
LINE
5
194
100
AcDbEntity
8
0
100
AcDbLine
10
362.74400000000003
20
-134.95158661417304
30
0
11
81.756
21
-134.95158661417301
31
0
0
LINE
5
195
100
AcDbEntity
8
0
100
AcDbLine
10
81.756
20
-134.95158661417301
30
0
11
81.755899999999983
21
-134.95158661417301
31
0
0
LINE
5
196
100
AcDbEntity
8
0
100
AcDbLine
10
362.74400000000003
20
-134.95158661417304
30
0
11
362.7441
21
-134.95158661417304
31
0
0
LINE
5
197
100
AcDbEntity
8
0
100
AcDbLine
10
78.374999985098839
20
-109.53749999999999
30
0
11
78.374913301692771
21
-131.57057331253253
31
0
0
LINE
5
198
100
AcDbEntity
8
0
100
AcDbLine
10
366.1250000149011
20
-107.95000000000002
30
0
11
366.12508744628286
21
-131.56137314154475
31
0
0
ARC
5
199
100
AcDbEntity
8
0
100
AcDbCircle
10
81.755913301666624
20
-131.57058661419916
30
0
40
3.3810000000000251
210
0
220
0
230
1
100
AcDbArc
50
179.99977458435427
51
269.99977458463201
0
ARC
5
200
100
AcDbEntity
8
0
100
AcDbCircle
10
362.7441
20
-131.57058661417307
30
0
40
3.380999999999954
210
0
220
0
230
1
100
AcDbArc
50
-90
51
0.15613538882625522
0
CIRCLE
5
201
100
AcDbEntity
8
0
100
AcDbCircle
10
117.47500000000001
20
-154.00999999999999
30
0
40
2.3500000149011591
210
0
220
-0
230
1
0
CIRCLE
5
202
100
AcDbEntity
8
0
100
AcDbCircle
10
231.77500000000003
20
-154.05099999999999
30
0
40
2.3500000149011768
210
0
220
-0
230
1
0
CIRCLE
5
203
100
AcDbEntity
8
0
100
AcDbCircle
10
327.02499999999998
20
-154
30
0
40
2.3500000149011413
210
0
220
-0
230
1
0
CIRCLE
5
204
100
AcDbEntity
8
0
100
AcDbCircle
10
346.07500000000005
20
-211.13749999999999
30
0
40
2.3500000149011413
210
0
220
-0
230
1
0
CIRCLE
5
205
100
AcDbEntity
8
0
100
AcDbCircle
10
307.97500000000002
20
-192.08750000000003
30
0
40
2.3500000149011768
210
0
220
-0
230
1
0
CIRCLE
5
206
100
AcDbEntity
8
0
100
AcDbCircle
10
269.875
20
-173.10100000000003
30
0
40
2.3500000149011768
210
0
220
-0
230
1
0
CIRCLE
5
207
100
AcDbEntity
8
0
100
AcDbCircle
10
212.72500000000002
20
-211.13749999999999
30
0
40
2.3500000149011768
210
0
220
-0
230
1
0
CIRCLE
5
208
100
AcDbEntity
8
0
100
AcDbCircle
10
174.62500000000003
20
-173.03750000000002
30
0
40
2.3500000149011768
210
0
220
-0
230
1
0
CIRCLE
5
209
100
AcDbEntity
8
0
100
AcDbCircle
10
136.52500000000001
20
-192.08750000000003
30
0
40
2.3500000149011591
210
0
220
-0
230
1
0
CIRCLE
5
210
100
AcDbEntity
8
0
100
AcDbCircle
10
98.425000000000011
20
-211.13749999999999
30
0
40
2.3500000149011591
210
0
220
-0
230
1
0
ENDSEC
0
SECTION
2
OBJECTS
0
DICTIONARY
5
C
100
AcDbDictionary
3
ACAD_GROUP
350
D
3
ACAD_MLINESTYLE
350
17
0
DICTIONARY
5
D
100
AcDbDictionary
0
DICTIONARY
5
1A
330
C
100
AcDbDictionary
0
DICTIONARY
5
17
100
AcDbDictionary
0
ENDSEC
0
EOF
