G04 #@! TF.GenerationSoftware,KiCad,Pcbnew,(5.1.6)-1*
G04 #@! TF.CreationDate,2020-11-14T19:27:32+01:00*
G04 #@! TF.ProjectId,punk75_bottom_eotw,70756e6b-3735-45f6-926f-74746f6d5f65,rev?*
G04 #@! TF.SameCoordinates,Original*
G04 #@! TF.FileFunction,Legend,Bot*
G04 #@! TF.FilePolarity,Positive*
%FSLAX46Y46*%
G04 Gerber Fmt 4.6, Leading zero omitted, Abs format (unit mm)*
G04 Created by KiCad (PCBNEW (5.1.6)-1) date 2020-11-14 19:27:32*
%MOMM*%
%LPD*%
G01*
G04 APERTURE LIST*
%ADD10C,1.000000*%
%ADD11C,0.254000*%
G04 APERTURE END LIST*
D10*
X178108194Y-155849959D02*
X177101994Y-152120223D01*
X172914078Y-136146247D02*
G75*
G03*
X172861656Y-136381036I206097J-169262D01*
G01*
X122071616Y-124558228D02*
X114585691Y-122552380D01*
X121597945Y-116666736D02*
X134154980Y-120031384D01*
X252391169Y-178843522D02*
X249433408Y-186486867D01*
X176581999Y-137256699D02*
X178753284Y-138080080D01*
X177101994Y-152120223D02*
X175887000Y-147750403D01*
X234401971Y-173809665D02*
X233350646Y-182547907D01*
X231539273Y-196792845D02*
G75*
G03*
X231621553Y-196743358I15496J67380D01*
G01*
X187482255Y-138204038D02*
X185779476Y-134569144D01*
X190106343Y-189598036D02*
X195168460Y-186939307D01*
X230926214Y-196644442D02*
X230188343Y-196437819D01*
X175887000Y-147750403D02*
X174679868Y-143383499D01*
X173118921Y-136085731D02*
G75*
G03*
X172914078Y-136146245I-57810J-181269D01*
G01*
X207873995Y-147013920D02*
X206320521Y-146016100D01*
X231621554Y-196743359D02*
G75*
G03*
X231649845Y-196597231I-1019645J273212D01*
G01*
X232457830Y-189933703D02*
X231649845Y-196597231D01*
X173118920Y-136085731D02*
X174718562Y-136605677D01*
X176581999Y-137256699D02*
G75*
G03*
X176581999Y-137256699I0J0D01*
G01*
X174718562Y-136605677D02*
X176581999Y-137256699D01*
X235453273Y-165071507D02*
X234401971Y-173809665D01*
X176581999Y-137256699D02*
G75*
G03*
X176581999Y-137256699I0J0D01*
G01*
X171800826Y-133667618D02*
X156977274Y-169010365D01*
X114585691Y-122552380D02*
X107099766Y-120546533D01*
X107099766Y-120546533D02*
X108070337Y-116924311D01*
X237182060Y-150877195D02*
G75*
G03*
X237153963Y-151022323I1012607J-271327D01*
G01*
X237153963Y-151022323D02*
X236346015Y-157685986D01*
X206282478Y-146085584D02*
X187482255Y-138204038D01*
X195168460Y-186939307D02*
X205562459Y-156265047D01*
X108070337Y-116924311D02*
X109040909Y-113302089D01*
X236346015Y-157685986D02*
X235453273Y-165071507D01*
X185779476Y-134569144D02*
X171800826Y-133667618D01*
X154163849Y-180134570D02*
X168797475Y-181713485D01*
X168797475Y-181713485D02*
X173906617Y-183249772D01*
X183626013Y-185686780D02*
X190106343Y-189598036D01*
X175498133Y-184178108D02*
X183626013Y-185686780D01*
X231539271Y-196792846D02*
X230926214Y-196644442D01*
X109040909Y-113302089D02*
X121597945Y-116666736D01*
X134154980Y-120031384D02*
X133313818Y-123170643D01*
X156977274Y-169010365D02*
X154163849Y-180134570D01*
X173906617Y-183249772D02*
X175498133Y-184178108D01*
X173698157Y-139663600D02*
X172861656Y-136381036D01*
X205562459Y-156265047D02*
X207873995Y-147013920D01*
X134154980Y-120031384D02*
X134154980Y-120031384D01*
X233350646Y-182547907D02*
X232457830Y-189933703D01*
X174679868Y-143383499D02*
X173698157Y-139663600D01*
X194319479Y-150927680D02*
X195402611Y-148268719D01*
X178753284Y-138080080D02*
X180924203Y-138952348D01*
X213461673Y-145995294D02*
G75*
G03*
X213496919Y-145302687I-5415563J622787D01*
G01*
X213461673Y-145995295D02*
X212885511Y-150978322D01*
X212885511Y-150978322D02*
X212206812Y-156714089D01*
X209391658Y-180356072D02*
G75*
G03*
X209447246Y-180392523I36978J-4220D01*
G01*
X212206812Y-156714089D02*
X211399184Y-163347547D01*
X184596706Y-140694654D02*
G75*
G03*
X184358215Y-140468402I-454200J-239947D01*
G01*
X234727062Y-150187778D02*
X235683076Y-150397462D01*
X190875673Y-159490409D02*
X191920105Y-157027639D01*
X186261127Y-147219172D02*
X187184391Y-151063811D01*
X212880803Y-175829870D02*
X216567006Y-170865900D01*
X209955684Y-175423057D02*
X209391660Y-180356071D01*
X211399184Y-163347547D02*
X210601596Y-169912195D01*
X185447794Y-143912764D02*
X186261127Y-147219172D01*
X191920105Y-157027639D02*
X193114060Y-154007515D01*
X216567006Y-170865900D02*
X220914867Y-164987726D01*
X237135315Y-150793193D02*
G75*
G03*
X237135315Y-150793193I0J0D01*
G01*
X210601596Y-169912195D02*
X209955684Y-175423057D01*
X209447247Y-180392523D02*
G75*
G03*
X209555501Y-180296195I-179196J310373D01*
G01*
X189975212Y-161488041D02*
X190875673Y-159490409D01*
X209555501Y-180296195D02*
X212880803Y-175829870D01*
X220914867Y-164987726D02*
X232225048Y-149673827D01*
X232225048Y-149673827D02*
X234727062Y-150187778D01*
X188109618Y-154912572D02*
X188929110Y-158232316D01*
X188929110Y-158232316D02*
X189654450Y-161110966D01*
X196599165Y-145651467D02*
G75*
G03*
X196358505Y-145996890I701638J-745385D01*
G01*
X235683076Y-150397462D02*
X236480298Y-150602300D01*
X180924203Y-138952348D02*
X182789245Y-139754450D01*
X189654449Y-161110967D02*
G75*
G03*
X189799725Y-161492406I1710106J432930D01*
G01*
X236480298Y-150602300D02*
X237135315Y-150793193D01*
X184726199Y-141032324D02*
X185447794Y-143912764D01*
X195402611Y-148268719D02*
X196358505Y-145996890D01*
X237182060Y-150877195D02*
G75*
G03*
X237135315Y-150793193I-66721J17878D01*
G01*
X182789245Y-139754450D02*
X184358215Y-140468402D01*
X189799725Y-161492405D02*
G75*
G03*
X189975212Y-161488041I86676J45108D01*
G01*
X187184391Y-151063811D02*
X188109618Y-154912572D01*
X184726200Y-141032324D02*
G75*
G03*
X184596706Y-140694653I-1467000J-368914D01*
G01*
X213369584Y-144837422D02*
G75*
G03*
X213027197Y-144465854I-990167J-568871D01*
G01*
X213496918Y-145302688D02*
G75*
G03*
X213369583Y-144837422I-958541J-12279D01*
G01*
X193114060Y-154007515D02*
X194319479Y-150927680D01*
X277147600Y-193216400D02*
X280551200Y-195045200D01*
X186571200Y-167410000D02*
X180424400Y-171321600D01*
X186520400Y-167511600D02*
X186114000Y-167816400D01*
X198176114Y-145876761D02*
X199783474Y-146421988D01*
X199783474Y-146421988D02*
X201916686Y-147259747D01*
X201916686Y-147259747D02*
X203795882Y-148030498D01*
X203795882Y-148030498D02*
X205380065Y-148685879D01*
X206828026Y-149302483D02*
G75*
G03*
X206806978Y-149279522I-35262J-11195D01*
G01*
X310917200Y-154330000D02*
X319045200Y-140233000D01*
X273286800Y-200582400D02*
X250325200Y-206881600D01*
X289724764Y-169982165D02*
G75*
G03*
X289249406Y-170166813I360649J-1632657D01*
G01*
X306994811Y-166902856D02*
X305325579Y-171999425D01*
X319045200Y-140233000D02*
X310917200Y-126009000D01*
X305325579Y-171999425D02*
X304377240Y-174987641D01*
X246769200Y-203173200D02*
X235593200Y-196416800D01*
X335428200Y-168554000D02*
X319045200Y-168554000D01*
X188857200Y-157402400D02*
X189822400Y-161161600D01*
X244838800Y-148106000D02*
X269222800Y-157199200D01*
X269222800Y-157199200D02*
X278163600Y-167206800D01*
X274302800Y-195248400D02*
X271712000Y-195350000D01*
X250325200Y-206881600D02*
X246769200Y-203173200D01*
X230868800Y-190778000D02*
X236710800Y-162888800D01*
X274658400Y-191133600D02*
X277147600Y-193216400D01*
X343556200Y-126009000D02*
X335428200Y-140233000D01*
X335555200Y-140233000D02*
X343556200Y-154330000D01*
X272677200Y-185698000D02*
X272880400Y-187272800D01*
X286310950Y-140169500D02*
X294438950Y-126072500D01*
X335555200Y-111912000D02*
X343556200Y-126009000D01*
X310821950Y-154393500D02*
X294438950Y-154393500D01*
X319134100Y-111912000D02*
X335517100Y-111912000D01*
X244838800Y-148106000D02*
X242705200Y-155573600D01*
X272982000Y-187831600D02*
X272677200Y-185698000D01*
X273439200Y-189101600D02*
X274302800Y-190778000D01*
X274302800Y-190778000D02*
X273388400Y-189254000D01*
X294438950Y-154393500D02*
X286310950Y-140169500D01*
X273388400Y-189254000D02*
X274658400Y-191133600D01*
X335428200Y-140233000D02*
X319045200Y-140233000D01*
X319045200Y-168554000D02*
X310917200Y-154330000D01*
X318949950Y-140169500D02*
X310821950Y-154393500D01*
X310948950Y-126072500D02*
X318949950Y-140169500D01*
X294438950Y-126072500D02*
X310821950Y-126072500D01*
X310917200Y-126009000D02*
X319045200Y-111912000D01*
X174328400Y-162330000D02*
X175903200Y-161060000D01*
X302779852Y-165571791D02*
X306994811Y-166902856D01*
X235593200Y-196416800D02*
X230868800Y-190778000D01*
X236710800Y-162888800D02*
X242705200Y-155522800D01*
X178951200Y-159282000D02*
X174988800Y-161872800D01*
X319045200Y-140233000D02*
X335428200Y-140233000D01*
X274963200Y-174572800D02*
X274353600Y-177112800D01*
X189720800Y-161314000D02*
X188857200Y-157402400D01*
X343556200Y-154330000D02*
X335428200Y-168554000D01*
X278163600Y-167206800D02*
X274302800Y-195248400D01*
X196976168Y-145551335D02*
G75*
G03*
X196599165Y-145651467I-95883J-398781D01*
G01*
X205380065Y-148685879D02*
X206806978Y-149279522D01*
X304377240Y-174987641D02*
X302597822Y-180809941D01*
X196976167Y-145551335D02*
X198176114Y-145876761D01*
X271712000Y-195350000D02*
X273286800Y-200582400D01*
X272880400Y-187272800D02*
X272728000Y-186714000D01*
X272728000Y-186714000D02*
X273439200Y-189101600D01*
X111601890Y-161355474D02*
X112252156Y-159187783D01*
X119745989Y-168907799D02*
G75*
G03*
X121807886Y-164968499I-14623552J10163484D01*
G01*
X115864084Y-142651200D02*
G75*
G03*
X115224702Y-142016350I-1600019J-972041D01*
G01*
X119913131Y-151932320D02*
X125225723Y-153355825D01*
X204079533Y-184705554D02*
X206452307Y-165054906D01*
X116196172Y-143563045D02*
G75*
G03*
X115864084Y-142651200I-2454318J-377450D01*
G01*
X210516236Y-143628631D02*
G75*
G03*
X209801533Y-143530741I-1224294J-6280689D01*
G01*
X203954631Y-189277081D02*
G75*
G03*
X204501522Y-189572386I847123J914772D01*
G01*
X107493256Y-161390420D02*
G75*
G03*
X107718807Y-163055200I2143940J-557200D01*
G01*
X109930527Y-152262070D02*
X107493256Y-161390421D01*
X121807886Y-164968499D02*
G75*
G03*
X123699998Y-159049910I-61146989J22809803D01*
G01*
X230390616Y-160970707D02*
X227218048Y-165212398D01*
X227218048Y-165212398D02*
X223598866Y-170083343D01*
X114388868Y-141772689D02*
G75*
G03*
X113503472Y-141953286I-56538J-1983480D01*
G01*
X223598866Y-170083343D02*
X219418916Y-175757668D01*
X219418916Y-175757668D02*
X208627866Y-190456047D01*
X113503472Y-141953285D02*
G75*
G03*
X112496315Y-143125220I774269J-1684146D01*
G01*
X112252156Y-159187783D02*
X112928800Y-156747834D01*
X213027197Y-144465854D02*
G75*
G03*
X212396442Y-144145143I-1515909J-2200775D01*
G01*
X208627866Y-190456047D02*
X206122134Y-189940116D01*
X134975686Y-139232574D02*
X133063082Y-135911110D01*
X138251482Y-145598264D02*
G75*
G03*
X134975686Y-139232574I-55349616J-24457305D01*
G01*
X115224701Y-142016350D02*
G75*
G03*
X114388868Y-141772689I-884975J-1480327D01*
G01*
X132269937Y-134181978D02*
G75*
G03*
X133063082Y-135911110I11125808J4056890D01*
G01*
X117268169Y-171395469D02*
G75*
G03*
X119745989Y-168907799I-5753268J8208329D01*
G01*
X203762438Y-187754924D02*
X204079533Y-184705554D01*
X131957070Y-132745192D02*
G75*
G03*
X132269936Y-134181977I5435696J431188D01*
G01*
X131942442Y-130914066D02*
G75*
G03*
X131861896Y-130147116I-2303805J145756D01*
G01*
X210516236Y-143628631D02*
X211344488Y-143820079D01*
X121580569Y-146167453D02*
X118357459Y-145276719D01*
X206452307Y-165054906D02*
X208952188Y-144394641D01*
X117108430Y-144800886D02*
G75*
G03*
X118357459Y-145276719I3367179J6961382D01*
G01*
X112928800Y-156747834D02*
X114600539Y-150508815D01*
X116196171Y-143563045D02*
G75*
G03*
X116500268Y-144295449I1642351J252578D01*
G01*
X112496315Y-143125220D02*
X109930527Y-152262070D01*
X106767663Y-171962537D02*
X103842119Y-171132540D01*
X209253906Y-143517237D02*
G75*
G03*
X209098087Y-143640610I5065J-166482D01*
G01*
X125225723Y-153355825D02*
X123699998Y-159049910D01*
X109610233Y-172680045D02*
X106767663Y-171962537D01*
X203762439Y-187754923D02*
G75*
G03*
X203736656Y-188802952I8338248J-729464D01*
G01*
X209801533Y-143530741D02*
G75*
G03*
X209253906Y-143517237I-396302J-4960497D01*
G01*
X112716273Y-173007610D02*
G75*
G03*
X114151827Y-172788150I-695163J9352196D01*
G01*
X206122134Y-189940116D02*
X204501522Y-189572386D01*
X203736655Y-188802953D02*
G75*
G03*
X203954630Y-189277082I681064J25941D01*
G01*
X140680817Y-152185331D02*
G75*
G03*
X138251483Y-145598264I-53637873J-16040334D01*
G01*
X131043155Y-132032255D02*
X129451821Y-137794377D01*
X109246281Y-164060342D02*
G75*
G03*
X110152605Y-164061331I455612J2244970D01*
G01*
X131942442Y-130914067D02*
G75*
G03*
X131957070Y-132745193I12849687J-812973D01*
G01*
X131861897Y-130147115D02*
G75*
G03*
X131648581Y-130139128I-107937J-30159D01*
G01*
X114600539Y-150508815D02*
X119913131Y-151932320D01*
X131648581Y-130139128D02*
X131043155Y-132032255D01*
X129451821Y-137794377D02*
X126778637Y-147560270D01*
X126778637Y-147560270D02*
X121580569Y-146167453D01*
X116500269Y-144295449D02*
G75*
G03*
X117108430Y-144800884I1323987J974479D01*
G01*
X110152606Y-164061331D02*
G75*
G03*
X110759208Y-163672246I-194917J971287D01*
G01*
X107718808Y-163055200D02*
G75*
G03*
X108333996Y-163694646I1600274J923921D01*
G01*
X108333995Y-163694646D02*
G75*
G03*
X109246282Y-164060343I1455209J2309472D01*
G01*
X110759209Y-163672245D02*
G75*
G03*
X111020698Y-163161966I-1505817J1093783D01*
G01*
X211344488Y-143820079D02*
X212396442Y-144145143D01*
X114151827Y-172788150D02*
G75*
G03*
X117268168Y-171395469I-2041901J8752064D01*
G01*
X111020698Y-163161966D02*
X111601890Y-161355474D01*
X111349441Y-172982215D02*
G75*
G03*
X112716273Y-173007609I819886J7332983D01*
G01*
X109610232Y-172680045D02*
G75*
G03*
X111349440Y-172982217I3356536J14162921D01*
G01*
X209098088Y-143640611D02*
G75*
G03*
X208952188Y-144394641I5253142J-1407575D01*
G01*
X160761837Y-174774447D02*
X158774541Y-173956814D01*
X156915296Y-173124137D02*
G75*
G03*
X157029261Y-173224648I206405J119168D01*
G01*
X158774541Y-173956814D02*
X157029261Y-173224648D01*
X156943855Y-173009796D02*
G75*
G03*
X156915295Y-173124136I44870J-71945D01*
G01*
X174696229Y-174739760D02*
X172889459Y-175856414D01*
X160082143Y-171054689D02*
X163618509Y-168878143D01*
X186652157Y-167339378D02*
G75*
G03*
X185216207Y-168103822I5173228J-11448399D01*
G01*
X178818318Y-159588380D02*
G75*
G03*
X178970051Y-159397974I-193534J309887D01*
G01*
X185216207Y-168103822D02*
X182150566Y-170032778D01*
X182150566Y-170032778D02*
X179751326Y-171560608D01*
X179751326Y-171560608D02*
X177137212Y-173210766D01*
X178979403Y-159151920D02*
X178108194Y-155849959D01*
X177137212Y-173210766D02*
X174696229Y-174739760D01*
X172889459Y-175856414D02*
X169186906Y-178122971D01*
X156943856Y-173009796D02*
X160082143Y-171054689D01*
X169186906Y-178122971D02*
X163101920Y-175711575D01*
X172073236Y-163765699D02*
X175656449Y-161559745D01*
X167838776Y-166326417D02*
X172073236Y-163765699D01*
X163618509Y-168878143D02*
X167838776Y-166326417D01*
X175656449Y-161559745D02*
X178818318Y-159588379D01*
X178970051Y-159397974D02*
G75*
G03*
X178979403Y-159151920I-399957J138406D01*
G01*
X187298487Y-167256841D02*
G75*
G03*
X186652156Y-167339379I-188512J-1095698D01*
G01*
X163101920Y-175711575D02*
X160761837Y-174774447D01*
X188824099Y-185853568D02*
X186986552Y-185110141D01*
X187543965Y-167595650D02*
G75*
G03*
X187298487Y-167256840I-296254J43688D01*
G01*
X190377671Y-186474777D02*
X188824099Y-185853568D01*
X186587665Y-170480485D02*
X187361710Y-168330532D01*
X182135824Y-183146543D02*
X181931856Y-183068771D01*
X187361709Y-168330532D02*
G75*
G03*
X187543965Y-167595649I-3697198J1306972D01*
G01*
X206825254Y-149380086D02*
X199345880Y-168169348D01*
X185133186Y-184357927D02*
X183528002Y-183708450D01*
X184520391Y-175843669D02*
X185627326Y-173031697D01*
X143161375Y-166605062D02*
G75*
G03*
X142302032Y-159139868I-70977195J-4388354D01*
G01*
X142302033Y-159139868D02*
G75*
G03*
X140680817Y-152185332I-57228238J-9674601D01*
G01*
X182580910Y-180906372D02*
X183443720Y-178583906D01*
X181863766Y-182925461D02*
X182580910Y-180906372D01*
X206825253Y-149380086D02*
G75*
G03*
X206828025Y-149302483I-107222J42681D01*
G01*
X183528002Y-183708450D02*
X182135824Y-183146543D01*
X183443720Y-178583906D02*
X184520391Y-175843669D01*
X181863766Y-182925459D02*
G75*
G03*
X181931856Y-183068771I106175J-37386D01*
G01*
X191811698Y-187025365D02*
G75*
G03*
X191869124Y-186951719I-97714J135404D01*
G01*
X186986552Y-185110141D02*
X185133186Y-184357927D01*
X185627326Y-173031697D02*
X186587665Y-170480485D01*
X199345880Y-168169348D02*
X191869124Y-186951719D01*
X191776470Y-187029748D02*
G75*
G03*
X191811698Y-187025365I13615J34332D01*
G01*
X191776469Y-187029749D02*
X190377671Y-186474777D01*
X274228193Y-190811319D02*
G75*
G03*
X276147868Y-192610455I10782030J9580696D01*
G01*
X254502905Y-173454584D02*
X252391169Y-178843522D01*
X248465133Y-201851710D02*
G75*
G03*
X254221086Y-202752583I6421277J22188785D01*
G01*
X164812769Y-134975409D02*
X164759435Y-136125804D01*
X164759435Y-136125804D02*
X164721975Y-136756702D01*
X275473278Y-169297466D02*
X271245877Y-180259325D01*
X287084798Y-161496711D02*
G75*
G03*
X285535026Y-161432979I-1158614J-9299314D01*
G01*
X289105765Y-161855980D02*
G75*
G03*
X287084798Y-161496711I-4463190J-19242598D01*
G01*
X292510605Y-162687487D02*
X295136879Y-163379471D01*
X242630871Y-199504046D02*
G75*
G03*
X248465132Y-201851710I14514671J27647609D01*
G01*
X263381708Y-163575119D02*
X269214091Y-165933924D01*
X164721975Y-136756702D02*
X164641849Y-137819106D01*
X269214091Y-165933924D02*
X275015540Y-168299124D01*
X275473279Y-169297465D02*
G75*
G03*
X275434950Y-168677659I-696336J268026D01*
G01*
X247457482Y-193588164D02*
G75*
G03*
X248145053Y-194436957I2006418J922433D01*
G01*
X259138080Y-202155226D02*
G75*
G03*
X262501806Y-200076616I-1893174J6824636D01*
G01*
X248145054Y-194436958D02*
G75*
G03*
X249051654Y-194682372I764423J1026630D01*
G01*
X254221086Y-202752584D02*
G75*
G03*
X259138080Y-202155226I478263J16598444D01*
G01*
X289105765Y-161855980D02*
X292510605Y-162687487D01*
X249051654Y-194682372D02*
G75*
G03*
X250004844Y-194248041I-187066J1673646D01*
G01*
X281724462Y-207529847D02*
X284948909Y-196822793D01*
X284948909Y-196822793D02*
X281534215Y-195558995D01*
X278663658Y-194256812D02*
G75*
G03*
X281534215Y-195558995I10538753J19416772D01*
G01*
X275434950Y-168677659D02*
G75*
G03*
X275015540Y-168299124I-735333J-393118D01*
G01*
X164641849Y-137819106D02*
X164542104Y-139042409D01*
X148642713Y-130642655D02*
X164812769Y-134975409D01*
X276147867Y-192610455D02*
G75*
G03*
X278663658Y-194256811I11249942J14445636D01*
G01*
X262501806Y-200076616D02*
G75*
G03*
X262988192Y-199435485I-3502953J3162533D01*
G01*
X263650241Y-198333492D02*
X262988192Y-199435485D01*
X272630179Y-186726963D02*
G75*
G03*
X273183657Y-189055770I10478155J1260122D01*
G01*
X256395033Y-168662520D02*
X254502905Y-173454584D01*
X262882195Y-163581567D02*
G75*
G03*
X262790096Y-163675799I69218J-159774D01*
G01*
X243406115Y-162951935D02*
X245281942Y-158478202D01*
X289724764Y-169982164D02*
G75*
G03*
X289724764Y-169982164I0J-1D01*
G01*
X290151612Y-221358936D02*
X284325813Y-219797918D01*
X291631261Y-216967254D02*
X290151612Y-221358936D01*
X273183657Y-189055770D02*
G75*
G03*
X274228192Y-190811319I5092748J1841618D01*
G01*
X258466056Y-163525955D02*
X258002782Y-164618730D01*
X259160665Y-161981640D02*
X258466056Y-163525955D01*
X257176831Y-177638817D02*
X259314241Y-172270705D01*
X258002782Y-164618730D02*
X256395033Y-168662520D01*
X272614461Y-184329626D02*
G75*
G03*
X272630179Y-186726962I10558185J-1129494D01*
G01*
X291696964Y-170009204D02*
G75*
G03*
X291057624Y-169897843I-941190J-3512583D01*
G01*
X259314241Y-172270705D02*
X261139841Y-167739651D01*
X293182224Y-170407177D02*
X291696965Y-170009203D01*
X290365325Y-169891336D02*
G75*
G03*
X289724764Y-169982164I271830J-4221255D01*
G01*
X292491149Y-214303489D02*
X291631261Y-216967254D01*
X263381708Y-163575119D02*
G75*
G03*
X262882195Y-163581567I-242043J-600765D01*
G01*
X273184119Y-181053721D02*
X274652088Y-175329332D01*
X245617276Y-157829221D02*
G75*
G03*
X245281942Y-158478202I5404203J-3203517D01*
G01*
X271245877Y-180259325D02*
X267401728Y-190054098D01*
X261139841Y-167739651D02*
X262790096Y-163675799D01*
X239324964Y-173382445D02*
X243406115Y-162951935D01*
X245987110Y-157315643D02*
G75*
G03*
X245617276Y-157829221I2692689J-2328991D01*
G01*
X267401728Y-190054098D02*
X264985523Y-195721912D01*
X246336674Y-156991188D02*
G75*
G03*
X245987109Y-157315643I1300299J-1751468D01*
G01*
X291057624Y-169897843D02*
G75*
G03*
X290365324Y-169891337I-390206J-4684814D01*
G01*
X284325813Y-219797918D02*
X278500015Y-218236900D01*
X264985523Y-195721912D02*
X264348841Y-197040993D01*
X273184119Y-181053721D02*
G75*
G03*
X272614461Y-184329627I24648728J-5973731D01*
G01*
X278500015Y-218236900D02*
X281724462Y-207529847D01*
X264348841Y-197040993D02*
X263650241Y-198333492D01*
X248065180Y-190300459D02*
X247373100Y-192619446D01*
X247373101Y-192619446D02*
G75*
G03*
X247457482Y-193588165I1394068J-366603D01*
G01*
X235083176Y-184339898D02*
G75*
G03*
X234305172Y-186727959I22057046J-8506701D01*
G01*
X286158257Y-188712997D02*
X287510553Y-189075343D01*
X298383627Y-194835785D02*
X296256383Y-201949826D01*
X242630871Y-199504046D02*
X240127477Y-198093390D01*
X234151705Y-190210834D02*
G75*
G03*
X234723397Y-191916680I7452030J1548732D01*
G01*
X238442939Y-196891151D02*
G75*
G03*
X240127477Y-198093390I8633592J10315821D01*
G01*
X278466535Y-164647769D02*
G75*
G03*
X276785579Y-168104556I11196135J-7581524D01*
G01*
X237109842Y-195556112D02*
G75*
G03*
X238442938Y-196891150I8124148J6779235D01*
G01*
X246598566Y-156955971D02*
G75*
G03*
X246336674Y-156991189I-99090J-254507D01*
G01*
X285535026Y-161432980D02*
G75*
G03*
X283936012Y-161619168I453405J-10853291D01*
G01*
X300739009Y-164952217D02*
X302779852Y-165571791D01*
X235766404Y-193758992D02*
G75*
G03*
X237109842Y-195556112I17461498J11652648D01*
G01*
X284375452Y-186788606D02*
G75*
G03*
X284868128Y-187969438I1676016J6085D01*
G01*
X234723398Y-191916679D02*
G75*
G03*
X235766405Y-193758991I13063660J6179462D01*
G01*
X250810114Y-158637253D02*
X253151976Y-159574848D01*
X288059851Y-172144224D02*
X287319761Y-174445795D01*
X274652088Y-175329332D02*
X276785579Y-168104556D01*
X132472656Y-126309902D02*
X148642713Y-130642655D01*
X302597822Y-180809941D02*
X300524721Y-187670285D01*
X300524721Y-187670285D02*
X298383627Y-194835785D01*
X248748327Y-157812750D02*
X250810114Y-158637253D01*
X284868127Y-187969438D02*
G75*
G03*
X286158257Y-188712997I2036762J2042916D01*
G01*
X289726358Y-180897175D02*
X290509493Y-178250161D01*
X288652470Y-170791414D02*
G75*
G03*
X288059851Y-172144224I10027623J-5198964D01*
G01*
X290509493Y-178250161D02*
X291273364Y-175801055D01*
X284643566Y-184548594D02*
G75*
G03*
X284375453Y-186788607I8943790J-2206558D01*
G01*
X289249405Y-170166813D02*
G75*
G03*
X288652470Y-170791414I769691J-1333148D01*
G01*
X283936012Y-161619168D02*
G75*
G03*
X280609322Y-162758314I2383406J-12387446D01*
G01*
X300739009Y-164952217D02*
X300739009Y-164952217D01*
X286122270Y-178801677D02*
X284643566Y-184548594D01*
X234021931Y-188520114D02*
G75*
G03*
X234151705Y-190210834I6617437J-342409D01*
G01*
X296256383Y-201949826D02*
X294225124Y-208654566D01*
X294225124Y-208654566D02*
X292491149Y-214303489D01*
X246992530Y-157111328D02*
X248748327Y-157812750D01*
X287319761Y-174445795D02*
X286122270Y-178801677D01*
X291273364Y-175801055D02*
X291879778Y-174018573D01*
X234305173Y-186727959D02*
G75*
G03*
X234021932Y-188520113I8356879J-2239219D01*
G01*
X298024590Y-164175463D02*
X300739009Y-164952217D01*
X253151976Y-159574848D02*
X259160665Y-161981640D01*
X289043943Y-183352657D02*
X289726358Y-180897175D01*
X291879778Y-174018573D02*
X293182224Y-170407177D01*
X280609322Y-162758315D02*
G75*
G03*
X278466536Y-164647769I2584002J-5090224D01*
G01*
X133313818Y-123170643D02*
X132472656Y-126309902D01*
X246598565Y-156955972D02*
X246992530Y-157111328D01*
X295136879Y-163379471D02*
X298024590Y-164175463D01*
X287510553Y-189075343D02*
X289043943Y-183352657D01*
X250798838Y-193214696D02*
G75*
G03*
X251328245Y-192083985I-12175613J6390007D01*
G01*
X251328245Y-192083985D02*
X253016237Y-187984080D01*
X254992153Y-183112944D02*
X257176831Y-177638817D01*
X253016237Y-187984080D02*
X254992153Y-183112944D01*
X120572852Y-130151692D02*
X122071616Y-124558228D01*
X249433408Y-186486867D02*
X248065180Y-190300459D01*
X96726270Y-164107819D02*
G75*
G03*
X97223979Y-165472335I12035005J3616759D01*
G01*
X103438454Y-134967915D02*
G75*
G03*
X102615070Y-136908731I12801429J-6576024D01*
G01*
X104422843Y-133546662D02*
G75*
G03*
X103438454Y-134967915I4892576J-4440231D01*
G01*
X114723465Y-132255419D02*
G75*
G03*
X113529571Y-131757861I-5548400J-11632260D01*
G01*
X153992290Y-142428832D02*
X144292709Y-139829837D01*
X115879329Y-132876623D02*
G75*
G03*
X114723465Y-132255420I-7032954J-11700171D01*
G01*
X116893642Y-133558339D02*
G75*
G03*
X115879329Y-132876623I-7247699J-9688283D01*
G01*
X154548574Y-175221791D02*
X149020759Y-173594856D01*
X149020759Y-173594856D02*
X143492944Y-171967921D01*
X154188766Y-170579695D02*
X154548574Y-175221791D01*
X113529572Y-131757862D02*
G75*
G03*
X110923195Y-131158875I-3812940J-10621217D01*
G01*
X117653507Y-134236750D02*
G75*
G03*
X116893642Y-133558339I-4289422J-4039679D01*
G01*
X144292709Y-139829837D02*
X146723430Y-144467808D01*
X143492944Y-171967921D02*
X143161375Y-166605062D01*
X154188766Y-170579695D02*
G75*
G03*
X153315608Y-163777352I-67987330J-5269732D01*
G01*
X235083175Y-184339897D02*
X239324964Y-173382445D01*
X250004844Y-194248041D02*
G75*
G03*
X250798836Y-193214696I-2579882J2804020D01*
G01*
X102189775Y-170514050D02*
G75*
G03*
X103842119Y-171132540I5429291J11988341D01*
G01*
X100947389Y-169797733D02*
G75*
G03*
X102189775Y-170514049I4273010J5975584D01*
G01*
X101581260Y-140275165D02*
X102615070Y-136908731D01*
X161573903Y-144420181D02*
X153992290Y-142428832D01*
X98621964Y-167704684D02*
G75*
G03*
X99616658Y-168723989I8904738J7694740D01*
G01*
X97840199Y-166645939D02*
G75*
G03*
X98621963Y-167704684I7287642J4563107D01*
G01*
X97223979Y-165472336D02*
G75*
G03*
X97840200Y-166645939I8022311J3463675D01*
G01*
X96726269Y-164107820D02*
X95902883Y-161367942D01*
X110923195Y-131158875D02*
G75*
G03*
X108458362Y-131265957I-879451J-8178184D01*
G01*
X117653507Y-134236750D02*
X119074088Y-135745156D01*
X153315609Y-163777353D02*
G75*
G03*
X151763382Y-157094408I-67217865J-12090746D01*
G01*
X95902883Y-161367942D02*
X99407090Y-148290069D01*
X99407090Y-148290069D02*
X101581260Y-140275165D01*
X106258303Y-132079795D02*
G75*
G03*
X104422843Y-133546662I3639026J-6435207D01*
G01*
X149555847Y-150626683D02*
G75*
G03*
X146723430Y-144467808I-60944603J-24297200D01*
G01*
X108458362Y-131265957D02*
G75*
G03*
X106258302Y-132079796I1415886J-7208222D01*
G01*
X163979682Y-143626691D02*
G75*
G03*
X164434038Y-140274788I-37625464J6806947D01*
G01*
X163167667Y-144458812D02*
G75*
G03*
X163979681Y-143626690I-209795J1016982D01*
G01*
X119074088Y-135745156D02*
X120572852Y-130151692D01*
X151763382Y-157094408D02*
G75*
G03*
X149555848Y-150626683I-65153154J-18627175D01*
G01*
X164542104Y-139042409D02*
X164434038Y-140274788D01*
X161573903Y-144420180D02*
G75*
G03*
X163167667Y-144458812I880252J3420107D01*
G01*
X99616657Y-168723989D02*
G75*
G03*
X100947390Y-169797733I9887556J10892547D01*
G01*
X230188343Y-196437819D02*
X229320922Y-196158507D01*
X230815767Y-160499155D02*
G75*
G03*
X230390616Y-160970707I2375519J-2569199D01*
G01*
X229320922Y-196158507D02*
X227067633Y-195396968D01*
X227067633Y-195396968D02*
X229244601Y-177667995D01*
X229244601Y-177667995D02*
X230137859Y-170128803D01*
X230137859Y-170128803D02*
X230693917Y-164721342D01*
X230693917Y-164721342D02*
X231048763Y-160612509D01*
X231048765Y-160612509D02*
G75*
G03*
X230815766Y-160499155I-138597J11256D01*
G01*
D11*
G36*
X304606502Y-166251163D02*
G01*
X303352180Y-166669270D01*
X291988342Y-164406559D01*
X291636488Y-162559324D01*
X304606502Y-166251163D01*
G37*
X304606502Y-166251163D02*
X303352180Y-166669270D01*
X291988342Y-164406559D01*
X291636488Y-162559324D01*
X304606502Y-166251163D01*
G36*
X290406936Y-185962678D02*
G01*
X288629519Y-185073969D01*
X292095482Y-174009549D01*
X290406936Y-185962678D01*
G37*
X290406936Y-185962678D02*
X288629519Y-185073969D01*
X292095482Y-174009549D01*
X290406936Y-185962678D01*
G36*
X287198539Y-161642817D02*
G01*
X287418311Y-161890060D01*
X282966500Y-162703832D01*
X282197558Y-162191204D01*
X285185043Y-161593707D01*
X287198539Y-161642817D01*
G37*
X287198539Y-161642817D02*
X287418311Y-161890060D01*
X282966500Y-162703832D01*
X282197558Y-162191204D01*
X285185043Y-161593707D01*
X287198539Y-161642817D01*
G36*
X277940044Y-169335211D02*
G01*
X276650110Y-168905233D01*
X277466259Y-166600812D01*
X278823258Y-164339148D01*
X279488574Y-163673832D01*
X280355634Y-163634421D01*
X277940044Y-169335211D01*
G37*
X277940044Y-169335211D02*
X276650110Y-168905233D01*
X277466259Y-166600812D01*
X278823258Y-164339148D01*
X279488574Y-163673832D01*
X280355634Y-163634421D01*
X277940044Y-169335211D01*
G36*
X292699667Y-172285689D02*
G01*
X292323670Y-174583449D01*
X291969310Y-173906943D01*
X292666939Y-172279143D01*
X292699667Y-172285689D01*
G37*
X292699667Y-172285689D02*
X292323670Y-174583449D01*
X291969310Y-173906943D01*
X292666939Y-172279143D01*
X292699667Y-172285689D01*
G36*
X298079584Y-195609698D02*
G01*
X291842620Y-216053080D01*
X290134495Y-209030787D01*
X297213519Y-195073563D01*
X298079584Y-195609698D01*
G37*
X298079584Y-195609698D02*
X291842620Y-216053080D01*
X290134495Y-209030787D01*
X297213519Y-195073563D01*
X298079584Y-195609698D01*
G36*
X290010625Y-221139606D02*
G01*
X278678874Y-218121104D01*
X287338509Y-189569050D01*
X290010625Y-221139606D01*
G37*
X290010625Y-221139606D02*
X278678874Y-218121104D01*
X287338509Y-189569050D01*
X290010625Y-221139606D01*
G36*
X288505537Y-161846380D02*
G01*
X306807547Y-167039513D01*
X299109340Y-191995792D01*
X287670519Y-188986109D01*
X293321883Y-170444227D01*
X293326772Y-170419815D01*
X293326805Y-170394919D01*
X293321980Y-170370494D01*
X293312483Y-170347481D01*
X293298679Y-170326762D01*
X293281098Y-170309134D01*
X293260415Y-170295275D01*
X293226208Y-170282850D01*
X290533808Y-169724050D01*
X290509053Y-169721404D01*
X290475277Y-169725688D01*
X288951277Y-170132088D01*
X288927966Y-170140830D01*
X288906808Y-170153952D01*
X288888617Y-170170949D01*
X288870408Y-170198004D01*
X287905208Y-172128404D01*
X287896120Y-172152357D01*
X284441720Y-185055557D01*
X284437681Y-185079952D01*
X284285281Y-187365952D01*
X284286068Y-187390836D01*
X284291694Y-187415088D01*
X284301944Y-187437777D01*
X284317602Y-187459359D01*
X285232002Y-188475359D01*
X285250390Y-188492142D01*
X285271700Y-188505016D01*
X285287083Y-188511161D01*
X287350042Y-189182822D01*
X284869952Y-196657478D01*
X282428487Y-195740548D01*
X278278961Y-193868201D01*
X275005953Y-191451211D01*
X273155338Y-188650280D01*
X272754063Y-185289600D01*
X273005925Y-182418370D01*
X276202129Y-170648222D01*
X278021133Y-165494377D01*
X279920960Y-163344573D01*
X281511830Y-162449708D01*
X285032287Y-161645033D01*
X288505537Y-161846380D01*
G37*
X288505537Y-161846380D02*
X306807547Y-167039513D01*
X299109340Y-191995792D01*
X287670519Y-188986109D01*
X293321883Y-170444227D01*
X293326772Y-170419815D01*
X293326805Y-170394919D01*
X293321980Y-170370494D01*
X293312483Y-170347481D01*
X293298679Y-170326762D01*
X293281098Y-170309134D01*
X293260415Y-170295275D01*
X293226208Y-170282850D01*
X290533808Y-169724050D01*
X290509053Y-169721404D01*
X290475277Y-169725688D01*
X288951277Y-170132088D01*
X288927966Y-170140830D01*
X288906808Y-170153952D01*
X288888617Y-170170949D01*
X288870408Y-170198004D01*
X287905208Y-172128404D01*
X287896120Y-172152357D01*
X284441720Y-185055557D01*
X284437681Y-185079952D01*
X284285281Y-187365952D01*
X284286068Y-187390836D01*
X284291694Y-187415088D01*
X284301944Y-187437777D01*
X284317602Y-187459359D01*
X285232002Y-188475359D01*
X285250390Y-188492142D01*
X285271700Y-188505016D01*
X285287083Y-188511161D01*
X287350042Y-189182822D01*
X284869952Y-196657478D01*
X282428487Y-195740548D01*
X278278961Y-193868201D01*
X275005953Y-191451211D01*
X273155338Y-188650280D01*
X272754063Y-185289600D01*
X273005925Y-182418370D01*
X276202129Y-170648222D01*
X278021133Y-165494377D01*
X279920960Y-163344573D01*
X281511830Y-162449708D01*
X285032287Y-161645033D01*
X288505537Y-161846380D01*
G36*
X207316937Y-150137129D02*
G01*
X195599432Y-186760672D01*
X194995255Y-187690176D01*
X191927420Y-187076609D01*
X206196317Y-151404367D01*
X206201112Y-151389923D01*
X206899500Y-148770970D01*
X207316937Y-150137129D01*
G37*
X207316937Y-150137129D02*
X195599432Y-186760672D01*
X194995255Y-187690176D01*
X191927420Y-187076609D01*
X206196317Y-151404367D01*
X206201112Y-151389923D01*
X206899500Y-148770970D01*
X207316937Y-150137129D01*
G36*
X299034034Y-191935940D02*
G01*
X290120815Y-221015938D01*
X284747117Y-196983568D01*
X287541271Y-189100063D01*
X299034034Y-191935940D01*
G37*
X299034034Y-191935940D02*
X290120815Y-221015938D01*
X284747117Y-196983568D01*
X287541271Y-189100063D01*
X299034034Y-191935940D01*
G36*
X156777824Y-173135958D02*
G01*
X156777431Y-173160851D01*
X156781902Y-173185343D01*
X156791065Y-173208492D01*
X156804568Y-173229408D01*
X156821892Y-173247288D01*
X156842372Y-173261445D01*
X156856161Y-173268045D01*
X169098961Y-178246445D01*
X169122832Y-178253518D01*
X169147623Y-178255797D01*
X169172383Y-178253196D01*
X169196160Y-178245815D01*
X169212775Y-178237319D01*
X187045604Y-167395770D01*
X187522799Y-167542599D01*
X181778591Y-182961263D01*
X181772228Y-182985333D01*
X181770683Y-183010181D01*
X181774015Y-183034853D01*
X181782097Y-183058401D01*
X181794617Y-183079920D01*
X181811095Y-183098583D01*
X181830897Y-183113673D01*
X181849703Y-183123222D01*
X191704903Y-187136422D01*
X191728770Y-187143506D01*
X191756534Y-187145745D01*
X194645979Y-187060761D01*
X190031740Y-189413119D01*
X183793397Y-185539309D01*
X183771061Y-185528312D01*
X183748646Y-185522164D01*
X175494370Y-184053612D01*
X174144847Y-183153930D01*
X174122878Y-183142217D01*
X174110479Y-183137833D01*
X168624079Y-181512233D01*
X168600856Y-181507652D01*
X154267872Y-180049208D01*
X157511913Y-166722339D01*
X156777824Y-173135958D01*
G37*
X156777824Y-173135958D02*
X156777431Y-173160851D01*
X156781902Y-173185343D01*
X156791065Y-173208492D01*
X156804568Y-173229408D01*
X156821892Y-173247288D01*
X156842372Y-173261445D01*
X156856161Y-173268045D01*
X169098961Y-178246445D01*
X169122832Y-178253518D01*
X169147623Y-178255797D01*
X169172383Y-178253196D01*
X169196160Y-178245815D01*
X169212775Y-178237319D01*
X187045604Y-167395770D01*
X187522799Y-167542599D01*
X181778591Y-182961263D01*
X181772228Y-182985333D01*
X181770683Y-183010181D01*
X181774015Y-183034853D01*
X181782097Y-183058401D01*
X181794617Y-183079920D01*
X181811095Y-183098583D01*
X181830897Y-183113673D01*
X181849703Y-183123222D01*
X191704903Y-187136422D01*
X191728770Y-187143506D01*
X191756534Y-187145745D01*
X194645979Y-187060761D01*
X190031740Y-189413119D01*
X183793397Y-185539309D01*
X183771061Y-185528312D01*
X183748646Y-185522164D01*
X175494370Y-184053612D01*
X174144847Y-183153930D01*
X174122878Y-183142217D01*
X174110479Y-183137833D01*
X168624079Y-181512233D01*
X168600856Y-181507652D01*
X154267872Y-180049208D01*
X157511913Y-166722339D01*
X156777824Y-173135958D01*
G36*
X185774122Y-134664088D02*
G01*
X187318153Y-138250223D01*
X187330192Y-138272015D01*
X187346251Y-138291039D01*
X187365714Y-138306565D01*
X187386157Y-138317315D01*
X206131357Y-146089715D01*
X206155179Y-146096951D01*
X206180000Y-146099400D01*
X207138969Y-146099400D01*
X207868270Y-146919863D01*
X207257528Y-149174908D01*
X206927099Y-149101479D01*
X196876732Y-145396041D01*
X196852641Y-145389760D01*
X196827788Y-145388299D01*
X196803127Y-145391715D01*
X196779607Y-145399877D01*
X196758130Y-145412470D01*
X196739523Y-145429011D01*
X196724501Y-145448865D01*
X196715898Y-145465572D01*
X190004264Y-161275198D01*
X184662178Y-140555892D01*
X184653629Y-140532510D01*
X184640683Y-140511244D01*
X184623837Y-140492913D01*
X184603738Y-140478221D01*
X184586100Y-140469577D01*
X172952900Y-135846777D01*
X172928974Y-135839895D01*
X172904164Y-135837813D01*
X172879426Y-135840611D01*
X172855708Y-135848182D01*
X172833924Y-135860234D01*
X172814909Y-135876305D01*
X172799395Y-135895776D01*
X172787977Y-135917900D01*
X172781095Y-135941826D01*
X172779013Y-135966636D01*
X172783147Y-135996989D01*
X178855530Y-159173251D01*
X157001973Y-172906909D01*
X157790562Y-163887425D01*
X171866737Y-133760359D01*
X185774122Y-134664088D01*
G37*
X185774122Y-134664088D02*
X187318153Y-138250223D01*
X187330192Y-138272015D01*
X187346251Y-138291039D01*
X187365714Y-138306565D01*
X187386157Y-138317315D01*
X206131357Y-146089715D01*
X206155179Y-146096951D01*
X206180000Y-146099400D01*
X207138969Y-146099400D01*
X207868270Y-146919863D01*
X207257528Y-149174908D01*
X206927099Y-149101479D01*
X196876732Y-145396041D01*
X196852641Y-145389760D01*
X196827788Y-145388299D01*
X196803127Y-145391715D01*
X196779607Y-145399877D01*
X196758130Y-145412470D01*
X196739523Y-145429011D01*
X196724501Y-145448865D01*
X196715898Y-145465572D01*
X190004264Y-161275198D01*
X184662178Y-140555892D01*
X184653629Y-140532510D01*
X184640683Y-140511244D01*
X184623837Y-140492913D01*
X184603738Y-140478221D01*
X184586100Y-140469577D01*
X172952900Y-135846777D01*
X172928974Y-135839895D01*
X172904164Y-135837813D01*
X172879426Y-135840611D01*
X172855708Y-135848182D01*
X172833924Y-135860234D01*
X172814909Y-135876305D01*
X172799395Y-135895776D01*
X172787977Y-135917900D01*
X172781095Y-135941826D01*
X172779013Y-135966636D01*
X172783147Y-135996989D01*
X178855530Y-159173251D01*
X157001973Y-172906909D01*
X157790562Y-163887425D01*
X171866737Y-133760359D01*
X185774122Y-134664088D01*
G36*
X211581138Y-143962528D02*
G01*
X213001146Y-144599084D01*
X213363850Y-145188478D01*
X210930696Y-165566143D01*
X210930358Y-165569306D01*
X208606811Y-190269618D01*
X204326270Y-189394053D01*
X203872584Y-188713524D01*
X204325023Y-184289676D01*
X209237209Y-143675517D01*
X211581138Y-143962528D01*
G37*
X211581138Y-143962528D02*
X213001146Y-144599084D01*
X213363850Y-145188478D01*
X210930696Y-165566143D01*
X210930358Y-165569306D01*
X208606811Y-190269618D01*
X204326270Y-189394053D01*
X203872584Y-188713524D01*
X204325023Y-184289676D01*
X209237209Y-143675517D01*
X211581138Y-143962528D01*
G36*
X237034074Y-150898496D02*
G01*
X231472389Y-196655994D01*
X227205612Y-195307386D01*
X231147390Y-160566318D01*
X231147759Y-160541424D01*
X231143264Y-160516937D01*
X231134078Y-160493797D01*
X231120554Y-160472894D01*
X231103212Y-160455031D01*
X231082719Y-160440894D01*
X231068367Y-160434083D01*
X230814367Y-160332483D01*
X230790456Y-160325547D01*
X230765652Y-160323409D01*
X230740907Y-160326152D01*
X230717172Y-160333669D01*
X230695360Y-160345671D01*
X230676309Y-160361699D01*
X230665023Y-160374975D01*
X208734507Y-190084049D01*
X209605307Y-180360121D01*
X232242413Y-149822817D01*
X237034074Y-150898496D01*
G37*
X237034074Y-150898496D02*
X231472389Y-196655994D01*
X227205612Y-195307386D01*
X231147390Y-160566318D01*
X231147759Y-160541424D01*
X231143264Y-160516937D01*
X231134078Y-160493797D01*
X231120554Y-160472894D01*
X231103212Y-160455031D01*
X231082719Y-160440894D01*
X231068367Y-160434083D01*
X230814367Y-160332483D01*
X230790456Y-160325547D01*
X230765652Y-160323409D01*
X230740907Y-160326152D01*
X230717172Y-160333669D01*
X230695360Y-160345671D01*
X230676309Y-160361699D01*
X230665023Y-160374975D01*
X208734507Y-190084049D01*
X209605307Y-180360121D01*
X232242413Y-149822817D01*
X237034074Y-150898496D01*
M02*
