G04 #@! TF.GenerationSoftware,KiCad,Pcbnew,(5.1.6)-1*
G04 #@! TF.CreationDate,2020-11-14T19:58:44+01:00*
G04 #@! TF.ProjectId,punk75_bottom_eotw,70756e6b-3735-45f6-926f-74746f6d5f65,rev?*
G04 #@! TF.SameCoordinates,Original*
G04 #@! TF.FileFunction,Legend,Top*
G04 #@! TF.FilePolarity,Positive*
%FSLAX46Y46*%
G04 Gerber Fmt 4.6, Leading zero omitted, Abs format (unit mm)*
G04 Created by KiCad (PCBNEW (5.1.6)-1) date 2020-11-14 19:58:44*
%MOMM*%
%LPD*%
G01*
G04 APERTURE LIST*
%ADD10C,0.150000*%
G04 APERTURE END LIST*
D10*
X93805952Y-225385380D02*
X93805952Y-226099666D01*
X93758333Y-226242523D01*
X93663095Y-226337761D01*
X93520238Y-226385380D01*
X93425000Y-226385380D01*
X94758333Y-226385380D02*
X94282142Y-226385380D01*
X94282142Y-225385380D01*
X95663095Y-226290142D02*
X95615476Y-226337761D01*
X95472619Y-226385380D01*
X95377380Y-226385380D01*
X95234523Y-226337761D01*
X95139285Y-226242523D01*
X95091666Y-226147285D01*
X95044047Y-225956809D01*
X95044047Y-225813952D01*
X95091666Y-225623476D01*
X95139285Y-225528238D01*
X95234523Y-225433000D01*
X95377380Y-225385380D01*
X95472619Y-225385380D01*
X95615476Y-225433000D01*
X95663095Y-225480619D01*
X96377380Y-225385380D02*
X96377380Y-226099666D01*
X96329761Y-226242523D01*
X96234523Y-226337761D01*
X96091666Y-226385380D01*
X95996428Y-226385380D01*
X97329761Y-226385380D02*
X96853571Y-226385380D01*
X96853571Y-225385380D01*
X98234523Y-226290142D02*
X98186904Y-226337761D01*
X98044047Y-226385380D01*
X97948809Y-226385380D01*
X97805952Y-226337761D01*
X97710714Y-226242523D01*
X97663095Y-226147285D01*
X97615476Y-225956809D01*
X97615476Y-225813952D01*
X97663095Y-225623476D01*
X97710714Y-225528238D01*
X97805952Y-225433000D01*
X97948809Y-225385380D01*
X98044047Y-225385380D01*
X98186904Y-225433000D01*
X98234523Y-225480619D01*
X98948809Y-225385380D02*
X98948809Y-226099666D01*
X98901190Y-226242523D01*
X98805952Y-226337761D01*
X98663095Y-226385380D01*
X98567857Y-226385380D01*
X99901190Y-226385380D02*
X99425000Y-226385380D01*
X99425000Y-225385380D01*
X100805952Y-226290142D02*
X100758333Y-226337761D01*
X100615476Y-226385380D01*
X100520238Y-226385380D01*
X100377380Y-226337761D01*
X100282142Y-226242523D01*
X100234523Y-226147285D01*
X100186904Y-225956809D01*
X100186904Y-225813952D01*
X100234523Y-225623476D01*
X100282142Y-225528238D01*
X100377380Y-225433000D01*
X100520238Y-225385380D01*
X100615476Y-225385380D01*
X100758333Y-225433000D01*
X100805952Y-225480619D01*
X101520238Y-225385380D02*
X101520238Y-226099666D01*
X101472619Y-226242523D01*
X101377380Y-226337761D01*
X101234523Y-226385380D01*
X101139285Y-226385380D01*
X102472619Y-226385380D02*
X101996428Y-226385380D01*
X101996428Y-225385380D01*
X103377380Y-226290142D02*
X103329761Y-226337761D01*
X103186904Y-226385380D01*
X103091666Y-226385380D01*
X102948809Y-226337761D01*
X102853571Y-226242523D01*
X102805952Y-226147285D01*
X102758333Y-225956809D01*
X102758333Y-225813952D01*
X102805952Y-225623476D01*
X102853571Y-225528238D01*
X102948809Y-225433000D01*
X103091666Y-225385380D01*
X103186904Y-225385380D01*
X103329761Y-225433000D01*
X103377380Y-225480619D01*
X285315476Y-216771428D02*
X285315476Y-218390476D01*
X285220238Y-218580952D01*
X285125000Y-218676190D01*
X284934523Y-218771428D01*
X284648809Y-218771428D01*
X284458333Y-218676190D01*
X285315476Y-218009523D02*
X285125000Y-218104761D01*
X284744047Y-218104761D01*
X284553571Y-218009523D01*
X284458333Y-217914285D01*
X284363095Y-217723809D01*
X284363095Y-217152380D01*
X284458333Y-216961904D01*
X284553571Y-216866666D01*
X284744047Y-216771428D01*
X285125000Y-216771428D01*
X285315476Y-216866666D01*
X286267857Y-218104761D02*
X286267857Y-216771428D01*
X286267857Y-216104761D02*
X286172619Y-216200000D01*
X286267857Y-216295238D01*
X286363095Y-216200000D01*
X286267857Y-216104761D01*
X286267857Y-216295238D01*
X286934523Y-216771428D02*
X287696428Y-216771428D01*
X287220238Y-216104761D02*
X287220238Y-217819047D01*
X287315476Y-218009523D01*
X287505952Y-218104761D01*
X287696428Y-218104761D01*
X288363095Y-218104761D02*
X288363095Y-216104761D01*
X289220238Y-218104761D02*
X289220238Y-217057142D01*
X289125000Y-216866666D01*
X288934523Y-216771428D01*
X288648809Y-216771428D01*
X288458333Y-216866666D01*
X288363095Y-216961904D01*
X291029761Y-216771428D02*
X291029761Y-218104761D01*
X290172619Y-216771428D02*
X290172619Y-217819047D01*
X290267857Y-218009523D01*
X290458333Y-218104761D01*
X290744047Y-218104761D01*
X290934523Y-218009523D01*
X291029761Y-217914285D01*
X291982142Y-218104761D02*
X291982142Y-216104761D01*
X291982142Y-216866666D02*
X292172619Y-216771428D01*
X292553571Y-216771428D01*
X292744047Y-216866666D01*
X292839285Y-216961904D01*
X292934523Y-217152380D01*
X292934523Y-217723809D01*
X292839285Y-217914285D01*
X292744047Y-218009523D01*
X292553571Y-218104761D01*
X292172619Y-218104761D01*
X291982142Y-218009523D01*
X293791666Y-217914285D02*
X293886904Y-218009523D01*
X293791666Y-218104761D01*
X293696428Y-218009523D01*
X293791666Y-217914285D01*
X293791666Y-218104761D01*
X295601190Y-218009523D02*
X295410714Y-218104761D01*
X295029761Y-218104761D01*
X294839285Y-218009523D01*
X294744047Y-217914285D01*
X294648809Y-217723809D01*
X294648809Y-217152380D01*
X294744047Y-216961904D01*
X294839285Y-216866666D01*
X295029761Y-216771428D01*
X295410714Y-216771428D01*
X295601190Y-216866666D01*
X296744047Y-218104761D02*
X296553571Y-218009523D01*
X296458333Y-217914285D01*
X296363095Y-217723809D01*
X296363095Y-217152380D01*
X296458333Y-216961904D01*
X296553571Y-216866666D01*
X296744047Y-216771428D01*
X297029761Y-216771428D01*
X297220238Y-216866666D01*
X297315476Y-216961904D01*
X297410714Y-217152380D01*
X297410714Y-217723809D01*
X297315476Y-217914285D01*
X297220238Y-218009523D01*
X297029761Y-218104761D01*
X296744047Y-218104761D01*
X298267857Y-218104761D02*
X298267857Y-216771428D01*
X298267857Y-216961904D02*
X298363095Y-216866666D01*
X298553571Y-216771428D01*
X298839285Y-216771428D01*
X299029761Y-216866666D01*
X299125000Y-217057142D01*
X299125000Y-218104761D01*
X299125000Y-217057142D02*
X299220238Y-216866666D01*
X299410714Y-216771428D01*
X299696428Y-216771428D01*
X299886904Y-216866666D01*
X299982142Y-217057142D01*
X299982142Y-218104761D01*
X302363095Y-216009523D02*
X300648809Y-218580952D01*
X303886904Y-218104761D02*
X303886904Y-216104761D01*
X303886904Y-218009523D02*
X303696428Y-218104761D01*
X303315476Y-218104761D01*
X303125000Y-218009523D01*
X303029761Y-217914285D01*
X302934523Y-217723809D01*
X302934523Y-217152380D01*
X303029761Y-216961904D01*
X303125000Y-216866666D01*
X303315476Y-216771428D01*
X303696428Y-216771428D01*
X303886904Y-216866666D01*
X304744047Y-218009523D02*
X304934523Y-218104761D01*
X305315476Y-218104761D01*
X305505952Y-218009523D01*
X305601190Y-217819047D01*
X305601190Y-217723809D01*
X305505952Y-217533333D01*
X305315476Y-217438095D01*
X305029761Y-217438095D01*
X304839285Y-217342857D01*
X304744047Y-217152380D01*
X304744047Y-217057142D01*
X304839285Y-216866666D01*
X305029761Y-216771428D01*
X305315476Y-216771428D01*
X305505952Y-216866666D01*
X307315476Y-218104761D02*
X307315476Y-217057142D01*
X307220238Y-216866666D01*
X307029761Y-216771428D01*
X306648809Y-216771428D01*
X306458333Y-216866666D01*
X307315476Y-218009523D02*
X307125000Y-218104761D01*
X306648809Y-218104761D01*
X306458333Y-218009523D01*
X306363095Y-217819047D01*
X306363095Y-217628571D01*
X306458333Y-217438095D01*
X306648809Y-217342857D01*
X307125000Y-217342857D01*
X307315476Y-217247619D01*
X308267857Y-216771428D02*
X308267857Y-218104761D01*
X308267857Y-216961904D02*
X308363095Y-216866666D01*
X308553571Y-216771428D01*
X308839285Y-216771428D01*
X309029761Y-216866666D01*
X309125000Y-217057142D01*
X309125000Y-218104761D01*
X310934523Y-218009523D02*
X310744047Y-218104761D01*
X310363095Y-218104761D01*
X310172619Y-218009523D01*
X310077380Y-217914285D01*
X309982142Y-217723809D01*
X309982142Y-217152380D01*
X310077380Y-216961904D01*
X310172619Y-216866666D01*
X310363095Y-216771428D01*
X310744047Y-216771428D01*
X310934523Y-216866666D01*
X311791666Y-218104761D02*
X311791666Y-216104761D01*
X312648809Y-218104761D02*
X312648809Y-217057142D01*
X312553571Y-216866666D01*
X312363095Y-216771428D01*
X312077380Y-216771428D01*
X311886904Y-216866666D01*
X311791666Y-216961904D01*
X314363095Y-218009523D02*
X314172619Y-218104761D01*
X313791666Y-218104761D01*
X313601190Y-218009523D01*
X313505952Y-217819047D01*
X313505952Y-217057142D01*
X313601190Y-216866666D01*
X313791666Y-216771428D01*
X314172619Y-216771428D01*
X314363095Y-216866666D01*
X314458333Y-217057142D01*
X314458333Y-217247619D01*
X313505952Y-217438095D01*
X315125000Y-216771428D02*
X316172619Y-216771428D01*
X315125000Y-218104761D01*
X316172619Y-218104761D01*
X316839285Y-218009523D02*
X317029761Y-218104761D01*
X317410714Y-218104761D01*
X317601190Y-218009523D01*
X317696428Y-217819047D01*
X317696428Y-217723809D01*
X317601190Y-217533333D01*
X317410714Y-217438095D01*
X317125000Y-217438095D01*
X316934523Y-217342857D01*
X316839285Y-217152380D01*
X316839285Y-217057142D01*
X316934523Y-216866666D01*
X317125000Y-216771428D01*
X317410714Y-216771428D01*
X317601190Y-216866666D01*
X319315476Y-218009523D02*
X319125000Y-218104761D01*
X318744047Y-218104761D01*
X318553571Y-218009523D01*
X318458333Y-217819047D01*
X318458333Y-217057142D01*
X318553571Y-216866666D01*
X318744047Y-216771428D01*
X319125000Y-216771428D01*
X319315476Y-216866666D01*
X319410714Y-217057142D01*
X319410714Y-217247619D01*
X318458333Y-217438095D01*
X321125000Y-218009523D02*
X320934523Y-218104761D01*
X320553571Y-218104761D01*
X320363095Y-218009523D01*
X320267857Y-217914285D01*
X320172619Y-217723809D01*
X320172619Y-217152380D01*
X320267857Y-216961904D01*
X320363095Y-216866666D01*
X320553571Y-216771428D01*
X320934523Y-216771428D01*
X321125000Y-216866666D01*
X322267857Y-218104761D02*
X322077380Y-218009523D01*
X321982142Y-217914285D01*
X321886904Y-217723809D01*
X321886904Y-217152380D01*
X321982142Y-216961904D01*
X322077380Y-216866666D01*
X322267857Y-216771428D01*
X322553571Y-216771428D01*
X322744047Y-216866666D01*
X322839285Y-216961904D01*
X322934523Y-217152380D01*
X322934523Y-217723809D01*
X322839285Y-217914285D01*
X322744047Y-218009523D01*
X322553571Y-218104761D01*
X322267857Y-218104761D01*
X325220238Y-216009523D02*
X323505952Y-218580952D01*
X325886904Y-216771428D02*
X325886904Y-218771428D01*
X325886904Y-216866666D02*
X326077380Y-216771428D01*
X326458333Y-216771428D01*
X326648809Y-216866666D01*
X326744047Y-216961904D01*
X326839285Y-217152380D01*
X326839285Y-217723809D01*
X326744047Y-217914285D01*
X326648809Y-218009523D01*
X326458333Y-218104761D01*
X326077380Y-218104761D01*
X325886904Y-218009523D01*
X328553571Y-216771428D02*
X328553571Y-218104761D01*
X327696428Y-216771428D02*
X327696428Y-217819047D01*
X327791666Y-218009523D01*
X327982142Y-218104761D01*
X328267857Y-218104761D01*
X328458333Y-218009523D01*
X328553571Y-217914285D01*
X329505952Y-216771428D02*
X329505952Y-218104761D01*
X329505952Y-216961904D02*
X329601190Y-216866666D01*
X329791666Y-216771428D01*
X330077380Y-216771428D01*
X330267857Y-216866666D01*
X330363095Y-217057142D01*
X330363095Y-218104761D01*
X331315476Y-218104761D02*
X331315476Y-216104761D01*
X331505952Y-217342857D02*
X332077380Y-218104761D01*
X332077380Y-216771428D02*
X331315476Y-217533333D01*
X332744047Y-216104761D02*
X334077380Y-216104761D01*
X333220238Y-218104761D01*
X335791666Y-216104761D02*
X334839285Y-216104761D01*
X334744047Y-217057142D01*
X334839285Y-216961904D01*
X335029761Y-216866666D01*
X335505952Y-216866666D01*
X335696428Y-216961904D01*
X335791666Y-217057142D01*
X335886904Y-217247619D01*
X335886904Y-217723809D01*
X335791666Y-217914285D01*
X335696428Y-218009523D01*
X335505952Y-218104761D01*
X335029761Y-218104761D01*
X334839285Y-218009523D01*
X334744047Y-217914285D01*
X268351190Y-176802380D02*
X268351190Y-175802380D01*
X268684523Y-176516666D01*
X269017857Y-175802380D01*
X269017857Y-176802380D01*
X269446428Y-175897619D02*
X269494047Y-175850000D01*
X269589285Y-175802380D01*
X269827380Y-175802380D01*
X269922619Y-175850000D01*
X269970238Y-175897619D01*
X270017857Y-175992857D01*
X270017857Y-176088095D01*
X269970238Y-176230952D01*
X269398809Y-176802380D01*
X270017857Y-176802380D01*
X270446428Y-176707142D02*
X270494047Y-176754761D01*
X270446428Y-176802380D01*
X270398809Y-176754761D01*
X270446428Y-176707142D01*
X270446428Y-176802380D01*
X271398809Y-175802380D02*
X270922619Y-175802380D01*
X270875000Y-176278571D01*
X270922619Y-176230952D01*
X271017857Y-176183333D01*
X271255952Y-176183333D01*
X271351190Y-176230952D01*
X271398809Y-176278571D01*
X271446428Y-176373809D01*
X271446428Y-176611904D01*
X271398809Y-176707142D01*
X271351190Y-176754761D01*
X271255952Y-176802380D01*
X271017857Y-176802380D01*
X270922619Y-176754761D01*
X270875000Y-176707142D01*
X173101190Y-176727380D02*
X173101190Y-175727380D01*
X173434523Y-176441666D01*
X173767857Y-175727380D01*
X173767857Y-176727380D01*
X174196428Y-175822619D02*
X174244047Y-175775000D01*
X174339285Y-175727380D01*
X174577380Y-175727380D01*
X174672619Y-175775000D01*
X174720238Y-175822619D01*
X174767857Y-175917857D01*
X174767857Y-176013095D01*
X174720238Y-176155952D01*
X174148809Y-176727380D01*
X174767857Y-176727380D01*
X175196428Y-176632142D02*
X175244047Y-176679761D01*
X175196428Y-176727380D01*
X175148809Y-176679761D01*
X175196428Y-176632142D01*
X175196428Y-176727380D01*
X176148809Y-175727380D02*
X175672619Y-175727380D01*
X175625000Y-176203571D01*
X175672619Y-176155952D01*
X175767857Y-176108333D01*
X176005952Y-176108333D01*
X176101190Y-176155952D01*
X176148809Y-176203571D01*
X176196428Y-176298809D01*
X176196428Y-176536904D01*
X176148809Y-176632142D01*
X176101190Y-176679761D01*
X176005952Y-176727380D01*
X175767857Y-176727380D01*
X175672619Y-176679761D01*
X175625000Y-176632142D01*
X306451190Y-195789880D02*
X306451190Y-194789880D01*
X306784523Y-195504166D01*
X307117857Y-194789880D01*
X307117857Y-195789880D01*
X307546428Y-194885119D02*
X307594047Y-194837500D01*
X307689285Y-194789880D01*
X307927380Y-194789880D01*
X308022619Y-194837500D01*
X308070238Y-194885119D01*
X308117857Y-194980357D01*
X308117857Y-195075595D01*
X308070238Y-195218452D01*
X307498809Y-195789880D01*
X308117857Y-195789880D01*
X308546428Y-195694642D02*
X308594047Y-195742261D01*
X308546428Y-195789880D01*
X308498809Y-195742261D01*
X308546428Y-195694642D01*
X308546428Y-195789880D01*
X309498809Y-194789880D02*
X309022619Y-194789880D01*
X308975000Y-195266071D01*
X309022619Y-195218452D01*
X309117857Y-195170833D01*
X309355952Y-195170833D01*
X309451190Y-195218452D01*
X309498809Y-195266071D01*
X309546428Y-195361309D01*
X309546428Y-195599404D01*
X309498809Y-195694642D01*
X309451190Y-195742261D01*
X309355952Y-195789880D01*
X309117857Y-195789880D01*
X309022619Y-195742261D01*
X308975000Y-195694642D01*
X135001190Y-195789880D02*
X135001190Y-194789880D01*
X135334523Y-195504166D01*
X135667857Y-194789880D01*
X135667857Y-195789880D01*
X136096428Y-194885119D02*
X136144047Y-194837500D01*
X136239285Y-194789880D01*
X136477380Y-194789880D01*
X136572619Y-194837500D01*
X136620238Y-194885119D01*
X136667857Y-194980357D01*
X136667857Y-195075595D01*
X136620238Y-195218452D01*
X136048809Y-195789880D01*
X136667857Y-195789880D01*
X137096428Y-195694642D02*
X137144047Y-195742261D01*
X137096428Y-195789880D01*
X137048809Y-195742261D01*
X137096428Y-195694642D01*
X137096428Y-195789880D01*
X138048809Y-194789880D02*
X137572619Y-194789880D01*
X137525000Y-195266071D01*
X137572619Y-195218452D01*
X137667857Y-195170833D01*
X137905952Y-195170833D01*
X138001190Y-195218452D01*
X138048809Y-195266071D01*
X138096428Y-195361309D01*
X138096428Y-195599404D01*
X138048809Y-195694642D01*
X138001190Y-195742261D01*
X137905952Y-195789880D01*
X137667857Y-195789880D01*
X137572619Y-195742261D01*
X137525000Y-195694642D01*
X359632440Y-134671130D02*
X359632440Y-133671130D01*
X359965773Y-134385416D01*
X360299107Y-133671130D01*
X360299107Y-134671130D01*
X360727678Y-133766369D02*
X360775297Y-133718750D01*
X360870535Y-133671130D01*
X361108630Y-133671130D01*
X361203869Y-133718750D01*
X361251488Y-133766369D01*
X361299107Y-133861607D01*
X361299107Y-133956845D01*
X361251488Y-134099702D01*
X360680059Y-134671130D01*
X361299107Y-134671130D01*
X361727678Y-134575892D02*
X361775297Y-134623511D01*
X361727678Y-134671130D01*
X361680059Y-134623511D01*
X361727678Y-134575892D01*
X361727678Y-134671130D01*
X362680059Y-133671130D02*
X362203869Y-133671130D01*
X362156250Y-134147321D01*
X362203869Y-134099702D01*
X362299107Y-134052083D01*
X362537202Y-134052083D01*
X362632440Y-134099702D01*
X362680059Y-134147321D01*
X362727678Y-134242559D01*
X362727678Y-134480654D01*
X362680059Y-134575892D01*
X362632440Y-134623511D01*
X362537202Y-134671130D01*
X362299107Y-134671130D01*
X362203869Y-134623511D01*
X362156250Y-134575892D01*
X359632440Y-114827380D02*
X359632440Y-113827380D01*
X359965773Y-114541666D01*
X360299107Y-113827380D01*
X360299107Y-114827380D01*
X360727678Y-113922619D02*
X360775297Y-113875000D01*
X360870535Y-113827380D01*
X361108630Y-113827380D01*
X361203869Y-113875000D01*
X361251488Y-113922619D01*
X361299107Y-114017857D01*
X361299107Y-114113095D01*
X361251488Y-114255952D01*
X360680059Y-114827380D01*
X361299107Y-114827380D01*
X361727678Y-114732142D02*
X361775297Y-114779761D01*
X361727678Y-114827380D01*
X361680059Y-114779761D01*
X361727678Y-114732142D01*
X361727678Y-114827380D01*
X362680059Y-113827380D02*
X362203869Y-113827380D01*
X362156250Y-114303571D01*
X362203869Y-114255952D01*
X362299107Y-114208333D01*
X362537202Y-114208333D01*
X362632440Y-114255952D01*
X362680059Y-114303571D01*
X362727678Y-114398809D01*
X362727678Y-114636904D01*
X362680059Y-114732142D01*
X362632440Y-114779761D01*
X362537202Y-114827380D01*
X362299107Y-114827380D01*
X362203869Y-114779761D01*
X362156250Y-114732142D01*
X81788190Y-134512380D02*
X81788190Y-133512380D01*
X82121523Y-134226666D01*
X82454857Y-133512380D01*
X82454857Y-134512380D01*
X82883428Y-133607619D02*
X82931047Y-133560000D01*
X83026285Y-133512380D01*
X83264380Y-133512380D01*
X83359619Y-133560000D01*
X83407238Y-133607619D01*
X83454857Y-133702857D01*
X83454857Y-133798095D01*
X83407238Y-133940952D01*
X82835809Y-134512380D01*
X83454857Y-134512380D01*
X83883428Y-134417142D02*
X83931047Y-134464761D01*
X83883428Y-134512380D01*
X83835809Y-134464761D01*
X83883428Y-134417142D01*
X83883428Y-134512380D01*
X84835809Y-133512380D02*
X84359619Y-133512380D01*
X84312000Y-133988571D01*
X84359619Y-133940952D01*
X84454857Y-133893333D01*
X84692952Y-133893333D01*
X84788190Y-133940952D01*
X84835809Y-133988571D01*
X84883428Y-134083809D01*
X84883428Y-134321904D01*
X84835809Y-134417142D01*
X84788190Y-134464761D01*
X84692952Y-134512380D01*
X84454857Y-134512380D01*
X84359619Y-134464761D01*
X84312000Y-134417142D01*
X81819940Y-114827380D02*
X81819940Y-113827380D01*
X82153273Y-114541666D01*
X82486607Y-113827380D01*
X82486607Y-114827380D01*
X82915178Y-113922619D02*
X82962797Y-113875000D01*
X83058035Y-113827380D01*
X83296130Y-113827380D01*
X83391369Y-113875000D01*
X83438988Y-113922619D01*
X83486607Y-114017857D01*
X83486607Y-114113095D01*
X83438988Y-114255952D01*
X82867559Y-114827380D01*
X83486607Y-114827380D01*
X83915178Y-114732142D02*
X83962797Y-114779761D01*
X83915178Y-114827380D01*
X83867559Y-114779761D01*
X83915178Y-114732142D01*
X83915178Y-114827380D01*
X84867559Y-113827380D02*
X84391369Y-113827380D01*
X84343750Y-114303571D01*
X84391369Y-114255952D01*
X84486607Y-114208333D01*
X84724702Y-114208333D01*
X84819940Y-114255952D01*
X84867559Y-114303571D01*
X84915178Y-114398809D01*
X84915178Y-114636904D01*
X84867559Y-114732142D01*
X84819940Y-114779761D01*
X84724702Y-114827380D01*
X84486607Y-114827380D01*
X84391369Y-114779761D01*
X84343750Y-114732142D01*
X230251190Y-157753380D02*
X230251190Y-156753380D01*
X230584523Y-157467666D01*
X230917857Y-156753380D01*
X230917857Y-157753380D01*
X231346428Y-156848619D02*
X231394047Y-156801000D01*
X231489285Y-156753380D01*
X231727380Y-156753380D01*
X231822619Y-156801000D01*
X231870238Y-156848619D01*
X231917857Y-156943857D01*
X231917857Y-157039095D01*
X231870238Y-157181952D01*
X231298809Y-157753380D01*
X231917857Y-157753380D01*
X232346428Y-157658142D02*
X232394047Y-157705761D01*
X232346428Y-157753380D01*
X232298809Y-157705761D01*
X232346428Y-157658142D01*
X232346428Y-157753380D01*
X233298809Y-156753380D02*
X232822619Y-156753380D01*
X232775000Y-157229571D01*
X232822619Y-157181952D01*
X232917857Y-157134333D01*
X233155952Y-157134333D01*
X233251190Y-157181952D01*
X233298809Y-157229571D01*
X233346428Y-157324809D01*
X233346428Y-157562904D01*
X233298809Y-157658142D01*
X233251190Y-157705761D01*
X233155952Y-157753380D01*
X232917857Y-157753380D01*
X232822619Y-157705761D01*
X232775000Y-157658142D01*
X325501190Y-157702380D02*
X325501190Y-156702380D01*
X325834523Y-157416666D01*
X326167857Y-156702380D01*
X326167857Y-157702380D01*
X326596428Y-156797619D02*
X326644047Y-156750000D01*
X326739285Y-156702380D01*
X326977380Y-156702380D01*
X327072619Y-156750000D01*
X327120238Y-156797619D01*
X327167857Y-156892857D01*
X327167857Y-156988095D01*
X327120238Y-157130952D01*
X326548809Y-157702380D01*
X327167857Y-157702380D01*
X327596428Y-157607142D02*
X327644047Y-157654761D01*
X327596428Y-157702380D01*
X327548809Y-157654761D01*
X327596428Y-157607142D01*
X327596428Y-157702380D01*
X328548809Y-156702380D02*
X328072619Y-156702380D01*
X328025000Y-157178571D01*
X328072619Y-157130952D01*
X328167857Y-157083333D01*
X328405952Y-157083333D01*
X328501190Y-157130952D01*
X328548809Y-157178571D01*
X328596428Y-157273809D01*
X328596428Y-157511904D01*
X328548809Y-157607142D01*
X328501190Y-157654761D01*
X328405952Y-157702380D01*
X328167857Y-157702380D01*
X328072619Y-157654761D01*
X328025000Y-157607142D01*
X344551190Y-214839880D02*
X344551190Y-213839880D01*
X344884523Y-214554166D01*
X345217857Y-213839880D01*
X345217857Y-214839880D01*
X345646428Y-213935119D02*
X345694047Y-213887500D01*
X345789285Y-213839880D01*
X346027380Y-213839880D01*
X346122619Y-213887500D01*
X346170238Y-213935119D01*
X346217857Y-214030357D01*
X346217857Y-214125595D01*
X346170238Y-214268452D01*
X345598809Y-214839880D01*
X346217857Y-214839880D01*
X346646428Y-214744642D02*
X346694047Y-214792261D01*
X346646428Y-214839880D01*
X346598809Y-214792261D01*
X346646428Y-214744642D01*
X346646428Y-214839880D01*
X347598809Y-213839880D02*
X347122619Y-213839880D01*
X347075000Y-214316071D01*
X347122619Y-214268452D01*
X347217857Y-214220833D01*
X347455952Y-214220833D01*
X347551190Y-214268452D01*
X347598809Y-214316071D01*
X347646428Y-214411309D01*
X347646428Y-214649404D01*
X347598809Y-214744642D01*
X347551190Y-214792261D01*
X347455952Y-214839880D01*
X347217857Y-214839880D01*
X347122619Y-214792261D01*
X347075000Y-214744642D01*
X211201190Y-214839880D02*
X211201190Y-213839880D01*
X211534523Y-214554166D01*
X211867857Y-213839880D01*
X211867857Y-214839880D01*
X212296428Y-213935119D02*
X212344047Y-213887500D01*
X212439285Y-213839880D01*
X212677380Y-213839880D01*
X212772619Y-213887500D01*
X212820238Y-213935119D01*
X212867857Y-214030357D01*
X212867857Y-214125595D01*
X212820238Y-214268452D01*
X212248809Y-214839880D01*
X212867857Y-214839880D01*
X213296428Y-214744642D02*
X213344047Y-214792261D01*
X213296428Y-214839880D01*
X213248809Y-214792261D01*
X213296428Y-214744642D01*
X213296428Y-214839880D01*
X214248809Y-213839880D02*
X213772619Y-213839880D01*
X213725000Y-214316071D01*
X213772619Y-214268452D01*
X213867857Y-214220833D01*
X214105952Y-214220833D01*
X214201190Y-214268452D01*
X214248809Y-214316071D01*
X214296428Y-214411309D01*
X214296428Y-214649404D01*
X214248809Y-214744642D01*
X214201190Y-214792261D01*
X214105952Y-214839880D01*
X213867857Y-214839880D01*
X213772619Y-214792261D01*
X213725000Y-214744642D01*
X96901190Y-214839880D02*
X96901190Y-213839880D01*
X97234523Y-214554166D01*
X97567857Y-213839880D01*
X97567857Y-214839880D01*
X97996428Y-213935119D02*
X98044047Y-213887500D01*
X98139285Y-213839880D01*
X98377380Y-213839880D01*
X98472619Y-213887500D01*
X98520238Y-213935119D01*
X98567857Y-214030357D01*
X98567857Y-214125595D01*
X98520238Y-214268452D01*
X97948809Y-214839880D01*
X98567857Y-214839880D01*
X98996428Y-214744642D02*
X99044047Y-214792261D01*
X98996428Y-214839880D01*
X98948809Y-214792261D01*
X98996428Y-214744642D01*
X98996428Y-214839880D01*
X99948809Y-213839880D02*
X99472619Y-213839880D01*
X99425000Y-214316071D01*
X99472619Y-214268452D01*
X99567857Y-214220833D01*
X99805952Y-214220833D01*
X99901190Y-214268452D01*
X99948809Y-214316071D01*
X99996428Y-214411309D01*
X99996428Y-214649404D01*
X99948809Y-214744642D01*
X99901190Y-214792261D01*
X99805952Y-214839880D01*
X99567857Y-214839880D01*
X99472619Y-214792261D01*
X99425000Y-214744642D01*
X115951190Y-157712380D02*
X115951190Y-156712380D01*
X116284523Y-157426666D01*
X116617857Y-156712380D01*
X116617857Y-157712380D01*
X117046428Y-156807619D02*
X117094047Y-156760000D01*
X117189285Y-156712380D01*
X117427380Y-156712380D01*
X117522619Y-156760000D01*
X117570238Y-156807619D01*
X117617857Y-156902857D01*
X117617857Y-156998095D01*
X117570238Y-157140952D01*
X116998809Y-157712380D01*
X117617857Y-157712380D01*
X118046428Y-157617142D02*
X118094047Y-157664761D01*
X118046428Y-157712380D01*
X117998809Y-157664761D01*
X118046428Y-157617142D01*
X118046428Y-157712380D01*
X118998809Y-156712380D02*
X118522619Y-156712380D01*
X118475000Y-157188571D01*
X118522619Y-157140952D01*
X118617857Y-157093333D01*
X118855952Y-157093333D01*
X118951190Y-157140952D01*
X118998809Y-157188571D01*
X119046428Y-157283809D01*
X119046428Y-157521904D01*
X118998809Y-157617142D01*
X118951190Y-157664761D01*
X118855952Y-157712380D01*
X118617857Y-157712380D01*
X118522619Y-157664761D01*
X118475000Y-157617142D01*
M02*
