G04 #@! TF.GenerationSoftware,KiCad,Pcbnew,(5.1.6)-1*
G04 #@! TF.CreationDate,2020-11-14T19:27:32+01:00*
G04 #@! TF.ProjectId,punk75_bottom_eotw,70756e6b-3735-45f6-926f-74746f6d5f65,rev?*
G04 #@! TF.SameCoordinates,Original*
G04 #@! TF.FileFunction,Soldermask,Bot*
G04 #@! TF.FilePolarity,Negative*
%FSLAX46Y46*%
G04 Gerber Fmt 4.6, Leading zero omitted, Abs format (unit mm)*
G04 Created by KiCad (PCBNEW (5.1.6)-1) date 2020-11-14 19:27:32*
%MOMM*%
%LPD*%
G01*
G04 APERTURE LIST*
%ADD10C,0.100000*%
G04 APERTURE END LIST*
D10*
G36*
X213173903Y-208880713D02*
G01*
X213396177Y-208924926D01*
X213814932Y-209098380D01*
X214191802Y-209350196D01*
X214512304Y-209670698D01*
X214764120Y-210047568D01*
X214937574Y-210466323D01*
X215026000Y-210910871D01*
X215026000Y-211364129D01*
X214937574Y-211808677D01*
X214764120Y-212227432D01*
X214512304Y-212604302D01*
X214191802Y-212924804D01*
X213814932Y-213176620D01*
X213396177Y-213350074D01*
X213173903Y-213394287D01*
X212951630Y-213438500D01*
X212498370Y-213438500D01*
X212276097Y-213394287D01*
X212053823Y-213350074D01*
X211635068Y-213176620D01*
X211258198Y-212924804D01*
X210937696Y-212604302D01*
X210685880Y-212227432D01*
X210512426Y-211808677D01*
X210424000Y-211364129D01*
X210424000Y-210910871D01*
X210512426Y-210466323D01*
X210685880Y-210047568D01*
X210937696Y-209670698D01*
X211258198Y-209350196D01*
X211635068Y-209098380D01*
X212053823Y-208924926D01*
X212276097Y-208880713D01*
X212498370Y-208836500D01*
X212951630Y-208836500D01*
X213173903Y-208880713D01*
G37*
G36*
X98873903Y-208880713D02*
G01*
X99096177Y-208924926D01*
X99514932Y-209098380D01*
X99891802Y-209350196D01*
X100212304Y-209670698D01*
X100464120Y-210047568D01*
X100637574Y-210466323D01*
X100726000Y-210910871D01*
X100726000Y-211364129D01*
X100637574Y-211808677D01*
X100464120Y-212227432D01*
X100212304Y-212604302D01*
X99891802Y-212924804D01*
X99514932Y-213176620D01*
X99096177Y-213350074D01*
X98873903Y-213394287D01*
X98651630Y-213438500D01*
X98198370Y-213438500D01*
X97976097Y-213394287D01*
X97753823Y-213350074D01*
X97335068Y-213176620D01*
X96958198Y-212924804D01*
X96637696Y-212604302D01*
X96385880Y-212227432D01*
X96212426Y-211808677D01*
X96124000Y-211364129D01*
X96124000Y-210910871D01*
X96212426Y-210466323D01*
X96385880Y-210047568D01*
X96637696Y-209670698D01*
X96958198Y-209350196D01*
X97335068Y-209098380D01*
X97753823Y-208924926D01*
X97976097Y-208880713D01*
X98198370Y-208836500D01*
X98651630Y-208836500D01*
X98873903Y-208880713D01*
G37*
G36*
X346523903Y-208880713D02*
G01*
X346746177Y-208924926D01*
X347164932Y-209098380D01*
X347541802Y-209350196D01*
X347862304Y-209670698D01*
X348114120Y-210047568D01*
X348287574Y-210466323D01*
X348376000Y-210910871D01*
X348376000Y-211364129D01*
X348287574Y-211808677D01*
X348114120Y-212227432D01*
X347862304Y-212604302D01*
X347541802Y-212924804D01*
X347164932Y-213176620D01*
X346746177Y-213350074D01*
X346523903Y-213394287D01*
X346301630Y-213438500D01*
X345848370Y-213438500D01*
X345626097Y-213394287D01*
X345403823Y-213350074D01*
X344985068Y-213176620D01*
X344608198Y-212924804D01*
X344287696Y-212604302D01*
X344035880Y-212227432D01*
X343862426Y-211808677D01*
X343774000Y-211364129D01*
X343774000Y-210910871D01*
X343862426Y-210466323D01*
X344035880Y-210047568D01*
X344287696Y-209670698D01*
X344608198Y-209350196D01*
X344985068Y-209098380D01*
X345403823Y-208924926D01*
X345626097Y-208880713D01*
X345848370Y-208836500D01*
X346301630Y-208836500D01*
X346523903Y-208880713D01*
G37*
G36*
X308423903Y-189830713D02*
G01*
X308646177Y-189874926D01*
X309064932Y-190048380D01*
X309441802Y-190300196D01*
X309762304Y-190620698D01*
X310014120Y-190997568D01*
X310187574Y-191416323D01*
X310276000Y-191860871D01*
X310276000Y-192314129D01*
X310187574Y-192758677D01*
X310014120Y-193177432D01*
X309762304Y-193554302D01*
X309441802Y-193874804D01*
X309064932Y-194126620D01*
X308646177Y-194300074D01*
X308423903Y-194344287D01*
X308201630Y-194388500D01*
X307748370Y-194388500D01*
X307526097Y-194344287D01*
X307303823Y-194300074D01*
X306885068Y-194126620D01*
X306508198Y-193874804D01*
X306187696Y-193554302D01*
X305935880Y-193177432D01*
X305762426Y-192758677D01*
X305674000Y-192314129D01*
X305674000Y-191860871D01*
X305762426Y-191416323D01*
X305935880Y-190997568D01*
X306187696Y-190620698D01*
X306508198Y-190300196D01*
X306885068Y-190048380D01*
X307303823Y-189874926D01*
X307526097Y-189830713D01*
X307748370Y-189786500D01*
X308201630Y-189786500D01*
X308423903Y-189830713D01*
G37*
G36*
X136973903Y-189830713D02*
G01*
X137196177Y-189874926D01*
X137614932Y-190048380D01*
X137991802Y-190300196D01*
X138312304Y-190620698D01*
X138564120Y-190997568D01*
X138737574Y-191416323D01*
X138826000Y-191860871D01*
X138826000Y-192314129D01*
X138737574Y-192758677D01*
X138564120Y-193177432D01*
X138312304Y-193554302D01*
X137991802Y-193874804D01*
X137614932Y-194126620D01*
X137196177Y-194300074D01*
X136973903Y-194344287D01*
X136751630Y-194388500D01*
X136298370Y-194388500D01*
X136076097Y-194344287D01*
X135853823Y-194300074D01*
X135435068Y-194126620D01*
X135058198Y-193874804D01*
X134737696Y-193554302D01*
X134485880Y-193177432D01*
X134312426Y-192758677D01*
X134224000Y-192314129D01*
X134224000Y-191860871D01*
X134312426Y-191416323D01*
X134485880Y-190997568D01*
X134737696Y-190620698D01*
X135058198Y-190300196D01*
X135435068Y-190048380D01*
X135853823Y-189874926D01*
X136076097Y-189830713D01*
X136298370Y-189786500D01*
X136751630Y-189786500D01*
X136973903Y-189830713D01*
G37*
G36*
X232223903Y-151794213D02*
G01*
X232446177Y-151838426D01*
X232864932Y-152011880D01*
X233241802Y-152263696D01*
X233562304Y-152584198D01*
X233814120Y-152961068D01*
X233987574Y-153379823D01*
X233987574Y-153379824D01*
X234067845Y-153783370D01*
X234076000Y-153824371D01*
X234076000Y-154277629D01*
X233987574Y-154722177D01*
X233814120Y-155140932D01*
X233562304Y-155517802D01*
X233241802Y-155838304D01*
X232864932Y-156090120D01*
X232446177Y-156263574D01*
X232223903Y-156307787D01*
X232001630Y-156352000D01*
X231548370Y-156352000D01*
X231326097Y-156307787D01*
X231103823Y-156263574D01*
X230685068Y-156090120D01*
X230308198Y-155838304D01*
X229987696Y-155517802D01*
X229735880Y-155140932D01*
X229562426Y-154722177D01*
X229474000Y-154277629D01*
X229474000Y-153824371D01*
X229482156Y-153783370D01*
X229562426Y-153379824D01*
X229562426Y-153379823D01*
X229735880Y-152961068D01*
X229987696Y-152584198D01*
X230308198Y-152263696D01*
X230685068Y-152011880D01*
X231103823Y-151838426D01*
X231326097Y-151794213D01*
X231548370Y-151750000D01*
X232001630Y-151750000D01*
X232223903Y-151794213D01*
G37*
G36*
X117907750Y-151750000D02*
G01*
X118146177Y-151797426D01*
X118564932Y-151970880D01*
X118941802Y-152222696D01*
X119262304Y-152543198D01*
X119514120Y-152920068D01*
X119687574Y-153338823D01*
X119731787Y-153561097D01*
X119776000Y-153783370D01*
X119776000Y-154236630D01*
X119731787Y-154458903D01*
X119687574Y-154681177D01*
X119514120Y-155099932D01*
X119262304Y-155476802D01*
X118941802Y-155797304D01*
X118564932Y-156049120D01*
X118146177Y-156222574D01*
X117940056Y-156263574D01*
X117701630Y-156311000D01*
X117248370Y-156311000D01*
X117009944Y-156263574D01*
X116803823Y-156222574D01*
X116385068Y-156049120D01*
X116008198Y-155797304D01*
X115687696Y-155476802D01*
X115435880Y-155099932D01*
X115262426Y-154681177D01*
X115218213Y-154458903D01*
X115174000Y-154236630D01*
X115174000Y-153783370D01*
X115218213Y-153561097D01*
X115262426Y-153338823D01*
X115435880Y-152920068D01*
X115687696Y-152543198D01*
X116008198Y-152222696D01*
X116385068Y-151970880D01*
X116803823Y-151797426D01*
X117042250Y-151750000D01*
X117248370Y-151709000D01*
X117701630Y-151709000D01*
X117907750Y-151750000D01*
G37*
G36*
X327473903Y-151743213D02*
G01*
X327696177Y-151787426D01*
X328114932Y-151960880D01*
X328491802Y-152212696D01*
X328812304Y-152533198D01*
X329064120Y-152910068D01*
X329237574Y-153328823D01*
X329247719Y-153379824D01*
X329326000Y-153773370D01*
X329326000Y-154226630D01*
X329315855Y-154277630D01*
X329237574Y-154671177D01*
X329064120Y-155089932D01*
X328812304Y-155466802D01*
X328491802Y-155787304D01*
X328114932Y-156039120D01*
X327696177Y-156212574D01*
X327473903Y-156256787D01*
X327251630Y-156301000D01*
X326798370Y-156301000D01*
X326576097Y-156256787D01*
X326353823Y-156212574D01*
X325935068Y-156039120D01*
X325558198Y-155787304D01*
X325237696Y-155466802D01*
X324985880Y-155089932D01*
X324812426Y-154671177D01*
X324734145Y-154277630D01*
X324724000Y-154226630D01*
X324724000Y-153773370D01*
X324802281Y-153379824D01*
X324812426Y-153328823D01*
X324985880Y-152910068D01*
X325237696Y-152533198D01*
X325558198Y-152212696D01*
X325935068Y-151960880D01*
X326353823Y-151787426D01*
X326576097Y-151743213D01*
X326798370Y-151699000D01*
X327251630Y-151699000D01*
X327473903Y-151743213D01*
G37*
G36*
X361605153Y-128711963D02*
G01*
X361827427Y-128756176D01*
X362246182Y-128929630D01*
X362623052Y-129181446D01*
X362943554Y-129501948D01*
X363195370Y-129878818D01*
X363368824Y-130297573D01*
X363368824Y-130297574D01*
X363425673Y-130583370D01*
X363457250Y-130742121D01*
X363457250Y-131195379D01*
X363368824Y-131639927D01*
X363195370Y-132058682D01*
X362943554Y-132435552D01*
X362623052Y-132756054D01*
X362246182Y-133007870D01*
X361827427Y-133181324D01*
X361605153Y-133225537D01*
X361382880Y-133269750D01*
X360929620Y-133269750D01*
X360707347Y-133225537D01*
X360485073Y-133181324D01*
X360066318Y-133007870D01*
X359689448Y-132756054D01*
X359368946Y-132435552D01*
X359117130Y-132058682D01*
X358943676Y-131639927D01*
X358855250Y-131195379D01*
X358855250Y-130742121D01*
X358886828Y-130583370D01*
X358943676Y-130297574D01*
X358943676Y-130297573D01*
X359117130Y-129878818D01*
X359368946Y-129501948D01*
X359689448Y-129181446D01*
X360066318Y-128929630D01*
X360485073Y-128756176D01*
X360707347Y-128711963D01*
X360929620Y-128667750D01*
X361382880Y-128667750D01*
X361605153Y-128711963D01*
G37*
G36*
X83760903Y-128553213D02*
G01*
X83983177Y-128597426D01*
X84401932Y-128770880D01*
X84778802Y-129022696D01*
X85099304Y-129343198D01*
X85351120Y-129720068D01*
X85524574Y-130138823D01*
X85568787Y-130361097D01*
X85613000Y-130583370D01*
X85613000Y-131036630D01*
X85568787Y-131258903D01*
X85524574Y-131481177D01*
X85351120Y-131899932D01*
X85099304Y-132276802D01*
X84778802Y-132597304D01*
X84401932Y-132849120D01*
X83983177Y-133022574D01*
X83760903Y-133066787D01*
X83538630Y-133111000D01*
X83085370Y-133111000D01*
X82863097Y-133066787D01*
X82640823Y-133022574D01*
X82222068Y-132849120D01*
X81845198Y-132597304D01*
X81524696Y-132276802D01*
X81272880Y-131899932D01*
X81099426Y-131481177D01*
X81055213Y-131258903D01*
X81011000Y-131036630D01*
X81011000Y-130583370D01*
X81055213Y-130361097D01*
X81099426Y-130138823D01*
X81272880Y-129720068D01*
X81524696Y-129343198D01*
X81845198Y-129022696D01*
X82222068Y-128770880D01*
X82640823Y-128597426D01*
X82863097Y-128553213D01*
X83085370Y-128509000D01*
X83538630Y-128509000D01*
X83760903Y-128553213D01*
G37*
G36*
X361605153Y-108868213D02*
G01*
X361827427Y-108912426D01*
X362246182Y-109085880D01*
X362623052Y-109337696D01*
X362943554Y-109658198D01*
X363195370Y-110035068D01*
X363368824Y-110453823D01*
X363457250Y-110898371D01*
X363457250Y-111351629D01*
X363368824Y-111796177D01*
X363195370Y-112214932D01*
X362943554Y-112591802D01*
X362623052Y-112912304D01*
X362246182Y-113164120D01*
X361827427Y-113337574D01*
X361605153Y-113381787D01*
X361382880Y-113426000D01*
X360929620Y-113426000D01*
X360707347Y-113381787D01*
X360485073Y-113337574D01*
X360066318Y-113164120D01*
X359689448Y-112912304D01*
X359368946Y-112591802D01*
X359117130Y-112214932D01*
X358943676Y-111796177D01*
X358855250Y-111351629D01*
X358855250Y-110898371D01*
X358943676Y-110453823D01*
X359117130Y-110035068D01*
X359368946Y-109658198D01*
X359689448Y-109337696D01*
X360066318Y-109085880D01*
X360485073Y-108912426D01*
X360707347Y-108868213D01*
X360929620Y-108824000D01*
X361382880Y-108824000D01*
X361605153Y-108868213D01*
G37*
G36*
X83792653Y-108868213D02*
G01*
X84014927Y-108912426D01*
X84433682Y-109085880D01*
X84810552Y-109337696D01*
X85131054Y-109658198D01*
X85382870Y-110035068D01*
X85556324Y-110453823D01*
X85644750Y-110898371D01*
X85644750Y-111351629D01*
X85556324Y-111796177D01*
X85382870Y-112214932D01*
X85131054Y-112591802D01*
X84810552Y-112912304D01*
X84433682Y-113164120D01*
X84014927Y-113337574D01*
X83792653Y-113381787D01*
X83570380Y-113426000D01*
X83117120Y-113426000D01*
X82894847Y-113381787D01*
X82672573Y-113337574D01*
X82253818Y-113164120D01*
X81876948Y-112912304D01*
X81556446Y-112591802D01*
X81304630Y-112214932D01*
X81131176Y-111796177D01*
X81042750Y-111351629D01*
X81042750Y-110898371D01*
X81131176Y-110453823D01*
X81304630Y-110035068D01*
X81556446Y-109658198D01*
X81876948Y-109337696D01*
X82253818Y-109085880D01*
X82672573Y-108912426D01*
X82894847Y-108868213D01*
X83117120Y-108824000D01*
X83570380Y-108824000D01*
X83792653Y-108868213D01*
G37*
M02*
