G04 #@! TF.GenerationSoftware,KiCad,Pcbnew,(5.1.6)-1*
G04 #@! TF.CreationDate,2020-11-14T19:27:32+01:00*
G04 #@! TF.ProjectId,punk75_bottom_eotw,70756e6b-3735-45f6-926f-74746f6d5f65,rev?*
G04 #@! TF.SameCoordinates,Original*
G04 #@! TF.FileFunction,Legend,Top*
G04 #@! TF.FilePolarity,Positive*
%FSLAX46Y46*%
G04 Gerber Fmt 4.6, Leading zero omitted, Abs format (unit mm)*
G04 Created by KiCad (PCBNEW (5.1.6)-1) date 2020-11-14 19:27:32*
%MOMM*%
%LPD*%
G01*
G04 APERTURE LIST*
%ADD10C,0.150000*%
G04 APERTURE END LIST*
D10*
X93805952Y-225385380D02*
X93805952Y-226099666D01*
X93758333Y-226242523D01*
X93663095Y-226337761D01*
X93520238Y-226385380D01*
X93425000Y-226385380D01*
X94758333Y-226385380D02*
X94282142Y-226385380D01*
X94282142Y-225385380D01*
X95663095Y-226290142D02*
X95615476Y-226337761D01*
X95472619Y-226385380D01*
X95377380Y-226385380D01*
X95234523Y-226337761D01*
X95139285Y-226242523D01*
X95091666Y-226147285D01*
X95044047Y-225956809D01*
X95044047Y-225813952D01*
X95091666Y-225623476D01*
X95139285Y-225528238D01*
X95234523Y-225433000D01*
X95377380Y-225385380D01*
X95472619Y-225385380D01*
X95615476Y-225433000D01*
X95663095Y-225480619D01*
X96377380Y-225385380D02*
X96377380Y-226099666D01*
X96329761Y-226242523D01*
X96234523Y-226337761D01*
X96091666Y-226385380D01*
X95996428Y-226385380D01*
X97329761Y-226385380D02*
X96853571Y-226385380D01*
X96853571Y-225385380D01*
X98234523Y-226290142D02*
X98186904Y-226337761D01*
X98044047Y-226385380D01*
X97948809Y-226385380D01*
X97805952Y-226337761D01*
X97710714Y-226242523D01*
X97663095Y-226147285D01*
X97615476Y-225956809D01*
X97615476Y-225813952D01*
X97663095Y-225623476D01*
X97710714Y-225528238D01*
X97805952Y-225433000D01*
X97948809Y-225385380D01*
X98044047Y-225385380D01*
X98186904Y-225433000D01*
X98234523Y-225480619D01*
X98948809Y-225385380D02*
X98948809Y-226099666D01*
X98901190Y-226242523D01*
X98805952Y-226337761D01*
X98663095Y-226385380D01*
X98567857Y-226385380D01*
X99901190Y-226385380D02*
X99425000Y-226385380D01*
X99425000Y-225385380D01*
X100805952Y-226290142D02*
X100758333Y-226337761D01*
X100615476Y-226385380D01*
X100520238Y-226385380D01*
X100377380Y-226337761D01*
X100282142Y-226242523D01*
X100234523Y-226147285D01*
X100186904Y-225956809D01*
X100186904Y-225813952D01*
X100234523Y-225623476D01*
X100282142Y-225528238D01*
X100377380Y-225433000D01*
X100520238Y-225385380D01*
X100615476Y-225385380D01*
X100758333Y-225433000D01*
X100805952Y-225480619D01*
X101520238Y-225385380D02*
X101520238Y-226099666D01*
X101472619Y-226242523D01*
X101377380Y-226337761D01*
X101234523Y-226385380D01*
X101139285Y-226385380D01*
X102472619Y-226385380D02*
X101996428Y-226385380D01*
X101996428Y-225385380D01*
X103377380Y-226290142D02*
X103329761Y-226337761D01*
X103186904Y-226385380D01*
X103091666Y-226385380D01*
X102948809Y-226337761D01*
X102853571Y-226242523D01*
X102805952Y-226147285D01*
X102758333Y-225956809D01*
X102758333Y-225813952D01*
X102805952Y-225623476D01*
X102853571Y-225528238D01*
X102948809Y-225433000D01*
X103091666Y-225385380D01*
X103186904Y-225385380D01*
X103329761Y-225433000D01*
X103377380Y-225480619D01*
X290150476Y-208359428D02*
X290150476Y-209978476D01*
X290055238Y-210168952D01*
X289960000Y-210264190D01*
X289769523Y-210359428D01*
X289483809Y-210359428D01*
X289293333Y-210264190D01*
X290150476Y-209597523D02*
X289960000Y-209692761D01*
X289579047Y-209692761D01*
X289388571Y-209597523D01*
X289293333Y-209502285D01*
X289198095Y-209311809D01*
X289198095Y-208740380D01*
X289293333Y-208549904D01*
X289388571Y-208454666D01*
X289579047Y-208359428D01*
X289960000Y-208359428D01*
X290150476Y-208454666D01*
X291102857Y-209692761D02*
X291102857Y-208359428D01*
X291102857Y-207692761D02*
X291007619Y-207788000D01*
X291102857Y-207883238D01*
X291198095Y-207788000D01*
X291102857Y-207692761D01*
X291102857Y-207883238D01*
X291769523Y-208359428D02*
X292531428Y-208359428D01*
X292055238Y-207692761D02*
X292055238Y-209407047D01*
X292150476Y-209597523D01*
X292340952Y-209692761D01*
X292531428Y-209692761D01*
X293198095Y-209692761D02*
X293198095Y-207692761D01*
X294055238Y-209692761D02*
X294055238Y-208645142D01*
X293960000Y-208454666D01*
X293769523Y-208359428D01*
X293483809Y-208359428D01*
X293293333Y-208454666D01*
X293198095Y-208549904D01*
X295864761Y-208359428D02*
X295864761Y-209692761D01*
X295007619Y-208359428D02*
X295007619Y-209407047D01*
X295102857Y-209597523D01*
X295293333Y-209692761D01*
X295579047Y-209692761D01*
X295769523Y-209597523D01*
X295864761Y-209502285D01*
X296817142Y-209692761D02*
X296817142Y-207692761D01*
X296817142Y-208454666D02*
X297007619Y-208359428D01*
X297388571Y-208359428D01*
X297579047Y-208454666D01*
X297674285Y-208549904D01*
X297769523Y-208740380D01*
X297769523Y-209311809D01*
X297674285Y-209502285D01*
X297579047Y-209597523D01*
X297388571Y-209692761D01*
X297007619Y-209692761D01*
X296817142Y-209597523D01*
X298626666Y-209502285D02*
X298721904Y-209597523D01*
X298626666Y-209692761D01*
X298531428Y-209597523D01*
X298626666Y-209502285D01*
X298626666Y-209692761D01*
X300436190Y-209597523D02*
X300245714Y-209692761D01*
X299864761Y-209692761D01*
X299674285Y-209597523D01*
X299579047Y-209502285D01*
X299483809Y-209311809D01*
X299483809Y-208740380D01*
X299579047Y-208549904D01*
X299674285Y-208454666D01*
X299864761Y-208359428D01*
X300245714Y-208359428D01*
X300436190Y-208454666D01*
X301579047Y-209692761D02*
X301388571Y-209597523D01*
X301293333Y-209502285D01*
X301198095Y-209311809D01*
X301198095Y-208740380D01*
X301293333Y-208549904D01*
X301388571Y-208454666D01*
X301579047Y-208359428D01*
X301864761Y-208359428D01*
X302055238Y-208454666D01*
X302150476Y-208549904D01*
X302245714Y-208740380D01*
X302245714Y-209311809D01*
X302150476Y-209502285D01*
X302055238Y-209597523D01*
X301864761Y-209692761D01*
X301579047Y-209692761D01*
X303102857Y-209692761D02*
X303102857Y-208359428D01*
X303102857Y-208549904D02*
X303198095Y-208454666D01*
X303388571Y-208359428D01*
X303674285Y-208359428D01*
X303864761Y-208454666D01*
X303960000Y-208645142D01*
X303960000Y-209692761D01*
X303960000Y-208645142D02*
X304055238Y-208454666D01*
X304245714Y-208359428D01*
X304531428Y-208359428D01*
X304721904Y-208454666D01*
X304817142Y-208645142D01*
X304817142Y-209692761D01*
X307198095Y-207597523D02*
X305483809Y-210168952D01*
X308721904Y-209692761D02*
X308721904Y-207692761D01*
X308721904Y-209597523D02*
X308531428Y-209692761D01*
X308150476Y-209692761D01*
X307960000Y-209597523D01*
X307864761Y-209502285D01*
X307769523Y-209311809D01*
X307769523Y-208740380D01*
X307864761Y-208549904D01*
X307960000Y-208454666D01*
X308150476Y-208359428D01*
X308531428Y-208359428D01*
X308721904Y-208454666D01*
X309579047Y-209597523D02*
X309769523Y-209692761D01*
X310150476Y-209692761D01*
X310340952Y-209597523D01*
X310436190Y-209407047D01*
X310436190Y-209311809D01*
X310340952Y-209121333D01*
X310150476Y-209026095D01*
X309864761Y-209026095D01*
X309674285Y-208930857D01*
X309579047Y-208740380D01*
X309579047Y-208645142D01*
X309674285Y-208454666D01*
X309864761Y-208359428D01*
X310150476Y-208359428D01*
X310340952Y-208454666D01*
X312150476Y-209692761D02*
X312150476Y-208645142D01*
X312055238Y-208454666D01*
X311864761Y-208359428D01*
X311483809Y-208359428D01*
X311293333Y-208454666D01*
X312150476Y-209597523D02*
X311960000Y-209692761D01*
X311483809Y-209692761D01*
X311293333Y-209597523D01*
X311198095Y-209407047D01*
X311198095Y-209216571D01*
X311293333Y-209026095D01*
X311483809Y-208930857D01*
X311960000Y-208930857D01*
X312150476Y-208835619D01*
X313102857Y-208359428D02*
X313102857Y-209692761D01*
X313102857Y-208549904D02*
X313198095Y-208454666D01*
X313388571Y-208359428D01*
X313674285Y-208359428D01*
X313864761Y-208454666D01*
X313960000Y-208645142D01*
X313960000Y-209692761D01*
X315769523Y-209597523D02*
X315579047Y-209692761D01*
X315198095Y-209692761D01*
X315007619Y-209597523D01*
X314912380Y-209502285D01*
X314817142Y-209311809D01*
X314817142Y-208740380D01*
X314912380Y-208549904D01*
X315007619Y-208454666D01*
X315198095Y-208359428D01*
X315579047Y-208359428D01*
X315769523Y-208454666D01*
X316626666Y-209692761D02*
X316626666Y-207692761D01*
X317483809Y-209692761D02*
X317483809Y-208645142D01*
X317388571Y-208454666D01*
X317198095Y-208359428D01*
X316912380Y-208359428D01*
X316721904Y-208454666D01*
X316626666Y-208549904D01*
X319198095Y-209597523D02*
X319007619Y-209692761D01*
X318626666Y-209692761D01*
X318436190Y-209597523D01*
X318340952Y-209407047D01*
X318340952Y-208645142D01*
X318436190Y-208454666D01*
X318626666Y-208359428D01*
X319007619Y-208359428D01*
X319198095Y-208454666D01*
X319293333Y-208645142D01*
X319293333Y-208835619D01*
X318340952Y-209026095D01*
X319960000Y-208359428D02*
X321007619Y-208359428D01*
X319960000Y-209692761D01*
X321007619Y-209692761D01*
X321674285Y-209597523D02*
X321864761Y-209692761D01*
X322245714Y-209692761D01*
X322436190Y-209597523D01*
X322531428Y-209407047D01*
X322531428Y-209311809D01*
X322436190Y-209121333D01*
X322245714Y-209026095D01*
X321960000Y-209026095D01*
X321769523Y-208930857D01*
X321674285Y-208740380D01*
X321674285Y-208645142D01*
X321769523Y-208454666D01*
X321960000Y-208359428D01*
X322245714Y-208359428D01*
X322436190Y-208454666D01*
X324150476Y-209597523D02*
X323960000Y-209692761D01*
X323579047Y-209692761D01*
X323388571Y-209597523D01*
X323293333Y-209407047D01*
X323293333Y-208645142D01*
X323388571Y-208454666D01*
X323579047Y-208359428D01*
X323960000Y-208359428D01*
X324150476Y-208454666D01*
X324245714Y-208645142D01*
X324245714Y-208835619D01*
X323293333Y-209026095D01*
X325960000Y-209597523D02*
X325769523Y-209692761D01*
X325388571Y-209692761D01*
X325198095Y-209597523D01*
X325102857Y-209502285D01*
X325007619Y-209311809D01*
X325007619Y-208740380D01*
X325102857Y-208549904D01*
X325198095Y-208454666D01*
X325388571Y-208359428D01*
X325769523Y-208359428D01*
X325960000Y-208454666D01*
X327102857Y-209692761D02*
X326912380Y-209597523D01*
X326817142Y-209502285D01*
X326721904Y-209311809D01*
X326721904Y-208740380D01*
X326817142Y-208549904D01*
X326912380Y-208454666D01*
X327102857Y-208359428D01*
X327388571Y-208359428D01*
X327579047Y-208454666D01*
X327674285Y-208549904D01*
X327769523Y-208740380D01*
X327769523Y-209311809D01*
X327674285Y-209502285D01*
X327579047Y-209597523D01*
X327388571Y-209692761D01*
X327102857Y-209692761D01*
X330055238Y-207597523D02*
X328340952Y-210168952D01*
X330721904Y-208359428D02*
X330721904Y-210359428D01*
X330721904Y-208454666D02*
X330912380Y-208359428D01*
X331293333Y-208359428D01*
X331483809Y-208454666D01*
X331579047Y-208549904D01*
X331674285Y-208740380D01*
X331674285Y-209311809D01*
X331579047Y-209502285D01*
X331483809Y-209597523D01*
X331293333Y-209692761D01*
X330912380Y-209692761D01*
X330721904Y-209597523D01*
X333388571Y-208359428D02*
X333388571Y-209692761D01*
X332531428Y-208359428D02*
X332531428Y-209407047D01*
X332626666Y-209597523D01*
X332817142Y-209692761D01*
X333102857Y-209692761D01*
X333293333Y-209597523D01*
X333388571Y-209502285D01*
X334340952Y-208359428D02*
X334340952Y-209692761D01*
X334340952Y-208549904D02*
X334436190Y-208454666D01*
X334626666Y-208359428D01*
X334912380Y-208359428D01*
X335102857Y-208454666D01*
X335198095Y-208645142D01*
X335198095Y-209692761D01*
X336150476Y-209692761D02*
X336150476Y-207692761D01*
X336340952Y-208930857D02*
X336912380Y-209692761D01*
X336912380Y-208359428D02*
X336150476Y-209121333D01*
X337579047Y-207692761D02*
X338912380Y-207692761D01*
X338055238Y-209692761D01*
X340626666Y-207692761D02*
X339674285Y-207692761D01*
X339579047Y-208645142D01*
X339674285Y-208549904D01*
X339864761Y-208454666D01*
X340340952Y-208454666D01*
X340531428Y-208549904D01*
X340626666Y-208645142D01*
X340721904Y-208835619D01*
X340721904Y-209311809D01*
X340626666Y-209502285D01*
X340531428Y-209597523D01*
X340340952Y-209692761D01*
X339864761Y-209692761D01*
X339674285Y-209597523D01*
X339579047Y-209502285D01*
X306451190Y-195789880D02*
X306451190Y-194789880D01*
X306784523Y-195504166D01*
X307117857Y-194789880D01*
X307117857Y-195789880D01*
X307546428Y-194885119D02*
X307594047Y-194837500D01*
X307689285Y-194789880D01*
X307927380Y-194789880D01*
X308022619Y-194837500D01*
X308070238Y-194885119D01*
X308117857Y-194980357D01*
X308117857Y-195075595D01*
X308070238Y-195218452D01*
X307498809Y-195789880D01*
X308117857Y-195789880D01*
X308546428Y-195694642D02*
X308594047Y-195742261D01*
X308546428Y-195789880D01*
X308498809Y-195742261D01*
X308546428Y-195694642D01*
X308546428Y-195789880D01*
X309498809Y-194789880D02*
X309022619Y-194789880D01*
X308975000Y-195266071D01*
X309022619Y-195218452D01*
X309117857Y-195170833D01*
X309355952Y-195170833D01*
X309451190Y-195218452D01*
X309498809Y-195266071D01*
X309546428Y-195361309D01*
X309546428Y-195599404D01*
X309498809Y-195694642D01*
X309451190Y-195742261D01*
X309355952Y-195789880D01*
X309117857Y-195789880D01*
X309022619Y-195742261D01*
X308975000Y-195694642D01*
X135001190Y-195789880D02*
X135001190Y-194789880D01*
X135334523Y-195504166D01*
X135667857Y-194789880D01*
X135667857Y-195789880D01*
X136096428Y-194885119D02*
X136144047Y-194837500D01*
X136239285Y-194789880D01*
X136477380Y-194789880D01*
X136572619Y-194837500D01*
X136620238Y-194885119D01*
X136667857Y-194980357D01*
X136667857Y-195075595D01*
X136620238Y-195218452D01*
X136048809Y-195789880D01*
X136667857Y-195789880D01*
X137096428Y-195694642D02*
X137144047Y-195742261D01*
X137096428Y-195789880D01*
X137048809Y-195742261D01*
X137096428Y-195694642D01*
X137096428Y-195789880D01*
X138048809Y-194789880D02*
X137572619Y-194789880D01*
X137525000Y-195266071D01*
X137572619Y-195218452D01*
X137667857Y-195170833D01*
X137905952Y-195170833D01*
X138001190Y-195218452D01*
X138048809Y-195266071D01*
X138096428Y-195361309D01*
X138096428Y-195599404D01*
X138048809Y-195694642D01*
X138001190Y-195742261D01*
X137905952Y-195789880D01*
X137667857Y-195789880D01*
X137572619Y-195742261D01*
X137525000Y-195694642D01*
X359632440Y-134671130D02*
X359632440Y-133671130D01*
X359965773Y-134385416D01*
X360299107Y-133671130D01*
X360299107Y-134671130D01*
X360727678Y-133766369D02*
X360775297Y-133718750D01*
X360870535Y-133671130D01*
X361108630Y-133671130D01*
X361203869Y-133718750D01*
X361251488Y-133766369D01*
X361299107Y-133861607D01*
X361299107Y-133956845D01*
X361251488Y-134099702D01*
X360680059Y-134671130D01*
X361299107Y-134671130D01*
X361727678Y-134575892D02*
X361775297Y-134623511D01*
X361727678Y-134671130D01*
X361680059Y-134623511D01*
X361727678Y-134575892D01*
X361727678Y-134671130D01*
X362680059Y-133671130D02*
X362203869Y-133671130D01*
X362156250Y-134147321D01*
X362203869Y-134099702D01*
X362299107Y-134052083D01*
X362537202Y-134052083D01*
X362632440Y-134099702D01*
X362680059Y-134147321D01*
X362727678Y-134242559D01*
X362727678Y-134480654D01*
X362680059Y-134575892D01*
X362632440Y-134623511D01*
X362537202Y-134671130D01*
X362299107Y-134671130D01*
X362203869Y-134623511D01*
X362156250Y-134575892D01*
X359632440Y-114827380D02*
X359632440Y-113827380D01*
X359965773Y-114541666D01*
X360299107Y-113827380D01*
X360299107Y-114827380D01*
X360727678Y-113922619D02*
X360775297Y-113875000D01*
X360870535Y-113827380D01*
X361108630Y-113827380D01*
X361203869Y-113875000D01*
X361251488Y-113922619D01*
X361299107Y-114017857D01*
X361299107Y-114113095D01*
X361251488Y-114255952D01*
X360680059Y-114827380D01*
X361299107Y-114827380D01*
X361727678Y-114732142D02*
X361775297Y-114779761D01*
X361727678Y-114827380D01*
X361680059Y-114779761D01*
X361727678Y-114732142D01*
X361727678Y-114827380D01*
X362680059Y-113827380D02*
X362203869Y-113827380D01*
X362156250Y-114303571D01*
X362203869Y-114255952D01*
X362299107Y-114208333D01*
X362537202Y-114208333D01*
X362632440Y-114255952D01*
X362680059Y-114303571D01*
X362727678Y-114398809D01*
X362727678Y-114636904D01*
X362680059Y-114732142D01*
X362632440Y-114779761D01*
X362537202Y-114827380D01*
X362299107Y-114827380D01*
X362203869Y-114779761D01*
X362156250Y-114732142D01*
X81788190Y-134512380D02*
X81788190Y-133512380D01*
X82121523Y-134226666D01*
X82454857Y-133512380D01*
X82454857Y-134512380D01*
X82883428Y-133607619D02*
X82931047Y-133560000D01*
X83026285Y-133512380D01*
X83264380Y-133512380D01*
X83359619Y-133560000D01*
X83407238Y-133607619D01*
X83454857Y-133702857D01*
X83454857Y-133798095D01*
X83407238Y-133940952D01*
X82835809Y-134512380D01*
X83454857Y-134512380D01*
X83883428Y-134417142D02*
X83931047Y-134464761D01*
X83883428Y-134512380D01*
X83835809Y-134464761D01*
X83883428Y-134417142D01*
X83883428Y-134512380D01*
X84835809Y-133512380D02*
X84359619Y-133512380D01*
X84312000Y-133988571D01*
X84359619Y-133940952D01*
X84454857Y-133893333D01*
X84692952Y-133893333D01*
X84788190Y-133940952D01*
X84835809Y-133988571D01*
X84883428Y-134083809D01*
X84883428Y-134321904D01*
X84835809Y-134417142D01*
X84788190Y-134464761D01*
X84692952Y-134512380D01*
X84454857Y-134512380D01*
X84359619Y-134464761D01*
X84312000Y-134417142D01*
X81819940Y-114827380D02*
X81819940Y-113827380D01*
X82153273Y-114541666D01*
X82486607Y-113827380D01*
X82486607Y-114827380D01*
X82915178Y-113922619D02*
X82962797Y-113875000D01*
X83058035Y-113827380D01*
X83296130Y-113827380D01*
X83391369Y-113875000D01*
X83438988Y-113922619D01*
X83486607Y-114017857D01*
X83486607Y-114113095D01*
X83438988Y-114255952D01*
X82867559Y-114827380D01*
X83486607Y-114827380D01*
X83915178Y-114732142D02*
X83962797Y-114779761D01*
X83915178Y-114827380D01*
X83867559Y-114779761D01*
X83915178Y-114732142D01*
X83915178Y-114827380D01*
X84867559Y-113827380D02*
X84391369Y-113827380D01*
X84343750Y-114303571D01*
X84391369Y-114255952D01*
X84486607Y-114208333D01*
X84724702Y-114208333D01*
X84819940Y-114255952D01*
X84867559Y-114303571D01*
X84915178Y-114398809D01*
X84915178Y-114636904D01*
X84867559Y-114732142D01*
X84819940Y-114779761D01*
X84724702Y-114827380D01*
X84486607Y-114827380D01*
X84391369Y-114779761D01*
X84343750Y-114732142D01*
X230251190Y-157753380D02*
X230251190Y-156753380D01*
X230584523Y-157467666D01*
X230917857Y-156753380D01*
X230917857Y-157753380D01*
X231346428Y-156848619D02*
X231394047Y-156801000D01*
X231489285Y-156753380D01*
X231727380Y-156753380D01*
X231822619Y-156801000D01*
X231870238Y-156848619D01*
X231917857Y-156943857D01*
X231917857Y-157039095D01*
X231870238Y-157181952D01*
X231298809Y-157753380D01*
X231917857Y-157753380D01*
X232346428Y-157658142D02*
X232394047Y-157705761D01*
X232346428Y-157753380D01*
X232298809Y-157705761D01*
X232346428Y-157658142D01*
X232346428Y-157753380D01*
X233298809Y-156753380D02*
X232822619Y-156753380D01*
X232775000Y-157229571D01*
X232822619Y-157181952D01*
X232917857Y-157134333D01*
X233155952Y-157134333D01*
X233251190Y-157181952D01*
X233298809Y-157229571D01*
X233346428Y-157324809D01*
X233346428Y-157562904D01*
X233298809Y-157658142D01*
X233251190Y-157705761D01*
X233155952Y-157753380D01*
X232917857Y-157753380D01*
X232822619Y-157705761D01*
X232775000Y-157658142D01*
X325501190Y-157702380D02*
X325501190Y-156702380D01*
X325834523Y-157416666D01*
X326167857Y-156702380D01*
X326167857Y-157702380D01*
X326596428Y-156797619D02*
X326644047Y-156750000D01*
X326739285Y-156702380D01*
X326977380Y-156702380D01*
X327072619Y-156750000D01*
X327120238Y-156797619D01*
X327167857Y-156892857D01*
X327167857Y-156988095D01*
X327120238Y-157130952D01*
X326548809Y-157702380D01*
X327167857Y-157702380D01*
X327596428Y-157607142D02*
X327644047Y-157654761D01*
X327596428Y-157702380D01*
X327548809Y-157654761D01*
X327596428Y-157607142D01*
X327596428Y-157702380D01*
X328548809Y-156702380D02*
X328072619Y-156702380D01*
X328025000Y-157178571D01*
X328072619Y-157130952D01*
X328167857Y-157083333D01*
X328405952Y-157083333D01*
X328501190Y-157130952D01*
X328548809Y-157178571D01*
X328596428Y-157273809D01*
X328596428Y-157511904D01*
X328548809Y-157607142D01*
X328501190Y-157654761D01*
X328405952Y-157702380D01*
X328167857Y-157702380D01*
X328072619Y-157654761D01*
X328025000Y-157607142D01*
X344551190Y-214839880D02*
X344551190Y-213839880D01*
X344884523Y-214554166D01*
X345217857Y-213839880D01*
X345217857Y-214839880D01*
X345646428Y-213935119D02*
X345694047Y-213887500D01*
X345789285Y-213839880D01*
X346027380Y-213839880D01*
X346122619Y-213887500D01*
X346170238Y-213935119D01*
X346217857Y-214030357D01*
X346217857Y-214125595D01*
X346170238Y-214268452D01*
X345598809Y-214839880D01*
X346217857Y-214839880D01*
X346646428Y-214744642D02*
X346694047Y-214792261D01*
X346646428Y-214839880D01*
X346598809Y-214792261D01*
X346646428Y-214744642D01*
X346646428Y-214839880D01*
X347598809Y-213839880D02*
X347122619Y-213839880D01*
X347075000Y-214316071D01*
X347122619Y-214268452D01*
X347217857Y-214220833D01*
X347455952Y-214220833D01*
X347551190Y-214268452D01*
X347598809Y-214316071D01*
X347646428Y-214411309D01*
X347646428Y-214649404D01*
X347598809Y-214744642D01*
X347551190Y-214792261D01*
X347455952Y-214839880D01*
X347217857Y-214839880D01*
X347122619Y-214792261D01*
X347075000Y-214744642D01*
X211201190Y-214839880D02*
X211201190Y-213839880D01*
X211534523Y-214554166D01*
X211867857Y-213839880D01*
X211867857Y-214839880D01*
X212296428Y-213935119D02*
X212344047Y-213887500D01*
X212439285Y-213839880D01*
X212677380Y-213839880D01*
X212772619Y-213887500D01*
X212820238Y-213935119D01*
X212867857Y-214030357D01*
X212867857Y-214125595D01*
X212820238Y-214268452D01*
X212248809Y-214839880D01*
X212867857Y-214839880D01*
X213296428Y-214744642D02*
X213344047Y-214792261D01*
X213296428Y-214839880D01*
X213248809Y-214792261D01*
X213296428Y-214744642D01*
X213296428Y-214839880D01*
X214248809Y-213839880D02*
X213772619Y-213839880D01*
X213725000Y-214316071D01*
X213772619Y-214268452D01*
X213867857Y-214220833D01*
X214105952Y-214220833D01*
X214201190Y-214268452D01*
X214248809Y-214316071D01*
X214296428Y-214411309D01*
X214296428Y-214649404D01*
X214248809Y-214744642D01*
X214201190Y-214792261D01*
X214105952Y-214839880D01*
X213867857Y-214839880D01*
X213772619Y-214792261D01*
X213725000Y-214744642D01*
X96901190Y-214839880D02*
X96901190Y-213839880D01*
X97234523Y-214554166D01*
X97567857Y-213839880D01*
X97567857Y-214839880D01*
X97996428Y-213935119D02*
X98044047Y-213887500D01*
X98139285Y-213839880D01*
X98377380Y-213839880D01*
X98472619Y-213887500D01*
X98520238Y-213935119D01*
X98567857Y-214030357D01*
X98567857Y-214125595D01*
X98520238Y-214268452D01*
X97948809Y-214839880D01*
X98567857Y-214839880D01*
X98996428Y-214744642D02*
X99044047Y-214792261D01*
X98996428Y-214839880D01*
X98948809Y-214792261D01*
X98996428Y-214744642D01*
X98996428Y-214839880D01*
X99948809Y-213839880D02*
X99472619Y-213839880D01*
X99425000Y-214316071D01*
X99472619Y-214268452D01*
X99567857Y-214220833D01*
X99805952Y-214220833D01*
X99901190Y-214268452D01*
X99948809Y-214316071D01*
X99996428Y-214411309D01*
X99996428Y-214649404D01*
X99948809Y-214744642D01*
X99901190Y-214792261D01*
X99805952Y-214839880D01*
X99567857Y-214839880D01*
X99472619Y-214792261D01*
X99425000Y-214744642D01*
X115951190Y-157712380D02*
X115951190Y-156712380D01*
X116284523Y-157426666D01*
X116617857Y-156712380D01*
X116617857Y-157712380D01*
X117046428Y-156807619D02*
X117094047Y-156760000D01*
X117189285Y-156712380D01*
X117427380Y-156712380D01*
X117522619Y-156760000D01*
X117570238Y-156807619D01*
X117617857Y-156902857D01*
X117617857Y-156998095D01*
X117570238Y-157140952D01*
X116998809Y-157712380D01*
X117617857Y-157712380D01*
X118046428Y-157617142D02*
X118094047Y-157664761D01*
X118046428Y-157712380D01*
X117998809Y-157664761D01*
X118046428Y-157617142D01*
X118046428Y-157712380D01*
X118998809Y-156712380D02*
X118522619Y-156712380D01*
X118475000Y-157188571D01*
X118522619Y-157140952D01*
X118617857Y-157093333D01*
X118855952Y-157093333D01*
X118951190Y-157140952D01*
X118998809Y-157188571D01*
X119046428Y-157283809D01*
X119046428Y-157521904D01*
X118998809Y-157617142D01*
X118951190Y-157664761D01*
X118855952Y-157712380D01*
X118617857Y-157712380D01*
X118522619Y-157664761D01*
X118475000Y-157617142D01*
M02*
