G04 #@! TF.GenerationSoftware,KiCad,Pcbnew,(5.1.6)-1*
G04 #@! TF.CreationDate,2020-11-14T19:58:44+01:00*
G04 #@! TF.ProjectId,punk75_bottom_eotw,70756e6b-3735-45f6-926f-74746f6d5f65,rev?*
G04 #@! TF.SameCoordinates,Original*
G04 #@! TF.FileFunction,Copper,L2,Bot*
G04 #@! TF.FilePolarity,Positive*
%FSLAX46Y46*%
G04 Gerber Fmt 4.6, Leading zero omitted, Abs format (unit mm)*
G04 Created by KiCad (PCBNEW (5.1.6)-1) date 2020-11-14 19:58:44*
%MOMM*%
%LPD*%
G01*
G04 APERTURE LIST*
G04 #@! TA.AperFunction,ComponentPad*
%ADD10C,4.500000*%
G04 #@! TD*
G04 #@! TA.AperFunction,NonConductor*
%ADD11C,0.254000*%
G04 #@! TD*
G04 APERTURE END LIST*
D10*
X269875000Y-173100000D03*
X174625000Y-173025000D03*
X307975000Y-192087500D03*
X136525000Y-192087500D03*
X361156250Y-130968750D03*
X361156250Y-111125000D03*
X83312000Y-130810000D03*
X83343750Y-111125000D03*
X231775000Y-154051000D03*
X327025000Y-154000000D03*
X346075000Y-211137500D03*
X212725000Y-211137500D03*
X98425000Y-211137500D03*
X117475000Y-154010000D03*
D11*
G36*
X363077460Y-106264636D02*
G01*
X363398460Y-106361551D01*
X363694525Y-106518971D01*
X363954373Y-106730899D01*
X364168108Y-106989260D01*
X364327588Y-107284214D01*
X364426744Y-107604532D01*
X364465000Y-107968512D01*
X364465001Y-227773961D01*
X364429114Y-228139960D01*
X364332198Y-228460962D01*
X364174779Y-228757025D01*
X363962851Y-229016873D01*
X363704492Y-229230606D01*
X363409536Y-229390088D01*
X363089219Y-229489243D01*
X362725229Y-229527500D01*
X81788529Y-229527500D01*
X81422540Y-229491614D01*
X81101538Y-229394698D01*
X80805475Y-229237279D01*
X80545627Y-229025351D01*
X80331894Y-228766992D01*
X80172412Y-228472036D01*
X80073257Y-228151719D01*
X80035000Y-227787729D01*
X80035000Y-210853352D01*
X95540000Y-210853352D01*
X95540000Y-211421648D01*
X95650869Y-211979023D01*
X95868346Y-212504060D01*
X96184074Y-212976580D01*
X96585920Y-213378426D01*
X97058440Y-213694154D01*
X97583477Y-213911631D01*
X98140852Y-214022500D01*
X98709148Y-214022500D01*
X99266523Y-213911631D01*
X99791560Y-213694154D01*
X100264080Y-213378426D01*
X100665926Y-212976580D01*
X100981654Y-212504060D01*
X101199131Y-211979023D01*
X101310000Y-211421648D01*
X101310000Y-210853352D01*
X209840000Y-210853352D01*
X209840000Y-211421648D01*
X209950869Y-211979023D01*
X210168346Y-212504060D01*
X210484074Y-212976580D01*
X210885920Y-213378426D01*
X211358440Y-213694154D01*
X211883477Y-213911631D01*
X212440852Y-214022500D01*
X213009148Y-214022500D01*
X213566523Y-213911631D01*
X214091560Y-213694154D01*
X214564080Y-213378426D01*
X214965926Y-212976580D01*
X215281654Y-212504060D01*
X215499131Y-211979023D01*
X215610000Y-211421648D01*
X215610000Y-210853352D01*
X343190000Y-210853352D01*
X343190000Y-211421648D01*
X343300869Y-211979023D01*
X343518346Y-212504060D01*
X343834074Y-212976580D01*
X344235920Y-213378426D01*
X344708440Y-213694154D01*
X345233477Y-213911631D01*
X345790852Y-214022500D01*
X346359148Y-214022500D01*
X346916523Y-213911631D01*
X347441560Y-213694154D01*
X347914080Y-213378426D01*
X348315926Y-212976580D01*
X348631654Y-212504060D01*
X348849131Y-211979023D01*
X348960000Y-211421648D01*
X348960000Y-210853352D01*
X348849131Y-210295977D01*
X348631654Y-209770940D01*
X348315926Y-209298420D01*
X347914080Y-208896574D01*
X347441560Y-208580846D01*
X346916523Y-208363369D01*
X346359148Y-208252500D01*
X345790852Y-208252500D01*
X345233477Y-208363369D01*
X344708440Y-208580846D01*
X344235920Y-208896574D01*
X343834074Y-209298420D01*
X343518346Y-209770940D01*
X343300869Y-210295977D01*
X343190000Y-210853352D01*
X215610000Y-210853352D01*
X215499131Y-210295977D01*
X215281654Y-209770940D01*
X214965926Y-209298420D01*
X214564080Y-208896574D01*
X214091560Y-208580846D01*
X213566523Y-208363369D01*
X213009148Y-208252500D01*
X212440852Y-208252500D01*
X211883477Y-208363369D01*
X211358440Y-208580846D01*
X210885920Y-208896574D01*
X210484074Y-209298420D01*
X210168346Y-209770940D01*
X209950869Y-210295977D01*
X209840000Y-210853352D01*
X101310000Y-210853352D01*
X101199131Y-210295977D01*
X100981654Y-209770940D01*
X100665926Y-209298420D01*
X100264080Y-208896574D01*
X99791560Y-208580846D01*
X99266523Y-208363369D01*
X98709148Y-208252500D01*
X98140852Y-208252500D01*
X97583477Y-208363369D01*
X97058440Y-208580846D01*
X96585920Y-208896574D01*
X96184074Y-209298420D01*
X95868346Y-209770940D01*
X95650869Y-210295977D01*
X95540000Y-210853352D01*
X80035000Y-210853352D01*
X80035000Y-191803352D01*
X133640000Y-191803352D01*
X133640000Y-192371648D01*
X133750869Y-192929023D01*
X133968346Y-193454060D01*
X134284074Y-193926580D01*
X134685920Y-194328426D01*
X135158440Y-194644154D01*
X135683477Y-194861631D01*
X136240852Y-194972500D01*
X136809148Y-194972500D01*
X137366523Y-194861631D01*
X137891560Y-194644154D01*
X138364080Y-194328426D01*
X138765926Y-193926580D01*
X139081654Y-193454060D01*
X139299131Y-192929023D01*
X139410000Y-192371648D01*
X139410000Y-191803352D01*
X305090000Y-191803352D01*
X305090000Y-192371648D01*
X305200869Y-192929023D01*
X305418346Y-193454060D01*
X305734074Y-193926580D01*
X306135920Y-194328426D01*
X306608440Y-194644154D01*
X307133477Y-194861631D01*
X307690852Y-194972500D01*
X308259148Y-194972500D01*
X308816523Y-194861631D01*
X309341560Y-194644154D01*
X309814080Y-194328426D01*
X310215926Y-193926580D01*
X310531654Y-193454060D01*
X310749131Y-192929023D01*
X310860000Y-192371648D01*
X310860000Y-191803352D01*
X310749131Y-191245977D01*
X310531654Y-190720940D01*
X310215926Y-190248420D01*
X309814080Y-189846574D01*
X309341560Y-189530846D01*
X308816523Y-189313369D01*
X308259148Y-189202500D01*
X307690852Y-189202500D01*
X307133477Y-189313369D01*
X306608440Y-189530846D01*
X306135920Y-189846574D01*
X305734074Y-190248420D01*
X305418346Y-190720940D01*
X305200869Y-191245977D01*
X305090000Y-191803352D01*
X139410000Y-191803352D01*
X139299131Y-191245977D01*
X139081654Y-190720940D01*
X138765926Y-190248420D01*
X138364080Y-189846574D01*
X137891560Y-189530846D01*
X137366523Y-189313369D01*
X136809148Y-189202500D01*
X136240852Y-189202500D01*
X135683477Y-189313369D01*
X135158440Y-189530846D01*
X134685920Y-189846574D01*
X134284074Y-190248420D01*
X133968346Y-190720940D01*
X133750869Y-191245977D01*
X133640000Y-191803352D01*
X80035000Y-191803352D01*
X80035000Y-172740852D01*
X171740000Y-172740852D01*
X171740000Y-173309148D01*
X171850869Y-173866523D01*
X172068346Y-174391560D01*
X172384074Y-174864080D01*
X172785920Y-175265926D01*
X173258440Y-175581654D01*
X173783477Y-175799131D01*
X174340852Y-175910000D01*
X174909148Y-175910000D01*
X175466523Y-175799131D01*
X175991560Y-175581654D01*
X176464080Y-175265926D01*
X176865926Y-174864080D01*
X177181654Y-174391560D01*
X177399131Y-173866523D01*
X177510000Y-173309148D01*
X177510000Y-172815852D01*
X266990000Y-172815852D01*
X266990000Y-173384148D01*
X267100869Y-173941523D01*
X267318346Y-174466560D01*
X267634074Y-174939080D01*
X268035920Y-175340926D01*
X268508440Y-175656654D01*
X269033477Y-175874131D01*
X269590852Y-175985000D01*
X270159148Y-175985000D01*
X270716523Y-175874131D01*
X271241560Y-175656654D01*
X271714080Y-175340926D01*
X272115926Y-174939080D01*
X272431654Y-174466560D01*
X272649131Y-173941523D01*
X272760000Y-173384148D01*
X272760000Y-172815852D01*
X272649131Y-172258477D01*
X272431654Y-171733440D01*
X272115926Y-171260920D01*
X271714080Y-170859074D01*
X271241560Y-170543346D01*
X270716523Y-170325869D01*
X270159148Y-170215000D01*
X269590852Y-170215000D01*
X269033477Y-170325869D01*
X268508440Y-170543346D01*
X268035920Y-170859074D01*
X267634074Y-171260920D01*
X267318346Y-171733440D01*
X267100869Y-172258477D01*
X266990000Y-172815852D01*
X177510000Y-172815852D01*
X177510000Y-172740852D01*
X177399131Y-172183477D01*
X177181654Y-171658440D01*
X176865926Y-171185920D01*
X176464080Y-170784074D01*
X175991560Y-170468346D01*
X175466523Y-170250869D01*
X174909148Y-170140000D01*
X174340852Y-170140000D01*
X173783477Y-170250869D01*
X173258440Y-170468346D01*
X172785920Y-170784074D01*
X172384074Y-171185920D01*
X172068346Y-171658440D01*
X171850869Y-172183477D01*
X171740000Y-172740852D01*
X80035000Y-172740852D01*
X80035000Y-153725852D01*
X114590000Y-153725852D01*
X114590000Y-154294148D01*
X114700869Y-154851523D01*
X114918346Y-155376560D01*
X115234074Y-155849080D01*
X115635920Y-156250926D01*
X116108440Y-156566654D01*
X116633477Y-156784131D01*
X117190852Y-156895000D01*
X117759148Y-156895000D01*
X118316523Y-156784131D01*
X118841560Y-156566654D01*
X119314080Y-156250926D01*
X119715926Y-155849080D01*
X120031654Y-155376560D01*
X120249131Y-154851523D01*
X120360000Y-154294148D01*
X120360000Y-153766852D01*
X228890000Y-153766852D01*
X228890000Y-154335148D01*
X229000869Y-154892523D01*
X229218346Y-155417560D01*
X229534074Y-155890080D01*
X229935920Y-156291926D01*
X230408440Y-156607654D01*
X230933477Y-156825131D01*
X231490852Y-156936000D01*
X232059148Y-156936000D01*
X232616523Y-156825131D01*
X233141560Y-156607654D01*
X233614080Y-156291926D01*
X234015926Y-155890080D01*
X234331654Y-155417560D01*
X234549131Y-154892523D01*
X234660000Y-154335148D01*
X234660000Y-153766852D01*
X234649856Y-153715852D01*
X324140000Y-153715852D01*
X324140000Y-154284148D01*
X324250869Y-154841523D01*
X324468346Y-155366560D01*
X324784074Y-155839080D01*
X325185920Y-156240926D01*
X325658440Y-156556654D01*
X326183477Y-156774131D01*
X326740852Y-156885000D01*
X327309148Y-156885000D01*
X327866523Y-156774131D01*
X328391560Y-156556654D01*
X328864080Y-156240926D01*
X329265926Y-155839080D01*
X329581654Y-155366560D01*
X329799131Y-154841523D01*
X329910000Y-154284148D01*
X329910000Y-153715852D01*
X329799131Y-153158477D01*
X329581654Y-152633440D01*
X329265926Y-152160920D01*
X328864080Y-151759074D01*
X328391560Y-151443346D01*
X327866523Y-151225869D01*
X327309148Y-151115000D01*
X326740852Y-151115000D01*
X326183477Y-151225869D01*
X325658440Y-151443346D01*
X325185920Y-151759074D01*
X324784074Y-152160920D01*
X324468346Y-152633440D01*
X324250869Y-153158477D01*
X324140000Y-153715852D01*
X234649856Y-153715852D01*
X234549131Y-153209477D01*
X234331654Y-152684440D01*
X234015926Y-152211920D01*
X233614080Y-151810074D01*
X233141560Y-151494346D01*
X232616523Y-151276869D01*
X232059148Y-151166000D01*
X231490852Y-151166000D01*
X230933477Y-151276869D01*
X230408440Y-151494346D01*
X229935920Y-151810074D01*
X229534074Y-152211920D01*
X229218346Y-152684440D01*
X229000869Y-153209477D01*
X228890000Y-153766852D01*
X120360000Y-153766852D01*
X120360000Y-153725852D01*
X120249131Y-153168477D01*
X120031654Y-152643440D01*
X119715926Y-152170920D01*
X119314080Y-151769074D01*
X118841560Y-151453346D01*
X118316523Y-151235869D01*
X117759148Y-151125000D01*
X117190852Y-151125000D01*
X116633477Y-151235869D01*
X116108440Y-151453346D01*
X115635920Y-151769074D01*
X115234074Y-152170920D01*
X114918346Y-152643440D01*
X114700869Y-153168477D01*
X114590000Y-153725852D01*
X80035000Y-153725852D01*
X80035000Y-130525852D01*
X80427000Y-130525852D01*
X80427000Y-131094148D01*
X80537869Y-131651523D01*
X80755346Y-132176560D01*
X81071074Y-132649080D01*
X81472920Y-133050926D01*
X81945440Y-133366654D01*
X82470477Y-133584131D01*
X83027852Y-133695000D01*
X83596148Y-133695000D01*
X84153523Y-133584131D01*
X84678560Y-133366654D01*
X85151080Y-133050926D01*
X85552926Y-132649080D01*
X85868654Y-132176560D01*
X86086131Y-131651523D01*
X86197000Y-131094148D01*
X86197000Y-130684602D01*
X358271250Y-130684602D01*
X358271250Y-131252898D01*
X358382119Y-131810273D01*
X358599596Y-132335310D01*
X358915324Y-132807830D01*
X359317170Y-133209676D01*
X359789690Y-133525404D01*
X360314727Y-133742881D01*
X360872102Y-133853750D01*
X361440398Y-133853750D01*
X361997773Y-133742881D01*
X362522810Y-133525404D01*
X362995330Y-133209676D01*
X363397176Y-132807830D01*
X363712904Y-132335310D01*
X363930381Y-131810273D01*
X364041250Y-131252898D01*
X364041250Y-130684602D01*
X363930381Y-130127227D01*
X363712904Y-129602190D01*
X363397176Y-129129670D01*
X362995330Y-128727824D01*
X362522810Y-128412096D01*
X361997773Y-128194619D01*
X361440398Y-128083750D01*
X360872102Y-128083750D01*
X360314727Y-128194619D01*
X359789690Y-128412096D01*
X359317170Y-128727824D01*
X358915324Y-129129670D01*
X358599596Y-129602190D01*
X358382119Y-130127227D01*
X358271250Y-130684602D01*
X86197000Y-130684602D01*
X86197000Y-130525852D01*
X86086131Y-129968477D01*
X85868654Y-129443440D01*
X85552926Y-128970920D01*
X85151080Y-128569074D01*
X84678560Y-128253346D01*
X84153523Y-128035869D01*
X83596148Y-127925000D01*
X83027852Y-127925000D01*
X82470477Y-128035869D01*
X81945440Y-128253346D01*
X81472920Y-128569074D01*
X81071074Y-128970920D01*
X80755346Y-129443440D01*
X80537869Y-129968477D01*
X80427000Y-130525852D01*
X80035000Y-130525852D01*
X80035000Y-110840852D01*
X80458750Y-110840852D01*
X80458750Y-111409148D01*
X80569619Y-111966523D01*
X80787096Y-112491560D01*
X81102824Y-112964080D01*
X81504670Y-113365926D01*
X81977190Y-113681654D01*
X82502227Y-113899131D01*
X83059602Y-114010000D01*
X83627898Y-114010000D01*
X84185273Y-113899131D01*
X84710310Y-113681654D01*
X85182830Y-113365926D01*
X85584676Y-112964080D01*
X85900404Y-112491560D01*
X86117881Y-111966523D01*
X86228750Y-111409148D01*
X86228750Y-110840852D01*
X358271250Y-110840852D01*
X358271250Y-111409148D01*
X358382119Y-111966523D01*
X358599596Y-112491560D01*
X358915324Y-112964080D01*
X359317170Y-113365926D01*
X359789690Y-113681654D01*
X360314727Y-113899131D01*
X360872102Y-114010000D01*
X361440398Y-114010000D01*
X361997773Y-113899131D01*
X362522810Y-113681654D01*
X362995330Y-113365926D01*
X363397176Y-112964080D01*
X363712904Y-112491560D01*
X363930381Y-111966523D01*
X364041250Y-111409148D01*
X364041250Y-110840852D01*
X363930381Y-110283477D01*
X363712904Y-109758440D01*
X363397176Y-109285920D01*
X362995330Y-108884074D01*
X362522810Y-108568346D01*
X361997773Y-108350869D01*
X361440398Y-108240000D01*
X360872102Y-108240000D01*
X360314727Y-108350869D01*
X359789690Y-108568346D01*
X359317170Y-108884074D01*
X358915324Y-109285920D01*
X358599596Y-109758440D01*
X358382119Y-110283477D01*
X358271250Y-110840852D01*
X86228750Y-110840852D01*
X86117881Y-110283477D01*
X85900404Y-109758440D01*
X85584676Y-109285920D01*
X85182830Y-108884074D01*
X84710310Y-108568346D01*
X84185273Y-108350869D01*
X83627898Y-108240000D01*
X83059602Y-108240000D01*
X82502227Y-108350869D01*
X81977190Y-108568346D01*
X81504670Y-108884074D01*
X81102824Y-109285920D01*
X80787096Y-109758440D01*
X80569619Y-110283477D01*
X80458750Y-110840852D01*
X80035000Y-110840852D01*
X80035000Y-107982279D01*
X80070886Y-107616290D01*
X80167801Y-107295290D01*
X80325221Y-106999225D01*
X80537149Y-106739377D01*
X80795510Y-106525642D01*
X81090464Y-106366162D01*
X81410782Y-106267006D01*
X81774762Y-106228750D01*
X362711471Y-106228750D01*
X363077460Y-106264636D01*
G37*
X363077460Y-106264636D02*
X363398460Y-106361551D01*
X363694525Y-106518971D01*
X363954373Y-106730899D01*
X364168108Y-106989260D01*
X364327588Y-107284214D01*
X364426744Y-107604532D01*
X364465000Y-107968512D01*
X364465001Y-227773961D01*
X364429114Y-228139960D01*
X364332198Y-228460962D01*
X364174779Y-228757025D01*
X363962851Y-229016873D01*
X363704492Y-229230606D01*
X363409536Y-229390088D01*
X363089219Y-229489243D01*
X362725229Y-229527500D01*
X81788529Y-229527500D01*
X81422540Y-229491614D01*
X81101538Y-229394698D01*
X80805475Y-229237279D01*
X80545627Y-229025351D01*
X80331894Y-228766992D01*
X80172412Y-228472036D01*
X80073257Y-228151719D01*
X80035000Y-227787729D01*
X80035000Y-210853352D01*
X95540000Y-210853352D01*
X95540000Y-211421648D01*
X95650869Y-211979023D01*
X95868346Y-212504060D01*
X96184074Y-212976580D01*
X96585920Y-213378426D01*
X97058440Y-213694154D01*
X97583477Y-213911631D01*
X98140852Y-214022500D01*
X98709148Y-214022500D01*
X99266523Y-213911631D01*
X99791560Y-213694154D01*
X100264080Y-213378426D01*
X100665926Y-212976580D01*
X100981654Y-212504060D01*
X101199131Y-211979023D01*
X101310000Y-211421648D01*
X101310000Y-210853352D01*
X209840000Y-210853352D01*
X209840000Y-211421648D01*
X209950869Y-211979023D01*
X210168346Y-212504060D01*
X210484074Y-212976580D01*
X210885920Y-213378426D01*
X211358440Y-213694154D01*
X211883477Y-213911631D01*
X212440852Y-214022500D01*
X213009148Y-214022500D01*
X213566523Y-213911631D01*
X214091560Y-213694154D01*
X214564080Y-213378426D01*
X214965926Y-212976580D01*
X215281654Y-212504060D01*
X215499131Y-211979023D01*
X215610000Y-211421648D01*
X215610000Y-210853352D01*
X343190000Y-210853352D01*
X343190000Y-211421648D01*
X343300869Y-211979023D01*
X343518346Y-212504060D01*
X343834074Y-212976580D01*
X344235920Y-213378426D01*
X344708440Y-213694154D01*
X345233477Y-213911631D01*
X345790852Y-214022500D01*
X346359148Y-214022500D01*
X346916523Y-213911631D01*
X347441560Y-213694154D01*
X347914080Y-213378426D01*
X348315926Y-212976580D01*
X348631654Y-212504060D01*
X348849131Y-211979023D01*
X348960000Y-211421648D01*
X348960000Y-210853352D01*
X348849131Y-210295977D01*
X348631654Y-209770940D01*
X348315926Y-209298420D01*
X347914080Y-208896574D01*
X347441560Y-208580846D01*
X346916523Y-208363369D01*
X346359148Y-208252500D01*
X345790852Y-208252500D01*
X345233477Y-208363369D01*
X344708440Y-208580846D01*
X344235920Y-208896574D01*
X343834074Y-209298420D01*
X343518346Y-209770940D01*
X343300869Y-210295977D01*
X343190000Y-210853352D01*
X215610000Y-210853352D01*
X215499131Y-210295977D01*
X215281654Y-209770940D01*
X214965926Y-209298420D01*
X214564080Y-208896574D01*
X214091560Y-208580846D01*
X213566523Y-208363369D01*
X213009148Y-208252500D01*
X212440852Y-208252500D01*
X211883477Y-208363369D01*
X211358440Y-208580846D01*
X210885920Y-208896574D01*
X210484074Y-209298420D01*
X210168346Y-209770940D01*
X209950869Y-210295977D01*
X209840000Y-210853352D01*
X101310000Y-210853352D01*
X101199131Y-210295977D01*
X100981654Y-209770940D01*
X100665926Y-209298420D01*
X100264080Y-208896574D01*
X99791560Y-208580846D01*
X99266523Y-208363369D01*
X98709148Y-208252500D01*
X98140852Y-208252500D01*
X97583477Y-208363369D01*
X97058440Y-208580846D01*
X96585920Y-208896574D01*
X96184074Y-209298420D01*
X95868346Y-209770940D01*
X95650869Y-210295977D01*
X95540000Y-210853352D01*
X80035000Y-210853352D01*
X80035000Y-191803352D01*
X133640000Y-191803352D01*
X133640000Y-192371648D01*
X133750869Y-192929023D01*
X133968346Y-193454060D01*
X134284074Y-193926580D01*
X134685920Y-194328426D01*
X135158440Y-194644154D01*
X135683477Y-194861631D01*
X136240852Y-194972500D01*
X136809148Y-194972500D01*
X137366523Y-194861631D01*
X137891560Y-194644154D01*
X138364080Y-194328426D01*
X138765926Y-193926580D01*
X139081654Y-193454060D01*
X139299131Y-192929023D01*
X139410000Y-192371648D01*
X139410000Y-191803352D01*
X305090000Y-191803352D01*
X305090000Y-192371648D01*
X305200869Y-192929023D01*
X305418346Y-193454060D01*
X305734074Y-193926580D01*
X306135920Y-194328426D01*
X306608440Y-194644154D01*
X307133477Y-194861631D01*
X307690852Y-194972500D01*
X308259148Y-194972500D01*
X308816523Y-194861631D01*
X309341560Y-194644154D01*
X309814080Y-194328426D01*
X310215926Y-193926580D01*
X310531654Y-193454060D01*
X310749131Y-192929023D01*
X310860000Y-192371648D01*
X310860000Y-191803352D01*
X310749131Y-191245977D01*
X310531654Y-190720940D01*
X310215926Y-190248420D01*
X309814080Y-189846574D01*
X309341560Y-189530846D01*
X308816523Y-189313369D01*
X308259148Y-189202500D01*
X307690852Y-189202500D01*
X307133477Y-189313369D01*
X306608440Y-189530846D01*
X306135920Y-189846574D01*
X305734074Y-190248420D01*
X305418346Y-190720940D01*
X305200869Y-191245977D01*
X305090000Y-191803352D01*
X139410000Y-191803352D01*
X139299131Y-191245977D01*
X139081654Y-190720940D01*
X138765926Y-190248420D01*
X138364080Y-189846574D01*
X137891560Y-189530846D01*
X137366523Y-189313369D01*
X136809148Y-189202500D01*
X136240852Y-189202500D01*
X135683477Y-189313369D01*
X135158440Y-189530846D01*
X134685920Y-189846574D01*
X134284074Y-190248420D01*
X133968346Y-190720940D01*
X133750869Y-191245977D01*
X133640000Y-191803352D01*
X80035000Y-191803352D01*
X80035000Y-172740852D01*
X171740000Y-172740852D01*
X171740000Y-173309148D01*
X171850869Y-173866523D01*
X172068346Y-174391560D01*
X172384074Y-174864080D01*
X172785920Y-175265926D01*
X173258440Y-175581654D01*
X173783477Y-175799131D01*
X174340852Y-175910000D01*
X174909148Y-175910000D01*
X175466523Y-175799131D01*
X175991560Y-175581654D01*
X176464080Y-175265926D01*
X176865926Y-174864080D01*
X177181654Y-174391560D01*
X177399131Y-173866523D01*
X177510000Y-173309148D01*
X177510000Y-172815852D01*
X266990000Y-172815852D01*
X266990000Y-173384148D01*
X267100869Y-173941523D01*
X267318346Y-174466560D01*
X267634074Y-174939080D01*
X268035920Y-175340926D01*
X268508440Y-175656654D01*
X269033477Y-175874131D01*
X269590852Y-175985000D01*
X270159148Y-175985000D01*
X270716523Y-175874131D01*
X271241560Y-175656654D01*
X271714080Y-175340926D01*
X272115926Y-174939080D01*
X272431654Y-174466560D01*
X272649131Y-173941523D01*
X272760000Y-173384148D01*
X272760000Y-172815852D01*
X272649131Y-172258477D01*
X272431654Y-171733440D01*
X272115926Y-171260920D01*
X271714080Y-170859074D01*
X271241560Y-170543346D01*
X270716523Y-170325869D01*
X270159148Y-170215000D01*
X269590852Y-170215000D01*
X269033477Y-170325869D01*
X268508440Y-170543346D01*
X268035920Y-170859074D01*
X267634074Y-171260920D01*
X267318346Y-171733440D01*
X267100869Y-172258477D01*
X266990000Y-172815852D01*
X177510000Y-172815852D01*
X177510000Y-172740852D01*
X177399131Y-172183477D01*
X177181654Y-171658440D01*
X176865926Y-171185920D01*
X176464080Y-170784074D01*
X175991560Y-170468346D01*
X175466523Y-170250869D01*
X174909148Y-170140000D01*
X174340852Y-170140000D01*
X173783477Y-170250869D01*
X173258440Y-170468346D01*
X172785920Y-170784074D01*
X172384074Y-171185920D01*
X172068346Y-171658440D01*
X171850869Y-172183477D01*
X171740000Y-172740852D01*
X80035000Y-172740852D01*
X80035000Y-153725852D01*
X114590000Y-153725852D01*
X114590000Y-154294148D01*
X114700869Y-154851523D01*
X114918346Y-155376560D01*
X115234074Y-155849080D01*
X115635920Y-156250926D01*
X116108440Y-156566654D01*
X116633477Y-156784131D01*
X117190852Y-156895000D01*
X117759148Y-156895000D01*
X118316523Y-156784131D01*
X118841560Y-156566654D01*
X119314080Y-156250926D01*
X119715926Y-155849080D01*
X120031654Y-155376560D01*
X120249131Y-154851523D01*
X120360000Y-154294148D01*
X120360000Y-153766852D01*
X228890000Y-153766852D01*
X228890000Y-154335148D01*
X229000869Y-154892523D01*
X229218346Y-155417560D01*
X229534074Y-155890080D01*
X229935920Y-156291926D01*
X230408440Y-156607654D01*
X230933477Y-156825131D01*
X231490852Y-156936000D01*
X232059148Y-156936000D01*
X232616523Y-156825131D01*
X233141560Y-156607654D01*
X233614080Y-156291926D01*
X234015926Y-155890080D01*
X234331654Y-155417560D01*
X234549131Y-154892523D01*
X234660000Y-154335148D01*
X234660000Y-153766852D01*
X234649856Y-153715852D01*
X324140000Y-153715852D01*
X324140000Y-154284148D01*
X324250869Y-154841523D01*
X324468346Y-155366560D01*
X324784074Y-155839080D01*
X325185920Y-156240926D01*
X325658440Y-156556654D01*
X326183477Y-156774131D01*
X326740852Y-156885000D01*
X327309148Y-156885000D01*
X327866523Y-156774131D01*
X328391560Y-156556654D01*
X328864080Y-156240926D01*
X329265926Y-155839080D01*
X329581654Y-155366560D01*
X329799131Y-154841523D01*
X329910000Y-154284148D01*
X329910000Y-153715852D01*
X329799131Y-153158477D01*
X329581654Y-152633440D01*
X329265926Y-152160920D01*
X328864080Y-151759074D01*
X328391560Y-151443346D01*
X327866523Y-151225869D01*
X327309148Y-151115000D01*
X326740852Y-151115000D01*
X326183477Y-151225869D01*
X325658440Y-151443346D01*
X325185920Y-151759074D01*
X324784074Y-152160920D01*
X324468346Y-152633440D01*
X324250869Y-153158477D01*
X324140000Y-153715852D01*
X234649856Y-153715852D01*
X234549131Y-153209477D01*
X234331654Y-152684440D01*
X234015926Y-152211920D01*
X233614080Y-151810074D01*
X233141560Y-151494346D01*
X232616523Y-151276869D01*
X232059148Y-151166000D01*
X231490852Y-151166000D01*
X230933477Y-151276869D01*
X230408440Y-151494346D01*
X229935920Y-151810074D01*
X229534074Y-152211920D01*
X229218346Y-152684440D01*
X229000869Y-153209477D01*
X228890000Y-153766852D01*
X120360000Y-153766852D01*
X120360000Y-153725852D01*
X120249131Y-153168477D01*
X120031654Y-152643440D01*
X119715926Y-152170920D01*
X119314080Y-151769074D01*
X118841560Y-151453346D01*
X118316523Y-151235869D01*
X117759148Y-151125000D01*
X117190852Y-151125000D01*
X116633477Y-151235869D01*
X116108440Y-151453346D01*
X115635920Y-151769074D01*
X115234074Y-152170920D01*
X114918346Y-152643440D01*
X114700869Y-153168477D01*
X114590000Y-153725852D01*
X80035000Y-153725852D01*
X80035000Y-130525852D01*
X80427000Y-130525852D01*
X80427000Y-131094148D01*
X80537869Y-131651523D01*
X80755346Y-132176560D01*
X81071074Y-132649080D01*
X81472920Y-133050926D01*
X81945440Y-133366654D01*
X82470477Y-133584131D01*
X83027852Y-133695000D01*
X83596148Y-133695000D01*
X84153523Y-133584131D01*
X84678560Y-133366654D01*
X85151080Y-133050926D01*
X85552926Y-132649080D01*
X85868654Y-132176560D01*
X86086131Y-131651523D01*
X86197000Y-131094148D01*
X86197000Y-130684602D01*
X358271250Y-130684602D01*
X358271250Y-131252898D01*
X358382119Y-131810273D01*
X358599596Y-132335310D01*
X358915324Y-132807830D01*
X359317170Y-133209676D01*
X359789690Y-133525404D01*
X360314727Y-133742881D01*
X360872102Y-133853750D01*
X361440398Y-133853750D01*
X361997773Y-133742881D01*
X362522810Y-133525404D01*
X362995330Y-133209676D01*
X363397176Y-132807830D01*
X363712904Y-132335310D01*
X363930381Y-131810273D01*
X364041250Y-131252898D01*
X364041250Y-130684602D01*
X363930381Y-130127227D01*
X363712904Y-129602190D01*
X363397176Y-129129670D01*
X362995330Y-128727824D01*
X362522810Y-128412096D01*
X361997773Y-128194619D01*
X361440398Y-128083750D01*
X360872102Y-128083750D01*
X360314727Y-128194619D01*
X359789690Y-128412096D01*
X359317170Y-128727824D01*
X358915324Y-129129670D01*
X358599596Y-129602190D01*
X358382119Y-130127227D01*
X358271250Y-130684602D01*
X86197000Y-130684602D01*
X86197000Y-130525852D01*
X86086131Y-129968477D01*
X85868654Y-129443440D01*
X85552926Y-128970920D01*
X85151080Y-128569074D01*
X84678560Y-128253346D01*
X84153523Y-128035869D01*
X83596148Y-127925000D01*
X83027852Y-127925000D01*
X82470477Y-128035869D01*
X81945440Y-128253346D01*
X81472920Y-128569074D01*
X81071074Y-128970920D01*
X80755346Y-129443440D01*
X80537869Y-129968477D01*
X80427000Y-130525852D01*
X80035000Y-130525852D01*
X80035000Y-110840852D01*
X80458750Y-110840852D01*
X80458750Y-111409148D01*
X80569619Y-111966523D01*
X80787096Y-112491560D01*
X81102824Y-112964080D01*
X81504670Y-113365926D01*
X81977190Y-113681654D01*
X82502227Y-113899131D01*
X83059602Y-114010000D01*
X83627898Y-114010000D01*
X84185273Y-113899131D01*
X84710310Y-113681654D01*
X85182830Y-113365926D01*
X85584676Y-112964080D01*
X85900404Y-112491560D01*
X86117881Y-111966523D01*
X86228750Y-111409148D01*
X86228750Y-110840852D01*
X358271250Y-110840852D01*
X358271250Y-111409148D01*
X358382119Y-111966523D01*
X358599596Y-112491560D01*
X358915324Y-112964080D01*
X359317170Y-113365926D01*
X359789690Y-113681654D01*
X360314727Y-113899131D01*
X360872102Y-114010000D01*
X361440398Y-114010000D01*
X361997773Y-113899131D01*
X362522810Y-113681654D01*
X362995330Y-113365926D01*
X363397176Y-112964080D01*
X363712904Y-112491560D01*
X363930381Y-111966523D01*
X364041250Y-111409148D01*
X364041250Y-110840852D01*
X363930381Y-110283477D01*
X363712904Y-109758440D01*
X363397176Y-109285920D01*
X362995330Y-108884074D01*
X362522810Y-108568346D01*
X361997773Y-108350869D01*
X361440398Y-108240000D01*
X360872102Y-108240000D01*
X360314727Y-108350869D01*
X359789690Y-108568346D01*
X359317170Y-108884074D01*
X358915324Y-109285920D01*
X358599596Y-109758440D01*
X358382119Y-110283477D01*
X358271250Y-110840852D01*
X86228750Y-110840852D01*
X86117881Y-110283477D01*
X85900404Y-109758440D01*
X85584676Y-109285920D01*
X85182830Y-108884074D01*
X84710310Y-108568346D01*
X84185273Y-108350869D01*
X83627898Y-108240000D01*
X83059602Y-108240000D01*
X82502227Y-108350869D01*
X81977190Y-108568346D01*
X81504670Y-108884074D01*
X81102824Y-109285920D01*
X80787096Y-109758440D01*
X80569619Y-110283477D01*
X80458750Y-110840852D01*
X80035000Y-110840852D01*
X80035000Y-107982279D01*
X80070886Y-107616290D01*
X80167801Y-107295290D01*
X80325221Y-106999225D01*
X80537149Y-106739377D01*
X80795510Y-106525642D01*
X81090464Y-106366162D01*
X81410782Y-106267006D01*
X81774762Y-106228750D01*
X362711471Y-106228750D01*
X363077460Y-106264636D01*
M02*
