G04 #@! TF.GenerationSoftware,KiCad,Pcbnew,5.1.6*
G04 #@! TF.CreationDate,2020-06-17T15:22:12+02:00*
G04 #@! TF.ProjectId,punk75,70756e6b-3735-42e6-9b69-6361645f7063,rev?*
G04 #@! TF.SameCoordinates,Original*
G04 #@! TF.FileFunction,Legend,Bot*
G04 #@! TF.FilePolarity,Positive*
%FSLAX46Y46*%
G04 Gerber Fmt 4.6, Leading zero omitted, Abs format (unit mm)*
G04 Created by KiCad (PCBNEW 5.1.6) date 2020-06-17 15:22:12*
%MOMM*%
%LPD*%
G01*
G04 APERTURE LIST*
%ADD10C,0.150000*%
%ADD11C,1.000000*%
%ADD12C,0.300000*%
G04 APERTURE END LIST*
D10*
X103044047Y-225385380D02*
X103044047Y-226099666D01*
X103091666Y-226242523D01*
X103186904Y-226337761D01*
X103329761Y-226385380D01*
X103425000Y-226385380D01*
X102091666Y-226385380D02*
X102567857Y-226385380D01*
X102567857Y-225385380D01*
X101186904Y-226290142D02*
X101234523Y-226337761D01*
X101377380Y-226385380D01*
X101472619Y-226385380D01*
X101615476Y-226337761D01*
X101710714Y-226242523D01*
X101758333Y-226147285D01*
X101805952Y-225956809D01*
X101805952Y-225813952D01*
X101758333Y-225623476D01*
X101710714Y-225528238D01*
X101615476Y-225433000D01*
X101472619Y-225385380D01*
X101377380Y-225385380D01*
X101234523Y-225433000D01*
X101186904Y-225480619D01*
X100472619Y-225385380D02*
X100472619Y-226099666D01*
X100520238Y-226242523D01*
X100615476Y-226337761D01*
X100758333Y-226385380D01*
X100853571Y-226385380D01*
X99520238Y-226385380D02*
X99996428Y-226385380D01*
X99996428Y-225385380D01*
X98615476Y-226290142D02*
X98663095Y-226337761D01*
X98805952Y-226385380D01*
X98901190Y-226385380D01*
X99044047Y-226337761D01*
X99139285Y-226242523D01*
X99186904Y-226147285D01*
X99234523Y-225956809D01*
X99234523Y-225813952D01*
X99186904Y-225623476D01*
X99139285Y-225528238D01*
X99044047Y-225433000D01*
X98901190Y-225385380D01*
X98805952Y-225385380D01*
X98663095Y-225433000D01*
X98615476Y-225480619D01*
X97901190Y-225385380D02*
X97901190Y-226099666D01*
X97948809Y-226242523D01*
X98044047Y-226337761D01*
X98186904Y-226385380D01*
X98282142Y-226385380D01*
X96948809Y-226385380D02*
X97425000Y-226385380D01*
X97425000Y-225385380D01*
X96044047Y-226290142D02*
X96091666Y-226337761D01*
X96234523Y-226385380D01*
X96329761Y-226385380D01*
X96472619Y-226337761D01*
X96567857Y-226242523D01*
X96615476Y-226147285D01*
X96663095Y-225956809D01*
X96663095Y-225813952D01*
X96615476Y-225623476D01*
X96567857Y-225528238D01*
X96472619Y-225433000D01*
X96329761Y-225385380D01*
X96234523Y-225385380D01*
X96091666Y-225433000D01*
X96044047Y-225480619D01*
X95329761Y-225385380D02*
X95329761Y-226099666D01*
X95377380Y-226242523D01*
X95472619Y-226337761D01*
X95615476Y-226385380D01*
X95710714Y-226385380D01*
X94377380Y-226385380D02*
X94853571Y-226385380D01*
X94853571Y-225385380D01*
X93472619Y-226290142D02*
X93520238Y-226337761D01*
X93663095Y-226385380D01*
X93758333Y-226385380D01*
X93901190Y-226337761D01*
X93996428Y-226242523D01*
X94044047Y-226147285D01*
X94091666Y-225956809D01*
X94091666Y-225813952D01*
X94044047Y-225623476D01*
X93996428Y-225528238D01*
X93901190Y-225433000D01*
X93758333Y-225385380D01*
X93663095Y-225385380D01*
X93520238Y-225433000D01*
X93472619Y-225480619D01*
D11*
X229076250Y-158940500D02*
X245459250Y-158940500D01*
X245459250Y-187261500D02*
X229076250Y-187261500D01*
X245459250Y-158940500D02*
X253587250Y-173164500D01*
X228949250Y-187261500D02*
X220948250Y-173164500D01*
X220948250Y-173164500D02*
X229076250Y-158940500D01*
X253587250Y-173164500D02*
X245459250Y-187261500D01*
X196342000Y-159004000D02*
X204470000Y-144780000D01*
X204470000Y-144780000D02*
X220853000Y-144780000D01*
X228981000Y-159004000D02*
X220853000Y-173101000D01*
X220853000Y-173101000D02*
X204470000Y-173101000D01*
X204343000Y-173101000D02*
X196342000Y-159004000D01*
X220853000Y-144780000D02*
X228981000Y-159004000D01*
X204343000Y-201422000D02*
X196342000Y-187325000D01*
X220853000Y-201422000D02*
X204470000Y-201422000D01*
X228981000Y-187325000D02*
X220853000Y-201422000D01*
X220853000Y-173101000D02*
X228981000Y-187325000D01*
X204470000Y-173101000D02*
X220853000Y-173101000D01*
X196342000Y-187325000D02*
X204470000Y-173101000D01*
D10*
X339769523Y-208359428D02*
X339769523Y-209978476D01*
X339864761Y-210168952D01*
X339960000Y-210264190D01*
X340150476Y-210359428D01*
X340436190Y-210359428D01*
X340626666Y-210264190D01*
X339769523Y-209597523D02*
X339960000Y-209692761D01*
X340340952Y-209692761D01*
X340531428Y-209597523D01*
X340626666Y-209502285D01*
X340721904Y-209311809D01*
X340721904Y-208740380D01*
X340626666Y-208549904D01*
X340531428Y-208454666D01*
X340340952Y-208359428D01*
X339960000Y-208359428D01*
X339769523Y-208454666D01*
X338817142Y-209692761D02*
X338817142Y-208359428D01*
X338817142Y-207692761D02*
X338912380Y-207788000D01*
X338817142Y-207883238D01*
X338721904Y-207788000D01*
X338817142Y-207692761D01*
X338817142Y-207883238D01*
X338150476Y-208359428D02*
X337388571Y-208359428D01*
X337864761Y-207692761D02*
X337864761Y-209407047D01*
X337769523Y-209597523D01*
X337579047Y-209692761D01*
X337388571Y-209692761D01*
X336721904Y-209692761D02*
X336721904Y-207692761D01*
X335864761Y-209692761D02*
X335864761Y-208645142D01*
X335960000Y-208454666D01*
X336150476Y-208359428D01*
X336436190Y-208359428D01*
X336626666Y-208454666D01*
X336721904Y-208549904D01*
X334055238Y-208359428D02*
X334055238Y-209692761D01*
X334912380Y-208359428D02*
X334912380Y-209407047D01*
X334817142Y-209597523D01*
X334626666Y-209692761D01*
X334340952Y-209692761D01*
X334150476Y-209597523D01*
X334055238Y-209502285D01*
X333102857Y-209692761D02*
X333102857Y-207692761D01*
X333102857Y-208454666D02*
X332912380Y-208359428D01*
X332531428Y-208359428D01*
X332340952Y-208454666D01*
X332245714Y-208549904D01*
X332150476Y-208740380D01*
X332150476Y-209311809D01*
X332245714Y-209502285D01*
X332340952Y-209597523D01*
X332531428Y-209692761D01*
X332912380Y-209692761D01*
X333102857Y-209597523D01*
X331293333Y-209502285D02*
X331198095Y-209597523D01*
X331293333Y-209692761D01*
X331388571Y-209597523D01*
X331293333Y-209502285D01*
X331293333Y-209692761D01*
X329483809Y-209597523D02*
X329674285Y-209692761D01*
X330055238Y-209692761D01*
X330245714Y-209597523D01*
X330340952Y-209502285D01*
X330436190Y-209311809D01*
X330436190Y-208740380D01*
X330340952Y-208549904D01*
X330245714Y-208454666D01*
X330055238Y-208359428D01*
X329674285Y-208359428D01*
X329483809Y-208454666D01*
X328340952Y-209692761D02*
X328531428Y-209597523D01*
X328626666Y-209502285D01*
X328721904Y-209311809D01*
X328721904Y-208740380D01*
X328626666Y-208549904D01*
X328531428Y-208454666D01*
X328340952Y-208359428D01*
X328055238Y-208359428D01*
X327864761Y-208454666D01*
X327769523Y-208549904D01*
X327674285Y-208740380D01*
X327674285Y-209311809D01*
X327769523Y-209502285D01*
X327864761Y-209597523D01*
X328055238Y-209692761D01*
X328340952Y-209692761D01*
X326817142Y-209692761D02*
X326817142Y-208359428D01*
X326817142Y-208549904D02*
X326721904Y-208454666D01*
X326531428Y-208359428D01*
X326245714Y-208359428D01*
X326055238Y-208454666D01*
X325960000Y-208645142D01*
X325960000Y-209692761D01*
X325960000Y-208645142D02*
X325864761Y-208454666D01*
X325674285Y-208359428D01*
X325388571Y-208359428D01*
X325198095Y-208454666D01*
X325102857Y-208645142D01*
X325102857Y-209692761D01*
X322721904Y-207597523D02*
X324436190Y-210168952D01*
X321198095Y-209692761D02*
X321198095Y-207692761D01*
X321198095Y-209597523D02*
X321388571Y-209692761D01*
X321769523Y-209692761D01*
X321960000Y-209597523D01*
X322055238Y-209502285D01*
X322150476Y-209311809D01*
X322150476Y-208740380D01*
X322055238Y-208549904D01*
X321960000Y-208454666D01*
X321769523Y-208359428D01*
X321388571Y-208359428D01*
X321198095Y-208454666D01*
X320340952Y-209597523D02*
X320150476Y-209692761D01*
X319769523Y-209692761D01*
X319579047Y-209597523D01*
X319483809Y-209407047D01*
X319483809Y-209311809D01*
X319579047Y-209121333D01*
X319769523Y-209026095D01*
X320055238Y-209026095D01*
X320245714Y-208930857D01*
X320340952Y-208740380D01*
X320340952Y-208645142D01*
X320245714Y-208454666D01*
X320055238Y-208359428D01*
X319769523Y-208359428D01*
X319579047Y-208454666D01*
X317769523Y-209692761D02*
X317769523Y-208645142D01*
X317864761Y-208454666D01*
X318055238Y-208359428D01*
X318436190Y-208359428D01*
X318626666Y-208454666D01*
X317769523Y-209597523D02*
X317960000Y-209692761D01*
X318436190Y-209692761D01*
X318626666Y-209597523D01*
X318721904Y-209407047D01*
X318721904Y-209216571D01*
X318626666Y-209026095D01*
X318436190Y-208930857D01*
X317960000Y-208930857D01*
X317769523Y-208835619D01*
X316817142Y-208359428D02*
X316817142Y-209692761D01*
X316817142Y-208549904D02*
X316721904Y-208454666D01*
X316531428Y-208359428D01*
X316245714Y-208359428D01*
X316055238Y-208454666D01*
X315960000Y-208645142D01*
X315960000Y-209692761D01*
X314150476Y-209597523D02*
X314340952Y-209692761D01*
X314721904Y-209692761D01*
X314912380Y-209597523D01*
X315007619Y-209502285D01*
X315102857Y-209311809D01*
X315102857Y-208740380D01*
X315007619Y-208549904D01*
X314912380Y-208454666D01*
X314721904Y-208359428D01*
X314340952Y-208359428D01*
X314150476Y-208454666D01*
X313293333Y-209692761D02*
X313293333Y-207692761D01*
X312436190Y-209692761D02*
X312436190Y-208645142D01*
X312531428Y-208454666D01*
X312721904Y-208359428D01*
X313007619Y-208359428D01*
X313198095Y-208454666D01*
X313293333Y-208549904D01*
X310721904Y-209597523D02*
X310912380Y-209692761D01*
X311293333Y-209692761D01*
X311483809Y-209597523D01*
X311579047Y-209407047D01*
X311579047Y-208645142D01*
X311483809Y-208454666D01*
X311293333Y-208359428D01*
X310912380Y-208359428D01*
X310721904Y-208454666D01*
X310626666Y-208645142D01*
X310626666Y-208835619D01*
X311579047Y-209026095D01*
X309960000Y-208359428D02*
X308912380Y-208359428D01*
X309960000Y-209692761D01*
X308912380Y-209692761D01*
X308245714Y-209597523D02*
X308055238Y-209692761D01*
X307674285Y-209692761D01*
X307483809Y-209597523D01*
X307388571Y-209407047D01*
X307388571Y-209311809D01*
X307483809Y-209121333D01*
X307674285Y-209026095D01*
X307960000Y-209026095D01*
X308150476Y-208930857D01*
X308245714Y-208740380D01*
X308245714Y-208645142D01*
X308150476Y-208454666D01*
X307960000Y-208359428D01*
X307674285Y-208359428D01*
X307483809Y-208454666D01*
X305769523Y-209597523D02*
X305960000Y-209692761D01*
X306340952Y-209692761D01*
X306531428Y-209597523D01*
X306626666Y-209407047D01*
X306626666Y-208645142D01*
X306531428Y-208454666D01*
X306340952Y-208359428D01*
X305960000Y-208359428D01*
X305769523Y-208454666D01*
X305674285Y-208645142D01*
X305674285Y-208835619D01*
X306626666Y-209026095D01*
X303960000Y-209597523D02*
X304150476Y-209692761D01*
X304531428Y-209692761D01*
X304721904Y-209597523D01*
X304817142Y-209502285D01*
X304912380Y-209311809D01*
X304912380Y-208740380D01*
X304817142Y-208549904D01*
X304721904Y-208454666D01*
X304531428Y-208359428D01*
X304150476Y-208359428D01*
X303960000Y-208454666D01*
X302817142Y-209692761D02*
X303007619Y-209597523D01*
X303102857Y-209502285D01*
X303198095Y-209311809D01*
X303198095Y-208740380D01*
X303102857Y-208549904D01*
X303007619Y-208454666D01*
X302817142Y-208359428D01*
X302531428Y-208359428D01*
X302340952Y-208454666D01*
X302245714Y-208549904D01*
X302150476Y-208740380D01*
X302150476Y-209311809D01*
X302245714Y-209502285D01*
X302340952Y-209597523D01*
X302531428Y-209692761D01*
X302817142Y-209692761D01*
X299864761Y-207597523D02*
X301579047Y-210168952D01*
X299198095Y-208359428D02*
X299198095Y-210359428D01*
X299198095Y-208454666D02*
X299007619Y-208359428D01*
X298626666Y-208359428D01*
X298436190Y-208454666D01*
X298340952Y-208549904D01*
X298245714Y-208740380D01*
X298245714Y-209311809D01*
X298340952Y-209502285D01*
X298436190Y-209597523D01*
X298626666Y-209692761D01*
X299007619Y-209692761D01*
X299198095Y-209597523D01*
X296531428Y-208359428D02*
X296531428Y-209692761D01*
X297388571Y-208359428D02*
X297388571Y-209407047D01*
X297293333Y-209597523D01*
X297102857Y-209692761D01*
X296817142Y-209692761D01*
X296626666Y-209597523D01*
X296531428Y-209502285D01*
X295579047Y-208359428D02*
X295579047Y-209692761D01*
X295579047Y-208549904D02*
X295483809Y-208454666D01*
X295293333Y-208359428D01*
X295007619Y-208359428D01*
X294817142Y-208454666D01*
X294721904Y-208645142D01*
X294721904Y-209692761D01*
X293769523Y-209692761D02*
X293769523Y-207692761D01*
X293579047Y-208930857D02*
X293007619Y-209692761D01*
X293007619Y-208359428D02*
X293769523Y-209121333D01*
X292340952Y-207692761D02*
X291007619Y-207692761D01*
X291864761Y-209692761D01*
X289293333Y-207692761D02*
X290245714Y-207692761D01*
X290340952Y-208645142D01*
X290245714Y-208549904D01*
X290055238Y-208454666D01*
X289579047Y-208454666D01*
X289388571Y-208549904D01*
X289293333Y-208645142D01*
X289198095Y-208835619D01*
X289198095Y-209311809D01*
X289293333Y-209502285D01*
X289388571Y-209597523D01*
X289579047Y-209692761D01*
X290055238Y-209692761D01*
X290245714Y-209597523D01*
X290340952Y-209502285D01*
D12*
X283845000Y-126238000D02*
X283845000Y-124460000D01*
X283845000Y-124478051D02*
X282321000Y-123571000D01*
X282321000Y-121793000D02*
X282321000Y-123571000D01*
X288417000Y-127145051D02*
X286893000Y-126238000D01*
X280797000Y-124478051D02*
X279273000Y-123571000D01*
X291465000Y-121793000D02*
X292989000Y-120885949D01*
X282321000Y-127145051D02*
X283845000Y-126238000D01*
X288417000Y-123571000D02*
X288417000Y-121793000D01*
X292989000Y-124478051D02*
X291465000Y-123571000D01*
X280797000Y-126238000D02*
X280797000Y-124460000D01*
X292989000Y-126238000D02*
X292989000Y-124460000D01*
X285369000Y-121793000D02*
X285369000Y-123571000D01*
X288417000Y-127145051D02*
X289941000Y-126238000D01*
X288417000Y-121793000D02*
X289941000Y-120885949D01*
X280797000Y-124478051D02*
X279273000Y-123571000D01*
X296037000Y-124460000D02*
X296037000Y-126238000D01*
X294513000Y-127145051D02*
X296037000Y-126238000D01*
X294513000Y-121811051D02*
X292989000Y-120904000D01*
X296037000Y-124478051D02*
X294513000Y-123571000D01*
X285369000Y-121811051D02*
X283845000Y-120904000D01*
X294513000Y-121793000D02*
X294513000Y-123571000D01*
X286893000Y-126238000D02*
X286893000Y-124460000D01*
X282321000Y-121811051D02*
X280797000Y-120904000D01*
X286893000Y-124478051D02*
X285369000Y-123571000D01*
X283845000Y-124460000D02*
X285369000Y-123552949D01*
X291465000Y-123571000D02*
X291465000Y-121793000D01*
X289941000Y-124478051D02*
X288417000Y-123571000D01*
X289941000Y-124478051D02*
X291465000Y-123571000D01*
X283845000Y-124460000D02*
X283845000Y-126238000D01*
X288417000Y-121793000D02*
X288417000Y-123571000D01*
X283845000Y-124478051D02*
X282321000Y-123571000D01*
X286893000Y-124460000D02*
X286893000Y-126238000D01*
X285369000Y-127145051D02*
X286893000Y-126238000D01*
X296037000Y-126238000D02*
X296037000Y-124460000D01*
X292989000Y-124478051D02*
X291465000Y-123571000D01*
X285369000Y-127145051D02*
X283845000Y-126238000D01*
X291465000Y-121793000D02*
X291465000Y-123571000D01*
X280797000Y-124460000D02*
X280797000Y-126238000D01*
X291465000Y-127145051D02*
X292989000Y-126238000D01*
X289941000Y-126238000D02*
X289941000Y-124460000D01*
X286893000Y-124460000D02*
X288417000Y-123552949D01*
X291465000Y-127145051D02*
X289941000Y-126238000D01*
X283845000Y-124478051D02*
X285369000Y-123571000D01*
X282321000Y-127145051D02*
X280797000Y-126238000D01*
X279273000Y-121793000D02*
X280797000Y-120885949D01*
X294513000Y-123571000D02*
X294513000Y-121793000D01*
X288417000Y-121811051D02*
X286893000Y-120904000D01*
X279273000Y-127145051D02*
X280797000Y-126238000D01*
X292989000Y-124460000D02*
X294513000Y-123552949D01*
X282321000Y-121793000D02*
X283845000Y-120885949D01*
X280797000Y-124460000D02*
X282321000Y-123552949D01*
X285369000Y-121793000D02*
X286893000Y-120885949D01*
X294513000Y-127145051D02*
X292989000Y-126238000D01*
X286893000Y-124478051D02*
X285369000Y-123571000D01*
X289941000Y-124460000D02*
X289941000Y-126238000D01*
X279273000Y-121793000D02*
X279273000Y-123571000D01*
X285369000Y-123571000D02*
X285369000Y-121793000D01*
X289941000Y-124478051D02*
X288417000Y-123571000D01*
X279273000Y-123571000D02*
X279273000Y-121793000D01*
X292989000Y-124478051D02*
X294513000Y-123571000D01*
X286893000Y-124478051D02*
X288417000Y-123571000D01*
X294513000Y-121793000D02*
X296037000Y-120885949D01*
X292989000Y-124460000D02*
X292989000Y-126238000D01*
X296037000Y-124460000D02*
X296037000Y-126238000D01*
X291465000Y-121811051D02*
X289941000Y-120904000D01*
X280797000Y-124478051D02*
X282321000Y-123571000D01*
X296037000Y-124478051D02*
X294513000Y-123571000D01*
X282321000Y-123571000D02*
X282321000Y-121793000D01*
X289941000Y-124460000D02*
X291465000Y-123552949D01*
X288417000Y-123571000D02*
X288417000Y-121793000D01*
X292989000Y-124460000D02*
X292989000Y-126238000D01*
X299085000Y-124460000D02*
X300609000Y-123552949D01*
X289941000Y-124460000D02*
X291465000Y-123552949D01*
X300609000Y-127145051D02*
X299085000Y-126238000D01*
X291465000Y-123571000D02*
X291465000Y-121793000D01*
X299085000Y-124478051D02*
X297561000Y-123571000D01*
X300609000Y-121811051D02*
X299085000Y-120904000D01*
X299085000Y-124460000D02*
X299085000Y-126238000D01*
X302133000Y-124478051D02*
X300609000Y-123571000D01*
X292989000Y-124478051D02*
X291465000Y-123571000D01*
X286893000Y-124460000D02*
X286893000Y-126238000D01*
X286893000Y-124460000D02*
X288417000Y-123552949D01*
X302133000Y-124460000D02*
X302133000Y-126238000D01*
X296037000Y-124478051D02*
X294513000Y-123571000D01*
X289941000Y-126238000D02*
X289941000Y-124460000D01*
X300609000Y-121793000D02*
X302133000Y-120885949D01*
X297561000Y-127145051D02*
X296037000Y-126238000D01*
X289941000Y-124478051D02*
X291465000Y-123571000D01*
X285369000Y-127145051D02*
X286893000Y-126238000D01*
X292989000Y-124478051D02*
X294513000Y-123571000D01*
X292989000Y-124460000D02*
X294513000Y-123552949D01*
X292989000Y-124478051D02*
X291465000Y-123571000D01*
X294513000Y-127145051D02*
X296037000Y-126238000D01*
X288417000Y-127145051D02*
X286893000Y-126238000D01*
X288417000Y-121811051D02*
X286893000Y-120904000D01*
X289941000Y-124478051D02*
X288417000Y-123571000D01*
X286893000Y-124478051D02*
X288417000Y-123571000D01*
X285369000Y-123571000D02*
X285369000Y-121793000D01*
X289941000Y-124478051D02*
X288417000Y-123571000D01*
X288417000Y-127145051D02*
X289941000Y-126238000D01*
X291465000Y-121811051D02*
X289941000Y-120904000D01*
X300609000Y-121793000D02*
X300609000Y-123571000D01*
X291465000Y-121793000D02*
X292989000Y-120885949D01*
X294513000Y-121793000D02*
X296037000Y-120885949D01*
X302133000Y-124478051D02*
X300609000Y-123571000D01*
X296037000Y-124478051D02*
X297561000Y-123571000D01*
X292989000Y-126238000D02*
X292989000Y-124460000D01*
X302133000Y-124460000D02*
X302133000Y-126238000D01*
X288417000Y-121793000D02*
X289941000Y-120885949D01*
X297561000Y-121811051D02*
X296037000Y-120904000D01*
X291465000Y-127145051D02*
X289941000Y-126238000D01*
X286893000Y-124478051D02*
X285369000Y-123571000D01*
X297561000Y-121793000D02*
X297561000Y-123571000D01*
X294513000Y-121811051D02*
X292989000Y-120904000D01*
X285369000Y-121793000D02*
X285369000Y-123571000D01*
X300609000Y-127145051D02*
X302133000Y-126238000D01*
X294513000Y-123571000D02*
X294513000Y-121793000D01*
X296037000Y-124460000D02*
X296037000Y-126238000D01*
X299085000Y-126238000D02*
X299085000Y-124460000D01*
X297561000Y-121793000D02*
X299085000Y-120885949D01*
X291465000Y-127145051D02*
X292989000Y-126238000D01*
X296037000Y-126238000D02*
X296037000Y-124460000D01*
X286893000Y-126238000D02*
X286893000Y-124460000D01*
X291465000Y-121793000D02*
X291465000Y-123571000D01*
X296037000Y-124478051D02*
X294513000Y-123571000D01*
X296037000Y-124460000D02*
X297561000Y-123552949D01*
X289941000Y-124460000D02*
X289941000Y-126238000D01*
X300609000Y-123571000D02*
X300609000Y-121793000D01*
X299085000Y-124478051D02*
X300609000Y-123571000D01*
X299085000Y-124478051D02*
X297561000Y-123571000D01*
X294513000Y-121793000D02*
X294513000Y-123571000D01*
X286893000Y-124478051D02*
X285369000Y-123571000D01*
X288417000Y-121793000D02*
X288417000Y-123571000D01*
X297561000Y-127145051D02*
X299085000Y-126238000D01*
X302133000Y-126238000D02*
X302133000Y-124460000D01*
X297561000Y-123571000D02*
X297561000Y-121793000D01*
X294513000Y-127145051D02*
X292989000Y-126238000D01*
X285369000Y-121793000D02*
X286893000Y-120885949D01*
X300609000Y-127145051D02*
X299085000Y-126238000D01*
X309753000Y-121811051D02*
X308229000Y-120904000D01*
X306705000Y-127145051D02*
X308229000Y-126238000D01*
X302133000Y-126238000D02*
X302133000Y-124460000D01*
X312801000Y-127145051D02*
X314325000Y-126238000D01*
X300609000Y-121811051D02*
X299085000Y-120904000D01*
X299085000Y-124460000D02*
X299085000Y-126238000D01*
X300609000Y-121793000D02*
X302133000Y-120885949D01*
X309753000Y-121793000D02*
X311277000Y-120885949D01*
X305181000Y-124460000D02*
X305181000Y-126238000D01*
X311277000Y-124478051D02*
X312801000Y-123571000D01*
X311277000Y-124460000D02*
X311277000Y-126238000D01*
X312801000Y-121811051D02*
X311277000Y-120904000D01*
X312801000Y-123571000D02*
X312801000Y-121793000D01*
X308229000Y-126238000D02*
X308229000Y-124460000D01*
X312801000Y-121793000D02*
X312801000Y-123571000D01*
X302133000Y-124460000D02*
X302133000Y-126238000D01*
X309753000Y-121793000D02*
X309753000Y-123571000D01*
X306705000Y-127145051D02*
X305181000Y-126238000D01*
X300609000Y-121793000D02*
X300609000Y-123571000D01*
X311277000Y-124478051D02*
X309753000Y-123571000D01*
X302133000Y-124478051D02*
X303657000Y-123571000D01*
X297561000Y-127145051D02*
X299085000Y-126238000D01*
X303657000Y-121793000D02*
X305181000Y-120885949D01*
X305181000Y-124460000D02*
X306705000Y-123552949D01*
X305181000Y-126238000D02*
X305181000Y-124460000D01*
X312801000Y-127145051D02*
X311277000Y-126238000D01*
X299085000Y-124478051D02*
X297561000Y-123571000D01*
X309753000Y-127145051D02*
X308229000Y-126238000D01*
X314325000Y-124460000D02*
X314325000Y-126238000D01*
X314325000Y-124478051D02*
X312801000Y-123571000D01*
X302133000Y-124460000D02*
X303657000Y-123552949D01*
X305181000Y-124478051D02*
X306705000Y-123571000D01*
X305181000Y-124478051D02*
X303657000Y-123571000D01*
X309753000Y-127145051D02*
X311277000Y-126238000D01*
X303657000Y-121793000D02*
X303657000Y-123571000D01*
X299085000Y-124460000D02*
X300609000Y-123552949D01*
X297561000Y-121793000D02*
X297561000Y-123571000D01*
X299085000Y-126238000D02*
X299085000Y-124460000D01*
X297561000Y-123571000D02*
X297561000Y-121793000D01*
X306705000Y-121811051D02*
X305181000Y-120904000D01*
X314325000Y-126238000D02*
X314325000Y-124460000D01*
X297561000Y-121793000D02*
X299085000Y-120885949D01*
X302133000Y-124478051D02*
X300609000Y-123571000D01*
X299085000Y-124478051D02*
X297561000Y-123571000D01*
X308229000Y-124478051D02*
X306705000Y-123571000D01*
X303657000Y-121811051D02*
X302133000Y-120904000D01*
X306705000Y-121793000D02*
X308229000Y-120885949D01*
X314325000Y-124478051D02*
X312801000Y-123571000D01*
X308229000Y-124460000D02*
X308229000Y-126238000D01*
X308229000Y-124478051D02*
X309753000Y-123571000D01*
X306705000Y-121793000D02*
X306705000Y-123571000D01*
X311277000Y-126238000D02*
X311277000Y-124460000D01*
X309753000Y-123571000D02*
X309753000Y-121793000D01*
X308229000Y-124478051D02*
X306705000Y-123571000D01*
X311277000Y-124460000D02*
X312801000Y-123552949D01*
X299085000Y-124478051D02*
X300609000Y-123571000D01*
X303657000Y-123571000D02*
X303657000Y-121793000D01*
X303657000Y-127145051D02*
X305181000Y-126238000D01*
X314325000Y-124460000D02*
X314325000Y-126238000D01*
X300609000Y-127145051D02*
X302133000Y-126238000D01*
X303657000Y-127145051D02*
X302133000Y-126238000D01*
X300609000Y-123571000D02*
X300609000Y-121793000D01*
X306705000Y-123571000D02*
X306705000Y-121793000D01*
X308229000Y-124460000D02*
X309753000Y-123552949D01*
X311277000Y-124478051D02*
X309753000Y-123571000D01*
X312801000Y-121793000D02*
X314325000Y-120885949D01*
X305181000Y-124478051D02*
X303657000Y-123571000D01*
X302133000Y-124478051D02*
X300609000Y-123571000D01*
X321945000Y-121793000D02*
X321945000Y-123571000D01*
X320421000Y-124460000D02*
X321945000Y-123552949D01*
X318897000Y-121793000D02*
X318897000Y-123571000D01*
X329565000Y-124478051D02*
X328041000Y-123571000D01*
X323469000Y-124460000D02*
X323469000Y-126238000D01*
X320421000Y-124478051D02*
X321945000Y-123571000D01*
X318897000Y-127145051D02*
X320421000Y-126238000D01*
X312801000Y-123571000D02*
X312801000Y-121793000D01*
X312801000Y-127145051D02*
X314325000Y-126238000D01*
X317373000Y-124460000D02*
X318897000Y-123552949D01*
X329565000Y-124460000D02*
X329565000Y-126238000D01*
X320421000Y-124460000D02*
X320421000Y-126238000D01*
X315849000Y-121793000D02*
X315849000Y-123571000D01*
X324993000Y-121793000D02*
X326517000Y-120885949D01*
X320421000Y-124478051D02*
X318897000Y-123571000D01*
X321945000Y-121793000D02*
X323469000Y-120885949D01*
X329565000Y-124460000D02*
X329565000Y-126238000D01*
X326517000Y-126238000D02*
X326517000Y-124460000D01*
X317373000Y-126238000D02*
X317373000Y-124460000D01*
X314325000Y-124478051D02*
X312801000Y-123571000D01*
X321945000Y-123571000D02*
X321945000Y-121793000D01*
X326517000Y-124478051D02*
X324993000Y-123571000D01*
X318897000Y-127145051D02*
X317373000Y-126238000D01*
X329565000Y-126238000D02*
X329565000Y-124460000D01*
X314325000Y-124478051D02*
X315849000Y-123571000D01*
X328041000Y-127145051D02*
X326517000Y-126238000D01*
X317373000Y-124478051D02*
X315849000Y-123571000D01*
X324993000Y-121793000D02*
X324993000Y-123571000D01*
X318897000Y-121793000D02*
X320421000Y-120885949D01*
X321945000Y-127145051D02*
X323469000Y-126238000D01*
X317373000Y-124460000D02*
X317373000Y-126238000D01*
X314325000Y-124478051D02*
X312801000Y-123571000D01*
X314325000Y-126238000D02*
X314325000Y-124460000D01*
X320421000Y-126238000D02*
X320421000Y-124460000D01*
X315849000Y-127145051D02*
X314325000Y-126238000D01*
X317373000Y-124478051D02*
X318897000Y-123571000D01*
X315849000Y-121811051D02*
X314325000Y-120904000D01*
X323469000Y-124478051D02*
X321945000Y-123571000D01*
X328041000Y-121793000D02*
X328041000Y-123571000D01*
X328041000Y-127145051D02*
X329565000Y-126238000D01*
X329565000Y-124478051D02*
X328041000Y-123571000D01*
X323469000Y-126238000D02*
X323469000Y-124460000D01*
X326517000Y-124478051D02*
X324993000Y-123571000D01*
X324993000Y-121811051D02*
X323469000Y-120904000D01*
X318897000Y-121811051D02*
X317373000Y-120904000D01*
X323469000Y-124478051D02*
X324993000Y-123571000D01*
X321945000Y-121811051D02*
X320421000Y-120904000D01*
X328041000Y-123571000D02*
X328041000Y-121793000D01*
X314325000Y-124460000D02*
X315849000Y-123552949D01*
X324993000Y-127145051D02*
X326517000Y-126238000D01*
X326517000Y-124478051D02*
X328041000Y-123571000D01*
X315849000Y-127145051D02*
X317373000Y-126238000D01*
X328041000Y-121793000D02*
X329565000Y-120885949D01*
X320421000Y-124478051D02*
X318897000Y-123571000D01*
X321945000Y-127145051D02*
X320421000Y-126238000D01*
X312801000Y-121793000D02*
X314325000Y-120885949D01*
X315849000Y-123571000D02*
X315849000Y-121793000D01*
X326517000Y-124460000D02*
X328041000Y-123552949D01*
X323469000Y-124460000D02*
X324993000Y-123552949D01*
X326517000Y-124460000D02*
X326517000Y-126238000D01*
X314325000Y-124460000D02*
X314325000Y-126238000D01*
X312801000Y-121793000D02*
X312801000Y-123571000D01*
X317373000Y-124478051D02*
X315849000Y-123571000D01*
X324993000Y-123571000D02*
X324993000Y-121793000D01*
X318897000Y-123571000D02*
X318897000Y-121793000D01*
X315849000Y-121793000D02*
X317373000Y-120885949D01*
X324993000Y-127145051D02*
X323469000Y-126238000D01*
X323469000Y-124478051D02*
X321945000Y-123571000D01*
X328041000Y-121811051D02*
X326517000Y-120904000D01*
X321945000Y-121811051D02*
X320421000Y-120904000D01*
X315849000Y-118237000D02*
X315849000Y-116459000D01*
X324993000Y-121811051D02*
X326517000Y-120904000D01*
X323469000Y-119144051D02*
X321945000Y-118237000D01*
X323469000Y-119144051D02*
X324993000Y-118237000D01*
X320421000Y-119144051D02*
X321945000Y-118237000D01*
X315849000Y-116477051D02*
X314325000Y-115570000D01*
X315849000Y-121811051D02*
X317373000Y-120904000D01*
X315849000Y-116459000D02*
X317373000Y-115551949D01*
X318897000Y-116459000D02*
X320421000Y-115551949D01*
X326517000Y-119144051D02*
X328041000Y-118237000D01*
X321945000Y-116477051D02*
X320421000Y-115570000D01*
X317373000Y-119144051D02*
X315849000Y-118237000D01*
X317373000Y-120904000D02*
X317373000Y-119126000D01*
X324993000Y-121811051D02*
X323469000Y-120904000D01*
X329565000Y-120904000D02*
X329565000Y-119126000D01*
X328041000Y-116459000D02*
X329565000Y-115551949D01*
X326517000Y-119126000D02*
X328041000Y-118218949D01*
X312801000Y-118237000D02*
X312801000Y-116459000D01*
X326517000Y-119126000D02*
X326517000Y-120904000D01*
X317373000Y-119126000D02*
X317373000Y-120904000D01*
X314325000Y-119144051D02*
X312801000Y-118237000D01*
X323469000Y-119144051D02*
X321945000Y-118237000D01*
X312801000Y-116459000D02*
X312801000Y-118237000D01*
X323469000Y-120904000D02*
X323469000Y-119126000D01*
X321945000Y-118237000D02*
X321945000Y-116459000D01*
X328041000Y-116459000D02*
X328041000Y-118237000D01*
X320421000Y-120904000D02*
X320421000Y-119126000D01*
X315849000Y-121811051D02*
X314325000Y-120904000D01*
X314325000Y-119144051D02*
X315849000Y-118237000D01*
X328041000Y-121811051D02*
X329565000Y-120904000D01*
X315849000Y-116459000D02*
X315849000Y-118237000D01*
X328041000Y-116477051D02*
X326517000Y-115570000D01*
X317373000Y-119126000D02*
X318897000Y-118218949D01*
X318897000Y-116459000D02*
X318897000Y-118237000D01*
X318897000Y-116477051D02*
X317373000Y-115570000D01*
X318897000Y-121811051D02*
X320421000Y-120904000D01*
X324993000Y-118237000D02*
X324993000Y-116459000D01*
X323469000Y-119126000D02*
X324993000Y-118218949D01*
X321945000Y-121811051D02*
X323469000Y-120904000D01*
X328041000Y-118237000D02*
X328041000Y-116459000D01*
X324993000Y-116477051D02*
X323469000Y-115570000D01*
X329565000Y-119126000D02*
X329565000Y-120904000D01*
X314325000Y-119126000D02*
X314325000Y-120904000D01*
X326517000Y-119144051D02*
X324993000Y-118237000D01*
X329565000Y-119144051D02*
X328041000Y-118237000D01*
X324993000Y-116459000D02*
X324993000Y-118237000D01*
X329565000Y-119126000D02*
X329565000Y-120904000D01*
X314325000Y-119144051D02*
X312801000Y-118237000D01*
X324993000Y-116459000D02*
X326517000Y-115551949D01*
X320421000Y-119126000D02*
X320421000Y-120904000D01*
X318897000Y-118237000D02*
X318897000Y-116459000D01*
X317373000Y-119144051D02*
X315849000Y-118237000D01*
X318897000Y-121811051D02*
X317373000Y-120904000D01*
X314325000Y-119126000D02*
X315849000Y-118218949D01*
X321945000Y-116459000D02*
X323469000Y-115551949D01*
X326517000Y-120904000D02*
X326517000Y-119126000D01*
X326517000Y-119144051D02*
X324993000Y-118237000D01*
X312801000Y-121811051D02*
X314325000Y-120904000D01*
X320421000Y-119126000D02*
X321945000Y-118218949D01*
X328041000Y-121811051D02*
X326517000Y-120904000D01*
X312801000Y-116459000D02*
X314325000Y-115551949D01*
X320421000Y-119144051D02*
X318897000Y-118237000D01*
X329565000Y-119144051D02*
X328041000Y-118237000D01*
X321945000Y-116459000D02*
X321945000Y-118237000D01*
X314325000Y-120904000D02*
X314325000Y-119126000D01*
X317373000Y-119144051D02*
X318897000Y-118237000D01*
X323469000Y-119126000D02*
X323469000Y-120904000D01*
X320421000Y-119144051D02*
X318897000Y-118237000D01*
X320421000Y-119144051D02*
X318897000Y-118237000D01*
X323469000Y-119126000D02*
X323469000Y-120904000D01*
X321945000Y-116459000D02*
X323469000Y-115551949D01*
X309753000Y-116477051D02*
X308229000Y-115570000D01*
X317373000Y-119126000D02*
X317373000Y-120904000D01*
X306705000Y-116459000D02*
X308229000Y-115551949D01*
X314325000Y-119126000D02*
X314325000Y-120904000D01*
X311277000Y-119144051D02*
X312801000Y-118237000D01*
X314325000Y-119144051D02*
X312801000Y-118237000D01*
X323469000Y-119144051D02*
X321945000Y-118237000D01*
X320421000Y-120904000D02*
X320421000Y-119126000D01*
X320421000Y-119144051D02*
X321945000Y-118237000D01*
X318897000Y-118237000D02*
X318897000Y-116459000D01*
X306705000Y-121811051D02*
X308229000Y-120904000D01*
X311277000Y-119144051D02*
X309753000Y-118237000D01*
X318897000Y-116459000D02*
X320421000Y-115551949D01*
X309753000Y-118237000D02*
X309753000Y-116459000D01*
X315849000Y-116459000D02*
X317373000Y-115551949D01*
X323469000Y-119144051D02*
X321945000Y-118237000D01*
X315849000Y-116459000D02*
X315849000Y-118237000D01*
X321945000Y-116459000D02*
X321945000Y-118237000D01*
X320421000Y-119126000D02*
X320421000Y-120904000D01*
X308229000Y-120904000D02*
X308229000Y-119126000D01*
X311277000Y-119126000D02*
X311277000Y-120904000D01*
X323469000Y-120904000D02*
X323469000Y-119126000D01*
X321945000Y-121811051D02*
X323469000Y-120904000D01*
X308229000Y-119144051D02*
X309753000Y-118237000D01*
X314325000Y-119144051D02*
X312801000Y-118237000D01*
X314325000Y-119144051D02*
X315849000Y-118237000D01*
X309753000Y-121811051D02*
X311277000Y-120904000D01*
X306705000Y-116459000D02*
X306705000Y-118237000D01*
X321945000Y-118237000D02*
X321945000Y-116459000D01*
X309753000Y-121811051D02*
X308229000Y-120904000D01*
X318897000Y-121811051D02*
X317373000Y-120904000D01*
X308229000Y-119126000D02*
X308229000Y-120904000D01*
X317373000Y-119126000D02*
X318897000Y-118218949D01*
X312801000Y-121811051D02*
X311277000Y-120904000D01*
X320421000Y-119144051D02*
X318897000Y-118237000D01*
X306705000Y-118237000D02*
X306705000Y-116459000D01*
X315849000Y-118237000D02*
X315849000Y-116459000D01*
X312801000Y-116459000D02*
X312801000Y-118237000D01*
X318897000Y-116459000D02*
X318897000Y-118237000D01*
X314325000Y-119126000D02*
X315849000Y-118218949D01*
X312801000Y-121811051D02*
X314325000Y-120904000D01*
X317373000Y-119144051D02*
X315849000Y-118237000D01*
X312801000Y-116477051D02*
X311277000Y-115570000D01*
X317373000Y-119144051D02*
X318897000Y-118237000D01*
X317373000Y-119144051D02*
X315849000Y-118237000D01*
X315849000Y-116477051D02*
X314325000Y-115570000D01*
X314325000Y-120904000D02*
X314325000Y-119126000D01*
X318897000Y-116477051D02*
X317373000Y-115570000D01*
X311277000Y-120904000D02*
X311277000Y-119126000D01*
X317373000Y-120904000D02*
X317373000Y-119126000D01*
X308229000Y-119144051D02*
X306705000Y-118237000D01*
X312801000Y-116459000D02*
X314325000Y-115551949D01*
X315849000Y-121811051D02*
X314325000Y-120904000D01*
X321945000Y-121811051D02*
X320421000Y-120904000D01*
X320421000Y-119126000D02*
X321945000Y-118218949D01*
X311277000Y-119144051D02*
X309753000Y-118237000D01*
X308229000Y-119144051D02*
X306705000Y-118237000D01*
X309753000Y-116459000D02*
X309753000Y-118237000D01*
X323469000Y-119126000D02*
X323469000Y-120904000D01*
X321945000Y-116477051D02*
X320421000Y-115570000D01*
X318897000Y-121811051D02*
X320421000Y-120904000D01*
X312801000Y-118237000D02*
X312801000Y-116459000D01*
X309753000Y-116459000D02*
X311277000Y-115551949D01*
X315849000Y-121811051D02*
X317373000Y-120904000D01*
X308229000Y-119126000D02*
X309753000Y-118218949D01*
X311277000Y-119126000D02*
X312801000Y-118218949D01*
X303657000Y-121811051D02*
X305181000Y-120904000D01*
X302133000Y-120904000D02*
X302133000Y-119126000D01*
X311277000Y-119144051D02*
X309753000Y-118237000D01*
X309753000Y-116477051D02*
X308229000Y-115570000D01*
X308229000Y-119126000D02*
X308229000Y-120904000D01*
X305181000Y-119144051D02*
X303657000Y-118237000D01*
X299085000Y-119144051D02*
X297561000Y-118237000D01*
X297561000Y-116459000D02*
X297561000Y-118237000D01*
X300609000Y-116459000D02*
X302133000Y-115551949D01*
X296037000Y-119144051D02*
X294513000Y-118237000D01*
X300609000Y-116459000D02*
X300609000Y-118237000D01*
X300609000Y-116477051D02*
X299085000Y-115570000D01*
X303657000Y-116477051D02*
X302133000Y-115570000D01*
X300609000Y-118237000D02*
X300609000Y-116459000D01*
X297561000Y-116459000D02*
X299085000Y-115551949D01*
X306705000Y-116477051D02*
X305181000Y-115570000D01*
X296037000Y-119144051D02*
X297561000Y-118237000D01*
X305181000Y-119144051D02*
X306705000Y-118237000D01*
X308229000Y-119144051D02*
X309753000Y-118237000D01*
X297561000Y-121811051D02*
X299085000Y-120904000D01*
X303657000Y-121811051D02*
X302133000Y-120904000D01*
X302133000Y-119126000D02*
X303657000Y-118218949D01*
X306705000Y-121811051D02*
X308229000Y-120904000D01*
X308229000Y-119126000D02*
X309753000Y-118218949D01*
X294513000Y-116459000D02*
X296037000Y-115551949D01*
X300609000Y-121811051D02*
X299085000Y-120904000D01*
X296037000Y-119126000D02*
X296037000Y-120904000D01*
X309753000Y-121811051D02*
X308229000Y-120904000D01*
X309753000Y-116459000D02*
X309753000Y-118237000D01*
X305181000Y-120904000D02*
X305181000Y-119126000D01*
X296037000Y-120904000D02*
X296037000Y-119126000D01*
X297561000Y-116477051D02*
X296037000Y-115570000D01*
X302133000Y-119144051D02*
X300609000Y-118237000D01*
X311277000Y-119144051D02*
X309753000Y-118237000D01*
X296037000Y-119144051D02*
X294513000Y-118237000D01*
X299085000Y-119126000D02*
X300609000Y-118218949D01*
X299085000Y-119144051D02*
X300609000Y-118237000D01*
X306705000Y-118237000D02*
X306705000Y-116459000D01*
X297561000Y-121811051D02*
X296037000Y-120904000D01*
X308229000Y-119144051D02*
X306705000Y-118237000D01*
X309753000Y-118237000D02*
X309753000Y-116459000D01*
X297561000Y-118237000D02*
X297561000Y-116459000D01*
X306705000Y-121811051D02*
X305181000Y-120904000D01*
X305181000Y-119126000D02*
X306705000Y-118218949D01*
X305181000Y-119144051D02*
X303657000Y-118237000D01*
X302133000Y-119144051D02*
X303657000Y-118237000D01*
X300609000Y-121811051D02*
X302133000Y-120904000D01*
X296037000Y-119126000D02*
X297561000Y-118218949D01*
X303657000Y-116459000D02*
X305181000Y-115551949D01*
X306705000Y-116459000D02*
X308229000Y-115551949D01*
X311277000Y-120904000D02*
X311277000Y-119126000D01*
X299085000Y-119126000D02*
X299085000Y-120904000D01*
X311277000Y-119126000D02*
X311277000Y-120904000D01*
X299085000Y-120904000D02*
X299085000Y-119126000D01*
X303657000Y-118237000D02*
X303657000Y-116459000D01*
X306705000Y-116459000D02*
X306705000Y-118237000D01*
X309753000Y-121811051D02*
X311277000Y-120904000D01*
X303657000Y-116459000D02*
X303657000Y-118237000D01*
X294513000Y-116459000D02*
X294513000Y-118237000D01*
X308229000Y-120904000D02*
X308229000Y-119126000D01*
X294513000Y-121811051D02*
X296037000Y-120904000D01*
X309753000Y-116459000D02*
X311277000Y-115551949D01*
X311277000Y-119126000D02*
X311277000Y-120904000D01*
X308229000Y-119144051D02*
X306705000Y-118237000D01*
X299085000Y-119144051D02*
X297561000Y-118237000D01*
X294513000Y-118237000D02*
X294513000Y-116459000D01*
X305181000Y-119126000D02*
X305181000Y-120904000D01*
X302133000Y-119126000D02*
X302133000Y-120904000D01*
X302133000Y-119144051D02*
X300609000Y-118237000D01*
X294513000Y-116459000D02*
X294513000Y-118237000D01*
X286893000Y-119144051D02*
X288417000Y-118237000D01*
X292989000Y-119126000D02*
X294513000Y-118218949D01*
X280797000Y-119144051D02*
X282321000Y-118237000D01*
X286893000Y-119126000D02*
X288417000Y-118218949D01*
X289941000Y-119144051D02*
X291465000Y-118237000D01*
X289941000Y-119144051D02*
X288417000Y-118237000D01*
X282321000Y-118237000D02*
X282321000Y-116459000D01*
X291465000Y-116477051D02*
X289941000Y-115570000D01*
X296037000Y-119144051D02*
X294513000Y-118237000D01*
X283845000Y-120904000D02*
X283845000Y-119126000D01*
X279273000Y-118237000D02*
X279273000Y-116459000D01*
X283845000Y-119144051D02*
X285369000Y-118237000D01*
X292989000Y-120904000D02*
X292989000Y-119126000D01*
X296037000Y-119126000D02*
X296037000Y-120904000D01*
X283845000Y-119144051D02*
X282321000Y-118237000D01*
X288417000Y-116459000D02*
X288417000Y-118237000D01*
X283845000Y-119144051D02*
X282321000Y-118237000D01*
X288417000Y-116477051D02*
X286893000Y-115570000D01*
X292989000Y-119144051D02*
X291465000Y-118237000D01*
X280797000Y-119126000D02*
X280797000Y-120904000D01*
X294513000Y-121811051D02*
X296037000Y-120904000D01*
X286893000Y-119126000D02*
X286893000Y-120904000D01*
X291465000Y-116459000D02*
X292989000Y-115551949D01*
X289941000Y-119126000D02*
X289941000Y-120904000D01*
X282321000Y-116477051D02*
X280797000Y-115570000D01*
X291465000Y-121811051D02*
X289941000Y-120904000D01*
X294513000Y-116459000D02*
X296037000Y-115551949D01*
X280797000Y-119144051D02*
X279273000Y-118237000D01*
X285369000Y-121811051D02*
X286893000Y-120904000D01*
X294513000Y-118237000D02*
X294513000Y-116459000D01*
X292989000Y-119144051D02*
X294513000Y-118237000D01*
X289941000Y-120904000D02*
X289941000Y-119126000D01*
X296037000Y-119144051D02*
X294513000Y-118237000D01*
X294513000Y-116477051D02*
X292989000Y-115570000D01*
X292989000Y-119144051D02*
X291465000Y-118237000D01*
X282321000Y-121811051D02*
X283845000Y-120904000D01*
X285369000Y-116459000D02*
X285369000Y-118237000D01*
X282321000Y-121811051D02*
X280797000Y-120904000D01*
X288417000Y-121811051D02*
X286893000Y-120904000D01*
X282321000Y-116459000D02*
X282321000Y-118237000D01*
X279273000Y-116459000D02*
X280797000Y-115551949D01*
X296037000Y-119126000D02*
X296037000Y-120904000D01*
X286893000Y-120904000D02*
X286893000Y-119126000D01*
X280797000Y-119126000D02*
X282321000Y-118218949D01*
X285369000Y-116477051D02*
X283845000Y-115570000D01*
X286893000Y-119144051D02*
X285369000Y-118237000D01*
X294513000Y-121811051D02*
X292989000Y-120904000D01*
X288417000Y-118237000D02*
X288417000Y-116459000D01*
X291465000Y-118237000D02*
X291465000Y-116459000D01*
X283845000Y-119126000D02*
X285369000Y-118218949D01*
X292989000Y-119126000D02*
X292989000Y-120904000D01*
X285369000Y-118237000D02*
X285369000Y-116459000D01*
X283845000Y-119126000D02*
X283845000Y-120904000D01*
X279273000Y-116459000D02*
X279273000Y-118237000D01*
X285369000Y-116459000D02*
X286893000Y-115551949D01*
X289941000Y-119144051D02*
X288417000Y-118237000D01*
X291465000Y-121811051D02*
X292989000Y-120904000D01*
X280797000Y-120904000D02*
X280797000Y-119126000D01*
X285369000Y-121811051D02*
X283845000Y-120904000D01*
X279273000Y-121811051D02*
X280797000Y-120904000D01*
X291465000Y-116459000D02*
X291465000Y-118237000D01*
X286893000Y-119144051D02*
X285369000Y-118237000D01*
X282321000Y-116459000D02*
X283845000Y-115551949D01*
X280797000Y-119144051D02*
X279273000Y-118237000D01*
X296037000Y-120904000D02*
X296037000Y-119126000D01*
X288417000Y-121811051D02*
X289941000Y-120904000D01*
X288417000Y-116459000D02*
X289941000Y-115551949D01*
X289941000Y-119126000D02*
X291465000Y-118218949D01*
M02*
